G75*
G70*
%OFA0B0*%
%FSLAX24Y24*%
%IPPOS*%
%LPD*%
%AMOC8*
5,1,8,0,0,1.08239X$1,22.5*
%
%ADD10C,0.0010*%
D10*
X001220Y001600D02*
X001222Y001639D01*
X001228Y001677D01*
X001237Y001715D01*
X001251Y001751D01*
X001267Y001787D01*
X001288Y001820D01*
X001311Y001851D01*
X001338Y001879D01*
X001367Y001905D01*
X001398Y001928D01*
X001432Y001947D01*
X001468Y001963D01*
X001504Y001975D01*
X001542Y001984D01*
X001581Y001989D01*
X001620Y001990D01*
X001658Y001987D01*
X001697Y001980D01*
X001734Y001970D01*
X001770Y001955D01*
X001805Y001938D01*
X001838Y001917D01*
X001868Y001892D01*
X001896Y001865D01*
X001921Y001835D01*
X001943Y001803D01*
X001961Y001769D01*
X001976Y001733D01*
X001988Y001696D01*
X001996Y001658D01*
X002000Y001619D01*
X002000Y001581D01*
X001996Y001542D01*
X001988Y001504D01*
X001976Y001467D01*
X001961Y001431D01*
X001943Y001397D01*
X001921Y001365D01*
X001896Y001335D01*
X001868Y001308D01*
X001838Y001283D01*
X001805Y001262D01*
X001770Y001245D01*
X001734Y001230D01*
X001697Y001220D01*
X001658Y001213D01*
X001620Y001210D01*
X001581Y001211D01*
X001542Y001216D01*
X001504Y001225D01*
X001468Y001237D01*
X001432Y001253D01*
X001398Y001272D01*
X001367Y001295D01*
X001338Y001321D01*
X001311Y001349D01*
X001288Y001380D01*
X001267Y001413D01*
X001251Y001449D01*
X001237Y001485D01*
X001228Y001523D01*
X001222Y001561D01*
X001220Y001600D01*
X001210Y001200D02*
X002010Y002000D01*
X000890Y004690D02*
X000892Y004729D01*
X000898Y004767D01*
X000907Y004805D01*
X000921Y004841D01*
X000937Y004877D01*
X000958Y004910D01*
X000981Y004941D01*
X001008Y004969D01*
X001037Y004995D01*
X001068Y005018D01*
X001102Y005037D01*
X001138Y005053D01*
X001174Y005065D01*
X001212Y005074D01*
X001251Y005079D01*
X001290Y005080D01*
X001328Y005077D01*
X001367Y005070D01*
X001404Y005060D01*
X001440Y005045D01*
X001475Y005028D01*
X001508Y005007D01*
X001538Y004982D01*
X001566Y004955D01*
X001591Y004925D01*
X001613Y004893D01*
X001631Y004859D01*
X001646Y004823D01*
X001658Y004786D01*
X001666Y004748D01*
X001670Y004709D01*
X001670Y004671D01*
X001666Y004632D01*
X001658Y004594D01*
X001646Y004557D01*
X001631Y004521D01*
X001613Y004487D01*
X001591Y004455D01*
X001566Y004425D01*
X001538Y004398D01*
X001508Y004373D01*
X001475Y004352D01*
X001440Y004335D01*
X001404Y004320D01*
X001367Y004310D01*
X001328Y004303D01*
X001290Y004300D01*
X001251Y004301D01*
X001212Y004306D01*
X001174Y004315D01*
X001138Y004327D01*
X001102Y004343D01*
X001068Y004362D01*
X001037Y004385D01*
X001008Y004411D01*
X000981Y004439D01*
X000958Y004470D01*
X000937Y004503D01*
X000921Y004539D01*
X000907Y004575D01*
X000898Y004613D01*
X000892Y004651D01*
X000890Y004690D01*
X000880Y004290D02*
X001680Y005090D01*
X000890Y005490D02*
X000892Y005529D01*
X000898Y005567D01*
X000907Y005605D01*
X000921Y005641D01*
X000937Y005677D01*
X000958Y005710D01*
X000981Y005741D01*
X001008Y005769D01*
X001037Y005795D01*
X001068Y005818D01*
X001102Y005837D01*
X001138Y005853D01*
X001174Y005865D01*
X001212Y005874D01*
X001251Y005879D01*
X001290Y005880D01*
X001328Y005877D01*
X001367Y005870D01*
X001404Y005860D01*
X001440Y005845D01*
X001475Y005828D01*
X001508Y005807D01*
X001538Y005782D01*
X001566Y005755D01*
X001591Y005725D01*
X001613Y005693D01*
X001631Y005659D01*
X001646Y005623D01*
X001658Y005586D01*
X001666Y005548D01*
X001670Y005509D01*
X001670Y005471D01*
X001666Y005432D01*
X001658Y005394D01*
X001646Y005357D01*
X001631Y005321D01*
X001613Y005287D01*
X001591Y005255D01*
X001566Y005225D01*
X001538Y005198D01*
X001508Y005173D01*
X001475Y005152D01*
X001440Y005135D01*
X001404Y005120D01*
X001367Y005110D01*
X001328Y005103D01*
X001290Y005100D01*
X001251Y005101D01*
X001212Y005106D01*
X001174Y005115D01*
X001138Y005127D01*
X001102Y005143D01*
X001068Y005162D01*
X001037Y005185D01*
X001008Y005211D01*
X000981Y005239D01*
X000958Y005270D01*
X000937Y005303D01*
X000921Y005339D01*
X000907Y005375D01*
X000898Y005413D01*
X000892Y005451D01*
X000890Y005490D01*
X000880Y005090D02*
X001680Y005890D01*
X001110Y007000D02*
X001112Y007039D01*
X001118Y007077D01*
X001127Y007115D01*
X001141Y007151D01*
X001157Y007187D01*
X001178Y007220D01*
X001201Y007251D01*
X001228Y007279D01*
X001257Y007305D01*
X001288Y007328D01*
X001322Y007347D01*
X001358Y007363D01*
X001394Y007375D01*
X001432Y007384D01*
X001471Y007389D01*
X001510Y007390D01*
X001548Y007387D01*
X001587Y007380D01*
X001624Y007370D01*
X001660Y007355D01*
X001695Y007338D01*
X001728Y007317D01*
X001758Y007292D01*
X001786Y007265D01*
X001811Y007235D01*
X001833Y007203D01*
X001851Y007169D01*
X001866Y007133D01*
X001878Y007096D01*
X001886Y007058D01*
X001890Y007019D01*
X001890Y006981D01*
X001886Y006942D01*
X001878Y006904D01*
X001866Y006867D01*
X001851Y006831D01*
X001833Y006797D01*
X001811Y006765D01*
X001786Y006735D01*
X001758Y006708D01*
X001728Y006683D01*
X001695Y006662D01*
X001660Y006645D01*
X001624Y006630D01*
X001587Y006620D01*
X001548Y006613D01*
X001510Y006610D01*
X001471Y006611D01*
X001432Y006616D01*
X001394Y006625D01*
X001358Y006637D01*
X001322Y006653D01*
X001288Y006672D01*
X001257Y006695D01*
X001228Y006721D01*
X001201Y006749D01*
X001178Y006780D01*
X001157Y006813D01*
X001141Y006849D01*
X001127Y006885D01*
X001118Y006923D01*
X001112Y006961D01*
X001110Y007000D01*
X001100Y006600D02*
X001900Y007400D01*
X001110Y008500D02*
X001112Y008539D01*
X001118Y008577D01*
X001127Y008615D01*
X001141Y008651D01*
X001157Y008687D01*
X001178Y008720D01*
X001201Y008751D01*
X001228Y008779D01*
X001257Y008805D01*
X001288Y008828D01*
X001322Y008847D01*
X001358Y008863D01*
X001394Y008875D01*
X001432Y008884D01*
X001471Y008889D01*
X001510Y008890D01*
X001548Y008887D01*
X001587Y008880D01*
X001624Y008870D01*
X001660Y008855D01*
X001695Y008838D01*
X001728Y008817D01*
X001758Y008792D01*
X001786Y008765D01*
X001811Y008735D01*
X001833Y008703D01*
X001851Y008669D01*
X001866Y008633D01*
X001878Y008596D01*
X001886Y008558D01*
X001890Y008519D01*
X001890Y008481D01*
X001886Y008442D01*
X001878Y008404D01*
X001866Y008367D01*
X001851Y008331D01*
X001833Y008297D01*
X001811Y008265D01*
X001786Y008235D01*
X001758Y008208D01*
X001728Y008183D01*
X001695Y008162D01*
X001660Y008145D01*
X001624Y008130D01*
X001587Y008120D01*
X001548Y008113D01*
X001510Y008110D01*
X001471Y008111D01*
X001432Y008116D01*
X001394Y008125D01*
X001358Y008137D01*
X001322Y008153D01*
X001288Y008172D01*
X001257Y008195D01*
X001228Y008221D01*
X001201Y008249D01*
X001178Y008280D01*
X001157Y008313D01*
X001141Y008349D01*
X001127Y008385D01*
X001118Y008423D01*
X001112Y008461D01*
X001110Y008500D01*
X001100Y008100D02*
X001900Y008900D01*
X001235Y010435D02*
X001237Y010474D01*
X001243Y010512D01*
X001252Y010550D01*
X001266Y010586D01*
X001282Y010622D01*
X001303Y010655D01*
X001326Y010686D01*
X001353Y010714D01*
X001382Y010740D01*
X001413Y010763D01*
X001447Y010782D01*
X001483Y010798D01*
X001519Y010810D01*
X001557Y010819D01*
X001596Y010824D01*
X001635Y010825D01*
X001673Y010822D01*
X001712Y010815D01*
X001749Y010805D01*
X001785Y010790D01*
X001820Y010773D01*
X001853Y010752D01*
X001883Y010727D01*
X001911Y010700D01*
X001936Y010670D01*
X001958Y010638D01*
X001976Y010604D01*
X001991Y010568D01*
X002003Y010531D01*
X002011Y010493D01*
X002015Y010454D01*
X002015Y010416D01*
X002011Y010377D01*
X002003Y010339D01*
X001991Y010302D01*
X001976Y010266D01*
X001958Y010232D01*
X001936Y010200D01*
X001911Y010170D01*
X001883Y010143D01*
X001853Y010118D01*
X001820Y010097D01*
X001785Y010080D01*
X001749Y010065D01*
X001712Y010055D01*
X001673Y010048D01*
X001635Y010045D01*
X001596Y010046D01*
X001557Y010051D01*
X001519Y010060D01*
X001483Y010072D01*
X001447Y010088D01*
X001413Y010107D01*
X001382Y010130D01*
X001353Y010156D01*
X001326Y010184D01*
X001303Y010215D01*
X001282Y010248D01*
X001266Y010284D01*
X001252Y010320D01*
X001243Y010358D01*
X001237Y010396D01*
X001235Y010435D01*
X001225Y010035D02*
X002025Y010835D01*
X002235Y010435D02*
X002237Y010474D01*
X002243Y010512D01*
X002252Y010550D01*
X002266Y010586D01*
X002282Y010622D01*
X002303Y010655D01*
X002326Y010686D01*
X002353Y010714D01*
X002382Y010740D01*
X002413Y010763D01*
X002447Y010782D01*
X002483Y010798D01*
X002519Y010810D01*
X002557Y010819D01*
X002596Y010824D01*
X002635Y010825D01*
X002673Y010822D01*
X002712Y010815D01*
X002749Y010805D01*
X002785Y010790D01*
X002820Y010773D01*
X002853Y010752D01*
X002883Y010727D01*
X002911Y010700D01*
X002936Y010670D01*
X002958Y010638D01*
X002976Y010604D01*
X002991Y010568D01*
X003003Y010531D01*
X003011Y010493D01*
X003015Y010454D01*
X003015Y010416D01*
X003011Y010377D01*
X003003Y010339D01*
X002991Y010302D01*
X002976Y010266D01*
X002958Y010232D01*
X002936Y010200D01*
X002911Y010170D01*
X002883Y010143D01*
X002853Y010118D01*
X002820Y010097D01*
X002785Y010080D01*
X002749Y010065D01*
X002712Y010055D01*
X002673Y010048D01*
X002635Y010045D01*
X002596Y010046D01*
X002557Y010051D01*
X002519Y010060D01*
X002483Y010072D01*
X002447Y010088D01*
X002413Y010107D01*
X002382Y010130D01*
X002353Y010156D01*
X002326Y010184D01*
X002303Y010215D01*
X002282Y010248D01*
X002266Y010284D01*
X002252Y010320D01*
X002243Y010358D01*
X002237Y010396D01*
X002235Y010435D01*
X002225Y010035D02*
X003025Y010835D01*
X003235Y010435D02*
X003237Y010474D01*
X003243Y010512D01*
X003252Y010550D01*
X003266Y010586D01*
X003282Y010622D01*
X003303Y010655D01*
X003326Y010686D01*
X003353Y010714D01*
X003382Y010740D01*
X003413Y010763D01*
X003447Y010782D01*
X003483Y010798D01*
X003519Y010810D01*
X003557Y010819D01*
X003596Y010824D01*
X003635Y010825D01*
X003673Y010822D01*
X003712Y010815D01*
X003749Y010805D01*
X003785Y010790D01*
X003820Y010773D01*
X003853Y010752D01*
X003883Y010727D01*
X003911Y010700D01*
X003936Y010670D01*
X003958Y010638D01*
X003976Y010604D01*
X003991Y010568D01*
X004003Y010531D01*
X004011Y010493D01*
X004015Y010454D01*
X004015Y010416D01*
X004011Y010377D01*
X004003Y010339D01*
X003991Y010302D01*
X003976Y010266D01*
X003958Y010232D01*
X003936Y010200D01*
X003911Y010170D01*
X003883Y010143D01*
X003853Y010118D01*
X003820Y010097D01*
X003785Y010080D01*
X003749Y010065D01*
X003712Y010055D01*
X003673Y010048D01*
X003635Y010045D01*
X003596Y010046D01*
X003557Y010051D01*
X003519Y010060D01*
X003483Y010072D01*
X003447Y010088D01*
X003413Y010107D01*
X003382Y010130D01*
X003353Y010156D01*
X003326Y010184D01*
X003303Y010215D01*
X003282Y010248D01*
X003266Y010284D01*
X003252Y010320D01*
X003243Y010358D01*
X003237Y010396D01*
X003235Y010435D01*
X003225Y010035D02*
X004025Y010835D01*
X004235Y010435D02*
X004237Y010474D01*
X004243Y010512D01*
X004252Y010550D01*
X004266Y010586D01*
X004282Y010622D01*
X004303Y010655D01*
X004326Y010686D01*
X004353Y010714D01*
X004382Y010740D01*
X004413Y010763D01*
X004447Y010782D01*
X004483Y010798D01*
X004519Y010810D01*
X004557Y010819D01*
X004596Y010824D01*
X004635Y010825D01*
X004673Y010822D01*
X004712Y010815D01*
X004749Y010805D01*
X004785Y010790D01*
X004820Y010773D01*
X004853Y010752D01*
X004883Y010727D01*
X004911Y010700D01*
X004936Y010670D01*
X004958Y010638D01*
X004976Y010604D01*
X004991Y010568D01*
X005003Y010531D01*
X005011Y010493D01*
X005015Y010454D01*
X005015Y010416D01*
X005011Y010377D01*
X005003Y010339D01*
X004991Y010302D01*
X004976Y010266D01*
X004958Y010232D01*
X004936Y010200D01*
X004911Y010170D01*
X004883Y010143D01*
X004853Y010118D01*
X004820Y010097D01*
X004785Y010080D01*
X004749Y010065D01*
X004712Y010055D01*
X004673Y010048D01*
X004635Y010045D01*
X004596Y010046D01*
X004557Y010051D01*
X004519Y010060D01*
X004483Y010072D01*
X004447Y010088D01*
X004413Y010107D01*
X004382Y010130D01*
X004353Y010156D01*
X004326Y010184D01*
X004303Y010215D01*
X004282Y010248D01*
X004266Y010284D01*
X004252Y010320D01*
X004243Y010358D01*
X004237Y010396D01*
X004235Y010435D01*
X004225Y010035D02*
X005025Y010835D01*
X002610Y012500D02*
X002612Y012539D01*
X002618Y012577D01*
X002627Y012615D01*
X002641Y012651D01*
X002657Y012687D01*
X002678Y012720D01*
X002701Y012751D01*
X002728Y012779D01*
X002757Y012805D01*
X002788Y012828D01*
X002822Y012847D01*
X002858Y012863D01*
X002894Y012875D01*
X002932Y012884D01*
X002971Y012889D01*
X003010Y012890D01*
X003048Y012887D01*
X003087Y012880D01*
X003124Y012870D01*
X003160Y012855D01*
X003195Y012838D01*
X003228Y012817D01*
X003258Y012792D01*
X003286Y012765D01*
X003311Y012735D01*
X003333Y012703D01*
X003351Y012669D01*
X003366Y012633D01*
X003378Y012596D01*
X003386Y012558D01*
X003390Y012519D01*
X003390Y012481D01*
X003386Y012442D01*
X003378Y012404D01*
X003366Y012367D01*
X003351Y012331D01*
X003333Y012297D01*
X003311Y012265D01*
X003286Y012235D01*
X003258Y012208D01*
X003228Y012183D01*
X003195Y012162D01*
X003160Y012145D01*
X003124Y012130D01*
X003087Y012120D01*
X003048Y012113D01*
X003010Y012110D01*
X002971Y012111D01*
X002932Y012116D01*
X002894Y012125D01*
X002858Y012137D01*
X002822Y012153D01*
X002788Y012172D01*
X002757Y012195D01*
X002728Y012221D01*
X002701Y012249D01*
X002678Y012280D01*
X002657Y012313D01*
X002641Y012349D01*
X002627Y012385D01*
X002618Y012423D01*
X002612Y012461D01*
X002610Y012500D01*
X002600Y012100D02*
X003400Y012900D01*
X001610Y012500D02*
X001612Y012539D01*
X001618Y012577D01*
X001627Y012615D01*
X001641Y012651D01*
X001657Y012687D01*
X001678Y012720D01*
X001701Y012751D01*
X001728Y012779D01*
X001757Y012805D01*
X001788Y012828D01*
X001822Y012847D01*
X001858Y012863D01*
X001894Y012875D01*
X001932Y012884D01*
X001971Y012889D01*
X002010Y012890D01*
X002048Y012887D01*
X002087Y012880D01*
X002124Y012870D01*
X002160Y012855D01*
X002195Y012838D01*
X002228Y012817D01*
X002258Y012792D01*
X002286Y012765D01*
X002311Y012735D01*
X002333Y012703D01*
X002351Y012669D01*
X002366Y012633D01*
X002378Y012596D01*
X002386Y012558D01*
X002390Y012519D01*
X002390Y012481D01*
X002386Y012442D01*
X002378Y012404D01*
X002366Y012367D01*
X002351Y012331D01*
X002333Y012297D01*
X002311Y012265D01*
X002286Y012235D01*
X002258Y012208D01*
X002228Y012183D01*
X002195Y012162D01*
X002160Y012145D01*
X002124Y012130D01*
X002087Y012120D01*
X002048Y012113D01*
X002010Y012110D01*
X001971Y012111D01*
X001932Y012116D01*
X001894Y012125D01*
X001858Y012137D01*
X001822Y012153D01*
X001788Y012172D01*
X001757Y012195D01*
X001728Y012221D01*
X001701Y012249D01*
X001678Y012280D01*
X001657Y012313D01*
X001641Y012349D01*
X001627Y012385D01*
X001618Y012423D01*
X001612Y012461D01*
X001610Y012500D01*
X001600Y012100D02*
X002400Y012900D01*
X007110Y012500D02*
X007112Y012539D01*
X007118Y012577D01*
X007127Y012615D01*
X007141Y012651D01*
X007157Y012687D01*
X007178Y012720D01*
X007201Y012751D01*
X007228Y012779D01*
X007257Y012805D01*
X007288Y012828D01*
X007322Y012847D01*
X007358Y012863D01*
X007394Y012875D01*
X007432Y012884D01*
X007471Y012889D01*
X007510Y012890D01*
X007548Y012887D01*
X007587Y012880D01*
X007624Y012870D01*
X007660Y012855D01*
X007695Y012838D01*
X007728Y012817D01*
X007758Y012792D01*
X007786Y012765D01*
X007811Y012735D01*
X007833Y012703D01*
X007851Y012669D01*
X007866Y012633D01*
X007878Y012596D01*
X007886Y012558D01*
X007890Y012519D01*
X007890Y012481D01*
X007886Y012442D01*
X007878Y012404D01*
X007866Y012367D01*
X007851Y012331D01*
X007833Y012297D01*
X007811Y012265D01*
X007786Y012235D01*
X007758Y012208D01*
X007728Y012183D01*
X007695Y012162D01*
X007660Y012145D01*
X007624Y012130D01*
X007587Y012120D01*
X007548Y012113D01*
X007510Y012110D01*
X007471Y012111D01*
X007432Y012116D01*
X007394Y012125D01*
X007358Y012137D01*
X007322Y012153D01*
X007288Y012172D01*
X007257Y012195D01*
X007228Y012221D01*
X007201Y012249D01*
X007178Y012280D01*
X007157Y012313D01*
X007141Y012349D01*
X007127Y012385D01*
X007118Y012423D01*
X007112Y012461D01*
X007110Y012500D01*
X007100Y012100D02*
X007900Y012900D01*
X007110Y011500D02*
X007112Y011539D01*
X007118Y011577D01*
X007127Y011615D01*
X007141Y011651D01*
X007157Y011687D01*
X007178Y011720D01*
X007201Y011751D01*
X007228Y011779D01*
X007257Y011805D01*
X007288Y011828D01*
X007322Y011847D01*
X007358Y011863D01*
X007394Y011875D01*
X007432Y011884D01*
X007471Y011889D01*
X007510Y011890D01*
X007548Y011887D01*
X007587Y011880D01*
X007624Y011870D01*
X007660Y011855D01*
X007695Y011838D01*
X007728Y011817D01*
X007758Y011792D01*
X007786Y011765D01*
X007811Y011735D01*
X007833Y011703D01*
X007851Y011669D01*
X007866Y011633D01*
X007878Y011596D01*
X007886Y011558D01*
X007890Y011519D01*
X007890Y011481D01*
X007886Y011442D01*
X007878Y011404D01*
X007866Y011367D01*
X007851Y011331D01*
X007833Y011297D01*
X007811Y011265D01*
X007786Y011235D01*
X007758Y011208D01*
X007728Y011183D01*
X007695Y011162D01*
X007660Y011145D01*
X007624Y011130D01*
X007587Y011120D01*
X007548Y011113D01*
X007510Y011110D01*
X007471Y011111D01*
X007432Y011116D01*
X007394Y011125D01*
X007358Y011137D01*
X007322Y011153D01*
X007288Y011172D01*
X007257Y011195D01*
X007228Y011221D01*
X007201Y011249D01*
X007178Y011280D01*
X007157Y011313D01*
X007141Y011349D01*
X007127Y011385D01*
X007118Y011423D01*
X007112Y011461D01*
X007110Y011500D01*
X007100Y011100D02*
X007900Y011900D01*
X009110Y011500D02*
X009112Y011539D01*
X009118Y011577D01*
X009127Y011615D01*
X009141Y011651D01*
X009157Y011687D01*
X009178Y011720D01*
X009201Y011751D01*
X009228Y011779D01*
X009257Y011805D01*
X009288Y011828D01*
X009322Y011847D01*
X009358Y011863D01*
X009394Y011875D01*
X009432Y011884D01*
X009471Y011889D01*
X009510Y011890D01*
X009548Y011887D01*
X009587Y011880D01*
X009624Y011870D01*
X009660Y011855D01*
X009695Y011838D01*
X009728Y011817D01*
X009758Y011792D01*
X009786Y011765D01*
X009811Y011735D01*
X009833Y011703D01*
X009851Y011669D01*
X009866Y011633D01*
X009878Y011596D01*
X009886Y011558D01*
X009890Y011519D01*
X009890Y011481D01*
X009886Y011442D01*
X009878Y011404D01*
X009866Y011367D01*
X009851Y011331D01*
X009833Y011297D01*
X009811Y011265D01*
X009786Y011235D01*
X009758Y011208D01*
X009728Y011183D01*
X009695Y011162D01*
X009660Y011145D01*
X009624Y011130D01*
X009587Y011120D01*
X009548Y011113D01*
X009510Y011110D01*
X009471Y011111D01*
X009432Y011116D01*
X009394Y011125D01*
X009358Y011137D01*
X009322Y011153D01*
X009288Y011172D01*
X009257Y011195D01*
X009228Y011221D01*
X009201Y011249D01*
X009178Y011280D01*
X009157Y011313D01*
X009141Y011349D01*
X009127Y011385D01*
X009118Y011423D01*
X009112Y011461D01*
X009110Y011500D01*
X009100Y011100D02*
X009900Y011900D01*
X009110Y012500D02*
X009112Y012539D01*
X009118Y012577D01*
X009127Y012615D01*
X009141Y012651D01*
X009157Y012687D01*
X009178Y012720D01*
X009201Y012751D01*
X009228Y012779D01*
X009257Y012805D01*
X009288Y012828D01*
X009322Y012847D01*
X009358Y012863D01*
X009394Y012875D01*
X009432Y012884D01*
X009471Y012889D01*
X009510Y012890D01*
X009548Y012887D01*
X009587Y012880D01*
X009624Y012870D01*
X009660Y012855D01*
X009695Y012838D01*
X009728Y012817D01*
X009758Y012792D01*
X009786Y012765D01*
X009811Y012735D01*
X009833Y012703D01*
X009851Y012669D01*
X009866Y012633D01*
X009878Y012596D01*
X009886Y012558D01*
X009890Y012519D01*
X009890Y012481D01*
X009886Y012442D01*
X009878Y012404D01*
X009866Y012367D01*
X009851Y012331D01*
X009833Y012297D01*
X009811Y012265D01*
X009786Y012235D01*
X009758Y012208D01*
X009728Y012183D01*
X009695Y012162D01*
X009660Y012145D01*
X009624Y012130D01*
X009587Y012120D01*
X009548Y012113D01*
X009510Y012110D01*
X009471Y012111D01*
X009432Y012116D01*
X009394Y012125D01*
X009358Y012137D01*
X009322Y012153D01*
X009288Y012172D01*
X009257Y012195D01*
X009228Y012221D01*
X009201Y012249D01*
X009178Y012280D01*
X009157Y012313D01*
X009141Y012349D01*
X009127Y012385D01*
X009118Y012423D01*
X009112Y012461D01*
X009110Y012500D01*
X009100Y012100D02*
X009900Y012900D01*
X011110Y013000D02*
X011112Y013039D01*
X011118Y013077D01*
X011127Y013115D01*
X011141Y013151D01*
X011157Y013187D01*
X011178Y013220D01*
X011201Y013251D01*
X011228Y013279D01*
X011257Y013305D01*
X011288Y013328D01*
X011322Y013347D01*
X011358Y013363D01*
X011394Y013375D01*
X011432Y013384D01*
X011471Y013389D01*
X011510Y013390D01*
X011548Y013387D01*
X011587Y013380D01*
X011624Y013370D01*
X011660Y013355D01*
X011695Y013338D01*
X011728Y013317D01*
X011758Y013292D01*
X011786Y013265D01*
X011811Y013235D01*
X011833Y013203D01*
X011851Y013169D01*
X011866Y013133D01*
X011878Y013096D01*
X011886Y013058D01*
X011890Y013019D01*
X011890Y012981D01*
X011886Y012942D01*
X011878Y012904D01*
X011866Y012867D01*
X011851Y012831D01*
X011833Y012797D01*
X011811Y012765D01*
X011786Y012735D01*
X011758Y012708D01*
X011728Y012683D01*
X011695Y012662D01*
X011660Y012645D01*
X011624Y012630D01*
X011587Y012620D01*
X011548Y012613D01*
X011510Y012610D01*
X011471Y012611D01*
X011432Y012616D01*
X011394Y012625D01*
X011358Y012637D01*
X011322Y012653D01*
X011288Y012672D01*
X011257Y012695D01*
X011228Y012721D01*
X011201Y012749D01*
X011178Y012780D01*
X011157Y012813D01*
X011141Y012849D01*
X011127Y012885D01*
X011118Y012923D01*
X011112Y012961D01*
X011110Y013000D01*
X011100Y012600D02*
X011900Y013400D01*
X012110Y013000D02*
X012112Y013039D01*
X012118Y013077D01*
X012127Y013115D01*
X012141Y013151D01*
X012157Y013187D01*
X012178Y013220D01*
X012201Y013251D01*
X012228Y013279D01*
X012257Y013305D01*
X012288Y013328D01*
X012322Y013347D01*
X012358Y013363D01*
X012394Y013375D01*
X012432Y013384D01*
X012471Y013389D01*
X012510Y013390D01*
X012548Y013387D01*
X012587Y013380D01*
X012624Y013370D01*
X012660Y013355D01*
X012695Y013338D01*
X012728Y013317D01*
X012758Y013292D01*
X012786Y013265D01*
X012811Y013235D01*
X012833Y013203D01*
X012851Y013169D01*
X012866Y013133D01*
X012878Y013096D01*
X012886Y013058D01*
X012890Y013019D01*
X012890Y012981D01*
X012886Y012942D01*
X012878Y012904D01*
X012866Y012867D01*
X012851Y012831D01*
X012833Y012797D01*
X012811Y012765D01*
X012786Y012735D01*
X012758Y012708D01*
X012728Y012683D01*
X012695Y012662D01*
X012660Y012645D01*
X012624Y012630D01*
X012587Y012620D01*
X012548Y012613D01*
X012510Y012610D01*
X012471Y012611D01*
X012432Y012616D01*
X012394Y012625D01*
X012358Y012637D01*
X012322Y012653D01*
X012288Y012672D01*
X012257Y012695D01*
X012228Y012721D01*
X012201Y012749D01*
X012178Y012780D01*
X012157Y012813D01*
X012141Y012849D01*
X012127Y012885D01*
X012118Y012923D01*
X012112Y012961D01*
X012110Y013000D01*
X012100Y012600D02*
X012900Y013400D01*
X013110Y013000D02*
X013112Y013039D01*
X013118Y013077D01*
X013127Y013115D01*
X013141Y013151D01*
X013157Y013187D01*
X013178Y013220D01*
X013201Y013251D01*
X013228Y013279D01*
X013257Y013305D01*
X013288Y013328D01*
X013322Y013347D01*
X013358Y013363D01*
X013394Y013375D01*
X013432Y013384D01*
X013471Y013389D01*
X013510Y013390D01*
X013548Y013387D01*
X013587Y013380D01*
X013624Y013370D01*
X013660Y013355D01*
X013695Y013338D01*
X013728Y013317D01*
X013758Y013292D01*
X013786Y013265D01*
X013811Y013235D01*
X013833Y013203D01*
X013851Y013169D01*
X013866Y013133D01*
X013878Y013096D01*
X013886Y013058D01*
X013890Y013019D01*
X013890Y012981D01*
X013886Y012942D01*
X013878Y012904D01*
X013866Y012867D01*
X013851Y012831D01*
X013833Y012797D01*
X013811Y012765D01*
X013786Y012735D01*
X013758Y012708D01*
X013728Y012683D01*
X013695Y012662D01*
X013660Y012645D01*
X013624Y012630D01*
X013587Y012620D01*
X013548Y012613D01*
X013510Y012610D01*
X013471Y012611D01*
X013432Y012616D01*
X013394Y012625D01*
X013358Y012637D01*
X013322Y012653D01*
X013288Y012672D01*
X013257Y012695D01*
X013228Y012721D01*
X013201Y012749D01*
X013178Y012780D01*
X013157Y012813D01*
X013141Y012849D01*
X013127Y012885D01*
X013118Y012923D01*
X013112Y012961D01*
X013110Y013000D01*
X013100Y012600D02*
X013900Y013400D01*
X014110Y013000D02*
X014112Y013039D01*
X014118Y013077D01*
X014127Y013115D01*
X014141Y013151D01*
X014157Y013187D01*
X014178Y013220D01*
X014201Y013251D01*
X014228Y013279D01*
X014257Y013305D01*
X014288Y013328D01*
X014322Y013347D01*
X014358Y013363D01*
X014394Y013375D01*
X014432Y013384D01*
X014471Y013389D01*
X014510Y013390D01*
X014548Y013387D01*
X014587Y013380D01*
X014624Y013370D01*
X014660Y013355D01*
X014695Y013338D01*
X014728Y013317D01*
X014758Y013292D01*
X014786Y013265D01*
X014811Y013235D01*
X014833Y013203D01*
X014851Y013169D01*
X014866Y013133D01*
X014878Y013096D01*
X014886Y013058D01*
X014890Y013019D01*
X014890Y012981D01*
X014886Y012942D01*
X014878Y012904D01*
X014866Y012867D01*
X014851Y012831D01*
X014833Y012797D01*
X014811Y012765D01*
X014786Y012735D01*
X014758Y012708D01*
X014728Y012683D01*
X014695Y012662D01*
X014660Y012645D01*
X014624Y012630D01*
X014587Y012620D01*
X014548Y012613D01*
X014510Y012610D01*
X014471Y012611D01*
X014432Y012616D01*
X014394Y012625D01*
X014358Y012637D01*
X014322Y012653D01*
X014288Y012672D01*
X014257Y012695D01*
X014228Y012721D01*
X014201Y012749D01*
X014178Y012780D01*
X014157Y012813D01*
X014141Y012849D01*
X014127Y012885D01*
X014118Y012923D01*
X014112Y012961D01*
X014110Y013000D01*
X014100Y012600D02*
X014900Y013400D01*
X013900Y011750D02*
X013100Y011750D01*
X013500Y012150D02*
X013900Y011750D01*
X013500Y012150D02*
X013500Y011350D01*
X013100Y011750D01*
X011110Y011500D02*
X011112Y011539D01*
X011118Y011577D01*
X011127Y011615D01*
X011141Y011651D01*
X011157Y011687D01*
X011178Y011720D01*
X011201Y011751D01*
X011228Y011779D01*
X011257Y011805D01*
X011288Y011828D01*
X011322Y011847D01*
X011358Y011863D01*
X011394Y011875D01*
X011432Y011884D01*
X011471Y011889D01*
X011510Y011890D01*
X011548Y011887D01*
X011587Y011880D01*
X011624Y011870D01*
X011660Y011855D01*
X011695Y011838D01*
X011728Y011817D01*
X011758Y011792D01*
X011786Y011765D01*
X011811Y011735D01*
X011833Y011703D01*
X011851Y011669D01*
X011866Y011633D01*
X011878Y011596D01*
X011886Y011558D01*
X011890Y011519D01*
X011890Y011481D01*
X011886Y011442D01*
X011878Y011404D01*
X011866Y011367D01*
X011851Y011331D01*
X011833Y011297D01*
X011811Y011265D01*
X011786Y011235D01*
X011758Y011208D01*
X011728Y011183D01*
X011695Y011162D01*
X011660Y011145D01*
X011624Y011130D01*
X011587Y011120D01*
X011548Y011113D01*
X011510Y011110D01*
X011471Y011111D01*
X011432Y011116D01*
X011394Y011125D01*
X011358Y011137D01*
X011322Y011153D01*
X011288Y011172D01*
X011257Y011195D01*
X011228Y011221D01*
X011201Y011249D01*
X011178Y011280D01*
X011157Y011313D01*
X011141Y011349D01*
X011127Y011385D01*
X011118Y011423D01*
X011112Y011461D01*
X011110Y011500D01*
X011100Y011100D02*
X011900Y011900D01*
X011110Y010500D02*
X011112Y010539D01*
X011118Y010577D01*
X011127Y010615D01*
X011141Y010651D01*
X011157Y010687D01*
X011178Y010720D01*
X011201Y010751D01*
X011228Y010779D01*
X011257Y010805D01*
X011288Y010828D01*
X011322Y010847D01*
X011358Y010863D01*
X011394Y010875D01*
X011432Y010884D01*
X011471Y010889D01*
X011510Y010890D01*
X011548Y010887D01*
X011587Y010880D01*
X011624Y010870D01*
X011660Y010855D01*
X011695Y010838D01*
X011728Y010817D01*
X011758Y010792D01*
X011786Y010765D01*
X011811Y010735D01*
X011833Y010703D01*
X011851Y010669D01*
X011866Y010633D01*
X011878Y010596D01*
X011886Y010558D01*
X011890Y010519D01*
X011890Y010481D01*
X011886Y010442D01*
X011878Y010404D01*
X011866Y010367D01*
X011851Y010331D01*
X011833Y010297D01*
X011811Y010265D01*
X011786Y010235D01*
X011758Y010208D01*
X011728Y010183D01*
X011695Y010162D01*
X011660Y010145D01*
X011624Y010130D01*
X011587Y010120D01*
X011548Y010113D01*
X011510Y010110D01*
X011471Y010111D01*
X011432Y010116D01*
X011394Y010125D01*
X011358Y010137D01*
X011322Y010153D01*
X011288Y010172D01*
X011257Y010195D01*
X011228Y010221D01*
X011201Y010249D01*
X011178Y010280D01*
X011157Y010313D01*
X011141Y010349D01*
X011127Y010385D01*
X011118Y010423D01*
X011112Y010461D01*
X011110Y010500D01*
X011100Y010100D02*
X011900Y010900D01*
X013610Y010000D02*
X013612Y010039D01*
X013618Y010077D01*
X013627Y010115D01*
X013641Y010151D01*
X013657Y010187D01*
X013678Y010220D01*
X013701Y010251D01*
X013728Y010279D01*
X013757Y010305D01*
X013788Y010328D01*
X013822Y010347D01*
X013858Y010363D01*
X013894Y010375D01*
X013932Y010384D01*
X013971Y010389D01*
X014010Y010390D01*
X014048Y010387D01*
X014087Y010380D01*
X014124Y010370D01*
X014160Y010355D01*
X014195Y010338D01*
X014228Y010317D01*
X014258Y010292D01*
X014286Y010265D01*
X014311Y010235D01*
X014333Y010203D01*
X014351Y010169D01*
X014366Y010133D01*
X014378Y010096D01*
X014386Y010058D01*
X014390Y010019D01*
X014390Y009981D01*
X014386Y009942D01*
X014378Y009904D01*
X014366Y009867D01*
X014351Y009831D01*
X014333Y009797D01*
X014311Y009765D01*
X014286Y009735D01*
X014258Y009708D01*
X014228Y009683D01*
X014195Y009662D01*
X014160Y009645D01*
X014124Y009630D01*
X014087Y009620D01*
X014048Y009613D01*
X014010Y009610D01*
X013971Y009611D01*
X013932Y009616D01*
X013894Y009625D01*
X013858Y009637D01*
X013822Y009653D01*
X013788Y009672D01*
X013757Y009695D01*
X013728Y009721D01*
X013701Y009749D01*
X013678Y009780D01*
X013657Y009813D01*
X013641Y009849D01*
X013627Y009885D01*
X013618Y009923D01*
X013612Y009961D01*
X013610Y010000D01*
X013600Y009600D02*
X014400Y010400D01*
X015350Y010750D02*
X016150Y010750D01*
X015750Y011150D01*
X015750Y010350D01*
X015350Y010750D01*
X016660Y010900D02*
X016662Y010939D01*
X016668Y010977D01*
X016677Y011015D01*
X016691Y011051D01*
X016707Y011087D01*
X016728Y011120D01*
X016751Y011151D01*
X016778Y011179D01*
X016807Y011205D01*
X016838Y011228D01*
X016872Y011247D01*
X016908Y011263D01*
X016944Y011275D01*
X016982Y011284D01*
X017021Y011289D01*
X017060Y011290D01*
X017098Y011287D01*
X017137Y011280D01*
X017174Y011270D01*
X017210Y011255D01*
X017245Y011238D01*
X017278Y011217D01*
X017308Y011192D01*
X017336Y011165D01*
X017361Y011135D01*
X017383Y011103D01*
X017401Y011069D01*
X017416Y011033D01*
X017428Y010996D01*
X017436Y010958D01*
X017440Y010919D01*
X017440Y010881D01*
X017436Y010842D01*
X017428Y010804D01*
X017416Y010767D01*
X017401Y010731D01*
X017383Y010697D01*
X017361Y010665D01*
X017336Y010635D01*
X017308Y010608D01*
X017278Y010583D01*
X017245Y010562D01*
X017210Y010545D01*
X017174Y010530D01*
X017137Y010520D01*
X017098Y010513D01*
X017060Y010510D01*
X017021Y010511D01*
X016982Y010516D01*
X016944Y010525D01*
X016908Y010537D01*
X016872Y010553D01*
X016838Y010572D01*
X016807Y010595D01*
X016778Y010621D01*
X016751Y010649D01*
X016728Y010680D01*
X016707Y010713D01*
X016691Y010749D01*
X016677Y010785D01*
X016668Y010823D01*
X016662Y010861D01*
X016660Y010900D01*
X016650Y010500D02*
X017450Y011300D01*
X017660Y010900D02*
X017662Y010939D01*
X017668Y010977D01*
X017677Y011015D01*
X017691Y011051D01*
X017707Y011087D01*
X017728Y011120D01*
X017751Y011151D01*
X017778Y011179D01*
X017807Y011205D01*
X017838Y011228D01*
X017872Y011247D01*
X017908Y011263D01*
X017944Y011275D01*
X017982Y011284D01*
X018021Y011289D01*
X018060Y011290D01*
X018098Y011287D01*
X018137Y011280D01*
X018174Y011270D01*
X018210Y011255D01*
X018245Y011238D01*
X018278Y011217D01*
X018308Y011192D01*
X018336Y011165D01*
X018361Y011135D01*
X018383Y011103D01*
X018401Y011069D01*
X018416Y011033D01*
X018428Y010996D01*
X018436Y010958D01*
X018440Y010919D01*
X018440Y010881D01*
X018436Y010842D01*
X018428Y010804D01*
X018416Y010767D01*
X018401Y010731D01*
X018383Y010697D01*
X018361Y010665D01*
X018336Y010635D01*
X018308Y010608D01*
X018278Y010583D01*
X018245Y010562D01*
X018210Y010545D01*
X018174Y010530D01*
X018137Y010520D01*
X018098Y010513D01*
X018060Y010510D01*
X018021Y010511D01*
X017982Y010516D01*
X017944Y010525D01*
X017908Y010537D01*
X017872Y010553D01*
X017838Y010572D01*
X017807Y010595D01*
X017778Y010621D01*
X017751Y010649D01*
X017728Y010680D01*
X017707Y010713D01*
X017691Y010749D01*
X017677Y010785D01*
X017668Y010823D01*
X017662Y010861D01*
X017660Y010900D01*
X017650Y010500D02*
X018450Y011300D01*
X018460Y010875D02*
X018462Y010914D01*
X018468Y010952D01*
X018477Y010990D01*
X018491Y011026D01*
X018507Y011062D01*
X018528Y011095D01*
X018551Y011126D01*
X018578Y011154D01*
X018607Y011180D01*
X018638Y011203D01*
X018672Y011222D01*
X018708Y011238D01*
X018744Y011250D01*
X018782Y011259D01*
X018821Y011264D01*
X018860Y011265D01*
X018898Y011262D01*
X018937Y011255D01*
X018974Y011245D01*
X019010Y011230D01*
X019045Y011213D01*
X019078Y011192D01*
X019108Y011167D01*
X019136Y011140D01*
X019161Y011110D01*
X019183Y011078D01*
X019201Y011044D01*
X019216Y011008D01*
X019228Y010971D01*
X019236Y010933D01*
X019240Y010894D01*
X019240Y010856D01*
X019236Y010817D01*
X019228Y010779D01*
X019216Y010742D01*
X019201Y010706D01*
X019183Y010672D01*
X019161Y010640D01*
X019136Y010610D01*
X019108Y010583D01*
X019078Y010558D01*
X019045Y010537D01*
X019010Y010520D01*
X018974Y010505D01*
X018937Y010495D01*
X018898Y010488D01*
X018860Y010485D01*
X018821Y010486D01*
X018782Y010491D01*
X018744Y010500D01*
X018708Y010512D01*
X018672Y010528D01*
X018638Y010547D01*
X018607Y010570D01*
X018578Y010596D01*
X018551Y010624D01*
X018528Y010655D01*
X018507Y010688D01*
X018491Y010724D01*
X018477Y010760D01*
X018468Y010798D01*
X018462Y010836D01*
X018460Y010875D01*
X018450Y010475D02*
X019250Y011275D01*
X019460Y010875D02*
X019462Y010914D01*
X019468Y010952D01*
X019477Y010990D01*
X019491Y011026D01*
X019507Y011062D01*
X019528Y011095D01*
X019551Y011126D01*
X019578Y011154D01*
X019607Y011180D01*
X019638Y011203D01*
X019672Y011222D01*
X019708Y011238D01*
X019744Y011250D01*
X019782Y011259D01*
X019821Y011264D01*
X019860Y011265D01*
X019898Y011262D01*
X019937Y011255D01*
X019974Y011245D01*
X020010Y011230D01*
X020045Y011213D01*
X020078Y011192D01*
X020108Y011167D01*
X020136Y011140D01*
X020161Y011110D01*
X020183Y011078D01*
X020201Y011044D01*
X020216Y011008D01*
X020228Y010971D01*
X020236Y010933D01*
X020240Y010894D01*
X020240Y010856D01*
X020236Y010817D01*
X020228Y010779D01*
X020216Y010742D01*
X020201Y010706D01*
X020183Y010672D01*
X020161Y010640D01*
X020136Y010610D01*
X020108Y010583D01*
X020078Y010558D01*
X020045Y010537D01*
X020010Y010520D01*
X019974Y010505D01*
X019937Y010495D01*
X019898Y010488D01*
X019860Y010485D01*
X019821Y010486D01*
X019782Y010491D01*
X019744Y010500D01*
X019708Y010512D01*
X019672Y010528D01*
X019638Y010547D01*
X019607Y010570D01*
X019578Y010596D01*
X019551Y010624D01*
X019528Y010655D01*
X019507Y010688D01*
X019491Y010724D01*
X019477Y010760D01*
X019468Y010798D01*
X019462Y010836D01*
X019460Y010875D01*
X019450Y010475D02*
X020250Y011275D01*
X021997Y011866D02*
X022797Y012666D01*
X022797Y011866D02*
X021997Y012666D01*
X022397Y012666D02*
X022397Y011866D01*
X022847Y010034D02*
X022047Y009234D01*
X022847Y009234D02*
X022047Y010034D01*
X022447Y010034D02*
X022447Y009234D01*
X022847Y008066D02*
X022047Y007266D01*
X022847Y007266D02*
X022047Y008066D01*
X022447Y008066D02*
X022447Y007266D01*
X019610Y006300D02*
X019612Y006339D01*
X019618Y006377D01*
X019627Y006415D01*
X019641Y006451D01*
X019657Y006487D01*
X019678Y006520D01*
X019701Y006551D01*
X019728Y006579D01*
X019757Y006605D01*
X019788Y006628D01*
X019822Y006647D01*
X019858Y006663D01*
X019894Y006675D01*
X019932Y006684D01*
X019971Y006689D01*
X020010Y006690D01*
X020048Y006687D01*
X020087Y006680D01*
X020124Y006670D01*
X020160Y006655D01*
X020195Y006638D01*
X020228Y006617D01*
X020258Y006592D01*
X020286Y006565D01*
X020311Y006535D01*
X020333Y006503D01*
X020351Y006469D01*
X020366Y006433D01*
X020378Y006396D01*
X020386Y006358D01*
X020390Y006319D01*
X020390Y006281D01*
X020386Y006242D01*
X020378Y006204D01*
X020366Y006167D01*
X020351Y006131D01*
X020333Y006097D01*
X020311Y006065D01*
X020286Y006035D01*
X020258Y006008D01*
X020228Y005983D01*
X020195Y005962D01*
X020160Y005945D01*
X020124Y005930D01*
X020087Y005920D01*
X020048Y005913D01*
X020010Y005910D01*
X019971Y005911D01*
X019932Y005916D01*
X019894Y005925D01*
X019858Y005937D01*
X019822Y005953D01*
X019788Y005972D01*
X019757Y005995D01*
X019728Y006021D01*
X019701Y006049D01*
X019678Y006080D01*
X019657Y006113D01*
X019641Y006149D01*
X019627Y006185D01*
X019618Y006223D01*
X019612Y006261D01*
X019610Y006300D01*
X019600Y005900D02*
X020400Y006700D01*
X018610Y006300D02*
X018612Y006339D01*
X018618Y006377D01*
X018627Y006415D01*
X018641Y006451D01*
X018657Y006487D01*
X018678Y006520D01*
X018701Y006551D01*
X018728Y006579D01*
X018757Y006605D01*
X018788Y006628D01*
X018822Y006647D01*
X018858Y006663D01*
X018894Y006675D01*
X018932Y006684D01*
X018971Y006689D01*
X019010Y006690D01*
X019048Y006687D01*
X019087Y006680D01*
X019124Y006670D01*
X019160Y006655D01*
X019195Y006638D01*
X019228Y006617D01*
X019258Y006592D01*
X019286Y006565D01*
X019311Y006535D01*
X019333Y006503D01*
X019351Y006469D01*
X019366Y006433D01*
X019378Y006396D01*
X019386Y006358D01*
X019390Y006319D01*
X019390Y006281D01*
X019386Y006242D01*
X019378Y006204D01*
X019366Y006167D01*
X019351Y006131D01*
X019333Y006097D01*
X019311Y006065D01*
X019286Y006035D01*
X019258Y006008D01*
X019228Y005983D01*
X019195Y005962D01*
X019160Y005945D01*
X019124Y005930D01*
X019087Y005920D01*
X019048Y005913D01*
X019010Y005910D01*
X018971Y005911D01*
X018932Y005916D01*
X018894Y005925D01*
X018858Y005937D01*
X018822Y005953D01*
X018788Y005972D01*
X018757Y005995D01*
X018728Y006021D01*
X018701Y006049D01*
X018678Y006080D01*
X018657Y006113D01*
X018641Y006149D01*
X018627Y006185D01*
X018618Y006223D01*
X018612Y006261D01*
X018610Y006300D01*
X018600Y005900D02*
X019400Y006700D01*
X017760Y006250D02*
X017762Y006289D01*
X017768Y006327D01*
X017777Y006365D01*
X017791Y006401D01*
X017807Y006437D01*
X017828Y006470D01*
X017851Y006501D01*
X017878Y006529D01*
X017907Y006555D01*
X017938Y006578D01*
X017972Y006597D01*
X018008Y006613D01*
X018044Y006625D01*
X018082Y006634D01*
X018121Y006639D01*
X018160Y006640D01*
X018198Y006637D01*
X018237Y006630D01*
X018274Y006620D01*
X018310Y006605D01*
X018345Y006588D01*
X018378Y006567D01*
X018408Y006542D01*
X018436Y006515D01*
X018461Y006485D01*
X018483Y006453D01*
X018501Y006419D01*
X018516Y006383D01*
X018528Y006346D01*
X018536Y006308D01*
X018540Y006269D01*
X018540Y006231D01*
X018536Y006192D01*
X018528Y006154D01*
X018516Y006117D01*
X018501Y006081D01*
X018483Y006047D01*
X018461Y006015D01*
X018436Y005985D01*
X018408Y005958D01*
X018378Y005933D01*
X018345Y005912D01*
X018310Y005895D01*
X018274Y005880D01*
X018237Y005870D01*
X018198Y005863D01*
X018160Y005860D01*
X018121Y005861D01*
X018082Y005866D01*
X018044Y005875D01*
X018008Y005887D01*
X017972Y005903D01*
X017938Y005922D01*
X017907Y005945D01*
X017878Y005971D01*
X017851Y005999D01*
X017828Y006030D01*
X017807Y006063D01*
X017791Y006099D01*
X017777Y006135D01*
X017768Y006173D01*
X017762Y006211D01*
X017760Y006250D01*
X017750Y005850D02*
X018550Y006650D01*
X016760Y006250D02*
X016762Y006289D01*
X016768Y006327D01*
X016777Y006365D01*
X016791Y006401D01*
X016807Y006437D01*
X016828Y006470D01*
X016851Y006501D01*
X016878Y006529D01*
X016907Y006555D01*
X016938Y006578D01*
X016972Y006597D01*
X017008Y006613D01*
X017044Y006625D01*
X017082Y006634D01*
X017121Y006639D01*
X017160Y006640D01*
X017198Y006637D01*
X017237Y006630D01*
X017274Y006620D01*
X017310Y006605D01*
X017345Y006588D01*
X017378Y006567D01*
X017408Y006542D01*
X017436Y006515D01*
X017461Y006485D01*
X017483Y006453D01*
X017501Y006419D01*
X017516Y006383D01*
X017528Y006346D01*
X017536Y006308D01*
X017540Y006269D01*
X017540Y006231D01*
X017536Y006192D01*
X017528Y006154D01*
X017516Y006117D01*
X017501Y006081D01*
X017483Y006047D01*
X017461Y006015D01*
X017436Y005985D01*
X017408Y005958D01*
X017378Y005933D01*
X017345Y005912D01*
X017310Y005895D01*
X017274Y005880D01*
X017237Y005870D01*
X017198Y005863D01*
X017160Y005860D01*
X017121Y005861D01*
X017082Y005866D01*
X017044Y005875D01*
X017008Y005887D01*
X016972Y005903D01*
X016938Y005922D01*
X016907Y005945D01*
X016878Y005971D01*
X016851Y005999D01*
X016828Y006030D01*
X016807Y006063D01*
X016791Y006099D01*
X016777Y006135D01*
X016768Y006173D01*
X016762Y006211D01*
X016760Y006250D01*
X016750Y005850D02*
X017550Y006650D01*
X016150Y005000D02*
X015350Y005000D01*
X015750Y005400D02*
X016150Y005000D01*
X015750Y005400D02*
X015750Y004600D01*
X015350Y005000D01*
X015150Y006000D02*
X014350Y006000D01*
X014750Y006400D02*
X015150Y006000D01*
X014750Y006400D02*
X014750Y005600D01*
X014350Y006000D01*
X013110Y006500D02*
X013112Y006539D01*
X013118Y006577D01*
X013127Y006615D01*
X013141Y006651D01*
X013157Y006687D01*
X013178Y006720D01*
X013201Y006751D01*
X013228Y006779D01*
X013257Y006805D01*
X013288Y006828D01*
X013322Y006847D01*
X013358Y006863D01*
X013394Y006875D01*
X013432Y006884D01*
X013471Y006889D01*
X013510Y006890D01*
X013548Y006887D01*
X013587Y006880D01*
X013624Y006870D01*
X013660Y006855D01*
X013695Y006838D01*
X013728Y006817D01*
X013758Y006792D01*
X013786Y006765D01*
X013811Y006735D01*
X013833Y006703D01*
X013851Y006669D01*
X013866Y006633D01*
X013878Y006596D01*
X013886Y006558D01*
X013890Y006519D01*
X013890Y006481D01*
X013886Y006442D01*
X013878Y006404D01*
X013866Y006367D01*
X013851Y006331D01*
X013833Y006297D01*
X013811Y006265D01*
X013786Y006235D01*
X013758Y006208D01*
X013728Y006183D01*
X013695Y006162D01*
X013660Y006145D01*
X013624Y006130D01*
X013587Y006120D01*
X013548Y006113D01*
X013510Y006110D01*
X013471Y006111D01*
X013432Y006116D01*
X013394Y006125D01*
X013358Y006137D01*
X013322Y006153D01*
X013288Y006172D01*
X013257Y006195D01*
X013228Y006221D01*
X013201Y006249D01*
X013178Y006280D01*
X013157Y006313D01*
X013141Y006349D01*
X013127Y006385D01*
X013118Y006423D01*
X013112Y006461D01*
X013110Y006500D01*
X013100Y006100D02*
X013900Y006900D01*
X012110Y006500D02*
X012112Y006539D01*
X012118Y006577D01*
X012127Y006615D01*
X012141Y006651D01*
X012157Y006687D01*
X012178Y006720D01*
X012201Y006751D01*
X012228Y006779D01*
X012257Y006805D01*
X012288Y006828D01*
X012322Y006847D01*
X012358Y006863D01*
X012394Y006875D01*
X012432Y006884D01*
X012471Y006889D01*
X012510Y006890D01*
X012548Y006887D01*
X012587Y006880D01*
X012624Y006870D01*
X012660Y006855D01*
X012695Y006838D01*
X012728Y006817D01*
X012758Y006792D01*
X012786Y006765D01*
X012811Y006735D01*
X012833Y006703D01*
X012851Y006669D01*
X012866Y006633D01*
X012878Y006596D01*
X012886Y006558D01*
X012890Y006519D01*
X012890Y006481D01*
X012886Y006442D01*
X012878Y006404D01*
X012866Y006367D01*
X012851Y006331D01*
X012833Y006297D01*
X012811Y006265D01*
X012786Y006235D01*
X012758Y006208D01*
X012728Y006183D01*
X012695Y006162D01*
X012660Y006145D01*
X012624Y006130D01*
X012587Y006120D01*
X012548Y006113D01*
X012510Y006110D01*
X012471Y006111D01*
X012432Y006116D01*
X012394Y006125D01*
X012358Y006137D01*
X012322Y006153D01*
X012288Y006172D01*
X012257Y006195D01*
X012228Y006221D01*
X012201Y006249D01*
X012178Y006280D01*
X012157Y006313D01*
X012141Y006349D01*
X012127Y006385D01*
X012118Y006423D01*
X012112Y006461D01*
X012110Y006500D01*
X012100Y006100D02*
X012900Y006900D01*
X011110Y006500D02*
X011112Y006539D01*
X011118Y006577D01*
X011127Y006615D01*
X011141Y006651D01*
X011157Y006687D01*
X011178Y006720D01*
X011201Y006751D01*
X011228Y006779D01*
X011257Y006805D01*
X011288Y006828D01*
X011322Y006847D01*
X011358Y006863D01*
X011394Y006875D01*
X011432Y006884D01*
X011471Y006889D01*
X011510Y006890D01*
X011548Y006887D01*
X011587Y006880D01*
X011624Y006870D01*
X011660Y006855D01*
X011695Y006838D01*
X011728Y006817D01*
X011758Y006792D01*
X011786Y006765D01*
X011811Y006735D01*
X011833Y006703D01*
X011851Y006669D01*
X011866Y006633D01*
X011878Y006596D01*
X011886Y006558D01*
X011890Y006519D01*
X011890Y006481D01*
X011886Y006442D01*
X011878Y006404D01*
X011866Y006367D01*
X011851Y006331D01*
X011833Y006297D01*
X011811Y006265D01*
X011786Y006235D01*
X011758Y006208D01*
X011728Y006183D01*
X011695Y006162D01*
X011660Y006145D01*
X011624Y006130D01*
X011587Y006120D01*
X011548Y006113D01*
X011510Y006110D01*
X011471Y006111D01*
X011432Y006116D01*
X011394Y006125D01*
X011358Y006137D01*
X011322Y006153D01*
X011288Y006172D01*
X011257Y006195D01*
X011228Y006221D01*
X011201Y006249D01*
X011178Y006280D01*
X011157Y006313D01*
X011141Y006349D01*
X011127Y006385D01*
X011118Y006423D01*
X011112Y006461D01*
X011110Y006500D01*
X011100Y006100D02*
X011900Y006900D01*
X010110Y006500D02*
X010112Y006539D01*
X010118Y006577D01*
X010127Y006615D01*
X010141Y006651D01*
X010157Y006687D01*
X010178Y006720D01*
X010201Y006751D01*
X010228Y006779D01*
X010257Y006805D01*
X010288Y006828D01*
X010322Y006847D01*
X010358Y006863D01*
X010394Y006875D01*
X010432Y006884D01*
X010471Y006889D01*
X010510Y006890D01*
X010548Y006887D01*
X010587Y006880D01*
X010624Y006870D01*
X010660Y006855D01*
X010695Y006838D01*
X010728Y006817D01*
X010758Y006792D01*
X010786Y006765D01*
X010811Y006735D01*
X010833Y006703D01*
X010851Y006669D01*
X010866Y006633D01*
X010878Y006596D01*
X010886Y006558D01*
X010890Y006519D01*
X010890Y006481D01*
X010886Y006442D01*
X010878Y006404D01*
X010866Y006367D01*
X010851Y006331D01*
X010833Y006297D01*
X010811Y006265D01*
X010786Y006235D01*
X010758Y006208D01*
X010728Y006183D01*
X010695Y006162D01*
X010660Y006145D01*
X010624Y006130D01*
X010587Y006120D01*
X010548Y006113D01*
X010510Y006110D01*
X010471Y006111D01*
X010432Y006116D01*
X010394Y006125D01*
X010358Y006137D01*
X010322Y006153D01*
X010288Y006172D01*
X010257Y006195D01*
X010228Y006221D01*
X010201Y006249D01*
X010178Y006280D01*
X010157Y006313D01*
X010141Y006349D01*
X010127Y006385D01*
X010118Y006423D01*
X010112Y006461D01*
X010110Y006500D01*
X010100Y006100D02*
X010900Y006900D01*
X008610Y007500D02*
X008612Y007539D01*
X008618Y007577D01*
X008627Y007615D01*
X008641Y007651D01*
X008657Y007687D01*
X008678Y007720D01*
X008701Y007751D01*
X008728Y007779D01*
X008757Y007805D01*
X008788Y007828D01*
X008822Y007847D01*
X008858Y007863D01*
X008894Y007875D01*
X008932Y007884D01*
X008971Y007889D01*
X009010Y007890D01*
X009048Y007887D01*
X009087Y007880D01*
X009124Y007870D01*
X009160Y007855D01*
X009195Y007838D01*
X009228Y007817D01*
X009258Y007792D01*
X009286Y007765D01*
X009311Y007735D01*
X009333Y007703D01*
X009351Y007669D01*
X009366Y007633D01*
X009378Y007596D01*
X009386Y007558D01*
X009390Y007519D01*
X009390Y007481D01*
X009386Y007442D01*
X009378Y007404D01*
X009366Y007367D01*
X009351Y007331D01*
X009333Y007297D01*
X009311Y007265D01*
X009286Y007235D01*
X009258Y007208D01*
X009228Y007183D01*
X009195Y007162D01*
X009160Y007145D01*
X009124Y007130D01*
X009087Y007120D01*
X009048Y007113D01*
X009010Y007110D01*
X008971Y007111D01*
X008932Y007116D01*
X008894Y007125D01*
X008858Y007137D01*
X008822Y007153D01*
X008788Y007172D01*
X008757Y007195D01*
X008728Y007221D01*
X008701Y007249D01*
X008678Y007280D01*
X008657Y007313D01*
X008641Y007349D01*
X008627Y007385D01*
X008618Y007423D01*
X008612Y007461D01*
X008610Y007500D01*
X008600Y007100D02*
X009400Y007900D01*
X009110Y008500D02*
X009112Y008539D01*
X009118Y008577D01*
X009127Y008615D01*
X009141Y008651D01*
X009157Y008687D01*
X009178Y008720D01*
X009201Y008751D01*
X009228Y008779D01*
X009257Y008805D01*
X009288Y008828D01*
X009322Y008847D01*
X009358Y008863D01*
X009394Y008875D01*
X009432Y008884D01*
X009471Y008889D01*
X009510Y008890D01*
X009548Y008887D01*
X009587Y008880D01*
X009624Y008870D01*
X009660Y008855D01*
X009695Y008838D01*
X009728Y008817D01*
X009758Y008792D01*
X009786Y008765D01*
X009811Y008735D01*
X009833Y008703D01*
X009851Y008669D01*
X009866Y008633D01*
X009878Y008596D01*
X009886Y008558D01*
X009890Y008519D01*
X009890Y008481D01*
X009886Y008442D01*
X009878Y008404D01*
X009866Y008367D01*
X009851Y008331D01*
X009833Y008297D01*
X009811Y008265D01*
X009786Y008235D01*
X009758Y008208D01*
X009728Y008183D01*
X009695Y008162D01*
X009660Y008145D01*
X009624Y008130D01*
X009587Y008120D01*
X009548Y008113D01*
X009510Y008110D01*
X009471Y008111D01*
X009432Y008116D01*
X009394Y008125D01*
X009358Y008137D01*
X009322Y008153D01*
X009288Y008172D01*
X009257Y008195D01*
X009228Y008221D01*
X009201Y008249D01*
X009178Y008280D01*
X009157Y008313D01*
X009141Y008349D01*
X009127Y008385D01*
X009118Y008423D01*
X009112Y008461D01*
X009110Y008500D01*
X009100Y008100D02*
X009900Y008900D01*
X007110Y008500D02*
X007112Y008539D01*
X007118Y008577D01*
X007127Y008615D01*
X007141Y008651D01*
X007157Y008687D01*
X007178Y008720D01*
X007201Y008751D01*
X007228Y008779D01*
X007257Y008805D01*
X007288Y008828D01*
X007322Y008847D01*
X007358Y008863D01*
X007394Y008875D01*
X007432Y008884D01*
X007471Y008889D01*
X007510Y008890D01*
X007548Y008887D01*
X007587Y008880D01*
X007624Y008870D01*
X007660Y008855D01*
X007695Y008838D01*
X007728Y008817D01*
X007758Y008792D01*
X007786Y008765D01*
X007811Y008735D01*
X007833Y008703D01*
X007851Y008669D01*
X007866Y008633D01*
X007878Y008596D01*
X007886Y008558D01*
X007890Y008519D01*
X007890Y008481D01*
X007886Y008442D01*
X007878Y008404D01*
X007866Y008367D01*
X007851Y008331D01*
X007833Y008297D01*
X007811Y008265D01*
X007786Y008235D01*
X007758Y008208D01*
X007728Y008183D01*
X007695Y008162D01*
X007660Y008145D01*
X007624Y008130D01*
X007587Y008120D01*
X007548Y008113D01*
X007510Y008110D01*
X007471Y008111D01*
X007432Y008116D01*
X007394Y008125D01*
X007358Y008137D01*
X007322Y008153D01*
X007288Y008172D01*
X007257Y008195D01*
X007228Y008221D01*
X007201Y008249D01*
X007178Y008280D01*
X007157Y008313D01*
X007141Y008349D01*
X007127Y008385D01*
X007118Y008423D01*
X007112Y008461D01*
X007110Y008500D01*
X007100Y008100D02*
X007900Y008900D01*
X007110Y007500D02*
X007112Y007539D01*
X007118Y007577D01*
X007127Y007615D01*
X007141Y007651D01*
X007157Y007687D01*
X007178Y007720D01*
X007201Y007751D01*
X007228Y007779D01*
X007257Y007805D01*
X007288Y007828D01*
X007322Y007847D01*
X007358Y007863D01*
X007394Y007875D01*
X007432Y007884D01*
X007471Y007889D01*
X007510Y007890D01*
X007548Y007887D01*
X007587Y007880D01*
X007624Y007870D01*
X007660Y007855D01*
X007695Y007838D01*
X007728Y007817D01*
X007758Y007792D01*
X007786Y007765D01*
X007811Y007735D01*
X007833Y007703D01*
X007851Y007669D01*
X007866Y007633D01*
X007878Y007596D01*
X007886Y007558D01*
X007890Y007519D01*
X007890Y007481D01*
X007886Y007442D01*
X007878Y007404D01*
X007866Y007367D01*
X007851Y007331D01*
X007833Y007297D01*
X007811Y007265D01*
X007786Y007235D01*
X007758Y007208D01*
X007728Y007183D01*
X007695Y007162D01*
X007660Y007145D01*
X007624Y007130D01*
X007587Y007120D01*
X007548Y007113D01*
X007510Y007110D01*
X007471Y007111D01*
X007432Y007116D01*
X007394Y007125D01*
X007358Y007137D01*
X007322Y007153D01*
X007288Y007172D01*
X007257Y007195D01*
X007228Y007221D01*
X007201Y007249D01*
X007178Y007280D01*
X007157Y007313D01*
X007141Y007349D01*
X007127Y007385D01*
X007118Y007423D01*
X007112Y007461D01*
X007110Y007500D01*
X007100Y007100D02*
X007900Y007900D01*
X004560Y005560D02*
X004562Y005599D01*
X004568Y005637D01*
X004577Y005675D01*
X004591Y005711D01*
X004607Y005747D01*
X004628Y005780D01*
X004651Y005811D01*
X004678Y005839D01*
X004707Y005865D01*
X004738Y005888D01*
X004772Y005907D01*
X004808Y005923D01*
X004844Y005935D01*
X004882Y005944D01*
X004921Y005949D01*
X004960Y005950D01*
X004998Y005947D01*
X005037Y005940D01*
X005074Y005930D01*
X005110Y005915D01*
X005145Y005898D01*
X005178Y005877D01*
X005208Y005852D01*
X005236Y005825D01*
X005261Y005795D01*
X005283Y005763D01*
X005301Y005729D01*
X005316Y005693D01*
X005328Y005656D01*
X005336Y005618D01*
X005340Y005579D01*
X005340Y005541D01*
X005336Y005502D01*
X005328Y005464D01*
X005316Y005427D01*
X005301Y005391D01*
X005283Y005357D01*
X005261Y005325D01*
X005236Y005295D01*
X005208Y005268D01*
X005178Y005243D01*
X005145Y005222D01*
X005110Y005205D01*
X005074Y005190D01*
X005037Y005180D01*
X004998Y005173D01*
X004960Y005170D01*
X004921Y005171D01*
X004882Y005176D01*
X004844Y005185D01*
X004808Y005197D01*
X004772Y005213D01*
X004738Y005232D01*
X004707Y005255D01*
X004678Y005281D01*
X004651Y005309D01*
X004628Y005340D01*
X004607Y005373D01*
X004591Y005409D01*
X004577Y005445D01*
X004568Y005483D01*
X004562Y005521D01*
X004560Y005560D01*
X004550Y005160D02*
X005350Y005960D01*
X004110Y007000D02*
X004112Y007039D01*
X004118Y007077D01*
X004127Y007115D01*
X004141Y007151D01*
X004157Y007187D01*
X004178Y007220D01*
X004201Y007251D01*
X004228Y007279D01*
X004257Y007305D01*
X004288Y007328D01*
X004322Y007347D01*
X004358Y007363D01*
X004394Y007375D01*
X004432Y007384D01*
X004471Y007389D01*
X004510Y007390D01*
X004548Y007387D01*
X004587Y007380D01*
X004624Y007370D01*
X004660Y007355D01*
X004695Y007338D01*
X004728Y007317D01*
X004758Y007292D01*
X004786Y007265D01*
X004811Y007235D01*
X004833Y007203D01*
X004851Y007169D01*
X004866Y007133D01*
X004878Y007096D01*
X004886Y007058D01*
X004890Y007019D01*
X004890Y006981D01*
X004886Y006942D01*
X004878Y006904D01*
X004866Y006867D01*
X004851Y006831D01*
X004833Y006797D01*
X004811Y006765D01*
X004786Y006735D01*
X004758Y006708D01*
X004728Y006683D01*
X004695Y006662D01*
X004660Y006645D01*
X004624Y006630D01*
X004587Y006620D01*
X004548Y006613D01*
X004510Y006610D01*
X004471Y006611D01*
X004432Y006616D01*
X004394Y006625D01*
X004358Y006637D01*
X004322Y006653D01*
X004288Y006672D01*
X004257Y006695D01*
X004228Y006721D01*
X004201Y006749D01*
X004178Y006780D01*
X004157Y006813D01*
X004141Y006849D01*
X004127Y006885D01*
X004118Y006923D01*
X004112Y006961D01*
X004110Y007000D01*
X004100Y006600D02*
X004900Y007400D01*
X004110Y008500D02*
X004112Y008539D01*
X004118Y008577D01*
X004127Y008615D01*
X004141Y008651D01*
X004157Y008687D01*
X004178Y008720D01*
X004201Y008751D01*
X004228Y008779D01*
X004257Y008805D01*
X004288Y008828D01*
X004322Y008847D01*
X004358Y008863D01*
X004394Y008875D01*
X004432Y008884D01*
X004471Y008889D01*
X004510Y008890D01*
X004548Y008887D01*
X004587Y008880D01*
X004624Y008870D01*
X004660Y008855D01*
X004695Y008838D01*
X004728Y008817D01*
X004758Y008792D01*
X004786Y008765D01*
X004811Y008735D01*
X004833Y008703D01*
X004851Y008669D01*
X004866Y008633D01*
X004878Y008596D01*
X004886Y008558D01*
X004890Y008519D01*
X004890Y008481D01*
X004886Y008442D01*
X004878Y008404D01*
X004866Y008367D01*
X004851Y008331D01*
X004833Y008297D01*
X004811Y008265D01*
X004786Y008235D01*
X004758Y008208D01*
X004728Y008183D01*
X004695Y008162D01*
X004660Y008145D01*
X004624Y008130D01*
X004587Y008120D01*
X004548Y008113D01*
X004510Y008110D01*
X004471Y008111D01*
X004432Y008116D01*
X004394Y008125D01*
X004358Y008137D01*
X004322Y008153D01*
X004288Y008172D01*
X004257Y008195D01*
X004228Y008221D01*
X004201Y008249D01*
X004178Y008280D01*
X004157Y008313D01*
X004141Y008349D01*
X004127Y008385D01*
X004118Y008423D01*
X004112Y008461D01*
X004110Y008500D01*
X004100Y008100D02*
X004900Y008900D01*
X002750Y005490D02*
X002752Y005529D01*
X002758Y005567D01*
X002767Y005605D01*
X002781Y005641D01*
X002797Y005677D01*
X002818Y005710D01*
X002841Y005741D01*
X002868Y005769D01*
X002897Y005795D01*
X002928Y005818D01*
X002962Y005837D01*
X002998Y005853D01*
X003034Y005865D01*
X003072Y005874D01*
X003111Y005879D01*
X003150Y005880D01*
X003188Y005877D01*
X003227Y005870D01*
X003264Y005860D01*
X003300Y005845D01*
X003335Y005828D01*
X003368Y005807D01*
X003398Y005782D01*
X003426Y005755D01*
X003451Y005725D01*
X003473Y005693D01*
X003491Y005659D01*
X003506Y005623D01*
X003518Y005586D01*
X003526Y005548D01*
X003530Y005509D01*
X003530Y005471D01*
X003526Y005432D01*
X003518Y005394D01*
X003506Y005357D01*
X003491Y005321D01*
X003473Y005287D01*
X003451Y005255D01*
X003426Y005225D01*
X003398Y005198D01*
X003368Y005173D01*
X003335Y005152D01*
X003300Y005135D01*
X003264Y005120D01*
X003227Y005110D01*
X003188Y005103D01*
X003150Y005100D01*
X003111Y005101D01*
X003072Y005106D01*
X003034Y005115D01*
X002998Y005127D01*
X002962Y005143D01*
X002928Y005162D01*
X002897Y005185D01*
X002868Y005211D01*
X002841Y005239D01*
X002818Y005270D01*
X002797Y005303D01*
X002781Y005339D01*
X002767Y005375D01*
X002758Y005413D01*
X002752Y005451D01*
X002750Y005490D01*
X002740Y005090D02*
X003540Y005890D01*
X002750Y004690D02*
X002752Y004729D01*
X002758Y004767D01*
X002767Y004805D01*
X002781Y004841D01*
X002797Y004877D01*
X002818Y004910D01*
X002841Y004941D01*
X002868Y004969D01*
X002897Y004995D01*
X002928Y005018D01*
X002962Y005037D01*
X002998Y005053D01*
X003034Y005065D01*
X003072Y005074D01*
X003111Y005079D01*
X003150Y005080D01*
X003188Y005077D01*
X003227Y005070D01*
X003264Y005060D01*
X003300Y005045D01*
X003335Y005028D01*
X003368Y005007D01*
X003398Y004982D01*
X003426Y004955D01*
X003451Y004925D01*
X003473Y004893D01*
X003491Y004859D01*
X003506Y004823D01*
X003518Y004786D01*
X003526Y004748D01*
X003530Y004709D01*
X003530Y004671D01*
X003526Y004632D01*
X003518Y004594D01*
X003506Y004557D01*
X003491Y004521D01*
X003473Y004487D01*
X003451Y004455D01*
X003426Y004425D01*
X003398Y004398D01*
X003368Y004373D01*
X003335Y004352D01*
X003300Y004335D01*
X003264Y004320D01*
X003227Y004310D01*
X003188Y004303D01*
X003150Y004300D01*
X003111Y004301D01*
X003072Y004306D01*
X003034Y004315D01*
X002998Y004327D01*
X002962Y004343D01*
X002928Y004362D01*
X002897Y004385D01*
X002868Y004411D01*
X002841Y004439D01*
X002818Y004470D01*
X002797Y004503D01*
X002781Y004539D01*
X002767Y004575D01*
X002758Y004613D01*
X002752Y004651D01*
X002750Y004690D01*
X002740Y004290D02*
X003540Y005090D01*
X004560Y004760D02*
X004562Y004799D01*
X004568Y004837D01*
X004577Y004875D01*
X004591Y004911D01*
X004607Y004947D01*
X004628Y004980D01*
X004651Y005011D01*
X004678Y005039D01*
X004707Y005065D01*
X004738Y005088D01*
X004772Y005107D01*
X004808Y005123D01*
X004844Y005135D01*
X004882Y005144D01*
X004921Y005149D01*
X004960Y005150D01*
X004998Y005147D01*
X005037Y005140D01*
X005074Y005130D01*
X005110Y005115D01*
X005145Y005098D01*
X005178Y005077D01*
X005208Y005052D01*
X005236Y005025D01*
X005261Y004995D01*
X005283Y004963D01*
X005301Y004929D01*
X005316Y004893D01*
X005328Y004856D01*
X005336Y004818D01*
X005340Y004779D01*
X005340Y004741D01*
X005336Y004702D01*
X005328Y004664D01*
X005316Y004627D01*
X005301Y004591D01*
X005283Y004557D01*
X005261Y004525D01*
X005236Y004495D01*
X005208Y004468D01*
X005178Y004443D01*
X005145Y004422D01*
X005110Y004405D01*
X005074Y004390D01*
X005037Y004380D01*
X004998Y004373D01*
X004960Y004370D01*
X004921Y004371D01*
X004882Y004376D01*
X004844Y004385D01*
X004808Y004397D01*
X004772Y004413D01*
X004738Y004432D01*
X004707Y004455D01*
X004678Y004481D01*
X004651Y004509D01*
X004628Y004540D01*
X004607Y004573D01*
X004591Y004609D01*
X004577Y004645D01*
X004568Y004683D01*
X004562Y004721D01*
X004560Y004760D01*
X004550Y004360D02*
X005350Y005160D01*
X007110Y004500D02*
X007112Y004539D01*
X007118Y004577D01*
X007127Y004615D01*
X007141Y004651D01*
X007157Y004687D01*
X007178Y004720D01*
X007201Y004751D01*
X007228Y004779D01*
X007257Y004805D01*
X007288Y004828D01*
X007322Y004847D01*
X007358Y004863D01*
X007394Y004875D01*
X007432Y004884D01*
X007471Y004889D01*
X007510Y004890D01*
X007548Y004887D01*
X007587Y004880D01*
X007624Y004870D01*
X007660Y004855D01*
X007695Y004838D01*
X007728Y004817D01*
X007758Y004792D01*
X007786Y004765D01*
X007811Y004735D01*
X007833Y004703D01*
X007851Y004669D01*
X007866Y004633D01*
X007878Y004596D01*
X007886Y004558D01*
X007890Y004519D01*
X007890Y004481D01*
X007886Y004442D01*
X007878Y004404D01*
X007866Y004367D01*
X007851Y004331D01*
X007833Y004297D01*
X007811Y004265D01*
X007786Y004235D01*
X007758Y004208D01*
X007728Y004183D01*
X007695Y004162D01*
X007660Y004145D01*
X007624Y004130D01*
X007587Y004120D01*
X007548Y004113D01*
X007510Y004110D01*
X007471Y004111D01*
X007432Y004116D01*
X007394Y004125D01*
X007358Y004137D01*
X007322Y004153D01*
X007288Y004172D01*
X007257Y004195D01*
X007228Y004221D01*
X007201Y004249D01*
X007178Y004280D01*
X007157Y004313D01*
X007141Y004349D01*
X007127Y004385D01*
X007118Y004423D01*
X007112Y004461D01*
X007110Y004500D01*
X007100Y004100D02*
X007900Y004900D01*
X008610Y004500D02*
X008612Y004539D01*
X008618Y004577D01*
X008627Y004615D01*
X008641Y004651D01*
X008657Y004687D01*
X008678Y004720D01*
X008701Y004751D01*
X008728Y004779D01*
X008757Y004805D01*
X008788Y004828D01*
X008822Y004847D01*
X008858Y004863D01*
X008894Y004875D01*
X008932Y004884D01*
X008971Y004889D01*
X009010Y004890D01*
X009048Y004887D01*
X009087Y004880D01*
X009124Y004870D01*
X009160Y004855D01*
X009195Y004838D01*
X009228Y004817D01*
X009258Y004792D01*
X009286Y004765D01*
X009311Y004735D01*
X009333Y004703D01*
X009351Y004669D01*
X009366Y004633D01*
X009378Y004596D01*
X009386Y004558D01*
X009390Y004519D01*
X009390Y004481D01*
X009386Y004442D01*
X009378Y004404D01*
X009366Y004367D01*
X009351Y004331D01*
X009333Y004297D01*
X009311Y004265D01*
X009286Y004235D01*
X009258Y004208D01*
X009228Y004183D01*
X009195Y004162D01*
X009160Y004145D01*
X009124Y004130D01*
X009087Y004120D01*
X009048Y004113D01*
X009010Y004110D01*
X008971Y004111D01*
X008932Y004116D01*
X008894Y004125D01*
X008858Y004137D01*
X008822Y004153D01*
X008788Y004172D01*
X008757Y004195D01*
X008728Y004221D01*
X008701Y004249D01*
X008678Y004280D01*
X008657Y004313D01*
X008641Y004349D01*
X008627Y004385D01*
X008618Y004423D01*
X008612Y004461D01*
X008610Y004500D01*
X008600Y004100D02*
X009400Y004900D01*
X010110Y003500D02*
X010112Y003539D01*
X010118Y003577D01*
X010127Y003615D01*
X010141Y003651D01*
X010157Y003687D01*
X010178Y003720D01*
X010201Y003751D01*
X010228Y003779D01*
X010257Y003805D01*
X010288Y003828D01*
X010322Y003847D01*
X010358Y003863D01*
X010394Y003875D01*
X010432Y003884D01*
X010471Y003889D01*
X010510Y003890D01*
X010548Y003887D01*
X010587Y003880D01*
X010624Y003870D01*
X010660Y003855D01*
X010695Y003838D01*
X010728Y003817D01*
X010758Y003792D01*
X010786Y003765D01*
X010811Y003735D01*
X010833Y003703D01*
X010851Y003669D01*
X010866Y003633D01*
X010878Y003596D01*
X010886Y003558D01*
X010890Y003519D01*
X010890Y003481D01*
X010886Y003442D01*
X010878Y003404D01*
X010866Y003367D01*
X010851Y003331D01*
X010833Y003297D01*
X010811Y003265D01*
X010786Y003235D01*
X010758Y003208D01*
X010728Y003183D01*
X010695Y003162D01*
X010660Y003145D01*
X010624Y003130D01*
X010587Y003120D01*
X010548Y003113D01*
X010510Y003110D01*
X010471Y003111D01*
X010432Y003116D01*
X010394Y003125D01*
X010358Y003137D01*
X010322Y003153D01*
X010288Y003172D01*
X010257Y003195D01*
X010228Y003221D01*
X010201Y003249D01*
X010178Y003280D01*
X010157Y003313D01*
X010141Y003349D01*
X010127Y003385D01*
X010118Y003423D01*
X010112Y003461D01*
X010110Y003500D01*
X010100Y003100D02*
X010900Y003900D01*
X011110Y003500D02*
X011112Y003539D01*
X011118Y003577D01*
X011127Y003615D01*
X011141Y003651D01*
X011157Y003687D01*
X011178Y003720D01*
X011201Y003751D01*
X011228Y003779D01*
X011257Y003805D01*
X011288Y003828D01*
X011322Y003847D01*
X011358Y003863D01*
X011394Y003875D01*
X011432Y003884D01*
X011471Y003889D01*
X011510Y003890D01*
X011548Y003887D01*
X011587Y003880D01*
X011624Y003870D01*
X011660Y003855D01*
X011695Y003838D01*
X011728Y003817D01*
X011758Y003792D01*
X011786Y003765D01*
X011811Y003735D01*
X011833Y003703D01*
X011851Y003669D01*
X011866Y003633D01*
X011878Y003596D01*
X011886Y003558D01*
X011890Y003519D01*
X011890Y003481D01*
X011886Y003442D01*
X011878Y003404D01*
X011866Y003367D01*
X011851Y003331D01*
X011833Y003297D01*
X011811Y003265D01*
X011786Y003235D01*
X011758Y003208D01*
X011728Y003183D01*
X011695Y003162D01*
X011660Y003145D01*
X011624Y003130D01*
X011587Y003120D01*
X011548Y003113D01*
X011510Y003110D01*
X011471Y003111D01*
X011432Y003116D01*
X011394Y003125D01*
X011358Y003137D01*
X011322Y003153D01*
X011288Y003172D01*
X011257Y003195D01*
X011228Y003221D01*
X011201Y003249D01*
X011178Y003280D01*
X011157Y003313D01*
X011141Y003349D01*
X011127Y003385D01*
X011118Y003423D01*
X011112Y003461D01*
X011110Y003500D01*
X011100Y003100D02*
X011900Y003900D01*
X012110Y003500D02*
X012112Y003539D01*
X012118Y003577D01*
X012127Y003615D01*
X012141Y003651D01*
X012157Y003687D01*
X012178Y003720D01*
X012201Y003751D01*
X012228Y003779D01*
X012257Y003805D01*
X012288Y003828D01*
X012322Y003847D01*
X012358Y003863D01*
X012394Y003875D01*
X012432Y003884D01*
X012471Y003889D01*
X012510Y003890D01*
X012548Y003887D01*
X012587Y003880D01*
X012624Y003870D01*
X012660Y003855D01*
X012695Y003838D01*
X012728Y003817D01*
X012758Y003792D01*
X012786Y003765D01*
X012811Y003735D01*
X012833Y003703D01*
X012851Y003669D01*
X012866Y003633D01*
X012878Y003596D01*
X012886Y003558D01*
X012890Y003519D01*
X012890Y003481D01*
X012886Y003442D01*
X012878Y003404D01*
X012866Y003367D01*
X012851Y003331D01*
X012833Y003297D01*
X012811Y003265D01*
X012786Y003235D01*
X012758Y003208D01*
X012728Y003183D01*
X012695Y003162D01*
X012660Y003145D01*
X012624Y003130D01*
X012587Y003120D01*
X012548Y003113D01*
X012510Y003110D01*
X012471Y003111D01*
X012432Y003116D01*
X012394Y003125D01*
X012358Y003137D01*
X012322Y003153D01*
X012288Y003172D01*
X012257Y003195D01*
X012228Y003221D01*
X012201Y003249D01*
X012178Y003280D01*
X012157Y003313D01*
X012141Y003349D01*
X012127Y003385D01*
X012118Y003423D01*
X012112Y003461D01*
X012110Y003500D01*
X012100Y003100D02*
X012900Y003900D01*
X013110Y003500D02*
X013112Y003539D01*
X013118Y003577D01*
X013127Y003615D01*
X013141Y003651D01*
X013157Y003687D01*
X013178Y003720D01*
X013201Y003751D01*
X013228Y003779D01*
X013257Y003805D01*
X013288Y003828D01*
X013322Y003847D01*
X013358Y003863D01*
X013394Y003875D01*
X013432Y003884D01*
X013471Y003889D01*
X013510Y003890D01*
X013548Y003887D01*
X013587Y003880D01*
X013624Y003870D01*
X013660Y003855D01*
X013695Y003838D01*
X013728Y003817D01*
X013758Y003792D01*
X013786Y003765D01*
X013811Y003735D01*
X013833Y003703D01*
X013851Y003669D01*
X013866Y003633D01*
X013878Y003596D01*
X013886Y003558D01*
X013890Y003519D01*
X013890Y003481D01*
X013886Y003442D01*
X013878Y003404D01*
X013866Y003367D01*
X013851Y003331D01*
X013833Y003297D01*
X013811Y003265D01*
X013786Y003235D01*
X013758Y003208D01*
X013728Y003183D01*
X013695Y003162D01*
X013660Y003145D01*
X013624Y003130D01*
X013587Y003120D01*
X013548Y003113D01*
X013510Y003110D01*
X013471Y003111D01*
X013432Y003116D01*
X013394Y003125D01*
X013358Y003137D01*
X013322Y003153D01*
X013288Y003172D01*
X013257Y003195D01*
X013228Y003221D01*
X013201Y003249D01*
X013178Y003280D01*
X013157Y003313D01*
X013141Y003349D01*
X013127Y003385D01*
X013118Y003423D01*
X013112Y003461D01*
X013110Y003500D01*
X013100Y003100D02*
X013900Y003900D01*
X013610Y009000D02*
X013612Y009039D01*
X013618Y009077D01*
X013627Y009115D01*
X013641Y009151D01*
X013657Y009187D01*
X013678Y009220D01*
X013701Y009251D01*
X013728Y009279D01*
X013757Y009305D01*
X013788Y009328D01*
X013822Y009347D01*
X013858Y009363D01*
X013894Y009375D01*
X013932Y009384D01*
X013971Y009389D01*
X014010Y009390D01*
X014048Y009387D01*
X014087Y009380D01*
X014124Y009370D01*
X014160Y009355D01*
X014195Y009338D01*
X014228Y009317D01*
X014258Y009292D01*
X014286Y009265D01*
X014311Y009235D01*
X014333Y009203D01*
X014351Y009169D01*
X014366Y009133D01*
X014378Y009096D01*
X014386Y009058D01*
X014390Y009019D01*
X014390Y008981D01*
X014386Y008942D01*
X014378Y008904D01*
X014366Y008867D01*
X014351Y008831D01*
X014333Y008797D01*
X014311Y008765D01*
X014286Y008735D01*
X014258Y008708D01*
X014228Y008683D01*
X014195Y008662D01*
X014160Y008645D01*
X014124Y008630D01*
X014087Y008620D01*
X014048Y008613D01*
X014010Y008610D01*
X013971Y008611D01*
X013932Y008616D01*
X013894Y008625D01*
X013858Y008637D01*
X013822Y008653D01*
X013788Y008672D01*
X013757Y008695D01*
X013728Y008721D01*
X013701Y008749D01*
X013678Y008780D01*
X013657Y008813D01*
X013641Y008849D01*
X013627Y008885D01*
X013618Y008923D01*
X013612Y008961D01*
X013610Y009000D01*
X013600Y008600D02*
X014400Y009400D01*
X017110Y014750D02*
X017112Y014789D01*
X017118Y014827D01*
X017127Y014865D01*
X017141Y014901D01*
X017157Y014937D01*
X017178Y014970D01*
X017201Y015001D01*
X017228Y015029D01*
X017257Y015055D01*
X017288Y015078D01*
X017322Y015097D01*
X017358Y015113D01*
X017394Y015125D01*
X017432Y015134D01*
X017471Y015139D01*
X017510Y015140D01*
X017548Y015137D01*
X017587Y015130D01*
X017624Y015120D01*
X017660Y015105D01*
X017695Y015088D01*
X017728Y015067D01*
X017758Y015042D01*
X017786Y015015D01*
X017811Y014985D01*
X017833Y014953D01*
X017851Y014919D01*
X017866Y014883D01*
X017878Y014846D01*
X017886Y014808D01*
X017890Y014769D01*
X017890Y014731D01*
X017886Y014692D01*
X017878Y014654D01*
X017866Y014617D01*
X017851Y014581D01*
X017833Y014547D01*
X017811Y014515D01*
X017786Y014485D01*
X017758Y014458D01*
X017728Y014433D01*
X017695Y014412D01*
X017660Y014395D01*
X017624Y014380D01*
X017587Y014370D01*
X017548Y014363D01*
X017510Y014360D01*
X017471Y014361D01*
X017432Y014366D01*
X017394Y014375D01*
X017358Y014387D01*
X017322Y014403D01*
X017288Y014422D01*
X017257Y014445D01*
X017228Y014471D01*
X017201Y014499D01*
X017178Y014530D01*
X017157Y014563D01*
X017141Y014599D01*
X017127Y014635D01*
X017118Y014673D01*
X017112Y014711D01*
X017110Y014750D01*
X017100Y014350D02*
X017900Y015150D01*
X018110Y014750D02*
X018112Y014789D01*
X018118Y014827D01*
X018127Y014865D01*
X018141Y014901D01*
X018157Y014937D01*
X018178Y014970D01*
X018201Y015001D01*
X018228Y015029D01*
X018257Y015055D01*
X018288Y015078D01*
X018322Y015097D01*
X018358Y015113D01*
X018394Y015125D01*
X018432Y015134D01*
X018471Y015139D01*
X018510Y015140D01*
X018548Y015137D01*
X018587Y015130D01*
X018624Y015120D01*
X018660Y015105D01*
X018695Y015088D01*
X018728Y015067D01*
X018758Y015042D01*
X018786Y015015D01*
X018811Y014985D01*
X018833Y014953D01*
X018851Y014919D01*
X018866Y014883D01*
X018878Y014846D01*
X018886Y014808D01*
X018890Y014769D01*
X018890Y014731D01*
X018886Y014692D01*
X018878Y014654D01*
X018866Y014617D01*
X018851Y014581D01*
X018833Y014547D01*
X018811Y014515D01*
X018786Y014485D01*
X018758Y014458D01*
X018728Y014433D01*
X018695Y014412D01*
X018660Y014395D01*
X018624Y014380D01*
X018587Y014370D01*
X018548Y014363D01*
X018510Y014360D01*
X018471Y014361D01*
X018432Y014366D01*
X018394Y014375D01*
X018358Y014387D01*
X018322Y014403D01*
X018288Y014422D01*
X018257Y014445D01*
X018228Y014471D01*
X018201Y014499D01*
X018178Y014530D01*
X018157Y014563D01*
X018141Y014599D01*
X018127Y014635D01*
X018118Y014673D01*
X018112Y014711D01*
X018110Y014750D01*
X018100Y014350D02*
X018900Y015150D01*
X018110Y016000D02*
X018112Y016039D01*
X018118Y016077D01*
X018127Y016115D01*
X018141Y016151D01*
X018157Y016187D01*
X018178Y016220D01*
X018201Y016251D01*
X018228Y016279D01*
X018257Y016305D01*
X018288Y016328D01*
X018322Y016347D01*
X018358Y016363D01*
X018394Y016375D01*
X018432Y016384D01*
X018471Y016389D01*
X018510Y016390D01*
X018548Y016387D01*
X018587Y016380D01*
X018624Y016370D01*
X018660Y016355D01*
X018695Y016338D01*
X018728Y016317D01*
X018758Y016292D01*
X018786Y016265D01*
X018811Y016235D01*
X018833Y016203D01*
X018851Y016169D01*
X018866Y016133D01*
X018878Y016096D01*
X018886Y016058D01*
X018890Y016019D01*
X018890Y015981D01*
X018886Y015942D01*
X018878Y015904D01*
X018866Y015867D01*
X018851Y015831D01*
X018833Y015797D01*
X018811Y015765D01*
X018786Y015735D01*
X018758Y015708D01*
X018728Y015683D01*
X018695Y015662D01*
X018660Y015645D01*
X018624Y015630D01*
X018587Y015620D01*
X018548Y015613D01*
X018510Y015610D01*
X018471Y015611D01*
X018432Y015616D01*
X018394Y015625D01*
X018358Y015637D01*
X018322Y015653D01*
X018288Y015672D01*
X018257Y015695D01*
X018228Y015721D01*
X018201Y015749D01*
X018178Y015780D01*
X018157Y015813D01*
X018141Y015849D01*
X018127Y015885D01*
X018118Y015923D01*
X018112Y015961D01*
X018110Y016000D01*
X018100Y015600D02*
X018900Y016400D01*
X017110Y016000D02*
X017112Y016039D01*
X017118Y016077D01*
X017127Y016115D01*
X017141Y016151D01*
X017157Y016187D01*
X017178Y016220D01*
X017201Y016251D01*
X017228Y016279D01*
X017257Y016305D01*
X017288Y016328D01*
X017322Y016347D01*
X017358Y016363D01*
X017394Y016375D01*
X017432Y016384D01*
X017471Y016389D01*
X017510Y016390D01*
X017548Y016387D01*
X017587Y016380D01*
X017624Y016370D01*
X017660Y016355D01*
X017695Y016338D01*
X017728Y016317D01*
X017758Y016292D01*
X017786Y016265D01*
X017811Y016235D01*
X017833Y016203D01*
X017851Y016169D01*
X017866Y016133D01*
X017878Y016096D01*
X017886Y016058D01*
X017890Y016019D01*
X017890Y015981D01*
X017886Y015942D01*
X017878Y015904D01*
X017866Y015867D01*
X017851Y015831D01*
X017833Y015797D01*
X017811Y015765D01*
X017786Y015735D01*
X017758Y015708D01*
X017728Y015683D01*
X017695Y015662D01*
X017660Y015645D01*
X017624Y015630D01*
X017587Y015620D01*
X017548Y015613D01*
X017510Y015610D01*
X017471Y015611D01*
X017432Y015616D01*
X017394Y015625D01*
X017358Y015637D01*
X017322Y015653D01*
X017288Y015672D01*
X017257Y015695D01*
X017228Y015721D01*
X017201Y015749D01*
X017178Y015780D01*
X017157Y015813D01*
X017141Y015849D01*
X017127Y015885D01*
X017118Y015923D01*
X017112Y015961D01*
X017110Y016000D01*
X017100Y015600D02*
X017900Y016400D01*
X014110Y016000D02*
X014112Y016039D01*
X014118Y016077D01*
X014127Y016115D01*
X014141Y016151D01*
X014157Y016187D01*
X014178Y016220D01*
X014201Y016251D01*
X014228Y016279D01*
X014257Y016305D01*
X014288Y016328D01*
X014322Y016347D01*
X014358Y016363D01*
X014394Y016375D01*
X014432Y016384D01*
X014471Y016389D01*
X014510Y016390D01*
X014548Y016387D01*
X014587Y016380D01*
X014624Y016370D01*
X014660Y016355D01*
X014695Y016338D01*
X014728Y016317D01*
X014758Y016292D01*
X014786Y016265D01*
X014811Y016235D01*
X014833Y016203D01*
X014851Y016169D01*
X014866Y016133D01*
X014878Y016096D01*
X014886Y016058D01*
X014890Y016019D01*
X014890Y015981D01*
X014886Y015942D01*
X014878Y015904D01*
X014866Y015867D01*
X014851Y015831D01*
X014833Y015797D01*
X014811Y015765D01*
X014786Y015735D01*
X014758Y015708D01*
X014728Y015683D01*
X014695Y015662D01*
X014660Y015645D01*
X014624Y015630D01*
X014587Y015620D01*
X014548Y015613D01*
X014510Y015610D01*
X014471Y015611D01*
X014432Y015616D01*
X014394Y015625D01*
X014358Y015637D01*
X014322Y015653D01*
X014288Y015672D01*
X014257Y015695D01*
X014228Y015721D01*
X014201Y015749D01*
X014178Y015780D01*
X014157Y015813D01*
X014141Y015849D01*
X014127Y015885D01*
X014118Y015923D01*
X014112Y015961D01*
X014110Y016000D01*
X014100Y015600D02*
X014900Y016400D01*
X013110Y016000D02*
X013112Y016039D01*
X013118Y016077D01*
X013127Y016115D01*
X013141Y016151D01*
X013157Y016187D01*
X013178Y016220D01*
X013201Y016251D01*
X013228Y016279D01*
X013257Y016305D01*
X013288Y016328D01*
X013322Y016347D01*
X013358Y016363D01*
X013394Y016375D01*
X013432Y016384D01*
X013471Y016389D01*
X013510Y016390D01*
X013548Y016387D01*
X013587Y016380D01*
X013624Y016370D01*
X013660Y016355D01*
X013695Y016338D01*
X013728Y016317D01*
X013758Y016292D01*
X013786Y016265D01*
X013811Y016235D01*
X013833Y016203D01*
X013851Y016169D01*
X013866Y016133D01*
X013878Y016096D01*
X013886Y016058D01*
X013890Y016019D01*
X013890Y015981D01*
X013886Y015942D01*
X013878Y015904D01*
X013866Y015867D01*
X013851Y015831D01*
X013833Y015797D01*
X013811Y015765D01*
X013786Y015735D01*
X013758Y015708D01*
X013728Y015683D01*
X013695Y015662D01*
X013660Y015645D01*
X013624Y015630D01*
X013587Y015620D01*
X013548Y015613D01*
X013510Y015610D01*
X013471Y015611D01*
X013432Y015616D01*
X013394Y015625D01*
X013358Y015637D01*
X013322Y015653D01*
X013288Y015672D01*
X013257Y015695D01*
X013228Y015721D01*
X013201Y015749D01*
X013178Y015780D01*
X013157Y015813D01*
X013141Y015849D01*
X013127Y015885D01*
X013118Y015923D01*
X013112Y015961D01*
X013110Y016000D01*
X013100Y015600D02*
X013900Y016400D01*
X012110Y016000D02*
X012112Y016039D01*
X012118Y016077D01*
X012127Y016115D01*
X012141Y016151D01*
X012157Y016187D01*
X012178Y016220D01*
X012201Y016251D01*
X012228Y016279D01*
X012257Y016305D01*
X012288Y016328D01*
X012322Y016347D01*
X012358Y016363D01*
X012394Y016375D01*
X012432Y016384D01*
X012471Y016389D01*
X012510Y016390D01*
X012548Y016387D01*
X012587Y016380D01*
X012624Y016370D01*
X012660Y016355D01*
X012695Y016338D01*
X012728Y016317D01*
X012758Y016292D01*
X012786Y016265D01*
X012811Y016235D01*
X012833Y016203D01*
X012851Y016169D01*
X012866Y016133D01*
X012878Y016096D01*
X012886Y016058D01*
X012890Y016019D01*
X012890Y015981D01*
X012886Y015942D01*
X012878Y015904D01*
X012866Y015867D01*
X012851Y015831D01*
X012833Y015797D01*
X012811Y015765D01*
X012786Y015735D01*
X012758Y015708D01*
X012728Y015683D01*
X012695Y015662D01*
X012660Y015645D01*
X012624Y015630D01*
X012587Y015620D01*
X012548Y015613D01*
X012510Y015610D01*
X012471Y015611D01*
X012432Y015616D01*
X012394Y015625D01*
X012358Y015637D01*
X012322Y015653D01*
X012288Y015672D01*
X012257Y015695D01*
X012228Y015721D01*
X012201Y015749D01*
X012178Y015780D01*
X012157Y015813D01*
X012141Y015849D01*
X012127Y015885D01*
X012118Y015923D01*
X012112Y015961D01*
X012110Y016000D01*
X012100Y015600D02*
X012900Y016400D01*
X011110Y016000D02*
X011112Y016039D01*
X011118Y016077D01*
X011127Y016115D01*
X011141Y016151D01*
X011157Y016187D01*
X011178Y016220D01*
X011201Y016251D01*
X011228Y016279D01*
X011257Y016305D01*
X011288Y016328D01*
X011322Y016347D01*
X011358Y016363D01*
X011394Y016375D01*
X011432Y016384D01*
X011471Y016389D01*
X011510Y016390D01*
X011548Y016387D01*
X011587Y016380D01*
X011624Y016370D01*
X011660Y016355D01*
X011695Y016338D01*
X011728Y016317D01*
X011758Y016292D01*
X011786Y016265D01*
X011811Y016235D01*
X011833Y016203D01*
X011851Y016169D01*
X011866Y016133D01*
X011878Y016096D01*
X011886Y016058D01*
X011890Y016019D01*
X011890Y015981D01*
X011886Y015942D01*
X011878Y015904D01*
X011866Y015867D01*
X011851Y015831D01*
X011833Y015797D01*
X011811Y015765D01*
X011786Y015735D01*
X011758Y015708D01*
X011728Y015683D01*
X011695Y015662D01*
X011660Y015645D01*
X011624Y015630D01*
X011587Y015620D01*
X011548Y015613D01*
X011510Y015610D01*
X011471Y015611D01*
X011432Y015616D01*
X011394Y015625D01*
X011358Y015637D01*
X011322Y015653D01*
X011288Y015672D01*
X011257Y015695D01*
X011228Y015721D01*
X011201Y015749D01*
X011178Y015780D01*
X011157Y015813D01*
X011141Y015849D01*
X011127Y015885D01*
X011118Y015923D01*
X011112Y015961D01*
X011110Y016000D01*
X011100Y015600D02*
X011900Y016400D01*
X009110Y016500D02*
X009112Y016539D01*
X009118Y016577D01*
X009127Y016615D01*
X009141Y016651D01*
X009157Y016687D01*
X009178Y016720D01*
X009201Y016751D01*
X009228Y016779D01*
X009257Y016805D01*
X009288Y016828D01*
X009322Y016847D01*
X009358Y016863D01*
X009394Y016875D01*
X009432Y016884D01*
X009471Y016889D01*
X009510Y016890D01*
X009548Y016887D01*
X009587Y016880D01*
X009624Y016870D01*
X009660Y016855D01*
X009695Y016838D01*
X009728Y016817D01*
X009758Y016792D01*
X009786Y016765D01*
X009811Y016735D01*
X009833Y016703D01*
X009851Y016669D01*
X009866Y016633D01*
X009878Y016596D01*
X009886Y016558D01*
X009890Y016519D01*
X009890Y016481D01*
X009886Y016442D01*
X009878Y016404D01*
X009866Y016367D01*
X009851Y016331D01*
X009833Y016297D01*
X009811Y016265D01*
X009786Y016235D01*
X009758Y016208D01*
X009728Y016183D01*
X009695Y016162D01*
X009660Y016145D01*
X009624Y016130D01*
X009587Y016120D01*
X009548Y016113D01*
X009510Y016110D01*
X009471Y016111D01*
X009432Y016116D01*
X009394Y016125D01*
X009358Y016137D01*
X009322Y016153D01*
X009288Y016172D01*
X009257Y016195D01*
X009228Y016221D01*
X009201Y016249D01*
X009178Y016280D01*
X009157Y016313D01*
X009141Y016349D01*
X009127Y016385D01*
X009118Y016423D01*
X009112Y016461D01*
X009110Y016500D01*
X009100Y016100D02*
X009900Y016900D01*
X009110Y015500D02*
X009112Y015539D01*
X009118Y015577D01*
X009127Y015615D01*
X009141Y015651D01*
X009157Y015687D01*
X009178Y015720D01*
X009201Y015751D01*
X009228Y015779D01*
X009257Y015805D01*
X009288Y015828D01*
X009322Y015847D01*
X009358Y015863D01*
X009394Y015875D01*
X009432Y015884D01*
X009471Y015889D01*
X009510Y015890D01*
X009548Y015887D01*
X009587Y015880D01*
X009624Y015870D01*
X009660Y015855D01*
X009695Y015838D01*
X009728Y015817D01*
X009758Y015792D01*
X009786Y015765D01*
X009811Y015735D01*
X009833Y015703D01*
X009851Y015669D01*
X009866Y015633D01*
X009878Y015596D01*
X009886Y015558D01*
X009890Y015519D01*
X009890Y015481D01*
X009886Y015442D01*
X009878Y015404D01*
X009866Y015367D01*
X009851Y015331D01*
X009833Y015297D01*
X009811Y015265D01*
X009786Y015235D01*
X009758Y015208D01*
X009728Y015183D01*
X009695Y015162D01*
X009660Y015145D01*
X009624Y015130D01*
X009587Y015120D01*
X009548Y015113D01*
X009510Y015110D01*
X009471Y015111D01*
X009432Y015116D01*
X009394Y015125D01*
X009358Y015137D01*
X009322Y015153D01*
X009288Y015172D01*
X009257Y015195D01*
X009228Y015221D01*
X009201Y015249D01*
X009178Y015280D01*
X009157Y015313D01*
X009141Y015349D01*
X009127Y015385D01*
X009118Y015423D01*
X009112Y015461D01*
X009110Y015500D01*
X009100Y015100D02*
X009900Y015900D01*
X007110Y015500D02*
X007112Y015539D01*
X007118Y015577D01*
X007127Y015615D01*
X007141Y015651D01*
X007157Y015687D01*
X007178Y015720D01*
X007201Y015751D01*
X007228Y015779D01*
X007257Y015805D01*
X007288Y015828D01*
X007322Y015847D01*
X007358Y015863D01*
X007394Y015875D01*
X007432Y015884D01*
X007471Y015889D01*
X007510Y015890D01*
X007548Y015887D01*
X007587Y015880D01*
X007624Y015870D01*
X007660Y015855D01*
X007695Y015838D01*
X007728Y015817D01*
X007758Y015792D01*
X007786Y015765D01*
X007811Y015735D01*
X007833Y015703D01*
X007851Y015669D01*
X007866Y015633D01*
X007878Y015596D01*
X007886Y015558D01*
X007890Y015519D01*
X007890Y015481D01*
X007886Y015442D01*
X007878Y015404D01*
X007866Y015367D01*
X007851Y015331D01*
X007833Y015297D01*
X007811Y015265D01*
X007786Y015235D01*
X007758Y015208D01*
X007728Y015183D01*
X007695Y015162D01*
X007660Y015145D01*
X007624Y015130D01*
X007587Y015120D01*
X007548Y015113D01*
X007510Y015110D01*
X007471Y015111D01*
X007432Y015116D01*
X007394Y015125D01*
X007358Y015137D01*
X007322Y015153D01*
X007288Y015172D01*
X007257Y015195D01*
X007228Y015221D01*
X007201Y015249D01*
X007178Y015280D01*
X007157Y015313D01*
X007141Y015349D01*
X007127Y015385D01*
X007118Y015423D01*
X007112Y015461D01*
X007110Y015500D01*
X007100Y015100D02*
X007900Y015900D01*
X007110Y016500D02*
X007112Y016539D01*
X007118Y016577D01*
X007127Y016615D01*
X007141Y016651D01*
X007157Y016687D01*
X007178Y016720D01*
X007201Y016751D01*
X007228Y016779D01*
X007257Y016805D01*
X007288Y016828D01*
X007322Y016847D01*
X007358Y016863D01*
X007394Y016875D01*
X007432Y016884D01*
X007471Y016889D01*
X007510Y016890D01*
X007548Y016887D01*
X007587Y016880D01*
X007624Y016870D01*
X007660Y016855D01*
X007695Y016838D01*
X007728Y016817D01*
X007758Y016792D01*
X007786Y016765D01*
X007811Y016735D01*
X007833Y016703D01*
X007851Y016669D01*
X007866Y016633D01*
X007878Y016596D01*
X007886Y016558D01*
X007890Y016519D01*
X007890Y016481D01*
X007886Y016442D01*
X007878Y016404D01*
X007866Y016367D01*
X007851Y016331D01*
X007833Y016297D01*
X007811Y016265D01*
X007786Y016235D01*
X007758Y016208D01*
X007728Y016183D01*
X007695Y016162D01*
X007660Y016145D01*
X007624Y016130D01*
X007587Y016120D01*
X007548Y016113D01*
X007510Y016110D01*
X007471Y016111D01*
X007432Y016116D01*
X007394Y016125D01*
X007358Y016137D01*
X007322Y016153D01*
X007288Y016172D01*
X007257Y016195D01*
X007228Y016221D01*
X007201Y016249D01*
X007178Y016280D01*
X007157Y016313D01*
X007141Y016349D01*
X007127Y016385D01*
X007118Y016423D01*
X007112Y016461D01*
X007110Y016500D01*
X007100Y016100D02*
X007900Y016900D01*
X007110Y019500D02*
X007112Y019539D01*
X007118Y019577D01*
X007127Y019615D01*
X007141Y019651D01*
X007157Y019687D01*
X007178Y019720D01*
X007201Y019751D01*
X007228Y019779D01*
X007257Y019805D01*
X007288Y019828D01*
X007322Y019847D01*
X007358Y019863D01*
X007394Y019875D01*
X007432Y019884D01*
X007471Y019889D01*
X007510Y019890D01*
X007548Y019887D01*
X007587Y019880D01*
X007624Y019870D01*
X007660Y019855D01*
X007695Y019838D01*
X007728Y019817D01*
X007758Y019792D01*
X007786Y019765D01*
X007811Y019735D01*
X007833Y019703D01*
X007851Y019669D01*
X007866Y019633D01*
X007878Y019596D01*
X007886Y019558D01*
X007890Y019519D01*
X007890Y019481D01*
X007886Y019442D01*
X007878Y019404D01*
X007866Y019367D01*
X007851Y019331D01*
X007833Y019297D01*
X007811Y019265D01*
X007786Y019235D01*
X007758Y019208D01*
X007728Y019183D01*
X007695Y019162D01*
X007660Y019145D01*
X007624Y019130D01*
X007587Y019120D01*
X007548Y019113D01*
X007510Y019110D01*
X007471Y019111D01*
X007432Y019116D01*
X007394Y019125D01*
X007358Y019137D01*
X007322Y019153D01*
X007288Y019172D01*
X007257Y019195D01*
X007228Y019221D01*
X007201Y019249D01*
X007178Y019280D01*
X007157Y019313D01*
X007141Y019349D01*
X007127Y019385D01*
X007118Y019423D01*
X007112Y019461D01*
X007110Y019500D01*
X007100Y019100D02*
X007900Y019900D01*
X009110Y019500D02*
X009112Y019539D01*
X009118Y019577D01*
X009127Y019615D01*
X009141Y019651D01*
X009157Y019687D01*
X009178Y019720D01*
X009201Y019751D01*
X009228Y019779D01*
X009257Y019805D01*
X009288Y019828D01*
X009322Y019847D01*
X009358Y019863D01*
X009394Y019875D01*
X009432Y019884D01*
X009471Y019889D01*
X009510Y019890D01*
X009548Y019887D01*
X009587Y019880D01*
X009624Y019870D01*
X009660Y019855D01*
X009695Y019838D01*
X009728Y019817D01*
X009758Y019792D01*
X009786Y019765D01*
X009811Y019735D01*
X009833Y019703D01*
X009851Y019669D01*
X009866Y019633D01*
X009878Y019596D01*
X009886Y019558D01*
X009890Y019519D01*
X009890Y019481D01*
X009886Y019442D01*
X009878Y019404D01*
X009866Y019367D01*
X009851Y019331D01*
X009833Y019297D01*
X009811Y019265D01*
X009786Y019235D01*
X009758Y019208D01*
X009728Y019183D01*
X009695Y019162D01*
X009660Y019145D01*
X009624Y019130D01*
X009587Y019120D01*
X009548Y019113D01*
X009510Y019110D01*
X009471Y019111D01*
X009432Y019116D01*
X009394Y019125D01*
X009358Y019137D01*
X009322Y019153D01*
X009288Y019172D01*
X009257Y019195D01*
X009228Y019221D01*
X009201Y019249D01*
X009178Y019280D01*
X009157Y019313D01*
X009141Y019349D01*
X009127Y019385D01*
X009118Y019423D01*
X009112Y019461D01*
X009110Y019500D01*
X009100Y019100D02*
X009900Y019900D01*
X011610Y019500D02*
X011612Y019539D01*
X011618Y019577D01*
X011627Y019615D01*
X011641Y019651D01*
X011657Y019687D01*
X011678Y019720D01*
X011701Y019751D01*
X011728Y019779D01*
X011757Y019805D01*
X011788Y019828D01*
X011822Y019847D01*
X011858Y019863D01*
X011894Y019875D01*
X011932Y019884D01*
X011971Y019889D01*
X012010Y019890D01*
X012048Y019887D01*
X012087Y019880D01*
X012124Y019870D01*
X012160Y019855D01*
X012195Y019838D01*
X012228Y019817D01*
X012258Y019792D01*
X012286Y019765D01*
X012311Y019735D01*
X012333Y019703D01*
X012351Y019669D01*
X012366Y019633D01*
X012378Y019596D01*
X012386Y019558D01*
X012390Y019519D01*
X012390Y019481D01*
X012386Y019442D01*
X012378Y019404D01*
X012366Y019367D01*
X012351Y019331D01*
X012333Y019297D01*
X012311Y019265D01*
X012286Y019235D01*
X012258Y019208D01*
X012228Y019183D01*
X012195Y019162D01*
X012160Y019145D01*
X012124Y019130D01*
X012087Y019120D01*
X012048Y019113D01*
X012010Y019110D01*
X011971Y019111D01*
X011932Y019116D01*
X011894Y019125D01*
X011858Y019137D01*
X011822Y019153D01*
X011788Y019172D01*
X011757Y019195D01*
X011728Y019221D01*
X011701Y019249D01*
X011678Y019280D01*
X011657Y019313D01*
X011641Y019349D01*
X011627Y019385D01*
X011618Y019423D01*
X011612Y019461D01*
X011610Y019500D01*
X011600Y019100D02*
X012400Y019900D01*
X013110Y019500D02*
X013112Y019539D01*
X013118Y019577D01*
X013127Y019615D01*
X013141Y019651D01*
X013157Y019687D01*
X013178Y019720D01*
X013201Y019751D01*
X013228Y019779D01*
X013257Y019805D01*
X013288Y019828D01*
X013322Y019847D01*
X013358Y019863D01*
X013394Y019875D01*
X013432Y019884D01*
X013471Y019889D01*
X013510Y019890D01*
X013548Y019887D01*
X013587Y019880D01*
X013624Y019870D01*
X013660Y019855D01*
X013695Y019838D01*
X013728Y019817D01*
X013758Y019792D01*
X013786Y019765D01*
X013811Y019735D01*
X013833Y019703D01*
X013851Y019669D01*
X013866Y019633D01*
X013878Y019596D01*
X013886Y019558D01*
X013890Y019519D01*
X013890Y019481D01*
X013886Y019442D01*
X013878Y019404D01*
X013866Y019367D01*
X013851Y019331D01*
X013833Y019297D01*
X013811Y019265D01*
X013786Y019235D01*
X013758Y019208D01*
X013728Y019183D01*
X013695Y019162D01*
X013660Y019145D01*
X013624Y019130D01*
X013587Y019120D01*
X013548Y019113D01*
X013510Y019110D01*
X013471Y019111D01*
X013432Y019116D01*
X013394Y019125D01*
X013358Y019137D01*
X013322Y019153D01*
X013288Y019172D01*
X013257Y019195D01*
X013228Y019221D01*
X013201Y019249D01*
X013178Y019280D01*
X013157Y019313D01*
X013141Y019349D01*
X013127Y019385D01*
X013118Y019423D01*
X013112Y019461D01*
X013110Y019500D01*
X013100Y019100D02*
X013900Y019900D01*
X013110Y018500D02*
X013112Y018539D01*
X013118Y018577D01*
X013127Y018615D01*
X013141Y018651D01*
X013157Y018687D01*
X013178Y018720D01*
X013201Y018751D01*
X013228Y018779D01*
X013257Y018805D01*
X013288Y018828D01*
X013322Y018847D01*
X013358Y018863D01*
X013394Y018875D01*
X013432Y018884D01*
X013471Y018889D01*
X013510Y018890D01*
X013548Y018887D01*
X013587Y018880D01*
X013624Y018870D01*
X013660Y018855D01*
X013695Y018838D01*
X013728Y018817D01*
X013758Y018792D01*
X013786Y018765D01*
X013811Y018735D01*
X013833Y018703D01*
X013851Y018669D01*
X013866Y018633D01*
X013878Y018596D01*
X013886Y018558D01*
X013890Y018519D01*
X013890Y018481D01*
X013886Y018442D01*
X013878Y018404D01*
X013866Y018367D01*
X013851Y018331D01*
X013833Y018297D01*
X013811Y018265D01*
X013786Y018235D01*
X013758Y018208D01*
X013728Y018183D01*
X013695Y018162D01*
X013660Y018145D01*
X013624Y018130D01*
X013587Y018120D01*
X013548Y018113D01*
X013510Y018110D01*
X013471Y018111D01*
X013432Y018116D01*
X013394Y018125D01*
X013358Y018137D01*
X013322Y018153D01*
X013288Y018172D01*
X013257Y018195D01*
X013228Y018221D01*
X013201Y018249D01*
X013178Y018280D01*
X013157Y018313D01*
X013141Y018349D01*
X013127Y018385D01*
X013118Y018423D01*
X013112Y018461D01*
X013110Y018500D01*
X013100Y018100D02*
X013900Y018900D01*
X011610Y018500D02*
X011612Y018539D01*
X011618Y018577D01*
X011627Y018615D01*
X011641Y018651D01*
X011657Y018687D01*
X011678Y018720D01*
X011701Y018751D01*
X011728Y018779D01*
X011757Y018805D01*
X011788Y018828D01*
X011822Y018847D01*
X011858Y018863D01*
X011894Y018875D01*
X011932Y018884D01*
X011971Y018889D01*
X012010Y018890D01*
X012048Y018887D01*
X012087Y018880D01*
X012124Y018870D01*
X012160Y018855D01*
X012195Y018838D01*
X012228Y018817D01*
X012258Y018792D01*
X012286Y018765D01*
X012311Y018735D01*
X012333Y018703D01*
X012351Y018669D01*
X012366Y018633D01*
X012378Y018596D01*
X012386Y018558D01*
X012390Y018519D01*
X012390Y018481D01*
X012386Y018442D01*
X012378Y018404D01*
X012366Y018367D01*
X012351Y018331D01*
X012333Y018297D01*
X012311Y018265D01*
X012286Y018235D01*
X012258Y018208D01*
X012228Y018183D01*
X012195Y018162D01*
X012160Y018145D01*
X012124Y018130D01*
X012087Y018120D01*
X012048Y018113D01*
X012010Y018110D01*
X011971Y018111D01*
X011932Y018116D01*
X011894Y018125D01*
X011858Y018137D01*
X011822Y018153D01*
X011788Y018172D01*
X011757Y018195D01*
X011728Y018221D01*
X011701Y018249D01*
X011678Y018280D01*
X011657Y018313D01*
X011641Y018349D01*
X011627Y018385D01*
X011618Y018423D01*
X011612Y018461D01*
X011610Y018500D01*
X011600Y018100D02*
X012400Y018900D01*
X021897Y019084D02*
X022697Y019884D01*
X022697Y019084D02*
X021897Y019884D01*
X022297Y019884D02*
X022297Y019084D01*
X022697Y017916D02*
X021897Y017116D01*
X022697Y017116D02*
X021897Y017916D01*
X022297Y017916D02*
X022297Y017116D01*
X022797Y014634D02*
X021997Y013834D01*
X022797Y013834D02*
X021997Y014634D01*
X022397Y014634D02*
X022397Y013834D01*
X025320Y019860D02*
X025322Y019899D01*
X025328Y019937D01*
X025337Y019975D01*
X025351Y020011D01*
X025367Y020047D01*
X025388Y020080D01*
X025411Y020111D01*
X025438Y020139D01*
X025467Y020165D01*
X025498Y020188D01*
X025532Y020207D01*
X025568Y020223D01*
X025604Y020235D01*
X025642Y020244D01*
X025681Y020249D01*
X025720Y020250D01*
X025758Y020247D01*
X025797Y020240D01*
X025834Y020230D01*
X025870Y020215D01*
X025905Y020198D01*
X025938Y020177D01*
X025968Y020152D01*
X025996Y020125D01*
X026021Y020095D01*
X026043Y020063D01*
X026061Y020029D01*
X026076Y019993D01*
X026088Y019956D01*
X026096Y019918D01*
X026100Y019879D01*
X026100Y019841D01*
X026096Y019802D01*
X026088Y019764D01*
X026076Y019727D01*
X026061Y019691D01*
X026043Y019657D01*
X026021Y019625D01*
X025996Y019595D01*
X025968Y019568D01*
X025938Y019543D01*
X025905Y019522D01*
X025870Y019505D01*
X025834Y019490D01*
X025797Y019480D01*
X025758Y019473D01*
X025720Y019470D01*
X025681Y019471D01*
X025642Y019476D01*
X025604Y019485D01*
X025568Y019497D01*
X025532Y019513D01*
X025498Y019532D01*
X025467Y019555D01*
X025438Y019581D01*
X025411Y019609D01*
X025388Y019640D01*
X025367Y019673D01*
X025351Y019709D01*
X025337Y019745D01*
X025328Y019783D01*
X025322Y019821D01*
X025320Y019860D01*
X025310Y019460D02*
X026110Y020260D01*
X022897Y005134D02*
X022097Y004334D01*
X022897Y004334D02*
X022097Y005134D01*
X022497Y005134D02*
X022497Y004334D01*
X022897Y003166D02*
X022097Y002366D01*
X022897Y002366D02*
X022097Y003166D01*
X022497Y003166D02*
X022497Y002366D01*
X025350Y001610D02*
X025352Y001649D01*
X025358Y001687D01*
X025367Y001725D01*
X025381Y001761D01*
X025397Y001797D01*
X025418Y001830D01*
X025441Y001861D01*
X025468Y001889D01*
X025497Y001915D01*
X025528Y001938D01*
X025562Y001957D01*
X025598Y001973D01*
X025634Y001985D01*
X025672Y001994D01*
X025711Y001999D01*
X025750Y002000D01*
X025788Y001997D01*
X025827Y001990D01*
X025864Y001980D01*
X025900Y001965D01*
X025935Y001948D01*
X025968Y001927D01*
X025998Y001902D01*
X026026Y001875D01*
X026051Y001845D01*
X026073Y001813D01*
X026091Y001779D01*
X026106Y001743D01*
X026118Y001706D01*
X026126Y001668D01*
X026130Y001629D01*
X026130Y001591D01*
X026126Y001552D01*
X026118Y001514D01*
X026106Y001477D01*
X026091Y001441D01*
X026073Y001407D01*
X026051Y001375D01*
X026026Y001345D01*
X025998Y001318D01*
X025968Y001293D01*
X025935Y001272D01*
X025900Y001255D01*
X025864Y001240D01*
X025827Y001230D01*
X025788Y001223D01*
X025750Y001220D01*
X025711Y001221D01*
X025672Y001226D01*
X025634Y001235D01*
X025598Y001247D01*
X025562Y001263D01*
X025528Y001282D01*
X025497Y001305D01*
X025468Y001331D01*
X025441Y001359D01*
X025418Y001390D01*
X025397Y001423D01*
X025381Y001459D01*
X025367Y001495D01*
X025358Y001533D01*
X025352Y001571D01*
X025350Y001610D01*
X025340Y001210D02*
X026140Y002010D01*
X007110Y002000D02*
X007112Y002039D01*
X007118Y002077D01*
X007127Y002115D01*
X007141Y002151D01*
X007157Y002187D01*
X007178Y002220D01*
X007201Y002251D01*
X007228Y002279D01*
X007257Y002305D01*
X007288Y002328D01*
X007322Y002347D01*
X007358Y002363D01*
X007394Y002375D01*
X007432Y002384D01*
X007471Y002389D01*
X007510Y002390D01*
X007548Y002387D01*
X007587Y002380D01*
X007624Y002370D01*
X007660Y002355D01*
X007695Y002338D01*
X007728Y002317D01*
X007758Y002292D01*
X007786Y002265D01*
X007811Y002235D01*
X007833Y002203D01*
X007851Y002169D01*
X007866Y002133D01*
X007878Y002096D01*
X007886Y002058D01*
X007890Y002019D01*
X007890Y001981D01*
X007886Y001942D01*
X007878Y001904D01*
X007866Y001867D01*
X007851Y001831D01*
X007833Y001797D01*
X007811Y001765D01*
X007786Y001735D01*
X007758Y001708D01*
X007728Y001683D01*
X007695Y001662D01*
X007660Y001645D01*
X007624Y001630D01*
X007587Y001620D01*
X007548Y001613D01*
X007510Y001610D01*
X007471Y001611D01*
X007432Y001616D01*
X007394Y001625D01*
X007358Y001637D01*
X007322Y001653D01*
X007288Y001672D01*
X007257Y001695D01*
X007228Y001721D01*
X007201Y001749D01*
X007178Y001780D01*
X007157Y001813D01*
X007141Y001849D01*
X007127Y001885D01*
X007118Y001923D01*
X007112Y001961D01*
X007110Y002000D01*
X007100Y001600D02*
X007900Y002400D01*
X007110Y003000D02*
X007112Y003039D01*
X007118Y003077D01*
X007127Y003115D01*
X007141Y003151D01*
X007157Y003187D01*
X007178Y003220D01*
X007201Y003251D01*
X007228Y003279D01*
X007257Y003305D01*
X007288Y003328D01*
X007322Y003347D01*
X007358Y003363D01*
X007394Y003375D01*
X007432Y003384D01*
X007471Y003389D01*
X007510Y003390D01*
X007548Y003387D01*
X007587Y003380D01*
X007624Y003370D01*
X007660Y003355D01*
X007695Y003338D01*
X007728Y003317D01*
X007758Y003292D01*
X007786Y003265D01*
X007811Y003235D01*
X007833Y003203D01*
X007851Y003169D01*
X007866Y003133D01*
X007878Y003096D01*
X007886Y003058D01*
X007890Y003019D01*
X007890Y002981D01*
X007886Y002942D01*
X007878Y002904D01*
X007866Y002867D01*
X007851Y002831D01*
X007833Y002797D01*
X007811Y002765D01*
X007786Y002735D01*
X007758Y002708D01*
X007728Y002683D01*
X007695Y002662D01*
X007660Y002645D01*
X007624Y002630D01*
X007587Y002620D01*
X007548Y002613D01*
X007510Y002610D01*
X007471Y002611D01*
X007432Y002616D01*
X007394Y002625D01*
X007358Y002637D01*
X007322Y002653D01*
X007288Y002672D01*
X007257Y002695D01*
X007228Y002721D01*
X007201Y002749D01*
X007178Y002780D01*
X007157Y002813D01*
X007141Y002849D01*
X007127Y002885D01*
X007118Y002923D01*
X007112Y002961D01*
X007110Y003000D01*
X007100Y002600D02*
X007900Y003400D01*
X001230Y019890D02*
X001232Y019929D01*
X001238Y019967D01*
X001247Y020005D01*
X001261Y020041D01*
X001277Y020077D01*
X001298Y020110D01*
X001321Y020141D01*
X001348Y020169D01*
X001377Y020195D01*
X001408Y020218D01*
X001442Y020237D01*
X001478Y020253D01*
X001514Y020265D01*
X001552Y020274D01*
X001591Y020279D01*
X001630Y020280D01*
X001668Y020277D01*
X001707Y020270D01*
X001744Y020260D01*
X001780Y020245D01*
X001815Y020228D01*
X001848Y020207D01*
X001878Y020182D01*
X001906Y020155D01*
X001931Y020125D01*
X001953Y020093D01*
X001971Y020059D01*
X001986Y020023D01*
X001998Y019986D01*
X002006Y019948D01*
X002010Y019909D01*
X002010Y019871D01*
X002006Y019832D01*
X001998Y019794D01*
X001986Y019757D01*
X001971Y019721D01*
X001953Y019687D01*
X001931Y019655D01*
X001906Y019625D01*
X001878Y019598D01*
X001848Y019573D01*
X001815Y019552D01*
X001780Y019535D01*
X001744Y019520D01*
X001707Y019510D01*
X001668Y019503D01*
X001630Y019500D01*
X001591Y019501D01*
X001552Y019506D01*
X001514Y019515D01*
X001478Y019527D01*
X001442Y019543D01*
X001408Y019562D01*
X001377Y019585D01*
X001348Y019611D01*
X001321Y019639D01*
X001298Y019670D01*
X001277Y019703D01*
X001261Y019739D01*
X001247Y019775D01*
X001238Y019813D01*
X001232Y019851D01*
X001230Y019890D01*
X001220Y019490D02*
X002020Y020290D01*
M02*
