%
M48
M72
T01C0.0320
T02C0.0350
T03C0.0360
T04C0.0433
T05C0.0512
T06C0.1181
%
T01
X1280Y4690
X1280Y5490
X1500Y7000
X1500Y8500
X4500Y8500
X4500Y7000
X4950Y5560
X4950Y4760
X3140Y4690
X3140Y5490
X7500Y4500
X7500Y3000
X7500Y2000
X9000Y4500
X9000Y7500
X9500Y8500
X7500Y8500
X7500Y7500
X11500Y10500
X11500Y11500
X9500Y11500
X9500Y12500
X7500Y12500
X7500Y11500
X3000Y12500
X2000Y12500
X7500Y15500
X7500Y16500
X9500Y16500
X9500Y15500
X12000Y18500
X12000Y19500
X13500Y19500
X13500Y18500
X9500Y19500
X7500Y19500
X17500Y16000
X18500Y16000
X18500Y14750
X17500Y14750
X17050Y10900
X18050Y10900
X18850Y10875
X19850Y10875
X20000Y6300
X19000Y6300
X18150Y6250
X17150Y6250
X14000Y9000
X14000Y10000
T02
X13500Y13000
X12500Y13000
X11500Y13000
X14500Y13000
X14500Y16000
X13500Y16000
X12500Y16000
X11500Y16000
X11500Y6500
X10500Y6500
X12500Y6500
X13500Y6500
X13500Y3500
X12500Y3500
X11500Y3500
X10500Y3500
T03
X4625Y10435
X3625Y10435
X2625Y10435
X1625Y10435
T04
X13500Y11750
X15750Y10750
X14750Y6000
X15750Y5000
T05
X22497Y4734
X22497Y2766
X22447Y7666
X22447Y9634
X22397Y12266
X22397Y14234
X22297Y17516
X22297Y19484
T06
X1610Y1600
X1620Y19890
X25710Y19860
X25740Y1610
M30
