G75*
G70*
%OFA0B0*%
%FSLAX24Y24*%
%IPPOS*%
%LPD*%
%AMOC8*
5,1,8,0,0,1.08239X$1,22.5*
%
%ADD10C,0.0000*%
%ADD11OC8,0.0520*%
%ADD12OC8,0.1000*%
%ADD13C,0.0520*%
%ADD14R,0.0550X0.0550*%
%ADD15C,0.0550*%
%ADD16C,0.0160*%
%ADD17R,0.0475X0.0475*%
D10*
X000386Y000180D02*
X000386Y011176D01*
X023756Y011176D01*
X023756Y000180D01*
X000386Y000180D01*
D11*
X008386Y001180D03*
X011386Y001180D03*
X009886Y003930D03*
X008886Y003930D03*
X008386Y005680D03*
X006886Y007180D03*
X005886Y007180D03*
X011386Y005680D03*
X017886Y008180D03*
X017886Y009180D03*
X019886Y009080D03*
D12*
X015370Y008877D03*
X013402Y008877D03*
X021583Y005414D03*
X021583Y003446D03*
X002189Y003196D03*
X002189Y005164D03*
D13*
X019886Y008280D03*
D14*
X012886Y005180D03*
D15*
X012886Y004180D03*
X012886Y003180D03*
X012886Y002180D03*
X015886Y002180D03*
X015886Y003180D03*
X015886Y004180D03*
X015886Y005180D03*
D16*
X016321Y005252D02*
X020903Y005252D01*
X020903Y005366D02*
X020903Y005133D01*
X021301Y004734D01*
X021535Y004734D01*
X021535Y005366D01*
X021631Y005366D01*
X021631Y004734D01*
X021865Y004734D01*
X022263Y005133D01*
X022263Y005366D01*
X021631Y005366D01*
X021631Y005462D01*
X022263Y005462D01*
X022263Y005696D01*
X021865Y006094D01*
X021631Y006094D01*
X021631Y005462D01*
X021535Y005462D01*
X021535Y005366D01*
X020903Y005366D01*
X020903Y005462D02*
X021535Y005462D01*
X021535Y006094D01*
X021301Y006094D01*
X020903Y005696D01*
X020903Y005462D01*
X020903Y005569D02*
X016084Y005569D01*
X016133Y005549D02*
X015973Y005615D01*
X015800Y005615D01*
X015640Y005549D01*
X015517Y005426D01*
X015451Y005267D01*
X015451Y005093D01*
X015517Y004934D01*
X015640Y004811D01*
X015800Y004745D01*
X015973Y004745D01*
X016133Y004811D01*
X016255Y004934D01*
X016321Y005093D01*
X016321Y005267D01*
X016255Y005426D01*
X016133Y005549D01*
X016262Y005411D02*
X021535Y005411D01*
X021631Y005411D02*
X023276Y005411D01*
X023276Y005252D02*
X022263Y005252D01*
X022224Y005094D02*
X023276Y005094D01*
X023276Y004935D02*
X022065Y004935D01*
X021907Y004777D02*
X023276Y004777D01*
X023276Y004618D02*
X002576Y004618D01*
X002463Y004504D02*
X002849Y004891D01*
X002849Y005438D01*
X002463Y005824D01*
X001916Y005824D01*
X001529Y005438D01*
X001529Y004891D01*
X001916Y004504D01*
X002463Y004504D01*
X002735Y004777D02*
X012513Y004777D01*
X012545Y004745D02*
X012451Y004839D01*
X012451Y005521D01*
X012545Y005615D01*
X013227Y005615D01*
X013321Y005521D01*
X013321Y004839D01*
X013227Y004745D01*
X012545Y004745D01*
X012640Y004549D02*
X012517Y004426D01*
X012451Y004267D01*
X012451Y004093D01*
X012517Y003934D01*
X012640Y003811D01*
X012800Y003745D01*
X012973Y003745D01*
X013133Y003811D01*
X013255Y003934D01*
X013321Y004093D01*
X013321Y004267D01*
X013255Y004426D01*
X013133Y004549D01*
X012973Y004615D01*
X012800Y004615D01*
X012640Y004549D01*
X012551Y004460D02*
X000866Y004460D01*
X000866Y004618D02*
X001802Y004618D01*
X001644Y004777D02*
X000866Y004777D01*
X000866Y004935D02*
X001529Y004935D01*
X001529Y005094D02*
X000866Y005094D01*
X000866Y005252D02*
X001529Y005252D01*
X001529Y005411D02*
X000866Y005411D01*
X000866Y005569D02*
X001661Y005569D01*
X001819Y005728D02*
X000866Y005728D01*
X000866Y005886D02*
X007998Y005886D01*
X007966Y005854D02*
X007966Y005506D01*
X008212Y005260D01*
X008560Y005260D01*
X008806Y005506D01*
X008806Y005854D01*
X008560Y006100D01*
X008212Y006100D01*
X007966Y005854D01*
X007966Y005728D02*
X002559Y005728D01*
X002718Y005569D02*
X007966Y005569D01*
X008062Y005411D02*
X002849Y005411D01*
X002849Y005252D02*
X012451Y005252D01*
X012451Y005411D02*
X011711Y005411D01*
X011806Y005506D02*
X011560Y005260D01*
X011212Y005260D01*
X010966Y005506D01*
X010966Y005854D01*
X011212Y006100D01*
X011560Y006100D01*
X011806Y005854D01*
X011806Y005506D01*
X011806Y005569D02*
X012499Y005569D01*
X011806Y005728D02*
X020935Y005728D01*
X021093Y005886D02*
X011774Y005886D01*
X011616Y006045D02*
X021252Y006045D01*
X021535Y006045D02*
X021631Y006045D01*
X021631Y005886D02*
X021535Y005886D01*
X021535Y005728D02*
X021631Y005728D01*
X021631Y005569D02*
X021535Y005569D01*
X022073Y005886D02*
X023276Y005886D01*
X023276Y005728D02*
X022231Y005728D01*
X022263Y005569D02*
X023276Y005569D01*
X023276Y006045D02*
X021914Y006045D01*
X023276Y006203D02*
X000866Y006203D01*
X000866Y006045D02*
X008157Y006045D01*
X008616Y006045D02*
X011157Y006045D01*
X010998Y005886D02*
X008774Y005886D01*
X008806Y005728D02*
X010966Y005728D01*
X010966Y005569D02*
X008806Y005569D01*
X008711Y005411D02*
X011062Y005411D01*
X012451Y005094D02*
X002849Y005094D01*
X002849Y004935D02*
X012451Y004935D01*
X013259Y004777D02*
X015724Y004777D01*
X015517Y004935D02*
X013321Y004935D01*
X013321Y005094D02*
X015451Y005094D01*
X015451Y005252D02*
X013321Y005252D01*
X013321Y005411D02*
X015511Y005411D01*
X015689Y005569D02*
X013273Y005569D01*
X015517Y004426D02*
X015640Y004549D01*
X015800Y004615D01*
X015973Y004615D01*
X016133Y004549D01*
X016255Y004426D01*
X016321Y004267D01*
X016321Y004093D01*
X016255Y003934D01*
X016133Y003811D01*
X015973Y003745D01*
X015800Y003745D01*
X015640Y003811D01*
X015517Y003934D01*
X015451Y004093D01*
X015451Y004267D01*
X015517Y004426D01*
X015551Y004460D02*
X013222Y004460D01*
X013307Y004301D02*
X015465Y004301D01*
X015451Y004143D02*
X013321Y004143D01*
X013276Y003984D02*
X015497Y003984D01*
X015626Y003826D02*
X013147Y003826D01*
X012973Y003615D02*
X012800Y003615D01*
X012640Y003549D01*
X012517Y003426D01*
X012451Y003267D01*
X012451Y003093D01*
X012517Y002934D01*
X012640Y002811D01*
X012800Y002745D01*
X012973Y002745D01*
X013133Y002811D01*
X013255Y002934D01*
X013321Y003093D01*
X013321Y003267D01*
X013255Y003426D01*
X013133Y003549D01*
X012973Y003615D01*
X013173Y003509D02*
X015600Y003509D01*
X015640Y003549D02*
X015517Y003426D01*
X015451Y003267D01*
X015451Y003093D01*
X015517Y002934D01*
X015640Y002811D01*
X015800Y002745D01*
X015973Y002745D01*
X016133Y002811D01*
X016255Y002934D01*
X016321Y003093D01*
X016321Y003267D01*
X016255Y003426D01*
X016133Y003549D01*
X015973Y003615D01*
X015800Y003615D01*
X015640Y003549D01*
X015486Y003350D02*
X013287Y003350D01*
X013321Y003192D02*
X015451Y003192D01*
X015476Y003033D02*
X013296Y003033D01*
X013196Y002875D02*
X015577Y002875D01*
X015640Y002549D02*
X015800Y002615D01*
X015973Y002615D01*
X016133Y002549D01*
X016255Y002426D01*
X016321Y002267D01*
X016321Y002093D01*
X016255Y001934D01*
X016133Y001811D01*
X015973Y001745D01*
X015800Y001745D01*
X015640Y001811D01*
X015517Y001934D01*
X015451Y002093D01*
X015451Y002267D01*
X015517Y002426D01*
X015640Y002549D01*
X015661Y002558D02*
X013141Y002558D01*
X013125Y002569D02*
X013061Y002602D01*
X012993Y002624D01*
X012922Y002635D01*
X012894Y002635D01*
X012894Y002188D01*
X012879Y002188D01*
X012879Y002635D01*
X012850Y002635D01*
X012780Y002624D01*
X012712Y002602D01*
X012648Y002569D01*
X012590Y002527D01*
X012539Y002476D01*
X012497Y002418D01*
X012465Y002355D01*
X012442Y002287D01*
X012431Y002216D01*
X012431Y002188D01*
X012879Y002188D01*
X012879Y002172D01*
X012894Y002172D01*
X012894Y001725D01*
X012922Y001725D01*
X012993Y001736D01*
X013061Y001758D01*
X013125Y001791D01*
X013183Y001833D01*
X013233Y001884D01*
X013275Y001942D01*
X013308Y002005D01*
X013330Y002073D01*
X013341Y002144D01*
X013341Y002172D01*
X012894Y002172D01*
X012894Y002188D01*
X013341Y002188D01*
X013341Y002216D01*
X013330Y002287D01*
X013308Y002355D01*
X013275Y002418D01*
X013233Y002476D01*
X013183Y002527D01*
X013125Y002569D01*
X012894Y002558D02*
X012879Y002558D01*
X012879Y002399D02*
X012894Y002399D01*
X012632Y002558D02*
X002484Y002558D01*
X002463Y002536D02*
X002849Y002922D01*
X002849Y003469D01*
X002463Y003856D01*
X001916Y003856D01*
X001529Y003469D01*
X001529Y002922D01*
X001916Y002536D01*
X002463Y002536D01*
X002643Y002716D02*
X023276Y002716D01*
X023276Y002558D02*
X016112Y002558D01*
X016266Y002399D02*
X023276Y002399D01*
X023276Y002241D02*
X016321Y002241D01*
X016316Y002082D02*
X023276Y002082D01*
X023276Y001924D02*
X016245Y001924D01*
X016021Y001765D02*
X023276Y001765D01*
X023276Y001607D02*
X008582Y001607D01*
X008568Y001620D02*
X008386Y001620D01*
X008204Y001620D01*
X007946Y001362D01*
X007946Y001180D01*
X008386Y001180D01*
X007946Y001180D01*
X007946Y000998D01*
X008204Y000740D01*
X008386Y000740D01*
X008386Y001180D01*
X008386Y001180D01*
X008386Y001180D01*
X008386Y001620D01*
X008386Y001180D01*
X008386Y001180D01*
X008386Y000740D01*
X008568Y000740D01*
X008826Y000998D01*
X008826Y001180D01*
X008826Y001362D01*
X008568Y001620D01*
X008386Y001607D02*
X008386Y001607D01*
X008190Y001607D02*
X000866Y001607D01*
X000866Y001765D02*
X012698Y001765D01*
X012712Y001758D02*
X012780Y001736D01*
X012850Y001725D01*
X012879Y001725D01*
X012879Y002172D01*
X012431Y002172D01*
X012431Y002144D01*
X012442Y002073D01*
X012465Y002005D01*
X012497Y001942D01*
X012539Y001884D01*
X012590Y001833D01*
X012648Y001791D01*
X012712Y001758D01*
X012879Y001765D02*
X012894Y001765D01*
X012879Y001924D02*
X012894Y001924D01*
X013074Y001765D02*
X015751Y001765D01*
X015528Y001924D02*
X013262Y001924D01*
X013331Y002082D02*
X015456Y002082D01*
X015451Y002241D02*
X013337Y002241D01*
X013285Y002399D02*
X015506Y002399D01*
X016196Y002875D02*
X021221Y002875D01*
X021310Y002786D02*
X021856Y002786D01*
X022243Y003172D01*
X022243Y003719D01*
X021856Y004106D01*
X021310Y004106D01*
X021124Y003920D01*
X018784Y003920D01*
X018784Y003984D01*
X018690Y004077D01*
X018082Y004077D01*
X017989Y003984D01*
X016276Y003984D01*
X016321Y004143D02*
X023276Y004143D01*
X023276Y004301D02*
X016307Y004301D01*
X016222Y004460D02*
X023276Y004460D01*
X023276Y003984D02*
X021978Y003984D01*
X022137Y003826D02*
X023276Y003826D01*
X023276Y003667D02*
X022243Y003667D01*
X022243Y003509D02*
X023276Y003509D01*
X023276Y003350D02*
X022243Y003350D01*
X022243Y003192D02*
X023276Y003192D01*
X023276Y003033D02*
X022104Y003033D01*
X021945Y002875D02*
X023276Y002875D01*
X021583Y003446D02*
X021583Y003680D01*
X018386Y003680D01*
X017989Y003667D02*
X010245Y003667D01*
X010326Y003748D02*
X010326Y003930D01*
X010326Y004112D01*
X010068Y004370D01*
X009886Y004370D01*
X009704Y004370D01*
X009446Y004112D01*
X009446Y003930D01*
X009886Y003930D01*
X009446Y003930D01*
X009446Y003748D01*
X009704Y003490D01*
X009886Y003490D01*
X009886Y003930D01*
X009886Y003930D01*
X009886Y003930D01*
X009886Y004370D01*
X009886Y003930D01*
X009886Y003930D01*
X009886Y003490D01*
X010068Y003490D01*
X010326Y003748D01*
X010326Y003826D02*
X012626Y003826D01*
X012497Y003984D02*
X010326Y003984D01*
X010326Y003930D02*
X009886Y003930D01*
X009886Y003930D01*
X010326Y003930D01*
X009886Y003984D02*
X009886Y003984D01*
X009886Y004143D02*
X009886Y004143D01*
X009886Y004301D02*
X009886Y004301D01*
X009635Y004301D02*
X009109Y004301D01*
X009060Y004350D02*
X008712Y004350D01*
X008466Y004104D01*
X008466Y003756D01*
X008712Y003510D01*
X009060Y003510D01*
X009306Y003756D01*
X009306Y004104D01*
X009060Y004350D01*
X009268Y004143D02*
X009476Y004143D01*
X009446Y003984D02*
X009306Y003984D01*
X009306Y003826D02*
X009446Y003826D01*
X009527Y003667D02*
X009217Y003667D01*
X009685Y003509D02*
X002810Y003509D01*
X002849Y003350D02*
X012486Y003350D01*
X012451Y003192D02*
X002849Y003192D01*
X002849Y003033D02*
X012476Y003033D01*
X012577Y002875D02*
X002801Y002875D01*
X001894Y002558D02*
X000866Y002558D01*
X000866Y002716D02*
X001736Y002716D01*
X001577Y002875D02*
X000866Y002875D01*
X000866Y003033D02*
X001529Y003033D01*
X001529Y003192D02*
X000866Y003192D01*
X000866Y003350D02*
X001529Y003350D01*
X001569Y003509D02*
X000866Y003509D01*
X000866Y003667D02*
X001727Y003667D01*
X001886Y003826D02*
X000866Y003826D01*
X000866Y003984D02*
X008466Y003984D01*
X008505Y004143D02*
X000866Y004143D01*
X000866Y004301D02*
X008663Y004301D01*
X008466Y003826D02*
X002493Y003826D01*
X002651Y003667D02*
X008555Y003667D01*
X009886Y003667D02*
X009886Y003667D01*
X009886Y003826D02*
X009886Y003826D01*
X009886Y003509D02*
X009886Y003509D01*
X010087Y003509D02*
X012600Y003509D01*
X012451Y004143D02*
X010296Y004143D01*
X010137Y004301D02*
X012465Y004301D01*
X016049Y004777D02*
X021259Y004777D01*
X021101Y004935D02*
X016256Y004935D01*
X016321Y005094D02*
X020942Y005094D01*
X021535Y005094D02*
X021631Y005094D01*
X021631Y004935D02*
X021535Y004935D01*
X021535Y004777D02*
X021631Y004777D01*
X021631Y005252D02*
X021535Y005252D01*
X023276Y006362D02*
X000866Y006362D01*
X000866Y006520D02*
X023276Y006520D01*
X023276Y006679D02*
X000866Y006679D01*
X000866Y006837D02*
X005607Y006837D01*
X005704Y006740D02*
X005446Y006998D01*
X005446Y007180D01*
X005886Y007180D01*
X005446Y007180D01*
X005446Y007362D01*
X005704Y007620D01*
X005886Y007620D01*
X005886Y007180D01*
X005886Y007180D01*
X005886Y007180D01*
X005886Y006740D01*
X005704Y006740D01*
X005886Y006740D02*
X006068Y006740D01*
X006326Y006998D01*
X006326Y007180D01*
X006326Y007362D01*
X006068Y007620D01*
X005886Y007620D01*
X005886Y007180D01*
X005886Y007180D01*
X005886Y006740D01*
X005886Y006837D02*
X005886Y006837D01*
X005886Y006996D02*
X005886Y006996D01*
X005886Y007154D02*
X005886Y007154D01*
X005886Y007180D02*
X005886Y007180D01*
X006326Y007180D01*
X005886Y007180D01*
X005886Y007313D02*
X005886Y007313D01*
X005886Y007471D02*
X005886Y007471D01*
X005555Y007471D02*
X000866Y007471D01*
X000866Y007313D02*
X005446Y007313D01*
X005446Y007154D02*
X000866Y007154D01*
X000866Y006996D02*
X005448Y006996D01*
X006165Y006837D02*
X006635Y006837D01*
X006712Y006760D02*
X006466Y007006D01*
X006466Y007354D01*
X006646Y007534D01*
X006646Y008925D01*
X006683Y009013D01*
X006750Y009080D01*
X006838Y009117D01*
X012742Y009117D01*
X012742Y009150D01*
X013129Y009537D01*
X013675Y009537D01*
X014062Y009150D01*
X014062Y008603D01*
X013675Y008217D01*
X013129Y008217D01*
X012742Y008603D01*
X012742Y008637D01*
X007126Y008637D01*
X007126Y007534D01*
X007306Y007354D01*
X007306Y007006D01*
X007060Y006760D01*
X006712Y006760D01*
X006477Y006996D02*
X006324Y006996D01*
X006326Y007154D02*
X006466Y007154D01*
X006466Y007313D02*
X006326Y007313D01*
X006217Y007471D02*
X006583Y007471D01*
X006646Y007630D02*
X000866Y007630D01*
X000866Y007788D02*
X006646Y007788D01*
X006646Y007947D02*
X000866Y007947D01*
X000866Y008105D02*
X006646Y008105D01*
X006646Y008264D02*
X000866Y008264D01*
X000866Y008422D02*
X006646Y008422D01*
X006646Y008581D02*
X000866Y008581D01*
X000866Y008739D02*
X006646Y008739D01*
X006646Y008898D02*
X000866Y008898D01*
X000866Y009056D02*
X006726Y009056D01*
X006886Y008877D02*
X006886Y007180D01*
X007189Y007471D02*
X015764Y007471D01*
X015750Y007477D02*
X015838Y007440D01*
X017934Y007440D01*
X018022Y007477D01*
X018090Y007544D01*
X018126Y007632D01*
X018126Y007826D01*
X018306Y008006D01*
X018306Y008354D01*
X018060Y008600D01*
X017712Y008600D01*
X017466Y008354D01*
X017466Y008006D01*
X017552Y007920D01*
X016126Y007920D01*
X016126Y008925D01*
X016090Y009013D01*
X016030Y009072D01*
X016030Y009150D01*
X015644Y009537D01*
X015097Y009537D01*
X014710Y009150D01*
X014710Y008603D01*
X015097Y008217D01*
X015644Y008217D01*
X015646Y008219D01*
X015646Y007632D01*
X015683Y007544D01*
X015750Y007477D01*
X015647Y007630D02*
X007126Y007630D01*
X007126Y007788D02*
X015646Y007788D01*
X015646Y007947D02*
X007126Y007947D01*
X007126Y008105D02*
X015646Y008105D01*
X016126Y008105D02*
X017466Y008105D01*
X017466Y008264D02*
X016126Y008264D01*
X016126Y008422D02*
X017534Y008422D01*
X017693Y008581D02*
X016126Y008581D01*
X016126Y008739D02*
X019605Y008739D01*
X019648Y008636D02*
X019530Y008518D01*
X019466Y008364D01*
X019466Y008196D01*
X019530Y008042D01*
X019648Y007924D01*
X019803Y007860D01*
X019970Y007860D01*
X020124Y007924D01*
X020242Y008042D01*
X020306Y008196D01*
X020306Y008364D01*
X020242Y008518D01*
X020124Y008636D01*
X020082Y008654D01*
X020326Y008898D01*
X020326Y009080D01*
X020326Y009262D01*
X020068Y009520D01*
X019886Y009520D01*
X019704Y009520D01*
X019446Y009262D01*
X019446Y009080D01*
X019446Y008898D01*
X019690Y008654D01*
X019648Y008636D01*
X019593Y008581D02*
X018080Y008581D01*
X018068Y008740D02*
X017886Y008740D01*
X017886Y009180D01*
X017446Y009180D01*
X017446Y008998D01*
X017704Y008740D01*
X017886Y008740D01*
X017886Y009180D01*
X017886Y009180D01*
X017446Y009180D01*
X017446Y009362D01*
X017704Y009620D01*
X017886Y009620D01*
X017886Y009180D01*
X017886Y009180D01*
X017886Y009180D01*
X017886Y009620D01*
X018068Y009620D01*
X018326Y009362D01*
X018326Y009180D01*
X017886Y009180D01*
X017886Y009180D01*
X018326Y009180D01*
X018326Y008998D01*
X018068Y008740D01*
X018226Y008898D02*
X019446Y008898D01*
X019446Y009056D02*
X018326Y009056D01*
X018326Y009215D02*
X019446Y009215D01*
X019557Y009373D02*
X018315Y009373D01*
X018157Y009532D02*
X023276Y009532D01*
X023276Y009373D02*
X020215Y009373D01*
X020326Y009215D02*
X023276Y009215D01*
X023276Y009056D02*
X020326Y009056D01*
X020326Y009080D02*
X019886Y009080D01*
X019446Y009080D01*
X019886Y009080D01*
X019886Y009080D01*
X019886Y009520D01*
X019886Y009080D01*
X019886Y009080D01*
X020326Y009080D01*
X020326Y008898D02*
X023276Y008898D01*
X023276Y008739D02*
X020167Y008739D01*
X020180Y008581D02*
X023276Y008581D01*
X023276Y008422D02*
X020282Y008422D01*
X020306Y008264D02*
X023276Y008264D01*
X023276Y008105D02*
X020268Y008105D01*
X020147Y007947D02*
X023276Y007947D01*
X023276Y007788D02*
X018126Y007788D01*
X018125Y007630D02*
X023276Y007630D01*
X023276Y007471D02*
X018009Y007471D01*
X017886Y007680D02*
X017886Y008180D01*
X018306Y008105D02*
X019504Y008105D01*
X019466Y008264D02*
X018306Y008264D01*
X018238Y008422D02*
X019490Y008422D01*
X019626Y007947D02*
X018247Y007947D01*
X017886Y007680D02*
X015886Y007680D01*
X015886Y008877D01*
X015370Y008877D01*
X014710Y008898D02*
X014062Y008898D01*
X014062Y009056D02*
X014710Y009056D01*
X014775Y009215D02*
X013998Y009215D01*
X013839Y009373D02*
X014933Y009373D01*
X015092Y009532D02*
X013681Y009532D01*
X013123Y009532D02*
X000866Y009532D01*
X000866Y009373D02*
X012965Y009373D01*
X012806Y009215D02*
X000866Y009215D01*
X000866Y009690D02*
X023276Y009690D01*
X023276Y009849D02*
X000866Y009849D01*
X000866Y010007D02*
X023276Y010007D01*
X023276Y010166D02*
X000866Y010166D01*
X000866Y010324D02*
X023276Y010324D01*
X023276Y010483D02*
X000866Y010483D01*
X000866Y010641D02*
X023276Y010641D01*
X023276Y010696D02*
X000866Y010696D01*
X000866Y000660D01*
X023276Y000660D01*
X023276Y010696D01*
X019886Y009373D02*
X019886Y009373D01*
X019886Y009215D02*
X019886Y009215D01*
X019886Y009080D02*
X019886Y009080D01*
X017886Y009056D02*
X017886Y009056D01*
X017886Y008898D02*
X017886Y008898D01*
X017546Y008898D02*
X016126Y008898D01*
X016046Y009056D02*
X017446Y009056D01*
X017446Y009215D02*
X015966Y009215D01*
X015808Y009373D02*
X017457Y009373D01*
X017615Y009532D02*
X015649Y009532D01*
X014710Y008739D02*
X014062Y008739D01*
X014039Y008581D02*
X014733Y008581D01*
X014892Y008422D02*
X013881Y008422D01*
X013722Y008264D02*
X015050Y008264D01*
X016126Y007947D02*
X017526Y007947D01*
X017886Y009215D02*
X017886Y009215D01*
X017886Y009373D02*
X017886Y009373D01*
X017886Y009532D02*
X017886Y009532D01*
X013402Y008877D02*
X006886Y008877D01*
X007126Y008581D02*
X012765Y008581D01*
X012923Y008422D02*
X007126Y008422D01*
X007126Y008264D02*
X013082Y008264D01*
X007306Y007313D02*
X023276Y007313D01*
X023276Y007154D02*
X007306Y007154D01*
X007296Y006996D02*
X023276Y006996D01*
X023276Y006837D02*
X007137Y006837D01*
X016147Y003826D02*
X017989Y003826D01*
X017989Y003984D02*
X017989Y003376D01*
X018082Y003283D01*
X018690Y003283D01*
X018784Y003376D01*
X018784Y003440D01*
X020923Y003440D01*
X020923Y003172D01*
X021310Y002786D01*
X021062Y003033D02*
X016296Y003033D01*
X016321Y003192D02*
X020923Y003192D01*
X020923Y003350D02*
X018757Y003350D01*
X018015Y003350D02*
X016287Y003350D01*
X016173Y003509D02*
X017989Y003509D01*
X018783Y003984D02*
X021188Y003984D01*
X023276Y001448D02*
X011712Y001448D01*
X011806Y001354D02*
X011560Y001600D01*
X011212Y001600D01*
X010966Y001354D01*
X010966Y001006D01*
X011212Y000760D01*
X011560Y000760D01*
X011806Y001006D01*
X011806Y001354D01*
X011806Y001290D02*
X023276Y001290D01*
X023276Y001131D02*
X011806Y001131D01*
X011773Y000973D02*
X023276Y000973D01*
X023276Y000814D02*
X011614Y000814D01*
X011158Y000814D02*
X008642Y000814D01*
X008801Y000973D02*
X011000Y000973D01*
X010966Y001131D02*
X008826Y001131D01*
X008826Y001180D02*
X008386Y001180D01*
X008826Y001180D01*
X008826Y001290D02*
X010966Y001290D01*
X011060Y001448D02*
X008740Y001448D01*
X008386Y001448D02*
X008386Y001448D01*
X008386Y001290D02*
X008386Y001290D01*
X008386Y001180D02*
X008386Y001180D01*
X008386Y001131D02*
X008386Y001131D01*
X008386Y000973D02*
X008386Y000973D01*
X008386Y000814D02*
X008386Y000814D01*
X008130Y000814D02*
X000866Y000814D01*
X000866Y000973D02*
X007971Y000973D01*
X007946Y001131D02*
X000866Y001131D01*
X000866Y001290D02*
X007946Y001290D01*
X008032Y001448D02*
X000866Y001448D01*
X000866Y001924D02*
X012510Y001924D01*
X012441Y002082D02*
X000866Y002082D01*
X000866Y002241D02*
X012435Y002241D01*
X012487Y002399D02*
X000866Y002399D01*
X012879Y002241D02*
X012894Y002241D01*
X012879Y002082D02*
X012894Y002082D01*
D17*
X018386Y003680D03*
M02*
