G75*
G70*
%OFA0B0*%
%FSLAX24Y24*%
%IPPOS*%
%LPD*%
%AMOC8*
5,1,8,0,0,1.08239X$1,22.5*
%
%ADD10OC8,0.0520*%
%ADD11C,0.0520*%
%ADD12OC8,0.1000*%
%ADD13C,0.0520*%
%ADD14R,0.0550X0.0550*%
%ADD15C,0.0550*%
%ADD16R,0.0140X0.0580*%
%ADD17C,0.0560*%
%ADD18C,0.0400*%
%ADD19C,0.0240*%
%ADD20C,0.0120*%
%ADD21C,0.0160*%
%ADD22R,0.0591X0.0591*%
D10*
X002000Y008000D03*
X002000Y009000D03*
X010000Y008000D03*
X011500Y007500D03*
X012500Y007500D03*
X015000Y007000D03*
X016000Y007000D03*
X017500Y006000D03*
X017500Y005000D03*
X017500Y003500D03*
X019000Y001500D03*
X020000Y001500D03*
X021500Y003500D03*
X021500Y005000D03*
X021500Y006000D03*
X020000Y008000D03*
X019000Y008000D03*
X017500Y010000D03*
X017500Y011500D03*
X017500Y012500D03*
X016000Y014000D03*
X015000Y014000D03*
X012500Y014000D03*
X011500Y014000D03*
X010000Y015000D03*
X010000Y012000D03*
X010000Y005500D03*
X010000Y001500D03*
X011500Y001000D03*
X012500Y001000D03*
X015000Y001000D03*
X016000Y001000D03*
X023500Y001500D03*
X024500Y001500D03*
X027750Y004000D03*
X028750Y005750D03*
X028750Y007250D03*
X026000Y007750D03*
X025000Y007750D03*
X027750Y010000D03*
X028750Y011750D03*
X028750Y013250D03*
X026000Y014500D03*
X025000Y014500D03*
X027750Y016000D03*
X028750Y017500D03*
X028750Y019000D03*
X026000Y021000D03*
X025000Y021000D03*
X027750Y022750D03*
X028750Y024500D03*
X028750Y026000D03*
X031750Y022750D03*
X032750Y024500D03*
X032750Y026000D03*
X030500Y029900D03*
X028450Y029900D03*
X026370Y029900D03*
X024250Y029900D03*
X021500Y026000D03*
X021500Y025000D03*
X021500Y023500D03*
X019500Y021500D03*
X018500Y021500D03*
X017500Y019500D03*
X017500Y018500D03*
X017500Y017000D03*
X019000Y015000D03*
X020000Y015000D03*
X021500Y017000D03*
X021500Y018500D03*
X021500Y019500D03*
X017500Y023500D03*
X017500Y025000D03*
X017500Y026000D03*
X015500Y021000D03*
X014500Y021000D03*
X012500Y021000D03*
X011500Y021000D03*
X009838Y020031D03*
X010000Y019000D03*
X009838Y024031D03*
X009500Y026750D03*
X008620Y029316D03*
X006438Y029323D03*
X004227Y029329D03*
X005500Y026750D03*
X003546Y026352D03*
X001459Y026407D03*
X002190Y023760D03*
X003907Y022577D03*
X003907Y021577D03*
X002190Y019760D03*
X021500Y012500D03*
X021500Y011500D03*
X021500Y010000D03*
X031750Y010000D03*
X032750Y011750D03*
X032750Y013250D03*
X031750Y016000D03*
X032750Y017500D03*
X032750Y019000D03*
X032750Y007250D03*
X032750Y005750D03*
X031750Y004000D03*
D11*
X003546Y027152D03*
X001459Y027207D03*
X004227Y030129D03*
X006438Y030123D03*
X008620Y030116D03*
X024250Y029100D03*
X026370Y029100D03*
X028450Y029100D03*
X030500Y029100D03*
D12*
X035303Y025484D03*
X035303Y023516D03*
X035303Y018484D03*
X035303Y016516D03*
X035303Y012984D03*
X035303Y011016D03*
X035303Y007234D03*
X035303Y005266D03*
D13*
X015260Y005500D02*
X014740Y005500D01*
X014740Y004500D02*
X015260Y004500D01*
X015260Y003500D02*
X014740Y003500D01*
X014740Y002500D02*
X015260Y002500D01*
X012260Y002500D02*
X011740Y002500D01*
X011740Y003500D02*
X012260Y003500D01*
X012260Y004500D02*
X011740Y004500D01*
X011740Y005500D02*
X012260Y005500D01*
X012260Y009250D02*
X011740Y009250D01*
X011740Y010250D02*
X012260Y010250D01*
X012260Y011250D02*
X011740Y011250D01*
X011740Y012250D02*
X012260Y012250D01*
X014740Y012250D02*
X015260Y012250D01*
X015260Y011250D02*
X014740Y011250D01*
X014740Y010250D02*
X015260Y010250D01*
X015260Y009250D02*
X014740Y009250D01*
X014740Y016000D02*
X015260Y016000D01*
X015260Y017000D02*
X014740Y017000D01*
X014740Y018000D02*
X015260Y018000D01*
X015260Y019000D02*
X014740Y019000D01*
X012260Y019000D02*
X011740Y019000D01*
X011740Y018000D02*
X012260Y018000D01*
X012260Y017000D02*
X011740Y017000D01*
X011740Y016000D02*
X012260Y016000D01*
X012260Y022500D02*
X011740Y022500D01*
X011740Y023500D02*
X012260Y023500D01*
X012260Y024500D02*
X011740Y024500D01*
X011740Y025500D02*
X012260Y025500D01*
X014740Y025500D02*
X015260Y025500D01*
X015260Y024500D02*
X014740Y024500D01*
X014740Y023500D02*
X015260Y023500D01*
X015260Y022500D02*
X014740Y022500D01*
D14*
X007977Y020382D03*
X008000Y015500D03*
X008000Y008500D03*
X008000Y002000D03*
X026500Y003000D03*
X026500Y009500D03*
X026500Y016250D03*
X026500Y023000D03*
D15*
X026500Y024000D03*
X026500Y025000D03*
X026500Y026000D03*
X023500Y026000D03*
X023500Y025000D03*
X023500Y024000D03*
X023500Y023000D03*
X023500Y019250D03*
X023500Y018250D03*
X023500Y017250D03*
X023500Y016250D03*
X026500Y017250D03*
X026500Y018250D03*
X026500Y019250D03*
X026500Y012500D03*
X026500Y011500D03*
X026500Y010500D03*
X023500Y010500D03*
X023500Y009500D03*
X023500Y011500D03*
X023500Y012500D03*
X023500Y006000D03*
X023500Y005000D03*
X023500Y004000D03*
X023500Y003000D03*
X026500Y004000D03*
X026500Y005000D03*
X026500Y006000D03*
X008000Y005000D03*
X008000Y004000D03*
X008000Y003000D03*
X005000Y003000D03*
X005000Y002000D03*
X005000Y004000D03*
X005000Y005000D03*
X005000Y008500D03*
X005000Y009500D03*
X005000Y010500D03*
X005000Y011500D03*
X008000Y011500D03*
X008000Y010500D03*
X008000Y009500D03*
X005000Y015500D03*
X005000Y016500D03*
X005000Y017500D03*
X005000Y018500D03*
X004977Y020382D03*
X004977Y021382D03*
X004977Y022382D03*
X004977Y023382D03*
X007977Y023382D03*
X007977Y022382D03*
X007977Y021382D03*
X008000Y018500D03*
X008000Y017500D03*
X008000Y016500D03*
D16*
X002900Y016110D03*
X002640Y016110D03*
X002380Y016110D03*
X002130Y016110D03*
X001870Y016110D03*
X001620Y016110D03*
X001360Y016110D03*
X001100Y016110D03*
X001100Y013890D03*
X001360Y013890D03*
X001620Y013890D03*
X001870Y013890D03*
X002130Y013890D03*
X002380Y013890D03*
X002640Y013890D03*
X002900Y013890D03*
D17*
X012098Y027366D02*
X012658Y027366D01*
X012658Y028366D02*
X012098Y028366D01*
X012098Y029366D02*
X012658Y029366D01*
X012658Y030366D02*
X012098Y030366D01*
X019039Y029724D02*
X019039Y029164D01*
X020039Y029164D02*
X020039Y029724D01*
X021039Y029724D02*
X021039Y029164D01*
X022039Y029164D02*
X022039Y029724D01*
D18*
X024250Y029100D02*
X024500Y029000D01*
X025000Y029000D01*
X025000Y023000D01*
X023500Y023000D01*
X023500Y024000D02*
X023500Y025000D01*
X025000Y023000D02*
X025000Y021000D01*
X025000Y016250D01*
X023500Y016250D01*
X023500Y017250D02*
X023500Y018250D01*
X025000Y016250D02*
X025000Y014500D01*
X025000Y009500D01*
X023500Y009500D01*
X023500Y010500D02*
X023500Y011500D01*
X025000Y009500D02*
X025000Y007750D01*
X025000Y003000D01*
X023500Y003000D01*
X023500Y001500D01*
X023500Y004000D02*
X023500Y005000D01*
X005000Y004000D02*
X005000Y003000D01*
X005000Y009500D02*
X005000Y010500D01*
X005000Y016500D02*
X005000Y017500D01*
X004977Y021382D02*
X004977Y022382D01*
D19*
X014000Y022419D02*
X014267Y022419D01*
X014272Y022388D02*
X014295Y022316D01*
X014329Y022248D01*
X014374Y022187D01*
X014427Y022134D01*
X014488Y022089D01*
X014556Y022055D01*
X014628Y022032D01*
X014702Y022020D01*
X015000Y022020D01*
X015298Y022020D01*
X015372Y022032D01*
X015444Y022055D01*
X015512Y022089D01*
X015573Y022134D01*
X015626Y022187D01*
X015671Y022248D01*
X015705Y022316D01*
X015728Y022388D01*
X015740Y022462D01*
X015740Y022500D01*
X015740Y022538D01*
X015728Y022612D01*
X015705Y022684D01*
X015671Y022752D01*
X015626Y022813D01*
X015573Y022866D01*
X015512Y022911D01*
X015444Y022945D01*
X015372Y022968D01*
X015298Y022980D01*
X015000Y022980D01*
X015000Y022500D01*
X015000Y022500D01*
X015740Y022500D01*
X015000Y022500D01*
X015000Y022500D01*
X015000Y022980D01*
X014702Y022980D01*
X014628Y022968D01*
X014556Y022945D01*
X014488Y022911D01*
X014427Y022866D01*
X014374Y022813D01*
X014329Y022752D01*
X014295Y022684D01*
X014272Y022612D01*
X014260Y022538D01*
X014260Y022500D01*
X015000Y022500D01*
X015000Y022020D01*
X015000Y022500D01*
X015000Y022500D01*
X015000Y022500D01*
X014260Y022500D01*
X014260Y022462D01*
X014272Y022388D01*
X014381Y022181D02*
X014000Y022181D01*
X014000Y021942D02*
X018235Y021942D01*
X018293Y022000D02*
X018000Y021707D01*
X018000Y021293D01*
X018293Y021000D01*
X018707Y021000D01*
X019000Y021293D01*
X019000Y021707D01*
X018707Y022000D01*
X018293Y022000D01*
X018000Y021704D02*
X014000Y021704D01*
X014000Y021465D02*
X014258Y021465D01*
X014293Y021500D02*
X014000Y021207D01*
X014000Y020793D01*
X014293Y020500D01*
X014707Y020500D01*
X015000Y020793D01*
X015000Y021207D01*
X014707Y021500D01*
X014293Y021500D01*
X014019Y021227D02*
X014000Y021227D01*
X014000Y020750D02*
X014043Y020750D01*
X014000Y020511D02*
X014282Y020511D01*
X014000Y020273D02*
X024560Y020273D01*
X024560Y020511D02*
X014718Y020511D01*
X014957Y020750D02*
X015072Y020750D01*
X015020Y020801D02*
X015301Y020520D01*
X015500Y020520D01*
X015699Y020520D01*
X015980Y020801D01*
X015980Y021000D01*
X015980Y021199D01*
X015699Y021480D01*
X015500Y021480D01*
X015500Y021000D01*
X015980Y021000D01*
X015500Y021000D01*
X015500Y021000D01*
X015500Y021000D01*
X015500Y020520D01*
X015500Y021000D01*
X015500Y021000D01*
X015500Y021000D01*
X015020Y021000D01*
X015020Y021199D01*
X015301Y021480D01*
X015500Y021480D01*
X015500Y021000D01*
X015020Y021000D01*
X015020Y020801D01*
X015020Y020988D02*
X015000Y020988D01*
X014981Y021227D02*
X015048Y021227D01*
X015286Y021465D02*
X014742Y021465D01*
X015500Y021465D02*
X015500Y021465D01*
X015714Y021465D02*
X018000Y021465D01*
X018066Y021227D02*
X015952Y021227D01*
X015980Y020988D02*
X024500Y020988D01*
X024500Y020793D02*
X024560Y020733D01*
X024560Y016690D01*
X023784Y016690D01*
X023639Y016750D01*
X023792Y016813D01*
X023937Y016958D01*
X024015Y017148D01*
X024015Y017352D01*
X023940Y017534D01*
X023940Y017966D01*
X024015Y018148D01*
X024015Y018352D01*
X023937Y018542D01*
X023792Y018687D01*
X023602Y018765D01*
X023616Y018767D01*
X023690Y018791D01*
X023759Y018827D01*
X023822Y018872D01*
X023878Y018928D01*
X023923Y018991D01*
X023959Y019060D01*
X023983Y019134D01*
X023995Y019211D01*
X023995Y019250D01*
X023995Y019289D01*
X023983Y019366D01*
X023959Y019440D01*
X023923Y019509D01*
X023878Y019572D01*
X023822Y019628D01*
X023759Y019673D01*
X023690Y019709D01*
X023616Y019733D01*
X023539Y019745D01*
X023500Y019745D01*
X023500Y019250D01*
X023500Y019250D01*
X023995Y019250D01*
X023500Y019250D01*
X023500Y019250D01*
X023500Y019250D01*
X023005Y019250D01*
X023005Y019289D01*
X023017Y019366D01*
X023041Y019440D01*
X023077Y019509D01*
X023122Y019572D01*
X023178Y019628D01*
X023241Y019673D01*
X023310Y019709D01*
X023384Y019733D01*
X023461Y019745D01*
X023500Y019745D01*
X023500Y019250D01*
X023005Y019250D01*
X023005Y019211D01*
X023017Y019134D01*
X023041Y019060D01*
X023077Y018991D01*
X023122Y018928D01*
X023178Y018872D01*
X023241Y018827D01*
X023310Y018791D01*
X023384Y018767D01*
X023398Y018765D01*
X023398Y018765D01*
X023208Y018687D01*
X023063Y018542D01*
X022985Y018352D01*
X022985Y018148D01*
X023060Y017966D01*
X023060Y017534D01*
X022985Y017352D01*
X022985Y017148D01*
X023063Y016958D01*
X023208Y016813D01*
X023361Y016750D01*
X023208Y016687D01*
X023063Y016542D01*
X022985Y016352D01*
X022985Y016148D01*
X023063Y015958D01*
X023208Y015813D01*
X023398Y015735D01*
X023602Y015735D01*
X023784Y015810D01*
X024560Y015810D01*
X024560Y014767D01*
X024500Y014707D01*
X024500Y014293D01*
X024560Y014233D01*
X024560Y009940D01*
X023784Y009940D01*
X023639Y010000D01*
X023792Y010063D01*
X023937Y010208D01*
X024015Y010398D01*
X024015Y010602D01*
X023940Y010784D01*
X023940Y011216D01*
X024015Y011398D01*
X024015Y011602D01*
X023937Y011792D01*
X023792Y011937D01*
X023602Y012015D01*
X023616Y012017D01*
X023690Y012041D01*
X023759Y012077D01*
X023822Y012122D01*
X023878Y012178D01*
X023923Y012241D01*
X023959Y012310D01*
X023983Y012384D01*
X023995Y012461D01*
X023995Y012500D01*
X023995Y012539D01*
X023983Y012616D01*
X023959Y012690D01*
X023923Y012759D01*
X023878Y012822D01*
X023822Y012878D01*
X023759Y012923D01*
X023690Y012959D01*
X023616Y012983D01*
X023539Y012995D01*
X023500Y012995D01*
X023500Y012500D01*
X023500Y012500D01*
X023995Y012500D01*
X023500Y012500D01*
X023500Y012500D01*
X023500Y012500D01*
X023005Y012500D01*
X023005Y012539D01*
X023017Y012616D01*
X023041Y012690D01*
X023077Y012759D01*
X023122Y012822D01*
X023178Y012878D01*
X023241Y012923D01*
X023310Y012959D01*
X023384Y012983D01*
X023461Y012995D01*
X023500Y012995D01*
X023500Y012500D01*
X023005Y012500D01*
X023005Y012461D01*
X023017Y012384D01*
X023041Y012310D01*
X023077Y012241D01*
X023122Y012178D01*
X023178Y012122D01*
X023241Y012077D01*
X023310Y012041D01*
X023384Y012017D01*
X023398Y012015D01*
X023398Y012015D01*
X023208Y011937D01*
X023063Y011792D01*
X022985Y011602D01*
X022985Y011398D01*
X023060Y011216D01*
X023060Y010784D01*
X022985Y010602D01*
X022985Y010398D01*
X023063Y010208D01*
X023208Y010063D01*
X023361Y010000D01*
X023208Y009937D01*
X023063Y009792D01*
X022985Y009602D01*
X022985Y009398D01*
X023063Y009208D01*
X023208Y009063D01*
X023398Y008985D01*
X023602Y008985D01*
X023784Y009060D01*
X024560Y009060D01*
X024560Y008017D01*
X024500Y007957D01*
X024500Y007543D01*
X024560Y007483D01*
X024560Y003440D01*
X023784Y003440D01*
X023639Y003500D01*
X023792Y003563D01*
X023937Y003708D01*
X024015Y003898D01*
X024015Y004102D01*
X023940Y004284D01*
X023940Y004716D01*
X024015Y004898D01*
X024015Y005102D01*
X023937Y005292D01*
X023792Y005437D01*
X023602Y005515D01*
X023616Y005517D01*
X023690Y005541D01*
X023759Y005577D01*
X023822Y005622D01*
X023878Y005678D01*
X023923Y005741D01*
X023959Y005810D01*
X023983Y005884D01*
X023995Y005961D01*
X023995Y006000D01*
X023995Y006039D01*
X023983Y006116D01*
X023959Y006190D01*
X023923Y006259D01*
X023878Y006322D01*
X023822Y006378D01*
X023759Y006423D01*
X023690Y006459D01*
X023616Y006483D01*
X023539Y006495D01*
X023500Y006495D01*
X023500Y006000D01*
X023500Y006000D01*
X023995Y006000D01*
X023500Y006000D01*
X023500Y006000D01*
X023500Y006000D01*
X023005Y006000D01*
X023005Y006039D01*
X023017Y006116D01*
X023041Y006190D01*
X023077Y006259D01*
X023122Y006322D01*
X023178Y006378D01*
X023241Y006423D01*
X023310Y006459D01*
X023384Y006483D01*
X023461Y006495D01*
X023500Y006495D01*
X023500Y006000D01*
X023005Y006000D01*
X023005Y005961D01*
X023017Y005884D01*
X023041Y005810D01*
X023077Y005741D01*
X023122Y005678D01*
X023178Y005622D01*
X023241Y005577D01*
X023310Y005541D01*
X023384Y005517D01*
X023398Y005515D01*
X023398Y005515D01*
X023208Y005437D01*
X023063Y005292D01*
X022985Y005102D01*
X022985Y004898D01*
X023060Y004716D01*
X023060Y004284D01*
X022985Y004102D01*
X022985Y003898D01*
X023063Y003708D01*
X023208Y003563D01*
X023361Y003500D01*
X023208Y003437D01*
X023063Y003292D01*
X022985Y003102D01*
X022985Y002898D01*
X023060Y002716D01*
X023060Y001767D01*
X023000Y001707D01*
X023000Y001293D01*
X023293Y001000D01*
X023707Y001000D01*
X024000Y001293D01*
X024000Y001707D01*
X023940Y001767D01*
X023940Y002560D01*
X025088Y002560D01*
X025249Y002627D01*
X025373Y002751D01*
X025440Y002912D01*
X025440Y007483D01*
X025500Y007543D01*
X025500Y007957D01*
X025440Y008017D01*
X025440Y014233D01*
X025500Y014293D01*
X025500Y014707D01*
X025440Y014767D01*
X025440Y020733D01*
X025500Y020793D01*
X025500Y021207D01*
X025440Y021267D01*
X025440Y029088D01*
X025373Y029249D01*
X025249Y029373D01*
X025088Y029440D01*
X024617Y029440D01*
X024543Y029514D01*
X024730Y029701D01*
X024730Y029900D01*
X024730Y030099D01*
X024449Y030380D01*
X024250Y030380D01*
X024250Y029900D01*
X024250Y029900D01*
X024730Y029900D01*
X024250Y029900D01*
X024250Y029900D01*
X024250Y029900D01*
X023770Y029900D01*
X023770Y030099D01*
X024051Y030380D01*
X024250Y030380D01*
X024250Y029900D01*
X023770Y029900D01*
X023770Y029701D01*
X023957Y029514D01*
X023826Y029383D01*
X023750Y029199D01*
X023750Y029001D01*
X023826Y028817D01*
X023967Y028676D01*
X024151Y028600D01*
X024315Y028600D01*
X024334Y028592D01*
X024412Y028560D01*
X024415Y028560D01*
X024418Y028559D01*
X024503Y028560D01*
X024560Y028560D01*
X024560Y023440D01*
X023784Y023440D01*
X023639Y023500D01*
X023792Y023563D01*
X023937Y023708D01*
X024015Y023898D01*
X024015Y024102D01*
X023940Y024284D01*
X023940Y024716D01*
X024015Y024898D01*
X024015Y025102D01*
X023937Y025292D01*
X023792Y025437D01*
X023602Y025515D01*
X023616Y025517D01*
X023690Y025541D01*
X023759Y025577D01*
X023822Y025622D01*
X023878Y025678D01*
X023923Y025741D01*
X023959Y025810D01*
X023983Y025884D01*
X023995Y025961D01*
X023995Y026000D01*
X023995Y026039D01*
X023983Y026116D01*
X023959Y026190D01*
X023923Y026259D01*
X023878Y026322D01*
X023822Y026378D01*
X023759Y026423D01*
X023690Y026459D01*
X023616Y026483D01*
X023539Y026495D01*
X023500Y026495D01*
X023500Y026000D01*
X023995Y026000D01*
X023500Y026000D01*
X023500Y026000D01*
X023500Y026000D01*
X023500Y026000D01*
X023005Y026000D01*
X023005Y026039D01*
X023017Y026116D01*
X023041Y026190D01*
X023077Y026259D01*
X023122Y026322D01*
X023178Y026378D01*
X023241Y026423D01*
X023310Y026459D01*
X023384Y026483D01*
X023461Y026495D01*
X023500Y026495D01*
X023500Y026000D01*
X023005Y026000D01*
X023005Y025961D01*
X023017Y025884D01*
X023041Y025810D01*
X023077Y025741D01*
X023122Y025678D01*
X023178Y025622D01*
X023241Y025577D01*
X023310Y025541D01*
X023384Y025517D01*
X023398Y025515D01*
X023398Y025515D01*
X023208Y025437D01*
X023063Y025292D01*
X022985Y025102D01*
X022985Y024898D01*
X023060Y024716D01*
X023060Y024284D01*
X022985Y024102D01*
X022985Y023898D01*
X023063Y023708D01*
X023208Y023563D01*
X023361Y023500D01*
X023208Y023437D01*
X023063Y023292D01*
X022985Y023102D01*
X022985Y022898D01*
X023063Y022708D01*
X023208Y022563D01*
X023398Y022485D01*
X023602Y022485D01*
X023784Y022560D01*
X024560Y022560D01*
X024560Y021267D01*
X024500Y021207D01*
X024500Y020793D01*
X024543Y020750D02*
X015928Y020750D01*
X015500Y020750D02*
X015500Y020750D01*
X015500Y020988D02*
X015500Y020988D01*
X015500Y021227D02*
X015500Y021227D01*
X015619Y022181D02*
X024560Y022181D01*
X024560Y022419D02*
X015733Y022419D01*
X015714Y022658D02*
X023114Y022658D01*
X022986Y022896D02*
X015532Y022896D01*
X015543Y023076D02*
X015684Y023217D01*
X015760Y023401D01*
X015760Y023599D01*
X015684Y023783D01*
X015543Y023924D01*
X015359Y024000D01*
X015543Y024076D01*
X015684Y024217D01*
X015760Y024401D01*
X015760Y024599D01*
X015684Y024783D01*
X015543Y024924D01*
X015359Y025000D01*
X015543Y025076D01*
X015684Y025217D01*
X015760Y025401D01*
X015760Y025599D01*
X015684Y025783D01*
X015543Y025924D01*
X015359Y026000D01*
X014641Y026000D01*
X014457Y025924D01*
X014316Y025783D01*
X014240Y025599D01*
X014240Y025401D01*
X014316Y025217D01*
X014457Y025076D01*
X014641Y025000D01*
X015359Y025000D01*
X014641Y025000D01*
X014457Y024924D01*
X014316Y024783D01*
X014240Y024599D01*
X014240Y024401D01*
X014316Y024217D01*
X014457Y024076D01*
X014641Y024000D01*
X015359Y024000D01*
X014641Y024000D01*
X014457Y023924D01*
X014316Y023783D01*
X014240Y023599D01*
X014240Y023401D01*
X014316Y023217D01*
X014457Y023076D01*
X014641Y023000D01*
X015359Y023000D01*
X015543Y023076D01*
X015602Y023135D02*
X017158Y023135D01*
X017293Y023000D02*
X017000Y023293D01*
X017000Y023707D01*
X017293Y024000D01*
X017707Y024000D01*
X018000Y023707D01*
X018000Y023293D01*
X017707Y023000D01*
X017293Y023000D01*
X017000Y023373D02*
X015749Y023373D01*
X015755Y023612D02*
X017000Y023612D01*
X017143Y023850D02*
X015617Y023850D01*
X015556Y024089D02*
X022985Y024089D01*
X023005Y023850D02*
X021857Y023850D01*
X022000Y023707D02*
X021707Y024000D01*
X021293Y024000D01*
X021000Y023707D01*
X021000Y023293D01*
X021293Y023000D01*
X021707Y023000D01*
X022000Y023293D01*
X022000Y023707D01*
X022000Y023612D02*
X023160Y023612D01*
X023145Y023373D02*
X022000Y023373D01*
X021842Y023135D02*
X022998Y023135D01*
X023840Y023612D02*
X024560Y023612D01*
X024560Y023850D02*
X023995Y023850D01*
X024015Y024089D02*
X024560Y024089D01*
X024560Y024327D02*
X023940Y024327D01*
X023940Y024566D02*
X024560Y024566D01*
X024560Y024804D02*
X023976Y024804D01*
X024015Y025043D02*
X024560Y025043D01*
X024560Y025281D02*
X023941Y025281D01*
X023623Y025520D02*
X024560Y025520D01*
X024560Y025758D02*
X023932Y025758D01*
X023995Y025997D02*
X024560Y025997D01*
X024560Y026235D02*
X023936Y026235D01*
X023644Y026474D02*
X024560Y026474D01*
X024560Y026712D02*
X014000Y026712D01*
X014000Y026474D02*
X017266Y026474D01*
X017293Y026500D02*
X017000Y026207D01*
X017000Y025793D01*
X017293Y025500D01*
X017707Y025500D01*
X018000Y025793D01*
X018000Y026207D01*
X017707Y026500D01*
X017293Y026500D01*
X017028Y026235D02*
X014000Y026235D01*
X014000Y025997D02*
X014632Y025997D01*
X014306Y025758D02*
X014000Y025758D01*
X014000Y025520D02*
X014240Y025520D01*
X014290Y025281D02*
X014000Y025281D01*
X014000Y025043D02*
X014538Y025043D01*
X014337Y024804D02*
X014000Y024804D01*
X014000Y024566D02*
X014240Y024566D01*
X014270Y024327D02*
X014000Y024327D01*
X014000Y024089D02*
X014444Y024089D01*
X014383Y023850D02*
X014000Y023850D01*
X014000Y023612D02*
X014245Y023612D01*
X014251Y023373D02*
X014000Y023373D01*
X014000Y023135D02*
X014398Y023135D01*
X014468Y022896D02*
X014000Y022896D01*
X014000Y022658D02*
X014286Y022658D01*
X015000Y022658D02*
X015000Y022658D01*
X015000Y022896D02*
X015000Y022896D01*
X015000Y022419D02*
X015000Y022419D01*
X015000Y022181D02*
X015000Y022181D01*
X015730Y024327D02*
X023060Y024327D01*
X023060Y024566D02*
X021773Y024566D01*
X021707Y024500D02*
X022000Y024793D01*
X022000Y025207D01*
X021707Y025500D01*
X021293Y025500D01*
X021000Y025207D01*
X021000Y024793D01*
X021293Y024500D01*
X021707Y024500D01*
X022000Y024804D02*
X023024Y024804D01*
X022985Y025043D02*
X022000Y025043D01*
X021926Y025281D02*
X023059Y025281D01*
X023377Y025520D02*
X021727Y025520D01*
X021707Y025500D02*
X022000Y025793D01*
X022000Y026207D01*
X021707Y026500D01*
X021293Y026500D01*
X021000Y026207D01*
X021000Y025793D01*
X021293Y025500D01*
X021707Y025500D01*
X021965Y025758D02*
X023068Y025758D01*
X023005Y025997D02*
X022000Y025997D01*
X021972Y026235D02*
X023064Y026235D01*
X023356Y026474D02*
X021734Y026474D01*
X021266Y026474D02*
X017734Y026474D01*
X017972Y026235D02*
X021028Y026235D01*
X021000Y025997D02*
X018000Y025997D01*
X017965Y025758D02*
X021035Y025758D01*
X021273Y025520D02*
X017727Y025520D01*
X017707Y025500D02*
X017293Y025500D01*
X017000Y025207D01*
X017000Y024793D01*
X017293Y024500D01*
X017707Y024500D01*
X018000Y024793D01*
X018000Y025207D01*
X017707Y025500D01*
X017926Y025281D02*
X021074Y025281D01*
X021000Y025043D02*
X018000Y025043D01*
X018000Y024804D02*
X021000Y024804D01*
X021227Y024566D02*
X017773Y024566D01*
X017227Y024566D02*
X015760Y024566D01*
X015663Y024804D02*
X017000Y024804D01*
X017000Y025043D02*
X015462Y025043D01*
X015710Y025281D02*
X017074Y025281D01*
X017273Y025520D02*
X015760Y025520D01*
X015694Y025758D02*
X017035Y025758D01*
X017000Y025997D02*
X015368Y025997D01*
X014000Y026951D02*
X024560Y026951D01*
X024560Y027189D02*
X014000Y027189D01*
X014000Y027428D02*
X024560Y027428D01*
X024560Y027666D02*
X014000Y027666D01*
X014000Y027905D02*
X024560Y027905D01*
X024560Y028143D02*
X014000Y028143D01*
X014000Y028382D02*
X024560Y028382D01*
X024102Y028620D02*
X014000Y028620D01*
X014000Y028859D02*
X018609Y028859D01*
X018598Y028869D02*
X018744Y028723D01*
X018936Y028644D01*
X019142Y028644D01*
X019334Y028723D01*
X019480Y028869D01*
X019539Y029012D01*
X019598Y028869D01*
X019744Y028723D01*
X019936Y028644D01*
X020142Y028644D01*
X020334Y028723D01*
X020480Y028869D01*
X020539Y029012D01*
X020598Y028869D01*
X020744Y028723D01*
X020936Y028644D01*
X021142Y028644D01*
X021334Y028723D01*
X021480Y028869D01*
X021539Y029012D01*
X021598Y028869D01*
X021744Y028723D01*
X021936Y028644D01*
X022142Y028644D01*
X022334Y028723D01*
X022480Y028869D01*
X022559Y029061D01*
X022559Y029827D01*
X022480Y030019D01*
X022334Y030165D01*
X022142Y030244D01*
X021936Y030244D01*
X021744Y030165D01*
X021598Y030019D01*
X021539Y029876D01*
X021480Y030019D01*
X021334Y030165D01*
X021142Y030244D01*
X020936Y030244D01*
X020744Y030165D01*
X020598Y030019D01*
X020539Y029876D01*
X020480Y030019D01*
X020334Y030165D01*
X020142Y030244D01*
X019936Y030244D01*
X019744Y030165D01*
X019598Y030019D01*
X019539Y029876D01*
X019480Y030019D01*
X019334Y030165D01*
X019142Y030244D01*
X018936Y030244D01*
X018744Y030165D01*
X018598Y030019D01*
X018519Y029827D01*
X018519Y029061D01*
X018598Y028869D01*
X018519Y029097D02*
X014000Y029097D01*
X014000Y029336D02*
X018519Y029336D01*
X018519Y029574D02*
X014000Y029574D01*
X014000Y029813D02*
X018519Y029813D01*
X018631Y030051D02*
X014000Y030051D01*
X014000Y030290D02*
X023961Y030290D01*
X024250Y030290D02*
X024250Y030290D01*
X024250Y030051D02*
X024250Y030051D01*
X024539Y030290D02*
X026081Y030290D01*
X026171Y030380D02*
X025890Y030099D01*
X025890Y029900D01*
X026370Y029900D01*
X026370Y029900D01*
X026370Y030380D01*
X026569Y030380D01*
X026850Y030099D01*
X026850Y029900D01*
X026370Y029900D01*
X026370Y029900D01*
X026370Y029900D01*
X026370Y030380D01*
X026171Y030380D01*
X026370Y030290D02*
X026370Y030290D01*
X026370Y030051D02*
X026370Y030051D01*
X026370Y029900D02*
X025890Y029900D01*
X025890Y029701D01*
X026077Y029514D01*
X025946Y029383D01*
X025870Y029199D01*
X025870Y029001D01*
X025946Y028817D01*
X026087Y028676D01*
X026271Y028600D01*
X026469Y028600D01*
X026653Y028676D01*
X026794Y028817D01*
X026870Y029001D01*
X026870Y029199D01*
X026794Y029383D01*
X026663Y029514D01*
X026850Y029701D01*
X026850Y029900D01*
X026370Y029900D01*
X026723Y029574D02*
X028097Y029574D01*
X028157Y029514D02*
X027970Y029701D01*
X027970Y029900D01*
X028450Y029900D01*
X028450Y029900D01*
X028450Y030380D01*
X028649Y030380D01*
X028930Y030099D01*
X028930Y029900D01*
X028450Y029900D01*
X028450Y029900D01*
X028450Y029900D01*
X028450Y030380D01*
X028251Y030380D01*
X027970Y030099D01*
X027970Y029900D01*
X028450Y029900D01*
X028930Y029900D01*
X028930Y029701D01*
X028743Y029514D01*
X028874Y029383D01*
X028950Y029199D01*
X028950Y029001D01*
X028874Y028817D01*
X028733Y028676D01*
X028549Y028600D01*
X028351Y028600D01*
X028167Y028676D01*
X028026Y028817D01*
X027950Y029001D01*
X027950Y029199D01*
X028026Y029383D01*
X028157Y029514D01*
X028006Y029336D02*
X026814Y029336D01*
X026870Y029097D02*
X027950Y029097D01*
X028009Y028859D02*
X026811Y028859D01*
X026518Y028620D02*
X028302Y028620D01*
X028598Y028620D02*
X030352Y028620D01*
X030401Y028600D02*
X030599Y028600D01*
X030783Y028676D01*
X030924Y028817D01*
X031000Y029001D01*
X031000Y029199D01*
X030924Y029383D01*
X030793Y029514D01*
X030980Y029701D01*
X030980Y029900D01*
X030980Y030099D01*
X030699Y030380D01*
X030500Y030380D01*
X030500Y029900D01*
X030500Y029900D01*
X030980Y029900D01*
X030500Y029900D01*
X030500Y029900D01*
X030500Y029900D01*
X030020Y029900D01*
X030020Y030099D01*
X030301Y030380D01*
X030500Y030380D01*
X030500Y029900D01*
X030020Y029900D01*
X030020Y029701D01*
X030207Y029514D01*
X030076Y029383D01*
X030000Y029199D01*
X030000Y029001D01*
X030076Y028817D01*
X030217Y028676D01*
X030401Y028600D01*
X030648Y028620D02*
X032000Y028620D01*
X032000Y028382D02*
X025440Y028382D01*
X025440Y028620D02*
X026222Y028620D01*
X025929Y028859D02*
X025440Y028859D01*
X025436Y029097D02*
X025870Y029097D01*
X025926Y029336D02*
X025287Y029336D01*
X024730Y029813D02*
X025890Y029813D01*
X025890Y030051D02*
X024730Y030051D01*
X024603Y029574D02*
X026017Y029574D01*
X026850Y029813D02*
X027970Y029813D01*
X027970Y030051D02*
X026850Y030051D01*
X026659Y030290D02*
X028161Y030290D01*
X028450Y030290D02*
X028450Y030290D01*
X028450Y030051D02*
X028450Y030051D01*
X028739Y030290D02*
X030211Y030290D01*
X030500Y030290D02*
X030500Y030290D01*
X030500Y030051D02*
X030500Y030051D01*
X030789Y030290D02*
X032000Y030290D01*
X032000Y030528D02*
X014000Y030528D01*
X014000Y030767D02*
X032000Y030767D01*
X032000Y030976D02*
X032000Y023179D01*
X031949Y023230D01*
X031750Y023230D01*
X031750Y022750D01*
X031750Y022750D01*
X031750Y022270D01*
X031949Y022270D01*
X032000Y022321D01*
X032000Y016429D01*
X031949Y016480D01*
X031750Y016480D01*
X031750Y016000D01*
X031750Y016000D01*
X031750Y015520D01*
X031949Y015520D01*
X032000Y015571D01*
X032000Y010429D01*
X031949Y010480D01*
X031750Y010480D01*
X031750Y010000D01*
X031750Y010000D01*
X031750Y009520D01*
X031949Y009520D01*
X032000Y009571D01*
X032000Y004429D01*
X031949Y004480D01*
X031750Y004480D01*
X031750Y004000D01*
X031750Y004000D01*
X031750Y004480D01*
X031551Y004480D01*
X031270Y004199D01*
X031270Y004000D01*
X031750Y004000D01*
X031750Y003520D01*
X031949Y003520D01*
X032000Y003571D01*
X032000Y000520D01*
X015227Y000520D01*
X015500Y000793D01*
X015500Y001207D01*
X015207Y001500D01*
X014793Y001500D01*
X014500Y001207D01*
X014500Y000793D01*
X014773Y000520D01*
X014000Y000520D01*
X014000Y030976D01*
X032000Y030976D01*
X032000Y030051D02*
X030980Y030051D01*
X030980Y029813D02*
X032000Y029813D01*
X032000Y029574D02*
X030853Y029574D01*
X030944Y029336D02*
X032000Y029336D01*
X032000Y029097D02*
X031000Y029097D01*
X030941Y028859D02*
X032000Y028859D01*
X032000Y028143D02*
X025440Y028143D01*
X025440Y027905D02*
X032000Y027905D01*
X032000Y027666D02*
X025440Y027666D01*
X025440Y027428D02*
X032000Y027428D01*
X032000Y027189D02*
X025440Y027189D01*
X025440Y026951D02*
X032000Y026951D01*
X032000Y026712D02*
X025440Y026712D01*
X025440Y026474D02*
X026356Y026474D01*
X026384Y026483D02*
X026310Y026459D01*
X026241Y026423D01*
X026178Y026378D01*
X026122Y026322D01*
X026077Y026259D01*
X026041Y026190D01*
X026017Y026116D01*
X026005Y026039D01*
X026005Y026000D01*
X026500Y026000D01*
X026995Y026000D01*
X026995Y026039D01*
X026983Y026116D01*
X026959Y026190D01*
X026923Y026259D01*
X026878Y026322D01*
X026822Y026378D01*
X026759Y026423D01*
X026690Y026459D01*
X026616Y026483D01*
X026539Y026495D01*
X026500Y026495D01*
X026500Y026000D01*
X026500Y026000D01*
X026500Y026000D01*
X026995Y026000D01*
X026995Y025961D01*
X026983Y025884D01*
X026959Y025810D01*
X026923Y025741D01*
X026878Y025678D01*
X026822Y025622D01*
X026759Y025577D01*
X026690Y025541D01*
X026616Y025517D01*
X026602Y025515D01*
X026602Y025515D01*
X026792Y025437D01*
X026937Y025292D01*
X027015Y025102D01*
X027015Y024898D01*
X026937Y024708D01*
X026792Y024563D01*
X026639Y024500D01*
X026792Y024437D01*
X026937Y024292D01*
X027015Y024102D01*
X027015Y023898D01*
X026937Y023708D01*
X026792Y023563D01*
X026675Y023515D01*
X026823Y023515D01*
X026911Y023478D01*
X026978Y023411D01*
X027015Y023323D01*
X027015Y022677D01*
X026978Y022589D01*
X026911Y022522D01*
X026823Y022485D01*
X026177Y022485D01*
X026089Y022522D01*
X026022Y022589D01*
X025985Y022677D01*
X025985Y023323D01*
X026022Y023411D01*
X026089Y023478D01*
X026177Y023515D01*
X026325Y023515D01*
X026208Y023563D01*
X026063Y023708D01*
X025985Y023898D01*
X025985Y024102D01*
X026063Y024292D01*
X026208Y024437D01*
X026361Y024500D01*
X026208Y024563D01*
X026063Y024708D01*
X025985Y024898D01*
X025985Y025102D01*
X026063Y025292D01*
X026208Y025437D01*
X026398Y025515D01*
X026398Y025515D01*
X026384Y025517D01*
X026310Y025541D01*
X026241Y025577D01*
X026178Y025622D01*
X026122Y025678D01*
X026077Y025741D01*
X026041Y025810D01*
X026017Y025884D01*
X026005Y025961D01*
X026005Y026000D01*
X026500Y026000D01*
X026500Y026000D01*
X026500Y026495D01*
X026461Y026495D01*
X026384Y026483D01*
X026500Y026474D02*
X026500Y026474D01*
X026644Y026474D02*
X028516Y026474D01*
X028543Y026500D02*
X028250Y026207D01*
X028250Y025793D01*
X028543Y025500D01*
X028957Y025500D01*
X029250Y025793D01*
X029250Y026207D01*
X028957Y026500D01*
X028543Y026500D01*
X028278Y026235D02*
X026936Y026235D01*
X026995Y025997D02*
X028250Y025997D01*
X028285Y025758D02*
X026932Y025758D01*
X026623Y025520D02*
X028523Y025520D01*
X028977Y025520D02*
X032000Y025520D01*
X032000Y025758D02*
X029215Y025758D01*
X029250Y025997D02*
X032000Y025997D01*
X032000Y026235D02*
X029222Y026235D01*
X028984Y026474D02*
X032000Y026474D01*
X032000Y025281D02*
X026941Y025281D01*
X027015Y025043D02*
X032000Y025043D01*
X032000Y024804D02*
X029153Y024804D01*
X029250Y024707D02*
X028957Y025000D01*
X028543Y025000D01*
X028250Y024707D01*
X028250Y024293D01*
X028543Y024000D01*
X028957Y024000D01*
X029250Y024293D01*
X029250Y024707D01*
X029250Y024566D02*
X032000Y024566D01*
X032000Y024327D02*
X029250Y024327D01*
X029046Y024089D02*
X032000Y024089D01*
X032000Y023850D02*
X026995Y023850D01*
X027015Y024089D02*
X028454Y024089D01*
X028250Y024327D02*
X026901Y024327D01*
X026794Y024566D02*
X028250Y024566D01*
X028347Y024804D02*
X026976Y024804D01*
X026206Y024566D02*
X025440Y024566D01*
X025440Y024804D02*
X026024Y024804D01*
X025985Y025043D02*
X025440Y025043D01*
X025440Y025281D02*
X026059Y025281D01*
X026377Y025520D02*
X025440Y025520D01*
X025440Y025758D02*
X026068Y025758D01*
X026005Y025997D02*
X025440Y025997D01*
X025440Y026235D02*
X026064Y026235D01*
X026500Y026235D02*
X026500Y026235D01*
X026099Y024327D02*
X025440Y024327D01*
X025440Y024089D02*
X025985Y024089D01*
X026005Y023850D02*
X025440Y023850D01*
X025440Y023612D02*
X026160Y023612D01*
X026006Y023373D02*
X025440Y023373D01*
X025440Y023135D02*
X025985Y023135D01*
X025985Y022896D02*
X025440Y022896D01*
X025440Y022658D02*
X025993Y022658D01*
X025440Y022419D02*
X027374Y022419D01*
X027250Y022543D02*
X027250Y022957D01*
X027543Y023250D01*
X027957Y023250D01*
X028250Y022957D01*
X028250Y022543D01*
X027957Y022250D01*
X027543Y022250D01*
X027250Y022543D01*
X027250Y022658D02*
X027007Y022658D01*
X027015Y022896D02*
X027250Y022896D01*
X027427Y023135D02*
X027015Y023135D01*
X026994Y023373D02*
X032000Y023373D01*
X032000Y023612D02*
X026840Y023612D01*
X028073Y023135D02*
X031456Y023135D01*
X031551Y023230D02*
X031270Y022949D01*
X031270Y022750D01*
X031750Y022750D01*
X031750Y022750D01*
X031750Y022750D01*
X031750Y023230D01*
X031551Y023230D01*
X031750Y023135D02*
X031750Y023135D01*
X031750Y022896D02*
X031750Y022896D01*
X031750Y022750D02*
X031270Y022750D01*
X031270Y022551D01*
X031551Y022270D01*
X031750Y022270D01*
X031750Y022750D01*
X031750Y022658D02*
X031750Y022658D01*
X031750Y022419D02*
X031750Y022419D01*
X032000Y022181D02*
X025440Y022181D01*
X025440Y021942D02*
X032000Y021942D01*
X032000Y021704D02*
X025440Y021704D01*
X025440Y021465D02*
X025786Y021465D01*
X025801Y021480D02*
X025520Y021199D01*
X025520Y021000D01*
X026000Y021000D01*
X026480Y021000D01*
X026480Y021199D01*
X026199Y021480D01*
X026000Y021480D01*
X026000Y021000D01*
X026000Y021000D01*
X026000Y021000D01*
X026480Y021000D01*
X026480Y020801D01*
X026199Y020520D01*
X026000Y020520D01*
X026000Y021000D01*
X026000Y021000D01*
X026000Y021000D01*
X026000Y021480D01*
X025801Y021480D01*
X026000Y021465D02*
X026000Y021465D01*
X026214Y021465D02*
X032000Y021465D01*
X032000Y021227D02*
X026452Y021227D01*
X026480Y020988D02*
X032000Y020988D01*
X032000Y020750D02*
X026428Y020750D01*
X026000Y020750D02*
X026000Y020750D01*
X026000Y020520D02*
X026000Y021000D01*
X025520Y021000D01*
X025520Y020801D01*
X025801Y020520D01*
X026000Y020520D01*
X026000Y020988D02*
X026000Y020988D01*
X026000Y021227D02*
X026000Y021227D01*
X025548Y021227D02*
X025481Y021227D01*
X025500Y020988D02*
X025520Y020988D01*
X025572Y020750D02*
X025457Y020750D01*
X025440Y020511D02*
X032000Y020511D01*
X032000Y020273D02*
X025440Y020273D01*
X025440Y020034D02*
X032000Y020034D01*
X032000Y019796D02*
X025440Y019796D01*
X025440Y019557D02*
X026111Y019557D01*
X026122Y019572D02*
X026077Y019509D01*
X026041Y019440D01*
X026017Y019366D01*
X026005Y019289D01*
X026005Y019250D01*
X026500Y019250D01*
X026995Y019250D01*
X026995Y019289D01*
X026983Y019366D01*
X026959Y019440D01*
X026923Y019509D01*
X026878Y019572D01*
X026822Y019628D01*
X026759Y019673D01*
X026690Y019709D01*
X026616Y019733D01*
X026539Y019745D01*
X026500Y019745D01*
X026500Y019250D01*
X026500Y019250D01*
X026500Y019250D01*
X026995Y019250D01*
X026995Y019211D01*
X026983Y019134D01*
X026959Y019060D01*
X026923Y018991D01*
X026878Y018928D01*
X026822Y018872D01*
X026759Y018827D01*
X026690Y018791D01*
X026616Y018767D01*
X026602Y018765D01*
X026602Y018765D01*
X026792Y018687D01*
X026937Y018542D01*
X027015Y018352D01*
X027015Y018148D01*
X026937Y017958D01*
X026792Y017813D01*
X026639Y017750D01*
X026792Y017687D01*
X026937Y017542D01*
X027015Y017352D01*
X027015Y017148D01*
X026937Y016958D01*
X026792Y016813D01*
X026675Y016765D01*
X026823Y016765D01*
X026911Y016728D01*
X026978Y016661D01*
X027015Y016573D01*
X027015Y015927D01*
X026978Y015839D01*
X026911Y015772D01*
X026823Y015735D01*
X026177Y015735D01*
X026089Y015772D01*
X026022Y015839D01*
X025985Y015927D01*
X025985Y016573D01*
X026022Y016661D01*
X026089Y016728D01*
X026177Y016765D01*
X026325Y016765D01*
X026208Y016813D01*
X026063Y016958D01*
X025985Y017148D01*
X025985Y017352D01*
X026063Y017542D01*
X026208Y017687D01*
X026361Y017750D01*
X026208Y017813D01*
X026063Y017958D01*
X025985Y018148D01*
X025985Y018352D01*
X026063Y018542D01*
X026208Y018687D01*
X026398Y018765D01*
X026398Y018765D01*
X026384Y018767D01*
X026310Y018791D01*
X026241Y018827D01*
X026178Y018872D01*
X026122Y018928D01*
X026077Y018991D01*
X026041Y019060D01*
X026017Y019134D01*
X026005Y019211D01*
X026005Y019250D01*
X026500Y019250D01*
X026500Y019250D01*
X026500Y019745D01*
X026461Y019745D01*
X026384Y019733D01*
X026310Y019709D01*
X026241Y019673D01*
X026178Y019628D01*
X026122Y019572D01*
X026010Y019319D02*
X025440Y019319D01*
X025440Y019080D02*
X026035Y019080D01*
X026220Y018842D02*
X025440Y018842D01*
X025440Y018603D02*
X026125Y018603D01*
X025990Y018365D02*
X025440Y018365D01*
X025440Y018126D02*
X025994Y018126D01*
X026134Y017888D02*
X025440Y017888D01*
X025440Y017649D02*
X026171Y017649D01*
X026009Y017411D02*
X025440Y017411D01*
X025440Y017172D02*
X025985Y017172D01*
X026088Y016934D02*
X025440Y016934D01*
X025440Y016695D02*
X026056Y016695D01*
X025985Y016457D02*
X025440Y016457D01*
X025440Y016218D02*
X025985Y016218D01*
X025985Y015980D02*
X025440Y015980D01*
X025440Y015741D02*
X026163Y015741D01*
X026837Y015741D02*
X027302Y015741D01*
X027250Y015793D02*
X027250Y016207D01*
X027543Y016500D01*
X027957Y016500D01*
X028250Y016207D01*
X028250Y015793D01*
X027957Y015500D01*
X027543Y015500D01*
X027250Y015793D01*
X027250Y015980D02*
X027015Y015980D01*
X027015Y016218D02*
X027261Y016218D01*
X027499Y016457D02*
X027015Y016457D01*
X026944Y016695D02*
X032000Y016695D01*
X032000Y016457D02*
X031972Y016457D01*
X031750Y016457D02*
X031750Y016457D01*
X031750Y016480D02*
X031551Y016480D01*
X031270Y016199D01*
X031270Y016000D01*
X031750Y016000D01*
X031750Y016000D01*
X031750Y016000D01*
X031750Y016480D01*
X031528Y016457D02*
X028001Y016457D01*
X028239Y016218D02*
X031289Y016218D01*
X031270Y016000D02*
X031270Y015801D01*
X031551Y015520D01*
X031750Y015520D01*
X031750Y016000D01*
X031270Y016000D01*
X031270Y015980D02*
X028250Y015980D01*
X028198Y015741D02*
X031330Y015741D01*
X031750Y015741D02*
X031750Y015741D01*
X031750Y015980D02*
X031750Y015980D01*
X031750Y016218D02*
X031750Y016218D01*
X032000Y015503D02*
X027960Y015503D01*
X027540Y015503D02*
X025440Y015503D01*
X025440Y015264D02*
X032000Y015264D01*
X032000Y015026D02*
X025440Y015026D01*
X025440Y014787D02*
X025608Y014787D01*
X025520Y014699D02*
X025801Y014980D01*
X026000Y014980D01*
X026199Y014980D01*
X026480Y014699D01*
X026480Y014500D01*
X026000Y014500D01*
X026000Y014500D01*
X026000Y014500D01*
X026000Y014980D01*
X026000Y014500D01*
X026480Y014500D01*
X026480Y014301D01*
X026199Y014020D01*
X026000Y014020D01*
X026000Y014500D01*
X026000Y014500D01*
X026000Y014500D01*
X025520Y014500D01*
X025520Y014699D01*
X025520Y014549D02*
X025500Y014549D01*
X025520Y014500D02*
X025520Y014301D01*
X025801Y014020D01*
X026000Y014020D01*
X026000Y014500D01*
X025520Y014500D01*
X025520Y014310D02*
X025500Y014310D01*
X025440Y014072D02*
X025750Y014072D01*
X026000Y014072D02*
X026000Y014072D01*
X026000Y014310D02*
X026000Y014310D01*
X026000Y014549D02*
X026000Y014549D01*
X026000Y014787D02*
X026000Y014787D01*
X026392Y014787D02*
X032000Y014787D01*
X032000Y014549D02*
X026480Y014549D01*
X026480Y014310D02*
X032000Y014310D01*
X032000Y014072D02*
X026250Y014072D01*
X025440Y013833D02*
X032000Y013833D01*
X032000Y013595D02*
X029113Y013595D01*
X029250Y013457D02*
X028957Y013750D01*
X028543Y013750D01*
X028250Y013457D01*
X028250Y013043D01*
X028543Y012750D01*
X028957Y012750D01*
X029250Y013043D01*
X029250Y013457D01*
X029250Y013356D02*
X032000Y013356D01*
X032000Y013118D02*
X029250Y013118D01*
X029086Y012879D02*
X032000Y012879D01*
X032000Y012641D02*
X026975Y012641D01*
X026983Y012616D02*
X026959Y012690D01*
X026923Y012759D01*
X026878Y012822D01*
X026822Y012878D01*
X026759Y012923D01*
X026690Y012959D01*
X026616Y012983D01*
X026539Y012995D01*
X026500Y012995D01*
X026500Y012500D01*
X026995Y012500D01*
X026995Y012539D01*
X026983Y012616D01*
X026995Y012500D02*
X026500Y012500D01*
X026500Y012500D01*
X026500Y012500D01*
X026500Y012500D01*
X026005Y012500D01*
X026005Y012539D01*
X026017Y012616D01*
X026041Y012690D01*
X026077Y012759D01*
X026122Y012822D01*
X026178Y012878D01*
X026241Y012923D01*
X026310Y012959D01*
X026384Y012983D01*
X026461Y012995D01*
X026500Y012995D01*
X026500Y012500D01*
X026005Y012500D01*
X026005Y012461D01*
X026017Y012384D01*
X026041Y012310D01*
X026077Y012241D01*
X026122Y012178D01*
X026178Y012122D01*
X026241Y012077D01*
X026310Y012041D01*
X026384Y012017D01*
X026398Y012015D01*
X026398Y012015D01*
X026208Y011937D01*
X026063Y011792D01*
X025985Y011602D01*
X025985Y011398D01*
X026063Y011208D01*
X026208Y011063D01*
X026361Y011000D01*
X026208Y010937D01*
X026063Y010792D01*
X025985Y010602D01*
X025985Y010398D01*
X026063Y010208D01*
X026208Y010063D01*
X026325Y010015D01*
X026177Y010015D01*
X026089Y009978D01*
X026022Y009911D01*
X025985Y009823D01*
X025985Y009177D01*
X026022Y009089D01*
X026089Y009022D01*
X026177Y008985D01*
X026823Y008985D01*
X026911Y009022D01*
X026978Y009089D01*
X027015Y009177D01*
X027015Y009823D01*
X026978Y009911D01*
X026911Y009978D01*
X026823Y010015D01*
X026675Y010015D01*
X026792Y010063D01*
X026937Y010208D01*
X027015Y010398D01*
X027015Y010602D01*
X026937Y010792D01*
X026792Y010937D01*
X026639Y011000D01*
X026792Y011063D01*
X026937Y011208D01*
X027015Y011398D01*
X027015Y011602D01*
X026937Y011792D01*
X026792Y011937D01*
X026602Y012015D01*
X026616Y012017D01*
X026690Y012041D01*
X026759Y012077D01*
X026822Y012122D01*
X026878Y012178D01*
X026923Y012241D01*
X026959Y012310D01*
X026983Y012384D01*
X026995Y012461D01*
X026995Y012500D01*
X026986Y012402D02*
X032000Y012402D01*
X032000Y012164D02*
X029044Y012164D01*
X028957Y012250D02*
X029250Y011957D01*
X029250Y011543D01*
X028957Y011250D01*
X028543Y011250D01*
X028250Y011543D01*
X028250Y011957D01*
X028543Y012250D01*
X028957Y012250D01*
X029250Y011925D02*
X032000Y011925D01*
X032000Y011687D02*
X029250Y011687D01*
X029155Y011448D02*
X032000Y011448D01*
X032000Y011210D02*
X026937Y011210D01*
X027015Y011448D02*
X028345Y011448D01*
X028250Y011687D02*
X026980Y011687D01*
X026803Y011925D02*
X028250Y011925D01*
X028456Y012164D02*
X026864Y012164D01*
X026602Y012015D02*
X026602Y012015D01*
X026197Y011925D02*
X025440Y011925D01*
X025440Y011687D02*
X026020Y011687D01*
X025985Y011448D02*
X025440Y011448D01*
X025440Y011210D02*
X026063Y011210D01*
X026291Y010971D02*
X025440Y010971D01*
X025440Y010733D02*
X026039Y010733D01*
X025985Y010494D02*
X025440Y010494D01*
X025440Y010256D02*
X026044Y010256D01*
X026320Y010017D02*
X025440Y010017D01*
X025440Y009779D02*
X025985Y009779D01*
X025985Y009540D02*
X025440Y009540D01*
X025440Y009302D02*
X025985Y009302D01*
X026048Y009063D02*
X025440Y009063D01*
X025440Y008825D02*
X032000Y008825D01*
X032000Y009063D02*
X026952Y009063D01*
X027015Y009302D02*
X032000Y009302D01*
X032000Y009540D02*
X031969Y009540D01*
X031750Y009540D02*
X031750Y009540D01*
X031750Y009520D02*
X031750Y010000D01*
X031750Y010000D01*
X031750Y010000D01*
X031270Y010000D01*
X031270Y010199D01*
X031551Y010480D01*
X031750Y010480D01*
X031750Y010000D01*
X031270Y010000D01*
X031270Y009801D01*
X031551Y009520D01*
X031750Y009520D01*
X031531Y009540D02*
X027997Y009540D01*
X027957Y009500D02*
X028250Y009793D01*
X028250Y010207D01*
X027957Y010500D01*
X027543Y010500D01*
X027250Y010207D01*
X027250Y009793D01*
X027543Y009500D01*
X027957Y009500D01*
X028236Y009779D02*
X031293Y009779D01*
X031270Y010017D02*
X028250Y010017D01*
X028202Y010256D02*
X031327Y010256D01*
X031750Y010256D02*
X031750Y010256D01*
X031750Y010017D02*
X031750Y010017D01*
X031750Y009779D02*
X031750Y009779D01*
X032000Y010494D02*
X027963Y010494D01*
X027537Y010494D02*
X027015Y010494D01*
X026961Y010733D02*
X032000Y010733D01*
X032000Y010971D02*
X026709Y010971D01*
X026956Y010256D02*
X027298Y010256D01*
X027250Y010017D02*
X026680Y010017D01*
X027015Y009779D02*
X027264Y009779D01*
X027503Y009540D02*
X027015Y009540D01*
X026199Y008230D02*
X026000Y008230D01*
X026000Y007750D01*
X026480Y007750D01*
X026480Y007949D01*
X026199Y008230D01*
X026320Y008109D02*
X032000Y008109D01*
X032000Y007871D02*
X026480Y007871D01*
X026480Y007750D02*
X026000Y007750D01*
X026000Y007750D01*
X026000Y007750D01*
X026000Y007270D01*
X026199Y007270D01*
X026480Y007551D01*
X026480Y007750D01*
X026480Y007632D02*
X028425Y007632D01*
X028543Y007750D02*
X028250Y007457D01*
X028250Y007043D01*
X028543Y006750D01*
X028957Y006750D01*
X029250Y007043D01*
X029250Y007457D01*
X028957Y007750D01*
X028543Y007750D01*
X028250Y007394D02*
X026322Y007394D01*
X026000Y007394D02*
X026000Y007394D01*
X026000Y007270D02*
X025801Y007270D01*
X025520Y007551D01*
X025520Y007750D01*
X026000Y007750D01*
X026000Y007750D01*
X026000Y007750D01*
X026000Y008230D01*
X025801Y008230D01*
X025520Y007949D01*
X025520Y007750D01*
X026000Y007750D01*
X026000Y007270D01*
X025678Y007394D02*
X025440Y007394D01*
X025440Y007155D02*
X028250Y007155D01*
X028376Y006917D02*
X025440Y006917D01*
X025440Y006678D02*
X032000Y006678D01*
X032000Y006440D02*
X026728Y006440D01*
X026759Y006423D02*
X026690Y006459D01*
X026616Y006483D01*
X026539Y006495D01*
X026500Y006495D01*
X026500Y006000D01*
X026995Y006000D01*
X026995Y006039D01*
X026983Y006116D01*
X026959Y006190D01*
X026923Y006259D01*
X026878Y006322D01*
X026822Y006378D01*
X026759Y006423D01*
X026500Y006440D02*
X026500Y006440D01*
X026500Y006495D02*
X026461Y006495D01*
X026384Y006483D01*
X026310Y006459D01*
X026241Y006423D01*
X026178Y006378D01*
X026122Y006322D01*
X026077Y006259D01*
X026041Y006190D01*
X026017Y006116D01*
X026005Y006039D01*
X026005Y006000D01*
X026500Y006000D01*
X026500Y006000D01*
X026500Y006000D01*
X026995Y006000D01*
X026995Y005961D01*
X026983Y005884D01*
X026959Y005810D01*
X026923Y005741D01*
X026878Y005678D01*
X026822Y005622D01*
X026759Y005577D01*
X026690Y005541D01*
X026616Y005517D01*
X026602Y005515D01*
X026602Y005515D01*
X026792Y005437D01*
X026937Y005292D01*
X027015Y005102D01*
X027015Y004898D01*
X026937Y004708D01*
X026792Y004563D01*
X026639Y004500D01*
X026792Y004437D01*
X026937Y004292D01*
X027015Y004102D01*
X027015Y003898D01*
X026937Y003708D01*
X026792Y003563D01*
X026675Y003515D01*
X026823Y003515D01*
X026911Y003478D01*
X026978Y003411D01*
X027015Y003323D01*
X027015Y002677D01*
X026978Y002589D01*
X026911Y002522D01*
X026823Y002485D01*
X026177Y002485D01*
X026089Y002522D01*
X026022Y002589D01*
X025985Y002677D01*
X025985Y003323D01*
X026022Y003411D01*
X026089Y003478D01*
X026177Y003515D01*
X026325Y003515D01*
X026208Y003563D01*
X026063Y003708D01*
X025985Y003898D01*
X025985Y004102D01*
X026063Y004292D01*
X026208Y004437D01*
X026361Y004500D01*
X026208Y004563D01*
X026063Y004708D01*
X025985Y004898D01*
X025985Y005102D01*
X026063Y005292D01*
X026208Y005437D01*
X026398Y005515D01*
X026398Y005515D01*
X026384Y005517D01*
X026310Y005541D01*
X026241Y005577D01*
X026178Y005622D01*
X026122Y005678D01*
X026077Y005741D01*
X026041Y005810D01*
X026017Y005884D01*
X026005Y005961D01*
X026005Y006000D01*
X026500Y006000D01*
X026500Y006000D01*
X026500Y006495D01*
X026272Y006440D02*
X025440Y006440D01*
X025440Y006201D02*
X026047Y006201D01*
X026005Y005963D02*
X025440Y005963D01*
X025440Y005724D02*
X026089Y005724D01*
X026326Y005486D02*
X025440Y005486D01*
X025440Y005247D02*
X026045Y005247D01*
X025985Y005009D02*
X025440Y005009D01*
X025440Y004770D02*
X026038Y004770D01*
X026285Y004532D02*
X025440Y004532D01*
X025440Y004293D02*
X026065Y004293D01*
X025985Y004055D02*
X025440Y004055D01*
X025440Y003816D02*
X026019Y003816D01*
X026194Y003578D02*
X025440Y003578D01*
X025440Y003339D02*
X025992Y003339D01*
X025985Y003101D02*
X025440Y003101D01*
X025419Y002862D02*
X025985Y002862D01*
X026007Y002624D02*
X025241Y002624D01*
X024699Y001980D02*
X024500Y001980D01*
X024500Y001500D01*
X024980Y001500D01*
X024980Y001699D01*
X024699Y001980D01*
X024771Y001908D02*
X032000Y001908D01*
X032000Y001670D02*
X024980Y001670D01*
X024980Y001500D02*
X024500Y001500D01*
X024500Y001500D01*
X024500Y001500D01*
X024500Y001020D01*
X024699Y001020D01*
X024980Y001301D01*
X024980Y001500D01*
X024980Y001431D02*
X032000Y001431D01*
X032000Y001193D02*
X024871Y001193D01*
X024500Y001193D02*
X024500Y001193D01*
X024500Y001020D02*
X024500Y001500D01*
X024500Y001500D01*
X024500Y001500D01*
X024020Y001500D01*
X024020Y001699D01*
X024301Y001980D01*
X024500Y001980D01*
X024500Y001500D01*
X024020Y001500D01*
X024020Y001301D01*
X024301Y001020D01*
X024500Y001020D01*
X024129Y001193D02*
X023900Y001193D01*
X024000Y001431D02*
X024020Y001431D01*
X024000Y001670D02*
X024020Y001670D01*
X023940Y001908D02*
X024229Y001908D01*
X024500Y001908D02*
X024500Y001908D01*
X024500Y001670D02*
X024500Y001670D01*
X024500Y001431D02*
X024500Y001431D01*
X023940Y002147D02*
X032000Y002147D01*
X032000Y002385D02*
X023940Y002385D01*
X023060Y002385D02*
X015727Y002385D01*
X015728Y002388D02*
X015740Y002462D01*
X015740Y002500D01*
X015740Y002538D01*
X015728Y002612D01*
X015705Y002684D01*
X015671Y002752D01*
X015626Y002813D01*
X015573Y002866D01*
X015512Y002911D01*
X015444Y002945D01*
X015372Y002968D01*
X015298Y002980D01*
X015000Y002980D01*
X015000Y002500D01*
X015000Y002500D01*
X015740Y002500D01*
X015000Y002500D01*
X015000Y002500D01*
X015000Y002980D01*
X014702Y002980D01*
X014628Y002968D01*
X014556Y002945D01*
X014488Y002911D01*
X014427Y002866D01*
X014374Y002813D01*
X014329Y002752D01*
X014295Y002684D01*
X014272Y002612D01*
X014260Y002538D01*
X014260Y002500D01*
X015000Y002500D01*
X015000Y002020D01*
X015298Y002020D01*
X015372Y002032D01*
X015444Y002055D01*
X015512Y002089D01*
X015573Y002134D01*
X015626Y002187D01*
X015671Y002248D01*
X015705Y002316D01*
X015728Y002388D01*
X015725Y002624D02*
X023060Y002624D01*
X023000Y002862D02*
X015577Y002862D01*
X015543Y003076D02*
X015684Y003217D01*
X015760Y003401D01*
X015760Y003599D01*
X015684Y003783D01*
X015543Y003924D01*
X015359Y004000D01*
X015543Y004076D01*
X015684Y004217D01*
X015760Y004401D01*
X015760Y004599D01*
X015684Y004783D01*
X015543Y004924D01*
X015359Y005000D01*
X015543Y005076D01*
X015684Y005217D01*
X015760Y005401D01*
X015760Y005599D01*
X015684Y005783D01*
X015543Y005924D01*
X015359Y006000D01*
X014641Y006000D01*
X014457Y005924D01*
X014316Y005783D01*
X014240Y005599D01*
X014240Y005401D01*
X014316Y005217D01*
X014457Y005076D01*
X014641Y005000D01*
X015359Y005000D01*
X014641Y005000D01*
X014457Y004924D01*
X014316Y004783D01*
X014240Y004599D01*
X014240Y004401D01*
X014316Y004217D01*
X014457Y004076D01*
X014641Y004000D01*
X015359Y004000D01*
X014641Y004000D01*
X014457Y003924D01*
X014316Y003783D01*
X014240Y003599D01*
X014240Y003401D01*
X014316Y003217D01*
X014457Y003076D01*
X014641Y003000D01*
X015359Y003000D01*
X015543Y003076D01*
X015568Y003101D02*
X017192Y003101D01*
X017293Y003000D02*
X017000Y003293D01*
X017000Y003707D01*
X017293Y004000D01*
X017707Y004000D01*
X018000Y003707D01*
X018000Y003293D01*
X017707Y003000D01*
X017293Y003000D01*
X017000Y003339D02*
X015735Y003339D01*
X015760Y003578D02*
X017000Y003578D01*
X017109Y003816D02*
X015651Y003816D01*
X015491Y004055D02*
X022985Y004055D01*
X023019Y003816D02*
X021891Y003816D01*
X022000Y003707D02*
X021707Y004000D01*
X021293Y004000D01*
X021000Y003707D01*
X021000Y003293D01*
X021293Y003000D01*
X021707Y003000D01*
X022000Y003293D01*
X022000Y003707D01*
X022000Y003578D02*
X023194Y003578D01*
X023111Y003339D02*
X022000Y003339D01*
X021808Y003101D02*
X022985Y003101D01*
X023806Y003578D02*
X024560Y003578D01*
X024560Y003816D02*
X023981Y003816D01*
X024015Y004055D02*
X024560Y004055D01*
X024560Y004293D02*
X023940Y004293D01*
X023940Y004532D02*
X024560Y004532D01*
X024560Y004770D02*
X023962Y004770D01*
X024015Y005009D02*
X024560Y005009D01*
X024560Y005247D02*
X023955Y005247D01*
X023674Y005486D02*
X024560Y005486D01*
X024560Y005724D02*
X023911Y005724D01*
X023995Y005963D02*
X024560Y005963D01*
X024560Y006201D02*
X023953Y006201D01*
X023728Y006440D02*
X024560Y006440D01*
X024560Y006678D02*
X016357Y006678D01*
X016480Y006801D02*
X016199Y006520D01*
X016000Y006520D01*
X016000Y007000D01*
X016480Y007000D01*
X016480Y007199D01*
X016199Y007480D01*
X016000Y007480D01*
X016000Y007000D01*
X016000Y007000D01*
X016000Y007000D01*
X016480Y007000D01*
X016480Y006801D01*
X016480Y006917D02*
X024560Y006917D01*
X024560Y007155D02*
X016480Y007155D01*
X016285Y007394D02*
X024560Y007394D01*
X024500Y007632D02*
X020311Y007632D01*
X020199Y007520D02*
X020480Y007801D01*
X020480Y008000D01*
X020480Y008199D01*
X020199Y008480D01*
X020000Y008480D01*
X020000Y008000D01*
X020480Y008000D01*
X020000Y008000D01*
X020000Y008000D01*
X020000Y008000D01*
X020000Y007520D01*
X020199Y007520D01*
X020000Y007520D02*
X020000Y008000D01*
X020000Y008000D01*
X020000Y008000D01*
X019520Y008000D01*
X019520Y008199D01*
X019801Y008480D01*
X020000Y008480D01*
X020000Y008000D01*
X019520Y008000D01*
X019520Y007801D01*
X019801Y007520D01*
X020000Y007520D01*
X020000Y007632D02*
X020000Y007632D01*
X020000Y007871D02*
X020000Y007871D01*
X020000Y008109D02*
X020000Y008109D01*
X020000Y008348D02*
X020000Y008348D01*
X020331Y008348D02*
X024560Y008348D01*
X024560Y008586D02*
X014000Y008586D01*
X014000Y008348D02*
X018640Y008348D01*
X018500Y008207D02*
X018500Y007793D01*
X018793Y007500D01*
X019207Y007500D01*
X019500Y007793D01*
X019500Y008207D01*
X019207Y008500D01*
X018793Y008500D01*
X018500Y008207D01*
X018500Y008109D02*
X014000Y008109D01*
X014000Y007871D02*
X018500Y007871D01*
X018661Y007632D02*
X014000Y007632D01*
X014000Y007394D02*
X014686Y007394D01*
X014793Y007500D02*
X014500Y007207D01*
X014500Y006793D01*
X014793Y006500D01*
X015207Y006500D01*
X015500Y006793D01*
X015500Y007207D01*
X015207Y007500D01*
X014793Y007500D01*
X014500Y007155D02*
X014000Y007155D01*
X014000Y006917D02*
X014500Y006917D01*
X014615Y006678D02*
X014000Y006678D01*
X014000Y006440D02*
X017232Y006440D01*
X017293Y006500D02*
X017000Y006207D01*
X017000Y005793D01*
X017293Y005500D01*
X017000Y005207D01*
X017000Y004793D01*
X017293Y004500D01*
X017707Y004500D01*
X018000Y004793D01*
X018000Y005207D01*
X017707Y005500D01*
X017293Y005500D01*
X017707Y005500D01*
X018000Y005793D01*
X018000Y006207D01*
X017707Y006500D01*
X017293Y006500D01*
X017000Y006201D02*
X014000Y006201D01*
X014000Y005963D02*
X014550Y005963D01*
X014292Y005724D02*
X014000Y005724D01*
X014000Y005486D02*
X014240Y005486D01*
X014304Y005247D02*
X014000Y005247D01*
X014000Y005009D02*
X014620Y005009D01*
X014311Y004770D02*
X014000Y004770D01*
X014000Y004532D02*
X014240Y004532D01*
X014285Y004293D02*
X014000Y004293D01*
X014000Y004055D02*
X014509Y004055D01*
X014349Y003816D02*
X014000Y003816D01*
X014000Y003578D02*
X014240Y003578D01*
X014265Y003339D02*
X014000Y003339D01*
X014000Y003101D02*
X014432Y003101D01*
X014423Y002862D02*
X014000Y002862D01*
X014000Y002624D02*
X014275Y002624D01*
X014260Y002500D02*
X014260Y002462D01*
X014272Y002388D01*
X014295Y002316D01*
X014329Y002248D01*
X014374Y002187D01*
X014427Y002134D01*
X014488Y002089D01*
X014556Y002055D01*
X014628Y002032D01*
X014702Y002020D01*
X015000Y002020D01*
X015000Y002500D01*
X015000Y002500D01*
X015000Y002500D01*
X014260Y002500D01*
X014273Y002385D02*
X014000Y002385D01*
X014000Y002147D02*
X014415Y002147D01*
X014000Y001908D02*
X018701Y001908D01*
X018793Y002000D02*
X018500Y001707D01*
X018500Y001293D01*
X018793Y001000D01*
X019207Y001000D01*
X019500Y001293D01*
X019500Y001707D01*
X019207Y002000D01*
X018793Y002000D01*
X018500Y001670D02*
X014000Y001670D01*
X014000Y001431D02*
X014724Y001431D01*
X014500Y001193D02*
X014000Y001193D01*
X014000Y000954D02*
X014500Y000954D01*
X014577Y000716D02*
X014000Y000716D01*
X015423Y000716D02*
X015606Y000716D01*
X015520Y000801D02*
X015801Y000520D01*
X016000Y000520D01*
X016199Y000520D01*
X016480Y000801D01*
X016480Y001000D01*
X016480Y001199D01*
X016199Y001480D01*
X016000Y001480D01*
X016000Y001000D01*
X016480Y001000D01*
X016000Y001000D01*
X016000Y001000D01*
X016000Y001000D01*
X016000Y000520D01*
X016000Y001000D01*
X016000Y001000D01*
X016000Y001000D01*
X015520Y001000D01*
X015520Y001199D01*
X015801Y001480D01*
X016000Y001480D01*
X016000Y001000D01*
X015520Y001000D01*
X015520Y000801D01*
X015520Y000954D02*
X015500Y000954D01*
X015500Y001193D02*
X015520Y001193D01*
X015752Y001431D02*
X015276Y001431D01*
X016000Y001431D02*
X016000Y001431D01*
X016000Y001193D02*
X016000Y001193D01*
X016000Y000954D02*
X016000Y000954D01*
X016000Y000716D02*
X016000Y000716D01*
X016394Y000716D02*
X032000Y000716D01*
X032000Y000954D02*
X016480Y000954D01*
X016480Y001193D02*
X018600Y001193D01*
X018500Y001431D02*
X016248Y001431D01*
X015585Y002147D02*
X023060Y002147D01*
X023060Y001908D02*
X020271Y001908D01*
X020199Y001980D02*
X020000Y001980D01*
X020000Y001500D01*
X020480Y001500D01*
X020480Y001699D01*
X020199Y001980D01*
X020000Y001980D02*
X019801Y001980D01*
X019520Y001699D01*
X019520Y001500D01*
X020000Y001500D01*
X020000Y001500D01*
X020000Y001500D01*
X020480Y001500D01*
X020480Y001301D01*
X020199Y001020D01*
X020000Y001020D01*
X020000Y001500D01*
X020000Y001500D01*
X020000Y001500D01*
X020000Y001980D01*
X020000Y001908D02*
X020000Y001908D01*
X020000Y001670D02*
X020000Y001670D01*
X020000Y001500D02*
X019520Y001500D01*
X019520Y001301D01*
X019801Y001020D01*
X020000Y001020D01*
X020000Y001500D01*
X020000Y001431D02*
X020000Y001431D01*
X020000Y001193D02*
X020000Y001193D01*
X020371Y001193D02*
X023100Y001193D01*
X023000Y001431D02*
X020480Y001431D01*
X020480Y001670D02*
X023000Y001670D01*
X021192Y003101D02*
X017808Y003101D01*
X018000Y003339D02*
X021000Y003339D01*
X021000Y003578D02*
X018000Y003578D01*
X017891Y003816D02*
X021109Y003816D01*
X021293Y004500D02*
X021707Y004500D01*
X022000Y004793D01*
X022000Y005207D01*
X021707Y005500D01*
X022000Y005793D01*
X022000Y006207D01*
X021707Y006500D01*
X021293Y006500D01*
X021000Y006207D01*
X021000Y005793D01*
X021293Y005500D01*
X021707Y005500D01*
X021293Y005500D01*
X021000Y005207D01*
X021000Y004793D01*
X021293Y004500D01*
X021261Y004532D02*
X017739Y004532D01*
X017977Y004770D02*
X021023Y004770D01*
X021000Y005009D02*
X018000Y005009D01*
X017960Y005247D02*
X021040Y005247D01*
X021278Y005486D02*
X017722Y005486D01*
X017931Y005724D02*
X021069Y005724D01*
X021000Y005963D02*
X018000Y005963D01*
X018000Y006201D02*
X021000Y006201D01*
X021232Y006440D02*
X017768Y006440D01*
X017000Y005963D02*
X015450Y005963D01*
X015708Y005724D02*
X017069Y005724D01*
X017278Y005486D02*
X015760Y005486D01*
X015696Y005247D02*
X017040Y005247D01*
X017000Y005009D02*
X015380Y005009D01*
X015689Y004770D02*
X017023Y004770D01*
X017261Y004532D02*
X015760Y004532D01*
X015715Y004293D02*
X023060Y004293D01*
X023060Y004532D02*
X021739Y004532D01*
X021977Y004770D02*
X023038Y004770D01*
X022985Y005009D02*
X022000Y005009D01*
X021960Y005247D02*
X023045Y005247D01*
X023326Y005486D02*
X021722Y005486D01*
X021931Y005724D02*
X023089Y005724D01*
X023005Y005963D02*
X022000Y005963D01*
X022000Y006201D02*
X023047Y006201D01*
X023272Y006440D02*
X021768Y006440D01*
X023500Y006440D02*
X023500Y006440D01*
X023500Y006201D02*
X023500Y006201D01*
X023602Y005515D02*
X023602Y005515D01*
X025500Y007632D02*
X025520Y007632D01*
X025500Y007871D02*
X025520Y007871D01*
X025440Y008109D02*
X025680Y008109D01*
X026000Y008109D02*
X026000Y008109D01*
X026000Y007871D02*
X026000Y007871D01*
X026000Y007632D02*
X026000Y007632D01*
X025440Y008348D02*
X032000Y008348D01*
X032000Y008586D02*
X025440Y008586D01*
X024560Y008825D02*
X015482Y008825D01*
X015512Y008839D02*
X015573Y008884D01*
X015626Y008937D01*
X015671Y008998D01*
X015705Y009066D01*
X015728Y009138D01*
X015740Y009212D01*
X015740Y009250D01*
X015740Y009288D01*
X015728Y009362D01*
X015705Y009434D01*
X015671Y009502D01*
X015626Y009563D01*
X015573Y009616D01*
X015512Y009661D01*
X015444Y009695D01*
X015372Y009718D01*
X015298Y009730D01*
X015000Y009730D01*
X015000Y009250D01*
X015000Y009250D01*
X015740Y009250D01*
X015000Y009250D01*
X015000Y009250D01*
X015000Y009730D01*
X014702Y009730D01*
X014628Y009718D01*
X014556Y009695D01*
X014488Y009661D01*
X014427Y009616D01*
X014374Y009563D01*
X014329Y009502D01*
X014295Y009434D01*
X014272Y009362D01*
X014260Y009288D01*
X014260Y009250D01*
X015000Y009250D01*
X015000Y008770D01*
X015298Y008770D01*
X015372Y008782D01*
X015444Y008805D01*
X015512Y008839D01*
X015703Y009063D02*
X023209Y009063D01*
X023025Y009302D02*
X015738Y009302D01*
X015643Y009540D02*
X017253Y009540D01*
X017293Y009500D02*
X017000Y009793D01*
X017000Y010207D01*
X017293Y010500D01*
X017707Y010500D01*
X018000Y010207D01*
X018000Y009793D01*
X017707Y009500D01*
X017293Y009500D01*
X017014Y009779D02*
X015428Y009779D01*
X015359Y009750D02*
X015543Y009826D01*
X015684Y009967D01*
X015760Y010151D01*
X015760Y010349D01*
X015684Y010533D01*
X015543Y010674D01*
X015359Y010750D01*
X015543Y010826D01*
X015684Y010967D01*
X015760Y011151D01*
X015760Y011349D01*
X015684Y011533D01*
X015543Y011674D01*
X015359Y011750D01*
X015543Y011826D01*
X015684Y011967D01*
X015760Y012151D01*
X015760Y012349D01*
X015684Y012533D01*
X015543Y012674D01*
X015359Y012750D01*
X014641Y012750D01*
X014457Y012674D01*
X014316Y012533D01*
X014240Y012349D01*
X014240Y012151D01*
X014316Y011967D01*
X014457Y011826D01*
X014641Y011750D01*
X015359Y011750D01*
X014641Y011750D01*
X014457Y011674D01*
X014316Y011533D01*
X014240Y011349D01*
X014240Y011151D01*
X014316Y010967D01*
X014457Y010826D01*
X014641Y010750D01*
X015359Y010750D01*
X014641Y010750D01*
X014457Y010674D01*
X014316Y010533D01*
X014240Y010349D01*
X014240Y010151D01*
X014316Y009967D01*
X014457Y009826D01*
X014641Y009750D01*
X015359Y009750D01*
X015000Y009540D02*
X015000Y009540D01*
X015000Y009302D02*
X015000Y009302D01*
X015000Y009250D02*
X015000Y009250D01*
X015000Y009250D01*
X015000Y008770D01*
X014702Y008770D01*
X014628Y008782D01*
X014556Y008805D01*
X014488Y008839D01*
X014427Y008884D01*
X014374Y008937D01*
X014329Y008998D01*
X014295Y009066D01*
X014272Y009138D01*
X014260Y009212D01*
X014260Y009250D01*
X015000Y009250D01*
X015000Y009063D02*
X015000Y009063D01*
X015000Y008825D02*
X015000Y008825D01*
X014518Y008825D02*
X014000Y008825D01*
X014000Y009063D02*
X014297Y009063D01*
X014262Y009302D02*
X014000Y009302D01*
X014000Y009540D02*
X014357Y009540D01*
X014572Y009779D02*
X014000Y009779D01*
X014000Y010017D02*
X014295Y010017D01*
X014240Y010256D02*
X014000Y010256D01*
X014000Y010494D02*
X014300Y010494D01*
X014598Y010733D02*
X014000Y010733D01*
X014000Y010971D02*
X014314Y010971D01*
X014240Y011210D02*
X014000Y011210D01*
X014000Y011448D02*
X014281Y011448D01*
X014487Y011687D02*
X014000Y011687D01*
X014000Y011925D02*
X014358Y011925D01*
X014240Y012164D02*
X014000Y012164D01*
X014000Y012402D02*
X014262Y012402D01*
X014423Y012641D02*
X014000Y012641D01*
X014000Y012879D02*
X017172Y012879D01*
X017293Y013000D02*
X017000Y012707D01*
X017000Y012293D01*
X017293Y012000D01*
X017000Y011707D01*
X017000Y011293D01*
X017293Y011000D01*
X017707Y011000D01*
X018000Y011293D01*
X018000Y011707D01*
X017707Y012000D01*
X017293Y012000D01*
X017707Y012000D01*
X018000Y012293D01*
X018000Y012707D01*
X017707Y013000D01*
X017293Y013000D01*
X017000Y012641D02*
X015577Y012641D01*
X015738Y012402D02*
X017000Y012402D01*
X017129Y012164D02*
X015760Y012164D01*
X015642Y011925D02*
X017218Y011925D01*
X017000Y011687D02*
X015513Y011687D01*
X015719Y011448D02*
X017000Y011448D01*
X017083Y011210D02*
X015760Y011210D01*
X015686Y010971D02*
X023060Y010971D01*
X023060Y011210D02*
X021917Y011210D01*
X022000Y011293D02*
X021707Y011000D01*
X021293Y011000D01*
X021000Y011293D01*
X021000Y011707D01*
X021293Y012000D01*
X021707Y012000D01*
X022000Y012293D01*
X022000Y012707D01*
X021707Y013000D01*
X021293Y013000D01*
X021000Y012707D01*
X021000Y012293D01*
X021293Y012000D01*
X021707Y012000D01*
X022000Y011707D01*
X022000Y011293D01*
X022000Y011448D02*
X022985Y011448D01*
X023020Y011687D02*
X022000Y011687D01*
X021782Y011925D02*
X023197Y011925D01*
X023136Y012164D02*
X021871Y012164D01*
X022000Y012402D02*
X023014Y012402D01*
X023025Y012641D02*
X022000Y012641D01*
X021828Y012879D02*
X023180Y012879D01*
X023500Y012879D02*
X023500Y012879D01*
X023500Y012641D02*
X023500Y012641D01*
X023820Y012879D02*
X024560Y012879D01*
X024560Y012641D02*
X023975Y012641D01*
X023986Y012402D02*
X024560Y012402D01*
X024560Y012164D02*
X023864Y012164D01*
X023803Y011925D02*
X024560Y011925D01*
X024560Y011687D02*
X023980Y011687D01*
X024015Y011448D02*
X024560Y011448D01*
X024560Y011210D02*
X023940Y011210D01*
X023940Y010971D02*
X024560Y010971D01*
X024560Y010733D02*
X023961Y010733D01*
X024015Y010494D02*
X024560Y010494D01*
X024560Y010256D02*
X023956Y010256D01*
X023680Y010017D02*
X024560Y010017D01*
X023320Y010017D02*
X022000Y010017D01*
X022000Y010207D02*
X021707Y010500D01*
X021293Y010500D01*
X021000Y010207D01*
X021000Y009793D01*
X021293Y009500D01*
X021707Y009500D01*
X022000Y009793D01*
X022000Y010207D01*
X021952Y010256D02*
X023044Y010256D01*
X022985Y010494D02*
X021713Y010494D01*
X021287Y010494D02*
X017713Y010494D01*
X017952Y010256D02*
X021048Y010256D01*
X021000Y010017D02*
X018000Y010017D01*
X017986Y009779D02*
X021014Y009779D01*
X021253Y009540D02*
X017747Y009540D01*
X017000Y010017D02*
X015705Y010017D01*
X015760Y010256D02*
X017048Y010256D01*
X017287Y010494D02*
X015700Y010494D01*
X015402Y010733D02*
X023039Y010733D01*
X023058Y009779D02*
X021986Y009779D01*
X021747Y009540D02*
X022985Y009540D01*
X024560Y008109D02*
X020480Y008109D01*
X020480Y007871D02*
X024500Y007871D01*
X026500Y006201D02*
X026500Y006201D01*
X026953Y006201D02*
X028494Y006201D01*
X028543Y006250D02*
X028250Y005957D01*
X028250Y005543D01*
X028543Y005250D01*
X028957Y005250D01*
X029250Y005543D01*
X029250Y005957D01*
X028957Y006250D01*
X028543Y006250D01*
X028255Y005963D02*
X026995Y005963D01*
X026911Y005724D02*
X028250Y005724D01*
X028307Y005486D02*
X026674Y005486D01*
X026955Y005247D02*
X032000Y005247D01*
X032000Y005009D02*
X027015Y005009D01*
X026962Y004770D02*
X032000Y004770D01*
X032000Y004532D02*
X026715Y004532D01*
X026935Y004293D02*
X027336Y004293D01*
X027250Y004207D02*
X027543Y004500D01*
X027957Y004500D01*
X028250Y004207D01*
X028250Y003793D01*
X027957Y003500D01*
X027543Y003500D01*
X027250Y003793D01*
X027250Y004207D01*
X027250Y004055D02*
X027015Y004055D01*
X026981Y003816D02*
X027250Y003816D01*
X027465Y003578D02*
X026806Y003578D01*
X027008Y003339D02*
X032000Y003339D01*
X032000Y003101D02*
X027015Y003101D01*
X027015Y002862D02*
X032000Y002862D01*
X032000Y002624D02*
X026993Y002624D01*
X028035Y003578D02*
X031494Y003578D01*
X031551Y003520D02*
X031270Y003801D01*
X031270Y004000D01*
X031750Y004000D01*
X031750Y004000D01*
X031750Y004000D01*
X031750Y003520D01*
X031551Y003520D01*
X031750Y003578D02*
X031750Y003578D01*
X031750Y003816D02*
X031750Y003816D01*
X031750Y004055D02*
X031750Y004055D01*
X031750Y004293D02*
X031750Y004293D01*
X031364Y004293D02*
X028164Y004293D01*
X028250Y004055D02*
X031270Y004055D01*
X031270Y003816D02*
X028250Y003816D01*
X029193Y005486D02*
X032000Y005486D01*
X032000Y005724D02*
X029250Y005724D01*
X029245Y005963D02*
X032000Y005963D01*
X032000Y006201D02*
X029006Y006201D01*
X029124Y006917D02*
X032000Y006917D01*
X032000Y007155D02*
X029250Y007155D01*
X029250Y007394D02*
X032000Y007394D01*
X032000Y007632D02*
X029075Y007632D01*
X026136Y012164D02*
X025440Y012164D01*
X025440Y012402D02*
X026014Y012402D01*
X026025Y012641D02*
X025440Y012641D01*
X025440Y012879D02*
X026180Y012879D01*
X026500Y012879D02*
X026500Y012879D01*
X026500Y012641D02*
X026500Y012641D01*
X026820Y012879D02*
X028414Y012879D01*
X028250Y013118D02*
X025440Y013118D01*
X025440Y013356D02*
X028250Y013356D01*
X028387Y013595D02*
X025440Y013595D01*
X024560Y013595D02*
X016273Y013595D01*
X016199Y013520D02*
X016480Y013801D01*
X016480Y014000D01*
X016480Y014199D01*
X016199Y014480D01*
X016000Y014480D01*
X016000Y014000D01*
X016480Y014000D01*
X016000Y014000D01*
X016000Y014000D01*
X016000Y014000D01*
X016000Y013520D01*
X016199Y013520D01*
X016000Y013520D02*
X016000Y014000D01*
X016000Y014000D01*
X016000Y014000D01*
X015520Y014000D01*
X015520Y014199D01*
X015801Y014480D01*
X016000Y014480D01*
X016000Y014000D01*
X015520Y014000D01*
X015520Y013801D01*
X015801Y013520D01*
X016000Y013520D01*
X016000Y013595D02*
X016000Y013595D01*
X016000Y013833D02*
X016000Y013833D01*
X016000Y014072D02*
X016000Y014072D01*
X016000Y014310D02*
X016000Y014310D01*
X016369Y014310D02*
X024500Y014310D01*
X024500Y014549D02*
X020227Y014549D01*
X020199Y014520D02*
X020480Y014801D01*
X020480Y015000D01*
X020480Y015199D01*
X020199Y015480D01*
X020000Y015480D01*
X020000Y015000D01*
X020480Y015000D01*
X020000Y015000D01*
X020000Y015000D01*
X020000Y015000D01*
X020000Y014520D01*
X020199Y014520D01*
X020000Y014520D02*
X020000Y015000D01*
X020000Y015000D01*
X020000Y015000D01*
X019520Y015000D01*
X019520Y015199D01*
X019801Y015480D01*
X020000Y015480D01*
X020000Y015000D01*
X019520Y015000D01*
X019520Y014801D01*
X019801Y014520D01*
X020000Y014520D01*
X020000Y014549D02*
X020000Y014549D01*
X019773Y014549D02*
X019256Y014549D01*
X019207Y014500D02*
X019500Y014793D01*
X019500Y015207D01*
X019207Y015500D01*
X018793Y015500D01*
X018500Y015207D01*
X018500Y014793D01*
X018793Y014500D01*
X019207Y014500D01*
X019494Y014787D02*
X019534Y014787D01*
X019520Y015026D02*
X019500Y015026D01*
X019443Y015264D02*
X019585Y015264D01*
X020000Y015264D02*
X020000Y015264D01*
X020000Y015026D02*
X020000Y015026D01*
X020000Y014787D02*
X020000Y014787D01*
X020466Y014787D02*
X024560Y014787D01*
X024560Y015026D02*
X020480Y015026D01*
X020415Y015264D02*
X024560Y015264D01*
X024560Y015503D02*
X014000Y015503D01*
X014000Y015741D02*
X014335Y015741D01*
X014329Y015748D02*
X014374Y015687D01*
X014427Y015634D01*
X014488Y015589D01*
X014556Y015555D01*
X014628Y015532D01*
X014702Y015520D01*
X015000Y015520D01*
X015298Y015520D01*
X015372Y015532D01*
X015444Y015555D01*
X015512Y015589D01*
X015573Y015634D01*
X015626Y015687D01*
X015671Y015748D01*
X015705Y015816D01*
X015728Y015888D01*
X015740Y015962D01*
X015740Y016000D01*
X015740Y016038D01*
X015728Y016112D01*
X015705Y016184D01*
X015671Y016252D01*
X015626Y016313D01*
X015573Y016366D01*
X015512Y016411D01*
X015444Y016445D01*
X015372Y016468D01*
X015298Y016480D01*
X015000Y016480D01*
X015000Y016000D01*
X015000Y016000D01*
X015740Y016000D01*
X015000Y016000D01*
X015000Y016000D01*
X015000Y016480D01*
X014702Y016480D01*
X014628Y016468D01*
X014556Y016445D01*
X014488Y016411D01*
X014427Y016366D01*
X014374Y016313D01*
X014329Y016252D01*
X014295Y016184D01*
X014272Y016112D01*
X014260Y016038D01*
X014260Y016000D01*
X015000Y016000D01*
X015000Y015520D01*
X015000Y016000D01*
X015000Y016000D01*
X015000Y016000D01*
X014260Y016000D01*
X014260Y015962D01*
X014272Y015888D01*
X014295Y015816D01*
X014329Y015748D01*
X014260Y015980D02*
X014000Y015980D01*
X014000Y016218D02*
X014312Y016218D01*
X014592Y016457D02*
X014000Y016457D01*
X014000Y016695D02*
X014338Y016695D01*
X014316Y016717D02*
X014457Y016576D01*
X014641Y016500D01*
X015359Y016500D01*
X015543Y016576D01*
X015684Y016717D01*
X015760Y016901D01*
X015760Y017099D01*
X015684Y017283D01*
X015543Y017424D01*
X015359Y017500D01*
X015543Y017576D01*
X015684Y017717D01*
X015760Y017901D01*
X015760Y018099D01*
X015684Y018283D01*
X015543Y018424D01*
X015359Y018500D01*
X015543Y018576D01*
X015684Y018717D01*
X015760Y018901D01*
X015760Y019099D01*
X015684Y019283D01*
X015543Y019424D01*
X015359Y019500D01*
X014641Y019500D01*
X014457Y019424D01*
X014316Y019283D01*
X014240Y019099D01*
X014240Y018901D01*
X014316Y018717D01*
X014457Y018576D01*
X014641Y018500D01*
X015359Y018500D01*
X014641Y018500D01*
X014457Y018424D01*
X014316Y018283D01*
X014240Y018099D01*
X014240Y017901D01*
X014316Y017717D01*
X014457Y017576D01*
X014641Y017500D01*
X015359Y017500D01*
X014641Y017500D01*
X014457Y017424D01*
X014316Y017283D01*
X014240Y017099D01*
X014240Y016901D01*
X014316Y016717D01*
X014240Y016934D02*
X014000Y016934D01*
X014000Y017172D02*
X014270Y017172D01*
X014443Y017411D02*
X014000Y017411D01*
X014000Y017649D02*
X014384Y017649D01*
X014245Y017888D02*
X014000Y017888D01*
X014000Y018126D02*
X014251Y018126D01*
X014397Y018365D02*
X014000Y018365D01*
X014000Y018603D02*
X014430Y018603D01*
X014264Y018842D02*
X014000Y018842D01*
X014000Y019080D02*
X014240Y019080D01*
X014351Y019319D02*
X014000Y019319D01*
X014000Y019557D02*
X017000Y019557D01*
X017000Y019707D02*
X017000Y019293D01*
X017293Y019000D01*
X017000Y018707D01*
X017000Y018293D01*
X017293Y018000D01*
X017707Y018000D01*
X018000Y018293D01*
X018000Y018707D01*
X017707Y019000D01*
X017293Y019000D01*
X017707Y019000D01*
X018000Y019293D01*
X018000Y019707D01*
X017707Y020000D01*
X017293Y020000D01*
X017000Y019707D01*
X017088Y019796D02*
X014000Y019796D01*
X014000Y020034D02*
X024560Y020034D01*
X024560Y019796D02*
X021912Y019796D01*
X022000Y019707D02*
X021707Y020000D01*
X021293Y020000D01*
X021000Y019707D01*
X021000Y019293D01*
X021293Y019000D01*
X021707Y019000D01*
X022000Y019293D01*
X022000Y019707D01*
X022000Y019557D02*
X023111Y019557D01*
X023010Y019319D02*
X022000Y019319D01*
X021787Y019080D02*
X023035Y019080D01*
X023220Y018842D02*
X021866Y018842D01*
X022000Y018707D02*
X021707Y019000D01*
X021293Y019000D01*
X021000Y018707D01*
X021000Y018293D01*
X021293Y018000D01*
X021707Y018000D01*
X022000Y018293D01*
X022000Y018707D01*
X022000Y018603D02*
X023125Y018603D01*
X022990Y018365D02*
X022000Y018365D01*
X021833Y018126D02*
X022994Y018126D01*
X023060Y017888D02*
X015755Y017888D01*
X015749Y018126D02*
X017167Y018126D01*
X017000Y018365D02*
X015603Y018365D01*
X015570Y018603D02*
X017000Y018603D01*
X017134Y018842D02*
X015736Y018842D01*
X015760Y019080D02*
X017213Y019080D01*
X017000Y019319D02*
X015649Y019319D01*
X015616Y017649D02*
X023060Y017649D01*
X023009Y017411D02*
X021797Y017411D01*
X021707Y017500D02*
X022000Y017207D01*
X022000Y016793D01*
X021707Y016500D01*
X021293Y016500D01*
X021000Y016793D01*
X021000Y017207D01*
X021293Y017500D01*
X021707Y017500D01*
X022000Y017172D02*
X022985Y017172D01*
X023088Y016934D02*
X022000Y016934D01*
X021902Y016695D02*
X023229Y016695D01*
X023028Y016457D02*
X015408Y016457D01*
X015662Y016695D02*
X017098Y016695D01*
X017000Y016793D02*
X017293Y016500D01*
X017707Y016500D01*
X018000Y016793D01*
X018000Y017207D01*
X017707Y017500D01*
X017293Y017500D01*
X017000Y017207D01*
X017000Y016793D01*
X017000Y016934D02*
X015760Y016934D01*
X015730Y017172D02*
X017000Y017172D01*
X017203Y017411D02*
X015557Y017411D01*
X015000Y016457D02*
X015000Y016457D01*
X015000Y016218D02*
X015000Y016218D01*
X015000Y015980D02*
X015000Y015980D01*
X015000Y015741D02*
X015000Y015741D01*
X015665Y015741D02*
X023383Y015741D01*
X023617Y015741D02*
X024560Y015741D01*
X024560Y016695D02*
X023771Y016695D01*
X023912Y016934D02*
X024560Y016934D01*
X024560Y017172D02*
X024015Y017172D01*
X023991Y017411D02*
X024560Y017411D01*
X024560Y017649D02*
X023940Y017649D01*
X023940Y017888D02*
X024560Y017888D01*
X024560Y018126D02*
X024006Y018126D01*
X024010Y018365D02*
X024560Y018365D01*
X024560Y018603D02*
X023875Y018603D01*
X023780Y018842D02*
X024560Y018842D01*
X024560Y019080D02*
X023965Y019080D01*
X023990Y019319D02*
X024560Y019319D01*
X024560Y019557D02*
X023889Y019557D01*
X023500Y019557D02*
X023500Y019557D01*
X023500Y019319D02*
X023500Y019319D01*
X023602Y018765D02*
X023602Y018765D01*
X021213Y019080D02*
X017787Y019080D01*
X017866Y018842D02*
X021134Y018842D01*
X021000Y018603D02*
X018000Y018603D01*
X018000Y018365D02*
X021000Y018365D01*
X021167Y018126D02*
X017833Y018126D01*
X017797Y017411D02*
X021203Y017411D01*
X021000Y017172D02*
X018000Y017172D01*
X018000Y016934D02*
X021000Y016934D01*
X021098Y016695D02*
X017902Y016695D01*
X018557Y015264D02*
X014000Y015264D01*
X014000Y015026D02*
X018500Y015026D01*
X018506Y014787D02*
X014000Y014787D01*
X014000Y014549D02*
X018744Y014549D01*
X017828Y012879D02*
X021172Y012879D01*
X021000Y012641D02*
X018000Y012641D01*
X018000Y012402D02*
X021000Y012402D01*
X021129Y012164D02*
X017871Y012164D01*
X017782Y011925D02*
X021218Y011925D01*
X021000Y011687D02*
X018000Y011687D01*
X018000Y011448D02*
X021000Y011448D01*
X021083Y011210D02*
X017917Y011210D01*
X015727Y013595D02*
X015302Y013595D01*
X015207Y013500D02*
X015500Y013793D01*
X015500Y014207D01*
X015207Y014500D01*
X014793Y014500D01*
X014500Y014207D01*
X014500Y013793D01*
X014793Y013500D01*
X015207Y013500D01*
X015500Y013833D02*
X015520Y013833D01*
X015500Y014072D02*
X015520Y014072D01*
X015631Y014310D02*
X015397Y014310D01*
X014603Y014310D02*
X014000Y014310D01*
X014000Y014072D02*
X014500Y014072D01*
X014500Y013833D02*
X014000Y013833D01*
X014000Y013595D02*
X014698Y013595D01*
X014000Y013356D02*
X024560Y013356D01*
X024560Y013118D02*
X014000Y013118D01*
X016480Y013833D02*
X024560Y013833D01*
X024560Y014072D02*
X016480Y014072D01*
X015740Y015980D02*
X023055Y015980D01*
X022985Y016218D02*
X015688Y016218D01*
X018000Y019319D02*
X021000Y019319D01*
X021000Y019557D02*
X018000Y019557D01*
X017912Y019796D02*
X021088Y019796D01*
X019699Y021020D02*
X019980Y021301D01*
X019980Y021500D01*
X019980Y021699D01*
X019699Y021980D01*
X019500Y021980D01*
X019500Y021500D01*
X019980Y021500D01*
X019500Y021500D01*
X019500Y021500D01*
X019500Y021500D01*
X019500Y021020D01*
X019699Y021020D01*
X019500Y021020D02*
X019500Y021500D01*
X019500Y021500D01*
X019500Y021500D01*
X019020Y021500D01*
X019020Y021699D01*
X019301Y021980D01*
X019500Y021980D01*
X019500Y021500D01*
X019020Y021500D01*
X019020Y021301D01*
X019301Y021020D01*
X019500Y021020D01*
X019500Y021227D02*
X019500Y021227D01*
X019500Y021465D02*
X019500Y021465D01*
X019500Y021704D02*
X019500Y021704D01*
X019500Y021942D02*
X019500Y021942D01*
X019737Y021942D02*
X024560Y021942D01*
X024560Y021704D02*
X019975Y021704D01*
X019980Y021465D02*
X024560Y021465D01*
X024519Y021227D02*
X019905Y021227D01*
X019095Y021227D02*
X018934Y021227D01*
X019000Y021465D02*
X019020Y021465D01*
X019000Y021704D02*
X019025Y021704D01*
X019263Y021942D02*
X018765Y021942D01*
X017842Y023135D02*
X021158Y023135D01*
X021000Y023373D02*
X018000Y023373D01*
X018000Y023612D02*
X021000Y023612D01*
X021143Y023850D02*
X017857Y023850D01*
X019469Y028859D02*
X019609Y028859D01*
X020469Y028859D02*
X020609Y028859D01*
X021469Y028859D02*
X021609Y028859D01*
X022469Y028859D02*
X023809Y028859D01*
X023750Y029097D02*
X022559Y029097D01*
X022559Y029336D02*
X023806Y029336D01*
X023897Y029574D02*
X022559Y029574D01*
X022559Y029813D02*
X023770Y029813D01*
X023770Y030051D02*
X022447Y030051D01*
X021631Y030051D02*
X021447Y030051D01*
X020631Y030051D02*
X020447Y030051D01*
X019631Y030051D02*
X019447Y030051D01*
X023500Y026474D02*
X023500Y026474D01*
X023500Y026235D02*
X023500Y026235D01*
X023602Y025515D02*
X023602Y025515D01*
X028126Y022419D02*
X031402Y022419D01*
X031270Y022658D02*
X028250Y022658D01*
X028250Y022896D02*
X031270Y022896D01*
X032000Y019557D02*
X026889Y019557D01*
X026990Y019319D02*
X028361Y019319D01*
X028250Y019207D02*
X028543Y019500D01*
X028957Y019500D01*
X029250Y019207D01*
X029250Y018793D01*
X028957Y018500D01*
X028543Y018500D01*
X028250Y018793D01*
X028250Y019207D01*
X028250Y019080D02*
X026965Y019080D01*
X026780Y018842D02*
X028250Y018842D01*
X028440Y018603D02*
X026875Y018603D01*
X027010Y018365D02*
X032000Y018365D01*
X032000Y018603D02*
X029060Y018603D01*
X029250Y018842D02*
X032000Y018842D01*
X032000Y019080D02*
X029250Y019080D01*
X029139Y019319D02*
X032000Y019319D01*
X032000Y018126D02*
X027006Y018126D01*
X026866Y017888D02*
X028430Y017888D01*
X028543Y018000D02*
X028250Y017707D01*
X028250Y017293D01*
X028543Y017000D01*
X028957Y017000D01*
X029250Y017293D01*
X029250Y017707D01*
X028957Y018000D01*
X028543Y018000D01*
X028250Y017649D02*
X026829Y017649D01*
X026991Y017411D02*
X028250Y017411D01*
X028371Y017172D02*
X027015Y017172D01*
X026912Y016934D02*
X032000Y016934D01*
X032000Y017172D02*
X029129Y017172D01*
X029250Y017411D02*
X032000Y017411D01*
X032000Y017649D02*
X029250Y017649D01*
X029070Y017888D02*
X032000Y017888D01*
X026500Y019319D02*
X026500Y019319D01*
X026500Y019557D02*
X026500Y019557D01*
X023602Y012015D02*
X023602Y012015D01*
X019669Y008348D02*
X019360Y008348D01*
X019500Y008109D02*
X019520Y008109D01*
X019500Y007871D02*
X019520Y007871D01*
X019689Y007632D02*
X019339Y007632D01*
X016000Y007480D02*
X016000Y007000D01*
X016000Y007000D01*
X016000Y007000D01*
X015520Y007000D01*
X015520Y007199D01*
X015801Y007480D01*
X016000Y007480D01*
X016000Y007394D02*
X016000Y007394D01*
X016000Y007155D02*
X016000Y007155D01*
X016000Y007000D02*
X015520Y007000D01*
X015520Y006801D01*
X015801Y006520D01*
X016000Y006520D01*
X016000Y007000D01*
X016000Y006917D02*
X016000Y006917D01*
X016000Y006678D02*
X016000Y006678D01*
X015643Y006678D02*
X015385Y006678D01*
X015500Y006917D02*
X015520Y006917D01*
X015500Y007155D02*
X015520Y007155D01*
X015715Y007394D02*
X015314Y007394D01*
X015000Y002862D02*
X015000Y002862D01*
X015000Y002624D02*
X015000Y002624D01*
X015000Y002385D02*
X015000Y002385D01*
X015000Y002147D02*
X015000Y002147D01*
X019299Y001908D02*
X019729Y001908D01*
X019520Y001670D02*
X019500Y001670D01*
X019500Y001431D02*
X019520Y001431D01*
X019629Y001193D02*
X019400Y001193D01*
X028891Y028859D02*
X030059Y028859D01*
X030000Y029097D02*
X028950Y029097D01*
X028894Y029336D02*
X030056Y029336D01*
X030147Y029574D02*
X028803Y029574D01*
X028930Y029813D02*
X030020Y029813D01*
X030020Y030051D02*
X028930Y030051D01*
D20*
X012378Y028366D02*
X012378Y028300D01*
X012370Y028300D01*
X012370Y028250D01*
X010500Y028250D01*
X010500Y025500D01*
X010250Y025250D01*
X005500Y025250D01*
X005500Y026750D01*
X005500Y025250D02*
X001000Y025250D01*
X000840Y025090D01*
X000840Y016860D01*
X001080Y016620D01*
X001350Y016620D01*
X001360Y016610D01*
X001360Y016110D01*
X001620Y016110D02*
X001620Y017000D01*
X001251Y017000D01*
X001250Y017000D01*
X001250Y019760D01*
X002190Y019760D01*
X002900Y019500D02*
X002900Y016200D01*
X002900Y016110D01*
X002900Y016000D01*
X002640Y016110D02*
X002640Y017500D01*
X002000Y017500D01*
X001251Y017000D02*
X001251Y024963D01*
X010804Y024963D01*
X010804Y027363D01*
X012117Y027363D01*
X012117Y027366D01*
X012378Y027366D01*
X012160Y027363D02*
X012160Y027293D01*
X012160Y027363D02*
X012117Y027363D01*
X008000Y020382D02*
X008000Y019500D01*
X002900Y019500D01*
X002380Y016110D02*
X002380Y013890D01*
X002130Y013890D01*
X002130Y009000D01*
X002000Y009000D01*
X002640Y006500D02*
X002640Y013890D01*
X002900Y013890D02*
X008000Y013890D01*
X008000Y015500D01*
X006500Y012500D02*
X003750Y012500D01*
X006500Y012500D02*
X006500Y009500D01*
X008000Y009500D01*
X006000Y006500D02*
X002640Y006500D01*
X006000Y006500D02*
X006000Y003000D01*
X008000Y003000D01*
X007977Y020382D02*
X008000Y020382D01*
D21*
X003028Y000654D02*
X002867Y000480D01*
X013008Y000480D01*
X013492Y031016D01*
X002784Y031016D01*
X002988Y030796D01*
X002988Y030796D01*
X003205Y030345D01*
X003205Y030345D01*
X003280Y029850D01*
X003205Y029355D01*
X002988Y028904D01*
X002988Y028904D01*
X002647Y028537D01*
X002647Y028537D01*
X002214Y028286D01*
X002214Y028286D01*
X001726Y028175D01*
X001726Y028175D01*
X001226Y028212D01*
X001226Y028212D01*
X000760Y028395D01*
X000760Y028395D01*
X000480Y028618D01*
X000480Y002800D01*
X000800Y003055D01*
X000800Y003055D01*
X001266Y003238D01*
X001766Y003275D01*
X002254Y003164D01*
X002687Y002913D01*
X003028Y002546D01*
X003028Y002546D01*
X003028Y002546D01*
X003245Y002095D01*
X003245Y002095D01*
X003320Y001600D01*
X003245Y001105D01*
X003245Y001105D01*
X003028Y000654D01*
X003028Y000654D01*
X003010Y000634D02*
X011244Y000634D01*
X011318Y000560D02*
X011500Y000560D01*
X011682Y000560D01*
X011940Y000818D01*
X011940Y001000D01*
X011940Y001182D01*
X011682Y001440D01*
X011500Y001440D01*
X011500Y001000D01*
X011940Y001000D01*
X011500Y001000D01*
X011500Y001000D01*
X011500Y001000D01*
X011500Y000560D01*
X011500Y001000D01*
X011500Y001000D01*
X011500Y001000D01*
X011060Y001000D01*
X011060Y001182D01*
X011318Y001440D01*
X011500Y001440D01*
X011500Y001000D01*
X011060Y001000D01*
X011060Y000818D01*
X011318Y000560D01*
X011500Y000634D02*
X011500Y000634D01*
X011500Y000793D02*
X011500Y000793D01*
X011500Y000951D02*
X011500Y000951D01*
X011500Y001110D02*
X011500Y001110D01*
X011500Y001268D02*
X011500Y001268D01*
X011500Y001427D02*
X011500Y001427D01*
X011696Y001427D02*
X012276Y001427D01*
X012309Y001460D02*
X012040Y001191D01*
X012040Y000809D01*
X012309Y000540D01*
X012691Y000540D01*
X012960Y000809D01*
X012960Y001191D01*
X012691Y001460D01*
X012309Y001460D01*
X012117Y001268D02*
X011854Y001268D01*
X011940Y001110D02*
X012040Y001110D01*
X012040Y000951D02*
X011940Y000951D01*
X011915Y000793D02*
X012057Y000793D01*
X012215Y000634D02*
X011756Y000634D01*
X011085Y000793D02*
X003095Y000793D01*
X003171Y000951D02*
X011060Y000951D01*
X011060Y001110D02*
X010232Y001110D01*
X010182Y001060D02*
X010440Y001318D01*
X010440Y001500D01*
X010440Y001682D01*
X010182Y001940D01*
X010000Y001940D01*
X010000Y001500D01*
X010000Y001500D01*
X010440Y001500D01*
X010000Y001500D01*
X010000Y001500D01*
X010000Y001500D01*
X009560Y001500D01*
X009560Y001682D01*
X009818Y001940D01*
X010000Y001940D01*
X010000Y001500D01*
X010000Y001060D01*
X010182Y001060D01*
X010000Y001060D02*
X010000Y001500D01*
X010000Y001500D01*
X009560Y001500D01*
X009560Y001318D01*
X009818Y001060D01*
X010000Y001060D01*
X010000Y001110D02*
X010000Y001110D01*
X010000Y001268D02*
X010000Y001268D01*
X010000Y001427D02*
X010000Y001427D01*
X010000Y001585D02*
X010000Y001585D01*
X010000Y001744D02*
X010000Y001744D01*
X010000Y001902D02*
X010000Y001902D01*
X010220Y001902D02*
X013030Y001902D01*
X013028Y001744D02*
X010379Y001744D01*
X010440Y001585D02*
X013025Y001585D01*
X013023Y001427D02*
X012724Y001427D01*
X012883Y001268D02*
X013020Y001268D01*
X013018Y001110D02*
X012960Y001110D01*
X012960Y000951D02*
X013015Y000951D01*
X013013Y000793D02*
X012943Y000793D01*
X013010Y000634D02*
X012785Y000634D01*
X011304Y001427D02*
X010440Y001427D01*
X010390Y001268D02*
X011146Y001268D01*
X011479Y002110D02*
X011648Y002040D01*
X012351Y002040D01*
X012521Y002110D01*
X012650Y002239D01*
X012720Y002408D01*
X012720Y002591D01*
X012650Y002761D01*
X012521Y002890D01*
X012351Y002960D01*
X011648Y002960D01*
X011479Y002890D01*
X011350Y002761D01*
X011280Y002591D01*
X011280Y002408D01*
X011350Y002239D01*
X011479Y002110D01*
X011599Y002061D02*
X008475Y002061D01*
X008475Y002219D02*
X011370Y002219D01*
X011293Y002378D02*
X008455Y002378D01*
X008475Y002358D02*
X008358Y002475D01*
X007642Y002475D01*
X007525Y002358D01*
X007525Y001642D01*
X007642Y001525D01*
X008358Y001525D01*
X008475Y001642D01*
X008475Y002358D01*
X008269Y002597D02*
X008094Y002525D01*
X007906Y002525D01*
X007731Y002597D01*
X007597Y002731D01*
X007594Y002740D01*
X005948Y002740D01*
X005853Y002780D01*
X005780Y002853D01*
X005740Y002948D01*
X005740Y006240D01*
X002588Y006240D01*
X002493Y006280D01*
X002420Y006353D01*
X002380Y006448D01*
X002380Y007758D01*
X002182Y007560D01*
X002000Y007560D01*
X002000Y008000D01*
X002000Y008000D01*
X002000Y008440D01*
X002182Y008440D01*
X002380Y008242D01*
X002380Y008729D01*
X002191Y008540D01*
X001809Y008540D01*
X001540Y008809D01*
X001540Y009191D01*
X001809Y009460D01*
X001870Y009460D01*
X001870Y013507D01*
X001870Y013507D01*
X001870Y013420D01*
X001776Y013420D01*
X001745Y013428D01*
X001714Y013420D01*
X001620Y013420D01*
X001620Y013576D01*
X001620Y013576D01*
X001620Y013890D01*
X001620Y013890D01*
X001620Y014204D01*
X001620Y014204D01*
X001620Y014360D01*
X001714Y014360D01*
X001745Y014352D01*
X001776Y014360D01*
X001870Y014360D01*
X001870Y014273D01*
X001870Y014273D01*
X001870Y014360D01*
X001957Y014360D01*
X001977Y014380D01*
X002120Y014380D01*
X002120Y015620D01*
X001207Y015620D01*
X001187Y015640D01*
X001100Y015640D01*
X001100Y015727D01*
X001100Y015727D01*
X001100Y015640D01*
X001006Y015640D01*
X000961Y015652D01*
X000919Y015676D01*
X000886Y015709D01*
X000862Y015751D01*
X000850Y015796D01*
X000850Y016110D01*
X001090Y016110D01*
X001090Y016110D01*
X000850Y016110D01*
X000850Y016424D01*
X000862Y016469D01*
X000862Y016470D01*
X000693Y016640D01*
X000620Y016713D01*
X000580Y016808D01*
X000580Y025142D01*
X000620Y025237D01*
X000780Y025397D01*
X000853Y025470D01*
X000948Y025510D01*
X005240Y025510D01*
X005240Y026359D01*
X005040Y026559D01*
X005040Y026941D01*
X005309Y027210D01*
X005691Y027210D01*
X005960Y026941D01*
X005960Y026559D01*
X005760Y026359D01*
X005760Y025510D01*
X010142Y025510D01*
X010240Y025608D01*
X010240Y028302D01*
X010280Y028397D01*
X010353Y028470D01*
X010448Y028510D01*
X011638Y028510D01*
X011691Y028638D01*
X011826Y028773D01*
X012003Y028846D01*
X012753Y028846D01*
X012930Y028773D01*
X013065Y028638D01*
X013138Y028461D01*
X013138Y028271D01*
X013065Y028094D01*
X012930Y027959D01*
X012753Y027886D01*
X012003Y027886D01*
X011826Y027959D01*
X011795Y027990D01*
X010760Y027990D01*
X010760Y027623D01*
X011685Y027623D01*
X011691Y027638D01*
X011826Y027773D01*
X012003Y027846D01*
X012753Y027846D01*
X012930Y027773D01*
X013065Y027638D01*
X013138Y027461D01*
X013138Y027271D01*
X013065Y027094D01*
X012930Y026959D01*
X012753Y026886D01*
X012003Y026886D01*
X011826Y026959D01*
X011691Y027094D01*
X011687Y027103D01*
X011064Y027103D01*
X011064Y024911D01*
X011024Y024816D01*
X010951Y024743D01*
X010856Y024703D01*
X001511Y024703D01*
X001511Y020020D01*
X001799Y020020D01*
X001999Y020220D01*
X002381Y020220D01*
X002650Y019951D01*
X002650Y019576D01*
X002680Y019647D01*
X002753Y019720D01*
X002848Y019760D01*
X007740Y019760D01*
X007740Y019907D01*
X007619Y019907D01*
X007502Y020024D01*
X007502Y020740D01*
X007619Y020857D01*
X008335Y020857D01*
X008452Y020740D01*
X008452Y020024D01*
X008335Y019907D01*
X008260Y019907D01*
X008260Y019448D01*
X008220Y019353D01*
X008147Y019280D01*
X008052Y019240D01*
X003160Y019240D01*
X003160Y016493D01*
X003170Y016483D01*
X003170Y015737D01*
X003053Y015620D01*
X002640Y015620D01*
X002640Y014380D01*
X003053Y014380D01*
X003170Y014263D01*
X003170Y014150D01*
X007740Y014150D01*
X007740Y015025D01*
X007642Y015025D01*
X007525Y015142D01*
X007525Y015858D01*
X007642Y015975D01*
X008358Y015975D01*
X008475Y015858D01*
X008475Y015142D01*
X008358Y015025D01*
X008260Y015025D01*
X008260Y013838D01*
X008220Y013743D01*
X008147Y013670D01*
X008052Y013630D01*
X003170Y013630D01*
X003170Y013517D01*
X003053Y013400D01*
X002900Y013400D01*
X002900Y006760D01*
X006052Y006760D01*
X006147Y006720D01*
X006220Y006647D01*
X006260Y006552D01*
X006260Y003260D01*
X007594Y003260D01*
X007597Y003269D01*
X007731Y003403D01*
X007906Y003475D01*
X008094Y003475D01*
X008269Y003403D01*
X008403Y003269D01*
X008475Y003094D01*
X008475Y002906D01*
X008403Y002731D01*
X008269Y002597D01*
X008366Y002695D02*
X011323Y002695D01*
X011280Y002536D02*
X008121Y002536D01*
X007879Y002536D02*
X005121Y002536D01*
X005094Y002525D02*
X005269Y002597D01*
X005403Y002731D01*
X005475Y002906D01*
X005475Y003094D01*
X005403Y003269D01*
X005400Y003272D01*
X005400Y003728D01*
X005403Y003731D01*
X005475Y003906D01*
X005475Y004094D01*
X005403Y004269D01*
X005269Y004403D01*
X005094Y004475D01*
X004906Y004475D01*
X004731Y004403D01*
X004597Y004269D01*
X004525Y004094D01*
X004525Y003906D01*
X004597Y003731D01*
X004600Y003728D01*
X004600Y003272D01*
X004597Y003269D01*
X004525Y003094D01*
X004525Y002906D01*
X004597Y002731D01*
X004731Y002597D01*
X004906Y002525D01*
X005094Y002525D01*
X005094Y002475D02*
X004906Y002475D01*
X004731Y002403D01*
X004597Y002269D01*
X004525Y002094D01*
X004525Y001906D01*
X004597Y001731D01*
X004731Y001597D01*
X004906Y001525D01*
X005094Y001525D01*
X005269Y001597D01*
X005403Y001731D01*
X005475Y001906D01*
X005475Y002094D01*
X005403Y002269D01*
X005269Y002403D01*
X005094Y002475D01*
X005294Y002378D02*
X007545Y002378D01*
X007525Y002219D02*
X005423Y002219D01*
X005475Y002061D02*
X007525Y002061D01*
X007525Y001902D02*
X005474Y001902D01*
X005408Y001744D02*
X007525Y001744D01*
X007582Y001585D02*
X005239Y001585D01*
X004761Y001585D02*
X003318Y001585D01*
X003298Y001744D02*
X004592Y001744D01*
X004526Y001902D02*
X003274Y001902D01*
X003251Y002061D02*
X004525Y002061D01*
X004577Y002219D02*
X003186Y002219D01*
X003109Y002378D02*
X004706Y002378D01*
X004879Y002536D02*
X003033Y002536D01*
X002891Y002695D02*
X004634Y002695D01*
X004547Y002853D02*
X002744Y002853D01*
X002518Y003012D02*
X004525Y003012D01*
X004556Y003170D02*
X002227Y003170D01*
X001093Y003170D02*
X000480Y003170D01*
X000480Y003012D02*
X000746Y003012D01*
X000547Y002853D02*
X000480Y002853D01*
X000480Y003329D02*
X004600Y003329D01*
X004600Y003487D02*
X000480Y003487D01*
X000480Y003646D02*
X004600Y003646D01*
X004567Y003804D02*
X000480Y003804D01*
X000480Y003963D02*
X004525Y003963D01*
X004536Y004121D02*
X000480Y004121D01*
X000480Y004280D02*
X004608Y004280D01*
X004816Y004438D02*
X000480Y004438D01*
X000480Y004597D02*
X004790Y004597D01*
X004762Y004611D02*
X004825Y004578D01*
X004893Y004556D01*
X004964Y004545D01*
X004992Y004545D01*
X004992Y004992D01*
X005008Y004992D01*
X005008Y005008D01*
X005455Y005008D01*
X005455Y005036D01*
X005444Y005107D01*
X005422Y005175D01*
X005389Y005238D01*
X005347Y005296D01*
X005296Y005347D01*
X005238Y005389D01*
X005175Y005422D01*
X005107Y005444D01*
X005036Y005455D01*
X005008Y005455D01*
X005008Y005008D01*
X004992Y005008D01*
X004992Y005455D01*
X004964Y005455D01*
X004893Y005444D01*
X004825Y005422D01*
X004762Y005389D01*
X004704Y005347D01*
X004653Y005296D01*
X004611Y005238D01*
X004578Y005175D01*
X004556Y005107D01*
X004545Y005036D01*
X004545Y005008D01*
X004992Y005008D01*
X004992Y004992D01*
X004545Y004992D01*
X004545Y004964D01*
X004556Y004893D01*
X004578Y004825D01*
X004611Y004762D01*
X004653Y004704D01*
X004704Y004653D01*
X004762Y004611D01*
X004616Y004755D02*
X000480Y004755D01*
X000480Y004914D02*
X004553Y004914D01*
X004551Y005072D02*
X000480Y005072D01*
X000480Y005231D02*
X004607Y005231D01*
X004761Y005389D02*
X000480Y005389D01*
X000480Y005548D02*
X005740Y005548D01*
X005740Y005706D02*
X000480Y005706D01*
X000480Y005865D02*
X005740Y005865D01*
X005740Y006023D02*
X000480Y006023D01*
X000480Y006182D02*
X005740Y006182D01*
X006260Y006182D02*
X013098Y006182D01*
X013101Y006340D02*
X006260Y006340D01*
X006260Y006499D02*
X013103Y006499D01*
X013106Y006657D02*
X006211Y006657D01*
X006260Y006023D02*
X013096Y006023D01*
X013093Y005865D02*
X012546Y005865D01*
X012521Y005890D02*
X012351Y005960D01*
X011648Y005960D01*
X011479Y005890D01*
X011350Y005761D01*
X011280Y005591D01*
X011280Y005408D01*
X011350Y005239D01*
X011479Y005110D01*
X011648Y005040D01*
X012351Y005040D01*
X012521Y005110D01*
X012650Y005239D01*
X012720Y005408D01*
X012720Y005591D01*
X012650Y005761D01*
X012521Y005890D01*
X012673Y005706D02*
X013091Y005706D01*
X013088Y005548D02*
X012720Y005548D01*
X012712Y005389D02*
X013086Y005389D01*
X013083Y005231D02*
X012641Y005231D01*
X012429Y005072D02*
X013081Y005072D01*
X013078Y004914D02*
X012464Y004914D01*
X012521Y004890D02*
X012351Y004960D01*
X011648Y004960D01*
X011479Y004890D01*
X011350Y004761D01*
X011280Y004591D01*
X011280Y004408D01*
X011350Y004239D01*
X011479Y004110D01*
X011648Y004040D01*
X012351Y004040D01*
X012521Y004110D01*
X012650Y004239D01*
X012720Y004408D01*
X012720Y004591D01*
X012650Y004761D01*
X012521Y004890D01*
X012652Y004755D02*
X013075Y004755D01*
X013073Y004597D02*
X012718Y004597D01*
X012720Y004438D02*
X013070Y004438D01*
X013068Y004280D02*
X012667Y004280D01*
X012532Y004121D02*
X013065Y004121D01*
X013063Y003963D02*
X008475Y003963D01*
X008475Y003906D02*
X008475Y004094D01*
X008403Y004269D01*
X008269Y004403D01*
X008094Y004475D01*
X007906Y004475D01*
X007731Y004403D01*
X007597Y004269D01*
X007525Y004094D01*
X007525Y003906D01*
X007597Y003731D01*
X007731Y003597D01*
X007906Y003525D01*
X008094Y003525D01*
X008269Y003597D01*
X008403Y003731D01*
X008475Y003906D01*
X008433Y003804D02*
X011393Y003804D01*
X011350Y003761D02*
X011280Y003591D01*
X011280Y003408D01*
X011350Y003239D01*
X011479Y003110D01*
X011648Y003040D01*
X012351Y003040D01*
X012521Y003110D01*
X012650Y003239D01*
X012720Y003408D01*
X012720Y003591D01*
X012650Y003761D01*
X012521Y003890D01*
X012351Y003960D01*
X011648Y003960D01*
X011479Y003890D01*
X011350Y003761D01*
X011302Y003646D02*
X008317Y003646D01*
X008343Y003329D02*
X011313Y003329D01*
X011280Y003487D02*
X006260Y003487D01*
X006260Y003329D02*
X007657Y003329D01*
X007683Y003646D02*
X006260Y003646D01*
X006260Y003804D02*
X007567Y003804D01*
X007525Y003963D02*
X006260Y003963D01*
X006260Y004121D02*
X007536Y004121D01*
X007608Y004280D02*
X006260Y004280D01*
X006260Y004438D02*
X007816Y004438D01*
X007825Y004578D02*
X007893Y004556D01*
X007964Y004545D01*
X007992Y004545D01*
X007992Y004992D01*
X008008Y004992D01*
X008008Y005008D01*
X008455Y005008D01*
X008455Y005036D01*
X008444Y005107D01*
X008422Y005175D01*
X008389Y005238D01*
X008347Y005296D01*
X008296Y005347D01*
X008238Y005389D01*
X008175Y005422D01*
X008107Y005444D01*
X008036Y005455D01*
X008008Y005455D01*
X008008Y005008D01*
X007992Y005008D01*
X007992Y005455D01*
X007964Y005455D01*
X007893Y005444D01*
X007825Y005422D01*
X007762Y005389D01*
X007704Y005347D01*
X007653Y005296D01*
X007611Y005238D01*
X007578Y005175D01*
X007556Y005107D01*
X007545Y005036D01*
X007545Y005008D01*
X007992Y005008D01*
X007992Y004992D01*
X007545Y004992D01*
X007545Y004964D01*
X007556Y004893D01*
X007578Y004825D01*
X007611Y004762D01*
X007653Y004704D01*
X007704Y004653D01*
X007762Y004611D01*
X007825Y004578D01*
X007790Y004597D02*
X006260Y004597D01*
X006260Y004755D02*
X007616Y004755D01*
X007553Y004914D02*
X006260Y004914D01*
X006260Y005072D02*
X007551Y005072D01*
X007607Y005231D02*
X006260Y005231D01*
X006260Y005389D02*
X007761Y005389D01*
X007992Y005389D02*
X008008Y005389D01*
X007992Y005231D02*
X008008Y005231D01*
X007992Y005072D02*
X008008Y005072D01*
X008008Y004992D02*
X008455Y004992D01*
X008455Y004964D01*
X008444Y004893D01*
X008422Y004825D01*
X008389Y004762D01*
X008347Y004704D01*
X008296Y004653D01*
X008238Y004611D01*
X008175Y004578D01*
X008107Y004556D01*
X008036Y004545D01*
X008008Y004545D01*
X008008Y004992D01*
X008008Y004914D02*
X007992Y004914D01*
X007992Y004755D02*
X008008Y004755D01*
X007992Y004597D02*
X008008Y004597D01*
X008210Y004597D02*
X011282Y004597D01*
X011280Y004438D02*
X008184Y004438D01*
X008392Y004280D02*
X011333Y004280D01*
X011468Y004121D02*
X008464Y004121D01*
X008384Y004755D02*
X011348Y004755D01*
X011536Y004914D02*
X008447Y004914D01*
X008449Y005072D02*
X009777Y005072D01*
X009809Y005040D02*
X010191Y005040D01*
X010460Y005309D01*
X010460Y005691D01*
X010191Y005960D01*
X009809Y005960D01*
X009540Y005691D01*
X009540Y005309D01*
X009809Y005040D01*
X009619Y005231D02*
X008393Y005231D01*
X008239Y005389D02*
X009540Y005389D01*
X009540Y005548D02*
X006260Y005548D01*
X006260Y005706D02*
X009555Y005706D01*
X009714Y005865D02*
X006260Y005865D01*
X005740Y005389D02*
X005239Y005389D01*
X005393Y005231D02*
X005740Y005231D01*
X005740Y005072D02*
X005449Y005072D01*
X005455Y004992D02*
X005008Y004992D01*
X005008Y004545D01*
X005036Y004545D01*
X005107Y004556D01*
X005175Y004578D01*
X005238Y004611D01*
X005296Y004653D01*
X005347Y004704D01*
X005389Y004762D01*
X005422Y004825D01*
X005444Y004893D01*
X005455Y004964D01*
X005455Y004992D01*
X005447Y004914D02*
X005740Y004914D01*
X005740Y004755D02*
X005384Y004755D01*
X005210Y004597D02*
X005740Y004597D01*
X005740Y004438D02*
X005184Y004438D01*
X005008Y004597D02*
X004992Y004597D01*
X004992Y004755D02*
X005008Y004755D01*
X004992Y004914D02*
X005008Y004914D01*
X004992Y005072D02*
X005008Y005072D01*
X004992Y005231D02*
X005008Y005231D01*
X004992Y005389D02*
X005008Y005389D01*
X005392Y004280D02*
X005740Y004280D01*
X005740Y004121D02*
X005464Y004121D01*
X005475Y003963D02*
X005740Y003963D01*
X005740Y003804D02*
X005433Y003804D01*
X005400Y003646D02*
X005740Y003646D01*
X005740Y003487D02*
X005400Y003487D01*
X005400Y003329D02*
X005740Y003329D01*
X005740Y003170D02*
X005444Y003170D01*
X005475Y003012D02*
X005740Y003012D01*
X005779Y002853D02*
X005453Y002853D01*
X005366Y002695D02*
X007634Y002695D01*
X008453Y002853D02*
X011442Y002853D01*
X011419Y003170D02*
X008444Y003170D01*
X008475Y003012D02*
X013048Y003012D01*
X013050Y003170D02*
X012581Y003170D01*
X012687Y003329D02*
X013053Y003329D01*
X013055Y003487D02*
X012720Y003487D01*
X012698Y003646D02*
X013058Y003646D01*
X013060Y003804D02*
X012607Y003804D01*
X012558Y002853D02*
X013045Y002853D01*
X013043Y002695D02*
X012677Y002695D01*
X012720Y002536D02*
X013040Y002536D01*
X013038Y002378D02*
X012707Y002378D01*
X012630Y002219D02*
X013035Y002219D01*
X013033Y002061D02*
X012401Y002061D01*
X009780Y001902D02*
X008475Y001902D01*
X008475Y001744D02*
X009621Y001744D01*
X009560Y001585D02*
X008418Y001585D01*
X009560Y001427D02*
X003294Y001427D01*
X003270Y001268D02*
X009610Y001268D01*
X009768Y001110D02*
X003246Y001110D01*
X002432Y006340D02*
X000480Y006340D01*
X000480Y006499D02*
X002380Y006499D01*
X002380Y006657D02*
X000480Y006657D01*
X000480Y006816D02*
X002380Y006816D01*
X002380Y006974D02*
X000480Y006974D01*
X000480Y007133D02*
X002380Y007133D01*
X002380Y007291D02*
X000480Y007291D01*
X000480Y007450D02*
X002380Y007450D01*
X002380Y007608D02*
X002230Y007608D01*
X002000Y007608D02*
X002000Y007608D01*
X002000Y007560D02*
X002000Y008000D01*
X002000Y008000D01*
X002000Y008000D01*
X001560Y008000D01*
X001560Y008182D01*
X001818Y008440D01*
X002000Y008440D01*
X002000Y008000D01*
X001560Y008000D01*
X001560Y007818D01*
X001818Y007560D01*
X002000Y007560D01*
X002000Y007767D02*
X002000Y007767D01*
X002000Y007925D02*
X002000Y007925D01*
X002000Y008084D02*
X002000Y008084D01*
X002000Y008242D02*
X002000Y008242D01*
X002000Y008401D02*
X002000Y008401D01*
X002222Y008401D02*
X002380Y008401D01*
X002380Y008559D02*
X002210Y008559D01*
X002368Y008718D02*
X002380Y008718D01*
X001790Y008559D02*
X000480Y008559D01*
X000480Y008401D02*
X001778Y008401D01*
X001620Y008242D02*
X000480Y008242D01*
X000480Y008084D02*
X001560Y008084D01*
X001560Y007925D02*
X000480Y007925D01*
X000480Y007767D02*
X001611Y007767D01*
X001770Y007608D02*
X000480Y007608D01*
X000480Y008718D02*
X001632Y008718D01*
X001540Y008876D02*
X000480Y008876D01*
X000480Y009035D02*
X001540Y009035D01*
X001542Y009193D02*
X000480Y009193D01*
X000480Y009352D02*
X001701Y009352D01*
X001870Y009510D02*
X000480Y009510D01*
X000480Y009669D02*
X001870Y009669D01*
X001870Y009827D02*
X000480Y009827D01*
X000480Y009986D02*
X001870Y009986D01*
X001870Y010144D02*
X000480Y010144D01*
X000480Y010303D02*
X001870Y010303D01*
X001870Y010461D02*
X000480Y010461D01*
X000480Y010620D02*
X001870Y010620D01*
X001870Y010778D02*
X000480Y010778D01*
X000480Y010937D02*
X001870Y010937D01*
X001870Y011095D02*
X000480Y011095D01*
X000480Y011254D02*
X001870Y011254D01*
X001870Y011412D02*
X000480Y011412D01*
X000480Y011571D02*
X001870Y011571D01*
X001870Y011729D02*
X000480Y011729D01*
X000480Y011888D02*
X001870Y011888D01*
X001870Y012046D02*
X000480Y012046D01*
X000480Y012205D02*
X001870Y012205D01*
X001870Y012363D02*
X000480Y012363D01*
X000480Y012522D02*
X001870Y012522D01*
X001870Y012680D02*
X000480Y012680D01*
X000480Y012839D02*
X001870Y012839D01*
X001870Y012997D02*
X000480Y012997D01*
X000480Y013156D02*
X001870Y013156D01*
X001870Y013314D02*
X000480Y013314D01*
X000480Y013473D02*
X000903Y013473D01*
X000919Y013456D02*
X000961Y013432D01*
X001006Y013420D01*
X001100Y013420D01*
X001194Y013420D01*
X001230Y013430D01*
X001266Y013420D01*
X001360Y013420D01*
X001454Y013420D01*
X001490Y013430D01*
X001526Y013420D01*
X001620Y013420D01*
X001620Y013890D01*
X001860Y013890D01*
X001860Y013890D01*
X001620Y013890D01*
X001620Y013890D01*
X001620Y013890D01*
X001620Y014360D01*
X001526Y014360D01*
X001490Y014350D01*
X001454Y014360D01*
X001360Y014360D01*
X001360Y013890D01*
X001360Y013890D01*
X001620Y013890D01*
X001620Y013890D01*
X001370Y013890D01*
X001360Y013890D01*
X001360Y013890D01*
X001360Y013420D01*
X001360Y013890D01*
X001360Y013890D01*
X001360Y014360D01*
X001266Y014360D01*
X001230Y014350D01*
X001194Y014360D01*
X001100Y014360D01*
X001100Y013890D01*
X001100Y013890D01*
X001360Y013890D01*
X001360Y013890D01*
X001110Y013890D01*
X001100Y013890D01*
X001100Y013890D01*
X001100Y013420D01*
X001100Y013890D01*
X001100Y013890D01*
X001100Y013890D01*
X000850Y013890D01*
X000850Y014204D01*
X000862Y014249D01*
X000886Y014291D01*
X000919Y014324D01*
X000961Y014348D01*
X001006Y014360D01*
X001100Y014360D01*
X001100Y013890D01*
X000850Y013890D01*
X000850Y013576D01*
X000862Y013531D01*
X000886Y013489D01*
X000919Y013456D01*
X001100Y013473D02*
X001100Y013473D01*
X001100Y013631D02*
X001100Y013631D01*
X001100Y013790D02*
X001100Y013790D01*
X001100Y013948D02*
X001100Y013948D01*
X001100Y014107D02*
X001100Y014107D01*
X001100Y014265D02*
X001100Y014265D01*
X000871Y014265D02*
X000480Y014265D01*
X000480Y014107D02*
X000850Y014107D01*
X000850Y013948D02*
X000480Y013948D01*
X000480Y013790D02*
X000850Y013790D01*
X000850Y013631D02*
X000480Y013631D01*
X000480Y014424D02*
X002120Y014424D01*
X002120Y014582D02*
X000480Y014582D01*
X000480Y014741D02*
X002120Y014741D01*
X002120Y014899D02*
X000480Y014899D01*
X000480Y015058D02*
X002120Y015058D01*
X002120Y015216D02*
X000480Y015216D01*
X000480Y015375D02*
X002120Y015375D01*
X002120Y015533D02*
X000480Y015533D01*
X000480Y015692D02*
X000904Y015692D01*
X000850Y015850D02*
X000480Y015850D01*
X000480Y016009D02*
X000850Y016009D01*
X000850Y016167D02*
X000480Y016167D01*
X000480Y016326D02*
X000850Y016326D01*
X000848Y016484D02*
X000480Y016484D01*
X000480Y016643D02*
X000690Y016643D01*
X000583Y016801D02*
X000480Y016801D01*
X000480Y016960D02*
X000580Y016960D01*
X000580Y017118D02*
X000480Y017118D01*
X000480Y017277D02*
X000580Y017277D01*
X000580Y017435D02*
X000480Y017435D01*
X000480Y017594D02*
X000580Y017594D01*
X000580Y017752D02*
X000480Y017752D01*
X000480Y017911D02*
X000580Y017911D01*
X000580Y018069D02*
X000480Y018069D01*
X000480Y018228D02*
X000580Y018228D01*
X000580Y018386D02*
X000480Y018386D01*
X000480Y018545D02*
X000580Y018545D01*
X000580Y018703D02*
X000480Y018703D01*
X000480Y018862D02*
X000580Y018862D01*
X000580Y019020D02*
X000480Y019020D01*
X000480Y019179D02*
X000580Y019179D01*
X000580Y019337D02*
X000480Y019337D01*
X000480Y019496D02*
X000580Y019496D01*
X000580Y019654D02*
X000480Y019654D01*
X000480Y019813D02*
X000580Y019813D01*
X000580Y019971D02*
X000480Y019971D01*
X000480Y020130D02*
X000580Y020130D01*
X000580Y020288D02*
X000480Y020288D01*
X000480Y020447D02*
X000580Y020447D01*
X000580Y020605D02*
X000480Y020605D01*
X000480Y020764D02*
X000580Y020764D01*
X000580Y020922D02*
X000480Y020922D01*
X000480Y021081D02*
X000580Y021081D01*
X000580Y021239D02*
X000480Y021239D01*
X000480Y021398D02*
X000580Y021398D01*
X000580Y021556D02*
X000480Y021556D01*
X000480Y021715D02*
X000580Y021715D01*
X000580Y021873D02*
X000480Y021873D01*
X000480Y022032D02*
X000580Y022032D01*
X000580Y022190D02*
X000480Y022190D01*
X000480Y022349D02*
X000580Y022349D01*
X000580Y022507D02*
X000480Y022507D01*
X000480Y022666D02*
X000580Y022666D01*
X000580Y022824D02*
X000480Y022824D01*
X000480Y022983D02*
X000580Y022983D01*
X000580Y023141D02*
X000480Y023141D01*
X000480Y023300D02*
X000580Y023300D01*
X000580Y023458D02*
X000480Y023458D01*
X000480Y023617D02*
X000580Y023617D01*
X000580Y023775D02*
X000480Y023775D01*
X000480Y023934D02*
X000580Y023934D01*
X000580Y024092D02*
X000480Y024092D01*
X000480Y024251D02*
X000580Y024251D01*
X000580Y024409D02*
X000480Y024409D01*
X000480Y024568D02*
X000580Y024568D01*
X000580Y024726D02*
X000480Y024726D01*
X000480Y024885D02*
X000580Y024885D01*
X000580Y025043D02*
X000480Y025043D01*
X000480Y025202D02*
X000605Y025202D01*
X000480Y025360D02*
X000742Y025360D01*
X000480Y025519D02*
X005240Y025519D01*
X005240Y025677D02*
X000480Y025677D01*
X000480Y025836D02*
X005240Y025836D01*
X005240Y025994D02*
X003810Y025994D01*
X003728Y025912D02*
X003986Y026170D01*
X003986Y026352D01*
X003986Y026534D01*
X003772Y026748D01*
X003807Y026762D01*
X003936Y026891D01*
X004006Y027060D01*
X004006Y027244D01*
X003936Y027413D01*
X003807Y027542D01*
X003638Y027612D01*
X003454Y027612D01*
X003285Y027542D01*
X003156Y027413D01*
X003086Y027244D01*
X003086Y027060D01*
X003156Y026891D01*
X003285Y026762D01*
X003320Y026748D01*
X003106Y026534D01*
X003106Y026352D01*
X003546Y026352D01*
X003986Y026352D01*
X003546Y026352D01*
X003546Y026352D01*
X003546Y026352D01*
X003546Y025912D01*
X003728Y025912D01*
X003546Y025912D02*
X003546Y026352D01*
X003546Y026352D01*
X003106Y026352D01*
X003106Y026170D01*
X003364Y025912D01*
X003546Y025912D01*
X003546Y025994D02*
X003546Y025994D01*
X003546Y026153D02*
X003546Y026153D01*
X003546Y026311D02*
X003546Y026311D01*
X003282Y025994D02*
X001668Y025994D01*
X001641Y025967D02*
X001899Y026225D01*
X001899Y026407D01*
X001899Y026589D01*
X001685Y026803D01*
X001720Y026817D01*
X001849Y026946D01*
X001919Y027115D01*
X001919Y027298D01*
X001849Y027468D01*
X001720Y027597D01*
X001550Y027667D01*
X001367Y027667D01*
X001198Y027597D01*
X001069Y027468D01*
X000999Y027298D01*
X000999Y027115D01*
X001069Y026946D01*
X001198Y026817D01*
X001233Y026803D01*
X001019Y026589D01*
X001019Y026407D01*
X001459Y026407D01*
X001899Y026407D01*
X001459Y026407D01*
X001459Y026407D01*
X001459Y026407D01*
X001459Y025967D01*
X001641Y025967D01*
X001459Y025967D02*
X001459Y026407D01*
X001459Y026407D01*
X001019Y026407D01*
X001019Y026225D01*
X001277Y025967D01*
X001459Y025967D01*
X001459Y025994D02*
X001459Y025994D01*
X001459Y026153D02*
X001459Y026153D01*
X001459Y026311D02*
X001459Y026311D01*
X001250Y025994D02*
X000480Y025994D01*
X000480Y026153D02*
X001091Y026153D01*
X001019Y026311D02*
X000480Y026311D01*
X000480Y026470D02*
X001019Y026470D01*
X001058Y026628D02*
X000480Y026628D01*
X000480Y026787D02*
X001216Y026787D01*
X001070Y026945D02*
X000480Y026945D01*
X000480Y027104D02*
X001004Y027104D01*
X000999Y027262D02*
X000480Y027262D01*
X000480Y027421D02*
X001050Y027421D01*
X001181Y027579D02*
X000480Y027579D01*
X000480Y027738D02*
X010240Y027738D01*
X010240Y027896D02*
X000480Y027896D01*
X000480Y028055D02*
X010240Y028055D01*
X010240Y028213D02*
X001894Y028213D01*
X002362Y028372D02*
X010269Y028372D01*
X010760Y027896D02*
X011978Y027896D01*
X011791Y027738D02*
X010760Y027738D01*
X010240Y027579D02*
X003717Y027579D01*
X003928Y027421D02*
X010240Y027421D01*
X010240Y027262D02*
X003998Y027262D01*
X004006Y027104D02*
X005203Y027104D01*
X005045Y026945D02*
X003958Y026945D01*
X003831Y026787D02*
X005040Y026787D01*
X005040Y026628D02*
X003892Y026628D01*
X003986Y026470D02*
X005130Y026470D01*
X005240Y026311D02*
X003986Y026311D01*
X003969Y026153D02*
X005240Y026153D01*
X005760Y026153D02*
X010240Y026153D01*
X010240Y026311D02*
X009712Y026311D01*
X009691Y026290D02*
X009960Y026559D01*
X009960Y026941D01*
X009691Y027210D01*
X009309Y027210D01*
X009040Y026941D01*
X009040Y026559D01*
X009309Y026290D01*
X009691Y026290D01*
X009870Y026470D02*
X010240Y026470D01*
X010240Y026628D02*
X009960Y026628D01*
X009960Y026787D02*
X010240Y026787D01*
X010240Y026945D02*
X009955Y026945D01*
X009797Y027104D02*
X010240Y027104D01*
X011064Y026945D02*
X011860Y026945D01*
X011064Y026787D02*
X013425Y026787D01*
X013428Y026945D02*
X012896Y026945D01*
X013069Y027104D02*
X013430Y027104D01*
X013433Y027262D02*
X013134Y027262D01*
X013138Y027421D02*
X013435Y027421D01*
X013438Y027579D02*
X013089Y027579D01*
X012965Y027738D02*
X013440Y027738D01*
X013443Y027896D02*
X012778Y027896D01*
X013025Y028055D02*
X013445Y028055D01*
X013448Y028213D02*
X013114Y028213D01*
X013138Y028372D02*
X013450Y028372D01*
X013453Y028530D02*
X013110Y028530D01*
X013014Y028689D02*
X013455Y028689D01*
X013458Y028847D02*
X002936Y028847D01*
X003037Y029006D02*
X003928Y029006D01*
X004045Y028889D02*
X003787Y029147D01*
X003787Y029329D01*
X004227Y029329D01*
X004667Y029329D01*
X004667Y029511D01*
X004453Y029725D01*
X004488Y029739D01*
X004617Y029868D01*
X004687Y030037D01*
X004687Y030220D01*
X004617Y030390D01*
X004488Y030519D01*
X004318Y030589D01*
X004135Y030589D01*
X003966Y030519D01*
X003837Y030390D01*
X003767Y030220D01*
X003767Y030037D01*
X003837Y029868D01*
X003966Y029739D01*
X004001Y029725D01*
X003787Y029511D01*
X003787Y029329D01*
X004227Y029329D01*
X004227Y029329D01*
X004667Y029329D01*
X004667Y029147D01*
X004409Y028889D01*
X004227Y028889D01*
X004227Y029329D01*
X004227Y029329D01*
X004227Y029329D01*
X004227Y028889D01*
X004045Y028889D01*
X004227Y029006D02*
X004227Y029006D01*
X004227Y029164D02*
X004227Y029164D01*
X004227Y029323D02*
X004227Y029323D01*
X004526Y029006D02*
X006133Y029006D01*
X006256Y028883D02*
X005998Y029141D01*
X005998Y029323D01*
X006438Y029323D01*
X006438Y029323D01*
X005998Y029323D01*
X005998Y029505D01*
X006212Y029719D01*
X006177Y029733D01*
X006048Y029862D01*
X005978Y030031D01*
X005978Y030215D01*
X006048Y030384D01*
X006177Y030513D01*
X006346Y030583D01*
X006530Y030583D01*
X006699Y030513D01*
X006828Y030384D01*
X006898Y030215D01*
X006898Y030031D01*
X006828Y029862D01*
X006699Y029733D01*
X006664Y029719D01*
X006878Y029505D01*
X006878Y029323D01*
X006438Y029323D01*
X006438Y028883D01*
X006620Y028883D01*
X006878Y029141D01*
X006878Y029323D01*
X006438Y029323D01*
X006438Y029323D01*
X006438Y028883D01*
X006256Y028883D01*
X006438Y029006D02*
X006438Y029006D01*
X006438Y029164D02*
X006438Y029164D01*
X006438Y029323D02*
X006438Y029323D01*
X006438Y029323D01*
X005998Y029323D02*
X004667Y029323D01*
X004667Y029481D02*
X005998Y029481D01*
X006132Y029640D02*
X004539Y029640D01*
X004547Y029798D02*
X006112Y029798D01*
X006009Y029957D02*
X004653Y029957D01*
X004687Y030115D02*
X005978Y030115D01*
X006002Y030274D02*
X004665Y030274D01*
X004574Y030432D02*
X006097Y030432D01*
X006779Y030432D02*
X008286Y030432D01*
X008230Y030377D02*
X008160Y030208D01*
X008160Y030024D01*
X008230Y029855D01*
X008359Y029726D01*
X008394Y029712D01*
X008180Y029498D01*
X008180Y029316D01*
X008620Y029316D01*
X009060Y029316D01*
X009060Y029498D01*
X008846Y029712D01*
X008881Y029726D01*
X009010Y029855D01*
X009080Y030024D01*
X009080Y030208D01*
X009010Y030377D01*
X008881Y030506D01*
X008711Y030576D01*
X008528Y030576D01*
X008359Y030506D01*
X008230Y030377D01*
X008187Y030274D02*
X006874Y030274D01*
X006898Y030115D02*
X008160Y030115D01*
X008188Y029957D02*
X006867Y029957D01*
X006764Y029798D02*
X008287Y029798D01*
X008321Y029640D02*
X006744Y029640D01*
X006878Y029481D02*
X008180Y029481D01*
X008180Y029323D02*
X006878Y029323D01*
X006878Y029164D02*
X008180Y029164D01*
X008180Y029134D02*
X008438Y028876D01*
X008620Y028876D01*
X008802Y028876D01*
X009060Y029134D01*
X009060Y029316D01*
X008620Y029316D01*
X008620Y029316D01*
X008620Y029316D01*
X008620Y028876D01*
X008620Y029316D01*
X008620Y029316D01*
X008180Y029316D01*
X008180Y029134D01*
X008308Y029006D02*
X006743Y029006D01*
X005998Y029164D02*
X004667Y029164D01*
X003787Y029164D02*
X003113Y029164D01*
X003190Y029323D02*
X003787Y029323D01*
X003787Y029481D02*
X003224Y029481D01*
X003205Y029355D02*
X003205Y029355D01*
X003248Y029640D02*
X003915Y029640D01*
X003907Y029798D02*
X003272Y029798D01*
X003264Y029957D02*
X003801Y029957D01*
X003767Y030115D02*
X003240Y030115D01*
X003216Y030274D02*
X003789Y030274D01*
X003880Y030432D02*
X003164Y030432D01*
X003087Y030591D02*
X011696Y030591D01*
X011705Y030607D02*
X011672Y030543D01*
X011649Y030474D01*
X011638Y030402D01*
X011638Y030376D01*
X012368Y030376D01*
X012368Y030826D01*
X012062Y030826D01*
X011990Y030815D01*
X011921Y030792D01*
X011857Y030759D01*
X011798Y030717D01*
X011747Y030666D01*
X011705Y030607D01*
X011643Y030432D02*
X008954Y030432D01*
X009053Y030274D02*
X011647Y030274D01*
X011649Y030258D02*
X011672Y030189D01*
X011705Y030125D01*
X011747Y030066D01*
X011798Y030015D01*
X011857Y029973D01*
X011921Y029940D01*
X011990Y029917D01*
X012062Y029906D01*
X012368Y029906D01*
X012368Y030356D01*
X011638Y030356D01*
X011638Y030330D01*
X011649Y030258D01*
X011712Y030115D02*
X009080Y030115D01*
X009052Y029957D02*
X011888Y029957D01*
X011887Y029798D02*
X008953Y029798D01*
X008919Y029640D02*
X011693Y029640D01*
X011691Y029638D02*
X011618Y029461D01*
X011618Y029271D01*
X011691Y029094D01*
X011826Y028959D01*
X012003Y028886D01*
X012753Y028886D01*
X012930Y028959D01*
X013065Y029094D01*
X013138Y029271D01*
X013138Y029461D01*
X013065Y029638D01*
X012930Y029773D01*
X012753Y029846D01*
X012003Y029846D01*
X011826Y029773D01*
X011691Y029638D01*
X011626Y029481D02*
X009060Y029481D01*
X009060Y029323D02*
X011618Y029323D01*
X011662Y029164D02*
X009060Y029164D01*
X008932Y029006D02*
X011780Y029006D01*
X011742Y028689D02*
X002789Y028689D01*
X002636Y028530D02*
X011646Y028530D01*
X012976Y029006D02*
X013460Y029006D01*
X013463Y029164D02*
X013094Y029164D01*
X013138Y029323D02*
X013465Y029323D01*
X013468Y029481D02*
X013130Y029481D01*
X013063Y029640D02*
X013470Y029640D01*
X013473Y029798D02*
X012869Y029798D01*
X012835Y029940D02*
X012899Y029973D01*
X012958Y030015D01*
X013009Y030066D01*
X013051Y030125D01*
X013084Y030189D01*
X013107Y030258D01*
X013118Y030330D01*
X013118Y030356D01*
X012388Y030356D01*
X012388Y030376D01*
X012368Y030376D01*
X012368Y030356D01*
X012388Y030356D01*
X012388Y029906D01*
X012694Y029906D01*
X012766Y029917D01*
X012835Y029940D01*
X012868Y029957D02*
X013476Y029957D01*
X013478Y030115D02*
X013044Y030115D01*
X013109Y030274D02*
X013481Y030274D01*
X013483Y030432D02*
X013113Y030432D01*
X013118Y030402D02*
X013107Y030474D01*
X013084Y030543D01*
X013051Y030607D01*
X013009Y030666D01*
X012958Y030717D01*
X012899Y030759D01*
X012835Y030792D01*
X012766Y030815D01*
X012694Y030826D01*
X012388Y030826D01*
X012388Y030376D01*
X013118Y030376D01*
X013118Y030402D01*
X013060Y030591D02*
X013486Y030591D01*
X013488Y030749D02*
X012913Y030749D01*
X013491Y030908D02*
X002885Y030908D01*
X003011Y030749D02*
X011843Y030749D01*
X012368Y030749D02*
X012388Y030749D01*
X012388Y030591D02*
X012368Y030591D01*
X012368Y030432D02*
X012388Y030432D01*
X012388Y030274D02*
X012368Y030274D01*
X012368Y030115D02*
X012388Y030115D01*
X012388Y029957D02*
X012368Y029957D01*
X008620Y029164D02*
X008620Y029164D01*
X008620Y029006D02*
X008620Y029006D01*
X009203Y027104D02*
X005797Y027104D01*
X005955Y026945D02*
X009045Y026945D01*
X009040Y026787D02*
X005960Y026787D01*
X005960Y026628D02*
X009040Y026628D01*
X009130Y026470D02*
X005870Y026470D01*
X005760Y026311D02*
X009288Y026311D01*
X010240Y025994D02*
X005760Y025994D01*
X005760Y025836D02*
X010240Y025836D01*
X010240Y025677D02*
X005760Y025677D01*
X005760Y025519D02*
X010151Y025519D01*
X011064Y025519D02*
X011280Y025519D01*
X011280Y025591D02*
X011280Y025408D01*
X011350Y025239D01*
X011479Y025110D01*
X011648Y025040D01*
X012351Y025040D01*
X012521Y025110D01*
X012650Y025239D01*
X012720Y025408D01*
X012720Y025591D01*
X012650Y025761D01*
X012521Y025890D01*
X012351Y025960D01*
X011648Y025960D01*
X011479Y025890D01*
X011350Y025761D01*
X011280Y025591D01*
X011315Y025677D02*
X011064Y025677D01*
X011064Y025836D02*
X011425Y025836D01*
X011064Y025994D02*
X013413Y025994D01*
X013410Y025836D02*
X012575Y025836D01*
X012685Y025677D02*
X013408Y025677D01*
X013405Y025519D02*
X012720Y025519D01*
X012700Y025360D02*
X013403Y025360D01*
X013400Y025202D02*
X012612Y025202D01*
X012359Y025043D02*
X013398Y025043D01*
X013395Y024885D02*
X012526Y024885D01*
X012521Y024890D02*
X012351Y024960D01*
X011648Y024960D01*
X011479Y024890D01*
X011350Y024761D01*
X011280Y024591D01*
X011280Y024408D01*
X011350Y024239D01*
X011479Y024110D01*
X011648Y024040D01*
X012351Y024040D01*
X012521Y024110D01*
X012650Y024239D01*
X012720Y024408D01*
X012720Y024591D01*
X012650Y024761D01*
X012521Y024890D01*
X012664Y024726D02*
X013392Y024726D01*
X013390Y024568D02*
X012720Y024568D01*
X012720Y024409D02*
X013387Y024409D01*
X013385Y024251D02*
X012655Y024251D01*
X012477Y024092D02*
X013382Y024092D01*
X013380Y023934D02*
X012415Y023934D01*
X012351Y023960D02*
X011648Y023960D01*
X011479Y023890D01*
X011350Y023761D01*
X011280Y023591D01*
X011280Y023408D01*
X011350Y023239D01*
X011479Y023110D01*
X011648Y023040D01*
X012351Y023040D01*
X012521Y023110D01*
X012650Y023239D01*
X012720Y023408D01*
X012720Y023591D01*
X012650Y023761D01*
X012521Y023890D01*
X012351Y023960D01*
X012635Y023775D02*
X013377Y023775D01*
X013375Y023617D02*
X012710Y023617D01*
X012720Y023458D02*
X013372Y023458D01*
X013370Y023300D02*
X012675Y023300D01*
X012552Y023141D02*
X013367Y023141D01*
X013365Y022983D02*
X008195Y022983D01*
X008215Y022993D02*
X008273Y023035D01*
X008324Y023086D01*
X008366Y023144D01*
X008399Y023207D01*
X008421Y023275D01*
X008432Y023346D01*
X008432Y023374D01*
X007985Y023374D01*
X007985Y023390D01*
X008432Y023390D01*
X008432Y023418D01*
X008421Y023489D01*
X008399Y023557D01*
X008366Y023620D01*
X008324Y023678D01*
X008273Y023729D01*
X008215Y023771D01*
X008152Y023804D01*
X008084Y023826D01*
X008013Y023837D01*
X007985Y023837D01*
X007985Y023390D01*
X007969Y023390D01*
X007969Y023374D01*
X007985Y023374D01*
X007985Y022927D01*
X008013Y022927D01*
X008084Y022938D01*
X008152Y022960D01*
X008215Y022993D01*
X008151Y022824D02*
X011413Y022824D01*
X011350Y022761D02*
X011280Y022591D01*
X011280Y022408D01*
X011350Y022239D01*
X011479Y022110D01*
X011648Y022040D01*
X012351Y022040D01*
X012521Y022110D01*
X012650Y022239D01*
X012720Y022408D01*
X012720Y022591D01*
X012650Y022761D01*
X012521Y022890D01*
X012351Y022960D01*
X011648Y022960D01*
X011479Y022890D01*
X011350Y022761D01*
X011311Y022666D02*
X008365Y022666D01*
X008380Y022651D02*
X008246Y022785D01*
X008071Y022857D01*
X007883Y022857D01*
X007708Y022785D01*
X007574Y022651D01*
X007502Y022476D01*
X007502Y022288D01*
X007574Y022113D01*
X007708Y021979D01*
X007883Y021907D01*
X008071Y021907D01*
X008246Y021979D01*
X008380Y022113D01*
X008452Y022288D01*
X008452Y022476D01*
X008380Y022651D01*
X008439Y022507D02*
X011280Y022507D01*
X011305Y022349D02*
X008452Y022349D01*
X008412Y022190D02*
X011399Y022190D01*
X011318Y021440D02*
X011060Y021182D01*
X011060Y021000D01*
X011500Y021000D01*
X011940Y021000D01*
X011940Y021182D01*
X011682Y021440D01*
X011500Y021440D01*
X011500Y021000D01*
X011500Y021000D01*
X011500Y021000D01*
X011940Y021000D01*
X011940Y020818D01*
X011682Y020560D01*
X011500Y020560D01*
X011500Y021000D01*
X011500Y021000D01*
X011500Y021000D01*
X011500Y021440D01*
X011318Y021440D01*
X011275Y021398D02*
X008452Y021398D01*
X008452Y021476D02*
X008380Y021651D01*
X008246Y021785D01*
X008071Y021857D01*
X007883Y021857D01*
X007708Y021785D01*
X007574Y021651D01*
X007502Y021476D01*
X007502Y021288D01*
X007574Y021113D01*
X007708Y020979D01*
X007883Y020907D01*
X008071Y020907D01*
X008246Y020979D01*
X008380Y021113D01*
X008452Y021288D01*
X008452Y021476D01*
X008419Y021556D02*
X013342Y021556D01*
X013340Y021398D02*
X012753Y021398D01*
X012691Y021460D02*
X012309Y021460D01*
X012040Y021191D01*
X012040Y020809D01*
X012309Y020540D01*
X012691Y020540D01*
X012960Y020809D01*
X012960Y021191D01*
X012691Y021460D01*
X012912Y021239D02*
X013337Y021239D01*
X013335Y021081D02*
X012960Y021081D01*
X012960Y020922D02*
X013332Y020922D01*
X013330Y020764D02*
X012914Y020764D01*
X012756Y020605D02*
X013327Y020605D01*
X013325Y020447D02*
X010045Y020447D01*
X010020Y020471D02*
X009838Y020471D01*
X009838Y020031D01*
X009838Y020031D01*
X009838Y020471D01*
X009656Y020471D01*
X009398Y020213D01*
X009398Y020031D01*
X009838Y020031D01*
X010278Y020031D01*
X010278Y020213D01*
X010020Y020471D01*
X009838Y020447D02*
X009838Y020447D01*
X009838Y020288D02*
X009838Y020288D01*
X009838Y020130D02*
X009838Y020130D01*
X009838Y020031D02*
X009838Y020031D01*
X009838Y020031D01*
X010278Y020031D01*
X010278Y019849D01*
X010020Y019591D01*
X009838Y019591D01*
X009838Y020031D01*
X009838Y020031D01*
X009398Y020031D01*
X009398Y019849D01*
X009656Y019591D01*
X009838Y019591D01*
X009838Y020031D01*
X009838Y019971D02*
X009838Y019971D01*
X009838Y019813D02*
X009838Y019813D01*
X009838Y019654D02*
X009838Y019654D01*
X009809Y019460D02*
X009540Y019191D01*
X009540Y018809D01*
X009809Y018540D01*
X010191Y018540D01*
X010460Y018809D01*
X010460Y019191D01*
X010191Y019460D01*
X009809Y019460D01*
X009686Y019337D02*
X008205Y019337D01*
X008260Y019496D02*
X013309Y019496D01*
X013312Y019654D02*
X010083Y019654D01*
X010242Y019813D02*
X013314Y019813D01*
X013317Y019971D02*
X010278Y019971D01*
X010278Y020130D02*
X013320Y020130D01*
X013322Y020288D02*
X010203Y020288D01*
X009631Y020447D02*
X008452Y020447D01*
X008452Y020605D02*
X011273Y020605D01*
X011318Y020560D02*
X011500Y020560D01*
X011500Y021000D01*
X011060Y021000D01*
X011060Y020818D01*
X011318Y020560D01*
X011500Y020605D02*
X011500Y020605D01*
X011500Y020764D02*
X011500Y020764D01*
X011500Y020922D02*
X011500Y020922D01*
X011500Y021081D02*
X011500Y021081D01*
X011500Y021239D02*
X011500Y021239D01*
X011500Y021398D02*
X011500Y021398D01*
X011725Y021398D02*
X012247Y021398D01*
X012088Y021239D02*
X011883Y021239D01*
X011940Y021081D02*
X012040Y021081D01*
X012040Y020922D02*
X011940Y020922D01*
X011886Y020764D02*
X012086Y020764D01*
X012244Y020605D02*
X011727Y020605D01*
X011114Y020764D02*
X008428Y020764D01*
X008347Y021081D02*
X011060Y021081D01*
X011060Y020922D02*
X008108Y020922D01*
X007846Y020922D02*
X005108Y020922D01*
X005071Y020907D02*
X005246Y020979D01*
X005380Y021113D01*
X005452Y021288D01*
X005452Y021476D01*
X005380Y021651D01*
X005377Y021654D01*
X005377Y022110D01*
X005380Y022113D01*
X005452Y022288D01*
X005452Y022476D01*
X005380Y022651D01*
X005246Y022785D01*
X005071Y022857D01*
X004883Y022857D01*
X004708Y022785D01*
X004574Y022651D01*
X004502Y022476D01*
X004502Y022288D01*
X004574Y022113D01*
X004577Y022110D01*
X004577Y021654D01*
X004574Y021651D01*
X004502Y021476D01*
X004502Y021288D01*
X004574Y021113D01*
X004708Y020979D01*
X004883Y020907D01*
X005071Y020907D01*
X005071Y020857D02*
X004883Y020857D01*
X004708Y020785D01*
X004574Y020651D01*
X004502Y020476D01*
X004502Y020288D01*
X001511Y020288D01*
X001511Y020130D02*
X001909Y020130D01*
X001511Y020447D02*
X004502Y020447D01*
X004502Y020288D02*
X004574Y020113D01*
X004708Y019979D01*
X004883Y019907D01*
X005071Y019907D01*
X005246Y019979D01*
X005380Y020113D01*
X005452Y020288D01*
X007502Y020288D01*
X007502Y020130D02*
X005387Y020130D01*
X005452Y020288D02*
X005452Y020476D01*
X005380Y020651D01*
X005246Y020785D01*
X005071Y020857D01*
X005267Y020764D02*
X007526Y020764D01*
X007502Y020605D02*
X005399Y020605D01*
X005452Y020447D02*
X007502Y020447D01*
X007607Y021081D02*
X005347Y021081D01*
X005432Y021239D02*
X007522Y021239D01*
X007502Y021398D02*
X005452Y021398D01*
X005419Y021556D02*
X007535Y021556D01*
X007638Y021715D02*
X005377Y021715D01*
X005377Y021873D02*
X013347Y021873D01*
X013345Y021715D02*
X008316Y021715D01*
X008298Y022032D02*
X013350Y022032D01*
X013352Y022190D02*
X012601Y022190D01*
X012695Y022349D02*
X013355Y022349D01*
X013357Y022507D02*
X012720Y022507D01*
X012689Y022666D02*
X013360Y022666D01*
X013362Y022824D02*
X012587Y022824D01*
X011448Y023141D02*
X008364Y023141D01*
X008425Y023300D02*
X011325Y023300D01*
X011280Y023458D02*
X008426Y023458D01*
X008368Y023617D02*
X009602Y023617D01*
X009647Y023571D02*
X010029Y023571D01*
X010298Y023840D01*
X010298Y024222D01*
X010029Y024491D01*
X009647Y024491D01*
X009378Y024222D01*
X009378Y023840D01*
X009647Y023571D01*
X009443Y023775D02*
X008208Y023775D01*
X007985Y023775D02*
X007969Y023775D01*
X007969Y023837D02*
X007969Y023390D01*
X007522Y023390D01*
X007522Y023418D01*
X007533Y023489D01*
X007555Y023557D01*
X007588Y023620D01*
X007630Y023678D01*
X007681Y023729D01*
X007739Y023771D01*
X007802Y023804D01*
X007870Y023826D01*
X007941Y023837D01*
X007969Y023837D01*
X007969Y023617D02*
X007985Y023617D01*
X007969Y023458D02*
X007985Y023458D01*
X007969Y023374D02*
X007522Y023374D01*
X007522Y023346D01*
X007533Y023275D01*
X007555Y023207D01*
X007588Y023144D01*
X007630Y023086D01*
X007681Y023035D01*
X007739Y022993D01*
X007802Y022960D01*
X007870Y022938D01*
X007941Y022927D01*
X007969Y022927D01*
X007969Y023374D01*
X007969Y023300D02*
X007985Y023300D01*
X007969Y023141D02*
X007985Y023141D01*
X007969Y022983D02*
X007985Y022983D01*
X007759Y022983D02*
X005195Y022983D01*
X005215Y022993D02*
X005273Y023035D01*
X005324Y023086D01*
X005366Y023144D01*
X005399Y023207D01*
X005421Y023275D01*
X005432Y023346D01*
X005432Y023374D01*
X004985Y023374D01*
X004985Y023390D01*
X005432Y023390D01*
X005432Y023418D01*
X005421Y023489D01*
X005399Y023557D01*
X005366Y023620D01*
X005324Y023678D01*
X005273Y023729D01*
X005215Y023771D01*
X005152Y023804D01*
X005084Y023826D01*
X005013Y023837D01*
X004985Y023837D01*
X004985Y023390D01*
X004969Y023390D01*
X004969Y023374D01*
X004985Y023374D01*
X004985Y022927D01*
X005013Y022927D01*
X005084Y022938D01*
X005152Y022960D01*
X005215Y022993D01*
X005151Y022824D02*
X007803Y022824D01*
X007589Y022666D02*
X005365Y022666D01*
X005439Y022507D02*
X007515Y022507D01*
X007502Y022349D02*
X005452Y022349D01*
X005412Y022190D02*
X007542Y022190D01*
X007656Y022032D02*
X005377Y022032D01*
X004577Y022032D02*
X004103Y022032D01*
X004098Y022037D02*
X003716Y022037D01*
X003447Y021768D01*
X003447Y021386D01*
X003716Y021117D01*
X004098Y021117D01*
X004367Y021386D01*
X004367Y021768D01*
X004098Y022037D01*
X004089Y022137D02*
X004347Y022395D01*
X004347Y022577D01*
X004347Y022759D01*
X004089Y023017D01*
X003907Y023017D01*
X003907Y022577D01*
X003907Y022577D01*
X004347Y022577D01*
X003907Y022577D01*
X003907Y022577D01*
X003907Y022577D01*
X003467Y022577D01*
X003467Y022759D01*
X003725Y023017D01*
X003907Y023017D01*
X003907Y022577D01*
X003907Y022137D01*
X004089Y022137D01*
X004142Y022190D02*
X004542Y022190D01*
X004502Y022349D02*
X004301Y022349D01*
X004347Y022507D02*
X004515Y022507D01*
X004589Y022666D02*
X004347Y022666D01*
X004282Y022824D02*
X004803Y022824D01*
X004870Y022938D02*
X004941Y022927D01*
X004969Y022927D01*
X004969Y023374D01*
X004522Y023374D01*
X004522Y023346D01*
X004533Y023275D01*
X004555Y023207D01*
X004588Y023144D01*
X004630Y023086D01*
X004681Y023035D01*
X004739Y022993D01*
X004802Y022960D01*
X004870Y022938D01*
X004969Y022983D02*
X004985Y022983D01*
X004969Y023141D02*
X004985Y023141D01*
X004969Y023300D02*
X004985Y023300D01*
X004969Y023390D02*
X004522Y023390D01*
X004522Y023418D01*
X004533Y023489D01*
X004555Y023557D01*
X004588Y023620D01*
X004630Y023678D01*
X004681Y023729D01*
X004739Y023771D01*
X004802Y023804D01*
X004870Y023826D01*
X004941Y023837D01*
X004969Y023837D01*
X004969Y023390D01*
X004969Y023458D02*
X004985Y023458D01*
X004969Y023617D02*
X004985Y023617D01*
X004969Y023775D02*
X004985Y023775D01*
X005208Y023775D02*
X007746Y023775D01*
X007586Y023617D02*
X005368Y023617D01*
X005426Y023458D02*
X007528Y023458D01*
X007529Y023300D02*
X005425Y023300D01*
X005364Y023141D02*
X007590Y023141D01*
X009378Y023934D02*
X002650Y023934D01*
X002650Y023951D02*
X002381Y024220D01*
X001999Y024220D01*
X001730Y023951D01*
X001730Y023569D01*
X001999Y023300D01*
X002381Y023300D01*
X002650Y023569D01*
X002650Y023951D01*
X002650Y023775D02*
X004746Y023775D01*
X004586Y023617D02*
X002650Y023617D01*
X002539Y023458D02*
X004528Y023458D01*
X004529Y023300D02*
X001511Y023300D01*
X001511Y023458D02*
X001841Y023458D01*
X001730Y023617D02*
X001511Y023617D01*
X001511Y023775D02*
X001730Y023775D01*
X001730Y023934D02*
X001511Y023934D01*
X001511Y024092D02*
X001871Y024092D01*
X001511Y024251D02*
X009407Y024251D01*
X009378Y024092D02*
X002508Y024092D01*
X001511Y024409D02*
X009566Y024409D01*
X010110Y024409D02*
X011280Y024409D01*
X011280Y024568D02*
X001511Y024568D01*
X001511Y023141D02*
X004590Y023141D01*
X004759Y022983D02*
X004124Y022983D01*
X003907Y022983D02*
X003907Y022983D01*
X003907Y022824D02*
X003907Y022824D01*
X003907Y022666D02*
X003907Y022666D01*
X003907Y022577D02*
X003467Y022577D01*
X003467Y022395D01*
X003725Y022137D01*
X003907Y022137D01*
X003907Y022577D01*
X003907Y022577D01*
X003907Y022507D02*
X003907Y022507D01*
X003907Y022349D02*
X003907Y022349D01*
X003907Y022190D02*
X003907Y022190D01*
X003672Y022190D02*
X001511Y022190D01*
X001511Y022032D02*
X003711Y022032D01*
X003552Y021873D02*
X001511Y021873D01*
X001511Y021715D02*
X003447Y021715D01*
X003447Y021556D02*
X001511Y021556D01*
X001511Y021398D02*
X003447Y021398D01*
X003594Y021239D02*
X001511Y021239D01*
X001511Y021081D02*
X004607Y021081D01*
X004522Y021239D02*
X004220Y021239D01*
X004367Y021398D02*
X004502Y021398D01*
X004535Y021556D02*
X004367Y021556D01*
X004367Y021715D02*
X004577Y021715D01*
X004577Y021873D02*
X004262Y021873D01*
X003513Y022349D02*
X001511Y022349D01*
X001511Y022507D02*
X003467Y022507D01*
X003467Y022666D02*
X001511Y022666D01*
X001511Y022824D02*
X003532Y022824D01*
X003690Y022983D02*
X001511Y022983D01*
X001511Y020922D02*
X004846Y020922D01*
X004687Y020764D02*
X001511Y020764D01*
X001511Y020605D02*
X004555Y020605D01*
X004567Y020130D02*
X002471Y020130D01*
X002630Y019971D02*
X004728Y019971D01*
X005226Y019971D02*
X007555Y019971D01*
X007740Y019813D02*
X002650Y019813D01*
X002650Y019654D02*
X002686Y019654D01*
X003160Y019179D02*
X009540Y019179D01*
X009540Y019020D02*
X003160Y019020D01*
X003160Y018862D02*
X004724Y018862D01*
X004704Y018847D02*
X004653Y018796D01*
X004611Y018738D01*
X004578Y018675D01*
X004556Y018607D01*
X004545Y018536D01*
X004545Y018508D01*
X004992Y018508D01*
X004992Y018955D01*
X004964Y018955D01*
X004893Y018944D01*
X004825Y018922D01*
X004762Y018889D01*
X004704Y018847D01*
X004593Y018703D02*
X003160Y018703D01*
X003160Y018545D02*
X004546Y018545D01*
X004545Y018492D02*
X004545Y018464D01*
X004556Y018393D01*
X004578Y018325D01*
X004611Y018262D01*
X004653Y018204D01*
X004704Y018153D01*
X004762Y018111D01*
X004825Y018078D01*
X004893Y018056D01*
X004964Y018045D01*
X004992Y018045D01*
X004992Y018492D01*
X005008Y018492D01*
X005008Y018508D01*
X005455Y018508D01*
X005455Y018536D01*
X005444Y018607D01*
X005422Y018675D01*
X005389Y018738D01*
X005347Y018796D01*
X005296Y018847D01*
X005238Y018889D01*
X005175Y018922D01*
X005107Y018944D01*
X005036Y018955D01*
X005008Y018955D01*
X005008Y018508D01*
X004992Y018508D01*
X004992Y018492D01*
X004545Y018492D01*
X004559Y018386D02*
X003160Y018386D01*
X003160Y018228D02*
X004636Y018228D01*
X004854Y018069D02*
X003160Y018069D01*
X003160Y017911D02*
X004750Y017911D01*
X004731Y017903D02*
X004597Y017769D01*
X004525Y017594D01*
X003160Y017594D01*
X003160Y017752D02*
X004590Y017752D01*
X004525Y017594D02*
X004525Y017406D01*
X004597Y017231D01*
X004600Y017228D01*
X004600Y016772D01*
X004597Y016769D01*
X004525Y016594D01*
X004525Y016406D01*
X004597Y016231D01*
X004731Y016097D01*
X004906Y016025D01*
X005094Y016025D01*
X005269Y016097D01*
X005403Y016231D01*
X005475Y016406D01*
X005475Y016594D01*
X005403Y016769D01*
X005400Y016772D01*
X005400Y017228D01*
X005403Y017231D01*
X005475Y017406D01*
X005475Y017594D01*
X007525Y017594D01*
X007525Y017406D01*
X007597Y017231D01*
X007731Y017097D01*
X007906Y017025D01*
X008094Y017025D01*
X008269Y017097D01*
X008403Y017231D01*
X008475Y017406D01*
X008475Y017594D01*
X011519Y017594D01*
X011479Y017610D02*
X011648Y017540D01*
X012351Y017540D01*
X012521Y017610D01*
X012650Y017739D01*
X012720Y017908D01*
X012720Y018091D01*
X012650Y018261D01*
X012521Y018390D01*
X012351Y018460D01*
X011648Y018460D01*
X011479Y018390D01*
X011350Y018261D01*
X011280Y018091D01*
X011280Y017908D01*
X011350Y017739D01*
X011479Y017610D01*
X011345Y017752D02*
X008410Y017752D01*
X008403Y017769D02*
X008269Y017903D01*
X008094Y017975D01*
X007906Y017975D01*
X007731Y017903D01*
X007597Y017769D01*
X007525Y017594D01*
X007525Y017435D02*
X005475Y017435D01*
X005475Y017594D02*
X005403Y017769D01*
X005269Y017903D01*
X005094Y017975D01*
X004906Y017975D01*
X004731Y017903D01*
X004992Y018069D02*
X005008Y018069D01*
X005008Y018045D02*
X005036Y018045D01*
X005107Y018056D01*
X005175Y018078D01*
X005238Y018111D01*
X005296Y018153D01*
X005347Y018204D01*
X005389Y018262D01*
X005422Y018325D01*
X005444Y018393D01*
X005455Y018464D01*
X005455Y018492D01*
X005008Y018492D01*
X005008Y018045D01*
X005146Y018069D02*
X007854Y018069D01*
X007825Y018078D02*
X007893Y018056D01*
X007964Y018045D01*
X007992Y018045D01*
X007992Y018492D01*
X008008Y018492D01*
X008008Y018508D01*
X008455Y018508D01*
X008455Y018536D01*
X008444Y018607D01*
X008422Y018675D01*
X008389Y018738D01*
X008347Y018796D01*
X008296Y018847D01*
X008238Y018889D01*
X008175Y018922D01*
X008107Y018944D01*
X008036Y018955D01*
X008008Y018955D01*
X008008Y018508D01*
X007992Y018508D01*
X007992Y018955D01*
X007964Y018955D01*
X007893Y018944D01*
X007825Y018922D01*
X007762Y018889D01*
X007704Y018847D01*
X007653Y018796D01*
X007611Y018738D01*
X007578Y018675D01*
X007556Y018607D01*
X007545Y018536D01*
X007545Y018508D01*
X007992Y018508D01*
X007992Y018492D01*
X007545Y018492D01*
X007545Y018464D01*
X007556Y018393D01*
X007578Y018325D01*
X007611Y018262D01*
X007653Y018204D01*
X007704Y018153D01*
X007762Y018111D01*
X007825Y018078D01*
X007992Y018069D02*
X008008Y018069D01*
X008008Y018045D02*
X008036Y018045D01*
X008107Y018056D01*
X008175Y018078D01*
X008238Y018111D01*
X008296Y018153D01*
X008347Y018204D01*
X008389Y018262D01*
X008422Y018325D01*
X008444Y018393D01*
X008455Y018464D01*
X008455Y018492D01*
X008008Y018492D01*
X008008Y018045D01*
X008146Y018069D02*
X011280Y018069D01*
X011280Y017911D02*
X008250Y017911D01*
X008403Y017769D02*
X008475Y017594D01*
X008475Y017435D02*
X011588Y017435D01*
X011648Y017460D02*
X011479Y017390D01*
X011350Y017261D01*
X011280Y017091D01*
X011280Y016908D01*
X011350Y016739D01*
X011479Y016610D01*
X011648Y016540D01*
X012351Y016540D01*
X012521Y016610D01*
X012650Y016739D01*
X012720Y016908D01*
X012720Y017091D01*
X012650Y017261D01*
X012521Y017390D01*
X012351Y017460D01*
X011648Y017460D01*
X011366Y017277D02*
X008422Y017277D01*
X008290Y017118D02*
X011291Y017118D01*
X011280Y016960D02*
X008132Y016960D01*
X008094Y016975D02*
X008269Y016903D01*
X008403Y016769D01*
X008475Y016594D01*
X008475Y016406D01*
X008403Y016231D01*
X008269Y016097D01*
X008094Y016025D01*
X007906Y016025D01*
X007731Y016097D01*
X007597Y016231D01*
X007525Y016406D01*
X007525Y016594D01*
X007597Y016769D01*
X007731Y016903D01*
X007906Y016975D01*
X008094Y016975D01*
X007868Y016960D02*
X005400Y016960D01*
X005400Y017118D02*
X007710Y017118D01*
X007578Y017277D02*
X005422Y017277D01*
X005410Y017752D02*
X007590Y017752D01*
X007750Y017911D02*
X005250Y017911D01*
X005364Y018228D02*
X007636Y018228D01*
X007559Y018386D02*
X005441Y018386D01*
X005454Y018545D02*
X007546Y018545D01*
X007593Y018703D02*
X005407Y018703D01*
X005276Y018862D02*
X007724Y018862D01*
X007992Y018862D02*
X008008Y018862D01*
X007992Y018703D02*
X008008Y018703D01*
X007992Y018545D02*
X008008Y018545D01*
X007992Y018386D02*
X008008Y018386D01*
X007992Y018228D02*
X008008Y018228D01*
X008364Y018228D02*
X011336Y018228D01*
X011475Y018386D02*
X008441Y018386D01*
X008454Y018545D02*
X009805Y018545D01*
X009646Y018703D02*
X008407Y018703D01*
X008276Y018862D02*
X009540Y018862D01*
X010195Y018545D02*
X011638Y018545D01*
X011648Y018540D02*
X011479Y018610D01*
X011350Y018739D01*
X011280Y018908D01*
X011280Y019091D01*
X011350Y019261D01*
X011479Y019390D01*
X011648Y019460D01*
X012351Y019460D01*
X012521Y019390D01*
X012650Y019261D01*
X012720Y019091D01*
X012720Y018908D01*
X012650Y018739D01*
X012521Y018610D01*
X012351Y018540D01*
X011648Y018540D01*
X011386Y018703D02*
X010354Y018703D01*
X010460Y018862D02*
X011299Y018862D01*
X011280Y019020D02*
X010460Y019020D01*
X010460Y019179D02*
X011316Y019179D01*
X011426Y019337D02*
X010314Y019337D01*
X009593Y019654D02*
X008260Y019654D01*
X008260Y019813D02*
X009434Y019813D01*
X009398Y019971D02*
X008399Y019971D01*
X008452Y020130D02*
X009398Y020130D01*
X009473Y020288D02*
X008452Y020288D01*
X008432Y021239D02*
X011117Y021239D01*
X012574Y019337D02*
X013307Y019337D01*
X013304Y019179D02*
X012684Y019179D01*
X012720Y019020D02*
X013302Y019020D01*
X013299Y018862D02*
X012701Y018862D01*
X012614Y018703D02*
X013297Y018703D01*
X013294Y018545D02*
X012362Y018545D01*
X012525Y018386D02*
X013292Y018386D01*
X013289Y018228D02*
X012664Y018228D01*
X012720Y018069D02*
X013287Y018069D01*
X013284Y017911D02*
X012720Y017911D01*
X012655Y017752D02*
X013282Y017752D01*
X013279Y017594D02*
X012481Y017594D01*
X012412Y017435D02*
X013277Y017435D01*
X013274Y017277D02*
X012634Y017277D01*
X012709Y017118D02*
X013272Y017118D01*
X013269Y016960D02*
X012720Y016960D01*
X012675Y016801D02*
X013267Y016801D01*
X013264Y016643D02*
X012553Y016643D01*
X012521Y016390D02*
X012351Y016460D01*
X011648Y016460D01*
X011479Y016390D01*
X011350Y016261D01*
X011280Y016091D01*
X011280Y015908D01*
X011350Y015739D01*
X011479Y015610D01*
X011648Y015540D01*
X012351Y015540D01*
X012521Y015610D01*
X012650Y015739D01*
X012720Y015908D01*
X012720Y016091D01*
X012650Y016261D01*
X012521Y016390D01*
X012585Y016326D02*
X013259Y016326D01*
X013262Y016484D02*
X008475Y016484D01*
X008455Y016643D02*
X011447Y016643D01*
X011325Y016801D02*
X008371Y016801D01*
X008442Y016326D02*
X011415Y016326D01*
X011311Y016167D02*
X008339Y016167D01*
X008475Y015850D02*
X011304Y015850D01*
X011280Y016009D02*
X003170Y016009D01*
X003170Y016167D02*
X004661Y016167D01*
X004558Y016326D02*
X003170Y016326D01*
X003169Y016484D02*
X004525Y016484D01*
X004545Y016643D02*
X003160Y016643D01*
X003160Y016801D02*
X004600Y016801D01*
X004600Y016960D02*
X003160Y016960D01*
X003160Y017118D02*
X004600Y017118D01*
X004578Y017277D02*
X003160Y017277D01*
X003160Y017435D02*
X004525Y017435D01*
X004992Y018228D02*
X005008Y018228D01*
X004992Y018386D02*
X005008Y018386D01*
X004992Y018545D02*
X005008Y018545D01*
X004992Y018703D02*
X005008Y018703D01*
X004992Y018862D02*
X005008Y018862D01*
X005400Y016801D02*
X007629Y016801D01*
X007545Y016643D02*
X005455Y016643D01*
X005475Y016484D02*
X007525Y016484D01*
X007558Y016326D02*
X005442Y016326D01*
X005339Y016167D02*
X007661Y016167D01*
X007525Y015850D02*
X005322Y015850D01*
X005269Y015903D02*
X005094Y015975D01*
X004906Y015975D01*
X004731Y015903D01*
X004597Y015769D01*
X004525Y015594D01*
X004525Y015406D01*
X004597Y015231D01*
X004731Y015097D01*
X004906Y015025D01*
X005094Y015025D01*
X005269Y015097D01*
X005403Y015231D01*
X005475Y015406D01*
X005475Y015594D01*
X005403Y015769D01*
X005269Y015903D01*
X005435Y015692D02*
X007525Y015692D01*
X007525Y015533D02*
X005475Y015533D01*
X005462Y015375D02*
X007525Y015375D01*
X007525Y015216D02*
X005388Y015216D01*
X005173Y015058D02*
X007610Y015058D01*
X007740Y014899D02*
X002640Y014899D01*
X002640Y014741D02*
X007740Y014741D01*
X007740Y014582D02*
X002640Y014582D01*
X002640Y014424D02*
X007740Y014424D01*
X007740Y014265D02*
X003168Y014265D01*
X003125Y013473D02*
X013214Y013473D01*
X013216Y013631D02*
X012782Y013631D01*
X012691Y013540D02*
X012960Y013809D01*
X012960Y014191D01*
X012691Y014460D01*
X012309Y014460D01*
X012040Y014191D01*
X012040Y013809D01*
X012309Y013540D01*
X012691Y013540D01*
X012940Y013790D02*
X013219Y013790D01*
X013221Y013948D02*
X012960Y013948D01*
X012960Y014107D02*
X013224Y014107D01*
X013226Y014265D02*
X012886Y014265D01*
X012727Y014424D02*
X013229Y014424D01*
X013231Y014582D02*
X010204Y014582D01*
X010182Y014560D02*
X010440Y014818D01*
X010440Y015000D01*
X010440Y015182D01*
X010182Y015440D01*
X010000Y015440D01*
X010000Y015000D01*
X010000Y015000D01*
X010440Y015000D01*
X010000Y015000D01*
X010000Y015000D01*
X010000Y015000D01*
X009560Y015000D01*
X009560Y015182D01*
X009818Y015440D01*
X010000Y015440D01*
X010000Y015000D01*
X010000Y014560D01*
X010182Y014560D01*
X010000Y014560D02*
X010000Y015000D01*
X010000Y015000D01*
X009560Y015000D01*
X009560Y014818D01*
X009818Y014560D01*
X010000Y014560D01*
X010000Y014582D02*
X010000Y014582D01*
X010000Y014741D02*
X010000Y014741D01*
X010000Y014899D02*
X010000Y014899D01*
X010000Y015058D02*
X010000Y015058D01*
X010000Y015216D02*
X010000Y015216D01*
X010000Y015375D02*
X010000Y015375D01*
X010248Y015375D02*
X013244Y015375D01*
X013247Y015533D02*
X008475Y015533D01*
X008475Y015375D02*
X009752Y015375D01*
X009594Y015216D02*
X008475Y015216D01*
X008390Y015058D02*
X009560Y015058D01*
X009560Y014899D02*
X008260Y014899D01*
X008260Y014741D02*
X009637Y014741D01*
X009796Y014582D02*
X008260Y014582D01*
X008260Y014424D02*
X011301Y014424D01*
X011318Y014440D02*
X011060Y014182D01*
X011060Y014000D01*
X011500Y014000D01*
X011940Y014000D01*
X011940Y014182D01*
X011682Y014440D01*
X011500Y014440D01*
X011500Y014000D01*
X011500Y014000D01*
X011500Y014000D01*
X011940Y014000D01*
X011940Y013818D01*
X011682Y013560D01*
X011500Y013560D01*
X011500Y014000D01*
X011500Y014000D01*
X011500Y014000D01*
X011500Y014440D01*
X011318Y014440D01*
X011500Y014424D02*
X011500Y014424D01*
X011500Y014265D02*
X011500Y014265D01*
X011500Y014107D02*
X011500Y014107D01*
X011500Y014000D02*
X011060Y014000D01*
X011060Y013818D01*
X011318Y013560D01*
X011500Y013560D01*
X011500Y014000D01*
X011500Y013948D02*
X011500Y013948D01*
X011500Y013790D02*
X011500Y013790D01*
X011500Y013631D02*
X011500Y013631D01*
X011753Y013631D02*
X012218Y013631D01*
X012060Y013790D02*
X011912Y013790D01*
X011940Y013948D02*
X012040Y013948D01*
X012040Y014107D02*
X011940Y014107D01*
X011857Y014265D02*
X012114Y014265D01*
X012273Y014424D02*
X011699Y014424D01*
X011143Y014265D02*
X008260Y014265D01*
X008260Y014107D02*
X011060Y014107D01*
X011060Y013948D02*
X008260Y013948D01*
X008240Y013790D02*
X011088Y013790D01*
X011247Y013631D02*
X008054Y013631D01*
X006720Y012647D02*
X006647Y012720D01*
X006552Y012760D01*
X004245Y012760D01*
X004245Y012878D01*
X004128Y012995D01*
X003372Y012995D01*
X003255Y012878D01*
X003255Y012122D01*
X003372Y012005D01*
X004128Y012005D01*
X004245Y012122D01*
X004245Y012240D01*
X006240Y012240D01*
X006240Y009448D01*
X006280Y009353D01*
X006353Y009280D01*
X006448Y009240D01*
X007594Y009240D01*
X007597Y009231D01*
X007731Y009097D01*
X007906Y009025D01*
X008094Y009025D01*
X008269Y009097D01*
X008403Y009231D01*
X008475Y009406D01*
X008475Y009594D01*
X008403Y009769D01*
X008269Y009903D01*
X008094Y009975D01*
X007906Y009975D01*
X007731Y009903D01*
X007597Y009769D01*
X007594Y009760D01*
X006760Y009760D01*
X006760Y012552D01*
X006720Y012647D01*
X006688Y012680D02*
X011576Y012680D01*
X011648Y012710D02*
X011479Y012640D01*
X011350Y012511D01*
X011280Y012341D01*
X011280Y012158D01*
X011350Y011989D01*
X011479Y011860D01*
X011648Y011790D01*
X012351Y011790D01*
X012521Y011860D01*
X012650Y011989D01*
X012720Y012158D01*
X012720Y012341D01*
X012650Y012511D01*
X012521Y012640D01*
X012351Y012710D01*
X011648Y012710D01*
X011361Y012522D02*
X006760Y012522D01*
X006760Y012363D02*
X009712Y012363D01*
X009809Y012460D02*
X009540Y012191D01*
X009540Y011809D01*
X009809Y011540D01*
X010191Y011540D01*
X010460Y011809D01*
X010460Y012191D01*
X010191Y012460D01*
X009809Y012460D01*
X009554Y012205D02*
X006760Y012205D01*
X006760Y012046D02*
X009540Y012046D01*
X009540Y011888D02*
X008241Y011888D01*
X008238Y011889D02*
X008175Y011922D01*
X008107Y011944D01*
X008036Y011955D01*
X008008Y011955D01*
X008008Y011508D01*
X008455Y011508D01*
X008455Y011536D01*
X008444Y011607D01*
X008422Y011675D01*
X008389Y011738D01*
X008347Y011796D01*
X008296Y011847D01*
X008238Y011889D01*
X008394Y011729D02*
X009620Y011729D01*
X009779Y011571D02*
X008450Y011571D01*
X008455Y011492D02*
X008008Y011492D01*
X008008Y011508D01*
X007992Y011508D01*
X007992Y011955D01*
X007964Y011955D01*
X007893Y011944D01*
X007825Y011922D01*
X007762Y011889D01*
X007704Y011847D01*
X007653Y011796D01*
X007611Y011738D01*
X007578Y011675D01*
X007556Y011607D01*
X007545Y011536D01*
X007545Y011508D01*
X007992Y011508D01*
X007992Y011492D01*
X008008Y011492D01*
X008008Y011045D01*
X008036Y011045D01*
X008107Y011056D01*
X008175Y011078D01*
X008238Y011111D01*
X008296Y011153D01*
X008347Y011204D01*
X008389Y011262D01*
X008422Y011325D01*
X008444Y011393D01*
X008455Y011464D01*
X008455Y011492D01*
X008447Y011412D02*
X011309Y011412D01*
X011280Y011341D02*
X011280Y011158D01*
X011350Y010989D01*
X011479Y010860D01*
X011648Y010790D01*
X012351Y010790D01*
X012521Y010860D01*
X012650Y010989D01*
X012720Y011158D01*
X012720Y011341D01*
X012650Y011511D01*
X012521Y011640D01*
X012351Y011710D01*
X011648Y011710D01*
X011479Y011640D01*
X011350Y011511D01*
X011280Y011341D01*
X011280Y011254D02*
X008383Y011254D01*
X008207Y011095D02*
X011306Y011095D01*
X011403Y010937D02*
X008187Y010937D01*
X008269Y010903D02*
X008094Y010975D01*
X007906Y010975D01*
X007731Y010903D01*
X007597Y010769D01*
X007525Y010594D01*
X007525Y010406D01*
X007597Y010231D01*
X007731Y010097D01*
X007906Y010025D01*
X008094Y010025D01*
X008269Y010097D01*
X008403Y010231D01*
X008475Y010406D01*
X008475Y010594D01*
X008403Y010769D01*
X008269Y010903D01*
X008394Y010778D02*
X013171Y010778D01*
X013169Y010620D02*
X012541Y010620D01*
X012521Y010640D02*
X012351Y010710D01*
X011648Y010710D01*
X011479Y010640D01*
X011350Y010511D01*
X011280Y010341D01*
X011280Y010158D01*
X011350Y009989D01*
X011479Y009860D01*
X011648Y009790D01*
X012351Y009790D01*
X012521Y009860D01*
X012650Y009989D01*
X012720Y010158D01*
X012720Y010341D01*
X012650Y010511D01*
X012521Y010640D01*
X012670Y010461D02*
X013166Y010461D01*
X013164Y010303D02*
X012720Y010303D01*
X012714Y010144D02*
X013161Y010144D01*
X013159Y009986D02*
X012646Y009986D01*
X012441Y009827D02*
X013156Y009827D01*
X013153Y009669D02*
X012452Y009669D01*
X012521Y009640D02*
X012351Y009710D01*
X011648Y009710D01*
X011479Y009640D01*
X011350Y009511D01*
X011280Y009341D01*
X011280Y009158D01*
X011350Y008989D01*
X011479Y008860D01*
X011648Y008790D01*
X012351Y008790D01*
X012521Y008860D01*
X012650Y008989D01*
X012720Y009158D01*
X012720Y009341D01*
X012650Y009511D01*
X012521Y009640D01*
X012650Y009510D02*
X013151Y009510D01*
X013148Y009352D02*
X012716Y009352D01*
X012720Y009193D02*
X013146Y009193D01*
X013143Y009035D02*
X012669Y009035D01*
X012537Y008876D02*
X013141Y008876D01*
X013138Y008718D02*
X008475Y008718D01*
X008475Y008858D02*
X008475Y008142D01*
X008358Y008025D01*
X007642Y008025D01*
X007525Y008142D01*
X007525Y008858D01*
X007642Y008975D01*
X008358Y008975D01*
X008475Y008858D01*
X008457Y008876D02*
X011463Y008876D01*
X011331Y009035D02*
X008117Y009035D01*
X007883Y009035D02*
X005117Y009035D01*
X005094Y009025D02*
X005269Y009097D01*
X005403Y009231D01*
X005475Y009406D01*
X005475Y009594D01*
X005403Y009769D01*
X005400Y009772D01*
X005400Y010228D01*
X005403Y010231D01*
X005475Y010406D01*
X005475Y010594D01*
X005403Y010769D01*
X005269Y010903D01*
X005094Y010975D01*
X004906Y010975D01*
X004731Y010903D01*
X004597Y010769D01*
X004525Y010594D01*
X004525Y010406D01*
X004597Y010231D01*
X004600Y010228D01*
X004600Y009772D01*
X004597Y009769D01*
X004525Y009594D01*
X004525Y009406D01*
X004597Y009231D01*
X004731Y009097D01*
X004906Y009025D01*
X005094Y009025D01*
X005094Y008975D02*
X004906Y008975D01*
X004731Y008903D01*
X004597Y008769D01*
X004525Y008594D01*
X004525Y008406D01*
X004597Y008231D01*
X004731Y008097D01*
X004906Y008025D01*
X005094Y008025D01*
X005269Y008097D01*
X005403Y008231D01*
X005475Y008406D01*
X005475Y008594D01*
X005403Y008769D01*
X005269Y008903D01*
X005094Y008975D01*
X004883Y009035D02*
X002900Y009035D01*
X002900Y009193D02*
X004635Y009193D01*
X004547Y009352D02*
X002900Y009352D01*
X002900Y009510D02*
X004525Y009510D01*
X004556Y009669D02*
X002900Y009669D01*
X002900Y009827D02*
X004600Y009827D01*
X004600Y009986D02*
X002900Y009986D01*
X002900Y010144D02*
X004600Y010144D01*
X004568Y010303D02*
X002900Y010303D01*
X002900Y010461D02*
X004525Y010461D01*
X004535Y010620D02*
X002900Y010620D01*
X002900Y010778D02*
X004606Y010778D01*
X004813Y010937D02*
X002900Y010937D01*
X002900Y011095D02*
X004793Y011095D01*
X004762Y011111D02*
X004825Y011078D01*
X004893Y011056D01*
X004964Y011045D01*
X004992Y011045D01*
X004992Y011492D01*
X005008Y011492D01*
X005008Y011508D01*
X005455Y011508D01*
X005455Y011536D01*
X005444Y011607D01*
X005422Y011675D01*
X005389Y011738D01*
X005347Y011796D01*
X005296Y011847D01*
X005238Y011889D01*
X005175Y011922D01*
X005107Y011944D01*
X005036Y011955D01*
X005008Y011955D01*
X005008Y011508D01*
X004992Y011508D01*
X004992Y011955D01*
X004964Y011955D01*
X004893Y011944D01*
X004825Y011922D01*
X004762Y011889D01*
X004704Y011847D01*
X004653Y011796D01*
X004611Y011738D01*
X004578Y011675D01*
X004556Y011607D01*
X004545Y011536D01*
X004545Y011508D01*
X004992Y011508D01*
X004992Y011492D01*
X004545Y011492D01*
X004545Y011464D01*
X004556Y011393D01*
X004578Y011325D01*
X004611Y011262D01*
X004653Y011204D01*
X004704Y011153D01*
X004762Y011111D01*
X004617Y011254D02*
X002900Y011254D01*
X002900Y011412D02*
X004553Y011412D01*
X004550Y011571D02*
X002900Y011571D01*
X002900Y011729D02*
X004606Y011729D01*
X004759Y011888D02*
X002900Y011888D01*
X002900Y012046D02*
X003331Y012046D01*
X003255Y012205D02*
X002900Y012205D01*
X002900Y012363D02*
X003255Y012363D01*
X003255Y012522D02*
X002900Y012522D01*
X002900Y012680D02*
X003255Y012680D01*
X003255Y012839D02*
X002900Y012839D01*
X002900Y012997D02*
X013206Y012997D01*
X013204Y012839D02*
X004245Y012839D01*
X004245Y012205D02*
X006240Y012205D01*
X006240Y012046D02*
X004169Y012046D01*
X004992Y011888D02*
X005008Y011888D01*
X004992Y011729D02*
X005008Y011729D01*
X004992Y011571D02*
X005008Y011571D01*
X005008Y011492D02*
X005455Y011492D01*
X005455Y011464D01*
X005444Y011393D01*
X005422Y011325D01*
X005389Y011262D01*
X005347Y011204D01*
X005296Y011153D01*
X005238Y011111D01*
X005175Y011078D01*
X005107Y011056D01*
X005036Y011045D01*
X005008Y011045D01*
X005008Y011492D01*
X005008Y011412D02*
X004992Y011412D01*
X004992Y011254D02*
X005008Y011254D01*
X004992Y011095D02*
X005008Y011095D01*
X005207Y011095D02*
X006240Y011095D01*
X006240Y010937D02*
X005187Y010937D01*
X005394Y010778D02*
X006240Y010778D01*
X006240Y010620D02*
X005465Y010620D01*
X005475Y010461D02*
X006240Y010461D01*
X006240Y010303D02*
X005432Y010303D01*
X005400Y010144D02*
X006240Y010144D01*
X006240Y009986D02*
X005400Y009986D01*
X005400Y009827D02*
X006240Y009827D01*
X006240Y009669D02*
X005444Y009669D01*
X005475Y009510D02*
X006240Y009510D01*
X006281Y009352D02*
X005453Y009352D01*
X005365Y009193D02*
X007635Y009193D01*
X007543Y008876D02*
X005296Y008876D01*
X005424Y008718D02*
X007525Y008718D01*
X007525Y008559D02*
X005475Y008559D01*
X005473Y008401D02*
X007525Y008401D01*
X007525Y008242D02*
X005407Y008242D01*
X005236Y008084D02*
X007584Y008084D01*
X008416Y008084D02*
X009560Y008084D01*
X009560Y008000D02*
X009560Y008182D01*
X009818Y008440D01*
X010000Y008440D01*
X010000Y008000D01*
X010000Y008000D01*
X010440Y008000D01*
X010440Y008182D01*
X010182Y008440D01*
X010000Y008440D01*
X010000Y008000D01*
X010000Y008000D01*
X010000Y008000D01*
X009560Y008000D01*
X009560Y007818D01*
X009818Y007560D01*
X010000Y007560D01*
X010182Y007560D01*
X010440Y007818D01*
X010440Y008000D01*
X010000Y008000D01*
X010000Y007560D01*
X010000Y008000D01*
X010000Y008000D01*
X009560Y008000D01*
X009560Y007925D02*
X002900Y007925D01*
X002900Y007767D02*
X009611Y007767D01*
X009770Y007608D02*
X002900Y007608D01*
X002900Y007450D02*
X011060Y007450D01*
X011060Y007500D02*
X011060Y007318D01*
X011318Y007060D01*
X011500Y007060D01*
X011682Y007060D01*
X011940Y007318D01*
X011940Y007500D01*
X011940Y007682D01*
X011682Y007940D01*
X011500Y007940D01*
X011500Y007500D01*
X011940Y007500D01*
X011500Y007500D01*
X011500Y007500D01*
X011500Y007500D01*
X011500Y007060D01*
X011500Y007500D01*
X011500Y007500D01*
X011500Y007500D01*
X011060Y007500D01*
X011060Y007682D01*
X011318Y007940D01*
X011500Y007940D01*
X011500Y007500D01*
X011060Y007500D01*
X011060Y007608D02*
X010230Y007608D01*
X010389Y007767D02*
X011144Y007767D01*
X011303Y007925D02*
X010440Y007925D01*
X010440Y008084D02*
X013128Y008084D01*
X013131Y008242D02*
X010380Y008242D01*
X010222Y008401D02*
X013133Y008401D01*
X013136Y008559D02*
X008475Y008559D01*
X008475Y008401D02*
X009778Y008401D01*
X010000Y008401D02*
X010000Y008401D01*
X010000Y008242D02*
X010000Y008242D01*
X010000Y008084D02*
X010000Y008084D01*
X010000Y007925D02*
X010000Y007925D01*
X010000Y007767D02*
X010000Y007767D01*
X010000Y007608D02*
X010000Y007608D01*
X009620Y008242D02*
X008475Y008242D01*
X008365Y009193D02*
X011280Y009193D01*
X011284Y009352D02*
X008453Y009352D01*
X008475Y009510D02*
X011350Y009510D01*
X011548Y009669D02*
X008444Y009669D01*
X008345Y009827D02*
X011559Y009827D01*
X011354Y009986D02*
X006760Y009986D01*
X006760Y010144D02*
X007684Y010144D01*
X007568Y010303D02*
X006760Y010303D01*
X006760Y010461D02*
X007525Y010461D01*
X007535Y010620D02*
X006760Y010620D01*
X006760Y010778D02*
X007606Y010778D01*
X007813Y010937D02*
X006760Y010937D01*
X006760Y011095D02*
X007793Y011095D01*
X007762Y011111D02*
X007825Y011078D01*
X007893Y011056D01*
X007964Y011045D01*
X007992Y011045D01*
X007992Y011492D01*
X007545Y011492D01*
X007545Y011464D01*
X007556Y011393D01*
X007578Y011325D01*
X007611Y011262D01*
X007653Y011204D01*
X007704Y011153D01*
X007762Y011111D01*
X007617Y011254D02*
X006760Y011254D01*
X006760Y011412D02*
X007553Y011412D01*
X007550Y011571D02*
X006760Y011571D01*
X006760Y011729D02*
X007606Y011729D01*
X007759Y011888D02*
X006760Y011888D01*
X006240Y011888D02*
X005241Y011888D01*
X005394Y011729D02*
X006240Y011729D01*
X006240Y011571D02*
X005450Y011571D01*
X005447Y011412D02*
X006240Y011412D01*
X006240Y011254D02*
X005383Y011254D01*
X006760Y009827D02*
X007655Y009827D01*
X008316Y010144D02*
X011286Y010144D01*
X011280Y010303D02*
X008432Y010303D01*
X008475Y010461D02*
X011330Y010461D01*
X011459Y010620D02*
X008465Y010620D01*
X008008Y011095D02*
X007992Y011095D01*
X007992Y011254D02*
X008008Y011254D01*
X007992Y011412D02*
X008008Y011412D01*
X007992Y011571D02*
X008008Y011571D01*
X007992Y011729D02*
X008008Y011729D01*
X007992Y011888D02*
X008008Y011888D01*
X010221Y011571D02*
X011410Y011571D01*
X011452Y011888D02*
X010460Y011888D01*
X010460Y012046D02*
X011327Y012046D01*
X011280Y012205D02*
X010446Y012205D01*
X010288Y012363D02*
X011289Y012363D01*
X010380Y011729D02*
X013186Y011729D01*
X013184Y011571D02*
X012590Y011571D01*
X012691Y011412D02*
X013181Y011412D01*
X013179Y011254D02*
X012720Y011254D01*
X012694Y011095D02*
X013176Y011095D01*
X013174Y010937D02*
X012597Y010937D01*
X012548Y011888D02*
X013189Y011888D01*
X013191Y012046D02*
X012673Y012046D01*
X012720Y012205D02*
X013194Y012205D01*
X013196Y012363D02*
X012711Y012363D01*
X012639Y012522D02*
X013199Y012522D01*
X013201Y012680D02*
X012424Y012680D01*
X013209Y013156D02*
X002900Y013156D01*
X002900Y013314D02*
X013211Y013314D01*
X013234Y014741D02*
X010363Y014741D01*
X010440Y014899D02*
X013236Y014899D01*
X013239Y015058D02*
X010440Y015058D01*
X010406Y015216D02*
X013242Y015216D01*
X013249Y015692D02*
X012602Y015692D01*
X012696Y015850D02*
X013252Y015850D01*
X013254Y016009D02*
X012720Y016009D01*
X012689Y016167D02*
X013257Y016167D01*
X011398Y015692D02*
X008475Y015692D01*
X004827Y015058D02*
X002640Y015058D01*
X002640Y015216D02*
X004612Y015216D01*
X004538Y015375D02*
X002640Y015375D01*
X002640Y015533D02*
X004525Y015533D01*
X004565Y015692D02*
X003124Y015692D01*
X003170Y015850D02*
X004678Y015850D01*
X001620Y014265D02*
X001620Y014265D01*
X001620Y014107D02*
X001620Y014107D01*
X001620Y013948D02*
X001620Y013948D01*
X001620Y013790D02*
X001620Y013790D01*
X001620Y013631D02*
X001620Y013631D01*
X001620Y013473D02*
X001620Y013473D01*
X001870Y013473D02*
X001870Y013473D01*
X001360Y013473D02*
X001360Y013473D01*
X001360Y013631D02*
X001360Y013631D01*
X001360Y013790D02*
X001360Y013790D01*
X001360Y013948D02*
X001360Y013948D01*
X001360Y014107D02*
X001360Y014107D01*
X001360Y014265D02*
X001360Y014265D01*
X001100Y015692D02*
X001100Y015692D01*
X002900Y008876D02*
X004704Y008876D01*
X004576Y008718D02*
X002900Y008718D01*
X002900Y008559D02*
X004525Y008559D01*
X004527Y008401D02*
X002900Y008401D01*
X002900Y008242D02*
X004593Y008242D01*
X004764Y008084D02*
X002900Y008084D01*
X002900Y007291D02*
X011087Y007291D01*
X011245Y007133D02*
X002900Y007133D01*
X002900Y006974D02*
X013111Y006974D01*
X013108Y006816D02*
X002900Y006816D01*
X010223Y005072D02*
X011571Y005072D01*
X011359Y005231D02*
X010381Y005231D01*
X010460Y005389D02*
X011288Y005389D01*
X011280Y005548D02*
X010460Y005548D01*
X010445Y005706D02*
X011327Y005706D01*
X011454Y005865D02*
X010286Y005865D01*
X011500Y007133D02*
X011500Y007133D01*
X011500Y007291D02*
X011500Y007291D01*
X011500Y007450D02*
X011500Y007450D01*
X011500Y007608D02*
X011500Y007608D01*
X011500Y007767D02*
X011500Y007767D01*
X011500Y007925D02*
X011500Y007925D01*
X011697Y007925D02*
X012274Y007925D01*
X012309Y007960D02*
X012040Y007691D01*
X012040Y007309D01*
X012309Y007040D01*
X012691Y007040D01*
X012960Y007309D01*
X012960Y007691D01*
X012691Y007960D01*
X012309Y007960D01*
X012116Y007767D02*
X011856Y007767D01*
X011940Y007608D02*
X012040Y007608D01*
X012040Y007450D02*
X011940Y007450D01*
X011913Y007291D02*
X012058Y007291D01*
X012217Y007133D02*
X011755Y007133D01*
X012783Y007133D02*
X013113Y007133D01*
X013116Y007291D02*
X012942Y007291D01*
X012960Y007450D02*
X013118Y007450D01*
X013121Y007608D02*
X012960Y007608D01*
X012884Y007767D02*
X013123Y007767D01*
X013126Y007925D02*
X012726Y007925D01*
X011290Y023617D02*
X010074Y023617D01*
X010233Y023775D02*
X011364Y023775D01*
X011585Y023934D02*
X010298Y023934D01*
X010298Y024092D02*
X011523Y024092D01*
X011345Y024251D02*
X010269Y024251D01*
X010911Y024726D02*
X011336Y024726D01*
X011474Y024885D02*
X011053Y024885D01*
X011064Y025043D02*
X011641Y025043D01*
X011388Y025202D02*
X011064Y025202D01*
X011064Y025360D02*
X011300Y025360D01*
X011064Y026153D02*
X013415Y026153D01*
X013418Y026311D02*
X011064Y026311D01*
X011064Y026470D02*
X013420Y026470D01*
X013423Y026628D02*
X011064Y026628D01*
X003375Y027579D02*
X001737Y027579D01*
X001868Y027421D02*
X003164Y027421D01*
X003094Y027262D02*
X001919Y027262D01*
X001914Y027104D02*
X003086Y027104D01*
X003134Y026945D02*
X001848Y026945D01*
X001702Y026787D02*
X003261Y026787D01*
X003200Y026628D02*
X001860Y026628D01*
X001899Y026470D02*
X003106Y026470D01*
X003106Y026311D02*
X001899Y026311D01*
X001827Y026153D02*
X003123Y026153D01*
X001224Y028213D02*
X000480Y028213D01*
X000480Y028372D02*
X000820Y028372D01*
X000591Y028530D02*
X000480Y028530D01*
D22*
X002000Y017500D03*
X003750Y012500D03*
M02*
