G75*
G70*
%OFA0B0*%
%FSLAX24Y24*%
%IPPOS*%
%LPD*%
%AMOC8*
5,1,8,0,0,1.08239X$1,22.5*
%
%ADD10C,0.0000*%
%ADD11R,0.0276X0.0689*%
%ADD12R,0.0591X0.0591*%
%ADD13R,0.0571X0.0394*%
%ADD14R,0.0315X0.0591*%
%ADD15R,0.0315X0.0551*%
%ADD16R,0.0394X0.0610*%
%ADD17C,0.0560*%
%ADD18C,0.0160*%
D10*
X000000Y000000D02*
X000000Y007874D01*
X007874Y007874D01*
X007874Y000000D01*
X000000Y000000D01*
D11*
X002138Y002955D03*
X002571Y002955D03*
X003004Y002955D03*
X003437Y002955D03*
X003870Y002955D03*
X004303Y002955D03*
X004736Y002955D03*
X005169Y002955D03*
D12*
X006134Y003004D03*
D13*
X001675Y006587D03*
D14*
X001547Y005878D03*
D15*
X006291Y006222D03*
D16*
X006075Y007167D03*
D17*
X006238Y001268D02*
X006238Y000708D01*
X005238Y000708D02*
X005238Y001268D01*
X004238Y001268D02*
X004238Y000708D01*
X003242Y000716D02*
X003242Y001276D01*
X002242Y001276D02*
X002242Y000716D01*
X001242Y000716D02*
X001242Y001276D01*
D18*
X001248Y001394D02*
X001248Y001398D01*
X001242Y000996D01*
X001248Y001398D02*
X001248Y002154D01*
X002587Y002154D01*
X002587Y002955D01*
X002571Y002955D01*
X002980Y002955D02*
X002980Y001760D01*
X002238Y001760D01*
X002242Y000996D01*
X003242Y000996D02*
X003437Y000992D01*
X003437Y002955D01*
X003846Y002955D02*
X003846Y001394D01*
X004238Y001394D01*
X004238Y000988D01*
X004319Y001760D02*
X005238Y001760D01*
X005238Y000988D01*
X004791Y002154D02*
X006238Y002154D01*
X006238Y000988D01*
X004791Y002154D02*
X004791Y002955D01*
X004736Y002955D01*
X004319Y002955D02*
X004319Y001760D01*
X004303Y002955D02*
X004319Y002955D01*
X003870Y002955D02*
X003846Y002955D01*
X003004Y002955D02*
X002980Y002955D01*
M02*
