G75*
G70*
%OFA0B0*%
%FSLAX24Y24*%
%IPPOS*%
%LPD*%
%AMOC8*
5,1,8,0,0,1.08239X$1,22.5*
%
%ADD10C,0.0000*%
%ADD11OC8,0.0594*%
%ADD12OC8,0.0515*%
%ADD13OC8,0.0630*%
%ADD14C,0.0630*%
%ADD15C,0.1500*%
%ADD16C,0.0520*%
%ADD17OC8,0.1000*%
%ADD18R,0.0550X0.0550*%
%ADD19C,0.0550*%
%ADD20C,0.0160*%
D10*
X000180Y000180D02*
X000180Y022676D01*
X039550Y022676D01*
X039550Y000180D01*
X000180Y000180D01*
D11*
X022180Y015680D03*
X024180Y015680D03*
D12*
X026180Y016180D03*
X030180Y016180D03*
X024180Y013680D03*
X024180Y009680D03*
X021680Y009680D03*
X019680Y009680D03*
X018180Y009680D03*
X018180Y005680D03*
X019680Y005680D03*
X021680Y005680D03*
X023680Y005680D03*
X027680Y005680D03*
X033180Y007180D03*
X033180Y003180D03*
D13*
X019680Y003180D03*
X019680Y013180D03*
X031180Y019680D03*
D14*
X030180Y019680D03*
X019680Y012180D03*
X020680Y003180D03*
D15*
X014117Y005711D03*
X014117Y009649D03*
X006243Y011617D03*
X006243Y003743D03*
D16*
X032880Y010120D02*
X032880Y010640D01*
X034980Y010740D02*
X034980Y010220D01*
X032880Y014120D02*
X032880Y014640D01*
X034980Y014740D02*
X034980Y014220D01*
D17*
X036483Y017196D03*
X036483Y019164D03*
X036483Y006164D03*
X036483Y004196D03*
X002483Y016696D03*
X002483Y018664D03*
D18*
X027180Y013680D03*
D19*
X027180Y012680D03*
X027180Y011680D03*
X027180Y010680D03*
X030180Y010680D03*
X030180Y011680D03*
X030180Y012680D03*
X030180Y013680D03*
D20*
X031680Y013653D02*
X039070Y013653D01*
X039070Y013811D02*
X035090Y013811D01*
X035064Y013800D02*
X035218Y013864D01*
X035336Y013982D01*
X035400Y014136D01*
X035400Y014824D01*
X035336Y014978D01*
X035218Y015096D01*
X035064Y015160D01*
X034920Y015160D01*
X034920Y018940D01*
X035823Y018940D01*
X035823Y018891D01*
X036210Y018504D01*
X036757Y018504D01*
X037143Y018891D01*
X037143Y019438D01*
X036757Y019824D01*
X036210Y019824D01*
X035823Y019438D01*
X035823Y019420D01*
X034920Y019420D01*
X034920Y020728D01*
X034883Y020816D01*
X034816Y020883D01*
X034728Y020920D01*
X030132Y020920D01*
X030044Y020883D01*
X029977Y020816D01*
X029940Y020728D01*
X029940Y020095D01*
X029911Y020083D01*
X029777Y019949D01*
X029705Y019774D01*
X029705Y019586D01*
X029777Y019411D01*
X029911Y019277D01*
X030086Y019205D01*
X030274Y019205D01*
X030449Y019277D01*
X030583Y019411D01*
X030655Y019586D01*
X030655Y019774D01*
X030583Y019949D01*
X030449Y020083D01*
X030420Y020095D01*
X030420Y020440D01*
X034440Y020440D01*
X034440Y014432D01*
X034477Y014344D01*
X034544Y014277D01*
X034560Y014270D01*
X034560Y014136D01*
X034624Y013982D01*
X034742Y013864D01*
X034896Y013800D01*
X035064Y013800D01*
X034870Y013811D02*
X033193Y013811D01*
X033216Y013833D02*
X033256Y013889D01*
X033288Y013951D01*
X033309Y014017D01*
X033320Y014085D01*
X033320Y014380D01*
X033320Y014675D01*
X033309Y014743D01*
X033288Y014809D01*
X033256Y014871D01*
X033216Y014927D01*
X033167Y014976D01*
X033111Y015016D01*
X033049Y015048D01*
X032983Y015069D01*
X032915Y015080D01*
X032880Y015080D01*
X032880Y014380D01*
X033320Y014380D01*
X032880Y014380D01*
X032880Y014380D01*
X032880Y014380D01*
X032880Y013680D01*
X032915Y013680D01*
X032983Y013691D01*
X033049Y013712D01*
X033111Y013744D01*
X033167Y013784D01*
X033216Y013833D01*
X033294Y013970D02*
X034637Y013970D01*
X034563Y014128D02*
X033320Y014128D01*
X033320Y014287D02*
X034534Y014287D01*
X034440Y014445D02*
X033320Y014445D01*
X033320Y014604D02*
X034440Y014604D01*
X034440Y014762D02*
X033303Y014762D01*
X033220Y014921D02*
X034440Y014921D01*
X034440Y015079D02*
X032921Y015079D01*
X032880Y015079D02*
X032880Y015079D01*
X032880Y015080D02*
X032845Y015080D01*
X032777Y015069D01*
X032711Y015048D01*
X032649Y015016D01*
X032593Y014976D01*
X032544Y014927D01*
X032504Y014871D01*
X032472Y014809D01*
X032451Y014743D01*
X032440Y014675D01*
X032440Y014380D01*
X032880Y014380D01*
X032880Y014380D01*
X032880Y014380D01*
X032880Y015080D01*
X032839Y015079D02*
X031680Y015079D01*
X031680Y014921D02*
X032540Y014921D01*
X032457Y014762D02*
X031680Y014762D01*
X031680Y014604D02*
X032440Y014604D01*
X032440Y014445D02*
X031680Y014445D01*
X031680Y014287D02*
X032440Y014287D01*
X032440Y014380D02*
X032440Y014085D01*
X032451Y014017D01*
X032472Y013951D01*
X032504Y013889D01*
X032544Y013833D01*
X032593Y013784D01*
X032649Y013744D01*
X032711Y013712D01*
X032777Y013691D01*
X032845Y013680D01*
X032880Y013680D01*
X032880Y014380D01*
X032440Y014380D01*
X032440Y014128D02*
X031680Y014128D01*
X031680Y013970D02*
X032466Y013970D01*
X032567Y013811D02*
X031680Y013811D01*
X031680Y013494D02*
X039070Y013494D01*
X039070Y013336D02*
X031680Y013336D01*
X031680Y013177D02*
X039070Y013177D01*
X039070Y013019D02*
X031680Y013019D01*
X031680Y012860D02*
X039070Y012860D01*
X039070Y012702D02*
X031680Y012702D01*
X031680Y012543D02*
X039070Y012543D01*
X039070Y012385D02*
X031680Y012385D01*
X031680Y012226D02*
X039070Y012226D01*
X039070Y012068D02*
X031680Y012068D01*
X031680Y011909D02*
X039070Y011909D01*
X039070Y011751D02*
X031680Y011751D01*
X031680Y011592D02*
X039070Y011592D01*
X039070Y011434D02*
X031680Y011434D01*
X031680Y011275D02*
X039070Y011275D01*
X039070Y011117D02*
X035169Y011117D01*
X035218Y011096D02*
X035064Y011160D01*
X034896Y011160D01*
X034742Y011096D01*
X034624Y010978D01*
X034560Y010824D01*
X034560Y010136D01*
X034624Y009982D01*
X034742Y009864D01*
X034896Y009800D01*
X035064Y009800D01*
X035218Y009864D01*
X035336Y009982D01*
X035400Y010136D01*
X035400Y010824D01*
X035336Y010978D01*
X035218Y011096D01*
X035344Y010958D02*
X039070Y010958D01*
X039070Y010800D02*
X035400Y010800D01*
X035400Y010641D02*
X039070Y010641D01*
X039070Y010483D02*
X035400Y010483D01*
X035400Y010324D02*
X039070Y010324D01*
X039070Y010166D02*
X035400Y010166D01*
X035346Y010007D02*
X039070Y010007D01*
X039070Y009849D02*
X035181Y009849D01*
X034779Y009849D02*
X033202Y009849D01*
X033236Y009882D02*
X033300Y010036D01*
X033300Y010724D01*
X033236Y010878D01*
X033118Y010996D01*
X032964Y011060D01*
X032796Y011060D01*
X032642Y010996D01*
X032524Y010878D01*
X032460Y010724D01*
X032460Y010036D01*
X032524Y009882D01*
X032642Y009764D01*
X032796Y009700D01*
X032964Y009700D01*
X033118Y009764D01*
X033236Y009882D01*
X033288Y010007D02*
X034614Y010007D01*
X034560Y010166D02*
X033300Y010166D01*
X033300Y010324D02*
X034560Y010324D01*
X034560Y010483D02*
X033300Y010483D01*
X033300Y010641D02*
X034560Y010641D01*
X034560Y010800D02*
X033269Y010800D01*
X033156Y010958D02*
X034616Y010958D01*
X034791Y011117D02*
X031680Y011117D01*
X031680Y010958D02*
X032604Y010958D01*
X032491Y010800D02*
X031680Y010800D01*
X031680Y010641D02*
X032460Y010641D01*
X032460Y010483D02*
X031680Y010483D01*
X031680Y010324D02*
X032460Y010324D01*
X032460Y010166D02*
X031680Y010166D01*
X031680Y010007D02*
X032472Y010007D01*
X032558Y009849D02*
X031680Y009849D01*
X031680Y009690D02*
X039070Y009690D01*
X039070Y009532D02*
X031680Y009532D01*
X031680Y009373D02*
X039070Y009373D01*
X039070Y009215D02*
X031680Y009215D01*
X031680Y009180D02*
X031680Y016680D01*
X029180Y016680D01*
X029180Y022196D01*
X039070Y022196D01*
X039070Y000660D01*
X000660Y000660D01*
X000660Y022196D01*
X026180Y022196D01*
X026180Y016597D01*
X026007Y016597D01*
X025763Y016353D01*
X025763Y016007D01*
X026007Y015763D01*
X026180Y015763D01*
X026180Y009180D01*
X031680Y009180D01*
X033007Y007597D02*
X032763Y007353D01*
X032763Y007007D01*
X033007Y006763D01*
X033353Y006763D01*
X033597Y007007D01*
X033597Y007353D01*
X033353Y007597D01*
X033007Y007597D01*
X032881Y007471D02*
X002920Y007471D01*
X002920Y007313D02*
X032763Y007313D01*
X032763Y007154D02*
X002920Y007154D01*
X002920Y006996D02*
X032774Y006996D01*
X032933Y006837D02*
X002920Y006837D01*
X002920Y006679D02*
X036064Y006679D01*
X036210Y006824D02*
X035823Y006438D01*
X035823Y006404D01*
X034766Y006404D01*
X034728Y006420D01*
X034632Y006420D01*
X034544Y006383D01*
X034477Y006316D01*
X034440Y006228D01*
X034440Y003420D01*
X033530Y003420D01*
X033353Y003597D01*
X033007Y003597D01*
X032763Y003353D01*
X032763Y003007D01*
X033007Y002763D01*
X033353Y002763D01*
X033530Y002940D01*
X034728Y002940D01*
X034816Y002977D01*
X034883Y003044D01*
X034920Y003132D01*
X034920Y005924D01*
X035823Y005924D01*
X035823Y005891D01*
X036210Y005504D01*
X036757Y005504D01*
X037143Y005891D01*
X037143Y006438D01*
X036757Y006824D01*
X036210Y006824D01*
X035906Y006520D02*
X014578Y006520D01*
X014568Y006527D02*
X014473Y006572D01*
X014375Y006607D01*
X014273Y006630D01*
X014169Y006641D01*
X014145Y006641D01*
X014145Y005740D01*
X014089Y005740D01*
X014089Y006641D01*
X014065Y006641D01*
X013961Y006630D01*
X013859Y006607D01*
X013761Y006572D01*
X013666Y006527D01*
X013578Y006471D01*
X013496Y006406D01*
X013422Y006332D01*
X013357Y006251D01*
X013302Y006162D01*
X013256Y006068D01*
X013222Y005969D01*
X013199Y005868D01*
X013187Y005764D01*
X013187Y005740D01*
X014089Y005740D01*
X014089Y005683D01*
X014145Y005683D01*
X014145Y004781D01*
X014169Y004781D01*
X014273Y004793D01*
X014375Y004816D01*
X014473Y004851D01*
X014568Y004896D01*
X014656Y004952D01*
X014738Y005017D01*
X014812Y005091D01*
X014877Y005172D01*
X014932Y005261D01*
X014978Y005355D01*
X015012Y005454D01*
X015035Y005555D01*
X015047Y005659D01*
X015047Y005683D01*
X014145Y005683D01*
X014145Y005740D01*
X015047Y005740D01*
X015047Y005764D01*
X015035Y005868D01*
X015012Y005969D01*
X014978Y006068D01*
X014932Y006162D01*
X014877Y006251D01*
X014812Y006332D01*
X014738Y006406D01*
X014656Y006471D01*
X014568Y006527D01*
X014782Y006362D02*
X034522Y006362D01*
X034440Y006203D02*
X014907Y006203D01*
X014986Y006045D02*
X017954Y006045D01*
X018007Y006097D02*
X017763Y005853D01*
X017763Y005507D01*
X018007Y005263D01*
X018353Y005263D01*
X018597Y005507D01*
X018597Y005853D01*
X018353Y006097D01*
X018007Y006097D01*
X017796Y005886D02*
X015031Y005886D01*
X015037Y005569D02*
X017763Y005569D01*
X017763Y005728D02*
X014145Y005728D01*
X014089Y005728D02*
X002920Y005728D01*
X002920Y005886D02*
X013203Y005886D01*
X013248Y006045D02*
X002920Y006045D01*
X002920Y006203D02*
X013327Y006203D01*
X013452Y006362D02*
X002920Y006362D01*
X002920Y006520D02*
X013656Y006520D01*
X014089Y006520D02*
X014145Y006520D01*
X014145Y006362D02*
X014089Y006362D01*
X014089Y006203D02*
X014145Y006203D01*
X014145Y006045D02*
X014089Y006045D01*
X014089Y005886D02*
X014145Y005886D01*
X014089Y005683D02*
X013187Y005683D01*
X013187Y005659D01*
X013199Y005555D01*
X013222Y005454D01*
X013256Y005355D01*
X013302Y005261D01*
X013357Y005172D01*
X013422Y005091D01*
X013496Y005017D01*
X013578Y004952D01*
X013666Y004896D01*
X013761Y004851D01*
X013859Y004816D01*
X013961Y004793D01*
X014065Y004781D01*
X014089Y004781D01*
X014089Y005683D01*
X014089Y005569D02*
X014145Y005569D01*
X014145Y005411D02*
X014089Y005411D01*
X014089Y005252D02*
X014145Y005252D01*
X014145Y005094D02*
X014089Y005094D01*
X014089Y004935D02*
X014145Y004935D01*
X014629Y004935D02*
X034440Y004935D01*
X034440Y004777D02*
X002920Y004777D01*
X002920Y004935D02*
X013605Y004935D01*
X013420Y005094D02*
X002920Y005094D01*
X002920Y005252D02*
X013307Y005252D01*
X013237Y005411D02*
X002920Y005411D01*
X002920Y005569D02*
X013197Y005569D01*
X014814Y005094D02*
X034440Y005094D01*
X034440Y005252D02*
X014927Y005252D01*
X014997Y005411D02*
X017859Y005411D01*
X018501Y005411D02*
X019359Y005411D01*
X019263Y005507D02*
X019507Y005263D01*
X019853Y005263D01*
X020097Y005507D01*
X020097Y005853D01*
X019853Y006097D01*
X019507Y006097D01*
X019263Y005853D01*
X019263Y005507D01*
X019263Y005569D02*
X018597Y005569D01*
X018597Y005728D02*
X019263Y005728D01*
X019296Y005886D02*
X018564Y005886D01*
X018406Y006045D02*
X019454Y006045D01*
X019906Y006045D02*
X021454Y006045D01*
X021507Y006097D02*
X021263Y005853D01*
X021263Y005507D01*
X021507Y005263D01*
X021853Y005263D01*
X022097Y005507D01*
X022097Y005853D01*
X021853Y006097D01*
X021507Y006097D01*
X021296Y005886D02*
X020064Y005886D01*
X020097Y005728D02*
X021263Y005728D01*
X021263Y005569D02*
X020097Y005569D01*
X020001Y005411D02*
X021359Y005411D01*
X022001Y005411D02*
X023359Y005411D01*
X023263Y005507D02*
X023507Y005263D01*
X023853Y005263D01*
X024097Y005507D01*
X024097Y005853D01*
X023853Y006097D01*
X023507Y006097D01*
X023263Y005853D01*
X023263Y005507D01*
X023263Y005569D02*
X022097Y005569D01*
X022097Y005728D02*
X023263Y005728D01*
X023296Y005886D02*
X022064Y005886D01*
X021906Y006045D02*
X023454Y006045D01*
X023906Y006045D02*
X027454Y006045D01*
X027507Y006097D02*
X027263Y005853D01*
X027263Y005507D01*
X027507Y005263D01*
X027853Y005263D01*
X028097Y005507D01*
X028097Y005853D01*
X027853Y006097D01*
X027507Y006097D01*
X027296Y005886D02*
X024064Y005886D01*
X024097Y005728D02*
X027263Y005728D01*
X027263Y005569D02*
X024097Y005569D01*
X024001Y005411D02*
X027359Y005411D01*
X028001Y005411D02*
X034440Y005411D01*
X034440Y005569D02*
X028097Y005569D01*
X028097Y005728D02*
X034440Y005728D01*
X034440Y005886D02*
X028064Y005886D01*
X027906Y006045D02*
X034440Y006045D01*
X034680Y006164D02*
X034680Y006180D01*
X034680Y006164D02*
X034680Y003180D01*
X033180Y003180D01*
X032763Y003192D02*
X021155Y003192D01*
X021155Y003274D02*
X021155Y003086D01*
X021083Y002911D01*
X020949Y002777D01*
X020774Y002705D01*
X020586Y002705D01*
X020411Y002777D01*
X020277Y002911D01*
X020205Y003086D01*
X020205Y003274D01*
X020277Y003449D01*
X020411Y003583D01*
X020586Y003655D01*
X020774Y003655D01*
X020949Y003583D01*
X021083Y003449D01*
X021155Y003274D01*
X021124Y003350D02*
X032763Y003350D01*
X032918Y003509D02*
X021023Y003509D01*
X020337Y003509D02*
X020023Y003509D01*
X020155Y003377D02*
X019877Y003655D01*
X019483Y003655D01*
X019205Y003377D01*
X019205Y002983D01*
X019483Y002705D01*
X019877Y002705D01*
X020155Y002983D01*
X020155Y003377D01*
X020155Y003350D02*
X020236Y003350D01*
X020205Y003192D02*
X020155Y003192D01*
X020155Y003033D02*
X020227Y003033D01*
X020314Y002875D02*
X020046Y002875D01*
X019888Y002716D02*
X020559Y002716D01*
X020801Y002716D02*
X039070Y002716D01*
X039070Y002558D02*
X000660Y002558D01*
X000660Y002716D02*
X019472Y002716D01*
X019314Y002875D02*
X006524Y002875D01*
X006424Y002833D02*
X006758Y002972D01*
X007014Y003228D01*
X007153Y003562D01*
X007153Y003924D01*
X007014Y004258D01*
X006758Y004514D01*
X006424Y004653D01*
X006062Y004653D01*
X005728Y004514D01*
X005472Y004258D01*
X005333Y003924D01*
X005333Y003920D01*
X002920Y003920D01*
X002920Y016199D01*
X003143Y016422D01*
X003143Y016969D01*
X002757Y017356D01*
X002210Y017356D01*
X001823Y016969D01*
X001823Y016422D01*
X002210Y016036D01*
X002440Y016036D01*
X002440Y003632D01*
X002477Y003544D01*
X002544Y003477D01*
X002632Y003440D01*
X005384Y003440D01*
X005472Y003228D01*
X005728Y002972D01*
X006062Y002833D01*
X006424Y002833D01*
X006820Y003033D02*
X019205Y003033D01*
X019205Y003192D02*
X006978Y003192D01*
X007065Y003350D02*
X019205Y003350D01*
X019337Y003509D02*
X007131Y003509D01*
X007153Y003667D02*
X034440Y003667D01*
X034440Y003509D02*
X033442Y003509D01*
X032763Y003033D02*
X021133Y003033D01*
X021046Y002875D02*
X032895Y002875D01*
X033465Y002875D02*
X039070Y002875D01*
X039070Y003033D02*
X034872Y003033D01*
X034920Y003192D02*
X039070Y003192D01*
X039070Y003350D02*
X034920Y003350D01*
X034920Y003509D02*
X039070Y003509D01*
X039070Y003667D02*
X036916Y003667D01*
X036765Y003516D02*
X036531Y003516D01*
X036531Y004148D01*
X036531Y004244D01*
X036435Y004244D01*
X036435Y004876D01*
X036201Y004876D01*
X035803Y004477D01*
X035803Y004244D01*
X036435Y004244D01*
X036435Y004148D01*
X035803Y004148D01*
X035803Y003914D01*
X036201Y003516D01*
X036435Y003516D01*
X036435Y004148D01*
X036531Y004148D01*
X037163Y004148D01*
X037163Y003914D01*
X036765Y003516D01*
X036531Y003667D02*
X036435Y003667D01*
X036435Y003826D02*
X036531Y003826D01*
X036531Y003984D02*
X036435Y003984D01*
X036435Y004143D02*
X036531Y004143D01*
X036531Y004244D02*
X037163Y004244D01*
X037163Y004477D01*
X036765Y004876D01*
X036531Y004876D01*
X036531Y004244D01*
X036531Y004301D02*
X036435Y004301D01*
X036435Y004460D02*
X036531Y004460D01*
X036531Y004618D02*
X036435Y004618D01*
X036435Y004777D02*
X036531Y004777D01*
X036864Y004777D02*
X039070Y004777D01*
X039070Y004935D02*
X034920Y004935D01*
X034920Y004777D02*
X036102Y004777D01*
X035944Y004618D02*
X034920Y004618D01*
X034920Y004460D02*
X035803Y004460D01*
X035803Y004301D02*
X034920Y004301D01*
X034920Y004143D02*
X035803Y004143D01*
X035803Y003984D02*
X034920Y003984D01*
X034920Y003826D02*
X035892Y003826D01*
X036050Y003667D02*
X034920Y003667D01*
X034440Y003826D02*
X007153Y003826D01*
X007128Y003984D02*
X034440Y003984D01*
X034440Y004143D02*
X007062Y004143D01*
X006972Y004301D02*
X034440Y004301D01*
X034440Y004460D02*
X006813Y004460D01*
X006508Y004618D02*
X034440Y004618D01*
X034920Y005094D02*
X039070Y005094D01*
X039070Y005252D02*
X034920Y005252D01*
X034920Y005411D02*
X039070Y005411D01*
X039070Y005569D02*
X036821Y005569D01*
X036980Y005728D02*
X039070Y005728D01*
X039070Y005886D02*
X037138Y005886D01*
X037143Y006045D02*
X039070Y006045D01*
X039070Y006203D02*
X037143Y006203D01*
X037143Y006362D02*
X039070Y006362D01*
X039070Y006520D02*
X037061Y006520D01*
X036902Y006679D02*
X039070Y006679D01*
X039070Y006837D02*
X033427Y006837D01*
X033586Y006996D02*
X039070Y006996D01*
X039070Y007154D02*
X033597Y007154D01*
X033597Y007313D02*
X039070Y007313D01*
X039070Y007471D02*
X033479Y007471D01*
X034680Y006164D02*
X036483Y006164D01*
X035987Y005728D02*
X034920Y005728D01*
X034920Y005886D02*
X035828Y005886D01*
X036145Y005569D02*
X034920Y005569D01*
X037023Y004618D02*
X039070Y004618D01*
X039070Y004460D02*
X037163Y004460D01*
X037163Y004301D02*
X039070Y004301D01*
X039070Y004143D02*
X037163Y004143D01*
X037163Y003984D02*
X039070Y003984D01*
X039070Y003826D02*
X037075Y003826D01*
X039070Y002399D02*
X000660Y002399D01*
X000660Y002241D02*
X039070Y002241D01*
X039070Y002082D02*
X000660Y002082D01*
X000660Y001924D02*
X039070Y001924D01*
X039070Y001765D02*
X000660Y001765D01*
X000660Y001607D02*
X039070Y001607D01*
X039070Y001448D02*
X000660Y001448D01*
X000660Y001290D02*
X039070Y001290D01*
X039070Y001131D02*
X000660Y001131D01*
X000660Y000973D02*
X039070Y000973D01*
X039070Y000814D02*
X000660Y000814D01*
X000660Y002875D02*
X005962Y002875D01*
X005666Y003033D02*
X000660Y003033D01*
X000660Y003192D02*
X005508Y003192D01*
X005421Y003350D02*
X000660Y003350D01*
X000660Y003509D02*
X002512Y003509D01*
X002440Y003667D02*
X000660Y003667D01*
X000660Y003826D02*
X002440Y003826D01*
X002440Y003984D02*
X000660Y003984D01*
X000660Y004143D02*
X002440Y004143D01*
X002440Y004301D02*
X000660Y004301D01*
X000660Y004460D02*
X002440Y004460D01*
X002440Y004618D02*
X000660Y004618D01*
X000660Y004777D02*
X002440Y004777D01*
X002440Y004935D02*
X000660Y004935D01*
X000660Y005094D02*
X002440Y005094D01*
X002440Y005252D02*
X000660Y005252D01*
X000660Y005411D02*
X002440Y005411D01*
X002440Y005569D02*
X000660Y005569D01*
X000660Y005728D02*
X002440Y005728D01*
X002440Y005886D02*
X000660Y005886D01*
X000660Y006045D02*
X002440Y006045D01*
X002440Y006203D02*
X000660Y006203D01*
X000660Y006362D02*
X002440Y006362D01*
X002440Y006520D02*
X000660Y006520D01*
X000660Y006679D02*
X002440Y006679D01*
X002440Y006837D02*
X000660Y006837D01*
X000660Y006996D02*
X002440Y006996D01*
X002440Y007154D02*
X000660Y007154D01*
X000660Y007313D02*
X002440Y007313D01*
X002440Y007471D02*
X000660Y007471D01*
X000660Y007630D02*
X002440Y007630D01*
X002440Y007788D02*
X000660Y007788D01*
X000660Y007947D02*
X002440Y007947D01*
X002440Y008105D02*
X000660Y008105D01*
X000660Y008264D02*
X002440Y008264D01*
X002440Y008422D02*
X000660Y008422D01*
X000660Y008581D02*
X002440Y008581D01*
X002440Y008739D02*
X000660Y008739D01*
X000660Y008898D02*
X002440Y008898D01*
X002440Y009056D02*
X000660Y009056D01*
X000660Y009215D02*
X002440Y009215D01*
X002440Y009373D02*
X000660Y009373D01*
X000660Y009532D02*
X002440Y009532D01*
X002440Y009690D02*
X000660Y009690D01*
X000660Y009849D02*
X002440Y009849D01*
X002440Y010007D02*
X000660Y010007D01*
X000660Y010166D02*
X002440Y010166D01*
X002440Y010324D02*
X000660Y010324D01*
X000660Y010483D02*
X002440Y010483D01*
X002440Y010641D02*
X000660Y010641D01*
X000660Y010800D02*
X002440Y010800D01*
X002440Y010958D02*
X000660Y010958D01*
X000660Y011117D02*
X002440Y011117D01*
X002440Y011275D02*
X000660Y011275D01*
X000660Y011434D02*
X002440Y011434D01*
X002440Y011592D02*
X000660Y011592D01*
X000660Y011751D02*
X002440Y011751D01*
X002440Y011909D02*
X000660Y011909D01*
X000660Y012068D02*
X002440Y012068D01*
X002440Y012226D02*
X000660Y012226D01*
X000660Y012385D02*
X002440Y012385D01*
X002440Y012543D02*
X000660Y012543D01*
X000660Y012702D02*
X002440Y012702D01*
X002440Y012860D02*
X000660Y012860D01*
X000660Y013019D02*
X002440Y013019D01*
X002440Y013177D02*
X000660Y013177D01*
X000660Y013336D02*
X002440Y013336D01*
X002440Y013494D02*
X000660Y013494D01*
X000660Y013653D02*
X002440Y013653D01*
X002440Y013811D02*
X000660Y013811D01*
X000660Y013970D02*
X002440Y013970D01*
X002440Y014128D02*
X000660Y014128D01*
X000660Y014287D02*
X002440Y014287D01*
X002440Y014445D02*
X000660Y014445D01*
X000660Y014604D02*
X002440Y014604D01*
X002440Y014762D02*
X000660Y014762D01*
X000660Y014921D02*
X002440Y014921D01*
X002440Y015079D02*
X000660Y015079D01*
X000660Y015238D02*
X002440Y015238D01*
X002440Y015396D02*
X000660Y015396D01*
X000660Y015555D02*
X002440Y015555D01*
X002440Y015713D02*
X000660Y015713D01*
X000660Y015872D02*
X002440Y015872D01*
X002440Y016030D02*
X000660Y016030D01*
X000660Y016189D02*
X002057Y016189D01*
X001898Y016347D02*
X000660Y016347D01*
X000660Y016506D02*
X001823Y016506D01*
X001823Y016664D02*
X000660Y016664D01*
X000660Y016823D02*
X001823Y016823D01*
X001835Y016981D02*
X000660Y016981D01*
X000660Y017140D02*
X001994Y017140D01*
X002152Y017298D02*
X000660Y017298D01*
X000660Y017457D02*
X005940Y017457D01*
X005940Y017615D02*
X000660Y017615D01*
X000660Y017774D02*
X005940Y017774D01*
X005940Y017932D02*
X000660Y017932D01*
X000660Y018091D02*
X002123Y018091D01*
X002210Y018004D02*
X001823Y018391D01*
X001823Y018938D01*
X002210Y019324D01*
X002757Y019324D01*
X003143Y018938D01*
X003143Y018920D01*
X006228Y018920D01*
X006316Y018883D01*
X026180Y018883D01*
X026180Y018725D02*
X006420Y018725D01*
X006420Y018728D02*
X006383Y018816D01*
X006316Y018883D01*
X006420Y018728D02*
X006420Y012527D01*
X006424Y012527D01*
X006758Y012388D01*
X007014Y012132D01*
X007153Y011798D01*
X007153Y011436D01*
X007014Y011102D01*
X006758Y010846D01*
X006424Y010707D01*
X006062Y010707D01*
X005728Y010846D01*
X005472Y011102D01*
X005333Y011436D01*
X005333Y011798D01*
X005472Y012132D01*
X005728Y012388D01*
X005940Y012476D01*
X005940Y018440D01*
X003143Y018440D01*
X003143Y018391D01*
X002757Y018004D01*
X002210Y018004D01*
X001965Y018249D02*
X000660Y018249D01*
X000660Y018408D02*
X001823Y018408D01*
X001823Y018566D02*
X000660Y018566D01*
X000660Y018725D02*
X001823Y018725D01*
X001823Y018883D02*
X000660Y018883D01*
X000660Y019042D02*
X001927Y019042D01*
X002086Y019200D02*
X000660Y019200D01*
X000660Y019359D02*
X026180Y019359D01*
X026180Y019517D02*
X000660Y019517D01*
X000660Y019676D02*
X026180Y019676D01*
X026180Y019834D02*
X000660Y019834D01*
X000660Y019993D02*
X026180Y019993D01*
X026180Y020151D02*
X000660Y020151D01*
X000660Y020310D02*
X026180Y020310D01*
X026180Y020468D02*
X000660Y020468D01*
X000660Y020627D02*
X026180Y020627D01*
X026180Y020785D02*
X000660Y020785D01*
X000660Y020944D02*
X026180Y020944D01*
X026180Y021102D02*
X000660Y021102D01*
X000660Y021261D02*
X026180Y021261D01*
X026180Y021419D02*
X000660Y021419D01*
X000660Y021578D02*
X026180Y021578D01*
X026180Y021736D02*
X000660Y021736D01*
X000660Y021895D02*
X026180Y021895D01*
X026180Y022053D02*
X000660Y022053D01*
X002881Y019200D02*
X026180Y019200D01*
X026180Y019042D02*
X003039Y019042D01*
X002483Y018680D02*
X002483Y018664D01*
X002483Y018680D02*
X006180Y018680D01*
X006180Y011617D01*
X006243Y011617D01*
X007086Y011275D02*
X026180Y011275D01*
X026180Y011117D02*
X007021Y011117D01*
X006871Y010958D02*
X026180Y010958D01*
X026180Y010800D02*
X006647Y010800D01*
X005839Y010800D02*
X002920Y010800D01*
X002920Y010958D02*
X005615Y010958D01*
X005465Y011117D02*
X002920Y011117D01*
X002920Y011275D02*
X005400Y011275D01*
X005334Y011434D02*
X002920Y011434D01*
X002920Y011592D02*
X005333Y011592D01*
X005333Y011751D02*
X002920Y011751D01*
X002920Y011909D02*
X005379Y011909D01*
X005445Y012068D02*
X002920Y012068D01*
X002920Y012226D02*
X005565Y012226D01*
X005724Y012385D02*
X002920Y012385D01*
X002920Y012543D02*
X005940Y012543D01*
X005940Y012702D02*
X002920Y012702D01*
X002920Y012860D02*
X005940Y012860D01*
X005940Y013019D02*
X002920Y013019D01*
X002920Y013177D02*
X005940Y013177D01*
X005940Y013336D02*
X002920Y013336D01*
X002920Y013494D02*
X005940Y013494D01*
X005940Y013653D02*
X002920Y013653D01*
X002920Y013811D02*
X005940Y013811D01*
X005940Y013970D02*
X002920Y013970D01*
X002920Y014128D02*
X005940Y014128D01*
X005940Y014287D02*
X002920Y014287D01*
X002920Y014445D02*
X005940Y014445D01*
X005940Y014604D02*
X002920Y014604D01*
X002920Y014762D02*
X005940Y014762D01*
X005940Y014921D02*
X002920Y014921D01*
X002920Y015079D02*
X005940Y015079D01*
X005940Y015238D02*
X002920Y015238D01*
X002920Y015396D02*
X005940Y015396D01*
X005940Y015555D02*
X002920Y015555D01*
X002920Y015713D02*
X005940Y015713D01*
X005940Y015872D02*
X002920Y015872D01*
X002920Y016030D02*
X005940Y016030D01*
X005940Y016189D02*
X002920Y016189D01*
X003068Y016347D02*
X005940Y016347D01*
X005940Y016506D02*
X003143Y016506D01*
X003143Y016664D02*
X005940Y016664D01*
X005940Y016823D02*
X003143Y016823D01*
X003131Y016981D02*
X005940Y016981D01*
X005940Y017140D02*
X002973Y017140D01*
X002814Y017298D02*
X005940Y017298D01*
X006420Y017298D02*
X026180Y017298D01*
X026180Y017140D02*
X006420Y017140D01*
X006420Y016981D02*
X026180Y016981D01*
X026180Y016823D02*
X006420Y016823D01*
X006420Y016664D02*
X026180Y016664D01*
X025915Y016506D02*
X006420Y016506D01*
X006420Y016347D02*
X025763Y016347D01*
X025763Y016189D02*
X006420Y016189D01*
X006420Y016030D02*
X021856Y016030D01*
X021982Y016157D02*
X021703Y015878D01*
X021703Y015698D01*
X022162Y015698D01*
X022162Y015662D01*
X022198Y015662D01*
X022198Y015698D01*
X022657Y015698D01*
X022657Y015878D01*
X022378Y016157D01*
X022198Y016157D01*
X022198Y015698D01*
X022162Y015698D01*
X022162Y016157D01*
X021982Y016157D01*
X022162Y016030D02*
X022198Y016030D01*
X022198Y015872D02*
X022162Y015872D01*
X022162Y015713D02*
X022198Y015713D01*
X022198Y015662D02*
X022657Y015662D01*
X022657Y015482D01*
X022378Y015203D01*
X022198Y015203D01*
X022198Y015662D01*
X022162Y015662D02*
X022162Y015203D01*
X021982Y015203D01*
X021703Y015482D01*
X021703Y015662D01*
X022162Y015662D01*
X022162Y015555D02*
X022198Y015555D01*
X022198Y015396D02*
X022162Y015396D01*
X022162Y015238D02*
X022198Y015238D01*
X022412Y015238D02*
X023976Y015238D01*
X023991Y015223D02*
X024369Y015223D01*
X024637Y015491D01*
X024637Y015869D01*
X024369Y016137D01*
X023991Y016137D01*
X023723Y015869D01*
X023723Y015491D01*
X023991Y015223D01*
X023818Y015396D02*
X022570Y015396D01*
X022657Y015555D02*
X023723Y015555D01*
X023723Y015713D02*
X022657Y015713D01*
X022657Y015872D02*
X023725Y015872D01*
X023884Y016030D02*
X022504Y016030D01*
X021703Y015872D02*
X006420Y015872D01*
X006420Y015713D02*
X021703Y015713D01*
X021703Y015555D02*
X006420Y015555D01*
X006420Y015396D02*
X021790Y015396D01*
X021948Y015238D02*
X006420Y015238D01*
X006420Y015079D02*
X026180Y015079D01*
X026180Y014921D02*
X006420Y014921D01*
X006420Y014762D02*
X026180Y014762D01*
X026180Y014604D02*
X006420Y014604D01*
X006420Y014445D02*
X026180Y014445D01*
X026180Y014287D02*
X006420Y014287D01*
X006420Y014128D02*
X026180Y014128D01*
X026180Y013970D02*
X024481Y013970D01*
X024597Y013853D02*
X024353Y014097D01*
X024007Y014097D01*
X023763Y013853D01*
X023763Y013507D01*
X024007Y013263D01*
X024353Y013263D01*
X024597Y013507D01*
X024597Y013853D01*
X024597Y013811D02*
X026180Y013811D01*
X026180Y013653D02*
X024597Y013653D01*
X024584Y013494D02*
X026180Y013494D01*
X026180Y013336D02*
X024426Y013336D01*
X023934Y013336D02*
X020175Y013336D01*
X020175Y013385D02*
X019885Y013675D01*
X019698Y013675D01*
X019698Y013198D01*
X019662Y013198D01*
X019662Y013162D01*
X019185Y013162D01*
X019185Y012975D01*
X019475Y012685D01*
X019662Y012685D01*
X019662Y013162D01*
X019698Y013162D01*
X019698Y013198D01*
X020175Y013198D01*
X020175Y013385D01*
X020066Y013494D02*
X023776Y013494D01*
X023763Y013653D02*
X019908Y013653D01*
X019698Y013653D02*
X019662Y013653D01*
X019662Y013675D02*
X019475Y013675D01*
X019185Y013385D01*
X019185Y013198D01*
X019662Y013198D01*
X019662Y013675D01*
X019662Y013494D02*
X019698Y013494D01*
X019698Y013336D02*
X019662Y013336D01*
X019662Y013177D02*
X006420Y013177D01*
X006420Y013019D02*
X019185Y013019D01*
X019300Y012860D02*
X006420Y012860D01*
X006420Y012702D02*
X019458Y012702D01*
X019411Y012583D02*
X019277Y012449D01*
X019205Y012274D01*
X019205Y012086D01*
X019277Y011911D01*
X019411Y011777D01*
X019586Y011705D01*
X019774Y011705D01*
X019949Y011777D01*
X020083Y011911D01*
X020155Y012086D01*
X020155Y012274D01*
X020083Y012449D01*
X019949Y012583D01*
X019774Y012655D01*
X019586Y012655D01*
X019411Y012583D01*
X019371Y012543D02*
X006420Y012543D01*
X006762Y012385D02*
X019251Y012385D01*
X019205Y012226D02*
X006921Y012226D01*
X007041Y012068D02*
X019212Y012068D01*
X019279Y011909D02*
X007107Y011909D01*
X007153Y011751D02*
X019476Y011751D01*
X019884Y011751D02*
X026180Y011751D01*
X026180Y011909D02*
X020081Y011909D01*
X020148Y012068D02*
X026180Y012068D01*
X026180Y012226D02*
X020155Y012226D01*
X020109Y012385D02*
X026180Y012385D01*
X026180Y012543D02*
X019989Y012543D01*
X019885Y012685D02*
X020175Y012975D01*
X020175Y013162D01*
X019698Y013162D01*
X019698Y012685D01*
X019885Y012685D01*
X019902Y012702D02*
X026180Y012702D01*
X026180Y012860D02*
X020060Y012860D01*
X020175Y013019D02*
X026180Y013019D01*
X026180Y013177D02*
X019698Y013177D01*
X019698Y013019D02*
X019662Y013019D01*
X019662Y012860D02*
X019698Y012860D01*
X019698Y012702D02*
X019662Y012702D01*
X019185Y013336D02*
X006420Y013336D01*
X006420Y013494D02*
X019294Y013494D01*
X019452Y013653D02*
X006420Y013653D01*
X006420Y013811D02*
X023763Y013811D01*
X023879Y013970D02*
X006420Y013970D01*
X007153Y011592D02*
X026180Y011592D01*
X026180Y011434D02*
X007152Y011434D01*
X002920Y010641D02*
X026180Y010641D01*
X026180Y010483D02*
X014481Y010483D01*
X014632Y010420D02*
X014298Y010559D01*
X013936Y010559D01*
X013602Y010420D01*
X013346Y010164D01*
X013207Y009830D01*
X013207Y009467D01*
X013346Y009133D01*
X013602Y008877D01*
X013936Y008739D01*
X014298Y008739D01*
X014632Y008877D01*
X014888Y009133D01*
X015003Y009409D01*
X017861Y009409D01*
X018007Y009263D01*
X018353Y009263D01*
X018597Y009507D01*
X018597Y009853D01*
X018353Y010097D01*
X018007Y010097D01*
X017798Y009889D01*
X015003Y009889D01*
X014888Y010164D01*
X014632Y010420D01*
X014728Y010324D02*
X026180Y010324D01*
X026180Y010166D02*
X014887Y010166D01*
X014953Y010007D02*
X017917Y010007D01*
X018180Y009680D02*
X018180Y009649D01*
X014117Y009649D01*
X013281Y010007D02*
X002920Y010007D01*
X002920Y009849D02*
X013215Y009849D01*
X013207Y009690D02*
X002920Y009690D01*
X002920Y009532D02*
X013207Y009532D01*
X013246Y009373D02*
X002920Y009373D01*
X002920Y009215D02*
X013312Y009215D01*
X013423Y009056D02*
X002920Y009056D01*
X002920Y008898D02*
X013581Y008898D01*
X013935Y008739D02*
X002920Y008739D01*
X002920Y008581D02*
X039070Y008581D01*
X039070Y008739D02*
X014299Y008739D01*
X014653Y008898D02*
X039070Y008898D01*
X039070Y009056D02*
X014811Y009056D01*
X014922Y009215D02*
X026180Y009215D01*
X026180Y009373D02*
X024492Y009373D01*
X024617Y009499D02*
X024617Y009680D01*
X024617Y009861D01*
X024361Y010117D01*
X024180Y010117D01*
X024180Y009680D01*
X024180Y009680D01*
X024617Y009680D01*
X024180Y009680D01*
X024180Y009680D01*
X024180Y009680D01*
X023743Y009680D01*
X023743Y009499D01*
X023999Y009243D01*
X024180Y009243D01*
X024180Y009680D01*
X024180Y010117D01*
X023999Y010117D01*
X023743Y009861D01*
X023743Y009680D01*
X024180Y009680D01*
X024180Y009243D01*
X024361Y009243D01*
X024617Y009499D01*
X024617Y009532D02*
X026180Y009532D01*
X026180Y009690D02*
X024617Y009690D01*
X024617Y009849D02*
X026180Y009849D01*
X026180Y010007D02*
X024472Y010007D01*
X024180Y010007D02*
X024180Y010007D01*
X024180Y009849D02*
X024180Y009849D01*
X024180Y009690D02*
X024180Y009690D01*
X024180Y009680D02*
X024180Y009680D01*
X024180Y009532D02*
X024180Y009532D01*
X024180Y009373D02*
X024180Y009373D01*
X023868Y009373D02*
X021963Y009373D01*
X021853Y009263D02*
X022097Y009507D01*
X022097Y009853D01*
X021853Y010097D01*
X021507Y010097D01*
X021263Y009853D01*
X021263Y009507D01*
X021507Y009263D01*
X021853Y009263D01*
X022097Y009532D02*
X023743Y009532D01*
X023743Y009690D02*
X022097Y009690D01*
X022097Y009849D02*
X023743Y009849D01*
X023888Y010007D02*
X021943Y010007D01*
X021417Y010007D02*
X019972Y010007D01*
X019861Y010117D02*
X020117Y009861D01*
X020117Y009680D01*
X019680Y009680D01*
X019680Y009680D01*
X019680Y010117D01*
X019861Y010117D01*
X019680Y010117D02*
X019499Y010117D01*
X019243Y009861D01*
X019243Y009680D01*
X019243Y009499D01*
X019499Y009243D01*
X019680Y009243D01*
X019680Y009680D01*
X019680Y009680D01*
X019680Y009680D01*
X019243Y009680D01*
X019680Y009680D01*
X019680Y010117D01*
X019680Y010007D02*
X019680Y010007D01*
X019680Y009849D02*
X019680Y009849D01*
X019680Y009690D02*
X019680Y009690D01*
X019680Y009680D02*
X020117Y009680D01*
X020117Y009499D01*
X019861Y009243D01*
X019680Y009243D01*
X019680Y009680D01*
X019680Y009680D01*
X019680Y009532D02*
X019680Y009532D01*
X019680Y009373D02*
X019680Y009373D01*
X019992Y009373D02*
X021397Y009373D01*
X021263Y009532D02*
X020117Y009532D01*
X020117Y009690D02*
X021263Y009690D01*
X021263Y009849D02*
X020117Y009849D01*
X019388Y010007D02*
X018443Y010007D01*
X018597Y009849D02*
X019243Y009849D01*
X019243Y009690D02*
X018597Y009690D01*
X018597Y009532D02*
X019243Y009532D01*
X019368Y009373D02*
X018463Y009373D01*
X017897Y009373D02*
X014988Y009373D01*
X013753Y010483D02*
X002920Y010483D01*
X002920Y010324D02*
X013506Y010324D01*
X013347Y010166D02*
X002920Y010166D01*
X002920Y008422D02*
X039070Y008422D01*
X039070Y008264D02*
X002920Y008264D01*
X002920Y008105D02*
X039070Y008105D01*
X039070Y007947D02*
X002920Y007947D01*
X002920Y007788D02*
X039070Y007788D01*
X039070Y007630D02*
X002920Y007630D01*
X002920Y004618D02*
X005978Y004618D01*
X005673Y004460D02*
X002920Y004460D01*
X002920Y004301D02*
X005514Y004301D01*
X005424Y004143D02*
X002920Y004143D01*
X002920Y003984D02*
X005358Y003984D01*
X006243Y003743D02*
X006243Y003680D01*
X002680Y003680D01*
X002680Y016696D01*
X002483Y016696D01*
X002843Y018091D02*
X005940Y018091D01*
X005940Y018249D02*
X003001Y018249D01*
X003143Y018408D02*
X005940Y018408D01*
X006420Y018408D02*
X026180Y018408D01*
X026180Y018566D02*
X006420Y018566D01*
X006420Y018249D02*
X026180Y018249D01*
X026180Y018091D02*
X006420Y018091D01*
X006420Y017932D02*
X026180Y017932D01*
X026180Y017774D02*
X006420Y017774D01*
X006420Y017615D02*
X026180Y017615D01*
X026180Y017457D02*
X006420Y017457D01*
X024384Y015238D02*
X026180Y015238D01*
X026180Y015396D02*
X024542Y015396D01*
X024637Y015555D02*
X026180Y015555D01*
X026180Y015713D02*
X024637Y015713D01*
X024635Y015872D02*
X025898Y015872D01*
X025763Y016030D02*
X024476Y016030D01*
X029180Y016823D02*
X034440Y016823D01*
X034440Y016981D02*
X029180Y016981D01*
X029180Y017140D02*
X034440Y017140D01*
X034440Y017298D02*
X029180Y017298D01*
X029180Y017457D02*
X034440Y017457D01*
X034440Y017615D02*
X029180Y017615D01*
X029180Y017774D02*
X034440Y017774D01*
X034440Y017932D02*
X029180Y017932D01*
X029180Y018091D02*
X034440Y018091D01*
X034440Y018249D02*
X029180Y018249D01*
X029180Y018408D02*
X034440Y018408D01*
X034440Y018566D02*
X029180Y018566D01*
X029180Y018725D02*
X034440Y018725D01*
X034440Y018883D02*
X029180Y018883D01*
X029180Y019042D02*
X034440Y019042D01*
X034440Y019200D02*
X031400Y019200D01*
X031385Y019185D02*
X031675Y019475D01*
X031675Y019662D01*
X031198Y019662D01*
X031198Y019698D01*
X031675Y019698D01*
X031675Y019885D01*
X031385Y020175D01*
X031198Y020175D01*
X031198Y019698D01*
X031162Y019698D01*
X031162Y019662D01*
X031198Y019662D01*
X031198Y019185D01*
X031385Y019185D01*
X031198Y019200D02*
X031162Y019200D01*
X031162Y019185D02*
X031162Y019662D01*
X030685Y019662D01*
X030685Y019475D01*
X030975Y019185D01*
X031162Y019185D01*
X031162Y019359D02*
X031198Y019359D01*
X031198Y019517D02*
X031162Y019517D01*
X031162Y019676D02*
X030655Y019676D01*
X030685Y019698D02*
X031162Y019698D01*
X031162Y020175D01*
X030975Y020175D01*
X030685Y019885D01*
X030685Y019698D01*
X030685Y019834D02*
X030630Y019834D01*
X030539Y019993D02*
X030792Y019993D01*
X030951Y020151D02*
X030420Y020151D01*
X030420Y020310D02*
X034440Y020310D01*
X034440Y020151D02*
X031409Y020151D01*
X031198Y020151D02*
X031162Y020151D01*
X031162Y019993D02*
X031198Y019993D01*
X031198Y019834D02*
X031162Y019834D01*
X031198Y019676D02*
X034440Y019676D01*
X034440Y019834D02*
X031675Y019834D01*
X031568Y019993D02*
X034440Y019993D01*
X034920Y019993D02*
X039070Y019993D01*
X039070Y020151D02*
X034920Y020151D01*
X034920Y020310D02*
X039070Y020310D01*
X039070Y020468D02*
X034920Y020468D01*
X034920Y020627D02*
X039070Y020627D01*
X039070Y020785D02*
X034896Y020785D01*
X034680Y020680D02*
X034680Y019180D01*
X036483Y019180D01*
X036483Y019164D01*
X035989Y018725D02*
X034920Y018725D01*
X034920Y018883D02*
X035831Y018883D01*
X036148Y018566D02*
X034920Y018566D01*
X034920Y018408D02*
X039070Y018408D01*
X039070Y018566D02*
X036818Y018566D01*
X036977Y018725D02*
X039070Y018725D01*
X039070Y018883D02*
X037135Y018883D01*
X037143Y019042D02*
X039070Y019042D01*
X039070Y019200D02*
X037143Y019200D01*
X037143Y019359D02*
X039070Y019359D01*
X039070Y019517D02*
X037064Y019517D01*
X036905Y019676D02*
X039070Y019676D01*
X039070Y019834D02*
X034920Y019834D01*
X034920Y019676D02*
X036061Y019676D01*
X035903Y019517D02*
X034920Y019517D01*
X034440Y019517D02*
X031675Y019517D01*
X031559Y019359D02*
X034440Y019359D01*
X034680Y019180D02*
X034680Y014480D01*
X034980Y014480D01*
X035400Y014445D02*
X039070Y014445D01*
X039070Y014287D02*
X035400Y014287D01*
X035397Y014128D02*
X039070Y014128D01*
X039070Y013970D02*
X035323Y013970D01*
X035400Y014604D02*
X039070Y014604D01*
X039070Y014762D02*
X035400Y014762D01*
X035360Y014921D02*
X039070Y014921D01*
X039070Y015079D02*
X035235Y015079D01*
X034920Y015238D02*
X039070Y015238D01*
X039070Y015396D02*
X034920Y015396D01*
X034920Y015555D02*
X039070Y015555D01*
X039070Y015713D02*
X034920Y015713D01*
X034920Y015872D02*
X039070Y015872D01*
X039070Y016030D02*
X034920Y016030D01*
X034920Y016189D02*
X039070Y016189D01*
X039070Y016347D02*
X034920Y016347D01*
X034920Y016506D02*
X039070Y016506D01*
X039070Y016664D02*
X036885Y016664D01*
X036757Y016536D02*
X037143Y016922D01*
X037143Y017469D01*
X036757Y017856D01*
X036210Y017856D01*
X035823Y017469D01*
X035823Y016922D01*
X036210Y016536D01*
X036757Y016536D01*
X037043Y016823D02*
X039070Y016823D01*
X039070Y016981D02*
X037143Y016981D01*
X037143Y017140D02*
X039070Y017140D01*
X039070Y017298D02*
X037143Y017298D01*
X037143Y017457D02*
X039070Y017457D01*
X039070Y017615D02*
X036997Y017615D01*
X036839Y017774D02*
X039070Y017774D01*
X039070Y017932D02*
X034920Y017932D01*
X034920Y017774D02*
X036128Y017774D01*
X035969Y017615D02*
X034920Y017615D01*
X034920Y017457D02*
X035823Y017457D01*
X035823Y017298D02*
X034920Y017298D01*
X034920Y017140D02*
X035823Y017140D01*
X035823Y016981D02*
X034920Y016981D01*
X034920Y016823D02*
X035923Y016823D01*
X036081Y016664D02*
X034920Y016664D01*
X034440Y016664D02*
X031680Y016664D01*
X031680Y016506D02*
X034440Y016506D01*
X034440Y016347D02*
X031680Y016347D01*
X031680Y016189D02*
X034440Y016189D01*
X034440Y016030D02*
X031680Y016030D01*
X031680Y015872D02*
X034440Y015872D01*
X034440Y015713D02*
X031680Y015713D01*
X031680Y015555D02*
X034440Y015555D01*
X034440Y015396D02*
X031680Y015396D01*
X031680Y015238D02*
X034440Y015238D01*
X032880Y014921D02*
X032880Y014921D01*
X032880Y014762D02*
X032880Y014762D01*
X032880Y014604D02*
X032880Y014604D01*
X032880Y014445D02*
X032880Y014445D01*
X032880Y014287D02*
X032880Y014287D01*
X032880Y014128D02*
X032880Y014128D01*
X032880Y013970D02*
X032880Y013970D01*
X032880Y013811D02*
X032880Y013811D01*
X034920Y018091D02*
X039070Y018091D01*
X039070Y018249D02*
X034920Y018249D01*
X030960Y019200D02*
X029180Y019200D01*
X029180Y019359D02*
X029830Y019359D01*
X029733Y019517D02*
X029180Y019517D01*
X029180Y019676D02*
X029705Y019676D01*
X029730Y019834D02*
X029180Y019834D01*
X029180Y019993D02*
X029821Y019993D01*
X029940Y020151D02*
X029180Y020151D01*
X029180Y020310D02*
X029940Y020310D01*
X029940Y020468D02*
X029180Y020468D01*
X029180Y020627D02*
X029940Y020627D01*
X029964Y020785D02*
X029180Y020785D01*
X029180Y020944D02*
X039070Y020944D01*
X039070Y021102D02*
X029180Y021102D01*
X029180Y021261D02*
X039070Y021261D01*
X039070Y021419D02*
X029180Y021419D01*
X029180Y021578D02*
X039070Y021578D01*
X039070Y021736D02*
X029180Y021736D01*
X029180Y021895D02*
X039070Y021895D01*
X039070Y022053D02*
X029180Y022053D01*
X030180Y020680D02*
X034680Y020680D01*
X030801Y019359D02*
X030530Y019359D01*
X030627Y019517D02*
X030685Y019517D01*
X030180Y019680D02*
X030180Y020680D01*
M02*
