G75*
G70*
%OFA0B0*%
%FSLAX24Y24*%
%IPPOS*%
%LPD*%
%AMOC8*
5,1,8,0,0,1.08239X$1,22.5*
%
%ADD10C,0.0000*%
%ADD11OC8,0.0594*%
%ADD12OC8,0.0515*%
%ADD13OC8,0.0630*%
%ADD14C,0.0630*%
%ADD15C,0.1500*%
%ADD16C,0.0520*%
%ADD17OC8,0.1000*%
%ADD18R,0.0550X0.0550*%
%ADD19C,0.0550*%
%ADD20C,0.0160*%
D10*
X000180Y000180D02*
X000180Y022676D01*
X039550Y022676D01*
X039550Y000180D01*
X000180Y000180D01*
D11*
X022180Y015680D03*
X024180Y015680D03*
D12*
X026180Y016180D03*
X030180Y016180D03*
X024180Y013680D03*
X024180Y009680D03*
X021680Y009680D03*
X019680Y009680D03*
X018180Y009680D03*
X018180Y005680D03*
X019680Y005680D03*
X021680Y005680D03*
X023680Y005680D03*
X027680Y005680D03*
X033180Y007180D03*
X033180Y003180D03*
D13*
X019680Y003180D03*
X019680Y013180D03*
X031180Y019680D03*
D14*
X030180Y019680D03*
X019680Y012180D03*
X020680Y003180D03*
D15*
X014117Y005711D03*
X014117Y009649D03*
X006243Y011617D03*
X006243Y003743D03*
D16*
X032880Y010120D02*
X032880Y010640D01*
X034980Y010740D02*
X034980Y010220D01*
X032880Y014120D02*
X032880Y014640D01*
X034980Y014740D02*
X034980Y014220D01*
D17*
X036483Y017196D03*
X036483Y019164D03*
X036483Y006164D03*
X036483Y004196D03*
X002483Y016696D03*
X002483Y018664D03*
D18*
X027180Y013680D03*
D19*
X027180Y012680D03*
X027180Y011680D03*
X027180Y010680D03*
X030180Y010680D03*
X030180Y011680D03*
X030180Y012680D03*
X030180Y013680D03*
D20*
X030180Y016180D01*
X030180Y019680D01*
X029940Y016680D02*
X026180Y016680D01*
X026180Y016597D01*
X026353Y016597D01*
X026597Y016353D01*
X026597Y016007D01*
X026420Y015830D01*
X026420Y015632D01*
X026383Y015544D01*
X026316Y015477D01*
X026228Y015440D01*
X026180Y015440D01*
X026180Y011920D01*
X026809Y011920D01*
X026811Y011926D01*
X026934Y012049D01*
X027093Y012115D01*
X027267Y012115D01*
X027426Y012049D01*
X027549Y011926D01*
X027615Y011767D01*
X027615Y011593D01*
X027549Y011434D01*
X027426Y011311D01*
X027267Y011245D01*
X027093Y011245D01*
X026934Y011311D01*
X026811Y011434D01*
X026809Y011440D01*
X026180Y011440D01*
X026180Y009180D01*
X027342Y008420D01*
X027940Y008420D01*
X027940Y012440D01*
X027551Y012440D01*
X027549Y012434D01*
X027426Y012311D01*
X027267Y012245D01*
X027093Y012245D01*
X026934Y012311D01*
X026811Y012434D01*
X026745Y012593D01*
X026745Y012767D01*
X026811Y012926D01*
X026934Y013049D01*
X027093Y013115D01*
X027267Y013115D01*
X027426Y013049D01*
X027549Y012926D01*
X027551Y012920D01*
X028228Y012920D01*
X028316Y012883D01*
X028383Y012816D01*
X028420Y012728D01*
X028420Y008132D01*
X028383Y008044D01*
X028316Y007977D01*
X028228Y007940D01*
X028076Y007940D01*
X030440Y006395D01*
X030440Y009440D01*
X030132Y009440D01*
X030044Y009477D01*
X029977Y009544D01*
X029940Y009632D01*
X029940Y010309D01*
X029934Y010311D01*
X029811Y010434D01*
X029745Y010593D01*
X029745Y010767D01*
X029811Y010926D01*
X029934Y011049D01*
X030093Y011115D01*
X030267Y011115D01*
X030426Y011049D01*
X030549Y010926D01*
X030615Y010767D01*
X030615Y010593D01*
X030549Y010434D01*
X030426Y010311D01*
X030420Y010309D01*
X030420Y009920D01*
X032508Y009920D01*
X032460Y010036D01*
X032460Y010724D01*
X032524Y010878D01*
X032642Y010996D01*
X032796Y011060D01*
X032964Y011060D01*
X033118Y010996D01*
X033236Y010878D01*
X033300Y010724D01*
X033300Y010620D01*
X034560Y010620D01*
X034560Y010824D01*
X034624Y010978D01*
X034742Y011096D01*
X034896Y011160D01*
X035064Y011160D01*
X035218Y011096D01*
X035336Y010978D01*
X035400Y010824D01*
X035400Y010136D01*
X035336Y009982D01*
X035218Y009864D01*
X035064Y009800D01*
X034896Y009800D01*
X034742Y009864D01*
X034624Y009982D01*
X034560Y010136D01*
X034560Y010140D01*
X033300Y010140D01*
X033300Y010036D01*
X033236Y009882D01*
X033120Y009766D01*
X033120Y009632D01*
X033083Y009544D01*
X033016Y009477D01*
X032928Y009440D01*
X030920Y009440D01*
X030920Y006081D01*
X039070Y000752D01*
X039070Y007812D01*
X036420Y010992D01*
X036420Y008632D01*
X036383Y008544D01*
X036316Y008477D01*
X036228Y008440D01*
X033420Y008440D01*
X033420Y007530D01*
X033597Y007353D01*
X033597Y007007D01*
X033353Y006763D01*
X033007Y006763D01*
X032763Y007007D01*
X032763Y007353D01*
X032940Y007530D01*
X032940Y008728D01*
X032977Y008816D01*
X033044Y008883D01*
X033132Y008920D01*
X035940Y008920D01*
X035940Y011568D01*
X035630Y011940D01*
X030535Y011940D01*
X030549Y011926D01*
X030615Y011767D01*
X030615Y011593D01*
X030549Y011434D01*
X030426Y011311D01*
X030267Y011245D01*
X030093Y011245D01*
X029934Y011311D01*
X029811Y011434D01*
X029745Y011593D01*
X029745Y011767D01*
X029811Y011926D01*
X029934Y012049D01*
X029940Y012051D01*
X029940Y012309D01*
X029934Y012311D01*
X029811Y012434D01*
X029745Y012593D01*
X029745Y012767D01*
X029811Y012926D01*
X029934Y013049D01*
X030093Y013115D01*
X030267Y013115D01*
X030426Y013049D01*
X030549Y012926D01*
X030615Y012767D01*
X030615Y012593D01*
X030549Y012434D01*
X030535Y012420D01*
X035230Y012420D01*
X033313Y014721D01*
X033320Y014675D01*
X033320Y014380D01*
X032880Y014380D01*
X032880Y014380D01*
X032880Y014380D01*
X032880Y015080D01*
X032915Y015080D01*
X032983Y015069D01*
X033037Y015052D01*
X031680Y016680D01*
X030420Y016680D01*
X030420Y016530D01*
X030597Y016353D01*
X030597Y016007D01*
X030420Y015830D01*
X030420Y014051D01*
X030426Y014049D01*
X030549Y013926D01*
X030615Y013767D01*
X030615Y013593D01*
X030549Y013434D01*
X030426Y013311D01*
X030267Y013245D01*
X030093Y013245D01*
X029934Y013311D01*
X029811Y013434D01*
X029745Y013593D01*
X029745Y013767D01*
X029811Y013926D01*
X029934Y014049D01*
X029940Y014051D01*
X029940Y015830D01*
X029763Y016007D01*
X029763Y016353D01*
X029940Y016530D01*
X029940Y016680D01*
X029940Y016664D02*
X026180Y016664D01*
X026445Y016506D02*
X029915Y016506D01*
X029763Y016347D02*
X026597Y016347D01*
X026597Y016189D02*
X029763Y016189D01*
X029763Y016030D02*
X026597Y016030D01*
X026462Y015872D02*
X029898Y015872D01*
X029940Y015713D02*
X026420Y015713D01*
X026388Y015555D02*
X029940Y015555D01*
X029940Y015396D02*
X026180Y015396D01*
X026180Y015238D02*
X029940Y015238D01*
X029940Y015079D02*
X026180Y015079D01*
X026180Y014921D02*
X029940Y014921D01*
X029940Y014762D02*
X026180Y014762D01*
X026180Y014604D02*
X029940Y014604D01*
X029940Y014445D02*
X026180Y014445D01*
X026180Y014287D02*
X029940Y014287D01*
X029940Y014128D02*
X026180Y014128D01*
X026180Y013970D02*
X026745Y013970D01*
X026745Y014021D02*
X026745Y013339D01*
X026839Y013245D01*
X027521Y013245D01*
X027615Y013339D01*
X027615Y014021D01*
X027521Y014115D01*
X026839Y014115D01*
X026745Y014021D01*
X026745Y013811D02*
X026180Y013811D01*
X026180Y013653D02*
X026745Y013653D01*
X026745Y013494D02*
X026180Y013494D01*
X026180Y013336D02*
X026748Y013336D01*
X026903Y013019D02*
X026180Y013019D01*
X026180Y013177D02*
X034599Y013177D01*
X034467Y013336D02*
X030451Y013336D01*
X030574Y013494D02*
X034335Y013494D01*
X034203Y013653D02*
X030615Y013653D01*
X030597Y013811D02*
X032567Y013811D01*
X032544Y013833D02*
X032593Y013784D01*
X032649Y013744D01*
X032711Y013712D01*
X032777Y013691D01*
X032845Y013680D01*
X032880Y013680D01*
X032915Y013680D01*
X032983Y013691D01*
X033049Y013712D01*
X033111Y013744D01*
X033167Y013784D01*
X033216Y013833D01*
X033256Y013889D01*
X033288Y013951D01*
X033309Y014017D01*
X033320Y014085D01*
X033320Y014380D01*
X032880Y014380D01*
X032880Y013680D01*
X032880Y014380D01*
X032880Y014380D01*
X032880Y014380D01*
X032440Y014380D01*
X032440Y014675D01*
X032451Y014743D01*
X032472Y014809D01*
X032504Y014871D01*
X032544Y014927D01*
X032593Y014976D01*
X032649Y015016D01*
X032711Y015048D01*
X032777Y015069D01*
X032845Y015080D01*
X032880Y015080D01*
X032880Y014380D01*
X032440Y014380D01*
X032440Y014085D01*
X032451Y014017D01*
X032472Y013951D01*
X032504Y013889D01*
X032544Y013833D01*
X032466Y013970D02*
X030506Y013970D01*
X030420Y014128D02*
X032440Y014128D01*
X032440Y014287D02*
X030420Y014287D01*
X030420Y014445D02*
X032440Y014445D01*
X032440Y014604D02*
X030420Y014604D01*
X030420Y014762D02*
X032457Y014762D01*
X032540Y014921D02*
X030420Y014921D01*
X030420Y015079D02*
X032839Y015079D01*
X032880Y015079D02*
X032880Y015079D01*
X032921Y015079D02*
X033014Y015079D01*
X032882Y015238D02*
X030420Y015238D01*
X030420Y015396D02*
X032750Y015396D01*
X032618Y015555D02*
X030420Y015555D01*
X030420Y015713D02*
X032486Y015713D01*
X032354Y015872D02*
X030462Y015872D01*
X030597Y016030D02*
X032222Y016030D01*
X032090Y016189D02*
X030597Y016189D01*
X030597Y016347D02*
X031957Y016347D01*
X031825Y016506D02*
X030445Y016506D01*
X030420Y016664D02*
X031693Y016664D01*
X032880Y014921D02*
X032880Y014921D01*
X032880Y014762D02*
X032880Y014762D01*
X032880Y014604D02*
X032880Y014604D01*
X032880Y014445D02*
X032880Y014445D01*
X032880Y014287D02*
X032880Y014287D01*
X032880Y014128D02*
X032880Y014128D01*
X032880Y013970D02*
X032880Y013970D01*
X032880Y013811D02*
X032880Y013811D01*
X033193Y013811D02*
X034071Y013811D01*
X033939Y013970D02*
X033294Y013970D01*
X033320Y014128D02*
X033807Y014128D01*
X033675Y014287D02*
X033320Y014287D01*
X033320Y014445D02*
X033542Y014445D01*
X033410Y014604D02*
X033320Y014604D01*
X034731Y013019D02*
X030457Y013019D01*
X030576Y012860D02*
X034863Y012860D01*
X034995Y012702D02*
X030615Y012702D01*
X030594Y012543D02*
X035127Y012543D01*
X035656Y011909D02*
X030556Y011909D01*
X030615Y011751D02*
X035788Y011751D01*
X035920Y011592D02*
X030614Y011592D01*
X030549Y011434D02*
X035940Y011434D01*
X035940Y011275D02*
X030339Y011275D01*
X030021Y011275D02*
X028420Y011275D01*
X028420Y011117D02*
X034791Y011117D01*
X034616Y010958D02*
X033156Y010958D01*
X033269Y010800D02*
X034560Y010800D01*
X034560Y010641D02*
X033300Y010641D01*
X032880Y010380D02*
X034980Y010380D01*
X034980Y010480D01*
X035400Y010483D02*
X035940Y010483D01*
X035940Y010641D02*
X035400Y010641D01*
X035400Y010800D02*
X035940Y010800D01*
X035940Y010958D02*
X035344Y010958D01*
X035169Y011117D02*
X035940Y011117D01*
X036420Y010958D02*
X036448Y010958D01*
X036420Y010800D02*
X036580Y010800D01*
X036712Y010641D02*
X036420Y010641D01*
X036420Y010483D02*
X036845Y010483D01*
X036977Y010324D02*
X036420Y010324D01*
X036420Y010166D02*
X037109Y010166D01*
X037241Y010007D02*
X036420Y010007D01*
X036420Y009849D02*
X037373Y009849D01*
X037505Y009690D02*
X036420Y009690D01*
X036420Y009532D02*
X037637Y009532D01*
X037769Y009373D02*
X036420Y009373D01*
X036420Y009215D02*
X037901Y009215D01*
X038033Y009056D02*
X036420Y009056D01*
X036420Y008898D02*
X038165Y008898D01*
X038297Y008739D02*
X036420Y008739D01*
X036399Y008581D02*
X038430Y008581D01*
X038562Y008422D02*
X033420Y008422D01*
X033420Y008264D02*
X038694Y008264D01*
X038826Y008105D02*
X033420Y008105D01*
X033420Y007947D02*
X038958Y007947D01*
X039070Y007788D02*
X033420Y007788D01*
X033420Y007630D02*
X039070Y007630D01*
X039070Y007471D02*
X033479Y007471D01*
X033597Y007313D02*
X039070Y007313D01*
X039070Y007154D02*
X033597Y007154D01*
X033586Y006996D02*
X039070Y006996D01*
X039070Y006837D02*
X033427Y006837D01*
X032933Y006837D02*
X030920Y006837D01*
X030920Y006679D02*
X036064Y006679D01*
X036210Y006824D02*
X035823Y006438D01*
X035823Y005891D01*
X036210Y005504D01*
X036757Y005504D01*
X037143Y005891D01*
X037143Y006438D01*
X036757Y006824D01*
X036210Y006824D01*
X035906Y006520D02*
X030920Y006520D01*
X030920Y006362D02*
X035823Y006362D01*
X035823Y006203D02*
X030920Y006203D01*
X030975Y006045D02*
X035823Y006045D01*
X035828Y005886D02*
X031218Y005886D01*
X031460Y005728D02*
X035987Y005728D01*
X036145Y005569D02*
X031703Y005569D01*
X031945Y005411D02*
X039070Y005411D01*
X039070Y005569D02*
X036821Y005569D01*
X036980Y005728D02*
X039070Y005728D01*
X039070Y005886D02*
X037138Y005886D01*
X037143Y006045D02*
X039070Y006045D01*
X039070Y006203D02*
X037143Y006203D01*
X037143Y006362D02*
X039070Y006362D01*
X039070Y006520D02*
X037061Y006520D01*
X036902Y006679D02*
X039070Y006679D01*
X039070Y005252D02*
X032188Y005252D01*
X032430Y005094D02*
X039070Y005094D01*
X039070Y004935D02*
X032672Y004935D01*
X032915Y004777D02*
X036102Y004777D01*
X036201Y004876D02*
X035803Y004477D01*
X035803Y004244D01*
X036435Y004244D01*
X036435Y004876D01*
X036201Y004876D01*
X036435Y004777D02*
X036531Y004777D01*
X036531Y004876D02*
X036531Y004244D01*
X036435Y004244D01*
X036435Y004148D01*
X035803Y004148D01*
X035803Y003914D01*
X036201Y003516D01*
X036435Y003516D01*
X036435Y004148D01*
X036531Y004148D01*
X036531Y004244D01*
X037163Y004244D01*
X037163Y004477D01*
X036765Y004876D01*
X036531Y004876D01*
X036531Y004618D02*
X036435Y004618D01*
X036435Y004460D02*
X036531Y004460D01*
X036531Y004301D02*
X036435Y004301D01*
X036435Y004143D02*
X036531Y004143D01*
X036531Y004148D02*
X036531Y003516D01*
X036765Y003516D01*
X037163Y003914D01*
X037163Y004148D01*
X036531Y004148D01*
X036531Y003984D02*
X036435Y003984D01*
X036435Y003826D02*
X036531Y003826D01*
X036531Y003667D02*
X036435Y003667D01*
X036050Y003667D02*
X034612Y003667D01*
X034854Y003509D02*
X039070Y003509D01*
X039070Y003667D02*
X036916Y003667D01*
X037075Y003826D02*
X039070Y003826D01*
X039070Y003984D02*
X037163Y003984D01*
X037163Y004143D02*
X039070Y004143D01*
X039070Y004301D02*
X037163Y004301D01*
X037163Y004460D02*
X039070Y004460D01*
X039070Y004618D02*
X037023Y004618D01*
X036864Y004777D02*
X039070Y004777D01*
X039070Y003350D02*
X035096Y003350D01*
X035339Y003192D02*
X039070Y003192D01*
X039070Y003033D02*
X035581Y003033D01*
X035824Y002875D02*
X039070Y002875D01*
X039070Y002716D02*
X036066Y002716D01*
X036309Y002558D02*
X039070Y002558D01*
X039070Y002399D02*
X036551Y002399D01*
X036793Y002241D02*
X039070Y002241D01*
X039070Y002082D02*
X037036Y002082D01*
X037278Y001924D02*
X039070Y001924D01*
X039070Y001765D02*
X037521Y001765D01*
X037763Y001607D02*
X039070Y001607D01*
X039070Y001448D02*
X038005Y001448D01*
X038248Y001290D02*
X039070Y001290D01*
X039070Y001131D02*
X038490Y001131D01*
X038733Y000973D02*
X039070Y000973D01*
X039070Y000814D02*
X038975Y000814D01*
X035892Y003826D02*
X034369Y003826D01*
X034127Y003984D02*
X035803Y003984D01*
X035803Y004143D02*
X033884Y004143D01*
X033642Y004301D02*
X035803Y004301D01*
X035803Y004460D02*
X033400Y004460D01*
X033157Y004618D02*
X035944Y004618D01*
X032774Y006996D02*
X030920Y006996D01*
X030920Y007154D02*
X032763Y007154D01*
X032763Y007313D02*
X030920Y007313D01*
X030920Y007471D02*
X032881Y007471D01*
X032940Y007630D02*
X030920Y007630D01*
X030920Y007788D02*
X032940Y007788D01*
X032940Y007947D02*
X030920Y007947D01*
X030920Y008105D02*
X032940Y008105D01*
X032940Y008264D02*
X030920Y008264D01*
X030920Y008422D02*
X032940Y008422D01*
X032940Y008581D02*
X030920Y008581D01*
X030920Y008739D02*
X032945Y008739D01*
X033078Y008898D02*
X030920Y008898D01*
X030920Y009056D02*
X035940Y009056D01*
X035940Y009215D02*
X030920Y009215D01*
X030920Y009373D02*
X035940Y009373D01*
X035940Y009532D02*
X033071Y009532D01*
X033120Y009690D02*
X035940Y009690D01*
X035940Y009849D02*
X035181Y009849D01*
X035346Y010007D02*
X035940Y010007D01*
X035940Y010166D02*
X035400Y010166D01*
X035400Y010324D02*
X035940Y010324D01*
X034779Y009849D02*
X033202Y009849D01*
X033288Y010007D02*
X034614Y010007D01*
X032880Y009680D02*
X032880Y010380D01*
X032460Y010324D02*
X030439Y010324D01*
X030420Y010166D02*
X032460Y010166D01*
X032472Y010007D02*
X030420Y010007D01*
X030180Y009680D02*
X030680Y009680D01*
X030680Y005680D01*
X027680Y005680D01*
X029763Y006837D02*
X030440Y006837D01*
X030440Y006679D02*
X030006Y006679D01*
X030248Y006520D02*
X030440Y006520D01*
X030440Y006996D02*
X029521Y006996D01*
X029279Y007154D02*
X030440Y007154D01*
X030440Y007313D02*
X029036Y007313D01*
X028794Y007471D02*
X030440Y007471D01*
X030440Y007630D02*
X028551Y007630D01*
X028309Y007788D02*
X030440Y007788D01*
X030440Y007947D02*
X028243Y007947D01*
X028409Y008105D02*
X030440Y008105D01*
X030440Y008264D02*
X028420Y008264D01*
X028420Y008422D02*
X030440Y008422D01*
X030440Y008581D02*
X028420Y008581D01*
X028420Y008739D02*
X030440Y008739D01*
X030440Y008898D02*
X028420Y008898D01*
X028420Y009056D02*
X030440Y009056D01*
X030440Y009215D02*
X028420Y009215D01*
X028420Y009373D02*
X030440Y009373D01*
X030680Y009680D02*
X032880Y009680D01*
X032460Y010483D02*
X030569Y010483D01*
X030615Y010641D02*
X032460Y010641D01*
X032491Y010800D02*
X030601Y010800D01*
X030517Y010958D02*
X032604Y010958D01*
X030180Y010680D02*
X030180Y009680D01*
X029940Y009690D02*
X028420Y009690D01*
X028420Y009532D02*
X029989Y009532D01*
X029940Y009849D02*
X028420Y009849D01*
X028420Y010007D02*
X029940Y010007D01*
X029940Y010166D02*
X028420Y010166D01*
X028420Y010324D02*
X029921Y010324D01*
X029791Y010483D02*
X028420Y010483D01*
X028420Y010641D02*
X029745Y010641D01*
X029759Y010800D02*
X028420Y010800D01*
X028420Y010958D02*
X029843Y010958D01*
X029811Y011434D02*
X028420Y011434D01*
X028420Y011592D02*
X029746Y011592D01*
X029745Y011751D02*
X028420Y011751D01*
X028420Y011909D02*
X029804Y011909D01*
X029940Y012068D02*
X028420Y012068D01*
X028420Y012226D02*
X029940Y012226D01*
X029860Y012385D02*
X028420Y012385D01*
X028420Y012543D02*
X029766Y012543D01*
X029745Y012702D02*
X028420Y012702D01*
X028339Y012860D02*
X029784Y012860D01*
X029903Y013019D02*
X027457Y013019D01*
X027180Y012680D02*
X028180Y012680D01*
X028180Y008180D01*
X023180Y008180D01*
X023180Y009680D01*
X021680Y009680D01*
X020680Y009680D01*
X020680Y012180D01*
X019680Y012180D01*
X024180Y013680D02*
X024180Y015680D01*
X026180Y015680D01*
X026180Y016180D01*
X027615Y013970D02*
X029854Y013970D01*
X029763Y013811D02*
X027615Y013811D01*
X027615Y013653D02*
X029745Y013653D01*
X029786Y013494D02*
X027615Y013494D01*
X027612Y013336D02*
X029909Y013336D01*
X030180Y012680D02*
X030180Y011680D01*
X030180Y012180D02*
X030180Y012680D01*
X030180Y012180D02*
X036180Y012180D01*
X036180Y008680D01*
X033180Y008680D01*
X033180Y007180D01*
X027940Y008422D02*
X027339Y008422D01*
X027097Y008581D02*
X027940Y008581D01*
X027940Y008739D02*
X026854Y008739D01*
X026612Y008898D02*
X027940Y008898D01*
X027940Y009056D02*
X026370Y009056D01*
X026180Y009215D02*
X027940Y009215D01*
X027940Y009373D02*
X026180Y009373D01*
X026180Y009532D02*
X027940Y009532D01*
X027940Y009690D02*
X026180Y009690D01*
X026180Y009849D02*
X027940Y009849D01*
X027940Y010007D02*
X026180Y010007D01*
X026180Y010166D02*
X027940Y010166D01*
X027940Y010324D02*
X027464Y010324D01*
X027476Y010333D02*
X027527Y010384D01*
X027569Y010442D01*
X027602Y010505D01*
X027624Y010573D01*
X027635Y010644D01*
X027635Y010672D01*
X027188Y010672D01*
X027188Y010688D01*
X027635Y010688D01*
X027635Y010716D01*
X027624Y010787D01*
X027602Y010855D01*
X027569Y010918D01*
X027527Y010976D01*
X027476Y011027D01*
X027418Y011069D01*
X027355Y011102D01*
X027287Y011124D01*
X027216Y011135D01*
X027188Y011135D01*
X027188Y010688D01*
X027172Y010688D01*
X027172Y011135D01*
X027144Y011135D01*
X027073Y011124D01*
X027005Y011102D01*
X026942Y011069D01*
X026884Y011027D01*
X026833Y010976D01*
X026791Y010918D01*
X026758Y010855D01*
X026736Y010787D01*
X026725Y010716D01*
X026725Y010688D01*
X027172Y010688D01*
X027172Y010672D01*
X027188Y010672D01*
X027188Y010225D01*
X027216Y010225D01*
X027287Y010236D01*
X027355Y010258D01*
X027418Y010291D01*
X027476Y010333D01*
X027590Y010483D02*
X027940Y010483D01*
X027940Y010641D02*
X027634Y010641D01*
X027620Y010800D02*
X027940Y010800D01*
X027940Y010958D02*
X027540Y010958D01*
X027309Y011117D02*
X027940Y011117D01*
X027940Y011275D02*
X027339Y011275D01*
X027188Y011117D02*
X027172Y011117D01*
X027051Y011117D02*
X026180Y011117D01*
X026180Y011275D02*
X027021Y011275D01*
X026811Y011434D02*
X026180Y011434D01*
X025680Y011680D02*
X025680Y013680D01*
X024180Y013680D01*
X026180Y012860D02*
X026784Y012860D01*
X026745Y012702D02*
X026180Y012702D01*
X026180Y012543D02*
X026766Y012543D01*
X026860Y012385D02*
X026180Y012385D01*
X026180Y012226D02*
X027940Y012226D01*
X027940Y012068D02*
X027381Y012068D01*
X027556Y011909D02*
X027940Y011909D01*
X027940Y011751D02*
X027615Y011751D01*
X027614Y011592D02*
X027940Y011592D01*
X027940Y011434D02*
X027549Y011434D01*
X027180Y011680D02*
X025680Y011680D01*
X026180Y012068D02*
X026979Y012068D01*
X027500Y012385D02*
X027940Y012385D01*
X027188Y010958D02*
X027172Y010958D01*
X027172Y010800D02*
X027188Y010800D01*
X027172Y010672D02*
X026725Y010672D01*
X026725Y010644D01*
X026736Y010573D01*
X026758Y010505D01*
X026791Y010442D01*
X026833Y010384D01*
X026884Y010333D01*
X026942Y010291D01*
X027005Y010258D01*
X027073Y010236D01*
X027144Y010225D01*
X027172Y010225D01*
X027172Y010672D01*
X027172Y010641D02*
X027188Y010641D01*
X027172Y010483D02*
X027188Y010483D01*
X027172Y010324D02*
X027188Y010324D01*
X026896Y010324D02*
X026180Y010324D01*
X026180Y010483D02*
X026770Y010483D01*
X026726Y010641D02*
X026180Y010641D01*
X026180Y010800D02*
X026740Y010800D01*
X026820Y010958D02*
X026180Y010958D01*
X023680Y005680D02*
X021680Y005680D01*
X021680Y003180D01*
X020680Y003180D01*
X019680Y003180D02*
X019680Y005680D01*
X018180Y005680D01*
M02*
