G75*
G70*
%OFA0B0*%
%FSLAX24Y24*%
%IPPOS*%
%LPD*%
%AMOC8*
5,1,8,0,0,1.08239X$1,22.5*
%
%ADD10OC8,0.0594*%
%ADD11OC8,0.0515*%
%ADD12OC8,0.0630*%
%ADD13C,0.0630*%
%ADD14C,0.1500*%
%ADD15C,0.0520*%
%ADD16OC8,0.1000*%
%ADD17R,0.0550X0.0550*%
%ADD18C,0.0550*%
%ADD19OC8,0.0520*%
%ADD20C,0.0520*%
%ADD21C,0.0560*%
%ADD22C,0.0400*%
%ADD23C,0.0240*%
%ADD24C,0.0120*%
%ADD25R,0.0436X0.0436*%
D10*
X021000Y007000D03*
X023000Y007000D03*
X023500Y013900D03*
X021500Y013900D03*
D11*
X020400Y015400D03*
X020400Y016700D03*
X019300Y018200D03*
X017900Y018100D03*
X017900Y014100D03*
X019300Y014200D03*
X020600Y010400D03*
X020600Y008800D03*
X019400Y008800D03*
X017600Y008800D03*
X017600Y004800D03*
X019400Y004800D03*
X024600Y008800D03*
X024600Y010400D03*
X026200Y012700D03*
X026200Y014000D03*
X024400Y015400D03*
X024400Y016700D03*
X030200Y014000D03*
X030200Y012700D03*
X030600Y006900D03*
X030600Y005200D03*
X026600Y005200D03*
X026600Y006900D03*
X037500Y008600D03*
X037300Y012500D03*
X037300Y016500D03*
X037500Y004600D03*
D12*
X036700Y010500D03*
X033500Y010500D03*
X033100Y018400D03*
X036300Y018400D03*
X018300Y019900D03*
X017600Y011000D03*
D13*
X018600Y011000D03*
X019300Y019900D03*
X032100Y018400D03*
X035300Y018400D03*
X035700Y010500D03*
X032500Y010500D03*
D14*
X014397Y008619D03*
X014397Y004681D03*
X006523Y002713D03*
X006523Y010587D03*
X006601Y015813D03*
X014475Y017781D03*
X014475Y021719D03*
X006601Y023687D03*
D15*
X025840Y016900D02*
X026360Y016900D01*
X026260Y015700D02*
X025740Y015700D01*
X029740Y015700D02*
X030260Y015700D01*
X030360Y016900D02*
X029840Y016900D01*
X030240Y010400D02*
X030760Y010400D01*
X030860Y008700D02*
X030340Y008700D01*
X026860Y008700D02*
X026340Y008700D01*
X026240Y010400D02*
X026760Y010400D01*
D16*
X002423Y006016D03*
X002423Y007984D03*
X002466Y018816D03*
X002466Y020784D03*
X002628Y026516D03*
X002628Y028484D03*
X006828Y031028D03*
X006828Y032997D03*
D17*
X022700Y028800D03*
X022700Y023600D03*
X032400Y016100D03*
X032600Y008100D03*
D18*
X032600Y007100D03*
X032600Y006100D03*
X032600Y005100D03*
X035600Y005100D03*
X035600Y006100D03*
X035600Y007100D03*
X035600Y008100D03*
X035400Y013100D03*
X035400Y014100D03*
X035400Y015100D03*
X035400Y016100D03*
X032400Y015100D03*
X032400Y014100D03*
X032400Y013100D03*
X025700Y020600D03*
X025700Y021600D03*
X025700Y022600D03*
X025700Y023600D03*
X025700Y025800D03*
X025700Y026800D03*
X025700Y027800D03*
X025700Y028800D03*
X022700Y027800D03*
X022700Y026800D03*
X022700Y025800D03*
X022700Y022600D03*
X022700Y021600D03*
X022700Y020600D03*
D19*
X027000Y022500D03*
X028000Y022500D03*
X029300Y022400D03*
X029300Y020700D03*
X027900Y020700D03*
X032300Y020700D03*
X032300Y022400D03*
X032300Y025900D03*
X032300Y027600D03*
X034100Y028150D03*
X034150Y027100D03*
X034600Y029900D03*
X034600Y030900D03*
X032700Y030900D03*
X032700Y029900D03*
X029300Y027600D03*
X028200Y027600D03*
X027200Y027600D03*
X029300Y025900D03*
X028100Y025800D03*
X036700Y030800D03*
X037100Y028150D03*
X037150Y027100D03*
X014550Y031200D03*
X013550Y031200D03*
X012750Y028800D03*
X011750Y028800D03*
X009700Y026900D03*
X008700Y026900D03*
X013450Y033550D03*
X014450Y033550D03*
D20*
X027300Y025800D03*
X027100Y020700D03*
X036700Y030000D03*
D21*
X038120Y026900D02*
X038680Y026900D01*
X038680Y025900D02*
X038120Y025900D01*
X038120Y024900D02*
X038680Y024900D01*
X038680Y023900D02*
X038120Y023900D01*
D22*
X038400Y024900D02*
X039350Y024900D01*
X039350Y029850D01*
X038800Y029850D01*
X038800Y029900D01*
X036700Y029900D01*
X036700Y030000D01*
X030600Y027600D02*
X030600Y024800D01*
X024400Y024800D01*
X024400Y027800D01*
X022700Y027800D01*
X024250Y028800D02*
X024250Y032500D01*
X013450Y032500D01*
X013450Y033550D01*
X024250Y028800D02*
X025700Y028800D01*
X027200Y027600D02*
X027200Y025800D01*
X027300Y025800D01*
X029300Y027600D02*
X030600Y027600D01*
X030600Y022400D02*
X029300Y022400D01*
X030600Y022400D02*
X030600Y019000D01*
X024200Y019000D01*
X024200Y022600D01*
X022700Y022600D01*
X027000Y022500D02*
X027000Y020600D01*
X027100Y020600D01*
X027100Y020700D01*
X031200Y017200D02*
X031200Y015600D01*
X030000Y015600D01*
X030000Y015700D01*
X031200Y017200D02*
X034000Y017200D01*
X034000Y016100D01*
X034600Y016100D01*
X034600Y009200D01*
X034000Y009200D01*
X030600Y009200D01*
X030600Y008700D01*
X032600Y008100D02*
X032600Y007800D01*
X024800Y007800D01*
X024800Y008800D01*
X024600Y008800D01*
X026600Y006900D02*
X028600Y006900D01*
X028600Y006000D01*
X032600Y006000D01*
X032600Y006100D01*
X034000Y008100D02*
X034000Y009200D01*
X034000Y008100D02*
X035600Y008100D01*
X031000Y013400D02*
X026200Y013400D01*
X026200Y014000D01*
X025200Y014800D02*
X025200Y015400D01*
X024400Y015400D01*
X025200Y014800D02*
X032400Y014800D01*
X032400Y015100D01*
X032400Y014100D02*
X031000Y014100D01*
X031000Y013400D01*
X034600Y016100D02*
X035400Y016100D01*
D23*
X037150Y025900D02*
X037150Y027100D01*
X037150Y025900D02*
X038400Y025900D01*
X038400Y026900D02*
X038350Y026900D01*
X038350Y028100D01*
X037100Y028100D01*
X037100Y028150D01*
D24*
X032450Y025900D02*
X032450Y023300D01*
X036500Y023300D01*
X036500Y023350D01*
X032450Y025900D02*
X032300Y025900D01*
D25*
X036500Y023350D03*
X036500Y023350D03*
M02*
