%
M48
M72
T01C0.0240
T02C0.0320
T03C0.0360
T04C0.0433
T05C0.0591
%
T01
X6640Y11640
X9180Y19380
X25660Y7900
X34620Y6420
T02
X27680Y8180
X25180Y9680
X25180Y10680
X23180Y11180
X22180Y11180
X19180Y11180
X17680Y13180
X17680Y14180
X19180Y14180
X22180Y14180
X24680Y14180
X24680Y17180
X23980Y18980
X22880Y18880
X21180Y19680
X19680Y19680
X17680Y20180
X16180Y18180
X17680Y17180
X16180Y15180
X16180Y13180
X13180Y13180
X12680Y11180
X12680Y9180
X12680Y7180
X12680Y5180
X12680Y3680
X11680Y2180
X10680Y2180
X9680Y3680
X9680Y5180
X9680Y7180
X9680Y9180
X7180Y7680
X7180Y6680
X9680Y11180
X8180Y15680
X7680Y17680
X5680Y16180
X5680Y19180
X5680Y20180
X8180Y21680
X8180Y22680
X5680Y23180
X7280Y26180
X8080Y26180
X9780Y26180
X10580Y26180
X12280Y26180
X13080Y26180
X15280Y26180
X16080Y26180
X18680Y26080
X18680Y25280
X21180Y25680
X21180Y24180
X21180Y22680
X19680Y22680
X18080Y22680
X17280Y22680
X13680Y22680
X12680Y22680
X10680Y17680
X12680Y17180
X12680Y16180
X11180Y15680
X22880Y22880
X23980Y22980
X24180Y24180
X24180Y25680
X31180Y18180
X31180Y15180
X29080Y13680
X28280Y13680
X27680Y11180
X23180Y8180
X5180Y26680
X4180Y26680
X2680Y26680
X1680Y26680
X7180Y28180
X8180Y28180
X9780Y28180
X10580Y28180
X10680Y29680
X9680Y29680
X8180Y29680
X7180Y29680
X12180Y29680
X13180Y29680
T03
X5180Y29180
X4180Y29180
X3180Y29180
X2180Y29180
T04
X28743Y29617
X36617Y29617
X34649Y21743
X30711Y21743
T05
X2556Y3157
X2556Y5125
X2556Y9157
X2556Y11125
X2804Y19235
X2804Y21203
X23304Y28235
X23304Y30203
X35556Y15625
X35556Y13657
X35804Y9703
X35804Y7735
M30
