%
M48
M72
T01C0.0315
T02C0.0320
T03C0.0360
T04C0.0362
T05C0.0394
T06C0.0400
T07C0.0709
T08C0.0906
T09C0.1181
%
T01
X10500Y6000
X10500Y9500
X9500Y11500
X8500Y9500
X9000Y17000
X11000Y17000
X17000Y20000
X17000Y23000
X21000Y19000
X20000Y18000
X24500Y21000
X27000Y20000
X27000Y23000
X28000Y26000
X24000Y27000
X21100Y27000
X12795Y28504
X11417Y27559
X11000Y23000
X9000Y23000
X3000Y23000
X2000Y23000
X2000Y17000
X3000Y17000
X26600Y1800
X34000Y10500
X33000Y14100
X32000Y14100
X31000Y14100
X30000Y14100
X29000Y14100
X32500Y17500
X36000Y26000
X35000Y28640
X39500Y27700
X39500Y26200
T02
X26500Y27400
X26500Y28400
X25750Y27900
X19339Y26894
X17339Y26894
X11087Y24913
X9087Y24913
X7000Y29000
X7750Y29500
X7000Y30000
X2500Y29000
X2500Y25000
X3500Y15000
X4500Y15000
X5500Y15000
X6500Y15000
X8539Y14476
X8500Y13000
X6500Y12000
X5500Y12000
X4500Y12000
X3500Y12000
X1790Y12340
X1790Y14340
X6300Y10300
X6300Y8300
X8050Y7400
X8800Y6900
X8800Y7900
X12000Y9500
X12000Y11500
X10500Y13000
X10539Y14476
X16400Y11500
X16400Y9500
X21000Y9500
X21000Y11500
X25800Y11300
X25800Y9300
X29550Y6750
X29550Y5750
X30950Y5750
X30950Y6750
X32450Y6750
X32450Y5750
X33950Y5750
X33950Y6750
X35300Y6750
X35300Y5750
X2940Y5000
X2190Y4500
X2190Y5500
T03
X4270Y5530
X5620Y6000
X7300Y6000
X7300Y1000
X5620Y1000
X12500Y1500
X17500Y1500
X18550Y9000
X22700Y9000
X22700Y14000
X23300Y18000
X25400Y18000
X29000Y19000
X29000Y21000
X25400Y23000
X23300Y23000
X21000Y23000
X20000Y23000
X16429Y30354
X15429Y30354
X14429Y30354
X13419Y30354
X12419Y30354
X11419Y30354
X11000Y32250
X16000Y32250
X29500Y32500
X32000Y32500
X33000Y32500
X34000Y32500
X35000Y32500
X35000Y30130
X34000Y30130
X33000Y30130
X32000Y30130
X29500Y27500
X32000Y27270
X33000Y27270
X34000Y27270
X35000Y27270
X38500Y29000
X39500Y29000
X40500Y29000
X41500Y29000
X41500Y25000
X40500Y25000
X39500Y25000
X38500Y25000
X38500Y21500
X39500Y21500
X40500Y21500
X41500Y21500
X41500Y18000
X40500Y18000
X39500Y18000
X38500Y18000
X38500Y14000
X39500Y14000
X40500Y14000
X41500Y14000
X40800Y11400
X38850Y11400
X38850Y6400
X40800Y6400
X41500Y4300
X36500Y4300
X35000Y3200
X35000Y1300
X30000Y1300
X30000Y3200
X27800Y9000
X27800Y14000
X34000Y19000
X34000Y21000
X18550Y14000
X13900Y14000
X13900Y9000
X4270Y10530
T04
X20091Y28291
X21081Y28291
X21860Y28291
X22846Y28291
T05
X23000Y25000
X22000Y25000
X21000Y25000
X20000Y25000
X19000Y25000
X18000Y25000
X17000Y25000
X16000Y25000
X15000Y25000
X15000Y16000
X16000Y16000
X17000Y16000
X18000Y16000
X19000Y16000
X20000Y16000
X21000Y16000
X22000Y16000
X23000Y16000
X24000Y16000
X25000Y16000
X26000Y16000
X27000Y16000
X28000Y16000
X29000Y16000
X30000Y16000
X31000Y16000
X32000Y16000
X33000Y16000
X34000Y16000
X34000Y25000
X33000Y25000
X32000Y25000
X31000Y25000
X30000Y25000
X29000Y25000
X28000Y25000
X27000Y25000
X26000Y25000
X25000Y25000
X24000Y25000
X23381Y7587
X23381Y5816
X25222Y5816
X25222Y7587
X27781Y7587
X27781Y5816
X27610Y3650
X26610Y3650
X25610Y3650
X24610Y3650
X23610Y3650
X22610Y3650
X21610Y3650
X20610Y3650
X19610Y3650
X18610Y3650
X17610Y3650
X16610Y3650
X15610Y3650
X14610Y3650
X13610Y3650
X12610Y3650
X12022Y5816
X12022Y7587
X14581Y7587
X14581Y5816
X16422Y5816
X16422Y7587
X18981Y7587
X18981Y5816
X20822Y5816
X20822Y7587
T06
X9000Y3500
X9000Y2500
X9000Y1500
X2270Y7500
X2270Y8500
X2270Y9500
X6780Y31705
X7780Y31705
X8780Y31705
X26500Y32000
X26500Y31000
X26500Y30000
T07
X8665Y27500
X6500Y27500
T08
X18862Y29276
X24059Y29276
T09
X2500Y1685
X2679Y32000
X40331Y1685
X40467Y32000
M30
