G75*
G70*
%OFA0B0*%
%FSLAX24Y24*%
%IPPOS*%
%LPD*%
%AMOC8*
5,1,8,0,0,1.08239X$1,22.5*
%
%ADD10C,0.0000*%
%ADD11C,0.0051*%
%ADD12C,0.0110*%
%ADD13OC8,0.0674*%
%ADD14OC8,0.0640*%
%ADD15OC8,0.0630*%
%ADD16R,0.0642X0.0642*%
%ADD17C,0.0600*%
%ADD18OC8,0.0600*%
%ADD19R,0.0674X0.0674*%
%ADD20R,0.0595X0.0595*%
%ADD21R,0.1063X0.1063*%
%ADD22C,0.0674*%
%ADD23C,0.0680*%
%ADD24C,0.0640*%
%ADD25R,0.0715X0.0715*%
%ADD26C,0.0160*%
%ADD27C,0.0240*%
%ADD28C,0.0400*%
%ADD29C,0.0100*%
D10*
X001000Y000000D02*
X001000Y033370D01*
X042492Y033370D01*
X042492Y000000D01*
X001000Y000000D01*
X001909Y001685D02*
X001911Y001733D01*
X001917Y001781D01*
X001927Y001828D01*
X001940Y001874D01*
X001958Y001919D01*
X001978Y001963D01*
X002003Y002005D01*
X002031Y002044D01*
X002061Y002081D01*
X002095Y002115D01*
X002132Y002147D01*
X002170Y002176D01*
X002211Y002201D01*
X002254Y002223D01*
X002299Y002241D01*
X002345Y002255D01*
X002392Y002266D01*
X002440Y002273D01*
X002488Y002276D01*
X002536Y002275D01*
X002584Y002270D01*
X002632Y002261D01*
X002678Y002249D01*
X002723Y002232D01*
X002767Y002212D01*
X002809Y002189D01*
X002849Y002162D01*
X002887Y002132D01*
X002922Y002099D01*
X002954Y002063D01*
X002984Y002025D01*
X003010Y001984D01*
X003032Y001941D01*
X003052Y001897D01*
X003067Y001852D01*
X003079Y001805D01*
X003087Y001757D01*
X003091Y001709D01*
X003091Y001661D01*
X003087Y001613D01*
X003079Y001565D01*
X003067Y001518D01*
X003052Y001473D01*
X003032Y001429D01*
X003010Y001386D01*
X002984Y001345D01*
X002954Y001307D01*
X002922Y001271D01*
X002887Y001238D01*
X002849Y001208D01*
X002809Y001181D01*
X002767Y001158D01*
X002723Y001138D01*
X002678Y001121D01*
X002632Y001109D01*
X002584Y001100D01*
X002536Y001095D01*
X002488Y001094D01*
X002440Y001097D01*
X002392Y001104D01*
X002345Y001115D01*
X002299Y001129D01*
X002254Y001147D01*
X002211Y001169D01*
X002170Y001194D01*
X002132Y001223D01*
X002095Y001255D01*
X002061Y001289D01*
X002031Y001326D01*
X002003Y001365D01*
X001978Y001407D01*
X001958Y001451D01*
X001940Y001496D01*
X001927Y001542D01*
X001917Y001589D01*
X001911Y001637D01*
X001909Y001685D01*
X018409Y029276D02*
X018411Y029318D01*
X018417Y029360D01*
X018427Y029402D01*
X018440Y029442D01*
X018458Y029481D01*
X018479Y029518D01*
X018503Y029552D01*
X018531Y029585D01*
X018561Y029615D01*
X018594Y029641D01*
X018629Y029665D01*
X018667Y029685D01*
X018706Y029701D01*
X018746Y029714D01*
X018788Y029723D01*
X018830Y029728D01*
X018873Y029729D01*
X018915Y029726D01*
X018957Y029719D01*
X018998Y029708D01*
X019038Y029693D01*
X019076Y029675D01*
X019113Y029653D01*
X019147Y029628D01*
X019179Y029600D01*
X019207Y029569D01*
X019233Y029535D01*
X019256Y029499D01*
X019275Y029462D01*
X019291Y029422D01*
X019303Y029381D01*
X019311Y029340D01*
X019315Y029297D01*
X019315Y029255D01*
X019311Y029212D01*
X019303Y029171D01*
X019291Y029130D01*
X019275Y029090D01*
X019256Y029053D01*
X019233Y029017D01*
X019207Y028983D01*
X019179Y028952D01*
X019147Y028924D01*
X019113Y028899D01*
X019076Y028877D01*
X019038Y028859D01*
X018998Y028844D01*
X018957Y028833D01*
X018915Y028826D01*
X018873Y028823D01*
X018830Y028824D01*
X018788Y028829D01*
X018746Y028838D01*
X018706Y028851D01*
X018667Y028867D01*
X018629Y028887D01*
X018594Y028911D01*
X018561Y028937D01*
X018531Y028967D01*
X018503Y029000D01*
X018479Y029034D01*
X018458Y029071D01*
X018440Y029110D01*
X018427Y029150D01*
X018417Y029192D01*
X018411Y029234D01*
X018409Y029276D01*
X023606Y029276D02*
X023608Y029318D01*
X023614Y029360D01*
X023624Y029402D01*
X023637Y029442D01*
X023655Y029481D01*
X023676Y029518D01*
X023700Y029552D01*
X023728Y029585D01*
X023758Y029615D01*
X023791Y029641D01*
X023826Y029665D01*
X023864Y029685D01*
X023903Y029701D01*
X023943Y029714D01*
X023985Y029723D01*
X024027Y029728D01*
X024070Y029729D01*
X024112Y029726D01*
X024154Y029719D01*
X024195Y029708D01*
X024235Y029693D01*
X024273Y029675D01*
X024310Y029653D01*
X024344Y029628D01*
X024376Y029600D01*
X024404Y029569D01*
X024430Y029535D01*
X024453Y029499D01*
X024472Y029462D01*
X024488Y029422D01*
X024500Y029381D01*
X024508Y029340D01*
X024512Y029297D01*
X024512Y029255D01*
X024508Y029212D01*
X024500Y029171D01*
X024488Y029130D01*
X024472Y029090D01*
X024453Y029053D01*
X024430Y029017D01*
X024404Y028983D01*
X024376Y028952D01*
X024344Y028924D01*
X024310Y028899D01*
X024273Y028877D01*
X024235Y028859D01*
X024195Y028844D01*
X024154Y028833D01*
X024112Y028826D01*
X024070Y028823D01*
X024027Y028824D01*
X023985Y028829D01*
X023943Y028838D01*
X023903Y028851D01*
X023864Y028867D01*
X023826Y028887D01*
X023791Y028911D01*
X023758Y028937D01*
X023728Y028967D01*
X023700Y029000D01*
X023676Y029034D01*
X023655Y029071D01*
X023637Y029110D01*
X023624Y029150D01*
X023614Y029192D01*
X023608Y029234D01*
X023606Y029276D01*
X039876Y032000D02*
X039878Y032048D01*
X039884Y032096D01*
X039894Y032143D01*
X039907Y032189D01*
X039925Y032234D01*
X039945Y032278D01*
X039970Y032320D01*
X039998Y032359D01*
X040028Y032396D01*
X040062Y032430D01*
X040099Y032462D01*
X040137Y032491D01*
X040178Y032516D01*
X040221Y032538D01*
X040266Y032556D01*
X040312Y032570D01*
X040359Y032581D01*
X040407Y032588D01*
X040455Y032591D01*
X040503Y032590D01*
X040551Y032585D01*
X040599Y032576D01*
X040645Y032564D01*
X040690Y032547D01*
X040734Y032527D01*
X040776Y032504D01*
X040816Y032477D01*
X040854Y032447D01*
X040889Y032414D01*
X040921Y032378D01*
X040951Y032340D01*
X040977Y032299D01*
X040999Y032256D01*
X041019Y032212D01*
X041034Y032167D01*
X041046Y032120D01*
X041054Y032072D01*
X041058Y032024D01*
X041058Y031976D01*
X041054Y031928D01*
X041046Y031880D01*
X041034Y031833D01*
X041019Y031788D01*
X040999Y031744D01*
X040977Y031701D01*
X040951Y031660D01*
X040921Y031622D01*
X040889Y031586D01*
X040854Y031553D01*
X040816Y031523D01*
X040776Y031496D01*
X040734Y031473D01*
X040690Y031453D01*
X040645Y031436D01*
X040599Y031424D01*
X040551Y031415D01*
X040503Y031410D01*
X040455Y031409D01*
X040407Y031412D01*
X040359Y031419D01*
X040312Y031430D01*
X040266Y031444D01*
X040221Y031462D01*
X040178Y031484D01*
X040137Y031509D01*
X040099Y031538D01*
X040062Y031570D01*
X040028Y031604D01*
X039998Y031641D01*
X039970Y031680D01*
X039945Y031722D01*
X039925Y031766D01*
X039907Y031811D01*
X039894Y031857D01*
X039884Y031904D01*
X039878Y031952D01*
X039876Y032000D01*
X039740Y001685D02*
X039742Y001733D01*
X039748Y001781D01*
X039758Y001828D01*
X039771Y001874D01*
X039789Y001919D01*
X039809Y001963D01*
X039834Y002005D01*
X039862Y002044D01*
X039892Y002081D01*
X039926Y002115D01*
X039963Y002147D01*
X040001Y002176D01*
X040042Y002201D01*
X040085Y002223D01*
X040130Y002241D01*
X040176Y002255D01*
X040223Y002266D01*
X040271Y002273D01*
X040319Y002276D01*
X040367Y002275D01*
X040415Y002270D01*
X040463Y002261D01*
X040509Y002249D01*
X040554Y002232D01*
X040598Y002212D01*
X040640Y002189D01*
X040680Y002162D01*
X040718Y002132D01*
X040753Y002099D01*
X040785Y002063D01*
X040815Y002025D01*
X040841Y001984D01*
X040863Y001941D01*
X040883Y001897D01*
X040898Y001852D01*
X040910Y001805D01*
X040918Y001757D01*
X040922Y001709D01*
X040922Y001661D01*
X040918Y001613D01*
X040910Y001565D01*
X040898Y001518D01*
X040883Y001473D01*
X040863Y001429D01*
X040841Y001386D01*
X040815Y001345D01*
X040785Y001307D01*
X040753Y001271D01*
X040718Y001238D01*
X040680Y001208D01*
X040640Y001181D01*
X040598Y001158D01*
X040554Y001138D01*
X040509Y001121D01*
X040463Y001109D01*
X040415Y001100D01*
X040367Y001095D01*
X040319Y001094D01*
X040271Y001097D01*
X040223Y001104D01*
X040176Y001115D01*
X040130Y001129D01*
X040085Y001147D01*
X040042Y001169D01*
X040001Y001194D01*
X039963Y001223D01*
X039926Y001255D01*
X039892Y001289D01*
X039862Y001326D01*
X039834Y001365D01*
X039809Y001407D01*
X039789Y001451D01*
X039771Y001496D01*
X039758Y001542D01*
X039748Y001589D01*
X039742Y001637D01*
X039740Y001685D01*
X002088Y032000D02*
X002090Y032048D01*
X002096Y032096D01*
X002106Y032143D01*
X002119Y032189D01*
X002137Y032234D01*
X002157Y032278D01*
X002182Y032320D01*
X002210Y032359D01*
X002240Y032396D01*
X002274Y032430D01*
X002311Y032462D01*
X002349Y032491D01*
X002390Y032516D01*
X002433Y032538D01*
X002478Y032556D01*
X002524Y032570D01*
X002571Y032581D01*
X002619Y032588D01*
X002667Y032591D01*
X002715Y032590D01*
X002763Y032585D01*
X002811Y032576D01*
X002857Y032564D01*
X002902Y032547D01*
X002946Y032527D01*
X002988Y032504D01*
X003028Y032477D01*
X003066Y032447D01*
X003101Y032414D01*
X003133Y032378D01*
X003163Y032340D01*
X003189Y032299D01*
X003211Y032256D01*
X003231Y032212D01*
X003246Y032167D01*
X003258Y032120D01*
X003266Y032072D01*
X003270Y032024D01*
X003270Y031976D01*
X003266Y031928D01*
X003258Y031880D01*
X003246Y031833D01*
X003231Y031788D01*
X003211Y031744D01*
X003189Y031701D01*
X003163Y031660D01*
X003133Y031622D01*
X003101Y031586D01*
X003066Y031553D01*
X003028Y031523D01*
X002988Y031496D01*
X002946Y031473D01*
X002902Y031453D01*
X002857Y031436D01*
X002811Y031424D01*
X002763Y031415D01*
X002715Y031410D01*
X002667Y031409D01*
X002619Y031412D01*
X002571Y031419D01*
X002524Y031430D01*
X002478Y031444D01*
X002433Y031462D01*
X002390Y031484D01*
X002349Y031509D01*
X002311Y031538D01*
X002274Y031570D01*
X002240Y031604D01*
X002210Y031641D01*
X002182Y031680D01*
X002157Y031722D01*
X002137Y031766D01*
X002119Y031811D01*
X002106Y031857D01*
X002096Y031904D01*
X002090Y031952D01*
X002088Y032000D01*
D11*
X002677Y032008D02*
X-004961Y032008D01*
X-004173Y032008D02*
X-004071Y030984D01*
X-004048Y030984D02*
X-004173Y032008D01*
X-004276Y030984D01*
X-004299Y030984D02*
X-004048Y030984D01*
X-004122Y030984D02*
X-004173Y032008D01*
X-004224Y030984D01*
X-004299Y030984D02*
X-004173Y032008D01*
X-004173Y001693D01*
X-004071Y002717D01*
X-004048Y002717D02*
X-004173Y001693D01*
X-004276Y002717D01*
X-004299Y002717D02*
X-004048Y002717D01*
X-004122Y002717D02*
X-004173Y001693D01*
X-004224Y002717D01*
X-004299Y002717D02*
X-004173Y001693D01*
X-004961Y001693D02*
X002520Y001693D01*
X002520Y001496D02*
X002520Y-013740D01*
X002520Y-012953D02*
X003543Y-013055D01*
X003543Y-013078D02*
X002520Y-012953D01*
X003543Y-012850D01*
X003543Y-012827D02*
X003543Y-013078D01*
X003543Y-013004D02*
X002520Y-012953D01*
X003543Y-012902D01*
X003543Y-012827D02*
X002520Y-012953D01*
X040315Y-012953D01*
X039291Y-013055D01*
X039291Y-013078D02*
X040315Y-012953D01*
X039291Y-012850D01*
X039291Y-012827D02*
X039291Y-013078D01*
X039291Y-013004D02*
X040315Y-012953D01*
X039291Y-012902D01*
X039291Y-012827D02*
X040315Y-012953D01*
X040315Y-013740D02*
X040315Y001496D01*
X042500Y000000D02*
X047287Y000000D01*
X046500Y000000D02*
X046602Y001024D01*
X046626Y001024D02*
X046500Y000000D01*
X046398Y001024D01*
X046374Y001024D02*
X046626Y001024D01*
X046551Y001024D02*
X046500Y000000D01*
X046449Y001024D01*
X046374Y001024D02*
X046500Y000000D01*
X046500Y033300D01*
X046602Y032276D01*
X046626Y032276D02*
X046500Y033300D01*
X046398Y032276D01*
X046374Y032276D02*
X046626Y032276D01*
X046551Y032276D02*
X046500Y033300D01*
X046449Y032276D01*
X046374Y032276D02*
X046500Y033300D01*
X047287Y033300D02*
X042500Y033300D01*
X042492Y033370D02*
X042492Y038787D01*
X042492Y038000D02*
X041469Y037898D01*
X041469Y037874D02*
X042492Y038000D01*
X041469Y038102D01*
X041469Y038126D02*
X041469Y037874D01*
X041469Y037949D02*
X042492Y038000D01*
X041469Y038051D01*
X041469Y038126D02*
X042492Y038000D01*
X001000Y038000D01*
X002024Y037898D01*
X002024Y037874D02*
X001000Y038000D01*
X002024Y038102D01*
X002024Y038126D02*
X002024Y037874D01*
X002024Y037949D02*
X001000Y038000D01*
X002024Y038051D01*
X002024Y038126D02*
X001000Y038000D01*
X001000Y038787D02*
X001000Y033370D01*
D12*
X-005679Y017924D02*
X-004833Y017078D01*
X-004622Y017078D01*
X-005679Y016655D02*
X-004833Y015809D01*
X-004622Y015809D01*
X-005891Y015809D02*
X-005891Y016655D01*
X-005679Y016655D01*
X-005891Y017078D02*
X-005891Y017924D01*
X-005679Y017924D01*
X018786Y038449D02*
X019632Y038449D01*
X019209Y038449D02*
X019209Y039718D01*
X018786Y039295D01*
X020055Y039506D02*
X020055Y038660D01*
X020901Y039506D01*
X020901Y038660D01*
X020689Y038449D01*
X020266Y038449D01*
X020055Y038660D01*
X020055Y039506D02*
X020266Y039718D01*
X020689Y039718D01*
X020901Y039506D01*
X021324Y039718D02*
X021324Y039083D01*
X021747Y039295D01*
X021958Y039295D01*
X022170Y039083D01*
X022170Y038660D01*
X021958Y038449D01*
X021535Y038449D01*
X021324Y038660D01*
X021324Y039718D02*
X022170Y039718D01*
X023227Y039506D02*
X023438Y039718D01*
X023861Y039718D01*
X024073Y039506D01*
X024073Y039295D01*
X023861Y039083D01*
X024073Y038872D01*
X024073Y038660D01*
X023861Y038449D01*
X023438Y038449D01*
X023227Y038660D01*
X022804Y038660D02*
X022804Y038449D01*
X022592Y038449D01*
X022592Y038660D01*
X022804Y038660D01*
X023650Y039083D02*
X023861Y039083D01*
X024496Y039295D02*
X024707Y039083D01*
X025342Y039083D01*
X025342Y038660D02*
X025130Y038449D01*
X024707Y038449D01*
X024496Y038660D01*
X024496Y039295D02*
X024496Y039506D01*
X024707Y039718D01*
X025130Y039718D01*
X025342Y039506D01*
X025342Y038660D01*
X044782Y019313D02*
X044782Y018890D01*
X044994Y018679D01*
X045205Y018679D01*
X045417Y018890D01*
X045417Y019313D01*
X045628Y019525D01*
X045840Y019525D01*
X046051Y019313D01*
X046051Y018890D01*
X045840Y018679D01*
X045628Y018679D01*
X045417Y018890D01*
X045417Y019313D02*
X045205Y019525D01*
X044994Y019525D01*
X044782Y019313D01*
X044782Y018256D02*
X044782Y017410D01*
X045417Y017410D01*
X045205Y017833D01*
X045205Y018045D01*
X045417Y018256D01*
X045840Y018256D01*
X046051Y018045D01*
X046051Y017622D01*
X045840Y017410D01*
X045840Y016987D02*
X046051Y016987D01*
X046051Y016776D01*
X045840Y016776D01*
X045840Y016987D01*
X045417Y016353D02*
X045417Y015507D01*
X044782Y016141D01*
X046051Y016141D01*
X045840Y015084D02*
X045628Y015084D01*
X045417Y014873D01*
X045417Y014450D01*
X045205Y014238D01*
X044994Y014238D01*
X044782Y014450D01*
X044782Y014873D01*
X044994Y015084D01*
X045205Y015084D01*
X045417Y014873D01*
X045417Y014450D02*
X045628Y014238D01*
X045840Y014238D01*
X046051Y014450D01*
X046051Y014873D01*
X045840Y015084D01*
X022491Y-011235D02*
X022068Y-011447D01*
X021645Y-011870D01*
X022279Y-011870D01*
X022491Y-012081D01*
X022491Y-012293D01*
X022279Y-012504D01*
X021856Y-012504D01*
X021645Y-012293D01*
X021645Y-011870D01*
X021222Y-011870D02*
X020587Y-011870D01*
X020376Y-011658D01*
X020376Y-011447D01*
X020587Y-011235D01*
X021010Y-011235D01*
X021222Y-011447D01*
X021222Y-012293D01*
X021010Y-012504D01*
X020587Y-012504D01*
X020376Y-012293D01*
D13*
X020000Y016000D03*
X019000Y016000D03*
X018000Y016000D03*
X017000Y016000D03*
X016000Y016000D03*
X015000Y016000D03*
X021000Y016000D03*
X022000Y016000D03*
X023000Y016000D03*
X024000Y016000D03*
X025000Y016000D03*
X026000Y016000D03*
X027000Y016000D03*
X028000Y016000D03*
X029000Y016000D03*
X030000Y016000D03*
X031000Y016000D03*
X032000Y016000D03*
X033000Y016000D03*
X034000Y016000D03*
X034000Y025000D03*
X033000Y025000D03*
X032000Y025000D03*
X031000Y025000D03*
X030000Y025000D03*
X029000Y025000D03*
X028000Y025000D03*
X027000Y025000D03*
X026000Y025000D03*
X025000Y025000D03*
X024000Y025000D03*
X023000Y025000D03*
X022000Y025000D03*
X021000Y025000D03*
X020000Y025000D03*
X019000Y025000D03*
X018000Y025000D03*
X017000Y025000D03*
X016000Y025000D03*
X015000Y025000D03*
D14*
X016000Y032250D03*
X011000Y032250D03*
X023300Y023000D03*
X025400Y023000D03*
X029000Y021000D03*
X029000Y019000D03*
X025400Y018000D03*
X023300Y018000D03*
X022700Y014000D03*
X018550Y014000D03*
X013900Y014000D03*
X013900Y009000D03*
X018550Y009000D03*
X022700Y009000D03*
X027800Y009000D03*
X027800Y014000D03*
X034000Y019000D03*
X034000Y021000D03*
X029500Y027500D03*
X029500Y032500D03*
X038850Y011400D03*
X040800Y011400D03*
X040800Y006400D03*
X038850Y006400D03*
X036500Y004300D03*
X035000Y003200D03*
X035000Y001300D03*
X030000Y001300D03*
X030000Y003200D03*
X041500Y004300D03*
X017500Y001500D03*
X012500Y001500D03*
X007300Y001000D03*
X005620Y001000D03*
X004270Y005530D03*
X005620Y006000D03*
X007300Y006000D03*
X004270Y010530D03*
D15*
X006300Y010300D03*
X006300Y008300D03*
X001790Y012340D03*
X001790Y014340D03*
X008539Y014476D03*
X008500Y013000D03*
X010500Y013000D03*
X010539Y014476D03*
X012000Y011500D03*
X012000Y009500D03*
X016400Y009500D03*
X016400Y011500D03*
X021000Y011500D03*
X021000Y009500D03*
X025800Y009300D03*
X025800Y011300D03*
X011087Y024913D03*
X009087Y024913D03*
X017339Y026894D03*
X019339Y026894D03*
D16*
X020091Y028291D03*
X021081Y028291D03*
X021860Y028291D03*
X022846Y028291D03*
D17*
X006500Y015180D02*
X006500Y014820D01*
X005500Y014820D02*
X005500Y015180D01*
X004500Y015180D02*
X004500Y014820D01*
X003500Y014820D02*
X003500Y015180D01*
X003500Y012180D02*
X003500Y011820D01*
X004500Y011820D02*
X004500Y012180D01*
X005500Y012180D02*
X005500Y011820D01*
X006500Y011820D02*
X006500Y012180D01*
X002500Y024820D02*
X002500Y025180D01*
X002500Y028820D02*
X002500Y029180D01*
X029370Y006750D02*
X029730Y006750D01*
X029730Y005750D02*
X029370Y005750D01*
X030770Y005750D02*
X031130Y005750D01*
X031130Y006750D02*
X030770Y006750D01*
X032270Y006750D02*
X032630Y006750D01*
X032630Y005750D02*
X032270Y005750D01*
X033770Y005750D02*
X034130Y005750D01*
X035120Y005750D02*
X035480Y005750D01*
X035480Y006750D02*
X035120Y006750D01*
X034130Y006750D02*
X033770Y006750D01*
D18*
X026500Y027400D03*
X026500Y028400D03*
X025750Y027900D03*
X007750Y029500D03*
X007000Y029000D03*
X007000Y030000D03*
X008800Y007900D03*
X008050Y007400D03*
X008800Y006900D03*
X002940Y005000D03*
X002190Y004500D03*
X002190Y005500D03*
D19*
X012022Y005816D03*
X012022Y007587D03*
X014581Y007587D03*
X014581Y005816D03*
X016422Y005816D03*
X016422Y007587D03*
X018981Y007587D03*
X018981Y005816D03*
X020822Y005816D03*
X020822Y007587D03*
X023381Y007587D03*
X023381Y005816D03*
X025222Y005816D03*
X025222Y007587D03*
X027781Y007587D03*
X027781Y005816D03*
D20*
X011000Y017000D03*
X009000Y017000D03*
X009500Y011500D03*
X008500Y009500D03*
X010500Y009500D03*
X003000Y017000D03*
X002000Y017000D03*
X002000Y023000D03*
X003000Y023000D03*
X009000Y023000D03*
X011000Y023000D03*
D21*
X008665Y027500D03*
X006500Y027500D03*
D22*
X012610Y003650D03*
X013610Y003650D03*
X014610Y003650D03*
X015610Y003650D03*
X016610Y003650D03*
X017610Y003650D03*
X018610Y003650D03*
X019610Y003650D03*
X020610Y003650D03*
X021610Y003650D03*
X022610Y003650D03*
X023610Y003650D03*
X024610Y003650D03*
X025610Y003650D03*
X026610Y003650D03*
X027610Y003650D03*
D23*
X009204Y003500D02*
X008796Y003500D01*
X008796Y002500D02*
X009204Y002500D01*
X009204Y001500D02*
X008796Y001500D01*
X002474Y007500D02*
X002066Y007500D01*
X002066Y008500D02*
X002474Y008500D01*
X002474Y009500D02*
X002066Y009500D01*
X006780Y031501D02*
X006780Y031909D01*
X007780Y031909D02*
X007780Y031501D01*
X008780Y031501D02*
X008780Y031909D01*
X026296Y032000D02*
X026704Y032000D01*
X026704Y031000D02*
X026296Y031000D01*
X026296Y030000D02*
X026704Y030000D01*
D24*
X032000Y029938D02*
X032000Y030322D01*
X033000Y030322D02*
X033000Y029938D01*
X034000Y029938D02*
X034000Y030322D01*
X035000Y030322D02*
X035000Y029938D01*
X035000Y027462D02*
X035000Y027078D01*
X034000Y027078D02*
X034000Y027462D01*
X033000Y027462D02*
X033000Y027078D01*
X032000Y027078D02*
X032000Y027462D01*
X032000Y032308D02*
X032000Y032692D01*
X033000Y032692D02*
X033000Y032308D01*
X034000Y032308D02*
X034000Y032692D01*
X035000Y032692D02*
X035000Y032308D01*
X038500Y029192D02*
X038500Y028808D01*
X039500Y028808D02*
X039500Y029192D01*
X040500Y029192D02*
X040500Y028808D01*
X041500Y028808D02*
X041500Y029192D01*
X041500Y025192D02*
X041500Y024808D01*
X040500Y024808D02*
X040500Y025192D01*
X039500Y025192D02*
X039500Y024808D01*
X038500Y024808D02*
X038500Y025192D01*
X038500Y021692D02*
X038500Y021308D01*
X039500Y021308D02*
X039500Y021692D01*
X040500Y021692D02*
X040500Y021308D01*
X041500Y021308D02*
X041500Y021692D01*
X041500Y018192D02*
X041500Y017808D01*
X040500Y017808D02*
X040500Y018192D01*
X039500Y018192D02*
X039500Y017808D01*
X038500Y017808D02*
X038500Y018192D01*
X038500Y014192D02*
X038500Y013808D01*
X039500Y013808D02*
X039500Y014192D01*
X040500Y014192D02*
X040500Y013808D01*
X041500Y013808D02*
X041500Y014192D01*
X021000Y022808D02*
X021000Y023192D01*
X020000Y023192D02*
X020000Y022808D01*
X016429Y030162D02*
X016429Y030546D01*
X015429Y030546D02*
X015429Y030162D01*
X014429Y030162D02*
X014429Y030546D01*
X013419Y030546D02*
X013419Y030162D01*
X012419Y030162D02*
X012419Y030546D01*
X011419Y030546D02*
X011419Y030162D01*
D25*
X012795Y028504D03*
X011417Y027559D03*
X017000Y023000D03*
X017000Y020000D03*
X020000Y018000D03*
X021000Y019000D03*
X024500Y021000D03*
X027000Y020000D03*
X027000Y023000D03*
X028000Y026000D03*
X024000Y027000D03*
X021100Y027000D03*
X032500Y017500D03*
X032000Y014100D03*
X031000Y014100D03*
X030000Y014100D03*
X029000Y014100D03*
X033000Y014100D03*
X034000Y010500D03*
X026600Y001800D03*
X010500Y006000D03*
X035000Y028640D03*
X036000Y026000D03*
X039500Y026200D03*
X039500Y027700D03*
D26*
X039500Y026200D01*
X040097Y026153D02*
X042252Y026153D01*
X042252Y026311D02*
X040097Y026311D01*
X040097Y026470D02*
X042252Y026470D01*
X042252Y026628D02*
X040088Y026628D01*
X040097Y026605D02*
X040061Y026693D01*
X039993Y026761D01*
X039905Y026797D01*
X039820Y026797D01*
X039820Y027103D01*
X039905Y027103D01*
X039993Y027139D01*
X040061Y027207D01*
X040097Y027295D01*
X040097Y028105D01*
X040061Y028193D01*
X039993Y028261D01*
X039905Y028297D01*
X039731Y028297D01*
X039817Y028333D01*
X039975Y028491D01*
X040000Y028552D01*
X040025Y028491D01*
X040183Y028333D01*
X040389Y028248D01*
X040611Y028248D01*
X040817Y028333D01*
X040975Y028491D01*
X041000Y028552D01*
X041025Y028491D01*
X041183Y028333D01*
X041389Y028248D01*
X041611Y028248D01*
X041817Y028333D01*
X041975Y028491D01*
X042060Y028697D01*
X042060Y029303D01*
X041975Y029509D01*
X041817Y029667D01*
X041611Y029752D01*
X041389Y029752D01*
X041183Y029667D01*
X041025Y029509D01*
X041000Y029448D01*
X040975Y029509D01*
X040817Y029667D01*
X040611Y029752D01*
X040389Y029752D01*
X040183Y029667D01*
X040025Y029509D01*
X040000Y029448D01*
X039975Y029509D01*
X039817Y029667D01*
X039611Y029752D01*
X039389Y029752D01*
X039183Y029667D01*
X039025Y029509D01*
X038994Y029434D01*
X038970Y029480D01*
X038920Y029550D01*
X038858Y029612D01*
X038788Y029662D01*
X038711Y029702D01*
X038629Y029728D01*
X038543Y029742D01*
X038510Y029742D01*
X038510Y029010D01*
X038490Y029010D01*
X038490Y029742D01*
X038457Y029742D01*
X038371Y029728D01*
X038289Y029702D01*
X038212Y029662D01*
X038142Y029612D01*
X038080Y029550D01*
X038030Y029480D01*
X037990Y029403D01*
X037964Y029321D01*
X037950Y029235D01*
X037950Y029010D01*
X038490Y029010D01*
X038490Y028990D01*
X038510Y028990D01*
X038510Y028258D01*
X038543Y028258D01*
X038629Y028272D01*
X038711Y028298D01*
X038788Y028338D01*
X038858Y028388D01*
X038920Y028450D01*
X038970Y028520D01*
X038994Y028566D01*
X039025Y028491D01*
X039183Y028333D01*
X039269Y028297D01*
X039095Y028297D01*
X039007Y028261D01*
X038939Y028193D01*
X038903Y028105D01*
X038903Y027295D01*
X038939Y027207D01*
X039007Y027139D01*
X039095Y027103D01*
X039180Y027103D01*
X039180Y026797D01*
X039095Y026797D01*
X039007Y026761D01*
X038939Y026693D01*
X038903Y026605D01*
X038903Y025795D01*
X038939Y025707D01*
X039007Y025639D01*
X039095Y025603D01*
X039119Y025603D01*
X039025Y025509D01*
X038994Y025434D01*
X038970Y025480D01*
X038920Y025550D01*
X038858Y025612D01*
X038788Y025662D01*
X038711Y025702D01*
X038629Y025728D01*
X038543Y025742D01*
X038510Y025742D01*
X038510Y025010D01*
X038490Y025010D01*
X038490Y025742D01*
X038457Y025742D01*
X038371Y025728D01*
X038289Y025702D01*
X038212Y025662D01*
X038142Y025612D01*
X038080Y025550D01*
X038030Y025480D01*
X037990Y025403D01*
X037964Y025321D01*
X037950Y025235D01*
X037950Y025010D01*
X038490Y025010D01*
X038490Y024990D01*
X038510Y024990D01*
X038510Y024258D01*
X038543Y024258D01*
X038629Y024272D01*
X038711Y024298D01*
X038788Y024338D01*
X038858Y024388D01*
X038920Y024450D01*
X038970Y024520D01*
X038994Y024566D01*
X039025Y024491D01*
X039183Y024333D01*
X039389Y024248D01*
X039611Y024248D01*
X039817Y024333D01*
X039975Y024491D01*
X040000Y024552D01*
X040025Y024491D01*
X040183Y024333D01*
X040389Y024248D01*
X040611Y024248D01*
X040817Y024333D01*
X040975Y024491D01*
X041000Y024552D01*
X041025Y024491D01*
X041183Y024333D01*
X041389Y024248D01*
X041611Y024248D01*
X041817Y024333D01*
X041975Y024491D01*
X042060Y024697D01*
X042060Y025303D01*
X041975Y025509D01*
X041817Y025667D01*
X041611Y025752D01*
X041389Y025752D01*
X041183Y025667D01*
X041025Y025509D01*
X041000Y025448D01*
X040975Y025509D01*
X040817Y025667D01*
X040611Y025752D01*
X040389Y025752D01*
X040183Y025667D01*
X040025Y025509D01*
X040000Y025448D01*
X039975Y025509D01*
X039881Y025603D01*
X039905Y025603D01*
X039993Y025639D01*
X040061Y025707D01*
X040097Y025795D01*
X040097Y026605D01*
X039932Y026787D02*
X042252Y026787D01*
X042252Y026945D02*
X039820Y026945D01*
X039908Y027104D02*
X042252Y027104D01*
X042252Y027262D02*
X040084Y027262D01*
X040097Y027421D02*
X042252Y027421D01*
X042252Y027579D02*
X040097Y027579D01*
X040097Y027738D02*
X042252Y027738D01*
X042252Y027896D02*
X040097Y027896D01*
X040097Y028055D02*
X042252Y028055D01*
X042252Y028213D02*
X040041Y028213D01*
X040144Y028372D02*
X039856Y028372D01*
X039991Y028530D02*
X040009Y028530D01*
X040856Y028372D02*
X041144Y028372D01*
X041009Y028530D02*
X040991Y028530D01*
X041856Y028372D02*
X042252Y028372D01*
X042252Y028530D02*
X041991Y028530D01*
X042057Y028689D02*
X042252Y028689D01*
X042252Y028847D02*
X042060Y028847D01*
X042060Y029006D02*
X042252Y029006D01*
X042252Y029164D02*
X042060Y029164D01*
X042052Y029323D02*
X042252Y029323D01*
X042252Y029481D02*
X041986Y029481D01*
X041844Y029640D02*
X042252Y029640D01*
X042252Y029798D02*
X035548Y029798D01*
X035560Y029827D02*
X035475Y029621D01*
X035317Y029463D01*
X035111Y029378D01*
X034889Y029378D01*
X034683Y029463D01*
X034525Y029621D01*
X034500Y029682D01*
X034475Y029621D01*
X034317Y029463D01*
X034111Y029378D01*
X033889Y029378D01*
X033683Y029463D01*
X033525Y029621D01*
X033500Y029682D01*
X033475Y029621D01*
X033317Y029463D01*
X033111Y029378D01*
X032889Y029378D01*
X032683Y029463D01*
X032525Y029621D01*
X032494Y029696D01*
X032470Y029650D01*
X032420Y029580D01*
X032358Y029518D01*
X032288Y029468D01*
X032211Y029428D01*
X032129Y029402D01*
X032043Y029388D01*
X032010Y029388D01*
X032010Y030120D01*
X031990Y030120D01*
X031990Y029388D01*
X031957Y029388D01*
X031871Y029402D01*
X031789Y029428D01*
X031712Y029468D01*
X031642Y029518D01*
X031580Y029580D01*
X031530Y029650D01*
X031490Y029727D01*
X031464Y029809D01*
X031450Y029895D01*
X031450Y030120D01*
X031990Y030120D01*
X031990Y030140D01*
X031990Y030872D01*
X031957Y030872D01*
X031871Y030858D01*
X031789Y030832D01*
X031712Y030792D01*
X031642Y030742D01*
X031580Y030680D01*
X031530Y030610D01*
X031490Y030533D01*
X031464Y030451D01*
X031450Y030365D01*
X031450Y030140D01*
X031990Y030140D01*
X032010Y030140D01*
X032010Y030872D01*
X032043Y030872D01*
X032129Y030858D01*
X032211Y030832D01*
X032288Y030792D01*
X032358Y030742D01*
X032420Y030680D01*
X032470Y030610D01*
X032494Y030564D01*
X032525Y030639D01*
X032683Y030797D01*
X032889Y030882D01*
X033111Y030882D01*
X033317Y030797D01*
X033475Y030639D01*
X033500Y030578D01*
X033525Y030639D01*
X033683Y030797D01*
X033889Y030882D01*
X034111Y030882D01*
X034317Y030797D01*
X034475Y030639D01*
X034500Y030578D01*
X034525Y030639D01*
X034683Y030797D01*
X034889Y030882D01*
X035111Y030882D01*
X035317Y030797D01*
X035475Y030639D01*
X035560Y030433D01*
X035560Y029827D01*
X035560Y029957D02*
X042252Y029957D01*
X042252Y030115D02*
X035560Y030115D01*
X035560Y030274D02*
X039882Y030274D01*
X039703Y030326D02*
X040205Y030179D01*
X040729Y030179D01*
X041231Y030326D01*
X041672Y030609D01*
X041672Y030609D01*
X041672Y030609D01*
X042015Y031005D01*
X042015Y031005D01*
X042232Y031482D01*
X042252Y031619D01*
X042252Y000240D01*
X041451Y000240D01*
X041536Y000294D01*
X041879Y000690D01*
X041879Y000690D01*
X042096Y001167D01*
X042171Y001685D01*
X042096Y002203D01*
X041879Y002680D01*
X041536Y003076D01*
X041536Y003076D01*
X041095Y003359D01*
X040593Y003506D01*
X040069Y003506D01*
X039566Y003359D01*
X039126Y003076D01*
X039126Y003076D01*
X039126Y003076D01*
X038783Y002680D01*
X038783Y002680D01*
X038565Y002203D01*
X038491Y001685D01*
X038565Y001167D01*
X038565Y001167D01*
X038783Y000690D01*
X039126Y000294D01*
X039211Y000240D01*
X031776Y000240D01*
X031820Y000346D01*
X031820Y001680D01*
X034588Y001680D01*
X034440Y001532D01*
X034440Y001068D01*
X034768Y000740D01*
X035232Y000740D01*
X035560Y001068D01*
X035560Y001532D01*
X035412Y001680D01*
X037564Y001680D01*
X037681Y001729D01*
X037771Y001819D01*
X037820Y001936D01*
X037820Y017564D01*
X037771Y017681D01*
X037681Y017771D01*
X037564Y017820D01*
X033097Y017820D01*
X033097Y017905D01*
X033061Y017993D01*
X032993Y018061D01*
X032905Y018097D01*
X032095Y018097D01*
X032007Y018061D01*
X031939Y017993D01*
X031903Y017905D01*
X031903Y017095D01*
X031939Y017007D01*
X032007Y016939D01*
X032095Y016903D01*
X032905Y016903D01*
X032993Y016939D01*
X033061Y017007D01*
X033097Y017095D01*
X033097Y017180D01*
X037180Y017180D01*
X037180Y002320D01*
X031436Y002320D01*
X031319Y002271D01*
X031229Y002181D01*
X031180Y002064D01*
X031180Y000730D01*
X028683Y000730D01*
X028771Y000819D01*
X028820Y000936D01*
X028820Y008180D01*
X034064Y008180D01*
X034181Y008229D01*
X034271Y008319D01*
X034320Y008436D01*
X034320Y009903D01*
X034405Y009903D01*
X034493Y009939D01*
X034561Y010007D01*
X034597Y010095D01*
X034597Y010905D01*
X034561Y010993D01*
X034493Y011061D01*
X034405Y011097D01*
X033595Y011097D01*
X033507Y011061D01*
X033439Y010993D01*
X033403Y010905D01*
X033403Y010095D01*
X033439Y010007D01*
X033507Y009939D01*
X033595Y009903D01*
X033680Y009903D01*
X033680Y008820D01*
X028436Y008820D01*
X028360Y008788D01*
X028360Y009232D01*
X028032Y009560D01*
X027568Y009560D01*
X027240Y009232D01*
X027240Y008768D01*
X027568Y008440D01*
X028032Y008440D01*
X028197Y008605D01*
X028180Y008564D01*
X028180Y008158D01*
X028166Y008164D01*
X027397Y008164D01*
X027308Y008128D01*
X027241Y008060D01*
X027204Y007972D01*
X027204Y007203D01*
X027241Y007115D01*
X027308Y007047D01*
X027397Y007011D01*
X028166Y007011D01*
X028180Y007016D01*
X028180Y006375D01*
X028141Y006383D01*
X027800Y006383D01*
X027800Y005834D01*
X027763Y005834D01*
X027763Y006383D01*
X027422Y006383D01*
X027377Y006374D01*
X027335Y006356D01*
X027298Y006331D01*
X027266Y006299D01*
X027240Y006262D01*
X027223Y006220D01*
X027214Y006175D01*
X027214Y005834D01*
X027763Y005834D01*
X027763Y005797D01*
X027800Y005797D01*
X027800Y005249D01*
X028141Y005249D01*
X028180Y005257D01*
X028180Y003781D01*
X028099Y003976D01*
X027937Y004139D01*
X027725Y004226D01*
X027495Y004226D01*
X027283Y004139D01*
X027121Y003976D01*
X027110Y003950D01*
X027099Y003976D01*
X026937Y004139D01*
X026837Y004180D01*
X026864Y004180D01*
X026981Y004229D01*
X027071Y004319D01*
X027120Y004436D01*
X027120Y009780D01*
X033064Y009780D01*
X033181Y009829D01*
X033271Y009919D01*
X033320Y010036D01*
X033320Y013503D01*
X033405Y013503D01*
X033493Y013539D01*
X033561Y013607D01*
X033597Y013695D01*
X033597Y014505D01*
X033561Y014593D01*
X033493Y014661D01*
X033405Y014697D01*
X032595Y014697D01*
X032507Y014661D01*
X032500Y014654D01*
X032493Y014661D01*
X032405Y014697D01*
X031595Y014697D01*
X031507Y014661D01*
X031500Y014654D01*
X031493Y014661D01*
X031405Y014697D01*
X030595Y014697D01*
X030507Y014661D01*
X030500Y014654D01*
X030493Y014661D01*
X030405Y014697D01*
X029595Y014697D01*
X029507Y014661D01*
X029500Y014654D01*
X029493Y014661D01*
X029405Y014697D01*
X028595Y014697D01*
X028507Y014661D01*
X028439Y014593D01*
X028403Y014505D01*
X028403Y013695D01*
X028439Y013607D01*
X028507Y013539D01*
X028553Y013520D01*
X028112Y013520D01*
X028360Y013768D01*
X028360Y014232D01*
X028032Y014560D01*
X027568Y014560D01*
X027240Y014232D01*
X027240Y013768D01*
X027488Y013520D01*
X023012Y013520D01*
X023260Y013768D01*
X023260Y014232D01*
X022932Y014560D01*
X022468Y014560D01*
X022140Y014232D01*
X022140Y013768D01*
X022388Y013520D01*
X018862Y013520D01*
X019110Y013768D01*
X019110Y014232D01*
X018782Y014560D01*
X018318Y014560D01*
X017990Y014232D01*
X017990Y013768D01*
X018238Y013520D01*
X015636Y013520D01*
X015519Y013471D01*
X015429Y013381D01*
X015380Y013264D01*
X015380Y004179D01*
X015283Y004139D01*
X015121Y003976D01*
X015110Y003950D01*
X015099Y003976D01*
X014937Y004139D01*
X014725Y004226D01*
X014495Y004226D01*
X014283Y004139D01*
X014121Y003976D01*
X014110Y003950D01*
X014099Y003976D01*
X013937Y004139D01*
X013860Y004171D01*
X013860Y007572D01*
X013805Y007704D01*
X013704Y007805D01*
X013572Y007860D01*
X013360Y007860D01*
X013360Y008748D01*
X013668Y008440D01*
X014132Y008440D01*
X014460Y008768D01*
X014460Y009232D01*
X014132Y009560D01*
X013668Y009560D01*
X013360Y009252D01*
X013360Y013072D01*
X013305Y013204D01*
X013204Y013305D01*
X013072Y013360D01*
X010925Y013360D01*
X010730Y013555D01*
X010270Y013555D01*
X009945Y013230D01*
X009945Y012770D01*
X010140Y012575D01*
X010140Y010860D01*
X007428Y010860D01*
X007296Y010805D01*
X007195Y010704D01*
X007140Y010572D01*
X007140Y009860D01*
X006645Y009860D01*
X006855Y010070D01*
X006855Y010530D01*
X006530Y010855D01*
X006070Y010855D01*
X005745Y010530D01*
X005745Y010070D01*
X005955Y009860D01*
X004158Y009860D01*
X004026Y009805D01*
X003925Y009704D01*
X003870Y009572D01*
X003870Y008860D01*
X002934Y008860D01*
X002803Y008992D01*
X002764Y009008D01*
X002773Y009012D01*
X002845Y009065D01*
X002909Y009129D01*
X002962Y009201D01*
X003002Y009281D01*
X003030Y009367D01*
X003044Y009455D01*
X003044Y009480D01*
X002290Y009480D01*
X002290Y009520D01*
X002250Y009520D01*
X002250Y010070D01*
X002021Y010070D01*
X001933Y010056D01*
X001847Y010028D01*
X001767Y009988D01*
X001695Y009935D01*
X001631Y009871D01*
X001578Y009799D01*
X001538Y009719D01*
X001510Y009633D01*
X001496Y009545D01*
X001496Y009520D01*
X002250Y009520D01*
X002250Y009480D01*
X001496Y009480D01*
X001496Y009455D01*
X001510Y009367D01*
X001538Y009281D01*
X001578Y009201D01*
X001631Y009129D01*
X001695Y009065D01*
X001767Y009012D01*
X001776Y009008D01*
X001737Y008992D01*
X001574Y008829D01*
X001486Y008615D01*
X001486Y008385D01*
X001574Y008171D01*
X001737Y008008D01*
X001757Y008000D01*
X001737Y007992D01*
X001574Y007829D01*
X001486Y007615D01*
X001486Y007385D01*
X001574Y007171D01*
X001737Y007008D01*
X001951Y006920D01*
X002589Y006920D01*
X002803Y007008D01*
X002966Y007171D01*
X003054Y007385D01*
X003054Y007615D01*
X002966Y007829D01*
X002803Y007992D01*
X002783Y008000D01*
X002803Y008008D01*
X002934Y008140D01*
X004302Y008140D01*
X004434Y008195D01*
X004535Y008296D01*
X004590Y008428D01*
X004590Y009140D01*
X007572Y009140D01*
X007704Y009195D01*
X007805Y009296D01*
X007860Y009428D01*
X007860Y010140D01*
X010572Y010140D01*
X010704Y010195D01*
X010805Y010296D01*
X010860Y010428D01*
X010860Y012575D01*
X010925Y012640D01*
X012640Y012640D01*
X012640Y007428D01*
X012695Y007296D01*
X012796Y007195D01*
X012928Y007140D01*
X013140Y007140D01*
X013140Y003995D01*
X013121Y003976D01*
X013110Y003950D01*
X013099Y003976D01*
X012937Y004139D01*
X012725Y004226D01*
X012495Y004226D01*
X012283Y004139D01*
X012121Y003976D01*
X012033Y003764D01*
X012033Y003535D01*
X012121Y003323D01*
X012283Y003161D01*
X012495Y003073D01*
X012725Y003073D01*
X012937Y003161D01*
X013099Y003323D01*
X013110Y003349D01*
X013121Y003323D01*
X013283Y003161D01*
X013495Y003073D01*
X013725Y003073D01*
X013937Y003161D01*
X014099Y003323D01*
X014110Y003349D01*
X014121Y003323D01*
X014250Y003194D01*
X014250Y002860D01*
X011360Y002860D01*
X011360Y006072D01*
X011305Y006204D01*
X011204Y006305D01*
X011097Y006349D01*
X011097Y006405D01*
X011061Y006493D01*
X010993Y006561D01*
X010905Y006597D01*
X010095Y006597D01*
X010007Y006561D01*
X009939Y006493D01*
X009903Y006405D01*
X009903Y005595D01*
X009939Y005507D01*
X010007Y005439D01*
X010095Y005403D01*
X010640Y005403D01*
X010640Y002428D01*
X010695Y002296D01*
X010796Y002195D01*
X010928Y002140D01*
X014682Y002140D01*
X014814Y002195D01*
X014915Y002296D01*
X014970Y002428D01*
X014970Y003194D01*
X015099Y003323D01*
X015110Y003349D01*
X015121Y003323D01*
X015283Y003161D01*
X015495Y003073D01*
X015725Y003073D01*
X015937Y003161D01*
X016099Y003323D01*
X016110Y003349D01*
X016121Y003323D01*
X016283Y003161D01*
X016495Y003073D01*
X016725Y003073D01*
X016937Y003161D01*
X017099Y003323D01*
X017110Y003349D01*
X017121Y003323D01*
X017283Y003161D01*
X017495Y003073D01*
X017725Y003073D01*
X017937Y003161D01*
X018099Y003323D01*
X018110Y003349D01*
X018121Y003323D01*
X018283Y003161D01*
X018495Y003073D01*
X018725Y003073D01*
X018937Y003161D01*
X019099Y003323D01*
X019110Y003349D01*
X019121Y003323D01*
X019283Y003161D01*
X019495Y003073D01*
X019725Y003073D01*
X019937Y003161D01*
X020099Y003323D01*
X020110Y003349D01*
X020121Y003323D01*
X020283Y003161D01*
X020495Y003073D01*
X020725Y003073D01*
X020937Y003161D01*
X021099Y003323D01*
X021110Y003349D01*
X021121Y003323D01*
X021283Y003161D01*
X021495Y003073D01*
X021725Y003073D01*
X021937Y003161D01*
X022099Y003323D01*
X022110Y003349D01*
X022121Y003323D01*
X022283Y003161D01*
X022495Y003073D01*
X022725Y003073D01*
X022937Y003161D01*
X023099Y003323D01*
X023110Y003349D01*
X023121Y003323D01*
X023283Y003161D01*
X023495Y003073D01*
X023725Y003073D01*
X023937Y003161D01*
X024099Y003323D01*
X024110Y003349D01*
X024121Y003323D01*
X024283Y003161D01*
X024495Y003073D01*
X024725Y003073D01*
X024937Y003161D01*
X025099Y003323D01*
X025110Y003349D01*
X025121Y003323D01*
X025280Y003164D01*
X025280Y000936D01*
X025329Y000819D01*
X025417Y000730D01*
X007808Y000730D01*
X007850Y000772D01*
X007850Y000990D01*
X007310Y000990D01*
X007310Y001010D01*
X007290Y001010D01*
X007290Y001550D01*
X007072Y001550D01*
X006820Y001298D01*
X006820Y004064D01*
X006771Y004181D01*
X006681Y004271D01*
X006564Y004320D01*
X003320Y004320D01*
X003320Y004616D01*
X003480Y004776D01*
X003480Y005224D01*
X003164Y005540D01*
X002730Y005540D01*
X002730Y005724D01*
X002414Y006040D01*
X001966Y006040D01*
X001650Y005724D01*
X001650Y005276D01*
X001926Y005000D01*
X001650Y004724D01*
X001650Y004276D01*
X001966Y003960D01*
X002414Y003960D01*
X002680Y004226D01*
X002680Y003936D01*
X002729Y003819D01*
X002819Y003729D01*
X002936Y003680D01*
X006180Y003680D01*
X006180Y000346D01*
X006224Y000240D01*
X003620Y000240D01*
X003705Y000294D01*
X003705Y000294D01*
X004048Y000690D01*
X004265Y001167D01*
X004265Y001167D01*
X004340Y001685D01*
X004265Y002203D01*
X004048Y002680D01*
X003705Y003076D01*
X003264Y003359D01*
X002762Y003506D01*
X002238Y003506D01*
X001736Y003359D01*
X001295Y003076D01*
X001295Y003076D01*
X001295Y003076D01*
X001240Y003012D01*
X001240Y012105D01*
X001560Y011785D01*
X002020Y011785D01*
X002345Y012110D01*
X002345Y012570D01*
X002020Y012895D01*
X001560Y012895D01*
X001240Y012575D01*
X001240Y014105D01*
X001560Y013785D01*
X002020Y013785D01*
X002345Y014110D01*
X002345Y014570D01*
X002020Y014895D01*
X001560Y014895D01*
X001240Y014575D01*
X001240Y030879D01*
X001474Y030609D01*
X001914Y030326D01*
X001914Y030326D01*
X002417Y030179D01*
X002941Y030179D01*
X003443Y030326D01*
X003443Y030326D01*
X003884Y030609D01*
X003884Y030609D01*
X003884Y030609D01*
X004227Y031005D01*
X004444Y031482D01*
X004519Y032000D01*
X004444Y032518D01*
X004444Y032518D01*
X004227Y032995D01*
X004109Y033130D01*
X031667Y033130D01*
X031642Y033112D01*
X031580Y033050D01*
X031530Y032980D01*
X031490Y032903D01*
X031464Y032821D01*
X031450Y032735D01*
X031450Y032510D01*
X031990Y032510D01*
X031990Y033130D01*
X032010Y033130D01*
X032010Y032510D01*
X031990Y032510D01*
X031990Y032490D01*
X032010Y032490D01*
X032010Y031758D01*
X032043Y031758D01*
X032129Y031772D01*
X032211Y031798D01*
X032288Y031838D01*
X032358Y031888D01*
X032420Y031950D01*
X032470Y032020D01*
X032494Y032066D01*
X032525Y031991D01*
X032683Y031833D01*
X032889Y031748D01*
X033111Y031748D01*
X033317Y031833D01*
X033475Y031991D01*
X033500Y032052D01*
X033525Y031991D01*
X033683Y031833D01*
X033889Y031748D01*
X034111Y031748D01*
X034317Y031833D01*
X034475Y031991D01*
X034500Y032052D01*
X034525Y031991D01*
X034683Y031833D01*
X034889Y031748D01*
X035111Y031748D01*
X035317Y031833D01*
X035475Y031991D01*
X035560Y032197D01*
X035560Y032803D01*
X035475Y033009D01*
X035354Y033130D01*
X039036Y033130D01*
X038919Y032995D01*
X038919Y032995D01*
X038701Y032518D01*
X038627Y032000D01*
X038701Y031482D01*
X038701Y031482D01*
X038919Y031005D01*
X039262Y030609D01*
X039703Y030326D01*
X039703Y030326D01*
X039538Y030432D02*
X035560Y030432D01*
X035495Y030591D02*
X039291Y030591D01*
X039262Y030609D02*
X039262Y030609D01*
X039141Y030749D02*
X035365Y030749D01*
X034635Y030749D02*
X034365Y030749D01*
X034495Y030591D02*
X034505Y030591D01*
X033635Y030749D02*
X033365Y030749D01*
X033495Y030591D02*
X033505Y030591D01*
X032635Y030749D02*
X032348Y030749D01*
X032480Y030591D02*
X032505Y030591D01*
X032010Y030591D02*
X031990Y030591D01*
X031990Y030749D02*
X032010Y030749D01*
X031990Y030432D02*
X032010Y030432D01*
X032010Y030274D02*
X031990Y030274D01*
X031990Y030115D02*
X032010Y030115D01*
X032010Y029957D02*
X031990Y029957D01*
X031990Y029798D02*
X032010Y029798D01*
X032010Y029640D02*
X031990Y029640D01*
X031990Y029481D02*
X032010Y029481D01*
X032307Y029481D02*
X032665Y029481D01*
X032517Y029640D02*
X032463Y029640D01*
X033335Y029481D02*
X033665Y029481D01*
X033517Y029640D02*
X033483Y029640D01*
X034335Y029481D02*
X034665Y029481D01*
X034517Y029640D02*
X034483Y029640D01*
X034595Y029237D02*
X034507Y029201D01*
X034439Y029133D01*
X034403Y029045D01*
X034403Y028960D01*
X030553Y028960D01*
X030552Y028960D01*
X030489Y028960D01*
X030426Y028960D01*
X030426Y028960D01*
X030425Y028960D01*
X030367Y028935D01*
X030309Y028911D01*
X030308Y028911D01*
X030307Y028910D01*
X030263Y028866D01*
X030219Y028821D01*
X030218Y028821D01*
X030218Y028820D01*
X030194Y028762D01*
X030170Y028704D01*
X030170Y028703D01*
X030170Y028702D01*
X030170Y028639D01*
X030170Y028576D01*
X030170Y028576D01*
X030179Y026820D01*
X027936Y026820D01*
X027819Y026771D01*
X027729Y026681D01*
X027694Y026597D01*
X027595Y026597D01*
X027507Y026561D01*
X027439Y026493D01*
X027403Y026405D01*
X027403Y025595D01*
X027439Y025507D01*
X027507Y025439D01*
X027589Y025405D01*
X027500Y025316D01*
X027239Y025577D01*
X026761Y025577D01*
X026500Y025316D01*
X026239Y025577D01*
X025761Y025577D01*
X025500Y025316D01*
X025239Y025577D01*
X024761Y025577D01*
X024500Y025316D01*
X024239Y025577D01*
X023761Y025577D01*
X023500Y025316D01*
X023239Y025577D01*
X022761Y025577D01*
X022500Y025316D01*
X022239Y025577D01*
X021761Y025577D01*
X021500Y025316D01*
X021239Y025577D01*
X020761Y025577D01*
X020500Y025316D01*
X020239Y025577D01*
X019761Y025577D01*
X019500Y025316D01*
X019239Y025577D01*
X018761Y025577D01*
X018500Y025316D01*
X018239Y025577D01*
X017761Y025577D01*
X017500Y025316D01*
X017239Y025577D01*
X016761Y025577D01*
X016500Y025316D01*
X016239Y025577D01*
X015761Y025577D01*
X015500Y025316D01*
X015239Y025577D01*
X014761Y025577D01*
X014423Y025239D01*
X014423Y024761D01*
X014761Y024423D01*
X015239Y024423D01*
X015500Y024684D01*
X015761Y024423D01*
X016239Y024423D01*
X016500Y024684D01*
X016761Y024423D01*
X017239Y024423D01*
X017500Y024684D01*
X017761Y024423D01*
X018239Y024423D01*
X018500Y024684D01*
X018761Y024423D01*
X019239Y024423D01*
X019500Y024684D01*
X019761Y024423D01*
X020239Y024423D01*
X020500Y024684D01*
X020761Y024423D01*
X021239Y024423D01*
X021500Y024684D01*
X021761Y024423D01*
X022239Y024423D01*
X022500Y024684D01*
X022761Y024423D01*
X023239Y024423D01*
X023500Y024684D01*
X023761Y024423D01*
X024239Y024423D01*
X024500Y024684D01*
X024761Y024423D01*
X025239Y024423D01*
X025500Y024684D01*
X025761Y024423D01*
X026239Y024423D01*
X026500Y024684D01*
X026761Y024423D01*
X027239Y024423D01*
X027500Y024684D01*
X027761Y024423D01*
X028239Y024423D01*
X028500Y024684D01*
X028761Y024423D01*
X029239Y024423D01*
X029500Y024684D01*
X029761Y024423D01*
X030239Y024423D01*
X030500Y024684D01*
X030761Y024423D01*
X031239Y024423D01*
X031500Y024684D01*
X031761Y024423D01*
X032239Y024423D01*
X032500Y024684D01*
X032761Y024423D01*
X033239Y024423D01*
X033500Y024684D01*
X033761Y024423D01*
X034239Y024423D01*
X034577Y024761D01*
X034577Y025239D01*
X034239Y025577D01*
X033761Y025577D01*
X033500Y025316D01*
X033239Y025577D01*
X032761Y025577D01*
X032500Y025316D01*
X032239Y025577D01*
X031761Y025577D01*
X031500Y025316D01*
X031239Y025577D01*
X030761Y025577D01*
X030500Y025316D01*
X030239Y025577D01*
X029761Y025577D01*
X029500Y025316D01*
X029239Y025577D01*
X028761Y025577D01*
X028500Y025316D01*
X028411Y025405D01*
X028493Y025439D01*
X028561Y025507D01*
X028597Y025595D01*
X028597Y026180D01*
X030437Y026180D01*
X030438Y026180D01*
X030501Y026180D01*
X030564Y026180D01*
X030564Y026180D01*
X030565Y026180D01*
X030623Y026205D01*
X030681Y026229D01*
X030682Y026229D01*
X030683Y026230D01*
X030727Y026274D01*
X030771Y026319D01*
X030772Y026319D01*
X030772Y026320D01*
X030796Y026378D01*
X030820Y026436D01*
X030820Y026437D01*
X030820Y026438D01*
X030820Y026501D01*
X030820Y026564D01*
X030820Y026564D01*
X030811Y028320D01*
X034403Y028320D01*
X034403Y028235D01*
X034439Y028147D01*
X034507Y028079D01*
X034595Y028043D01*
X035405Y028043D01*
X035493Y028079D01*
X035561Y028147D01*
X035597Y028235D01*
X035597Y029045D01*
X035561Y029133D01*
X035493Y029201D01*
X035405Y029237D01*
X034595Y029237D01*
X034470Y029164D02*
X028560Y029164D01*
X028560Y029006D02*
X034403Y029006D01*
X035000Y028640D02*
X030490Y028640D01*
X030500Y026500D01*
X028000Y026500D01*
X028000Y026000D01*
X027403Y025994D02*
X014280Y025994D01*
X014280Y025836D02*
X027403Y025836D01*
X027403Y025677D02*
X014280Y025677D01*
X014280Y025519D02*
X014703Y025519D01*
X014544Y025360D02*
X014280Y025360D01*
X014280Y025202D02*
X014423Y025202D01*
X014423Y025043D02*
X014280Y025043D01*
X014280Y024885D02*
X014423Y024885D01*
X014458Y024726D02*
X014280Y024726D01*
X014280Y024568D02*
X014617Y024568D01*
X014280Y024409D02*
X035680Y024409D01*
X035680Y024251D02*
X014280Y024251D01*
X014280Y024092D02*
X035680Y024092D01*
X035680Y023934D02*
X014280Y023934D01*
X014280Y023775D02*
X035680Y023775D01*
X035680Y023617D02*
X021351Y023617D01*
X021358Y023612D02*
X021288Y023662D01*
X021211Y023702D01*
X021129Y023728D01*
X021043Y023742D01*
X021010Y023742D01*
X021010Y023010D01*
X020990Y023010D01*
X020990Y023742D01*
X020957Y023742D01*
X020871Y023728D01*
X020789Y023702D01*
X020712Y023662D01*
X020642Y023612D01*
X020580Y023550D01*
X020530Y023480D01*
X020506Y023434D01*
X020475Y023509D01*
X020317Y023667D01*
X020111Y023752D01*
X019889Y023752D01*
X019683Y023667D01*
X019525Y023509D01*
X019447Y023320D01*
X017597Y023320D01*
X017597Y023405D01*
X017561Y023493D01*
X017493Y023561D01*
X017405Y023597D01*
X016595Y023597D01*
X016507Y023561D01*
X016439Y023493D01*
X016403Y023405D01*
X016403Y022595D01*
X016439Y022507D01*
X014280Y022507D01*
X014280Y022349D02*
X019668Y022349D01*
X019683Y022333D02*
X019889Y022248D01*
X020111Y022248D01*
X020317Y022333D01*
X020475Y022491D01*
X020506Y022566D01*
X020530Y022520D01*
X020580Y022450D01*
X020642Y022388D01*
X020712Y022338D01*
X020789Y022298D01*
X020871Y022272D01*
X020957Y022258D01*
X020990Y022258D01*
X020990Y022990D01*
X021010Y022990D01*
X021010Y023010D01*
X021550Y023010D01*
X021550Y023235D01*
X021536Y023321D01*
X021510Y023403D01*
X021470Y023480D01*
X021420Y023550D01*
X021358Y023612D01*
X021482Y023458D02*
X022966Y023458D01*
X023068Y023560D02*
X022740Y023232D01*
X022740Y022768D01*
X023068Y022440D01*
X023532Y022440D01*
X023860Y022768D01*
X023860Y023232D01*
X023532Y023560D01*
X023068Y023560D01*
X022808Y023300D02*
X021540Y023300D01*
X021550Y023141D02*
X022740Y023141D01*
X022740Y022983D02*
X021550Y022983D01*
X021550Y022990D02*
X021550Y022765D01*
X021536Y022679D01*
X021510Y022597D01*
X021470Y022520D01*
X021420Y022450D01*
X021358Y022388D01*
X021288Y022338D01*
X021211Y022298D01*
X021129Y022272D01*
X021043Y022258D01*
X021010Y022258D01*
X021010Y022990D01*
X021550Y022990D01*
X021550Y022824D02*
X022740Y022824D01*
X022843Y022666D02*
X021532Y022666D01*
X021461Y022507D02*
X023001Y022507D01*
X023599Y022507D02*
X025101Y022507D01*
X025168Y022440D02*
X024840Y022768D01*
X024840Y023232D01*
X025168Y023560D01*
X025632Y023560D01*
X025960Y023232D01*
X025960Y022768D01*
X025632Y022440D01*
X025168Y022440D01*
X024943Y022666D02*
X023757Y022666D01*
X023860Y022824D02*
X024840Y022824D01*
X024840Y022983D02*
X023860Y022983D01*
X023860Y023141D02*
X024840Y023141D01*
X024908Y023300D02*
X023792Y023300D01*
X023634Y023458D02*
X025066Y023458D01*
X025734Y023458D02*
X026424Y023458D01*
X026439Y023493D02*
X026403Y023405D01*
X026403Y022595D01*
X026439Y022507D01*
X025699Y022507D01*
X025857Y022666D02*
X026403Y022666D01*
X026403Y022824D02*
X025960Y022824D01*
X025960Y022983D02*
X026403Y022983D01*
X026403Y023141D02*
X025960Y023141D01*
X025892Y023300D02*
X026403Y023300D01*
X026439Y023493D02*
X026507Y023561D01*
X026595Y023597D01*
X027405Y023597D01*
X027493Y023561D01*
X027561Y023493D01*
X027597Y023405D01*
X027597Y023320D01*
X035680Y023320D01*
X035680Y025403D01*
X035595Y025403D01*
X035507Y025439D01*
X035439Y025507D01*
X035403Y025595D01*
X035403Y026405D01*
X035439Y026493D01*
X035507Y026561D01*
X035595Y026597D01*
X036405Y026597D01*
X036493Y026561D01*
X036561Y026493D01*
X036597Y026405D01*
X036597Y025595D01*
X036561Y025507D01*
X036493Y025439D01*
X036405Y025403D01*
X036320Y025403D01*
X036320Y022936D01*
X036271Y022819D01*
X036181Y022729D01*
X036064Y022680D01*
X027597Y022680D01*
X027597Y022595D01*
X027561Y022507D01*
X042252Y022507D01*
X042252Y022349D02*
X021303Y022349D01*
X021010Y022349D02*
X020990Y022349D01*
X020990Y022507D02*
X021010Y022507D01*
X021010Y022666D02*
X020990Y022666D01*
X020990Y022824D02*
X021010Y022824D01*
X021010Y022983D02*
X020990Y022983D01*
X020990Y023141D02*
X021010Y023141D01*
X021010Y023300D02*
X020990Y023300D01*
X020990Y023458D02*
X021010Y023458D01*
X021010Y023617D02*
X020990Y023617D01*
X020649Y023617D02*
X020367Y023617D01*
X020496Y023458D02*
X020518Y023458D01*
X020000Y023000D02*
X017000Y023000D01*
X016403Y022983D02*
X014280Y022983D01*
X014280Y023141D02*
X016403Y023141D01*
X016403Y023300D02*
X014280Y023300D01*
X014280Y023458D02*
X016424Y023458D01*
X016403Y022824D02*
X014280Y022824D01*
X014280Y022666D02*
X016403Y022666D01*
X016439Y022507D02*
X016507Y022439D01*
X016595Y022403D01*
X017405Y022403D01*
X017493Y022439D01*
X017561Y022507D01*
X019519Y022507D01*
X019525Y022491D02*
X019683Y022333D01*
X019525Y022491D02*
X019447Y022680D01*
X017597Y022680D01*
X017597Y022595D01*
X017561Y022507D01*
X017597Y022666D02*
X019453Y022666D01*
X019504Y023458D02*
X017576Y023458D01*
X017617Y024568D02*
X017383Y024568D01*
X016617Y024568D02*
X016383Y024568D01*
X015617Y024568D02*
X015383Y024568D01*
X015456Y025360D02*
X015544Y025360D01*
X015703Y025519D02*
X015297Y025519D01*
X016297Y025519D02*
X016703Y025519D01*
X016544Y025360D02*
X016456Y025360D01*
X017297Y025519D02*
X017703Y025519D01*
X017544Y025360D02*
X017456Y025360D01*
X018297Y025519D02*
X018703Y025519D01*
X018544Y025360D02*
X018456Y025360D01*
X019297Y025519D02*
X019703Y025519D01*
X019544Y025360D02*
X019456Y025360D01*
X020297Y025519D02*
X020703Y025519D01*
X020544Y025360D02*
X020456Y025360D01*
X021297Y025519D02*
X021703Y025519D01*
X021544Y025360D02*
X021456Y025360D01*
X021383Y024568D02*
X021617Y024568D01*
X022383Y024568D02*
X022617Y024568D01*
X023383Y024568D02*
X023617Y024568D01*
X024383Y024568D02*
X024617Y024568D01*
X025383Y024568D02*
X025617Y024568D01*
X026383Y024568D02*
X026617Y024568D01*
X027383Y024568D02*
X027617Y024568D01*
X028383Y024568D02*
X028617Y024568D01*
X029383Y024568D02*
X029617Y024568D01*
X030383Y024568D02*
X030617Y024568D01*
X031383Y024568D02*
X031617Y024568D01*
X032383Y024568D02*
X032617Y024568D01*
X033383Y024568D02*
X033617Y024568D01*
X034383Y024568D02*
X035680Y024568D01*
X035680Y024726D02*
X034542Y024726D01*
X034577Y024885D02*
X035680Y024885D01*
X035680Y025043D02*
X034577Y025043D01*
X034577Y025202D02*
X035680Y025202D01*
X035680Y025360D02*
X034456Y025360D01*
X034297Y025519D02*
X035434Y025519D01*
X035403Y025677D02*
X028597Y025677D01*
X028597Y025836D02*
X035403Y025836D01*
X035403Y025994D02*
X028597Y025994D01*
X028597Y026153D02*
X035403Y026153D01*
X035403Y026311D02*
X030764Y026311D01*
X030820Y026470D02*
X035429Y026470D01*
X035317Y026603D02*
X035475Y026761D01*
X035560Y026967D01*
X035560Y027573D01*
X035475Y027779D01*
X035317Y027937D01*
X035111Y028022D01*
X034889Y028022D01*
X034683Y027937D01*
X034525Y027779D01*
X034500Y027718D01*
X034475Y027779D01*
X034317Y027937D01*
X034111Y028022D01*
X033889Y028022D01*
X033683Y027937D01*
X033525Y027779D01*
X033500Y027718D01*
X033475Y027779D01*
X033317Y027937D01*
X033111Y028022D01*
X032889Y028022D01*
X032683Y027937D01*
X032525Y027779D01*
X032494Y027704D01*
X032470Y027750D01*
X032420Y027820D01*
X032358Y027882D01*
X032288Y027932D01*
X032211Y027972D01*
X032129Y027998D01*
X032043Y028012D01*
X032010Y028012D01*
X032010Y027280D01*
X031990Y027280D01*
X031990Y028012D01*
X031957Y028012D01*
X031871Y027998D01*
X031789Y027972D01*
X031712Y027932D01*
X031642Y027882D01*
X031580Y027820D01*
X031530Y027750D01*
X031490Y027673D01*
X031464Y027591D01*
X031450Y027505D01*
X031450Y027280D01*
X031990Y027280D01*
X031990Y027260D01*
X032010Y027260D01*
X032010Y026528D01*
X032043Y026528D01*
X032129Y026542D01*
X032211Y026568D01*
X032288Y026608D01*
X032358Y026658D01*
X032420Y026720D01*
X032470Y026790D01*
X032494Y026836D01*
X032525Y026761D01*
X032683Y026603D01*
X032889Y026518D01*
X033111Y026518D01*
X033317Y026603D01*
X033475Y026761D01*
X033500Y026822D01*
X033525Y026761D01*
X033683Y026603D01*
X033889Y026518D01*
X034111Y026518D01*
X034317Y026603D01*
X034475Y026761D01*
X034500Y026822D01*
X034525Y026761D01*
X034683Y026603D01*
X034889Y026518D01*
X035111Y026518D01*
X035317Y026603D01*
X035342Y026628D02*
X038912Y026628D01*
X038903Y026470D02*
X036571Y026470D01*
X036597Y026311D02*
X038903Y026311D01*
X038903Y026153D02*
X036597Y026153D01*
X036597Y025994D02*
X038903Y025994D01*
X038903Y025836D02*
X036597Y025836D01*
X036597Y025677D02*
X038240Y025677D01*
X038057Y025519D02*
X036566Y025519D01*
X036320Y025360D02*
X037976Y025360D01*
X037950Y025202D02*
X036320Y025202D01*
X036320Y025043D02*
X037950Y025043D01*
X037950Y024990D02*
X037950Y024765D01*
X037964Y024679D01*
X037990Y024597D01*
X038030Y024520D01*
X038080Y024450D01*
X038142Y024388D01*
X038212Y024338D01*
X038289Y024298D01*
X038371Y024272D01*
X038457Y024258D01*
X038490Y024258D01*
X038490Y024990D01*
X037950Y024990D01*
X037950Y024885D02*
X036320Y024885D01*
X036320Y024726D02*
X037956Y024726D01*
X038005Y024568D02*
X036320Y024568D01*
X036320Y024409D02*
X038121Y024409D01*
X038490Y024409D02*
X038510Y024409D01*
X038510Y024568D02*
X038490Y024568D01*
X038490Y024726D02*
X038510Y024726D01*
X038510Y024885D02*
X038490Y024885D01*
X038490Y025043D02*
X038510Y025043D01*
X038510Y025202D02*
X038490Y025202D01*
X038490Y025360D02*
X038510Y025360D01*
X038510Y025519D02*
X038490Y025519D01*
X038490Y025677D02*
X038510Y025677D01*
X038760Y025677D02*
X038969Y025677D01*
X038943Y025519D02*
X039035Y025519D01*
X039965Y025519D02*
X040035Y025519D01*
X040031Y025677D02*
X040208Y025677D01*
X040097Y025836D02*
X042252Y025836D01*
X042252Y025994D02*
X040097Y025994D01*
X040792Y025677D02*
X041208Y025677D01*
X041035Y025519D02*
X040965Y025519D01*
X041792Y025677D02*
X042252Y025677D01*
X042252Y025519D02*
X041965Y025519D01*
X042037Y025360D02*
X042252Y025360D01*
X042252Y025202D02*
X042060Y025202D01*
X042060Y025043D02*
X042252Y025043D01*
X042252Y024885D02*
X042060Y024885D01*
X042060Y024726D02*
X042252Y024726D01*
X042252Y024568D02*
X042007Y024568D01*
X041893Y024409D02*
X042252Y024409D01*
X042252Y024251D02*
X041618Y024251D01*
X041382Y024251D02*
X040618Y024251D01*
X040382Y024251D02*
X039618Y024251D01*
X039382Y024251D02*
X036320Y024251D01*
X036320Y024092D02*
X042252Y024092D01*
X042252Y023934D02*
X036320Y023934D01*
X036320Y023775D02*
X042252Y023775D01*
X042252Y023617D02*
X036320Y023617D01*
X036320Y023458D02*
X042252Y023458D01*
X042252Y023300D02*
X036320Y023300D01*
X036320Y023141D02*
X042252Y023141D01*
X042252Y022983D02*
X036320Y022983D01*
X036273Y022824D02*
X042252Y022824D01*
X042252Y022666D02*
X027597Y022666D01*
X027561Y022507D02*
X027493Y022439D01*
X027405Y022403D01*
X026595Y022403D01*
X026507Y022439D01*
X026439Y022507D01*
X027000Y023000D02*
X036000Y023000D01*
X036000Y026000D01*
X035485Y026787D02*
X039068Y026787D01*
X039180Y026945D02*
X035551Y026945D01*
X035560Y027104D02*
X039092Y027104D01*
X038916Y027262D02*
X035560Y027262D01*
X035560Y027421D02*
X038903Y027421D01*
X038903Y027579D02*
X035558Y027579D01*
X035492Y027738D02*
X038903Y027738D01*
X038903Y027896D02*
X035358Y027896D01*
X035434Y028055D02*
X038903Y028055D01*
X038959Y028213D02*
X035588Y028213D01*
X035597Y028372D02*
X038165Y028372D01*
X038142Y028388D02*
X038212Y028338D01*
X038289Y028298D01*
X038371Y028272D01*
X038457Y028258D01*
X038490Y028258D01*
X038490Y028990D01*
X037950Y028990D01*
X037950Y028765D01*
X037964Y028679D01*
X037990Y028597D01*
X038030Y028520D01*
X038080Y028450D01*
X038142Y028388D01*
X038024Y028530D02*
X035597Y028530D01*
X035597Y028689D02*
X037962Y028689D01*
X037950Y028847D02*
X035597Y028847D01*
X035597Y029006D02*
X038490Y029006D01*
X038490Y029164D02*
X038510Y029164D01*
X038510Y029323D02*
X038490Y029323D01*
X038490Y029481D02*
X038510Y029481D01*
X038510Y029640D02*
X038490Y029640D01*
X038180Y029640D02*
X035483Y029640D01*
X035335Y029481D02*
X038030Y029481D01*
X037964Y029323D02*
X028560Y029323D01*
X028560Y029481D02*
X031693Y029481D01*
X031537Y029640D02*
X028560Y029640D01*
X028560Y029798D02*
X031467Y029798D01*
X031450Y029957D02*
X028560Y029957D01*
X028560Y030115D02*
X031450Y030115D01*
X031450Y030274D02*
X028560Y030274D01*
X028560Y030432D02*
X031461Y030432D01*
X031520Y030591D02*
X028560Y030591D01*
X028560Y030749D02*
X031652Y030749D01*
X031871Y031772D02*
X031957Y031758D01*
X031990Y031758D01*
X031990Y032490D01*
X031450Y032490D01*
X031450Y032265D01*
X031464Y032179D01*
X031490Y032097D01*
X031530Y032020D01*
X031580Y031950D01*
X031642Y031888D01*
X031712Y031838D01*
X031789Y031798D01*
X031871Y031772D01*
X031990Y031859D02*
X032010Y031859D01*
X032010Y032017D02*
X031990Y032017D01*
X031990Y032176D02*
X032010Y032176D01*
X032010Y032334D02*
X031990Y032334D01*
X031990Y032493D02*
X030060Y032493D01*
X030060Y032651D02*
X031450Y032651D01*
X031462Y032810D02*
X029982Y032810D01*
X030060Y032732D02*
X029732Y033060D01*
X029268Y033060D01*
X028940Y032732D01*
X028940Y032268D01*
X029140Y032068D01*
X029140Y031860D01*
X028128Y031860D01*
X027996Y031805D01*
X027895Y031704D01*
X027840Y031572D01*
X027840Y027760D01*
X026904Y027760D01*
X026764Y027900D01*
X027040Y028176D01*
X027040Y028624D01*
X026724Y028940D01*
X026276Y028940D01*
X025960Y028624D01*
X025960Y028440D01*
X025526Y028440D01*
X025210Y028124D01*
X025210Y027676D01*
X025526Y027360D01*
X025960Y027360D01*
X025960Y027176D01*
X026276Y026860D01*
X026724Y026860D01*
X026904Y027040D01*
X028272Y027040D01*
X028404Y027095D01*
X028505Y027196D01*
X028560Y027328D01*
X028560Y031140D01*
X029428Y031140D01*
X029572Y031140D01*
X029704Y031195D01*
X029805Y031296D01*
X029860Y031428D01*
X029860Y032068D01*
X030060Y032268D01*
X030060Y032732D01*
X029824Y032968D02*
X031523Y032968D01*
X031662Y033127D02*
X004112Y033127D01*
X004227Y032995D02*
X004227Y032995D01*
X004239Y032968D02*
X029176Y032968D01*
X029018Y032810D02*
X016232Y032810D01*
X015768Y032810D01*
X015440Y032482D01*
X015440Y032018D01*
X015768Y031690D01*
X016232Y031690D01*
X016560Y032018D01*
X016560Y032482D01*
X016232Y032810D01*
X016391Y032651D02*
X028940Y032651D01*
X028940Y032493D02*
X027030Y032493D01*
X027033Y032492D02*
X026819Y032580D01*
X026181Y032580D01*
X025967Y032492D01*
X025804Y032329D01*
X025716Y032115D01*
X025716Y031885D01*
X025804Y031671D01*
X025967Y031508D01*
X025987Y031500D01*
X025967Y031492D01*
X025804Y031329D01*
X025716Y031115D01*
X025716Y030885D01*
X025804Y030671D01*
X025967Y030508D01*
X026006Y030492D01*
X025997Y030488D01*
X025925Y030435D01*
X025861Y030371D01*
X025808Y030299D01*
X025768Y030219D01*
X025740Y030133D01*
X025726Y030045D01*
X025726Y030020D01*
X026480Y030020D01*
X026480Y029980D01*
X026520Y029980D01*
X026520Y030020D01*
X027274Y030020D01*
X027274Y030045D01*
X027260Y030133D01*
X027232Y030219D01*
X027192Y030299D01*
X027139Y030371D01*
X027075Y030435D01*
X027003Y030488D01*
X026994Y030492D01*
X027033Y030508D01*
X027196Y030671D01*
X027284Y030885D01*
X027284Y031115D01*
X027196Y031329D01*
X027033Y031492D01*
X027013Y031500D01*
X027033Y031508D01*
X027196Y031671D01*
X027284Y031885D01*
X027284Y032115D01*
X027196Y032329D01*
X027033Y032492D01*
X027190Y032334D02*
X028940Y032334D01*
X029032Y032176D02*
X027259Y032176D01*
X027284Y032017D02*
X029140Y032017D01*
X029860Y032017D02*
X031532Y032017D01*
X031465Y032176D02*
X029968Y032176D01*
X030060Y032334D02*
X031450Y032334D01*
X031683Y031859D02*
X029860Y031859D01*
X029860Y031700D02*
X038670Y031700D01*
X038693Y031542D02*
X029860Y031542D01*
X029841Y031383D02*
X038746Y031383D01*
X038819Y031225D02*
X029734Y031225D01*
X028560Y031066D02*
X038891Y031066D01*
X038919Y031005D02*
X038919Y031005D01*
X039004Y030908D02*
X028560Y030908D01*
X027840Y030908D02*
X027284Y030908D01*
X027284Y031066D02*
X027840Y031066D01*
X027840Y031225D02*
X027239Y031225D01*
X027141Y031383D02*
X027840Y031383D01*
X027840Y031542D02*
X027066Y031542D01*
X027208Y031700D02*
X027893Y031700D01*
X028125Y031859D02*
X027273Y031859D01*
X027228Y030749D02*
X027840Y030749D01*
X027840Y030591D02*
X027115Y030591D01*
X027078Y030432D02*
X027840Y030432D01*
X027840Y030274D02*
X027204Y030274D01*
X027263Y030115D02*
X027840Y030115D01*
X027840Y029957D02*
X027274Y029957D01*
X027274Y029955D02*
X027260Y029867D01*
X027232Y029781D01*
X027192Y029701D01*
X027139Y029629D01*
X027075Y029565D01*
X027003Y029512D01*
X026923Y029472D01*
X026837Y029444D01*
X026749Y029430D01*
X026520Y029430D01*
X026520Y029980D01*
X027274Y029980D01*
X027274Y029955D01*
X027238Y029798D02*
X027840Y029798D01*
X027840Y029640D02*
X027147Y029640D01*
X026941Y029481D02*
X027840Y029481D01*
X027840Y029323D02*
X024752Y029323D01*
X024752Y029413D02*
X024646Y029668D01*
X024451Y029863D01*
X024197Y029968D01*
X023921Y029968D01*
X023667Y029863D01*
X023472Y029668D01*
X023366Y029413D01*
X023366Y029138D01*
X023472Y028883D01*
X023667Y028688D01*
X023921Y028583D01*
X024197Y028583D01*
X024451Y028688D01*
X024646Y028883D01*
X024752Y029138D01*
X024752Y029413D01*
X024724Y029481D02*
X026059Y029481D01*
X026077Y029472D02*
X026163Y029444D01*
X026251Y029430D01*
X026480Y029430D01*
X026480Y029980D01*
X025726Y029980D01*
X025726Y029955D01*
X025740Y029867D01*
X025768Y029781D01*
X025808Y029701D01*
X025861Y029629D01*
X025925Y029565D01*
X025997Y029512D01*
X026077Y029472D01*
X025853Y029640D02*
X024658Y029640D01*
X024516Y029798D02*
X025762Y029798D01*
X025726Y029957D02*
X024225Y029957D01*
X023893Y029957D02*
X019028Y029957D01*
X019000Y029968D02*
X018724Y029968D01*
X018470Y029863D01*
X018275Y029668D01*
X018169Y029413D01*
X018169Y029138D01*
X018275Y028883D01*
X018470Y028688D01*
X018724Y028583D01*
X019000Y028583D01*
X019255Y028688D01*
X019449Y028883D01*
X019555Y029138D01*
X019555Y029413D01*
X019449Y029668D01*
X019255Y029863D01*
X019000Y029968D01*
X018696Y029957D02*
X016950Y029957D01*
X016989Y030051D02*
X016904Y029845D01*
X016746Y029688D01*
X016541Y029602D01*
X016318Y029602D01*
X016112Y029688D01*
X015954Y029845D01*
X015929Y029906D01*
X015904Y029845D01*
X015746Y029688D01*
X015541Y029602D01*
X015318Y029602D01*
X015112Y029688D01*
X014954Y029845D01*
X014929Y029906D01*
X014904Y029845D01*
X014746Y029688D01*
X014541Y029602D01*
X014318Y029602D01*
X014112Y029688D01*
X013954Y029845D01*
X013924Y029918D01*
X013894Y029845D01*
X013737Y029688D01*
X013646Y029650D01*
X014024Y029650D01*
X014141Y029601D01*
X014231Y029511D01*
X014280Y029394D01*
X014280Y021339D01*
X023903Y021321D01*
X023903Y021405D01*
X023939Y021493D01*
X024007Y021561D01*
X024095Y021597D01*
X024905Y021597D01*
X024993Y021561D01*
X025061Y021493D01*
X025097Y021405D01*
X025097Y020595D01*
X025061Y020507D01*
X024993Y020439D01*
X024905Y020403D01*
X024095Y020403D01*
X024007Y020439D01*
X023939Y020507D01*
X023903Y020595D01*
X023903Y020681D01*
X013960Y020700D01*
X013896Y020700D01*
X013896Y020700D01*
X013896Y020700D01*
X013837Y020724D01*
X013779Y020749D01*
X013779Y020749D01*
X013778Y020749D01*
X013734Y020794D01*
X013689Y020839D01*
X013689Y020839D01*
X013688Y020839D01*
X013664Y020898D01*
X013640Y020956D01*
X013640Y020957D01*
X013640Y020957D01*
X013640Y021020D01*
X013640Y029010D01*
X013344Y029010D01*
X013356Y028997D01*
X013393Y028909D01*
X013393Y028099D01*
X013356Y028011D01*
X013289Y027943D01*
X013200Y027906D01*
X013115Y027906D01*
X013115Y019320D01*
X020403Y019320D01*
X020403Y019405D01*
X020439Y019493D01*
X020507Y019561D01*
X020595Y019597D01*
X021405Y019597D01*
X021493Y019561D01*
X021561Y019493D01*
X021597Y019405D01*
X021597Y018595D01*
X021561Y018507D01*
X021493Y018439D01*
X021405Y018403D01*
X020597Y018403D01*
X020597Y017595D01*
X020561Y017507D01*
X020493Y017439D01*
X020405Y017403D01*
X019595Y017403D01*
X019507Y017439D01*
X019439Y017507D01*
X019403Y017595D01*
X019403Y017680D01*
X011944Y017680D01*
X011827Y017729D01*
X011737Y017819D01*
X011688Y017936D01*
X011688Y025743D01*
X011354Y025743D01*
X011236Y025792D01*
X011146Y025882D01*
X011097Y025999D01*
X011097Y026962D01*
X011012Y026962D01*
X010924Y026998D01*
X010856Y027066D01*
X010820Y027154D01*
X010820Y027964D01*
X010856Y028052D01*
X010924Y028120D01*
X011012Y028157D01*
X011823Y028157D01*
X011911Y028120D01*
X011978Y028052D01*
X012015Y027964D01*
X012015Y027154D01*
X011978Y027066D01*
X011911Y026998D01*
X011823Y026962D01*
X011737Y026962D01*
X011737Y026383D01*
X012072Y026383D01*
X012189Y026334D01*
X012279Y026244D01*
X012328Y026127D01*
X012328Y018320D01*
X019403Y018320D01*
X019403Y018405D01*
X019439Y018493D01*
X019507Y018561D01*
X019595Y018597D01*
X020403Y018597D01*
X020403Y018680D01*
X012732Y018680D01*
X012614Y018729D01*
X012524Y018819D01*
X012475Y018936D01*
X012475Y027906D01*
X012390Y027906D01*
X012302Y027943D01*
X012234Y028011D01*
X012198Y028099D01*
X012198Y028909D01*
X012234Y028997D01*
X012247Y029010D01*
X008024Y029010D01*
X007974Y028960D01*
X007540Y028960D01*
X007540Y028776D01*
X007224Y028460D01*
X006776Y028460D01*
X006460Y028776D01*
X006460Y029224D01*
X006736Y029500D01*
X006460Y029776D01*
X006460Y030224D01*
X006680Y030444D01*
X006680Y030564D01*
X006729Y030681D01*
X006819Y030771D01*
X006936Y030820D01*
X009680Y030820D01*
X009680Y032314D01*
X009729Y032431D01*
X009819Y032521D01*
X009936Y032570D01*
X010528Y032570D01*
X010768Y032810D01*
X011232Y032810D01*
X011560Y032482D01*
X011560Y032018D01*
X011232Y031690D01*
X010768Y031690D01*
X010528Y031930D01*
X010320Y031930D01*
X010320Y030436D01*
X010271Y030319D01*
X010181Y030229D01*
X010064Y030180D01*
X007540Y030180D01*
X007540Y030040D01*
X007974Y030040D01*
X008290Y029724D01*
X008290Y029650D01*
X011193Y029650D01*
X011102Y029688D01*
X010945Y029845D01*
X010859Y030051D01*
X010859Y030658D01*
X010945Y030864D01*
X011102Y031021D01*
X011308Y031106D01*
X011531Y031106D01*
X011737Y031021D01*
X011894Y030864D01*
X011919Y030803D01*
X011945Y030864D01*
X012102Y031021D01*
X012308Y031106D01*
X012531Y031106D01*
X012737Y031021D01*
X012894Y030864D01*
X012919Y030803D01*
X012945Y030864D01*
X013102Y031021D01*
X013308Y031106D01*
X013531Y031106D01*
X013737Y031021D01*
X013894Y030864D01*
X013924Y030791D01*
X013954Y030864D01*
X014112Y031021D01*
X014318Y031106D01*
X014541Y031106D01*
X014746Y031021D01*
X014904Y030864D01*
X014929Y030803D01*
X014954Y030864D01*
X015112Y031021D01*
X015318Y031106D01*
X015541Y031106D01*
X015746Y031021D01*
X015904Y030864D01*
X015929Y030803D01*
X015954Y030864D01*
X016112Y031021D01*
X016318Y031106D01*
X016541Y031106D01*
X016746Y031021D01*
X016904Y030864D01*
X016989Y030658D01*
X016989Y030051D01*
X016989Y030115D02*
X025737Y030115D01*
X025796Y030274D02*
X016989Y030274D01*
X016989Y030432D02*
X025922Y030432D01*
X025885Y030591D02*
X016989Y030591D01*
X016951Y030749D02*
X025772Y030749D01*
X025716Y030908D02*
X016860Y030908D01*
X016638Y031066D02*
X025716Y031066D01*
X025761Y031225D02*
X010320Y031225D01*
X010320Y031383D02*
X025859Y031383D01*
X025934Y031542D02*
X010320Y031542D01*
X010320Y031700D02*
X010758Y031700D01*
X010599Y031859D02*
X010320Y031859D01*
X010000Y032250D02*
X010000Y030500D01*
X007000Y030500D01*
X007000Y030000D01*
X006597Y029640D02*
X002802Y029640D01*
X002806Y029638D02*
X002607Y029720D01*
X002393Y029720D01*
X002194Y029638D01*
X002042Y029486D01*
X001960Y029287D01*
X001960Y028713D01*
X002042Y028514D01*
X002194Y028362D01*
X002393Y028280D01*
X002607Y028280D01*
X002806Y028362D01*
X002958Y028514D01*
X002977Y028560D01*
X004060Y028560D01*
X004060Y025912D01*
X004127Y025751D01*
X004251Y025627D01*
X004412Y025560D01*
X008753Y025560D01*
X008915Y025627D01*
X009038Y025751D01*
X009105Y025912D01*
X009105Y026729D01*
X009245Y026729D01*
X009333Y026765D01*
X009400Y026833D01*
X009437Y026921D01*
X009437Y028079D01*
X009400Y028167D01*
X009333Y028235D01*
X009245Y028271D01*
X008086Y028271D01*
X007998Y028235D01*
X007930Y028167D01*
X007894Y028079D01*
X007894Y026921D01*
X007930Y026833D01*
X007998Y026765D01*
X008086Y026729D01*
X008225Y026729D01*
X008225Y026440D01*
X004940Y026440D01*
X004940Y029088D01*
X004873Y029249D01*
X004749Y029373D01*
X004588Y029440D01*
X002977Y029440D01*
X002958Y029486D01*
X002806Y029638D01*
X002960Y029481D02*
X006717Y029481D01*
X006559Y029323D02*
X004800Y029323D01*
X004908Y029164D02*
X006460Y029164D01*
X006460Y029006D02*
X004940Y029006D01*
X004940Y028847D02*
X006460Y028847D01*
X006548Y028689D02*
X004940Y028689D01*
X004940Y028530D02*
X006706Y028530D01*
X007079Y028271D02*
X005921Y028271D01*
X005833Y028235D01*
X005765Y028167D01*
X005729Y028079D01*
X005729Y026921D01*
X005765Y026833D01*
X005833Y026765D01*
X005921Y026729D01*
X007079Y026729D01*
X007167Y026765D01*
X007235Y026833D01*
X007271Y026921D01*
X007271Y028079D01*
X007235Y028167D01*
X007167Y028235D01*
X007079Y028271D01*
X007189Y028213D02*
X007976Y028213D01*
X007894Y028055D02*
X007271Y028055D01*
X007271Y027896D02*
X007894Y027896D01*
X007894Y027738D02*
X007271Y027738D01*
X007271Y027579D02*
X007894Y027579D01*
X007894Y027421D02*
X007271Y027421D01*
X007271Y027262D02*
X007894Y027262D01*
X007894Y027104D02*
X007271Y027104D01*
X007271Y026945D02*
X007894Y026945D01*
X007976Y026787D02*
X007189Y026787D01*
X008225Y026628D02*
X004940Y026628D01*
X004940Y026470D02*
X008225Y026470D01*
X009105Y026470D02*
X011097Y026470D01*
X011097Y026628D02*
X009105Y026628D01*
X009354Y026787D02*
X011097Y026787D01*
X011097Y026945D02*
X009437Y026945D01*
X009437Y027104D02*
X010841Y027104D01*
X010820Y027262D02*
X009437Y027262D01*
X009437Y027421D02*
X010820Y027421D01*
X010820Y027579D02*
X009437Y027579D01*
X009437Y027738D02*
X010820Y027738D01*
X010820Y027896D02*
X009437Y027896D01*
X009437Y028055D02*
X010858Y028055D01*
X011417Y027559D02*
X011417Y026063D01*
X012008Y026063D01*
X012008Y018000D01*
X020000Y018000D01*
X020597Y018069D02*
X022740Y018069D01*
X022740Y017911D02*
X020597Y017911D01*
X020597Y017752D02*
X022756Y017752D01*
X022740Y017768D02*
X023068Y017440D01*
X023532Y017440D01*
X023860Y017768D01*
X023860Y018232D01*
X023532Y018560D01*
X023068Y018560D01*
X022740Y018232D01*
X022740Y017768D01*
X022915Y017594D02*
X020597Y017594D01*
X020484Y017435D02*
X031903Y017435D01*
X031903Y017277D02*
X011537Y017277D01*
X011537Y017345D02*
X011501Y017433D01*
X011433Y017501D01*
X011345Y017537D01*
X010655Y017537D01*
X010567Y017501D01*
X010499Y017433D01*
X010463Y017345D01*
X010463Y016655D01*
X010499Y016567D01*
X010567Y016499D01*
X010655Y016463D01*
X011345Y016463D01*
X011433Y016499D01*
X011501Y016567D01*
X011537Y016655D01*
X011537Y017345D01*
X011499Y017435D02*
X019516Y017435D01*
X019403Y017594D02*
X001240Y017594D01*
X001240Y017752D02*
X011803Y017752D01*
X011699Y017911D02*
X001240Y017911D01*
X001240Y018069D02*
X011688Y018069D01*
X011688Y018228D02*
X001240Y018228D01*
X001240Y018386D02*
X011688Y018386D01*
X011688Y018545D02*
X001240Y018545D01*
X001240Y018703D02*
X011688Y018703D01*
X011688Y018862D02*
X001240Y018862D01*
X001240Y019020D02*
X011688Y019020D01*
X011688Y019179D02*
X001240Y019179D01*
X001240Y019337D02*
X011688Y019337D01*
X011688Y019496D02*
X001240Y019496D01*
X001240Y019654D02*
X011688Y019654D01*
X011688Y019813D02*
X001240Y019813D01*
X001240Y019971D02*
X011688Y019971D01*
X011688Y020130D02*
X001240Y020130D01*
X001240Y020288D02*
X011688Y020288D01*
X011688Y020447D02*
X001240Y020447D01*
X001240Y020605D02*
X011688Y020605D01*
X011688Y020764D02*
X001240Y020764D01*
X001240Y020922D02*
X011688Y020922D01*
X011688Y021081D02*
X001240Y021081D01*
X001240Y021239D02*
X011688Y021239D01*
X011688Y021398D02*
X001240Y021398D01*
X001240Y021556D02*
X011688Y021556D01*
X011688Y021715D02*
X001240Y021715D01*
X001240Y021873D02*
X011688Y021873D01*
X011688Y022032D02*
X001240Y022032D01*
X001240Y022190D02*
X011688Y022190D01*
X011688Y022349D02*
X001240Y022349D01*
X001240Y022507D02*
X001559Y022507D01*
X001567Y022499D02*
X001655Y022463D01*
X002345Y022463D01*
X002433Y022499D01*
X002500Y022566D01*
X002567Y022499D01*
X002655Y022463D01*
X003345Y022463D01*
X003433Y022499D01*
X003501Y022567D01*
X003537Y022655D01*
X003537Y023345D01*
X003501Y023433D01*
X003433Y023501D01*
X003345Y023537D01*
X002655Y023537D01*
X002567Y023501D01*
X002500Y023434D01*
X002433Y023501D01*
X002345Y023537D01*
X001655Y023537D01*
X001567Y023501D01*
X001499Y023433D01*
X001463Y023345D01*
X001463Y022655D01*
X001499Y022567D01*
X001567Y022499D01*
X001463Y022666D02*
X001240Y022666D01*
X001240Y022824D02*
X001463Y022824D01*
X001463Y022983D02*
X001240Y022983D01*
X001240Y023141D02*
X001463Y023141D01*
X001463Y023300D02*
X001240Y023300D01*
X001240Y023458D02*
X001524Y023458D01*
X001240Y023617D02*
X011688Y023617D01*
X011688Y023775D02*
X001240Y023775D01*
X001240Y023934D02*
X011688Y023934D01*
X011688Y024092D02*
X001240Y024092D01*
X001240Y024251D02*
X011688Y024251D01*
X011688Y024409D02*
X011353Y024409D01*
X011312Y024368D02*
X011632Y024688D01*
X011632Y024913D01*
X011087Y024913D01*
X011087Y024913D01*
X011087Y024368D01*
X011312Y024368D01*
X011087Y024368D02*
X011087Y024913D01*
X011087Y024913D01*
X011632Y024913D01*
X011632Y025139D01*
X011312Y025458D01*
X011087Y025458D01*
X011087Y024913D01*
X010542Y024913D01*
X010542Y024688D01*
X010861Y024368D01*
X011087Y024368D01*
X011087Y024409D02*
X011087Y024409D01*
X011087Y024568D02*
X011087Y024568D01*
X011087Y024726D02*
X011087Y024726D01*
X011087Y024885D02*
X011087Y024885D01*
X011087Y024913D02*
X011087Y024913D01*
X011087Y024913D01*
X010542Y024913D01*
X010542Y025139D01*
X010861Y025458D01*
X011087Y025458D01*
X011087Y024913D01*
X011087Y025043D02*
X011087Y025043D01*
X011087Y025202D02*
X011087Y025202D01*
X011087Y025360D02*
X011087Y025360D01*
X011411Y025360D02*
X011688Y025360D01*
X011688Y025202D02*
X011569Y025202D01*
X011632Y025043D02*
X011688Y025043D01*
X011688Y024885D02*
X011632Y024885D01*
X011632Y024726D02*
X011688Y024726D01*
X011688Y024568D02*
X011512Y024568D01*
X010820Y024409D02*
X009367Y024409D01*
X009317Y024358D02*
X009642Y024683D01*
X009642Y025143D01*
X009317Y025468D01*
X008857Y025468D01*
X008532Y025143D01*
X008532Y024683D01*
X008857Y024358D01*
X009317Y024358D01*
X009526Y024568D02*
X010662Y024568D01*
X010542Y024726D02*
X009642Y024726D01*
X009642Y024885D02*
X010542Y024885D01*
X010542Y025043D02*
X009642Y025043D01*
X009583Y025202D02*
X010604Y025202D01*
X010763Y025360D02*
X009425Y025360D01*
X008965Y025677D02*
X011688Y025677D01*
X011688Y025519D02*
X002925Y025519D01*
X002958Y025486D02*
X002806Y025638D01*
X002607Y025720D01*
X002393Y025720D01*
X002194Y025638D01*
X002042Y025486D01*
X001960Y025287D01*
X001960Y024713D01*
X002042Y024514D01*
X002194Y024362D01*
X002393Y024280D01*
X002607Y024280D01*
X002806Y024362D01*
X002958Y024514D01*
X003040Y024713D01*
X003040Y025287D01*
X002958Y025486D01*
X003010Y025360D02*
X008748Y025360D01*
X008590Y025202D02*
X003040Y025202D01*
X003040Y025043D02*
X008532Y025043D01*
X008532Y024885D02*
X003040Y024885D01*
X003040Y024726D02*
X008532Y024726D01*
X008648Y024568D02*
X002980Y024568D01*
X002853Y024409D02*
X008806Y024409D01*
X008655Y023537D02*
X008567Y023501D01*
X008499Y023433D01*
X008463Y023345D01*
X008463Y022655D01*
X008499Y022567D01*
X008567Y022499D01*
X008655Y022463D01*
X009345Y022463D01*
X009433Y022499D01*
X009501Y022567D01*
X009537Y022655D01*
X009537Y023345D01*
X009501Y023433D01*
X009433Y023501D01*
X009345Y023537D01*
X008655Y023537D01*
X008524Y023458D02*
X003476Y023458D01*
X003537Y023300D02*
X008463Y023300D01*
X008463Y023141D02*
X003537Y023141D01*
X003537Y022983D02*
X008463Y022983D01*
X008463Y022824D02*
X003537Y022824D01*
X003537Y022666D02*
X008463Y022666D01*
X008559Y022507D02*
X003441Y022507D01*
X002559Y022507D02*
X002441Y022507D01*
X002476Y023458D02*
X002524Y023458D01*
X002147Y024409D02*
X001240Y024409D01*
X001240Y024568D02*
X002020Y024568D01*
X001960Y024726D02*
X001240Y024726D01*
X001240Y024885D02*
X001960Y024885D01*
X001960Y025043D02*
X001240Y025043D01*
X001240Y025202D02*
X001960Y025202D01*
X001990Y025360D02*
X001240Y025360D01*
X001240Y025519D02*
X002075Y025519D01*
X002289Y025677D02*
X001240Y025677D01*
X001240Y025836D02*
X004092Y025836D01*
X004060Y025994D02*
X001240Y025994D01*
X001240Y026153D02*
X004060Y026153D01*
X004060Y026311D02*
X001240Y026311D01*
X001240Y026470D02*
X004060Y026470D01*
X004060Y026628D02*
X001240Y026628D01*
X001240Y026787D02*
X004060Y026787D01*
X004060Y026945D02*
X001240Y026945D01*
X001240Y027104D02*
X004060Y027104D01*
X004060Y027262D02*
X001240Y027262D01*
X001240Y027421D02*
X004060Y027421D01*
X004060Y027579D02*
X001240Y027579D01*
X001240Y027738D02*
X004060Y027738D01*
X004060Y027896D02*
X001240Y027896D01*
X001240Y028055D02*
X004060Y028055D01*
X004060Y028213D02*
X001240Y028213D01*
X001240Y028372D02*
X002185Y028372D01*
X002036Y028530D02*
X001240Y028530D01*
X001240Y028689D02*
X001970Y028689D01*
X001960Y028847D02*
X001240Y028847D01*
X001240Y029006D02*
X001960Y029006D01*
X001960Y029164D02*
X001240Y029164D01*
X001240Y029323D02*
X001975Y029323D01*
X002040Y029481D02*
X001240Y029481D01*
X001240Y029640D02*
X002198Y029640D01*
X002094Y030274D02*
X001240Y030274D01*
X001240Y030432D02*
X001750Y030432D01*
X001503Y030591D02*
X001240Y030591D01*
X001240Y030749D02*
X001353Y030749D01*
X001474Y030609D02*
X001474Y030609D01*
X001240Y030115D02*
X006460Y030115D01*
X006460Y029957D02*
X001240Y029957D01*
X001240Y029798D02*
X006460Y029798D01*
X006510Y030274D02*
X003264Y030274D01*
X003608Y030432D02*
X006668Y030432D01*
X006691Y030591D02*
X003854Y030591D01*
X004005Y030749D02*
X006796Y030749D01*
X006895Y030921D02*
X007108Y031009D01*
X007271Y031172D01*
X007280Y031192D01*
X007288Y031172D01*
X007451Y031009D01*
X007664Y030921D01*
X007895Y030921D01*
X008108Y031009D01*
X008271Y031172D01*
X008280Y031192D01*
X008288Y031172D01*
X008451Y031009D01*
X008664Y030921D01*
X008895Y030921D01*
X009108Y031009D01*
X009271Y031172D01*
X009360Y031385D01*
X009360Y032024D01*
X009271Y032237D01*
X009108Y032400D01*
X008895Y032489D01*
X008664Y032489D01*
X008451Y032400D01*
X008288Y032237D01*
X008280Y032217D01*
X008271Y032237D01*
X008108Y032400D01*
X007895Y032489D01*
X007664Y032489D01*
X007451Y032400D01*
X007288Y032237D01*
X007280Y032217D01*
X007271Y032237D01*
X007108Y032400D01*
X006895Y032489D01*
X006664Y032489D01*
X006451Y032400D01*
X006288Y032237D01*
X006200Y032024D01*
X006200Y031385D01*
X006288Y031172D01*
X006451Y031009D01*
X006664Y030921D01*
X006895Y030921D01*
X007165Y031066D02*
X007394Y031066D01*
X007540Y030115D02*
X010859Y030115D01*
X010859Y030274D02*
X010226Y030274D01*
X010318Y030432D02*
X010859Y030432D01*
X010859Y030591D02*
X010320Y030591D01*
X010320Y030749D02*
X010897Y030749D01*
X010989Y030908D02*
X010320Y030908D01*
X010320Y031066D02*
X011211Y031066D01*
X011628Y031066D02*
X012211Y031066D01*
X011989Y030908D02*
X011850Y030908D01*
X012628Y031066D02*
X013211Y031066D01*
X012989Y030908D02*
X012850Y030908D01*
X013628Y031066D02*
X014220Y031066D01*
X013998Y030908D02*
X013850Y030908D01*
X014638Y031066D02*
X015220Y031066D01*
X014998Y030908D02*
X014860Y030908D01*
X015638Y031066D02*
X016220Y031066D01*
X015998Y030908D02*
X015860Y030908D01*
X015758Y031700D02*
X011242Y031700D01*
X011401Y031859D02*
X015599Y031859D01*
X015441Y032017D02*
X011559Y032017D01*
X011560Y032176D02*
X015440Y032176D01*
X015440Y032334D02*
X011560Y032334D01*
X011549Y032493D02*
X015451Y032493D01*
X015609Y032651D02*
X011391Y032651D01*
X011232Y032810D02*
X015768Y032810D01*
X016549Y032493D02*
X025970Y032493D01*
X025810Y032334D02*
X016560Y032334D01*
X016560Y032176D02*
X025741Y032176D01*
X025716Y032017D02*
X016559Y032017D01*
X016401Y031859D02*
X025727Y031859D01*
X025792Y031700D02*
X016242Y031700D01*
X016001Y029798D02*
X015857Y029798D01*
X015630Y029640D02*
X016228Y029640D01*
X016630Y029640D02*
X018263Y029640D01*
X018197Y029481D02*
X014244Y029481D01*
X014228Y029640D02*
X014049Y029640D01*
X014001Y029798D02*
X013847Y029798D01*
X013960Y029330D02*
X007750Y029330D01*
X007750Y029500D01*
X008057Y029957D02*
X010898Y029957D01*
X010992Y029798D02*
X008216Y029798D01*
X008019Y029006D02*
X012243Y029006D01*
X012198Y028847D02*
X007540Y028847D01*
X007452Y028689D02*
X012198Y028689D01*
X012198Y028530D02*
X007294Y028530D01*
X005811Y028213D02*
X004940Y028213D01*
X004940Y028055D02*
X005729Y028055D01*
X005729Y027896D02*
X004940Y027896D01*
X004940Y027738D02*
X005729Y027738D01*
X005729Y027579D02*
X004940Y027579D01*
X004940Y027421D02*
X005729Y027421D01*
X005729Y027262D02*
X004940Y027262D01*
X004940Y027104D02*
X005729Y027104D01*
X005729Y026945D02*
X004940Y026945D01*
X004940Y026787D02*
X005811Y026787D01*
X004940Y028372D02*
X012198Y028372D01*
X012198Y028213D02*
X009355Y028213D01*
X009105Y026311D02*
X011097Y026311D01*
X011097Y026153D02*
X009105Y026153D01*
X009105Y025994D02*
X011100Y025994D01*
X011192Y025836D02*
X009073Y025836D01*
X009476Y023458D02*
X010538Y023458D01*
X010524Y023444D02*
X010499Y023406D01*
X010481Y023365D01*
X010473Y023320D01*
X010473Y023000D01*
X010473Y022680D01*
X010481Y022635D01*
X010499Y022594D01*
X010524Y022556D01*
X010556Y022524D01*
X010594Y022499D01*
X010635Y022481D01*
X010680Y022473D01*
X011000Y022473D01*
X011320Y022473D01*
X011365Y022481D01*
X011406Y022499D01*
X011444Y022524D01*
X011476Y022556D01*
X011501Y022594D01*
X011519Y022635D01*
X011527Y022680D01*
X011527Y023000D01*
X011527Y023320D01*
X011519Y023365D01*
X011501Y023406D01*
X011476Y023444D01*
X011444Y023476D01*
X011406Y023501D01*
X011365Y023519D01*
X011320Y023527D01*
X011000Y023527D01*
X010680Y023527D01*
X010635Y023519D01*
X010594Y023501D01*
X010556Y023476D01*
X010524Y023444D01*
X010473Y023300D02*
X009537Y023300D01*
X009537Y023141D02*
X010473Y023141D01*
X010473Y023000D02*
X011000Y023000D01*
X011527Y023000D01*
X011000Y023000D01*
X011000Y023000D01*
X011000Y023000D01*
X011000Y023527D01*
X011000Y023000D01*
X011000Y022473D01*
X011000Y023000D01*
X011000Y023000D01*
X011000Y023000D01*
X010473Y023000D01*
X010473Y022983D02*
X009537Y022983D01*
X009537Y022824D02*
X010473Y022824D01*
X010475Y022666D02*
X009537Y022666D01*
X009441Y022507D02*
X010581Y022507D01*
X011000Y022507D02*
X011000Y022507D01*
X011000Y022666D02*
X011000Y022666D01*
X011000Y022824D02*
X011000Y022824D01*
X011000Y022983D02*
X011000Y022983D01*
X011000Y023141D02*
X011000Y023141D01*
X011000Y023300D02*
X011000Y023300D01*
X011000Y023458D02*
X011000Y023458D01*
X011462Y023458D02*
X011688Y023458D01*
X011688Y023300D02*
X011527Y023300D01*
X011527Y023141D02*
X011688Y023141D01*
X011688Y022983D02*
X011527Y022983D01*
X011527Y022824D02*
X011688Y022824D01*
X011688Y022666D02*
X011525Y022666D01*
X011419Y022507D02*
X011688Y022507D01*
X012328Y022507D02*
X012475Y022507D01*
X012475Y022349D02*
X012328Y022349D01*
X012328Y022190D02*
X012475Y022190D01*
X012475Y022032D02*
X012328Y022032D01*
X012328Y021873D02*
X012475Y021873D01*
X012475Y021715D02*
X012328Y021715D01*
X012328Y021556D02*
X012475Y021556D01*
X012475Y021398D02*
X012328Y021398D01*
X012328Y021239D02*
X012475Y021239D01*
X012475Y021081D02*
X012328Y021081D01*
X012328Y020922D02*
X012475Y020922D01*
X012475Y020764D02*
X012328Y020764D01*
X012328Y020605D02*
X012475Y020605D01*
X012475Y020447D02*
X012328Y020447D01*
X012328Y020288D02*
X012475Y020288D01*
X012475Y020130D02*
X012328Y020130D01*
X012328Y019971D02*
X012475Y019971D01*
X012475Y019813D02*
X012328Y019813D01*
X012328Y019654D02*
X012475Y019654D01*
X012475Y019496D02*
X012328Y019496D01*
X012328Y019337D02*
X012475Y019337D01*
X012475Y019179D02*
X012328Y019179D01*
X012328Y019020D02*
X012475Y019020D01*
X012506Y018862D02*
X012328Y018862D01*
X012328Y018703D02*
X012676Y018703D01*
X012795Y019000D02*
X012795Y028504D01*
X013393Y028530D02*
X013640Y028530D01*
X013640Y028372D02*
X013393Y028372D01*
X013393Y028213D02*
X013640Y028213D01*
X013640Y028055D02*
X013374Y028055D01*
X013115Y027896D02*
X013640Y027896D01*
X013640Y027738D02*
X013115Y027738D01*
X013115Y027579D02*
X013640Y027579D01*
X013640Y027421D02*
X013115Y027421D01*
X013115Y027262D02*
X013640Y027262D01*
X013640Y027104D02*
X013115Y027104D01*
X013115Y026945D02*
X013640Y026945D01*
X013640Y026787D02*
X013115Y026787D01*
X013115Y026628D02*
X013640Y026628D01*
X013640Y026470D02*
X013115Y026470D01*
X013115Y026311D02*
X013640Y026311D01*
X013640Y026153D02*
X013115Y026153D01*
X013115Y025994D02*
X013640Y025994D01*
X013640Y025836D02*
X013115Y025836D01*
X013115Y025677D02*
X013640Y025677D01*
X013640Y025519D02*
X013115Y025519D01*
X013115Y025360D02*
X013640Y025360D01*
X013640Y025202D02*
X013115Y025202D01*
X013115Y025043D02*
X013640Y025043D01*
X013640Y024885D02*
X013115Y024885D01*
X013115Y024726D02*
X013640Y024726D01*
X013640Y024568D02*
X013115Y024568D01*
X013115Y024409D02*
X013640Y024409D01*
X013640Y024251D02*
X013115Y024251D01*
X013115Y024092D02*
X013640Y024092D01*
X013640Y023934D02*
X013115Y023934D01*
X013115Y023775D02*
X013640Y023775D01*
X013640Y023617D02*
X013115Y023617D01*
X013115Y023458D02*
X013640Y023458D01*
X013640Y023300D02*
X013115Y023300D01*
X013115Y023141D02*
X013640Y023141D01*
X013640Y022983D02*
X013115Y022983D01*
X013115Y022824D02*
X013640Y022824D01*
X013640Y022666D02*
X013115Y022666D01*
X013115Y022507D02*
X013640Y022507D01*
X013640Y022349D02*
X013115Y022349D01*
X013115Y022190D02*
X013640Y022190D01*
X013640Y022032D02*
X013115Y022032D01*
X013115Y021873D02*
X013640Y021873D01*
X013640Y021715D02*
X013115Y021715D01*
X013115Y021556D02*
X013640Y021556D01*
X013640Y021398D02*
X013115Y021398D01*
X013115Y021239D02*
X013640Y021239D01*
X013640Y021081D02*
X013115Y021081D01*
X013115Y020922D02*
X013654Y020922D01*
X013764Y020764D02*
X013115Y020764D01*
X013115Y020605D02*
X023903Y020605D01*
X023999Y020447D02*
X017580Y020447D01*
X017597Y020405D02*
X017561Y020493D01*
X017493Y020561D01*
X017405Y020597D01*
X016595Y020597D01*
X016507Y020561D01*
X016439Y020493D01*
X016403Y020405D01*
X016403Y019595D01*
X016439Y019507D01*
X016507Y019439D01*
X016595Y019403D01*
X017405Y019403D01*
X017493Y019439D01*
X017561Y019507D01*
X017597Y019595D01*
X017597Y019680D01*
X026403Y019680D01*
X026403Y019595D01*
X026439Y019507D01*
X026507Y019439D01*
X026595Y019403D01*
X027405Y019403D01*
X027493Y019439D01*
X027561Y019507D01*
X027597Y019595D01*
X027597Y020405D01*
X027561Y020493D01*
X027493Y020561D01*
X027405Y020597D01*
X026595Y020597D01*
X026507Y020561D01*
X026439Y020493D01*
X026403Y020405D01*
X026403Y020320D01*
X017597Y020320D01*
X017597Y020405D01*
X017000Y020000D02*
X027000Y020000D01*
X027597Y019971D02*
X042252Y019971D01*
X042252Y019813D02*
X027597Y019813D01*
X027597Y019654D02*
X042252Y019654D01*
X042252Y019496D02*
X034282Y019496D01*
X034228Y019550D02*
X034010Y019550D01*
X034010Y019010D01*
X034550Y019010D01*
X034550Y019228D01*
X034228Y019550D01*
X034010Y019496D02*
X033990Y019496D01*
X033990Y019550D02*
X033772Y019550D01*
X033450Y019228D01*
X033450Y019010D01*
X033990Y019010D01*
X033990Y019550D01*
X033990Y019337D02*
X034010Y019337D01*
X034010Y019179D02*
X033990Y019179D01*
X033990Y019020D02*
X034010Y019020D01*
X034010Y019010D02*
X033990Y019010D01*
X033990Y018990D01*
X034010Y018990D01*
X034010Y019010D01*
X034010Y018990D02*
X034550Y018990D01*
X034550Y018772D01*
X034228Y018450D01*
X034010Y018450D01*
X034010Y018990D01*
X033990Y018990D02*
X033990Y018450D01*
X033772Y018450D01*
X033450Y018772D01*
X033450Y018990D01*
X033990Y018990D01*
X033990Y018862D02*
X034010Y018862D01*
X034010Y018703D02*
X033990Y018703D01*
X033990Y018545D02*
X034010Y018545D01*
X034322Y018545D02*
X038076Y018545D01*
X038080Y018550D02*
X038030Y018480D01*
X037990Y018403D01*
X037964Y018321D01*
X037950Y018235D01*
X037950Y018010D01*
X038490Y018010D01*
X038490Y018742D01*
X038457Y018742D01*
X038371Y018728D01*
X038289Y018702D01*
X038212Y018662D01*
X038142Y018612D01*
X038080Y018550D01*
X037985Y018386D02*
X025806Y018386D01*
X025960Y018232D02*
X025632Y018560D01*
X025168Y018560D01*
X024840Y018232D01*
X024840Y017768D01*
X025168Y017440D01*
X025632Y017440D01*
X025960Y017768D01*
X025960Y018232D01*
X025960Y018228D02*
X037950Y018228D01*
X037950Y018069D02*
X032974Y018069D01*
X033095Y017911D02*
X037950Y017911D01*
X037950Y017990D02*
X037950Y017765D01*
X037964Y017679D01*
X037990Y017597D01*
X038030Y017520D01*
X038080Y017450D01*
X038142Y017388D01*
X038212Y017338D01*
X038289Y017298D01*
X038371Y017272D01*
X038457Y017258D01*
X038490Y017258D01*
X038490Y017990D01*
X038510Y017990D01*
X038510Y017258D01*
X038543Y017258D01*
X038629Y017272D01*
X038711Y017298D01*
X038788Y017338D01*
X038858Y017388D01*
X038920Y017450D01*
X038970Y017520D01*
X038994Y017566D01*
X039025Y017491D01*
X039183Y017333D01*
X039389Y017248D01*
X039611Y017248D01*
X039817Y017333D01*
X039975Y017491D01*
X040000Y017552D01*
X040025Y017491D01*
X040183Y017333D01*
X040389Y017248D01*
X040611Y017248D01*
X040817Y017333D01*
X040975Y017491D01*
X041000Y017552D01*
X041025Y017491D01*
X041183Y017333D01*
X041389Y017248D01*
X041611Y017248D01*
X041817Y017333D01*
X041975Y017491D01*
X042060Y017697D01*
X042060Y018303D01*
X041975Y018509D01*
X041817Y018667D01*
X041611Y018752D01*
X041389Y018752D01*
X041183Y018667D01*
X041025Y018509D01*
X041000Y018448D01*
X040975Y018509D01*
X040817Y018667D01*
X040611Y018752D01*
X040389Y018752D01*
X040183Y018667D01*
X040025Y018509D01*
X040000Y018448D01*
X039975Y018509D01*
X039817Y018667D01*
X039611Y018752D01*
X039389Y018752D01*
X039183Y018667D01*
X039025Y018509D01*
X038994Y018434D01*
X038970Y018480D01*
X038920Y018550D01*
X038858Y018612D01*
X038788Y018662D01*
X038711Y018702D01*
X038629Y018728D01*
X038543Y018742D01*
X038510Y018742D01*
X038510Y018010D01*
X038490Y018010D01*
X038490Y017990D01*
X037950Y017990D01*
X037952Y017752D02*
X037701Y017752D01*
X037808Y017594D02*
X037992Y017594D01*
X038095Y017435D02*
X037820Y017435D01*
X037820Y017277D02*
X038356Y017277D01*
X038490Y017277D02*
X038510Y017277D01*
X038644Y017277D02*
X039320Y017277D01*
X039081Y017435D02*
X038905Y017435D01*
X038510Y017435D02*
X038490Y017435D01*
X038490Y017594D02*
X038510Y017594D01*
X038510Y017752D02*
X038490Y017752D01*
X038490Y017911D02*
X038510Y017911D01*
X038510Y018069D02*
X038490Y018069D01*
X038490Y018228D02*
X038510Y018228D01*
X038510Y018386D02*
X038490Y018386D01*
X038490Y018545D02*
X038510Y018545D01*
X038510Y018703D02*
X038490Y018703D01*
X038293Y018703D02*
X034481Y018703D01*
X034550Y018862D02*
X042252Y018862D01*
X042252Y019020D02*
X034550Y019020D01*
X034550Y019179D02*
X042252Y019179D01*
X042252Y019337D02*
X034441Y019337D01*
X033718Y019496D02*
X029296Y019496D01*
X029232Y019560D02*
X028768Y019560D01*
X028440Y019232D01*
X028440Y018768D01*
X028768Y018440D01*
X029232Y018440D01*
X029560Y018768D01*
X029560Y019232D01*
X029232Y019560D01*
X029455Y019337D02*
X033559Y019337D01*
X033450Y019179D02*
X029560Y019179D01*
X029560Y019020D02*
X033450Y019020D01*
X033450Y018862D02*
X029560Y018862D01*
X029495Y018703D02*
X033519Y018703D01*
X033678Y018545D02*
X029336Y018545D01*
X028664Y018545D02*
X025647Y018545D01*
X025153Y018545D02*
X023547Y018545D01*
X023706Y018386D02*
X024994Y018386D01*
X024840Y018228D02*
X023860Y018228D01*
X023860Y018069D02*
X024840Y018069D01*
X024840Y017911D02*
X023860Y017911D01*
X023844Y017752D02*
X024856Y017752D01*
X025015Y017594D02*
X023685Y017594D01*
X022894Y018386D02*
X020597Y018386D01*
X020597Y018228D02*
X022740Y018228D01*
X023053Y018545D02*
X021577Y018545D01*
X021597Y018703D02*
X028505Y018703D01*
X028440Y018862D02*
X021597Y018862D01*
X021597Y019020D02*
X028440Y019020D01*
X028440Y019179D02*
X021597Y019179D01*
X021597Y019337D02*
X028545Y019337D01*
X028704Y019496D02*
X027550Y019496D01*
X027597Y020130D02*
X042252Y020130D01*
X042252Y020288D02*
X027597Y020288D01*
X027580Y020447D02*
X028762Y020447D01*
X028768Y020440D02*
X029232Y020440D01*
X029560Y020768D01*
X029560Y021232D01*
X029232Y021560D01*
X028768Y021560D01*
X028440Y021232D01*
X028440Y020768D01*
X028768Y020440D01*
X028603Y020605D02*
X025097Y020605D01*
X025097Y020764D02*
X028445Y020764D01*
X028440Y020922D02*
X025097Y020922D01*
X025097Y021081D02*
X028440Y021081D01*
X028447Y021239D02*
X025097Y021239D01*
X025097Y021398D02*
X028606Y021398D01*
X028764Y021556D02*
X024998Y021556D01*
X024500Y021000D02*
X013960Y021020D01*
X013960Y029330D01*
X014280Y029323D02*
X018169Y029323D01*
X018169Y029164D02*
X014280Y029164D01*
X014280Y029006D02*
X018224Y029006D01*
X018311Y028847D02*
X014280Y028847D01*
X014280Y028689D02*
X018470Y028689D01*
X019255Y028689D02*
X019541Y028689D01*
X019529Y028660D02*
X019566Y028748D01*
X019633Y028816D01*
X019722Y028852D01*
X020459Y028852D01*
X020548Y028816D01*
X020586Y028778D01*
X020624Y028816D01*
X020712Y028852D01*
X021449Y028852D01*
X021470Y028844D01*
X021491Y028852D01*
X022229Y028852D01*
X022317Y028816D01*
X022353Y028780D01*
X022389Y028816D01*
X022478Y028852D01*
X023215Y028852D01*
X023304Y028816D01*
X023371Y028748D01*
X023408Y028660D01*
X023408Y027922D01*
X023371Y027834D01*
X023304Y027767D01*
X023215Y027730D01*
X022478Y027730D01*
X022389Y027767D01*
X022353Y027803D01*
X022317Y027767D01*
X022229Y027730D01*
X021491Y027730D01*
X021470Y027739D01*
X021449Y027730D01*
X020712Y027730D01*
X020624Y027767D01*
X020585Y027805D01*
X020548Y027767D01*
X020459Y027730D01*
X019722Y027730D01*
X019633Y027767D01*
X019566Y027834D01*
X019529Y027922D01*
X019529Y028660D01*
X019529Y028530D02*
X014280Y028530D01*
X014280Y028372D02*
X019529Y028372D01*
X019529Y028213D02*
X014280Y028213D01*
X014280Y028055D02*
X019529Y028055D01*
X019540Y027896D02*
X014280Y027896D01*
X014280Y027738D02*
X019704Y027738D01*
X019568Y027449D02*
X019109Y027449D01*
X018784Y027124D01*
X018784Y026664D01*
X019109Y026339D01*
X019568Y026339D01*
X019894Y026664D01*
X019894Y027124D01*
X019568Y027449D01*
X019597Y027421D02*
X020509Y027421D01*
X020503Y027405D02*
X020503Y026595D01*
X020539Y026507D01*
X020607Y026439D01*
X020695Y026403D01*
X021505Y026403D01*
X021593Y026439D01*
X021661Y026507D01*
X021697Y026595D01*
X021697Y026640D01*
X023403Y026640D01*
X023403Y026595D01*
X023439Y026507D01*
X023507Y026439D01*
X023595Y026403D01*
X024405Y026403D01*
X024493Y026439D01*
X024561Y026507D01*
X024597Y026595D01*
X024597Y027405D01*
X024561Y027493D01*
X024493Y027561D01*
X024405Y027597D01*
X023595Y027597D01*
X023507Y027561D01*
X023439Y027493D01*
X023403Y027405D01*
X023403Y027360D01*
X021697Y027360D01*
X021697Y027405D01*
X021661Y027493D01*
X021593Y027561D01*
X021505Y027597D01*
X020695Y027597D01*
X020607Y027561D01*
X020539Y027493D01*
X020503Y027405D01*
X020503Y027262D02*
X019755Y027262D01*
X019894Y027104D02*
X020503Y027104D01*
X020503Y026945D02*
X019894Y026945D01*
X019894Y026787D02*
X020503Y026787D01*
X020503Y026628D02*
X019858Y026628D01*
X019699Y026470D02*
X020576Y026470D01*
X021624Y026470D02*
X023476Y026470D01*
X023403Y026628D02*
X021697Y026628D01*
X021691Y027421D02*
X023409Y027421D01*
X023550Y027579D02*
X021550Y027579D01*
X021473Y027738D02*
X021468Y027738D01*
X020694Y027738D02*
X020477Y027738D01*
X020650Y027579D02*
X014280Y027579D01*
X014280Y027421D02*
X017081Y027421D01*
X017109Y027449D02*
X016784Y027124D01*
X016784Y026664D01*
X017109Y026339D01*
X017568Y026339D01*
X017894Y026664D01*
X017894Y027124D01*
X017568Y027449D01*
X017109Y027449D01*
X016922Y027262D02*
X014280Y027262D01*
X014280Y027104D02*
X016784Y027104D01*
X016784Y026945D02*
X014280Y026945D01*
X014280Y026787D02*
X016784Y026787D01*
X016819Y026628D02*
X014280Y026628D01*
X014280Y026470D02*
X016978Y026470D01*
X017699Y026470D02*
X018978Y026470D01*
X018819Y026628D02*
X017858Y026628D01*
X017894Y026787D02*
X018784Y026787D01*
X018784Y026945D02*
X017894Y026945D01*
X017894Y027104D02*
X018784Y027104D01*
X018922Y027262D02*
X017755Y027262D01*
X017597Y027421D02*
X019081Y027421D01*
X019413Y028847D02*
X019709Y028847D01*
X019500Y029006D02*
X023421Y029006D01*
X023366Y029164D02*
X019555Y029164D01*
X019555Y029323D02*
X023366Y029323D01*
X023394Y029481D02*
X019527Y029481D01*
X019461Y029640D02*
X023460Y029640D01*
X023602Y029798D02*
X019319Y029798D01*
X018405Y029798D02*
X016857Y029798D01*
X015228Y029640D02*
X014630Y029640D01*
X014857Y029798D02*
X015001Y029798D01*
X013640Y029006D02*
X013348Y029006D01*
X013393Y028847D02*
X013640Y028847D01*
X013640Y028689D02*
X013393Y028689D01*
X012475Y027896D02*
X012015Y027896D01*
X012015Y027738D02*
X012475Y027738D01*
X012475Y027579D02*
X012015Y027579D01*
X012015Y027421D02*
X012475Y027421D01*
X012475Y027262D02*
X012015Y027262D01*
X011994Y027104D02*
X012475Y027104D01*
X012475Y026945D02*
X011737Y026945D01*
X011737Y026787D02*
X012475Y026787D01*
X012475Y026628D02*
X011737Y026628D01*
X011737Y026470D02*
X012475Y026470D01*
X012475Y026311D02*
X012212Y026311D01*
X012317Y026153D02*
X012475Y026153D01*
X012475Y025994D02*
X012328Y025994D01*
X012328Y025836D02*
X012475Y025836D01*
X012475Y025677D02*
X012328Y025677D01*
X012328Y025519D02*
X012475Y025519D01*
X012475Y025360D02*
X012328Y025360D01*
X012328Y025202D02*
X012475Y025202D01*
X012475Y025043D02*
X012328Y025043D01*
X012328Y024885D02*
X012475Y024885D01*
X012475Y024726D02*
X012328Y024726D01*
X012328Y024568D02*
X012475Y024568D01*
X012475Y024409D02*
X012328Y024409D01*
X012328Y024251D02*
X012475Y024251D01*
X012475Y024092D02*
X012328Y024092D01*
X012328Y023934D02*
X012475Y023934D01*
X012475Y023775D02*
X012328Y023775D01*
X012328Y023617D02*
X012475Y023617D01*
X012475Y023458D02*
X012328Y023458D01*
X012328Y023300D02*
X012475Y023300D01*
X012475Y023141D02*
X012328Y023141D01*
X012328Y022983D02*
X012475Y022983D01*
X012475Y022824D02*
X012328Y022824D01*
X012328Y022666D02*
X012475Y022666D01*
X014280Y022190D02*
X038266Y022190D01*
X038289Y022202D02*
X038212Y022162D01*
X038142Y022112D01*
X038080Y022050D01*
X038030Y021980D01*
X037990Y021903D01*
X037964Y021821D01*
X037950Y021735D01*
X037950Y021510D01*
X038490Y021510D01*
X038490Y022242D01*
X038457Y022242D01*
X038371Y022228D01*
X038289Y022202D01*
X038490Y022190D02*
X038510Y022190D01*
X038510Y022242D02*
X038510Y021510D01*
X038490Y021510D01*
X038490Y021490D01*
X038510Y021490D01*
X038510Y020758D01*
X038543Y020758D01*
X038629Y020772D01*
X038711Y020798D01*
X038788Y020838D01*
X038858Y020888D01*
X038920Y020950D01*
X038970Y021020D01*
X038994Y021066D01*
X039025Y020991D01*
X039183Y020833D01*
X039389Y020748D01*
X039611Y020748D01*
X039817Y020833D01*
X039975Y020991D01*
X040000Y021052D01*
X040025Y020991D01*
X040183Y020833D01*
X040389Y020748D01*
X040611Y020748D01*
X040817Y020833D01*
X040975Y020991D01*
X041000Y021052D01*
X041025Y020991D01*
X041183Y020833D01*
X041389Y020748D01*
X041611Y020748D01*
X041817Y020833D01*
X041975Y020991D01*
X042060Y021197D01*
X042060Y021803D01*
X041975Y022009D01*
X041817Y022167D01*
X041611Y022252D01*
X041389Y022252D01*
X041183Y022167D01*
X041025Y022009D01*
X041000Y021948D01*
X040975Y022009D01*
X040817Y022167D01*
X040611Y022252D01*
X040389Y022252D01*
X040183Y022167D01*
X040025Y022009D01*
X040000Y021948D01*
X039975Y022009D01*
X039817Y022167D01*
X039611Y022252D01*
X039389Y022252D01*
X039183Y022167D01*
X039025Y022009D01*
X038994Y021934D01*
X038970Y021980D01*
X038920Y022050D01*
X038858Y022112D01*
X038788Y022162D01*
X038711Y022202D01*
X038629Y022228D01*
X038543Y022242D01*
X038510Y022242D01*
X038490Y022032D02*
X038510Y022032D01*
X038510Y021873D02*
X038490Y021873D01*
X038490Y021715D02*
X038510Y021715D01*
X038510Y021556D02*
X038490Y021556D01*
X038490Y021490D02*
X037950Y021490D01*
X037950Y021265D01*
X037964Y021179D01*
X037990Y021097D01*
X038030Y021020D01*
X038080Y020950D01*
X038142Y020888D01*
X038212Y020838D01*
X038289Y020798D01*
X038371Y020772D01*
X038457Y020758D01*
X038490Y020758D01*
X038490Y021490D01*
X038490Y021398D02*
X038510Y021398D01*
X038510Y021239D02*
X038490Y021239D01*
X038490Y021081D02*
X038510Y021081D01*
X038510Y020922D02*
X038490Y020922D01*
X038490Y020764D02*
X038510Y020764D01*
X038578Y020764D02*
X039351Y020764D01*
X039649Y020764D02*
X040351Y020764D01*
X040649Y020764D02*
X041351Y020764D01*
X041649Y020764D02*
X042252Y020764D01*
X042252Y020922D02*
X041906Y020922D01*
X042012Y021081D02*
X042252Y021081D01*
X042252Y021239D02*
X042060Y021239D01*
X042060Y021398D02*
X042252Y021398D01*
X042252Y021556D02*
X042060Y021556D01*
X042060Y021715D02*
X042252Y021715D01*
X042252Y021873D02*
X042031Y021873D01*
X041952Y022032D02*
X042252Y022032D01*
X042252Y022190D02*
X041761Y022190D01*
X041239Y022190D02*
X040761Y022190D01*
X040952Y022032D02*
X041048Y022032D01*
X040239Y022190D02*
X039761Y022190D01*
X039952Y022032D02*
X040048Y022032D01*
X039239Y022190D02*
X038734Y022190D01*
X038933Y022032D02*
X039048Y022032D01*
X038067Y022032D02*
X014280Y022032D01*
X014280Y021873D02*
X037981Y021873D01*
X037950Y021715D02*
X014280Y021715D01*
X014280Y021556D02*
X024002Y021556D01*
X023903Y021398D02*
X014280Y021398D01*
X013115Y020447D02*
X016420Y020447D01*
X016403Y020288D02*
X013115Y020288D01*
X013115Y020130D02*
X016403Y020130D01*
X016403Y019971D02*
X013115Y019971D01*
X013115Y019813D02*
X016403Y019813D01*
X016403Y019654D02*
X013115Y019654D01*
X013115Y019496D02*
X016450Y019496D01*
X017550Y019496D02*
X020441Y019496D01*
X020403Y019337D02*
X013115Y019337D01*
X012795Y019000D02*
X021000Y019000D01*
X021559Y019496D02*
X026450Y019496D01*
X026403Y019654D02*
X017597Y019654D01*
X019490Y018545D02*
X012328Y018545D01*
X012328Y018386D02*
X019403Y018386D01*
X019239Y016577D02*
X018761Y016577D01*
X018500Y016316D01*
X018239Y016577D01*
X017761Y016577D01*
X017500Y016316D01*
X017239Y016577D01*
X016761Y016577D01*
X016493Y016309D01*
X016235Y016567D01*
X016018Y016567D01*
X016018Y016018D01*
X015982Y016018D01*
X015982Y016567D01*
X015765Y016567D01*
X015507Y016309D01*
X015239Y016577D01*
X014761Y016577D01*
X014423Y016239D01*
X014423Y015761D01*
X014761Y015423D01*
X015239Y015423D01*
X015507Y015691D01*
X015765Y015433D01*
X015982Y015433D01*
X015982Y015982D01*
X016018Y015982D01*
X016018Y015433D01*
X016235Y015433D01*
X016493Y015691D01*
X016761Y015423D01*
X017239Y015423D01*
X017500Y015684D01*
X017761Y015423D01*
X018239Y015423D01*
X018500Y015684D01*
X018761Y015423D01*
X019239Y015423D01*
X019500Y015684D01*
X019761Y015423D01*
X020239Y015423D01*
X020500Y015684D01*
X020761Y015423D01*
X021239Y015423D01*
X021500Y015684D01*
X021761Y015423D01*
X022239Y015423D01*
X022500Y015684D01*
X022761Y015423D01*
X023239Y015423D01*
X023500Y015684D01*
X023761Y015423D01*
X024239Y015423D01*
X024500Y015684D01*
X024761Y015423D01*
X025239Y015423D01*
X025500Y015684D01*
X025761Y015423D01*
X026239Y015423D01*
X026500Y015684D01*
X026761Y015423D01*
X027239Y015423D01*
X027500Y015684D01*
X027761Y015423D01*
X028239Y015423D01*
X028500Y015684D01*
X028761Y015423D01*
X029239Y015423D01*
X029500Y015684D01*
X029761Y015423D01*
X030239Y015423D01*
X030500Y015684D01*
X030761Y015423D01*
X031239Y015423D01*
X031500Y015684D01*
X031761Y015423D01*
X032239Y015423D01*
X032500Y015684D01*
X032761Y015423D01*
X033239Y015423D01*
X033500Y015684D01*
X033761Y015423D01*
X034239Y015423D01*
X034577Y015761D01*
X034577Y016239D01*
X034239Y016577D01*
X033761Y016577D01*
X033500Y016316D01*
X033239Y016577D01*
X032761Y016577D01*
X032500Y016316D01*
X032239Y016577D01*
X031761Y016577D01*
X031500Y016316D01*
X031239Y016577D01*
X030761Y016577D01*
X030500Y016316D01*
X030239Y016577D01*
X029761Y016577D01*
X029500Y016316D01*
X029239Y016577D01*
X028761Y016577D01*
X028500Y016316D01*
X028239Y016577D01*
X027761Y016577D01*
X027500Y016316D01*
X027239Y016577D01*
X026761Y016577D01*
X026500Y016316D01*
X026239Y016577D01*
X025761Y016577D01*
X025500Y016316D01*
X025239Y016577D01*
X024761Y016577D01*
X024500Y016316D01*
X024239Y016577D01*
X023761Y016577D01*
X023500Y016316D01*
X023239Y016577D01*
X022761Y016577D01*
X022500Y016316D01*
X022239Y016577D01*
X021761Y016577D01*
X021500Y016316D01*
X021239Y016577D01*
X020761Y016577D01*
X020500Y016316D01*
X020239Y016577D01*
X019761Y016577D01*
X019500Y016316D01*
X019239Y016577D01*
X019332Y016484D02*
X019668Y016484D01*
X019510Y016326D02*
X019490Y016326D01*
X019349Y015533D02*
X019651Y015533D01*
X020349Y015533D02*
X020651Y015533D01*
X021349Y015533D02*
X021651Y015533D01*
X022349Y015533D02*
X022651Y015533D01*
X023349Y015533D02*
X023651Y015533D01*
X023510Y016326D02*
X023490Y016326D01*
X023332Y016484D02*
X023668Y016484D01*
X022668Y016484D02*
X022332Y016484D01*
X022490Y016326D02*
X022510Y016326D01*
X021668Y016484D02*
X021332Y016484D01*
X021490Y016326D02*
X021510Y016326D01*
X020668Y016484D02*
X020332Y016484D01*
X020490Y016326D02*
X020510Y016326D01*
X018918Y014424D02*
X022332Y014424D01*
X022173Y014265D02*
X019077Y014265D01*
X019110Y014107D02*
X022140Y014107D01*
X022140Y013948D02*
X019110Y013948D01*
X019110Y013790D02*
X022140Y013790D01*
X022277Y013631D02*
X018973Y013631D01*
X018127Y013631D02*
X014323Y013631D01*
X014460Y013768D02*
X014132Y013440D01*
X013668Y013440D01*
X013340Y013768D01*
X013340Y014232D01*
X013668Y014560D01*
X014132Y014560D01*
X014460Y014232D01*
X014460Y013768D01*
X014460Y013790D02*
X017990Y013790D01*
X017990Y013948D02*
X014460Y013948D01*
X014460Y014107D02*
X017990Y014107D01*
X018023Y014265D02*
X014427Y014265D01*
X014268Y014424D02*
X018182Y014424D01*
X018349Y015533D02*
X018651Y015533D01*
X018510Y016326D02*
X018490Y016326D01*
X018332Y016484D02*
X018668Y016484D01*
X017668Y016484D02*
X017332Y016484D01*
X017490Y016326D02*
X017510Y016326D01*
X017651Y015533D02*
X017349Y015533D01*
X016651Y015533D02*
X016335Y015533D01*
X016018Y015533D02*
X015982Y015533D01*
X015982Y015692D02*
X016018Y015692D01*
X016018Y015850D02*
X015982Y015850D01*
X015982Y016167D02*
X016018Y016167D01*
X016018Y016326D02*
X015982Y016326D01*
X015982Y016484D02*
X016018Y016484D01*
X016318Y016484D02*
X016668Y016484D01*
X016510Y016326D02*
X016476Y016326D01*
X015682Y016484D02*
X015332Y016484D01*
X015490Y016326D02*
X015524Y016326D01*
X015665Y015533D02*
X015349Y015533D01*
X014651Y015533D02*
X006911Y015533D01*
X006958Y015486D02*
X006806Y015638D01*
X006607Y015720D01*
X006393Y015720D01*
X006194Y015638D01*
X006042Y015486D01*
X006000Y015384D01*
X005958Y015486D01*
X005806Y015638D01*
X005607Y015720D01*
X005393Y015720D01*
X005194Y015638D01*
X005042Y015486D01*
X005000Y015384D01*
X004958Y015486D01*
X004806Y015638D01*
X004607Y015720D01*
X004393Y015720D01*
X004194Y015638D01*
X004042Y015486D01*
X003995Y015372D01*
X003991Y015383D01*
X003953Y015458D01*
X003904Y015525D01*
X003845Y015584D01*
X003778Y015633D01*
X003703Y015671D01*
X003624Y015697D01*
X003542Y015710D01*
X003500Y015710D01*
X003500Y015000D01*
X003500Y015000D01*
X003500Y015000D01*
X002970Y015000D01*
X002970Y015222D01*
X002983Y015304D01*
X003009Y015383D01*
X003047Y015458D01*
X003096Y015525D01*
X003155Y015584D01*
X003222Y015633D01*
X003297Y015671D01*
X003376Y015697D01*
X003458Y015710D01*
X003500Y015710D01*
X003500Y015000D01*
X003500Y014290D01*
X003542Y014290D01*
X003624Y014303D01*
X003703Y014329D01*
X003778Y014367D01*
X003845Y014416D01*
X003904Y014475D01*
X003953Y014542D01*
X003991Y014617D01*
X003995Y014628D01*
X004042Y014514D01*
X004194Y014362D01*
X004393Y014280D01*
X004607Y014280D01*
X004806Y014362D01*
X004958Y014514D01*
X005000Y014616D01*
X005042Y014514D01*
X005194Y014362D01*
X005393Y014280D01*
X005607Y014280D01*
X005806Y014362D01*
X005958Y014514D01*
X006000Y014616D01*
X006042Y014514D01*
X006194Y014362D01*
X006393Y014280D01*
X006607Y014280D01*
X006806Y014362D01*
X006958Y014514D01*
X007040Y014713D01*
X007040Y015287D01*
X006958Y015486D01*
X007004Y015375D02*
X037180Y015375D01*
X037180Y015533D02*
X034349Y015533D01*
X034507Y015692D02*
X037180Y015692D01*
X037180Y015850D02*
X034577Y015850D01*
X034577Y016009D02*
X037180Y016009D01*
X037180Y016167D02*
X034577Y016167D01*
X034490Y016326D02*
X037180Y016326D01*
X037180Y016484D02*
X034332Y016484D01*
X033668Y016484D02*
X033332Y016484D01*
X033490Y016326D02*
X033510Y016326D01*
X033014Y016960D02*
X037180Y016960D01*
X037180Y017118D02*
X033097Y017118D01*
X032500Y017500D02*
X037500Y017500D01*
X037500Y002000D01*
X031500Y002000D01*
X031500Y000410D01*
X006500Y000410D01*
X006500Y004000D01*
X003000Y004000D01*
X003000Y005000D01*
X003480Y005072D02*
X003936Y005072D01*
X004038Y004970D02*
X004502Y004970D01*
X004830Y005298D01*
X004830Y005762D01*
X004502Y006090D01*
X004038Y006090D01*
X003710Y005762D01*
X003710Y005298D01*
X004038Y004970D01*
X003778Y005231D02*
X003473Y005231D01*
X003315Y005389D02*
X003710Y005389D01*
X003710Y005548D02*
X002730Y005548D01*
X002730Y005706D02*
X003710Y005706D01*
X003813Y005865D02*
X002589Y005865D01*
X002431Y006023D02*
X003971Y006023D01*
X004569Y006023D02*
X005060Y006023D01*
X005060Y005865D02*
X004727Y005865D01*
X004830Y005706D02*
X005122Y005706D01*
X005060Y005768D02*
X005388Y005440D01*
X005852Y005440D01*
X006180Y005768D01*
X006180Y006232D01*
X005852Y006560D01*
X005388Y006560D01*
X005060Y006232D01*
X005060Y005768D01*
X005281Y005548D02*
X004830Y005548D01*
X004830Y005389D02*
X010640Y005389D01*
X010640Y005231D02*
X004762Y005231D01*
X004604Y005072D02*
X010640Y005072D01*
X010640Y004914D02*
X003480Y004914D01*
X003459Y004755D02*
X010640Y004755D01*
X010640Y004597D02*
X003320Y004597D01*
X003320Y004438D02*
X010640Y004438D01*
X010640Y004280D02*
X006661Y004280D01*
X006796Y004121D02*
X010640Y004121D01*
X010640Y003963D02*
X009562Y003963D01*
X009533Y003992D02*
X009319Y004080D01*
X008681Y004080D01*
X008467Y003992D01*
X008304Y003829D01*
X008216Y003615D01*
X008216Y003385D01*
X008304Y003171D01*
X008467Y003008D01*
X008487Y003000D01*
X008467Y002992D01*
X008304Y002829D01*
X008216Y002615D01*
X008216Y002385D01*
X008304Y002171D01*
X008467Y002008D01*
X008506Y001992D01*
X008497Y001988D01*
X008425Y001935D01*
X008361Y001871D01*
X008308Y001799D01*
X008268Y001719D01*
X008240Y001633D01*
X008226Y001545D01*
X008226Y001520D01*
X008980Y001520D01*
X008980Y001480D01*
X009020Y001480D01*
X009020Y001520D01*
X009774Y001520D01*
X009774Y001545D01*
X009760Y001633D01*
X009732Y001719D01*
X009692Y001799D01*
X009639Y001871D01*
X009575Y001935D01*
X009503Y001988D01*
X009494Y001992D01*
X009533Y002008D01*
X009696Y002171D01*
X009784Y002385D01*
X009784Y002615D01*
X009696Y002829D01*
X009533Y002992D01*
X009513Y003000D01*
X009533Y003008D01*
X009696Y003171D01*
X009784Y003385D01*
X009784Y003615D01*
X009696Y003829D01*
X009533Y003992D01*
X009706Y003804D02*
X010640Y003804D01*
X010640Y003646D02*
X009772Y003646D01*
X009784Y003487D02*
X010640Y003487D01*
X010640Y003329D02*
X009761Y003329D01*
X009694Y003170D02*
X010640Y003170D01*
X010640Y003012D02*
X009536Y003012D01*
X009671Y002853D02*
X010640Y002853D01*
X010640Y002695D02*
X009751Y002695D01*
X009784Y002536D02*
X010640Y002536D01*
X010661Y002378D02*
X009781Y002378D01*
X009715Y002219D02*
X010772Y002219D01*
X011360Y003012D02*
X014250Y003012D01*
X014250Y003170D02*
X013946Y003170D01*
X014102Y003329D02*
X014119Y003329D01*
X014105Y003963D02*
X014115Y003963D01*
X014266Y004121D02*
X013955Y004121D01*
X013860Y004280D02*
X015380Y004280D01*
X015380Y004438D02*
X013860Y004438D01*
X013860Y004597D02*
X015380Y004597D01*
X015380Y004755D02*
X013860Y004755D01*
X013860Y004914D02*
X015380Y004914D01*
X015380Y005072D02*
X013860Y005072D01*
X013860Y005231D02*
X015380Y005231D01*
X015380Y005389D02*
X015130Y005389D01*
X015122Y005370D02*
X015139Y005412D01*
X015148Y005456D01*
X015148Y005797D01*
X014600Y005797D01*
X014600Y005834D01*
X015148Y005834D01*
X015148Y006175D01*
X015139Y006220D01*
X015122Y006262D01*
X015097Y006299D01*
X015065Y006331D01*
X015027Y006356D01*
X014985Y006374D01*
X014941Y006383D01*
X014600Y006383D01*
X014600Y005834D01*
X014563Y005834D01*
X014563Y006383D01*
X014222Y006383D01*
X014177Y006374D01*
X014135Y006356D01*
X014098Y006331D01*
X014066Y006299D01*
X014040Y006262D01*
X014023Y006220D01*
X014014Y006175D01*
X014014Y005834D01*
X014563Y005834D01*
X014563Y005797D01*
X014600Y005797D01*
X014600Y005249D01*
X014941Y005249D01*
X014985Y005258D01*
X015027Y005275D01*
X015065Y005300D01*
X015097Y005332D01*
X015122Y005370D01*
X015148Y005548D02*
X015380Y005548D01*
X015380Y005706D02*
X015148Y005706D01*
X015148Y005865D02*
X015380Y005865D01*
X015380Y006023D02*
X015148Y006023D01*
X015147Y006182D02*
X015380Y006182D01*
X015380Y006340D02*
X015051Y006340D01*
X015380Y006499D02*
X013860Y006499D01*
X013860Y006657D02*
X015380Y006657D01*
X015380Y006816D02*
X013860Y006816D01*
X013860Y006974D02*
X015380Y006974D01*
X015380Y007133D02*
X015129Y007133D01*
X015121Y007115D02*
X015158Y007203D01*
X015158Y007972D01*
X015121Y008060D01*
X015054Y008128D01*
X014966Y008164D01*
X014197Y008164D01*
X014108Y008128D01*
X014041Y008060D01*
X014004Y007972D01*
X014004Y007203D01*
X014041Y007115D01*
X014108Y007047D01*
X014197Y007011D01*
X014966Y007011D01*
X015054Y007047D01*
X015121Y007115D01*
X015158Y007291D02*
X015380Y007291D01*
X015380Y007450D02*
X015158Y007450D01*
X015158Y007608D02*
X015380Y007608D01*
X015380Y007767D02*
X015158Y007767D01*
X015158Y007925D02*
X015380Y007925D01*
X015380Y008084D02*
X015098Y008084D01*
X015380Y008242D02*
X013360Y008242D01*
X013360Y008084D02*
X014064Y008084D01*
X014004Y007925D02*
X013360Y007925D01*
X013743Y007767D02*
X014004Y007767D01*
X014004Y007608D02*
X013845Y007608D01*
X013860Y007450D02*
X014004Y007450D01*
X014004Y007291D02*
X013860Y007291D01*
X013860Y007133D02*
X014033Y007133D01*
X014111Y006340D02*
X013860Y006340D01*
X013860Y006182D02*
X014015Y006182D01*
X014014Y006023D02*
X013860Y006023D01*
X013860Y005865D02*
X014014Y005865D01*
X014014Y005797D02*
X014014Y005456D01*
X014023Y005412D01*
X014040Y005370D01*
X014066Y005332D01*
X014098Y005300D01*
X014135Y005275D01*
X014177Y005258D01*
X014222Y005249D01*
X014563Y005249D01*
X014563Y005797D01*
X014014Y005797D01*
X014014Y005706D02*
X013860Y005706D01*
X013860Y005548D02*
X014014Y005548D01*
X014033Y005389D02*
X013860Y005389D01*
X013140Y005389D02*
X012581Y005389D01*
X012599Y005431D02*
X012562Y005343D01*
X012495Y005275D01*
X012407Y005239D01*
X011637Y005239D01*
X011549Y005275D01*
X011482Y005343D01*
X011445Y005431D01*
X011445Y006200D01*
X011482Y006289D01*
X011549Y006356D01*
X011637Y006393D01*
X012407Y006393D01*
X012495Y006356D01*
X012562Y006289D01*
X012599Y006200D01*
X012599Y005431D01*
X012599Y005548D02*
X013140Y005548D01*
X013140Y005706D02*
X012599Y005706D01*
X012599Y005865D02*
X013140Y005865D01*
X013140Y006023D02*
X012599Y006023D01*
X012599Y006182D02*
X013140Y006182D01*
X013140Y006340D02*
X012511Y006340D01*
X013140Y006499D02*
X011056Y006499D01*
X011120Y006340D02*
X011533Y006340D01*
X011445Y006182D02*
X011314Y006182D01*
X011360Y006023D02*
X011445Y006023D01*
X011445Y005865D02*
X011360Y005865D01*
X011360Y005706D02*
X011445Y005706D01*
X011445Y005548D02*
X011360Y005548D01*
X011360Y005389D02*
X011463Y005389D01*
X011360Y005231D02*
X013140Y005231D01*
X013140Y005072D02*
X011360Y005072D01*
X011360Y004914D02*
X013140Y004914D01*
X013140Y004755D02*
X011360Y004755D01*
X011360Y004597D02*
X013140Y004597D01*
X013140Y004438D02*
X011360Y004438D01*
X011360Y004280D02*
X013140Y004280D01*
X013140Y004121D02*
X012955Y004121D01*
X013105Y003963D02*
X013115Y003963D01*
X013102Y003329D02*
X013119Y003329D01*
X013274Y003170D02*
X012946Y003170D01*
X012274Y003170D02*
X011360Y003170D01*
X011360Y003329D02*
X012119Y003329D01*
X012053Y003487D02*
X011360Y003487D01*
X011360Y003646D02*
X012033Y003646D01*
X012050Y003804D02*
X011360Y003804D01*
X011360Y003963D02*
X012115Y003963D01*
X012266Y004121D02*
X011360Y004121D01*
X009922Y005548D02*
X007639Y005548D01*
X007532Y005440D02*
X007860Y005768D01*
X007860Y006232D01*
X007532Y006560D01*
X007068Y006560D01*
X006740Y006232D01*
X006740Y005768D01*
X007068Y005440D01*
X007532Y005440D01*
X007798Y005706D02*
X009903Y005706D01*
X009903Y005865D02*
X007860Y005865D01*
X007860Y006023D02*
X009903Y006023D01*
X009903Y006182D02*
X007860Y006182D01*
X007752Y006340D02*
X009903Y006340D01*
X009944Y006499D02*
X009162Y006499D01*
X009024Y006360D02*
X009340Y006676D01*
X009340Y007124D01*
X009064Y007400D01*
X009340Y007676D01*
X009340Y008124D01*
X009024Y008440D01*
X008576Y008440D01*
X008260Y008124D01*
X008260Y007940D01*
X007826Y007940D01*
X007510Y007624D01*
X007510Y007176D01*
X007826Y006860D01*
X008260Y006860D01*
X008260Y006676D01*
X008576Y006360D01*
X009024Y006360D01*
X009321Y006657D02*
X013140Y006657D01*
X013140Y006816D02*
X009340Y006816D01*
X009340Y006974D02*
X013140Y006974D01*
X013140Y007133D02*
X012570Y007133D01*
X012562Y007115D02*
X012599Y007203D01*
X012599Y007972D01*
X012562Y008060D01*
X012495Y008128D01*
X012407Y008164D01*
X011637Y008164D01*
X011549Y008128D01*
X011482Y008060D01*
X011445Y007972D01*
X011445Y007203D01*
X011482Y007115D01*
X011549Y007047D01*
X011637Y007011D01*
X012407Y007011D01*
X012495Y007047D01*
X012562Y007115D01*
X012599Y007291D02*
X012700Y007291D01*
X012640Y007450D02*
X012599Y007450D01*
X012599Y007608D02*
X012640Y007608D01*
X012640Y007767D02*
X012599Y007767D01*
X012599Y007925D02*
X012640Y007925D01*
X012640Y008084D02*
X012539Y008084D01*
X012640Y008242D02*
X009222Y008242D01*
X009340Y008084D02*
X011505Y008084D01*
X011445Y007925D02*
X009340Y007925D01*
X009340Y007767D02*
X011445Y007767D01*
X011445Y007608D02*
X009272Y007608D01*
X009113Y007450D02*
X011445Y007450D01*
X011445Y007291D02*
X009173Y007291D01*
X009331Y007133D02*
X011474Y007133D01*
X012640Y008401D02*
X009063Y008401D01*
X008537Y008401D02*
X006855Y008401D01*
X006855Y008530D02*
X006530Y008855D01*
X006070Y008855D01*
X005745Y008530D01*
X005745Y008070D01*
X006070Y007745D01*
X006530Y007745D01*
X006855Y008070D01*
X006855Y008530D01*
X006826Y008559D02*
X012640Y008559D01*
X012640Y008718D02*
X006667Y008718D01*
X006855Y008242D02*
X008378Y008242D01*
X008260Y008084D02*
X006855Y008084D01*
X006710Y007925D02*
X007811Y007925D01*
X007653Y007767D02*
X006551Y007767D01*
X006049Y007767D02*
X002991Y007767D01*
X003054Y007608D02*
X007510Y007608D01*
X007510Y007450D02*
X003054Y007450D01*
X003015Y007291D02*
X007510Y007291D01*
X007554Y007133D02*
X002927Y007133D01*
X002720Y006974D02*
X007712Y006974D01*
X007593Y006499D02*
X008438Y006499D01*
X008279Y006657D02*
X001240Y006657D01*
X001240Y006499D02*
X005327Y006499D01*
X005168Y006340D02*
X001240Y006340D01*
X001240Y006182D02*
X005060Y006182D01*
X005913Y006499D02*
X007007Y006499D01*
X006848Y006340D02*
X006072Y006340D01*
X006180Y006182D02*
X006740Y006182D01*
X006740Y006023D02*
X006180Y006023D01*
X006180Y005865D02*
X006740Y005865D01*
X006802Y005706D02*
X006118Y005706D01*
X005959Y005548D02*
X006961Y005548D01*
X006820Y003963D02*
X008438Y003963D01*
X008294Y003804D02*
X006820Y003804D01*
X006820Y003646D02*
X008228Y003646D01*
X008216Y003487D02*
X006820Y003487D01*
X006820Y003329D02*
X008239Y003329D01*
X008306Y003170D02*
X006820Y003170D01*
X006820Y003012D02*
X008464Y003012D01*
X008329Y002853D02*
X006820Y002853D01*
X006820Y002695D02*
X008249Y002695D01*
X008216Y002536D02*
X006820Y002536D01*
X006820Y002378D02*
X008219Y002378D01*
X008285Y002219D02*
X006820Y002219D01*
X006820Y002061D02*
X008415Y002061D01*
X008392Y001902D02*
X006820Y001902D01*
X006820Y001744D02*
X008280Y001744D01*
X008232Y001585D02*
X006820Y001585D01*
X006820Y001427D02*
X006949Y001427D01*
X007290Y001427D02*
X007310Y001427D01*
X007310Y001550D02*
X007310Y001010D01*
X007850Y001010D01*
X007850Y001228D01*
X007528Y001550D01*
X007310Y001550D01*
X007290Y001268D02*
X007310Y001268D01*
X007310Y001110D02*
X007290Y001110D01*
X007651Y001427D02*
X008231Y001427D01*
X008226Y001455D02*
X008240Y001367D01*
X008268Y001281D01*
X008308Y001201D01*
X008361Y001129D01*
X008425Y001065D01*
X008497Y001012D01*
X008577Y000972D01*
X008663Y000944D01*
X008751Y000930D01*
X008980Y000930D01*
X008980Y001480D01*
X008226Y001480D01*
X008226Y001455D01*
X008274Y001268D02*
X007810Y001268D01*
X007850Y001110D02*
X008380Y001110D01*
X008641Y000951D02*
X007850Y000951D01*
X007850Y000793D02*
X025355Y000793D01*
X025280Y000951D02*
X017743Y000951D01*
X017732Y000940D02*
X018060Y001268D01*
X025280Y001268D01*
X025280Y001110D02*
X017901Y001110D01*
X018060Y001268D02*
X018060Y001732D01*
X017732Y002060D01*
X017268Y002060D01*
X016940Y001732D01*
X016940Y001268D01*
X013060Y001268D01*
X012732Y000940D01*
X012268Y000940D01*
X011940Y001268D01*
X009726Y001268D01*
X009732Y001281D02*
X009760Y001367D01*
X009774Y001455D01*
X009774Y001480D01*
X009020Y001480D01*
X009020Y000930D01*
X009249Y000930D01*
X009337Y000944D01*
X009423Y000972D01*
X009503Y001012D01*
X009575Y001065D01*
X009639Y001129D01*
X009692Y001201D01*
X009732Y001281D01*
X009769Y001427D02*
X011940Y001427D01*
X011940Y001585D02*
X009768Y001585D01*
X009720Y001744D02*
X011952Y001744D01*
X011940Y001732D02*
X011940Y001268D01*
X012099Y001110D02*
X009620Y001110D01*
X009359Y000951D02*
X012257Y000951D01*
X012743Y000951D02*
X017257Y000951D01*
X017268Y000940D02*
X017732Y000940D01*
X017268Y000940D02*
X016940Y001268D01*
X016940Y001427D02*
X013060Y001427D01*
X013060Y001585D02*
X016940Y001585D01*
X016952Y001744D02*
X013048Y001744D01*
X013060Y001732D02*
X012732Y002060D01*
X012268Y002060D01*
X011940Y001732D01*
X012110Y001902D02*
X009608Y001902D01*
X009585Y002061D02*
X025280Y002061D01*
X025280Y002219D02*
X014838Y002219D01*
X014949Y002378D02*
X025280Y002378D01*
X025280Y002536D02*
X014970Y002536D01*
X014970Y002695D02*
X025280Y002695D01*
X025280Y002853D02*
X014970Y002853D01*
X014970Y003012D02*
X025280Y003012D01*
X025274Y003170D02*
X024946Y003170D01*
X025102Y003329D02*
X025119Y003329D01*
X024610Y003650D02*
X024600Y003650D01*
X024600Y004500D01*
X026800Y004500D01*
X026800Y010100D01*
X033000Y010100D01*
X033000Y014100D01*
X033597Y014107D02*
X037180Y014107D01*
X037180Y014265D02*
X033597Y014265D01*
X033597Y014424D02*
X037180Y014424D01*
X037180Y014582D02*
X033566Y014582D01*
X033597Y013948D02*
X037180Y013948D01*
X037180Y013790D02*
X033597Y013790D01*
X033571Y013631D02*
X037180Y013631D01*
X037180Y013473D02*
X033320Y013473D01*
X033320Y013314D02*
X037180Y013314D01*
X037180Y013156D02*
X033320Y013156D01*
X033320Y012997D02*
X037180Y012997D01*
X037180Y012839D02*
X033320Y012839D01*
X033320Y012680D02*
X037180Y012680D01*
X037180Y012522D02*
X033320Y012522D01*
X033320Y012363D02*
X037180Y012363D01*
X037180Y012205D02*
X033320Y012205D01*
X033320Y012046D02*
X037180Y012046D01*
X037180Y011888D02*
X033320Y011888D01*
X033320Y011729D02*
X037180Y011729D01*
X037180Y011571D02*
X033320Y011571D01*
X033320Y011412D02*
X037180Y011412D01*
X037180Y011254D02*
X033320Y011254D01*
X033320Y011095D02*
X033589Y011095D01*
X033415Y010937D02*
X033320Y010937D01*
X033320Y010778D02*
X033403Y010778D01*
X033403Y010620D02*
X033320Y010620D01*
X033320Y010461D02*
X033403Y010461D01*
X033403Y010303D02*
X033320Y010303D01*
X033320Y010144D02*
X033403Y010144D01*
X033460Y009986D02*
X033299Y009986D01*
X033177Y009827D02*
X033680Y009827D01*
X033680Y009669D02*
X027120Y009669D01*
X027120Y009510D02*
X027518Y009510D01*
X027360Y009352D02*
X027120Y009352D01*
X027120Y009193D02*
X027240Y009193D01*
X027240Y009035D02*
X027120Y009035D01*
X027120Y008876D02*
X027240Y008876D01*
X027291Y008718D02*
X027120Y008718D01*
X027120Y008559D02*
X027449Y008559D01*
X027120Y008401D02*
X028180Y008401D01*
X028180Y008559D02*
X028151Y008559D01*
X028180Y008242D02*
X027120Y008242D01*
X027120Y008084D02*
X027264Y008084D01*
X027204Y007925D02*
X027120Y007925D01*
X027120Y007767D02*
X027204Y007767D01*
X027204Y007608D02*
X027120Y007608D01*
X027120Y007450D02*
X027204Y007450D01*
X027204Y007291D02*
X027120Y007291D01*
X027120Y007133D02*
X027233Y007133D01*
X027120Y006974D02*
X028180Y006974D01*
X028180Y006816D02*
X027120Y006816D01*
X027120Y006657D02*
X028180Y006657D01*
X028180Y006499D02*
X027120Y006499D01*
X027120Y006340D02*
X027311Y006340D01*
X027215Y006182D02*
X027120Y006182D01*
X027120Y006023D02*
X027214Y006023D01*
X027214Y005865D02*
X027120Y005865D01*
X027214Y005797D02*
X027214Y005456D01*
X027223Y005412D01*
X027240Y005370D01*
X027266Y005332D01*
X027298Y005300D01*
X027335Y005275D01*
X027377Y005258D01*
X027422Y005249D01*
X027763Y005249D01*
X027763Y005797D01*
X027214Y005797D01*
X027214Y005706D02*
X027120Y005706D01*
X027120Y005548D02*
X027214Y005548D01*
X027233Y005389D02*
X027120Y005389D01*
X027120Y005231D02*
X028180Y005231D01*
X028180Y005072D02*
X027120Y005072D01*
X027120Y004914D02*
X028180Y004914D01*
X028180Y004755D02*
X027120Y004755D01*
X027120Y004597D02*
X028180Y004597D01*
X028180Y004438D02*
X027120Y004438D01*
X027032Y004280D02*
X028180Y004280D01*
X028180Y004121D02*
X027955Y004121D01*
X028105Y003963D02*
X028180Y003963D01*
X028171Y003804D02*
X028180Y003804D01*
X028820Y003804D02*
X036204Y003804D01*
X036268Y003740D02*
X036732Y003740D01*
X037060Y004068D01*
X037060Y004532D01*
X036732Y004860D01*
X036268Y004860D01*
X035940Y004532D01*
X035940Y004068D01*
X036268Y003740D01*
X036046Y003963D02*
X028820Y003963D01*
X028820Y004121D02*
X035940Y004121D01*
X035940Y004280D02*
X028820Y004280D01*
X028820Y004438D02*
X035940Y004438D01*
X036005Y004597D02*
X028820Y004597D01*
X028820Y004755D02*
X036163Y004755D01*
X035786Y005292D02*
X035938Y005444D01*
X036020Y005643D01*
X036020Y005857D01*
X035938Y006056D01*
X035786Y006208D01*
X035672Y006255D01*
X035683Y006259D01*
X035758Y006297D01*
X035825Y006346D01*
X035884Y006405D01*
X035933Y006472D01*
X035971Y006547D01*
X035997Y006626D01*
X036010Y006708D01*
X036010Y006750D01*
X036010Y006792D01*
X035997Y006874D01*
X035971Y006953D01*
X035933Y007028D01*
X035884Y007095D01*
X035825Y007154D01*
X035758Y007203D01*
X035683Y007241D01*
X035604Y007267D01*
X035522Y007280D01*
X035300Y007280D01*
X035300Y006750D01*
X035300Y006750D01*
X036010Y006750D01*
X035300Y006750D01*
X035300Y006750D01*
X035300Y007280D01*
X035078Y007280D01*
X034996Y007267D01*
X034917Y007241D01*
X034842Y007203D01*
X034775Y007154D01*
X034716Y007095D01*
X034667Y007028D01*
X034630Y006955D01*
X034588Y007056D01*
X034436Y007208D01*
X034237Y007290D01*
X033663Y007290D01*
X033464Y007208D01*
X033312Y007056D01*
X033230Y006857D01*
X033230Y006643D01*
X033312Y006444D01*
X033464Y006292D01*
X033566Y006250D01*
X033464Y006208D01*
X033312Y006056D01*
X033230Y005857D01*
X033230Y005643D01*
X033312Y005444D01*
X033464Y005292D01*
X033663Y005210D01*
X034237Y005210D01*
X034436Y005292D01*
X034588Y005444D01*
X034625Y005534D01*
X034662Y005444D01*
X034814Y005292D01*
X035013Y005210D01*
X035587Y005210D01*
X035786Y005292D01*
X035883Y005389D02*
X037180Y005389D01*
X037180Y005231D02*
X035637Y005231D01*
X035981Y005548D02*
X037180Y005548D01*
X037180Y005706D02*
X036020Y005706D01*
X036017Y005865D02*
X037180Y005865D01*
X037180Y006023D02*
X035951Y006023D01*
X035812Y006182D02*
X037180Y006182D01*
X037180Y006340D02*
X035817Y006340D01*
X035947Y006499D02*
X037180Y006499D01*
X037180Y006657D02*
X036002Y006657D01*
X036006Y006816D02*
X037180Y006816D01*
X037180Y006974D02*
X035961Y006974D01*
X035847Y007133D02*
X037180Y007133D01*
X037180Y007291D02*
X028820Y007291D01*
X028820Y007133D02*
X028989Y007133D01*
X029064Y007208D02*
X028912Y007056D01*
X028830Y006857D01*
X028830Y006643D01*
X028912Y006444D01*
X029064Y006292D01*
X029166Y006250D01*
X029064Y006208D01*
X028912Y006056D01*
X028830Y005857D01*
X028830Y005643D01*
X028912Y005444D01*
X029064Y005292D01*
X029263Y005210D01*
X029837Y005210D01*
X030036Y005292D01*
X030188Y005444D01*
X030250Y005594D01*
X030312Y005444D01*
X030464Y005292D01*
X030663Y005210D01*
X031237Y005210D01*
X031436Y005292D01*
X031588Y005444D01*
X031670Y005643D01*
X031670Y005857D01*
X031588Y006056D01*
X031436Y006208D01*
X031334Y006250D01*
X031436Y006292D01*
X031588Y006444D01*
X031670Y006643D01*
X031670Y006857D01*
X031588Y007056D01*
X031436Y007208D01*
X031237Y007290D01*
X030663Y007290D01*
X030464Y007208D01*
X030312Y007056D01*
X030250Y006906D01*
X030188Y007056D01*
X030036Y007208D01*
X029837Y007290D01*
X029263Y007290D01*
X029064Y007208D01*
X028878Y006974D02*
X028820Y006974D01*
X028820Y006816D02*
X028830Y006816D01*
X028820Y006657D02*
X028830Y006657D01*
X028820Y006499D02*
X028890Y006499D01*
X028820Y006340D02*
X029016Y006340D01*
X029038Y006182D02*
X028820Y006182D01*
X028820Y006023D02*
X028899Y006023D01*
X028833Y005865D02*
X028820Y005865D01*
X028820Y005706D02*
X028830Y005706D01*
X028820Y005548D02*
X028869Y005548D01*
X028820Y005389D02*
X028967Y005389D01*
X028820Y005231D02*
X029213Y005231D01*
X028820Y005072D02*
X037180Y005072D01*
X037180Y004914D02*
X028820Y004914D01*
X029887Y005231D02*
X030613Y005231D01*
X030367Y005389D02*
X030133Y005389D01*
X030231Y005548D02*
X030269Y005548D01*
X031287Y005231D02*
X032113Y005231D01*
X032163Y005210D02*
X032737Y005210D01*
X032936Y005292D01*
X033088Y005444D01*
X033170Y005643D01*
X033170Y005857D01*
X033088Y006056D01*
X032936Y006208D01*
X032834Y006250D01*
X032936Y006292D01*
X033088Y006444D01*
X033170Y006643D01*
X033170Y006857D01*
X033088Y007056D01*
X032936Y007208D01*
X032737Y007290D01*
X032163Y007290D01*
X031964Y007208D01*
X031812Y007056D01*
X031730Y006857D01*
X031730Y006643D01*
X031812Y006444D01*
X031964Y006292D01*
X032066Y006250D01*
X031964Y006208D01*
X031812Y006056D01*
X031730Y005857D01*
X031730Y005643D01*
X031812Y005444D01*
X031964Y005292D01*
X032163Y005210D01*
X031867Y005389D02*
X031533Y005389D01*
X031631Y005548D02*
X031769Y005548D01*
X031730Y005706D02*
X031670Y005706D01*
X031667Y005865D02*
X031733Y005865D01*
X031799Y006023D02*
X031601Y006023D01*
X031462Y006182D02*
X031938Y006182D01*
X031916Y006340D02*
X031484Y006340D01*
X031610Y006499D02*
X031790Y006499D01*
X031730Y006657D02*
X031670Y006657D01*
X031670Y006816D02*
X031730Y006816D01*
X031778Y006974D02*
X031622Y006974D01*
X031511Y007133D02*
X031889Y007133D01*
X033011Y007133D02*
X033389Y007133D01*
X033278Y006974D02*
X033122Y006974D01*
X033170Y006816D02*
X033230Y006816D01*
X033230Y006657D02*
X033170Y006657D01*
X033110Y006499D02*
X033290Y006499D01*
X033416Y006340D02*
X032984Y006340D01*
X032962Y006182D02*
X033438Y006182D01*
X033299Y006023D02*
X033101Y006023D01*
X033167Y005865D02*
X033233Y005865D01*
X033230Y005706D02*
X033170Y005706D01*
X033131Y005548D02*
X033269Y005548D01*
X033367Y005389D02*
X033033Y005389D01*
X032787Y005231D02*
X033613Y005231D01*
X034287Y005231D02*
X034963Y005231D01*
X034717Y005389D02*
X034533Y005389D01*
X034670Y006750D02*
X034670Y006750D01*
X035300Y006750D01*
X035300Y006750D01*
X034670Y006750D01*
X034639Y006974D02*
X034622Y006974D01*
X034511Y007133D02*
X034753Y007133D01*
X035300Y007133D02*
X035300Y007133D01*
X035300Y006974D02*
X035300Y006974D01*
X035300Y006816D02*
X035300Y006816D01*
X034195Y008242D02*
X037180Y008242D01*
X037180Y008084D02*
X028820Y008084D01*
X028820Y007925D02*
X037180Y007925D01*
X037180Y007767D02*
X028820Y007767D01*
X028820Y007608D02*
X037180Y007608D01*
X037180Y007450D02*
X028820Y007450D01*
X028500Y008500D02*
X028500Y001000D01*
X025600Y001000D01*
X025600Y003700D01*
X026600Y003650D02*
X026600Y001800D01*
X025280Y001744D02*
X018048Y001744D01*
X018060Y001585D02*
X025280Y001585D01*
X025280Y001427D02*
X018060Y001427D01*
X017890Y001902D02*
X025280Y001902D01*
X024274Y003170D02*
X023946Y003170D01*
X024102Y003329D02*
X024119Y003329D01*
X023610Y003650D02*
X023610Y004400D01*
X024100Y004400D01*
X024100Y010700D01*
X026800Y010700D01*
X026800Y011500D01*
X032000Y011500D01*
X032000Y014100D01*
X031000Y014100D02*
X031000Y012100D01*
X021900Y012100D01*
X021900Y004700D01*
X022610Y004700D01*
X022610Y003650D01*
X022110Y003950D02*
X022099Y003976D01*
X021937Y004139D01*
X021725Y004226D01*
X021495Y004226D01*
X021283Y004139D01*
X021121Y003976D01*
X021110Y003950D01*
X021099Y003976D01*
X020937Y004139D01*
X020725Y004226D01*
X020495Y004226D01*
X020283Y004139D01*
X020121Y003976D01*
X020110Y003950D01*
X020099Y003976D01*
X019937Y004139D01*
X019725Y004226D01*
X019495Y004226D01*
X019283Y004139D01*
X019121Y003976D01*
X019110Y003950D01*
X019099Y003976D01*
X018937Y004139D01*
X018725Y004226D01*
X018495Y004226D01*
X018283Y004139D01*
X018121Y003976D01*
X018110Y003950D01*
X018099Y003976D01*
X017937Y004139D01*
X017920Y004146D01*
X017920Y012180D01*
X021587Y012180D01*
X021580Y012164D01*
X021580Y004636D01*
X021629Y004519D01*
X021719Y004429D01*
X021836Y004380D01*
X022290Y004380D01*
X022290Y004141D01*
X022283Y004139D01*
X022121Y003976D01*
X022110Y003950D01*
X022105Y003963D02*
X022115Y003963D01*
X022266Y004121D02*
X021955Y004121D01*
X022290Y004280D02*
X017920Y004280D01*
X017920Y004438D02*
X021709Y004438D01*
X021597Y004597D02*
X017920Y004597D01*
X017920Y004755D02*
X021580Y004755D01*
X021580Y004914D02*
X017920Y004914D01*
X017920Y005072D02*
X021580Y005072D01*
X021580Y005231D02*
X017920Y005231D01*
X017920Y005389D02*
X018433Y005389D01*
X018440Y005370D02*
X018466Y005332D01*
X018498Y005300D01*
X018535Y005275D01*
X018577Y005258D01*
X018622Y005249D01*
X018963Y005249D01*
X018963Y005797D01*
X019000Y005797D01*
X019000Y005834D01*
X019548Y005834D01*
X019548Y006175D01*
X019539Y006220D01*
X019522Y006262D01*
X019497Y006299D01*
X019465Y006331D01*
X019427Y006356D01*
X019385Y006374D01*
X019341Y006383D01*
X019000Y006383D01*
X019000Y005834D01*
X018963Y005834D01*
X018963Y006383D01*
X018622Y006383D01*
X018577Y006374D01*
X018535Y006356D01*
X018498Y006331D01*
X018466Y006299D01*
X018440Y006262D01*
X018423Y006220D01*
X018414Y006175D01*
X018414Y005834D01*
X018963Y005834D01*
X018963Y005797D01*
X018414Y005797D01*
X018414Y005456D01*
X018423Y005412D01*
X018440Y005370D01*
X018414Y005548D02*
X017920Y005548D01*
X017920Y005706D02*
X018414Y005706D01*
X018414Y005865D02*
X017920Y005865D01*
X017920Y006023D02*
X018414Y006023D01*
X018415Y006182D02*
X017920Y006182D01*
X017920Y006340D02*
X018511Y006340D01*
X018963Y006340D02*
X019000Y006340D01*
X019000Y006182D02*
X018963Y006182D01*
X018963Y006023D02*
X019000Y006023D01*
X019000Y005865D02*
X018963Y005865D01*
X019000Y005797D02*
X019548Y005797D01*
X019548Y005456D01*
X019539Y005412D01*
X019522Y005370D01*
X019497Y005332D01*
X019465Y005300D01*
X019427Y005275D01*
X019385Y005258D01*
X019341Y005249D01*
X019000Y005249D01*
X019000Y005797D01*
X019000Y005706D02*
X018963Y005706D01*
X018963Y005548D02*
X019000Y005548D01*
X019000Y005389D02*
X018963Y005389D01*
X019530Y005389D02*
X020263Y005389D01*
X020245Y005431D02*
X020282Y005343D01*
X020349Y005275D01*
X020437Y005239D01*
X021207Y005239D01*
X021295Y005275D01*
X021362Y005343D01*
X021399Y005431D01*
X021399Y006200D01*
X021362Y006289D01*
X021295Y006356D01*
X021207Y006393D01*
X020437Y006393D01*
X020349Y006356D01*
X020282Y006289D01*
X020245Y006200D01*
X020245Y005431D01*
X020245Y005548D02*
X019548Y005548D01*
X019548Y005706D02*
X020245Y005706D01*
X020245Y005865D02*
X019548Y005865D01*
X019548Y006023D02*
X020245Y006023D01*
X020245Y006182D02*
X019547Y006182D01*
X019451Y006340D02*
X020333Y006340D01*
X020437Y007011D02*
X021207Y007011D01*
X021295Y007047D01*
X021362Y007115D01*
X021399Y007203D01*
X021399Y007972D01*
X021362Y008060D01*
X021295Y008128D01*
X021207Y008164D01*
X020437Y008164D01*
X020349Y008128D01*
X020282Y008060D01*
X020245Y007972D01*
X020245Y007203D01*
X020282Y007115D01*
X020349Y007047D01*
X020437Y007011D01*
X020274Y007133D02*
X019529Y007133D01*
X019521Y007115D02*
X019558Y007203D01*
X019558Y007972D01*
X019521Y008060D01*
X019454Y008128D01*
X019366Y008164D01*
X018597Y008164D01*
X018508Y008128D01*
X018441Y008060D01*
X018404Y007972D01*
X018404Y007203D01*
X018441Y007115D01*
X018508Y007047D01*
X018597Y007011D01*
X019366Y007011D01*
X019454Y007047D01*
X019521Y007115D01*
X019558Y007291D02*
X020245Y007291D01*
X020245Y007450D02*
X019558Y007450D01*
X019558Y007608D02*
X020245Y007608D01*
X020245Y007767D02*
X019558Y007767D01*
X019558Y007925D02*
X020245Y007925D01*
X020305Y008084D02*
X019498Y008084D01*
X018901Y008559D02*
X021580Y008559D01*
X021580Y008401D02*
X017920Y008401D01*
X017920Y008559D02*
X018199Y008559D01*
X018318Y008440D02*
X017990Y008768D01*
X017990Y009232D01*
X018318Y009560D01*
X018782Y009560D01*
X019110Y009232D01*
X019110Y008768D01*
X018782Y008440D01*
X018318Y008440D01*
X018464Y008084D02*
X017920Y008084D01*
X017920Y008242D02*
X021580Y008242D01*
X021580Y008084D02*
X021339Y008084D01*
X021399Y007925D02*
X021580Y007925D01*
X021580Y007767D02*
X021399Y007767D01*
X021399Y007608D02*
X021580Y007608D01*
X021580Y007450D02*
X021399Y007450D01*
X021399Y007291D02*
X021580Y007291D01*
X021580Y007133D02*
X021370Y007133D01*
X021580Y006974D02*
X017920Y006974D01*
X017920Y006816D02*
X021580Y006816D01*
X021580Y006657D02*
X017920Y006657D01*
X017920Y006499D02*
X021580Y006499D01*
X021580Y006340D02*
X021311Y006340D01*
X021399Y006182D02*
X021580Y006182D01*
X021580Y006023D02*
X021399Y006023D01*
X021399Y005865D02*
X021580Y005865D01*
X021580Y005706D02*
X021399Y005706D01*
X021399Y005548D02*
X021580Y005548D01*
X021580Y005389D02*
X021381Y005389D01*
X022220Y005389D02*
X022833Y005389D01*
X022840Y005370D02*
X022866Y005332D01*
X022898Y005300D01*
X022935Y005275D01*
X022977Y005258D01*
X023022Y005249D01*
X023363Y005249D01*
X023363Y005797D01*
X023400Y005797D01*
X023400Y005249D01*
X023741Y005249D01*
X023780Y005257D01*
X023780Y004720D01*
X023547Y004720D01*
X023429Y004671D01*
X023339Y004581D01*
X023290Y004464D01*
X023290Y004141D01*
X023283Y004139D01*
X023121Y003976D01*
X023110Y003950D01*
X023099Y003976D01*
X022937Y004139D01*
X022930Y004141D01*
X022930Y004764D01*
X022882Y004881D01*
X022792Y004971D01*
X022674Y005020D01*
X022220Y005020D01*
X022220Y008688D01*
X022468Y008440D01*
X022932Y008440D01*
X023260Y008768D01*
X023260Y009232D01*
X022932Y009560D01*
X022468Y009560D01*
X022220Y009312D01*
X022220Y011780D01*
X025495Y011780D01*
X025245Y011530D01*
X025245Y011070D01*
X025295Y011020D01*
X024036Y011020D01*
X023919Y010971D01*
X023829Y010881D01*
X023780Y010764D01*
X023780Y008158D01*
X023766Y008164D01*
X022997Y008164D01*
X022908Y008128D01*
X022841Y008060D01*
X022804Y007972D01*
X022804Y007203D01*
X022841Y007115D01*
X022908Y007047D01*
X022997Y007011D01*
X023766Y007011D01*
X023780Y007016D01*
X023780Y006375D01*
X023741Y006383D01*
X023400Y006383D01*
X023400Y005834D01*
X023363Y005834D01*
X023363Y006383D01*
X023022Y006383D01*
X022977Y006374D01*
X022935Y006356D01*
X022898Y006331D01*
X022866Y006299D01*
X022840Y006262D01*
X022823Y006220D01*
X022814Y006175D01*
X022814Y005834D01*
X023363Y005834D01*
X023363Y005797D01*
X022814Y005797D01*
X022814Y005456D01*
X022823Y005412D01*
X022840Y005370D01*
X022814Y005548D02*
X022220Y005548D01*
X022220Y005706D02*
X022814Y005706D01*
X022814Y005865D02*
X022220Y005865D01*
X022220Y006023D02*
X022814Y006023D01*
X022815Y006182D02*
X022220Y006182D01*
X022220Y006340D02*
X022911Y006340D01*
X023363Y006340D02*
X023400Y006340D01*
X023400Y006182D02*
X023363Y006182D01*
X023363Y006023D02*
X023400Y006023D01*
X023400Y005865D02*
X023363Y005865D01*
X023363Y005706D02*
X023400Y005706D01*
X023400Y005548D02*
X023363Y005548D01*
X023363Y005389D02*
X023400Y005389D01*
X023780Y005231D02*
X022220Y005231D01*
X022220Y005072D02*
X023780Y005072D01*
X023780Y004914D02*
X022849Y004914D01*
X022930Y004755D02*
X023780Y004755D01*
X023354Y004597D02*
X022930Y004597D01*
X022930Y004438D02*
X023290Y004438D01*
X023290Y004280D02*
X022930Y004280D01*
X022955Y004121D02*
X023266Y004121D01*
X023115Y003963D02*
X023105Y003963D01*
X023102Y003329D02*
X023119Y003329D01*
X023274Y003170D02*
X022946Y003170D01*
X022274Y003170D02*
X021946Y003170D01*
X022102Y003329D02*
X022119Y003329D01*
X021274Y003170D02*
X020946Y003170D01*
X021102Y003329D02*
X021119Y003329D01*
X021105Y003963D02*
X021115Y003963D01*
X021266Y004121D02*
X020955Y004121D01*
X020266Y004121D02*
X019955Y004121D01*
X020105Y003963D02*
X020115Y003963D01*
X020102Y003329D02*
X020119Y003329D01*
X020274Y003170D02*
X019946Y003170D01*
X019274Y003170D02*
X018946Y003170D01*
X019102Y003329D02*
X019119Y003329D01*
X019105Y003963D02*
X019115Y003963D01*
X019266Y004121D02*
X018955Y004121D01*
X018266Y004121D02*
X017955Y004121D01*
X018105Y003963D02*
X018115Y003963D01*
X017610Y003650D02*
X017600Y003650D01*
X017600Y012500D01*
X030000Y012500D01*
X030000Y014100D01*
X029000Y014100D02*
X029000Y013200D01*
X015700Y013200D01*
X015700Y003650D01*
X015610Y003650D01*
X015266Y004121D02*
X014955Y004121D01*
X015105Y003963D02*
X015115Y003963D01*
X015102Y003329D02*
X015119Y003329D01*
X014970Y003170D02*
X015274Y003170D01*
X015946Y003170D02*
X016274Y003170D01*
X016119Y003329D02*
X016102Y003329D01*
X016946Y003170D02*
X017274Y003170D01*
X017119Y003329D02*
X017102Y003329D01*
X017946Y003170D02*
X018274Y003170D01*
X018119Y003329D02*
X018102Y003329D01*
X017110Y001902D02*
X012890Y001902D01*
X013060Y001732D02*
X013060Y001268D01*
X012901Y001110D02*
X017099Y001110D01*
X014600Y005389D02*
X014563Y005389D01*
X014563Y005548D02*
X014600Y005548D01*
X014600Y005706D02*
X014563Y005706D01*
X014563Y005865D02*
X014600Y005865D01*
X014600Y006023D02*
X014563Y006023D01*
X014563Y006182D02*
X014600Y006182D01*
X014600Y006340D02*
X014563Y006340D01*
X015380Y008401D02*
X013360Y008401D01*
X013360Y008559D02*
X013549Y008559D01*
X013391Y008718D02*
X013360Y008718D01*
X013360Y009352D02*
X013460Y009352D01*
X013360Y009510D02*
X013618Y009510D01*
X013360Y009669D02*
X015380Y009669D01*
X015380Y009827D02*
X013360Y009827D01*
X013360Y009986D02*
X015380Y009986D01*
X015380Y010144D02*
X013360Y010144D01*
X013360Y010303D02*
X015380Y010303D01*
X015380Y010461D02*
X013360Y010461D01*
X013360Y010620D02*
X015380Y010620D01*
X015380Y010778D02*
X013360Y010778D01*
X013360Y010937D02*
X015380Y010937D01*
X015380Y011095D02*
X013360Y011095D01*
X013360Y011254D02*
X015380Y011254D01*
X015380Y011412D02*
X013360Y011412D01*
X013360Y011571D02*
X015380Y011571D01*
X015380Y011729D02*
X013360Y011729D01*
X013360Y011888D02*
X015380Y011888D01*
X015380Y012046D02*
X013360Y012046D01*
X013360Y012205D02*
X015380Y012205D01*
X015380Y012363D02*
X013360Y012363D01*
X013360Y012522D02*
X015380Y012522D01*
X015380Y012680D02*
X013360Y012680D01*
X013360Y012839D02*
X015380Y012839D01*
X015380Y012997D02*
X013360Y012997D01*
X013325Y013156D02*
X015380Y013156D01*
X015401Y013314D02*
X013183Y013314D01*
X013477Y013631D02*
X001240Y013631D01*
X001240Y013473D02*
X008188Y013473D01*
X008270Y013555D02*
X007945Y013230D01*
X007945Y012770D01*
X008270Y012445D01*
X008730Y012445D01*
X009055Y012770D01*
X009055Y013230D01*
X008730Y013555D01*
X008270Y013555D01*
X008029Y013314D02*
X001240Y013314D01*
X001240Y013156D02*
X007945Y013156D01*
X007945Y012997D02*
X001240Y012997D01*
X001240Y012839D02*
X001504Y012839D01*
X001345Y012680D02*
X001240Y012680D01*
X001240Y012046D02*
X001299Y012046D01*
X001240Y011888D02*
X001458Y011888D01*
X001240Y011729D02*
X002960Y011729D01*
X002960Y011713D02*
X003042Y011514D01*
X003194Y011362D01*
X003393Y011280D01*
X003607Y011280D01*
X003806Y011362D01*
X003958Y011514D01*
X004000Y011616D01*
X004042Y011514D01*
X004194Y011362D01*
X004393Y011280D01*
X004607Y011280D01*
X004806Y011362D01*
X004958Y011514D01*
X005000Y011616D01*
X005042Y011514D01*
X005194Y011362D01*
X005393Y011280D01*
X005607Y011280D01*
X005806Y011362D01*
X005958Y011514D01*
X006005Y011628D01*
X006009Y011617D01*
X006047Y011542D01*
X006096Y011475D01*
X006155Y011416D01*
X006222Y011367D01*
X006297Y011329D01*
X006376Y011303D01*
X006458Y011290D01*
X006500Y011290D01*
X006542Y011290D01*
X006624Y011303D01*
X006703Y011329D01*
X006778Y011367D01*
X006845Y011416D01*
X006904Y011475D01*
X006953Y011542D01*
X006991Y011617D01*
X007017Y011696D01*
X007030Y011778D01*
X007030Y012000D01*
X007030Y012222D01*
X007017Y012304D01*
X006991Y012383D01*
X006953Y012458D01*
X006904Y012525D01*
X006845Y012584D01*
X006778Y012633D01*
X006703Y012671D01*
X006624Y012697D01*
X006542Y012710D01*
X006500Y012710D01*
X006500Y012000D01*
X006500Y012000D01*
X007030Y012000D01*
X006500Y012000D01*
X006500Y012000D01*
X006500Y012710D01*
X006458Y012710D01*
X006376Y012697D01*
X006297Y012671D01*
X006222Y012633D01*
X006155Y012584D01*
X006096Y012525D01*
X006047Y012458D01*
X006009Y012383D01*
X006005Y012372D01*
X005958Y012486D01*
X005806Y012638D01*
X005607Y012720D01*
X005393Y012720D01*
X005194Y012638D01*
X005042Y012486D01*
X005000Y012384D01*
X004958Y012486D01*
X004806Y012638D01*
X004607Y012720D01*
X004393Y012720D01*
X004194Y012638D01*
X004042Y012486D01*
X004000Y012384D01*
X003958Y012486D01*
X003806Y012638D01*
X003607Y012720D01*
X003393Y012720D01*
X003194Y012638D01*
X003042Y012486D01*
X002960Y012287D01*
X002960Y011713D01*
X003019Y011571D02*
X001240Y011571D01*
X001240Y011412D02*
X003144Y011412D01*
X002960Y011888D02*
X002122Y011888D01*
X002281Y012046D02*
X002960Y012046D01*
X002960Y012205D02*
X002345Y012205D01*
X002345Y012363D02*
X002991Y012363D01*
X003078Y012522D02*
X002345Y012522D01*
X002235Y012680D02*
X003296Y012680D01*
X003704Y012680D02*
X004296Y012680D01*
X004078Y012522D02*
X003922Y012522D01*
X004704Y012680D02*
X005296Y012680D01*
X005078Y012522D02*
X004922Y012522D01*
X005704Y012680D02*
X006324Y012680D01*
X006500Y012680D02*
X006500Y012680D01*
X006500Y012522D02*
X006500Y012522D01*
X006500Y012363D02*
X006500Y012363D01*
X006500Y012205D02*
X006500Y012205D01*
X006500Y012046D02*
X006500Y012046D01*
X006500Y012000D02*
X006500Y011290D01*
X006500Y012000D01*
X006500Y012000D01*
X006500Y011888D02*
X006500Y011888D01*
X006500Y011729D02*
X006500Y011729D01*
X006500Y011571D02*
X006500Y011571D01*
X006500Y011412D02*
X006500Y011412D01*
X006840Y011412D02*
X008963Y011412D01*
X008963Y011254D02*
X001240Y011254D01*
X001240Y011095D02*
X008987Y011095D01*
X008999Y011067D02*
X009067Y010999D01*
X009155Y010963D01*
X009845Y010963D01*
X009933Y010999D01*
X010001Y011067D01*
X010037Y011155D01*
X010037Y011845D01*
X010001Y011933D01*
X009933Y012001D01*
X009845Y012037D01*
X009155Y012037D01*
X009067Y012001D01*
X008999Y011933D01*
X008963Y011845D01*
X008963Y011155D01*
X008999Y011067D01*
X008963Y011571D02*
X006968Y011571D01*
X007022Y011729D02*
X008963Y011729D01*
X008980Y011888D02*
X007030Y011888D01*
X007030Y012046D02*
X010140Y012046D01*
X010140Y011888D02*
X010020Y011888D01*
X010037Y011729D02*
X010140Y011729D01*
X010140Y011571D02*
X010037Y011571D01*
X010037Y011412D02*
X010140Y011412D01*
X010140Y011254D02*
X010037Y011254D01*
X010013Y011095D02*
X010140Y011095D01*
X010140Y010937D02*
X004641Y010937D01*
X004498Y011080D02*
X004280Y011080D01*
X004280Y010540D01*
X004260Y010540D01*
X004260Y011080D01*
X004042Y011080D01*
X003720Y010758D01*
X003720Y010540D01*
X004260Y010540D01*
X004260Y010520D01*
X003720Y010520D01*
X003720Y010302D01*
X004042Y009980D01*
X004260Y009980D01*
X004260Y010520D01*
X004280Y010520D01*
X004280Y010540D01*
X004820Y010540D01*
X004820Y010758D01*
X004498Y011080D01*
X004280Y010937D02*
X004260Y010937D01*
X004260Y010778D02*
X004280Y010778D01*
X004280Y010620D02*
X004260Y010620D01*
X004280Y010520D02*
X004820Y010520D01*
X004820Y010302D01*
X004498Y009980D01*
X004280Y009980D01*
X004280Y010520D01*
X004280Y010461D02*
X004260Y010461D01*
X004260Y010303D02*
X004280Y010303D01*
X004280Y010144D02*
X004260Y010144D01*
X004260Y009986D02*
X004280Y009986D01*
X004503Y009986D02*
X005830Y009986D01*
X005745Y010144D02*
X004662Y010144D01*
X004820Y010303D02*
X005745Y010303D01*
X005745Y010461D02*
X004820Y010461D01*
X004820Y010620D02*
X005835Y010620D01*
X005993Y010778D02*
X004800Y010778D01*
X004856Y011412D02*
X005144Y011412D01*
X005019Y011571D02*
X004981Y011571D01*
X005856Y011412D02*
X006160Y011412D01*
X006032Y011571D02*
X005981Y011571D01*
X006607Y010778D02*
X007269Y010778D01*
X007160Y010620D02*
X006765Y010620D01*
X006855Y010461D02*
X007140Y010461D01*
X007140Y010303D02*
X006855Y010303D01*
X006855Y010144D02*
X007140Y010144D01*
X007140Y009986D02*
X006770Y009986D01*
X007860Y009986D02*
X008051Y009986D01*
X008067Y010001D02*
X007999Y009933D01*
X007963Y009845D01*
X007963Y009155D01*
X007999Y009067D01*
X008067Y008999D01*
X008155Y008963D01*
X008845Y008963D01*
X008933Y008999D01*
X009001Y009067D01*
X009037Y009155D01*
X009037Y009845D01*
X009001Y009933D01*
X008933Y010001D01*
X008845Y010037D01*
X008155Y010037D01*
X008067Y010001D01*
X007963Y009827D02*
X007860Y009827D01*
X007860Y009669D02*
X007963Y009669D01*
X007963Y009510D02*
X007860Y009510D01*
X007828Y009352D02*
X007963Y009352D01*
X007963Y009193D02*
X007700Y009193D01*
X008031Y009035D02*
X004590Y009035D01*
X004590Y008876D02*
X012640Y008876D01*
X012640Y009035D02*
X012319Y009035D01*
X012230Y008945D02*
X012555Y009270D01*
X012555Y009730D01*
X012230Y010055D01*
X011770Y010055D01*
X011445Y009730D01*
X011445Y009270D01*
X011770Y008945D01*
X012230Y008945D01*
X012478Y009193D02*
X012640Y009193D01*
X012640Y009352D02*
X012555Y009352D01*
X012555Y009510D02*
X012640Y009510D01*
X012640Y009669D02*
X012555Y009669D01*
X012640Y009827D02*
X012458Y009827D01*
X012299Y009986D02*
X012640Y009986D01*
X012640Y010144D02*
X010581Y010144D01*
X010808Y010303D02*
X012640Y010303D01*
X012640Y010461D02*
X010860Y010461D01*
X010860Y010620D02*
X012640Y010620D01*
X012640Y010778D02*
X010860Y010778D01*
X010860Y010937D02*
X012640Y010937D01*
X012640Y011095D02*
X012380Y011095D01*
X012230Y010945D02*
X012555Y011270D01*
X012555Y011730D01*
X012230Y012055D01*
X011770Y012055D01*
X011445Y011730D01*
X011445Y011270D01*
X011770Y010945D01*
X012230Y010945D01*
X012538Y011254D02*
X012640Y011254D01*
X012640Y011412D02*
X012555Y011412D01*
X012555Y011571D02*
X012640Y011571D01*
X012640Y011729D02*
X012555Y011729D01*
X012640Y011888D02*
X012397Y011888D01*
X012239Y012046D02*
X012640Y012046D01*
X012640Y012205D02*
X010860Y012205D01*
X010860Y012363D02*
X012640Y012363D01*
X012640Y012522D02*
X010860Y012522D01*
X010860Y012046D02*
X011761Y012046D01*
X011603Y011888D02*
X010860Y011888D01*
X010860Y011729D02*
X011445Y011729D01*
X011445Y011571D02*
X010860Y011571D01*
X010860Y011412D02*
X011445Y011412D01*
X011462Y011254D02*
X010860Y011254D01*
X010860Y011095D02*
X011620Y011095D01*
X011701Y009986D02*
X010949Y009986D01*
X010933Y010001D02*
X010845Y010037D01*
X010155Y010037D01*
X010067Y010001D01*
X009999Y009933D01*
X009963Y009845D01*
X009963Y009155D01*
X009999Y009067D01*
X010067Y008999D01*
X010155Y008963D01*
X010845Y008963D01*
X010933Y008999D01*
X011001Y009067D01*
X011037Y009155D01*
X011037Y009845D01*
X011001Y009933D01*
X010933Y010001D01*
X011037Y009827D02*
X011542Y009827D01*
X011445Y009669D02*
X011037Y009669D01*
X011037Y009510D02*
X011445Y009510D01*
X011445Y009352D02*
X011037Y009352D01*
X011037Y009193D02*
X011522Y009193D01*
X011681Y009035D02*
X010969Y009035D01*
X010031Y009035D02*
X008969Y009035D01*
X009037Y009193D02*
X009963Y009193D01*
X009963Y009352D02*
X009037Y009352D01*
X009037Y009510D02*
X009963Y009510D01*
X009963Y009669D02*
X009037Y009669D01*
X009037Y009827D02*
X009963Y009827D01*
X010051Y009986D02*
X008949Y009986D01*
X010140Y012205D02*
X007030Y012205D01*
X006998Y012363D02*
X010140Y012363D01*
X010140Y012522D02*
X008806Y012522D01*
X008965Y012680D02*
X010035Y012680D01*
X009945Y012839D02*
X009055Y012839D01*
X009055Y012997D02*
X009945Y012997D01*
X009945Y013156D02*
X009055Y013156D01*
X008971Y013314D02*
X010029Y013314D01*
X010188Y013473D02*
X008812Y013473D01*
X008769Y013921D02*
X008309Y013921D01*
X007984Y014246D01*
X007984Y014706D01*
X008309Y015031D01*
X008769Y015031D01*
X009094Y014706D01*
X009094Y014246D01*
X008769Y013921D01*
X008796Y013948D02*
X010297Y013948D01*
X010314Y013931D02*
X010539Y013931D01*
X010539Y014476D01*
X010539Y014476D01*
X009994Y014476D01*
X009994Y014251D01*
X010314Y013931D01*
X010539Y013931D02*
X010765Y013931D01*
X011084Y014251D01*
X011084Y014476D01*
X010539Y014476D01*
X010539Y014476D01*
X010539Y013931D01*
X010539Y013948D02*
X010539Y013948D01*
X010539Y014107D02*
X010539Y014107D01*
X010539Y014265D02*
X010539Y014265D01*
X010539Y014424D02*
X010539Y014424D01*
X010539Y014476D02*
X010539Y014476D01*
X009994Y014476D01*
X009994Y014702D01*
X010314Y015021D01*
X010539Y015021D01*
X010539Y014476D01*
X010539Y014476D01*
X011084Y014476D01*
X011084Y014702D01*
X010765Y015021D01*
X010539Y015021D01*
X010539Y014476D01*
X010539Y014582D02*
X010539Y014582D01*
X010539Y014741D02*
X010539Y014741D01*
X010539Y014899D02*
X010539Y014899D01*
X010191Y014899D02*
X008902Y014899D01*
X009060Y014741D02*
X010033Y014741D01*
X009994Y014582D02*
X009094Y014582D01*
X009094Y014424D02*
X009994Y014424D01*
X009994Y014265D02*
X009094Y014265D01*
X008954Y014107D02*
X010138Y014107D01*
X010782Y013948D02*
X013340Y013948D01*
X013340Y013790D02*
X002024Y013790D01*
X002183Y013948D02*
X008283Y013948D01*
X008124Y014107D02*
X002341Y014107D01*
X002345Y014265D02*
X007984Y014265D01*
X007984Y014424D02*
X006867Y014424D01*
X006986Y014582D02*
X007984Y014582D01*
X008019Y014741D02*
X007040Y014741D01*
X007040Y014899D02*
X008177Y014899D01*
X007040Y015058D02*
X037180Y015058D01*
X037180Y015216D02*
X007040Y015216D01*
X006676Y015692D02*
X014493Y015692D01*
X014423Y015850D02*
X001240Y015850D01*
X001240Y015692D02*
X003359Y015692D01*
X003500Y015692D02*
X003500Y015692D01*
X003641Y015692D02*
X004324Y015692D01*
X004089Y015533D02*
X003897Y015533D01*
X003994Y015375D02*
X003996Y015375D01*
X003500Y015375D02*
X003500Y015375D01*
X003500Y015533D02*
X003500Y015533D01*
X003500Y015216D02*
X003500Y015216D01*
X003500Y015058D02*
X003500Y015058D01*
X003500Y015000D02*
X002970Y015000D01*
X002970Y014778D01*
X002983Y014696D01*
X003009Y014617D01*
X003047Y014542D01*
X003096Y014475D01*
X003155Y014416D01*
X003222Y014367D01*
X003297Y014329D01*
X003376Y014303D01*
X003458Y014290D01*
X003500Y014290D01*
X003500Y015000D01*
X003500Y015000D01*
X003500Y014899D02*
X003500Y014899D01*
X003500Y014741D02*
X003500Y014741D01*
X003500Y014582D02*
X003500Y014582D01*
X003500Y014424D02*
X003500Y014424D01*
X003853Y014424D02*
X004133Y014424D01*
X004014Y014582D02*
X003974Y014582D01*
X003147Y014424D02*
X002345Y014424D01*
X002333Y014582D02*
X003026Y014582D01*
X002976Y014741D02*
X002174Y014741D01*
X002970Y014899D02*
X001240Y014899D01*
X001240Y014741D02*
X001406Y014741D01*
X001247Y014582D02*
X001240Y014582D01*
X001240Y015058D02*
X002970Y015058D01*
X002970Y015216D02*
X001240Y015216D01*
X001240Y015375D02*
X003006Y015375D01*
X003103Y015533D02*
X001240Y015533D01*
X001240Y016009D02*
X014423Y016009D01*
X014423Y016167D02*
X001240Y016167D01*
X001240Y016326D02*
X014510Y016326D01*
X014668Y016484D02*
X011397Y016484D01*
X011532Y016643D02*
X037180Y016643D01*
X037180Y016801D02*
X011537Y016801D01*
X011537Y016960D02*
X031986Y016960D01*
X031903Y017118D02*
X011537Y017118D01*
X010463Y017118D02*
X009537Y017118D01*
X009537Y016960D02*
X010463Y016960D01*
X010463Y016801D02*
X009537Y016801D01*
X009537Y016655D02*
X009501Y016567D01*
X009433Y016499D01*
X009345Y016463D01*
X008655Y016463D01*
X008567Y016499D01*
X008499Y016567D01*
X008463Y016655D01*
X008463Y017345D01*
X008499Y017433D01*
X008567Y017501D01*
X008655Y017537D01*
X009345Y017537D01*
X009433Y017501D01*
X009501Y017433D01*
X009537Y017345D01*
X009537Y016655D01*
X009532Y016643D02*
X010468Y016643D01*
X010603Y016484D02*
X009397Y016484D01*
X008603Y016484D02*
X003397Y016484D01*
X003433Y016499D02*
X003345Y016463D01*
X002655Y016463D01*
X002567Y016499D01*
X002500Y016566D01*
X002433Y016499D01*
X002345Y016463D01*
X001655Y016463D01*
X001567Y016499D01*
X001499Y016567D01*
X001463Y016655D01*
X001463Y017345D01*
X001499Y017433D01*
X001567Y017501D01*
X001655Y017537D01*
X002345Y017537D01*
X002433Y017501D01*
X002500Y017434D01*
X002567Y017501D01*
X002655Y017537D01*
X003345Y017537D01*
X003433Y017501D01*
X003501Y017433D01*
X003537Y017345D01*
X003537Y016655D01*
X003501Y016567D01*
X003433Y016499D01*
X003532Y016643D02*
X008468Y016643D01*
X008463Y016801D02*
X003537Y016801D01*
X003537Y016960D02*
X008463Y016960D01*
X008463Y017118D02*
X003537Y017118D01*
X003537Y017277D02*
X008463Y017277D01*
X008501Y017435D02*
X003499Y017435D01*
X002501Y017435D02*
X002499Y017435D01*
X002397Y016484D02*
X002603Y016484D01*
X001603Y016484D02*
X001240Y016484D01*
X001240Y016643D02*
X001468Y016643D01*
X001463Y016801D02*
X001240Y016801D01*
X001240Y016960D02*
X001463Y016960D01*
X001463Y017118D02*
X001240Y017118D01*
X001240Y017277D02*
X001463Y017277D01*
X001501Y017435D02*
X001240Y017435D01*
X001240Y013948D02*
X001397Y013948D01*
X001240Y013790D02*
X001556Y013790D01*
X002076Y012839D02*
X007945Y012839D01*
X008035Y012680D02*
X006676Y012680D01*
X006907Y012522D02*
X008194Y012522D01*
X006093Y012522D02*
X005922Y012522D01*
X005867Y014424D02*
X006133Y014424D01*
X006014Y014582D02*
X005986Y014582D01*
X005133Y014424D02*
X004867Y014424D01*
X004986Y014582D02*
X005014Y014582D01*
X005089Y015533D02*
X004911Y015533D01*
X004676Y015692D02*
X005324Y015692D01*
X005676Y015692D02*
X006324Y015692D01*
X006089Y015533D02*
X005911Y015533D01*
X009537Y017277D02*
X010463Y017277D01*
X010501Y017435D02*
X009499Y017435D01*
X010887Y014899D02*
X037180Y014899D01*
X037180Y014741D02*
X011046Y014741D01*
X011084Y014582D02*
X028434Y014582D01*
X028403Y014424D02*
X028168Y014424D01*
X028327Y014265D02*
X028403Y014265D01*
X028403Y014107D02*
X028360Y014107D01*
X028360Y013948D02*
X028403Y013948D01*
X028403Y013790D02*
X028360Y013790D01*
X028429Y013631D02*
X028223Y013631D01*
X027377Y013631D02*
X023123Y013631D01*
X023260Y013790D02*
X027240Y013790D01*
X027240Y013948D02*
X023260Y013948D01*
X023260Y014107D02*
X027240Y014107D01*
X027273Y014265D02*
X023227Y014265D01*
X023068Y014424D02*
X027432Y014424D01*
X027349Y015533D02*
X027651Y015533D01*
X028349Y015533D02*
X028651Y015533D01*
X029349Y015533D02*
X029651Y015533D01*
X030349Y015533D02*
X030651Y015533D01*
X030510Y016326D02*
X030490Y016326D01*
X030332Y016484D02*
X030668Y016484D01*
X029668Y016484D02*
X029332Y016484D01*
X029490Y016326D02*
X029510Y016326D01*
X028668Y016484D02*
X028332Y016484D01*
X028490Y016326D02*
X028510Y016326D01*
X027668Y016484D02*
X027332Y016484D01*
X027490Y016326D02*
X027510Y016326D01*
X026668Y016484D02*
X026332Y016484D01*
X026490Y016326D02*
X026510Y016326D01*
X026651Y015533D02*
X026349Y015533D01*
X025651Y015533D02*
X025349Y015533D01*
X025490Y016326D02*
X025510Y016326D01*
X025668Y016484D02*
X025332Y016484D01*
X024668Y016484D02*
X024332Y016484D01*
X024490Y016326D02*
X024510Y016326D01*
X024651Y015533D02*
X024349Y015533D01*
X025785Y017594D02*
X031903Y017594D01*
X031903Y017752D02*
X025944Y017752D01*
X025960Y017911D02*
X031905Y017911D01*
X032026Y018069D02*
X025960Y018069D01*
X026420Y020447D02*
X025001Y020447D01*
X027576Y023458D02*
X035680Y023458D01*
X034228Y021550D02*
X034010Y021550D01*
X034010Y021010D01*
X034550Y021010D01*
X034550Y021228D01*
X034228Y021550D01*
X034380Y021398D02*
X037950Y021398D01*
X037950Y021556D02*
X029236Y021556D01*
X029394Y021398D02*
X033620Y021398D01*
X033772Y021550D02*
X033450Y021228D01*
X033450Y021010D01*
X033990Y021010D01*
X033990Y021550D01*
X033772Y021550D01*
X033990Y021398D02*
X034010Y021398D01*
X034010Y021239D02*
X033990Y021239D01*
X033990Y021081D02*
X034010Y021081D01*
X034010Y021010D02*
X033990Y021010D01*
X033990Y020990D01*
X034010Y020990D01*
X034010Y021010D01*
X034010Y020990D02*
X034550Y020990D01*
X034550Y020772D01*
X034228Y020450D01*
X034010Y020450D01*
X034010Y020990D01*
X033990Y020990D02*
X033990Y020450D01*
X033772Y020450D01*
X033450Y020772D01*
X033450Y020990D01*
X033990Y020990D01*
X033990Y020922D02*
X034010Y020922D01*
X034010Y020764D02*
X033990Y020764D01*
X033990Y020605D02*
X034010Y020605D01*
X034383Y020605D02*
X042252Y020605D01*
X042252Y020447D02*
X029238Y020447D01*
X029397Y020605D02*
X033617Y020605D01*
X033459Y020764D02*
X029555Y020764D01*
X029560Y020922D02*
X033450Y020922D01*
X033450Y021081D02*
X029560Y021081D01*
X029553Y021239D02*
X033461Y021239D01*
X034539Y021239D02*
X037954Y021239D01*
X037999Y021081D02*
X034550Y021081D01*
X034550Y020922D02*
X038108Y020922D01*
X038422Y020764D02*
X034541Y020764D01*
X037820Y017118D02*
X042252Y017118D01*
X042252Y016960D02*
X037820Y016960D01*
X037820Y016801D02*
X042252Y016801D01*
X042252Y016643D02*
X037820Y016643D01*
X037820Y016484D02*
X042252Y016484D01*
X042252Y016326D02*
X037820Y016326D01*
X037820Y016167D02*
X042252Y016167D01*
X042252Y016009D02*
X037820Y016009D01*
X037820Y015850D02*
X042252Y015850D01*
X042252Y015692D02*
X037820Y015692D01*
X037820Y015533D02*
X042252Y015533D01*
X042252Y015375D02*
X037820Y015375D01*
X037820Y015216D02*
X042252Y015216D01*
X042252Y015058D02*
X037820Y015058D01*
X037820Y014899D02*
X042252Y014899D01*
X042252Y014741D02*
X041639Y014741D01*
X041611Y014752D02*
X041389Y014752D01*
X041183Y014667D01*
X041025Y014509D01*
X041000Y014448D01*
X040975Y014509D01*
X040817Y014667D01*
X040611Y014752D01*
X040389Y014752D01*
X040183Y014667D01*
X040025Y014509D01*
X040000Y014448D01*
X039975Y014509D01*
X039817Y014667D01*
X039611Y014752D01*
X039389Y014752D01*
X039183Y014667D01*
X039025Y014509D01*
X038994Y014434D01*
X038970Y014480D01*
X038920Y014550D01*
X038858Y014612D01*
X038788Y014662D01*
X038711Y014702D01*
X038629Y014728D01*
X038543Y014742D01*
X038510Y014742D01*
X038510Y014010D01*
X038490Y014010D01*
X038490Y014742D01*
X038457Y014742D01*
X038371Y014728D01*
X038289Y014702D01*
X038212Y014662D01*
X038142Y014612D01*
X038080Y014550D01*
X038030Y014480D01*
X037990Y014403D01*
X037964Y014321D01*
X037950Y014235D01*
X037950Y014010D01*
X038490Y014010D01*
X038490Y013990D01*
X038510Y013990D01*
X038510Y013258D01*
X038543Y013258D01*
X038629Y013272D01*
X038711Y013298D01*
X038788Y013338D01*
X038858Y013388D01*
X038920Y013450D01*
X038970Y013520D01*
X038994Y013566D01*
X039025Y013491D01*
X039183Y013333D01*
X039389Y013248D01*
X039611Y013248D01*
X039817Y013333D01*
X039975Y013491D01*
X040000Y013552D01*
X040025Y013491D01*
X040183Y013333D01*
X040389Y013248D01*
X040611Y013248D01*
X040817Y013333D01*
X040975Y013491D01*
X041000Y013552D01*
X041025Y013491D01*
X041183Y013333D01*
X041389Y013248D01*
X041611Y013248D01*
X041817Y013333D01*
X041975Y013491D01*
X042060Y013697D01*
X042060Y014303D01*
X041975Y014509D01*
X041817Y014667D01*
X041611Y014752D01*
X041361Y014741D02*
X040639Y014741D01*
X040361Y014741D02*
X039639Y014741D01*
X039361Y014741D02*
X038553Y014741D01*
X038510Y014741D02*
X038490Y014741D01*
X038447Y014741D02*
X037820Y014741D01*
X037820Y014582D02*
X038112Y014582D01*
X038001Y014424D02*
X037820Y014424D01*
X037820Y014265D02*
X037955Y014265D01*
X037950Y014107D02*
X037820Y014107D01*
X037820Y013948D02*
X037950Y013948D01*
X037950Y013990D02*
X037950Y013765D01*
X037964Y013679D01*
X037990Y013597D01*
X038030Y013520D01*
X038080Y013450D01*
X038142Y013388D01*
X038212Y013338D01*
X038289Y013298D01*
X038371Y013272D01*
X038457Y013258D01*
X038490Y013258D01*
X038490Y013990D01*
X037950Y013990D01*
X037950Y013790D02*
X037820Y013790D01*
X037820Y013631D02*
X037979Y013631D01*
X038064Y013473D02*
X037820Y013473D01*
X037820Y013314D02*
X038258Y013314D01*
X038490Y013314D02*
X038510Y013314D01*
X038510Y013473D02*
X038490Y013473D01*
X038490Y013631D02*
X038510Y013631D01*
X038510Y013790D02*
X038490Y013790D01*
X038490Y013948D02*
X038510Y013948D01*
X038510Y014107D02*
X038490Y014107D01*
X038490Y014265D02*
X038510Y014265D01*
X038510Y014424D02*
X038490Y014424D01*
X038490Y014582D02*
X038510Y014582D01*
X038888Y014582D02*
X039098Y014582D01*
X039902Y014582D02*
X040098Y014582D01*
X040902Y014582D02*
X041098Y014582D01*
X041902Y014582D02*
X042252Y014582D01*
X042252Y014424D02*
X042010Y014424D01*
X042060Y014265D02*
X042252Y014265D01*
X042252Y014107D02*
X042060Y014107D01*
X042060Y013948D02*
X042252Y013948D01*
X042252Y013790D02*
X042060Y013790D01*
X042033Y013631D02*
X042252Y013631D01*
X042252Y013473D02*
X041956Y013473D01*
X041771Y013314D02*
X042252Y013314D01*
X042252Y013156D02*
X037820Y013156D01*
X037820Y012997D02*
X042252Y012997D01*
X042252Y012839D02*
X037820Y012839D01*
X037820Y012680D02*
X042252Y012680D01*
X042252Y012522D02*
X037820Y012522D01*
X037820Y012363D02*
X042252Y012363D01*
X042252Y012205D02*
X037820Y012205D01*
X037820Y012046D02*
X042252Y012046D01*
X042252Y011888D02*
X041104Y011888D01*
X041032Y011960D02*
X040568Y011960D01*
X040240Y011632D01*
X040240Y011168D01*
X040568Y010840D01*
X041032Y010840D01*
X041360Y011168D01*
X041360Y011632D01*
X041032Y011960D01*
X041263Y011729D02*
X042252Y011729D01*
X042252Y011571D02*
X041360Y011571D01*
X041360Y011412D02*
X042252Y011412D01*
X042252Y011254D02*
X041360Y011254D01*
X041287Y011095D02*
X042252Y011095D01*
X042252Y010937D02*
X041128Y010937D01*
X040472Y010937D02*
X039178Y010937D01*
X039082Y010840D02*
X039410Y011168D01*
X039410Y011632D01*
X039082Y011960D01*
X038618Y011960D01*
X038290Y011632D01*
X038290Y011168D01*
X038618Y010840D01*
X039082Y010840D01*
X039337Y011095D02*
X040313Y011095D01*
X040240Y011254D02*
X039410Y011254D01*
X039410Y011412D02*
X040240Y011412D01*
X040240Y011571D02*
X039410Y011571D01*
X039313Y011729D02*
X040337Y011729D01*
X040496Y011888D02*
X039154Y011888D01*
X038546Y011888D02*
X037820Y011888D01*
X037820Y011729D02*
X038387Y011729D01*
X038290Y011571D02*
X037820Y011571D01*
X037820Y011412D02*
X038290Y011412D01*
X038290Y011254D02*
X037820Y011254D01*
X037820Y011095D02*
X038363Y011095D01*
X038522Y010937D02*
X037820Y010937D01*
X037820Y010778D02*
X042252Y010778D01*
X042252Y010620D02*
X037820Y010620D01*
X037820Y010461D02*
X042252Y010461D01*
X042252Y010303D02*
X037820Y010303D01*
X037820Y010144D02*
X042252Y010144D01*
X042252Y009986D02*
X037820Y009986D01*
X037820Y009827D02*
X042252Y009827D01*
X042252Y009669D02*
X037820Y009669D01*
X037820Y009510D02*
X042252Y009510D01*
X042252Y009352D02*
X037820Y009352D01*
X037820Y009193D02*
X042252Y009193D01*
X042252Y009035D02*
X037820Y009035D01*
X037820Y008876D02*
X042252Y008876D01*
X042252Y008718D02*
X037820Y008718D01*
X037820Y008559D02*
X042252Y008559D01*
X042252Y008401D02*
X037820Y008401D01*
X037820Y008242D02*
X042252Y008242D01*
X042252Y008084D02*
X037820Y008084D01*
X037820Y007925D02*
X042252Y007925D01*
X042252Y007767D02*
X037820Y007767D01*
X037820Y007608D02*
X042252Y007608D01*
X042252Y007450D02*
X037820Y007450D01*
X037820Y007291D02*
X042252Y007291D01*
X042252Y007133D02*
X037820Y007133D01*
X037820Y006974D02*
X042252Y006974D01*
X042252Y006816D02*
X041176Y006816D01*
X041032Y006960D02*
X040568Y006960D01*
X040240Y006632D01*
X040240Y006168D01*
X040568Y005840D01*
X041032Y005840D01*
X041360Y006168D01*
X041360Y006632D01*
X041032Y006960D01*
X041335Y006657D02*
X042252Y006657D01*
X042252Y006499D02*
X041360Y006499D01*
X041360Y006340D02*
X042252Y006340D01*
X042252Y006182D02*
X041360Y006182D01*
X041215Y006023D02*
X042252Y006023D01*
X042252Y005865D02*
X041056Y005865D01*
X040544Y005865D02*
X039106Y005865D01*
X039082Y005840D02*
X039410Y006168D01*
X039410Y006632D01*
X039082Y006960D01*
X038618Y006960D01*
X038290Y006632D01*
X038290Y006168D01*
X038618Y005840D01*
X039082Y005840D01*
X039265Y006023D02*
X040385Y006023D01*
X040240Y006182D02*
X039410Y006182D01*
X039410Y006340D02*
X040240Y006340D01*
X040240Y006499D02*
X039410Y006499D01*
X039385Y006657D02*
X040265Y006657D01*
X040424Y006816D02*
X039226Y006816D01*
X038474Y006816D02*
X037820Y006816D01*
X037820Y006657D02*
X038315Y006657D01*
X038290Y006499D02*
X037820Y006499D01*
X037820Y006340D02*
X038290Y006340D01*
X038290Y006182D02*
X037820Y006182D01*
X037820Y006023D02*
X038435Y006023D01*
X038594Y005865D02*
X037820Y005865D01*
X037820Y005706D02*
X042252Y005706D01*
X042252Y005548D02*
X037820Y005548D01*
X037820Y005389D02*
X042252Y005389D01*
X042252Y005231D02*
X037820Y005231D01*
X037820Y005072D02*
X042252Y005072D01*
X042252Y004914D02*
X037820Y004914D01*
X037820Y004755D02*
X041163Y004755D01*
X041268Y004860D02*
X040940Y004532D01*
X040940Y004068D01*
X041268Y003740D01*
X041732Y003740D01*
X042060Y004068D01*
X042060Y004532D01*
X041732Y004860D01*
X041268Y004860D01*
X041005Y004597D02*
X037820Y004597D01*
X037820Y004438D02*
X040940Y004438D01*
X040940Y004280D02*
X037820Y004280D01*
X037820Y004121D02*
X040940Y004121D01*
X041046Y003963D02*
X037820Y003963D01*
X037820Y003804D02*
X041204Y003804D01*
X041095Y003359D02*
X041095Y003359D01*
X041142Y003329D02*
X042252Y003329D01*
X042252Y003487D02*
X040658Y003487D01*
X040003Y003487D02*
X037820Y003487D01*
X037820Y003329D02*
X039519Y003329D01*
X039566Y003359D02*
X039566Y003359D01*
X039273Y003170D02*
X037820Y003170D01*
X037820Y003012D02*
X039070Y003012D01*
X038933Y002853D02*
X037820Y002853D01*
X037820Y002695D02*
X038796Y002695D01*
X038717Y002536D02*
X037820Y002536D01*
X037820Y002378D02*
X038645Y002378D01*
X038572Y002219D02*
X037820Y002219D01*
X037820Y002061D02*
X038545Y002061D01*
X038565Y002203D02*
X038565Y002203D01*
X038522Y001902D02*
X037806Y001902D01*
X037696Y001744D02*
X038499Y001744D01*
X038491Y001685D02*
X038491Y001685D01*
X038505Y001585D02*
X035507Y001585D01*
X035560Y001427D02*
X038528Y001427D01*
X038551Y001268D02*
X035560Y001268D01*
X035560Y001110D02*
X038591Y001110D01*
X038664Y000951D02*
X035443Y000951D01*
X035284Y000793D02*
X038736Y000793D01*
X038783Y000690D02*
X038783Y000690D01*
X038832Y000634D02*
X031820Y000634D01*
X031820Y000476D02*
X038969Y000476D01*
X039106Y000317D02*
X031808Y000317D01*
X031820Y000793D02*
X034716Y000793D01*
X034557Y000951D02*
X031820Y000951D01*
X031820Y001110D02*
X034440Y001110D01*
X034440Y001268D02*
X031820Y001268D01*
X031820Y001427D02*
X034440Y001427D01*
X034493Y001585D02*
X031820Y001585D01*
X031266Y002219D02*
X028820Y002219D01*
X028820Y002061D02*
X031180Y002061D01*
X031180Y001902D02*
X028820Y001902D01*
X028820Y001744D02*
X029652Y001744D01*
X029768Y001860D02*
X029440Y001532D01*
X029440Y001068D01*
X029768Y000740D01*
X030232Y000740D01*
X030560Y001068D01*
X030560Y001532D01*
X030232Y001860D01*
X029768Y001860D01*
X029493Y001585D02*
X028820Y001585D01*
X028820Y001427D02*
X029440Y001427D01*
X029440Y001268D02*
X028820Y001268D01*
X028820Y001110D02*
X029440Y001110D01*
X029557Y000951D02*
X028820Y000951D01*
X028745Y000793D02*
X029716Y000793D01*
X030284Y000793D02*
X031180Y000793D01*
X031180Y000951D02*
X030443Y000951D01*
X030560Y001110D02*
X031180Y001110D01*
X031180Y001268D02*
X030560Y001268D01*
X030560Y001427D02*
X031180Y001427D01*
X031180Y001585D02*
X030507Y001585D01*
X030348Y001744D02*
X031180Y001744D01*
X030232Y002640D02*
X029768Y002640D01*
X029440Y002968D01*
X029440Y003432D01*
X029768Y003760D01*
X030232Y003760D01*
X030560Y003432D01*
X030560Y002968D01*
X030232Y002640D01*
X030286Y002695D02*
X034714Y002695D01*
X034768Y002640D02*
X035232Y002640D01*
X035560Y002968D01*
X035560Y003432D01*
X035232Y003760D01*
X034768Y003760D01*
X034440Y003432D01*
X034440Y002968D01*
X034768Y002640D01*
X034555Y002853D02*
X030445Y002853D01*
X030560Y003012D02*
X034440Y003012D01*
X034440Y003170D02*
X030560Y003170D01*
X030560Y003329D02*
X034440Y003329D01*
X034495Y003487D02*
X030505Y003487D01*
X030346Y003646D02*
X034654Y003646D01*
X035346Y003646D02*
X037180Y003646D01*
X037180Y003804D02*
X036796Y003804D01*
X036954Y003963D02*
X037180Y003963D01*
X037180Y004121D02*
X037060Y004121D01*
X037060Y004280D02*
X037180Y004280D01*
X037180Y004438D02*
X037060Y004438D01*
X036995Y004597D02*
X037180Y004597D01*
X037180Y004755D02*
X036837Y004755D01*
X037180Y003487D02*
X035505Y003487D01*
X035560Y003329D02*
X037180Y003329D01*
X037180Y003170D02*
X035560Y003170D01*
X035560Y003012D02*
X037180Y003012D01*
X037180Y002853D02*
X035445Y002853D01*
X035286Y002695D02*
X037180Y002695D01*
X037180Y002536D02*
X028820Y002536D01*
X028820Y002378D02*
X037180Y002378D01*
X037820Y003646D02*
X042252Y003646D01*
X042252Y003804D02*
X041796Y003804D01*
X041954Y003963D02*
X042252Y003963D01*
X042252Y004121D02*
X042060Y004121D01*
X042060Y004280D02*
X042252Y004280D01*
X042252Y004438D02*
X042060Y004438D01*
X041995Y004597D02*
X042252Y004597D01*
X042252Y004755D02*
X041837Y004755D01*
X042252Y003170D02*
X041389Y003170D01*
X041591Y003012D02*
X042252Y003012D01*
X042252Y002853D02*
X041729Y002853D01*
X041866Y002695D02*
X042252Y002695D01*
X042252Y002536D02*
X041944Y002536D01*
X041879Y002680D02*
X041879Y002680D01*
X042017Y002378D02*
X042252Y002378D01*
X042252Y002219D02*
X042089Y002219D01*
X042096Y002203D02*
X042096Y002203D01*
X042117Y002061D02*
X042252Y002061D01*
X042252Y001902D02*
X042140Y001902D01*
X042162Y001744D02*
X042252Y001744D01*
X042252Y001585D02*
X042156Y001585D01*
X042134Y001427D02*
X042252Y001427D01*
X042252Y001268D02*
X042111Y001268D01*
X042096Y001167D02*
X042096Y001167D01*
X042070Y001110D02*
X042252Y001110D01*
X042252Y000951D02*
X041998Y000951D01*
X041925Y000793D02*
X042252Y000793D01*
X042252Y000634D02*
X041830Y000634D01*
X041693Y000476D02*
X042252Y000476D01*
X042252Y000317D02*
X041555Y000317D01*
X041536Y000294D02*
X041536Y000294D01*
X041536Y000294D01*
X039126Y000294D02*
X039126Y000294D01*
X037180Y008401D02*
X034305Y008401D01*
X034320Y008559D02*
X037180Y008559D01*
X037180Y008718D02*
X034320Y008718D01*
X034320Y008876D02*
X037180Y008876D01*
X037180Y009035D02*
X034320Y009035D01*
X034320Y009193D02*
X037180Y009193D01*
X037180Y009352D02*
X034320Y009352D01*
X034320Y009510D02*
X037180Y009510D01*
X037180Y009669D02*
X034320Y009669D01*
X034320Y009827D02*
X037180Y009827D01*
X037180Y009986D02*
X034540Y009986D01*
X034597Y010144D02*
X037180Y010144D01*
X037180Y010303D02*
X034597Y010303D01*
X034597Y010461D02*
X037180Y010461D01*
X037180Y010620D02*
X034597Y010620D01*
X034597Y010778D02*
X037180Y010778D01*
X037180Y010937D02*
X034585Y010937D01*
X034411Y011095D02*
X037180Y011095D01*
X038742Y013314D02*
X039229Y013314D01*
X039044Y013473D02*
X038936Y013473D01*
X039771Y013314D02*
X040229Y013314D01*
X040044Y013473D02*
X039956Y013473D01*
X040771Y013314D02*
X041229Y013314D01*
X041044Y013473D02*
X040956Y013473D01*
X040680Y017277D02*
X041320Y017277D01*
X041081Y017435D02*
X040919Y017435D01*
X040320Y017277D02*
X039680Y017277D01*
X039919Y017435D02*
X040081Y017435D01*
X040061Y018545D02*
X039939Y018545D01*
X039730Y018703D02*
X040270Y018703D01*
X040730Y018703D02*
X041270Y018703D01*
X041061Y018545D02*
X040939Y018545D01*
X041730Y018703D02*
X042252Y018703D01*
X042252Y018545D02*
X041939Y018545D01*
X042026Y018386D02*
X042252Y018386D01*
X042252Y018228D02*
X042060Y018228D01*
X042060Y018069D02*
X042252Y018069D01*
X042252Y017911D02*
X042060Y017911D01*
X042060Y017752D02*
X042252Y017752D01*
X042252Y017594D02*
X042017Y017594D01*
X041919Y017435D02*
X042252Y017435D01*
X042252Y017277D02*
X041680Y017277D01*
X039270Y018703D02*
X038707Y018703D01*
X038924Y018545D02*
X039061Y018545D01*
X039094Y020922D02*
X038892Y020922D01*
X039906Y020922D02*
X040094Y020922D01*
X040906Y020922D02*
X041094Y020922D01*
X041107Y024409D02*
X040893Y024409D01*
X040107Y024409D02*
X039893Y024409D01*
X039107Y024409D02*
X038879Y024409D01*
X038835Y028372D02*
X039144Y028372D01*
X039009Y028530D02*
X038976Y028530D01*
X038510Y028530D02*
X038490Y028530D01*
X038490Y028372D02*
X038510Y028372D01*
X038490Y028689D02*
X038510Y028689D01*
X038510Y028847D02*
X038490Y028847D01*
X037950Y029164D02*
X035530Y029164D01*
X034412Y028213D02*
X030812Y028213D01*
X030813Y028055D02*
X034566Y028055D01*
X034642Y027896D02*
X034358Y027896D01*
X034492Y027738D02*
X034508Y027738D01*
X034485Y026787D02*
X034515Y026787D01*
X034658Y026628D02*
X034342Y026628D01*
X033658Y026628D02*
X033342Y026628D01*
X033485Y026787D02*
X033515Y026787D01*
X033000Y027270D02*
X033000Y027500D01*
X032642Y027896D02*
X032338Y027896D01*
X032477Y027738D02*
X032508Y027738D01*
X032010Y027738D02*
X031990Y027738D01*
X031990Y027896D02*
X032010Y027896D01*
X031990Y027579D02*
X032010Y027579D01*
X032010Y027421D02*
X031990Y027421D01*
X031990Y027262D02*
X030816Y027262D01*
X030817Y027104D02*
X031450Y027104D01*
X031450Y027035D02*
X031464Y026949D01*
X031490Y026867D01*
X031530Y026790D01*
X031580Y026720D01*
X031642Y026658D01*
X031712Y026608D01*
X031789Y026568D01*
X031871Y026542D01*
X031957Y026528D01*
X031990Y026528D01*
X031990Y027260D01*
X031450Y027260D01*
X031450Y027035D01*
X031465Y026945D02*
X030818Y026945D01*
X030819Y026787D02*
X031532Y026787D01*
X031684Y026628D02*
X030819Y026628D01*
X030178Y026945D02*
X026809Y026945D01*
X026191Y026945D02*
X024597Y026945D01*
X024597Y026787D02*
X027856Y026787D01*
X027707Y026628D02*
X024597Y026628D01*
X024524Y026470D02*
X027429Y026470D01*
X027403Y026311D02*
X014280Y026311D01*
X014280Y026153D02*
X027403Y026153D01*
X027434Y025519D02*
X027297Y025519D01*
X027456Y025360D02*
X027544Y025360D01*
X028456Y025360D02*
X028544Y025360D01*
X028566Y025519D02*
X028703Y025519D01*
X029297Y025519D02*
X029703Y025519D01*
X029544Y025360D02*
X029456Y025360D01*
X030297Y025519D02*
X030703Y025519D01*
X030544Y025360D02*
X030456Y025360D01*
X031297Y025519D02*
X031703Y025519D01*
X031544Y025360D02*
X031456Y025360D01*
X032297Y025519D02*
X032703Y025519D01*
X032544Y025360D02*
X032456Y025360D01*
X033297Y025519D02*
X033703Y025519D01*
X033544Y025360D02*
X033456Y025360D01*
X032658Y026628D02*
X032316Y026628D01*
X032468Y026787D02*
X032515Y026787D01*
X032010Y026787D02*
X031990Y026787D01*
X031990Y026945D02*
X032010Y026945D01*
X032010Y027104D02*
X031990Y027104D01*
X031990Y026628D02*
X032010Y026628D01*
X031450Y027421D02*
X030816Y027421D01*
X030815Y027579D02*
X031462Y027579D01*
X031523Y027738D02*
X030814Y027738D01*
X030813Y027896D02*
X031662Y027896D01*
X030173Y027896D02*
X029882Y027896D01*
X029728Y028050D02*
X029510Y028050D01*
X029510Y027510D01*
X029490Y027510D01*
X029490Y028050D01*
X029272Y028050D01*
X028950Y027728D01*
X028950Y027510D01*
X029490Y027510D01*
X029490Y027490D01*
X028950Y027490D01*
X028950Y027272D01*
X029272Y026950D01*
X029490Y026950D01*
X029490Y027490D01*
X029510Y027490D01*
X029510Y027510D01*
X030050Y027510D01*
X030050Y027728D01*
X029728Y028050D01*
X029510Y027896D02*
X029490Y027896D01*
X029490Y027738D02*
X029510Y027738D01*
X029510Y027579D02*
X029490Y027579D01*
X029510Y027490D02*
X030050Y027490D01*
X030050Y027272D01*
X029728Y026950D01*
X029510Y026950D01*
X029510Y027490D01*
X029510Y027421D02*
X029490Y027421D01*
X029490Y027262D02*
X029510Y027262D01*
X029510Y027104D02*
X029490Y027104D01*
X029119Y027104D02*
X028413Y027104D01*
X028533Y027262D02*
X028960Y027262D01*
X028950Y027421D02*
X028560Y027421D01*
X028560Y027579D02*
X028950Y027579D01*
X028960Y027738D02*
X028560Y027738D01*
X028560Y027896D02*
X029118Y027896D01*
X028560Y028055D02*
X030173Y028055D01*
X030172Y028213D02*
X028560Y028213D01*
X028560Y028372D02*
X030171Y028372D01*
X030171Y028530D02*
X028560Y028530D01*
X028560Y028689D02*
X030170Y028689D01*
X030244Y028847D02*
X028560Y028847D01*
X027840Y028847D02*
X026817Y028847D01*
X026975Y028689D02*
X027840Y028689D01*
X027840Y028530D02*
X027040Y028530D01*
X027040Y028372D02*
X027840Y028372D01*
X027840Y028213D02*
X027040Y028213D01*
X026918Y028055D02*
X027840Y028055D01*
X027840Y027896D02*
X026768Y027896D01*
X025960Y028530D02*
X023408Y028530D01*
X023408Y028372D02*
X025458Y028372D01*
X025299Y028213D02*
X023408Y028213D01*
X023408Y028055D02*
X025210Y028055D01*
X025210Y027896D02*
X023397Y027896D01*
X023233Y027738D02*
X025210Y027738D01*
X025307Y027579D02*
X024450Y027579D01*
X024591Y027421D02*
X025466Y027421D01*
X025960Y027262D02*
X024597Y027262D01*
X024597Y027104D02*
X026033Y027104D01*
X026025Y028689D02*
X024452Y028689D01*
X024610Y028847D02*
X026183Y028847D01*
X026480Y029481D02*
X026520Y029481D01*
X026520Y029640D02*
X026480Y029640D01*
X026480Y029798D02*
X026520Y029798D01*
X026520Y029957D02*
X026480Y029957D01*
X027840Y029164D02*
X024752Y029164D01*
X024697Y029006D02*
X027840Y029006D01*
X030040Y027738D02*
X030174Y027738D01*
X030175Y027579D02*
X030050Y027579D01*
X030050Y027421D02*
X030176Y027421D01*
X030176Y027262D02*
X030040Y027262D01*
X030177Y027104D02*
X029881Y027104D01*
X026703Y025519D02*
X026297Y025519D01*
X026456Y025360D02*
X026544Y025360D01*
X025703Y025519D02*
X025297Y025519D01*
X025456Y025360D02*
X025544Y025360D01*
X024703Y025519D02*
X024297Y025519D01*
X024456Y025360D02*
X024544Y025360D01*
X023703Y025519D02*
X023297Y025519D01*
X023456Y025360D02*
X023544Y025360D01*
X022703Y025519D02*
X022297Y025519D01*
X022456Y025360D02*
X022544Y025360D01*
X020617Y024568D02*
X020383Y024568D01*
X019617Y024568D02*
X019383Y024568D01*
X019633Y023617D02*
X014280Y023617D01*
X018383Y024568D02*
X018617Y024568D01*
X020481Y022507D02*
X020539Y022507D01*
X020697Y022349D02*
X020332Y022349D01*
X022247Y027738D02*
X022460Y027738D01*
X022465Y028847D02*
X022241Y028847D01*
X021479Y028847D02*
X021462Y028847D01*
X020699Y028847D02*
X020472Y028847D01*
X023228Y028847D02*
X023508Y028847D01*
X023396Y028689D02*
X023666Y028689D01*
X031990Y032651D02*
X032010Y032651D01*
X032010Y032810D02*
X031990Y032810D01*
X031990Y032968D02*
X032010Y032968D01*
X032010Y033127D02*
X031990Y033127D01*
X032468Y032017D02*
X032514Y032017D01*
X032657Y031859D02*
X032317Y031859D01*
X033343Y031859D02*
X033657Y031859D01*
X033514Y032017D02*
X033486Y032017D01*
X034343Y031859D02*
X034657Y031859D01*
X034514Y032017D02*
X034486Y032017D01*
X035343Y031859D02*
X038647Y031859D01*
X038627Y032000D02*
X038627Y032000D01*
X038629Y032017D02*
X035486Y032017D01*
X035551Y032176D02*
X038652Y032176D01*
X038675Y032334D02*
X035560Y032334D01*
X035560Y032493D02*
X038698Y032493D01*
X038701Y032518D02*
X038701Y032518D01*
X038762Y032651D02*
X035560Y032651D01*
X035557Y032810D02*
X038834Y032810D01*
X038907Y032968D02*
X035492Y032968D01*
X035357Y033127D02*
X039033Y033127D01*
X041052Y030274D02*
X042252Y030274D01*
X042252Y030432D02*
X041396Y030432D01*
X041231Y030326D02*
X041231Y030326D01*
X041643Y030591D02*
X042252Y030591D01*
X042252Y030749D02*
X041793Y030749D01*
X041930Y030908D02*
X042252Y030908D01*
X042252Y031066D02*
X042043Y031066D01*
X042115Y031225D02*
X042252Y031225D01*
X042252Y031383D02*
X042187Y031383D01*
X042232Y031482D02*
X042232Y031482D01*
X042241Y031542D02*
X042252Y031542D01*
X041156Y029640D02*
X040844Y029640D01*
X040986Y029481D02*
X041014Y029481D01*
X040156Y029640D02*
X039844Y029640D01*
X039986Y029481D02*
X040014Y029481D01*
X039156Y029640D02*
X038820Y029640D01*
X038970Y029481D02*
X039014Y029481D01*
X033642Y027896D02*
X033358Y027896D01*
X033492Y027738D02*
X033508Y027738D01*
X032668Y016484D02*
X032332Y016484D01*
X032490Y016326D02*
X032510Y016326D01*
X032651Y015533D02*
X032349Y015533D01*
X033349Y015533D02*
X033651Y015533D01*
X031651Y015533D02*
X031349Y015533D01*
X031490Y016326D02*
X031510Y016326D01*
X031668Y016484D02*
X031332Y016484D01*
X034000Y010500D02*
X034000Y008500D01*
X028500Y008500D01*
X028360Y008876D02*
X033680Y008876D01*
X033680Y009035D02*
X028360Y009035D01*
X028360Y009193D02*
X033680Y009193D01*
X033680Y009352D02*
X028240Y009352D01*
X028082Y009510D02*
X033680Y009510D01*
X030389Y007133D02*
X030111Y007133D01*
X030222Y006974D02*
X030278Y006974D01*
X027800Y006340D02*
X027763Y006340D01*
X027763Y006182D02*
X027800Y006182D01*
X027800Y006023D02*
X027763Y006023D01*
X027763Y005865D02*
X027800Y005865D01*
X027800Y005706D02*
X027763Y005706D01*
X027763Y005548D02*
X027800Y005548D01*
X027800Y005389D02*
X027763Y005389D01*
X027266Y004121D02*
X026955Y004121D01*
X027105Y003963D02*
X027115Y003963D01*
X028820Y003646D02*
X029654Y003646D01*
X029495Y003487D02*
X028820Y003487D01*
X028820Y003329D02*
X029440Y003329D01*
X029440Y003170D02*
X028820Y003170D01*
X028820Y003012D02*
X029440Y003012D01*
X029555Y002853D02*
X028820Y002853D01*
X028820Y002695D02*
X029714Y002695D01*
X023780Y006499D02*
X022220Y006499D01*
X022220Y006657D02*
X023780Y006657D01*
X023780Y006816D02*
X022220Y006816D01*
X022220Y006974D02*
X023780Y006974D01*
X022833Y007133D02*
X022220Y007133D01*
X022220Y007291D02*
X022804Y007291D01*
X022804Y007450D02*
X022220Y007450D01*
X022220Y007608D02*
X022804Y007608D01*
X022804Y007767D02*
X022220Y007767D01*
X022220Y007925D02*
X022804Y007925D01*
X022864Y008084D02*
X022220Y008084D01*
X022220Y008242D02*
X023780Y008242D01*
X023780Y008401D02*
X022220Y008401D01*
X022220Y008559D02*
X022349Y008559D01*
X023051Y008559D02*
X023780Y008559D01*
X023780Y008718D02*
X023209Y008718D01*
X023260Y008876D02*
X023780Y008876D01*
X023780Y009035D02*
X023260Y009035D01*
X023260Y009193D02*
X023780Y009193D01*
X023780Y009352D02*
X023140Y009352D01*
X022982Y009510D02*
X023780Y009510D01*
X023780Y009669D02*
X022220Y009669D01*
X022220Y009827D02*
X023780Y009827D01*
X023780Y009986D02*
X022220Y009986D01*
X022220Y010144D02*
X023780Y010144D01*
X023780Y010303D02*
X022220Y010303D01*
X022220Y010461D02*
X023780Y010461D01*
X023780Y010620D02*
X022220Y010620D01*
X022220Y010778D02*
X023786Y010778D01*
X023884Y010937D02*
X022220Y010937D01*
X022220Y011095D02*
X025245Y011095D01*
X025245Y011254D02*
X022220Y011254D01*
X022220Y011412D02*
X025245Y011412D01*
X025286Y011571D02*
X022220Y011571D01*
X022220Y011729D02*
X025444Y011729D01*
X022418Y009510D02*
X022220Y009510D01*
X022220Y009352D02*
X022260Y009352D01*
X021580Y009352D02*
X021555Y009352D01*
X021555Y009270D02*
X021230Y008945D01*
X020770Y008945D01*
X020445Y009270D01*
X020445Y009730D01*
X020770Y010055D01*
X021230Y010055D01*
X021555Y009730D01*
X021555Y009270D01*
X021580Y009193D02*
X021478Y009193D01*
X021580Y009035D02*
X021319Y009035D01*
X021580Y008876D02*
X019110Y008876D01*
X019110Y009035D02*
X020681Y009035D01*
X020522Y009193D02*
X019110Y009193D01*
X018990Y009352D02*
X020445Y009352D01*
X020445Y009510D02*
X018832Y009510D01*
X018268Y009510D02*
X017920Y009510D01*
X017920Y009352D02*
X018110Y009352D01*
X017990Y009193D02*
X017920Y009193D01*
X017920Y009035D02*
X017990Y009035D01*
X017990Y008876D02*
X017920Y008876D01*
X017920Y008718D02*
X018041Y008718D01*
X017920Y007925D02*
X018404Y007925D01*
X018404Y007767D02*
X017920Y007767D01*
X017920Y007608D02*
X018404Y007608D01*
X018404Y007450D02*
X017920Y007450D01*
X017920Y007291D02*
X018404Y007291D01*
X018433Y007133D02*
X017920Y007133D01*
X019059Y008718D02*
X021580Y008718D01*
X021555Y009510D02*
X021580Y009510D01*
X021580Y009669D02*
X021555Y009669D01*
X021580Y009827D02*
X021458Y009827D01*
X021580Y009986D02*
X021299Y009986D01*
X021580Y010144D02*
X017920Y010144D01*
X017920Y009986D02*
X020701Y009986D01*
X020542Y009827D02*
X017920Y009827D01*
X017920Y009669D02*
X020445Y009669D01*
X020770Y010945D02*
X021230Y010945D01*
X021555Y011270D01*
X021555Y011730D01*
X021230Y012055D01*
X020770Y012055D01*
X020445Y011730D01*
X020445Y011270D01*
X020770Y010945D01*
X020620Y011095D02*
X017920Y011095D01*
X017920Y010937D02*
X021580Y010937D01*
X021580Y011095D02*
X021380Y011095D01*
X021538Y011254D02*
X021580Y011254D01*
X021580Y011412D02*
X021555Y011412D01*
X021555Y011571D02*
X021580Y011571D01*
X021580Y011729D02*
X021555Y011729D01*
X021580Y011888D02*
X021397Y011888D01*
X021239Y012046D02*
X021580Y012046D01*
X020761Y012046D02*
X017920Y012046D01*
X017920Y011888D02*
X020603Y011888D01*
X020445Y011729D02*
X017920Y011729D01*
X017920Y011571D02*
X020445Y011571D01*
X020445Y011412D02*
X017920Y011412D01*
X017920Y011254D02*
X020462Y011254D01*
X021580Y010778D02*
X017920Y010778D01*
X017920Y010620D02*
X021580Y010620D01*
X021580Y010461D02*
X017920Y010461D01*
X017920Y010303D02*
X021580Y010303D01*
X015380Y009510D02*
X014182Y009510D01*
X014340Y009352D02*
X015380Y009352D01*
X015380Y009193D02*
X014460Y009193D01*
X014460Y009035D02*
X015380Y009035D01*
X015380Y008876D02*
X014460Y008876D01*
X014409Y008718D02*
X015380Y008718D01*
X015380Y008559D02*
X014251Y008559D01*
X014164Y013473D02*
X015522Y013473D01*
X013636Y013473D02*
X010812Y013473D01*
X010940Y014107D02*
X013340Y014107D01*
X013373Y014265D02*
X011084Y014265D01*
X011084Y014424D02*
X013532Y014424D01*
X008260Y006816D02*
X001240Y006816D01*
X001240Y006974D02*
X001820Y006974D01*
X001613Y007133D02*
X001240Y007133D01*
X001240Y007291D02*
X001525Y007291D01*
X001486Y007450D02*
X001240Y007450D01*
X001240Y007608D02*
X001486Y007608D01*
X001549Y007767D02*
X001240Y007767D01*
X001240Y007925D02*
X001671Y007925D01*
X001662Y008084D02*
X001240Y008084D01*
X001240Y008242D02*
X001545Y008242D01*
X001486Y008401D02*
X001240Y008401D01*
X001240Y008559D02*
X001486Y008559D01*
X001528Y008718D02*
X001240Y008718D01*
X001240Y008876D02*
X001622Y008876D01*
X001737Y009035D02*
X001240Y009035D01*
X001240Y009193D02*
X001584Y009193D01*
X001515Y009352D02*
X001240Y009352D01*
X001240Y009510D02*
X002250Y009510D01*
X002290Y009510D02*
X003870Y009510D01*
X003870Y009352D02*
X003025Y009352D01*
X003044Y009520D02*
X002290Y009520D01*
X002290Y010070D01*
X002519Y010070D01*
X002607Y010056D01*
X002693Y010028D01*
X002773Y009988D01*
X002845Y009935D01*
X002909Y009871D01*
X002962Y009799D01*
X003002Y009719D01*
X003030Y009633D01*
X003044Y009545D01*
X003044Y009520D01*
X003019Y009669D02*
X003910Y009669D01*
X004079Y009827D02*
X002941Y009827D01*
X002775Y009986D02*
X004037Y009986D01*
X003878Y010144D02*
X001240Y010144D01*
X001240Y009986D02*
X001765Y009986D01*
X001599Y009827D02*
X001240Y009827D01*
X001240Y009669D02*
X001521Y009669D01*
X001240Y010303D02*
X003720Y010303D01*
X003720Y010461D02*
X001240Y010461D01*
X001240Y010620D02*
X003720Y010620D01*
X003740Y010778D02*
X001240Y010778D01*
X001240Y010937D02*
X003899Y010937D01*
X003856Y011412D02*
X004144Y011412D01*
X004019Y011571D02*
X003981Y011571D01*
X002290Y009986D02*
X002250Y009986D01*
X002250Y009827D02*
X002290Y009827D01*
X002290Y009669D02*
X002250Y009669D01*
X002803Y009035D02*
X003870Y009035D01*
X003870Y009193D02*
X002956Y009193D01*
X002918Y008876D02*
X003870Y008876D01*
X004590Y008718D02*
X005933Y008718D01*
X005774Y008559D02*
X004590Y008559D01*
X004578Y008401D02*
X005745Y008401D01*
X005745Y008242D02*
X004481Y008242D01*
X005745Y008084D02*
X002878Y008084D01*
X002869Y007925D02*
X005890Y007925D01*
X001949Y006023D02*
X001240Y006023D01*
X001240Y005865D02*
X001791Y005865D01*
X001650Y005706D02*
X001240Y005706D01*
X001240Y005548D02*
X001650Y005548D01*
X001650Y005389D02*
X001240Y005389D01*
X001240Y005231D02*
X001696Y005231D01*
X001854Y005072D02*
X001240Y005072D01*
X001240Y004914D02*
X001840Y004914D01*
X001681Y004755D02*
X001240Y004755D01*
X001240Y004597D02*
X001650Y004597D01*
X001650Y004438D02*
X001240Y004438D01*
X001240Y004280D02*
X001650Y004280D01*
X001805Y004121D02*
X001240Y004121D01*
X001240Y003963D02*
X001964Y003963D01*
X002416Y003963D02*
X002680Y003963D01*
X002680Y004121D02*
X002575Y004121D01*
X002743Y003804D02*
X001240Y003804D01*
X001240Y003646D02*
X006180Y003646D01*
X006180Y003487D02*
X002828Y003487D01*
X003264Y003359D02*
X003264Y003359D01*
X003311Y003329D02*
X006180Y003329D01*
X006180Y003170D02*
X003558Y003170D01*
X003705Y003076D02*
X003705Y003076D01*
X003760Y003012D02*
X006180Y003012D01*
X006180Y002853D02*
X003898Y002853D01*
X004035Y002695D02*
X006180Y002695D01*
X006180Y002536D02*
X004114Y002536D01*
X004048Y002680D02*
X004048Y002680D01*
X004186Y002378D02*
X006180Y002378D01*
X006180Y002219D02*
X004258Y002219D01*
X004265Y002203D02*
X004265Y002203D01*
X004286Y002061D02*
X006180Y002061D01*
X006180Y001902D02*
X004309Y001902D01*
X004332Y001744D02*
X006180Y001744D01*
X006180Y001585D02*
X004326Y001585D01*
X004303Y001427D02*
X005269Y001427D01*
X005392Y001550D02*
X005070Y001228D01*
X005070Y001010D01*
X005610Y001010D01*
X005610Y001550D01*
X005392Y001550D01*
X005630Y001550D02*
X005630Y001010D01*
X005610Y001010D01*
X005610Y000990D01*
X005070Y000990D01*
X005070Y000772D01*
X005392Y000450D01*
X005610Y000450D01*
X005610Y000990D01*
X005630Y000990D01*
X005630Y001010D01*
X006170Y001010D01*
X006170Y001228D01*
X005848Y001550D01*
X005630Y001550D01*
X005630Y001427D02*
X005610Y001427D01*
X005610Y001268D02*
X005630Y001268D01*
X005630Y001110D02*
X005610Y001110D01*
X005630Y000990D02*
X006170Y000990D01*
X006170Y000772D01*
X005848Y000450D01*
X005630Y000450D01*
X005630Y000990D01*
X005630Y000951D02*
X005610Y000951D01*
X005610Y000793D02*
X005630Y000793D01*
X005630Y000634D02*
X005610Y000634D01*
X005610Y000476D02*
X005630Y000476D01*
X005873Y000476D02*
X006180Y000476D01*
X006180Y000634D02*
X006032Y000634D01*
X006170Y000793D02*
X006180Y000793D01*
X006170Y000951D02*
X006180Y000951D01*
X006170Y001110D02*
X006180Y001110D01*
X006180Y001268D02*
X006130Y001268D01*
X006180Y001427D02*
X005971Y001427D01*
X005110Y001268D02*
X004280Y001268D01*
X004239Y001110D02*
X005070Y001110D01*
X005070Y000951D02*
X004167Y000951D01*
X004095Y000793D02*
X005070Y000793D01*
X005208Y000634D02*
X003999Y000634D01*
X003862Y000476D02*
X005367Y000476D01*
X006192Y000317D02*
X003724Y000317D01*
X001736Y003359D02*
X001736Y003359D01*
X001689Y003329D02*
X001240Y003329D01*
X001240Y003487D02*
X002172Y003487D01*
X001442Y003170D02*
X001240Y003170D01*
X008980Y001427D02*
X009020Y001427D01*
X009020Y001268D02*
X008980Y001268D01*
X008980Y001110D02*
X009020Y001110D01*
X009020Y000951D02*
X008980Y000951D01*
X004201Y025677D02*
X002711Y025677D01*
X002815Y028372D02*
X004060Y028372D01*
X004060Y028530D02*
X002964Y028530D01*
X004142Y030908D02*
X009680Y030908D01*
X009680Y031066D02*
X009165Y031066D01*
X009293Y031225D02*
X009680Y031225D01*
X009680Y031383D02*
X009359Y031383D01*
X009360Y031542D02*
X009680Y031542D01*
X009680Y031700D02*
X009360Y031700D01*
X009360Y031859D02*
X009680Y031859D01*
X009680Y032017D02*
X009360Y032017D01*
X009297Y032176D02*
X009680Y032176D01*
X009688Y032334D02*
X009174Y032334D01*
X009790Y032493D02*
X004448Y032493D01*
X004471Y032334D02*
X006385Y032334D01*
X006262Y032176D02*
X004493Y032176D01*
X004516Y032017D02*
X006200Y032017D01*
X006200Y031859D02*
X004498Y031859D01*
X004476Y031700D02*
X006200Y031700D01*
X006200Y031542D02*
X004453Y031542D01*
X004444Y031482D02*
X004444Y031482D01*
X004399Y031383D02*
X006200Y031383D01*
X006266Y031225D02*
X004327Y031225D01*
X004254Y031066D02*
X006394Y031066D01*
X007174Y032334D02*
X007385Y032334D01*
X008174Y032334D02*
X008385Y032334D01*
X008394Y031066D02*
X008165Y031066D01*
X010000Y032250D02*
X011000Y032250D01*
X010609Y032651D02*
X004384Y032651D01*
X004311Y032810D02*
X010768Y032810D01*
X011976Y028055D02*
X012216Y028055D01*
X004227Y031005D02*
X004227Y031005D01*
D27*
X021100Y027000D02*
X024000Y027000D01*
X026500Y027400D02*
X028200Y027400D01*
X028200Y031500D01*
X029500Y031500D01*
X029500Y032500D01*
X013000Y013000D02*
X010500Y013000D01*
X010500Y010500D01*
X007500Y010500D01*
X007500Y009500D01*
X004230Y009500D01*
X004230Y008500D01*
X002270Y008500D01*
X010500Y006000D02*
X011000Y006000D01*
X011000Y002500D01*
X014610Y002500D01*
X014610Y003650D01*
X013610Y003650D02*
X013500Y003650D01*
X013500Y007500D01*
X013000Y007500D01*
X013000Y013000D01*
X025600Y003650D02*
X025610Y003650D01*
X026600Y003650D02*
X026610Y003650D01*
D28*
X008665Y026000D02*
X004500Y026000D01*
X004500Y029000D01*
X002500Y029000D01*
X008665Y027500D02*
X008665Y026000D01*
D29*
X003000Y005000D02*
X002940Y005000D01*
M02*
