%
M48
M72
T01C0.0320
T02C0.0350
T03C0.0360
T04C0.0394
T05C0.0512
T06C0.1181
%
T01
X2000Y8000
X2000Y9000
X10000Y8000
X11500Y7500
X12500Y7500
X12000Y9250
X12000Y10250
X12000Y11250
X12000Y12250
X11500Y14000
X12500Y14000
X15000Y12250
X15000Y11250
X15000Y10250
X15000Y9250
X15000Y7000
X16000Y7000
X17500Y6000
X17500Y5000
X17500Y3500
X19000Y1500
X20000Y1500
X21500Y3500
X21500Y5000
X21500Y6000
X20000Y8000
X19000Y8000
X17500Y10000
X17500Y11500
X17500Y12500
X16250Y14000
X15250Y14000
X15000Y16000
X15000Y17000
X15000Y18000
X15000Y19000
X15000Y21000
X16000Y21000
X15000Y22500
X15000Y23500
X15000Y24500
X15000Y25500
X17500Y25000
X17500Y26000
X17500Y23500
X18500Y21500
X19500Y21500
X17500Y19500
X17500Y18500
X17500Y17000
X19000Y15000
X20000Y15000
X21500Y17000
X21500Y18500
X21500Y19500
X25000Y21000
X26000Y21000
X28500Y22750
X28500Y24500
X28500Y26000
X29250Y29100
X29250Y29900
X31500Y29900
X31500Y29100
X32500Y26000
X32500Y24500
X32500Y22750
X32500Y19000
X32500Y17500
X32500Y15750
X32500Y13250
X32500Y11750
X32500Y10000
X32500Y7250
X32500Y5750
X32500Y4000
X28500Y4000
X28500Y5750
X28500Y7250
X26000Y7750
X25000Y7750
X21500Y10000
X21500Y11500
X21500Y12500
X25000Y14500
X26000Y14500
X28500Y13250
X28500Y11750
X28500Y10000
X28500Y15750
X28500Y17500
X28500Y19000
X21500Y23500
X21500Y25000
X21500Y26000
X24500Y29100
X24500Y29900
X26750Y29900
X26750Y29100
X12500Y21000
X11500Y21000
X12000Y22500
X12000Y23500
X12000Y24500
X12000Y25500
X9838Y24031
X9500Y26750
X8620Y29316
X8620Y30116
X6438Y30123
X6438Y29323
X4227Y29329
X4227Y30129
X1459Y27207
X1459Y26407
X3546Y26352
X3546Y27152
X5500Y26750
X2190Y23760
X3907Y22577
X3907Y21577
X2190Y19760
X9838Y20031
X10000Y19000
X12000Y19000
X12000Y18000
X12000Y17000
X12000Y16000
X10000Y15000
X10000Y12000
X10000Y5500
X12000Y5500
X12000Y4500
X12000Y3500
X12000Y2500
X11500Y1000
X12500Y1000
X15000Y1000
X16000Y1000
X15000Y2500
X15000Y3500
X15000Y4500
X15000Y5500
X10000Y1500
X23500Y1500
X24500Y1500
T02
X23500Y3000
X23500Y4000
X23500Y5000
X23500Y6000
X26500Y6000
X26500Y5000
X26500Y4000
X26500Y3000
X26500Y9500
X26500Y10500
X26500Y11500
X26500Y12500
X23500Y12500
X23500Y11500
X23500Y10500
X23500Y9500
X23500Y16250
X23500Y17250
X23500Y18250
X23500Y19250
X26500Y19250
X26500Y18250
X26500Y17250
X26500Y16250
X26500Y23000
X26500Y24000
X26500Y25000
X26500Y26000
X23500Y26000
X23500Y25000
X23500Y24000
X23500Y23000
X7977Y23382
X7977Y22382
X7977Y21382
X7977Y20382
X8000Y18500
X8000Y17500
X8000Y16500
X8000Y15500
X5000Y15500
X5000Y16500
X5000Y17500
X5000Y18500
X4977Y20382
X4977Y21382
X4977Y22382
X4977Y23382
X5000Y11500
X5000Y10500
X5000Y9500
X5000Y8500
X8000Y8500
X8000Y9500
X8000Y10500
X8000Y11500
X8000Y5000
X8000Y4000
X8000Y3000
X8000Y2000
X5000Y2000
X5000Y3000
X5000Y4000
X5000Y5000
T03
X12378Y27366
X12378Y28366
X12378Y29366
X12378Y30366
X19039Y29444
X20039Y29444
X21039Y29444
X22039Y29444
T04
X2000Y17500
X3750Y12500
T05
X35303Y12984
X35303Y11016
X35303Y7234
X35303Y5266
X35303Y16516
X35303Y18484
X35303Y23516
X35303Y25484
T06
X1640Y1600
X1600Y29850
X36750Y29750
X36720Y1640
M30
