G75*
G70*
%OFA0B0*%
%FSLAX24Y24*%
%IPPOS*%
%LPD*%
%AMOC8*
5,1,8,0,0,1.08239X$1,22.5*
%
%ADD10OC8,0.0520*%
%ADD11C,0.0520*%
%ADD12OC8,0.1000*%
%ADD13C,0.0520*%
%ADD14R,0.0550X0.0550*%
%ADD15C,0.0550*%
%ADD16C,0.0560*%
%ADD17C,0.0400*%
%ADD18R,0.0591X0.0591*%
%ADD19C,0.0120*%
D10*
X002000Y008000D03*
X002000Y009000D03*
X010000Y008000D03*
X011500Y007500D03*
X012500Y007500D03*
X015000Y007000D03*
X016000Y007000D03*
X017500Y006000D03*
X017500Y005000D03*
X017500Y003500D03*
X019000Y001500D03*
X020000Y001500D03*
X021500Y003500D03*
X021500Y005000D03*
X021500Y006000D03*
X020000Y008000D03*
X019000Y008000D03*
X017500Y010000D03*
X017500Y011500D03*
X017500Y012500D03*
X016250Y014000D03*
X015250Y014000D03*
X012500Y014000D03*
X011500Y014000D03*
X010000Y015000D03*
X010000Y012000D03*
X010000Y005500D03*
X010000Y001500D03*
X011500Y001000D03*
X012500Y001000D03*
X015000Y001000D03*
X016000Y001000D03*
X023500Y001500D03*
X024500Y001500D03*
X028500Y004000D03*
X028500Y005750D03*
X028500Y007250D03*
X026000Y007750D03*
X025000Y007750D03*
X021500Y010000D03*
X021500Y011500D03*
X021500Y012500D03*
X020000Y015000D03*
X019000Y015000D03*
X017500Y017000D03*
X017500Y018500D03*
X017500Y019500D03*
X016000Y021000D03*
X015000Y021000D03*
X012500Y021000D03*
X011500Y021000D03*
X009838Y020031D03*
X010000Y019000D03*
X009838Y024031D03*
X009500Y026750D03*
X008620Y029316D03*
X006438Y029323D03*
X004227Y029329D03*
X005500Y026750D03*
X003546Y026352D03*
X001459Y026407D03*
X002190Y023760D03*
X003907Y022577D03*
X003907Y021577D03*
X002190Y019760D03*
X017500Y023500D03*
X017500Y025000D03*
X017500Y026000D03*
X021500Y026000D03*
X021500Y025000D03*
X021500Y023500D03*
X019500Y021500D03*
X018500Y021500D03*
X021500Y019500D03*
X021500Y018500D03*
X021500Y017000D03*
X025000Y014500D03*
X026000Y014500D03*
X028500Y013250D03*
X028500Y011750D03*
X028500Y010000D03*
X032500Y010000D03*
X032500Y011750D03*
X032500Y013250D03*
X032500Y015750D03*
X032500Y017500D03*
X032500Y019000D03*
X028500Y019000D03*
X028500Y017500D03*
X028500Y015750D03*
X026000Y021000D03*
X025000Y021000D03*
X028500Y022750D03*
X028500Y024500D03*
X028500Y026000D03*
X032500Y026000D03*
X032500Y024500D03*
X032500Y022750D03*
X031500Y029900D03*
X029250Y029900D03*
X026750Y029900D03*
X024500Y029900D03*
X032500Y007250D03*
X032500Y005750D03*
X032500Y004000D03*
D11*
X003546Y027152D03*
X001459Y027207D03*
X004227Y030129D03*
X006438Y030123D03*
X008620Y030116D03*
X024500Y029100D03*
X026750Y029100D03*
X029250Y029100D03*
X031500Y029100D03*
D12*
X035303Y025484D03*
X035303Y023516D03*
X035303Y018484D03*
X035303Y016516D03*
X035303Y012984D03*
X035303Y011016D03*
X035303Y007234D03*
X035303Y005266D03*
D13*
X015260Y005500D02*
X014740Y005500D01*
X014740Y004500D02*
X015260Y004500D01*
X015260Y003500D02*
X014740Y003500D01*
X014740Y002500D02*
X015260Y002500D01*
X012260Y002500D02*
X011740Y002500D01*
X011740Y003500D02*
X012260Y003500D01*
X012260Y004500D02*
X011740Y004500D01*
X011740Y005500D02*
X012260Y005500D01*
X012260Y009250D02*
X011740Y009250D01*
X011740Y010250D02*
X012260Y010250D01*
X012260Y011250D02*
X011740Y011250D01*
X011740Y012250D02*
X012260Y012250D01*
X014740Y012250D02*
X015260Y012250D01*
X015260Y011250D02*
X014740Y011250D01*
X014740Y010250D02*
X015260Y010250D01*
X015260Y009250D02*
X014740Y009250D01*
X014740Y016000D02*
X015260Y016000D01*
X015260Y017000D02*
X014740Y017000D01*
X014740Y018000D02*
X015260Y018000D01*
X015260Y019000D02*
X014740Y019000D01*
X012260Y019000D02*
X011740Y019000D01*
X011740Y018000D02*
X012260Y018000D01*
X012260Y017000D02*
X011740Y017000D01*
X011740Y016000D02*
X012260Y016000D01*
X012260Y022500D02*
X011740Y022500D01*
X011740Y023500D02*
X012260Y023500D01*
X012260Y024500D02*
X011740Y024500D01*
X011740Y025500D02*
X012260Y025500D01*
X014740Y025500D02*
X015260Y025500D01*
X015260Y024500D02*
X014740Y024500D01*
X014740Y023500D02*
X015260Y023500D01*
X015260Y022500D02*
X014740Y022500D01*
D14*
X007977Y020382D03*
X008000Y015500D03*
X008000Y008500D03*
X008000Y002000D03*
X026500Y003000D03*
X026500Y009500D03*
X026500Y016250D03*
X026500Y023000D03*
D15*
X005000Y002000D03*
X005000Y003000D03*
X005000Y004000D03*
X005000Y005000D03*
X008000Y005000D03*
X008000Y004000D03*
X008000Y003000D03*
X005000Y008500D03*
X005000Y009500D03*
X005000Y010500D03*
X005000Y011500D03*
X008000Y011500D03*
X008000Y010500D03*
X008000Y009500D03*
X005000Y015500D03*
X005000Y016500D03*
X005000Y017500D03*
X005000Y018500D03*
X004977Y020382D03*
X004977Y021382D03*
X004977Y022382D03*
X004977Y023382D03*
X007977Y023382D03*
X007977Y022382D03*
X007977Y021382D03*
X008000Y018500D03*
X008000Y017500D03*
X008000Y016500D03*
X023500Y016250D03*
X023500Y017250D03*
X023500Y018250D03*
X023500Y019250D03*
X026500Y019250D03*
X026500Y018250D03*
X026500Y017250D03*
X026500Y012500D03*
X026500Y011500D03*
X026500Y010500D03*
X023500Y010500D03*
X023500Y009500D03*
X023500Y011500D03*
X023500Y012500D03*
X023500Y006000D03*
X023500Y005000D03*
X023500Y004000D03*
X023500Y003000D03*
X026500Y004000D03*
X026500Y005000D03*
X026500Y006000D03*
X023500Y023000D03*
X023500Y024000D03*
X023500Y025000D03*
X023500Y026000D03*
X026500Y026000D03*
X026500Y025000D03*
X026500Y024000D03*
D16*
X022039Y029164D02*
X022039Y029724D01*
X021039Y029724D02*
X021039Y029164D01*
X020039Y029164D02*
X020039Y029724D01*
X019039Y029724D02*
X019039Y029164D01*
X012658Y029366D02*
X012098Y029366D01*
X012098Y028366D02*
X012658Y028366D01*
X012658Y027366D02*
X012098Y027366D01*
X012098Y030366D02*
X012658Y030366D01*
D17*
X012378Y029366D02*
X012378Y029250D01*
X011000Y029250D01*
X011000Y030000D01*
X009750Y030000D01*
X008620Y030000D01*
X008620Y030116D01*
X008620Y030123D01*
X006438Y030123D01*
X006500Y030123D01*
X006500Y030129D01*
X004227Y030129D01*
X004227Y030060D01*
X003540Y030060D01*
X003540Y027152D01*
X003546Y027152D01*
X003546Y027000D01*
X002250Y027000D01*
X001459Y027000D01*
X001459Y027207D01*
X001459Y027152D01*
X002250Y027000D02*
X002250Y023760D01*
X002190Y023760D01*
X002190Y021577D01*
X003907Y021577D01*
X003907Y020500D01*
X004977Y020500D01*
X004977Y020382D01*
X004977Y020500D02*
X006000Y020500D01*
X006000Y015500D01*
X005000Y015500D01*
X006000Y015500D02*
X006000Y008500D01*
X005000Y008500D01*
X003000Y008500D01*
X003000Y009000D01*
X002000Y009000D01*
X006000Y008500D02*
X006000Y002000D01*
X005000Y002000D01*
X008000Y002000D02*
X008000Y003000D01*
X008000Y004000D02*
X009000Y004000D01*
X009000Y005500D01*
X010000Y005500D01*
X012000Y005500D01*
X012000Y004500D02*
X013000Y004500D01*
X013000Y007500D01*
X012500Y007500D01*
X013000Y007500D02*
X013000Y011250D01*
X012000Y011250D01*
X011000Y012000D02*
X011000Y012250D01*
X012000Y012250D01*
X011000Y012000D02*
X010000Y012000D01*
X009000Y012000D01*
X009000Y010500D01*
X008000Y010500D01*
X008000Y009500D02*
X008000Y008500D01*
X013000Y011250D02*
X013000Y014000D01*
X012500Y014000D01*
X013000Y014000D02*
X013000Y018000D01*
X012000Y018000D01*
X012000Y019000D02*
X010000Y019000D01*
X009000Y019000D01*
X009000Y017500D01*
X008000Y017500D01*
X008000Y016500D02*
X008000Y015500D01*
X013000Y018000D02*
X013000Y021000D01*
X013000Y024500D01*
X013400Y024500D01*
X013400Y029300D01*
X012750Y029300D01*
X012750Y029250D01*
X013000Y029250D01*
X012750Y029250D02*
X012128Y029250D01*
X012378Y029366D01*
X014000Y028000D02*
X021000Y028000D01*
X021000Y029194D01*
X021000Y029250D01*
X021000Y030750D01*
X023000Y030750D01*
X023000Y029000D01*
X024500Y029000D01*
X024500Y029100D01*
X026750Y029100D01*
X029250Y029100D01*
X031500Y029100D01*
X031500Y029900D02*
X029250Y029900D01*
X034250Y029900D01*
X034250Y027250D01*
X037250Y027250D01*
X037250Y011000D01*
X035303Y011000D01*
X035303Y011016D01*
X035303Y012984D02*
X035303Y013250D01*
X032500Y013250D01*
X028500Y013250D02*
X028500Y011750D01*
X028500Y011500D01*
X026500Y011500D01*
X026500Y010500D02*
X028500Y010500D01*
X028500Y010000D01*
X026500Y009500D02*
X026500Y008500D01*
X021500Y008500D01*
X021500Y010000D01*
X021500Y011500D01*
X021500Y012500D02*
X021500Y013250D01*
X025000Y013250D01*
X025000Y010500D01*
X026500Y010500D01*
X028500Y007250D02*
X028500Y005750D01*
X028500Y005000D01*
X026500Y005000D01*
X026500Y004000D02*
X028500Y004000D01*
X026500Y004000D02*
X024250Y004000D01*
X024250Y007000D01*
X022500Y007000D01*
X022500Y006000D01*
X021500Y006000D01*
X017500Y006000D01*
X015000Y006000D01*
X015000Y005500D01*
X015000Y004500D02*
X014000Y004500D01*
X014000Y007000D01*
X014000Y011250D01*
X014000Y014000D01*
X015250Y014000D01*
X014000Y014000D02*
X014000Y018000D01*
X015000Y018000D01*
X014000Y018000D02*
X014000Y021000D01*
X015000Y021000D01*
X014000Y021000D02*
X014000Y024500D01*
X015000Y024500D01*
X015000Y023500D02*
X017500Y023500D01*
X017500Y021500D01*
X018500Y021500D01*
X017500Y019500D02*
X021500Y019500D01*
X021500Y020000D01*
X025250Y020000D01*
X025250Y017250D01*
X026500Y017250D01*
X027500Y017250D01*
X027500Y015750D01*
X028500Y015750D01*
X026500Y015250D02*
X021500Y015250D01*
X021500Y017000D01*
X021500Y018500D01*
X017500Y018500D02*
X017500Y017000D01*
X017500Y015000D01*
X019000Y015000D01*
X017500Y017000D02*
X015000Y017000D01*
X015000Y019000D02*
X015000Y019500D01*
X017500Y019500D01*
X021500Y022000D02*
X021500Y023500D01*
X021500Y025000D01*
X021500Y026000D02*
X021500Y027000D01*
X025500Y027000D01*
X025500Y024000D01*
X026500Y024000D01*
X027500Y024000D01*
X027500Y022750D01*
X028500Y022750D01*
X028500Y024500D02*
X028500Y025000D01*
X026500Y025000D01*
X028500Y025000D02*
X028500Y026000D01*
X026500Y023000D02*
X026500Y022000D01*
X021500Y022000D01*
X017500Y023500D02*
X017500Y025000D01*
X017500Y026000D02*
X015500Y026000D01*
X015500Y025500D01*
X015000Y025500D01*
X014000Y024500D02*
X014000Y028000D01*
X012000Y025500D02*
X011000Y025500D01*
X011000Y024031D01*
X010000Y024031D01*
X010000Y024000D01*
X010000Y024031D02*
X009838Y024031D01*
X009838Y022382D01*
X007977Y022382D01*
X007977Y021382D02*
X007977Y020382D01*
X012500Y021000D02*
X013000Y021000D01*
X013000Y024500D02*
X012000Y024500D01*
X009750Y026750D02*
X009750Y030000D01*
X006500Y030000D02*
X006500Y030123D01*
X003546Y027152D02*
X003546Y027129D01*
X009500Y026750D02*
X009750Y026750D01*
X017500Y026000D02*
X021500Y026000D01*
X021000Y029194D02*
X021039Y029444D01*
X021039Y029250D01*
X021000Y029250D01*
X017500Y024000D02*
X017500Y023500D01*
X026500Y018250D02*
X027500Y018250D01*
X027500Y019000D01*
X028500Y019000D01*
X028500Y017500D01*
X026500Y016250D02*
X026500Y015250D01*
X021500Y012500D02*
X017500Y012500D01*
X015000Y012500D01*
X015000Y012250D01*
X015000Y011250D02*
X014000Y011250D01*
X015000Y010250D02*
X017500Y010250D01*
X017500Y010000D01*
X017500Y008000D01*
X019000Y008000D01*
X017500Y010000D02*
X017500Y011500D01*
X015000Y007000D02*
X014000Y007000D01*
X014000Y004500D02*
X014000Y001000D01*
X015000Y001000D01*
X013000Y001000D02*
X013000Y004500D01*
X015000Y003500D02*
X017500Y003500D01*
X017500Y001500D01*
X019000Y001500D01*
X017500Y003500D02*
X017500Y005000D01*
X021500Y005000D02*
X021500Y003500D01*
X021500Y000750D01*
X026500Y000750D01*
X026500Y003000D01*
X032500Y007234D02*
X032500Y007250D01*
X032500Y007234D02*
X035303Y007234D01*
X035303Y018484D02*
X035303Y019000D01*
X032500Y019000D01*
X035303Y025484D02*
X035303Y026000D01*
X032500Y026000D01*
X013000Y001000D02*
X012500Y001000D01*
D18*
X003750Y012500D03*
X002000Y017500D03*
D19*
X000500Y017500D01*
X000500Y012500D01*
X003750Y012500D01*
M02*
