%
M48
M72
T01C0.0320
T02C0.0350
T03C0.0354
T04C0.0512
%
T01
X10386Y5100
X11386Y5100
X11386Y7100
X10386Y7100
X6886Y8100
X5386Y8100
X5386Y12100
X6886Y12100
X13886Y7100
X17886Y7100
X21886Y7100
X21886Y9100
X21886Y10100
X21886Y11100
X21886Y12100
X24886Y12100
X24886Y11100
X24886Y10100
X24886Y9100
X26886Y7600
X26886Y3600
X21886Y3100
X16886Y12100
X15886Y12100
X12886Y19600
X12886Y20600
X10386Y20500
X10386Y19700
X7386Y19600
X7386Y20600
X31386Y20000
X31386Y19200
X34386Y19600
X34386Y18600
T02
X31886Y11600
X30886Y11600
X29886Y11600
X28886Y11600
X28886Y8600
X29886Y8600
X30886Y8600
X31886Y8600
X11886Y8600
X11886Y9600
X11886Y10600
X11886Y11600
X8886Y11600
X8886Y10600
X8886Y9600
X8886Y8600
T03
X30886Y7100
T04
X37189Y9116
X37189Y11084
X27870Y19797
X25902Y19797
X4870Y20297
X2902Y20297
X2189Y11084
X2189Y9116
M30
