%
M48
M72
T01C0.0315
T02C0.0320
T03C0.0350
T04C0.0512
%
T01
X18386Y3680
T02
X11386Y5680
X8386Y5680
X6886Y7180
X5886Y7180
X8886Y3930
X9886Y3930
X8386Y1180
X11386Y1180
X17886Y8180
X17886Y9180
X19886Y9080
X19886Y8280
T03
X15886Y5180
X15886Y4180
X15886Y3180
X15886Y2180
X12886Y2180
X12886Y3180
X12886Y4180
X12886Y5180
T04
X2189Y3196
X2189Y5164
X13402Y8877
X15370Y8877
X21583Y5414
X21583Y3446
M30
