G75*
G70*
%OFA0B0*%
%FSLAX24Y24*%
%IPPOS*%
%LPD*%
%AMOC8*
5,1,8,0,0,1.08239X$1,22.5*
%
%ADD10C,0.0000*%
%ADD11R,0.0236X0.0866*%
%ADD12C,0.0600*%
%ADD13OC8,0.0630*%
%ADD14OC8,0.0520*%
%ADD15C,0.0160*%
D10*
X000180Y000180D02*
X000180Y012676D01*
X008300Y012676D01*
X008300Y000180D01*
X000180Y000180D01*
D11*
X003430Y004369D03*
X003930Y004369D03*
X004430Y004369D03*
X004930Y004369D03*
X005430Y004369D03*
X005930Y004369D03*
X006430Y004369D03*
X006930Y004369D03*
X006930Y007991D03*
X006430Y007991D03*
X005930Y007991D03*
X005430Y007991D03*
X004930Y007991D03*
X004430Y007991D03*
X003930Y007991D03*
X003430Y007991D03*
D12*
X003680Y009880D02*
X003680Y010480D01*
X004680Y010480D02*
X004680Y009880D01*
X005680Y009880D02*
X005680Y010480D01*
X006680Y010480D02*
X006680Y009880D01*
X006680Y001980D02*
X006680Y001380D01*
X005680Y001380D02*
X005680Y001980D01*
X004680Y001980D02*
X004680Y001380D01*
X003680Y001380D02*
X003680Y001980D01*
D13*
X001680Y004180D03*
X001680Y006180D03*
D14*
X001180Y007680D03*
X002180Y007680D03*
X002180Y011680D03*
X001180Y011680D03*
D15*
X001180Y009930D01*
X003430Y009930D01*
X003680Y010180D01*
X003430Y009930D02*
X003430Y007991D01*
X003112Y007947D02*
X002564Y007947D01*
X002640Y007871D02*
X002371Y008140D01*
X001989Y008140D01*
X001809Y007960D01*
X001551Y007960D01*
X001371Y008140D01*
X000989Y008140D01*
X000720Y007871D01*
X000720Y007489D01*
X000989Y007220D01*
X001371Y007220D01*
X001551Y007400D01*
X001809Y007400D01*
X001900Y007309D01*
X001900Y006688D01*
X001893Y006695D01*
X001467Y006695D01*
X001165Y006393D01*
X001165Y005967D01*
X001467Y005665D01*
X001893Y005665D01*
X002128Y005900D01*
X003564Y005900D01*
X003650Y005814D01*
X003650Y004983D01*
X003631Y005002D01*
X003229Y005002D01*
X003112Y004885D01*
X003112Y003853D01*
X003150Y003815D01*
X003150Y001874D01*
X003180Y001802D01*
X003180Y001281D01*
X003256Y001097D01*
X003397Y000956D01*
X003581Y000880D01*
X003779Y000880D01*
X003963Y000956D01*
X004104Y001097D01*
X004180Y001281D01*
X004256Y001097D01*
X004397Y000956D01*
X004581Y000880D01*
X004779Y000880D01*
X004963Y000956D01*
X005104Y001097D01*
X005180Y001281D01*
X005256Y001097D01*
X005397Y000956D01*
X005581Y000880D01*
X005779Y000880D01*
X005963Y000956D01*
X006104Y001097D01*
X006180Y001281D01*
X006256Y001097D01*
X006397Y000956D01*
X006581Y000880D01*
X006779Y000880D01*
X006963Y000956D01*
X007104Y001097D01*
X007180Y001281D01*
X007180Y002079D01*
X007104Y002263D01*
X006963Y002404D01*
X006960Y002405D01*
X006960Y003236D01*
X006917Y003339D01*
X006839Y003417D01*
X006589Y003667D01*
X007820Y003667D01*
X007820Y003509D02*
X006747Y003509D01*
X006589Y003667D02*
X006486Y003710D01*
X005296Y003710D01*
X005232Y003774D01*
X005242Y003768D01*
X005288Y003756D01*
X005430Y003756D01*
X005572Y003756D01*
X005618Y003768D01*
X005659Y003792D01*
X005680Y003813D01*
X005701Y003792D01*
X005742Y003768D01*
X005788Y003756D01*
X005930Y003756D01*
X006072Y003756D01*
X006118Y003768D01*
X006159Y003792D01*
X006180Y003813D01*
X006201Y003792D01*
X006242Y003768D01*
X006288Y003756D01*
X006430Y003756D01*
X006572Y003756D01*
X006618Y003768D01*
X006659Y003792D01*
X006680Y003813D01*
X006701Y003792D01*
X006742Y003768D01*
X006788Y003756D01*
X006930Y003756D01*
X007072Y003756D01*
X007118Y003768D01*
X007159Y003792D01*
X007192Y003825D01*
X007216Y003866D01*
X007228Y003912D01*
X007228Y004369D01*
X007228Y004826D01*
X007216Y004872D01*
X007192Y004913D01*
X007159Y004946D01*
X007118Y004970D01*
X007072Y004982D01*
X006930Y004982D01*
X006788Y004982D01*
X006742Y004970D01*
X006701Y004946D01*
X006680Y004925D01*
X006659Y004946D01*
X006618Y004970D01*
X006572Y004982D01*
X006430Y004982D01*
X006288Y004982D01*
X006242Y004970D01*
X006201Y004946D01*
X006180Y004925D01*
X006159Y004946D01*
X006118Y004970D01*
X006072Y004982D01*
X005930Y004982D01*
X005788Y004982D01*
X005742Y004970D01*
X005701Y004946D01*
X005680Y004925D01*
X005659Y004946D01*
X005618Y004970D01*
X005572Y004982D01*
X005430Y004982D01*
X005288Y004982D01*
X005242Y004970D01*
X005201Y004946D01*
X005194Y004939D01*
X005131Y005002D01*
X004729Y005002D01*
X004680Y004953D01*
X004631Y005002D01*
X004229Y005002D01*
X004210Y004983D01*
X004210Y005986D01*
X004167Y006089D01*
X003917Y006339D01*
X003839Y006417D01*
X003736Y006460D01*
X002460Y006460D01*
X002460Y007309D01*
X002640Y007489D01*
X002640Y007871D01*
X002640Y007788D02*
X003112Y007788D01*
X003112Y007630D02*
X002640Y007630D01*
X002622Y007471D02*
X003116Y007471D01*
X003112Y007475D02*
X003229Y007358D01*
X003631Y007358D01*
X003680Y007407D01*
X003729Y007358D01*
X004131Y007358D01*
X004180Y007407D01*
X004229Y007358D01*
X004631Y007358D01*
X004694Y007421D01*
X004701Y007414D01*
X004742Y007390D01*
X004788Y007378D01*
X004930Y007378D01*
X005072Y007378D01*
X005118Y007390D01*
X005159Y007414D01*
X005180Y007435D01*
X005201Y007414D01*
X005242Y007390D01*
X005288Y007378D01*
X005430Y007378D01*
X005572Y007378D01*
X005618Y007390D01*
X005659Y007414D01*
X005680Y007435D01*
X005701Y007414D01*
X005742Y007390D01*
X005788Y007378D01*
X005930Y007378D01*
X006072Y007378D01*
X006118Y007390D01*
X006159Y007414D01*
X006180Y007435D01*
X006201Y007414D01*
X006242Y007390D01*
X006288Y007378D01*
X006430Y007378D01*
X006572Y007378D01*
X006618Y007390D01*
X006659Y007414D01*
X006680Y007435D01*
X006701Y007414D01*
X006742Y007390D01*
X006788Y007378D01*
X006930Y007378D01*
X007072Y007378D01*
X007118Y007390D01*
X007159Y007414D01*
X007192Y007447D01*
X007216Y007488D01*
X007228Y007534D01*
X007228Y007991D01*
X006930Y007991D01*
X006930Y007378D01*
X006930Y007991D01*
X006930Y007991D01*
X006930Y007991D01*
X006430Y007991D01*
X006430Y007378D01*
X006430Y007991D01*
X006430Y007991D01*
X006430Y007991D01*
X006228Y007991D01*
X005930Y007991D01*
X005930Y007378D01*
X005930Y007991D01*
X005930Y007991D01*
X005930Y007991D01*
X005632Y007991D01*
X005430Y007991D01*
X005430Y007378D01*
X005430Y007991D01*
X005430Y007991D01*
X005430Y007991D01*
X005132Y007991D01*
X004930Y007991D01*
X004930Y007378D01*
X004930Y007991D01*
X004930Y007991D01*
X004930Y007991D01*
X005430Y007991D01*
X005430Y007991D01*
X005930Y007991D01*
X005930Y007991D01*
X006430Y007991D01*
X006430Y007991D01*
X006632Y007991D01*
X006930Y007991D01*
X006930Y007991D01*
X007228Y007991D01*
X007228Y008448D01*
X007216Y008494D01*
X007192Y008535D01*
X007159Y008568D01*
X007118Y008592D01*
X007072Y008604D01*
X006930Y008604D01*
X006788Y008604D01*
X006742Y008592D01*
X006701Y008568D01*
X006680Y008547D01*
X006659Y008568D01*
X006618Y008592D01*
X006572Y008604D01*
X006430Y008604D01*
X006288Y008604D01*
X006242Y008592D01*
X006201Y008568D01*
X006180Y008547D01*
X006159Y008568D01*
X006118Y008592D01*
X006072Y008604D01*
X005930Y008604D01*
X005788Y008604D01*
X005742Y008592D01*
X005701Y008568D01*
X005680Y008547D01*
X005659Y008568D01*
X005618Y008592D01*
X005572Y008604D01*
X005430Y008604D01*
X005288Y008604D01*
X005242Y008592D01*
X005201Y008568D01*
X005180Y008547D01*
X005159Y008568D01*
X005118Y008592D01*
X005072Y008604D01*
X004930Y008604D01*
X004788Y008604D01*
X004742Y008592D01*
X004732Y008586D01*
X005542Y009396D01*
X005581Y009380D01*
X005779Y009380D01*
X005963Y009456D01*
X006104Y009597D01*
X006180Y009781D01*
X006180Y010579D01*
X006104Y010763D01*
X005963Y010904D01*
X005779Y010980D01*
X005581Y010980D01*
X005397Y010904D01*
X005256Y010763D01*
X005180Y010579D01*
X005104Y010763D01*
X004963Y010904D01*
X004960Y010905D01*
X004960Y011736D01*
X004917Y011839D01*
X004839Y011917D01*
X004736Y011960D01*
X002551Y011960D01*
X002371Y012140D01*
X001989Y012140D01*
X001720Y011871D01*
X001720Y011489D01*
X001989Y011220D01*
X002371Y011220D01*
X002551Y011400D01*
X004400Y011400D01*
X004400Y010905D01*
X004397Y010904D01*
X004256Y010763D01*
X004180Y010579D01*
X004104Y010763D01*
X003963Y010904D01*
X003779Y010980D01*
X003581Y010980D01*
X003397Y010904D01*
X003256Y010763D01*
X003180Y010579D01*
X003180Y010210D01*
X001460Y010210D01*
X001460Y011309D01*
X001640Y011489D01*
X001640Y011871D01*
X001371Y012140D01*
X000989Y012140D01*
X000720Y011871D01*
X000720Y011489D01*
X000900Y011309D01*
X000900Y009874D01*
X000943Y009771D01*
X001021Y009693D01*
X001124Y009650D01*
X003150Y009650D01*
X003150Y008545D01*
X003112Y008507D01*
X003112Y007475D01*
X003112Y008105D02*
X002406Y008105D01*
X002180Y007680D02*
X002180Y006180D01*
X001680Y006180D01*
X003680Y006180D01*
X003930Y005930D01*
X003930Y004369D01*
X003930Y003180D01*
X004680Y002430D01*
X004680Y001680D01*
X004180Y002079D02*
X004256Y002263D01*
X004353Y002361D01*
X003771Y002943D01*
X003710Y003004D01*
X003710Y002480D01*
X003779Y002480D01*
X003963Y002404D01*
X004104Y002263D01*
X004180Y002079D01*
X004180Y001281D01*
X004180Y002079D01*
X004179Y002082D02*
X004181Y002082D01*
X004113Y002241D02*
X004247Y002241D01*
X004315Y002399D02*
X003968Y002399D01*
X004157Y002558D02*
X003710Y002558D01*
X003710Y002716D02*
X003998Y002716D01*
X003840Y002875D02*
X003710Y002875D01*
X003150Y002875D02*
X000660Y002875D01*
X000660Y003033D02*
X003150Y003033D01*
X003150Y003192D02*
X000660Y003192D01*
X000660Y003350D02*
X003150Y003350D01*
X003150Y003509D02*
X000660Y003509D01*
X000660Y003667D02*
X003150Y003667D01*
X003139Y003826D02*
X002026Y003826D01*
X001885Y003685D02*
X002175Y003975D01*
X002175Y004180D01*
X002175Y004385D01*
X001885Y004675D01*
X001680Y004675D01*
X001680Y004180D01*
X001680Y004180D01*
X002175Y004180D01*
X001680Y004180D01*
X001680Y004180D01*
X001680Y003685D01*
X001885Y003685D01*
X001680Y003826D02*
X001680Y003826D01*
X001680Y003685D02*
X001680Y004180D01*
X001680Y004180D01*
X001680Y004180D01*
X001185Y004180D01*
X001185Y004385D01*
X001475Y004675D01*
X001680Y004675D01*
X001680Y004180D01*
X001185Y004180D01*
X001185Y003975D01*
X001475Y003685D01*
X001680Y003685D01*
X001680Y003984D02*
X001680Y003984D01*
X001680Y004143D02*
X001680Y004143D01*
X001680Y004301D02*
X001680Y004301D01*
X001680Y004460D02*
X001680Y004460D01*
X001680Y004618D02*
X001680Y004618D01*
X001942Y004618D02*
X003112Y004618D01*
X003112Y004460D02*
X002101Y004460D01*
X002175Y004301D02*
X003112Y004301D01*
X003112Y004143D02*
X002175Y004143D01*
X002175Y003984D02*
X003112Y003984D01*
X003430Y004369D02*
X003430Y001930D01*
X003680Y001680D01*
X003242Y001131D02*
X000660Y001131D01*
X000660Y000973D02*
X003380Y000973D01*
X003180Y001290D02*
X000660Y001290D01*
X000660Y001448D02*
X003180Y001448D01*
X003180Y001607D02*
X000660Y001607D01*
X000660Y001765D02*
X003180Y001765D01*
X003150Y001924D02*
X000660Y001924D01*
X000660Y002082D02*
X003150Y002082D01*
X003150Y002241D02*
X000660Y002241D01*
X000660Y002399D02*
X003150Y002399D01*
X003150Y002558D02*
X000660Y002558D01*
X000660Y002716D02*
X003150Y002716D01*
X004180Y001924D02*
X004180Y001924D01*
X004180Y001765D02*
X004180Y001765D01*
X004180Y001607D02*
X004180Y001607D01*
X004180Y001448D02*
X004180Y001448D01*
X004180Y001290D02*
X004180Y001290D01*
X004118Y001131D02*
X004242Y001131D01*
X004380Y000973D02*
X003980Y000973D01*
X004980Y000973D02*
X005380Y000973D01*
X005242Y001131D02*
X005118Y001131D01*
X005180Y001281D02*
X005180Y002079D01*
X005256Y002263D01*
X005397Y002404D01*
X005400Y002405D01*
X005400Y002564D01*
X005314Y002650D01*
X004874Y002650D01*
X004843Y002663D01*
X004917Y002589D01*
X004960Y002486D01*
X004960Y002405D01*
X004963Y002404D01*
X005104Y002263D01*
X005180Y002079D01*
X005180Y001281D01*
X005180Y001290D02*
X005180Y001290D01*
X005180Y001448D02*
X005180Y001448D01*
X005180Y001607D02*
X005180Y001607D01*
X005180Y001765D02*
X005180Y001765D01*
X005180Y001924D02*
X005180Y001924D01*
X005179Y002082D02*
X005181Y002082D01*
X005113Y002241D02*
X005247Y002241D01*
X005392Y002399D02*
X004968Y002399D01*
X004930Y002558D02*
X005400Y002558D01*
X005680Y002680D02*
X005430Y002930D01*
X004930Y002930D01*
X004430Y003430D01*
X004430Y004369D01*
X004930Y004369D02*
X004930Y003680D01*
X005180Y003430D01*
X006430Y003430D01*
X006680Y003180D01*
X006680Y001680D01*
X006180Y002079D02*
X006256Y002263D01*
X006397Y002404D01*
X006400Y002405D01*
X006400Y003064D01*
X006314Y003150D01*
X005606Y003150D01*
X005839Y002917D01*
X005917Y002839D01*
X005960Y002736D01*
X005960Y002405D01*
X005963Y002404D01*
X006104Y002263D01*
X006180Y002079D01*
X006180Y001281D01*
X006180Y002079D01*
X006179Y002082D02*
X006181Y002082D01*
X006113Y002241D02*
X006247Y002241D01*
X006392Y002399D02*
X005968Y002399D01*
X005960Y002558D02*
X006400Y002558D01*
X006400Y002716D02*
X005960Y002716D01*
X005881Y002875D02*
X006400Y002875D01*
X006400Y003033D02*
X005723Y003033D01*
X005680Y002680D02*
X005680Y001680D01*
X006118Y001131D02*
X006242Y001131D01*
X006380Y000973D02*
X005980Y000973D01*
X006180Y001290D02*
X006180Y001290D01*
X006180Y001448D02*
X006180Y001448D01*
X006180Y001607D02*
X006180Y001607D01*
X006180Y001765D02*
X006180Y001765D01*
X006180Y001924D02*
X006180Y001924D01*
X006968Y002399D02*
X007820Y002399D01*
X007820Y002241D02*
X007113Y002241D01*
X007179Y002082D02*
X007820Y002082D01*
X007820Y001924D02*
X007180Y001924D01*
X007180Y001765D02*
X007820Y001765D01*
X007820Y001607D02*
X007180Y001607D01*
X007180Y001448D02*
X007820Y001448D01*
X007820Y001290D02*
X007180Y001290D01*
X007118Y001131D02*
X007820Y001131D01*
X007820Y000973D02*
X006980Y000973D01*
X007820Y000814D02*
X000660Y000814D01*
X000660Y000660D02*
X000660Y012196D01*
X007820Y012196D01*
X007820Y000660D01*
X000660Y000660D01*
X000660Y003826D02*
X001334Y003826D01*
X001185Y003984D02*
X000660Y003984D01*
X000660Y004143D02*
X001185Y004143D01*
X001185Y004301D02*
X000660Y004301D01*
X000660Y004460D02*
X001259Y004460D01*
X001418Y004618D02*
X000660Y004618D01*
X000660Y004777D02*
X003112Y004777D01*
X003162Y004935D02*
X000660Y004935D01*
X000660Y005094D02*
X003650Y005094D01*
X003650Y005252D02*
X000660Y005252D01*
X000660Y005411D02*
X003650Y005411D01*
X003650Y005569D02*
X000660Y005569D01*
X000660Y005728D02*
X001404Y005728D01*
X001246Y005886D02*
X000660Y005886D01*
X000660Y006045D02*
X001165Y006045D01*
X001165Y006203D02*
X000660Y006203D01*
X000660Y006362D02*
X001165Y006362D01*
X001292Y006520D02*
X000660Y006520D01*
X000660Y006679D02*
X001450Y006679D01*
X001900Y006837D02*
X000660Y006837D01*
X000660Y006996D02*
X001900Y006996D01*
X001900Y007154D02*
X000660Y007154D01*
X000660Y007313D02*
X000897Y007313D01*
X000738Y007471D02*
X000660Y007471D01*
X000660Y007630D02*
X000720Y007630D01*
X000720Y007788D02*
X000660Y007788D01*
X000660Y007947D02*
X000796Y007947D01*
X000660Y008105D02*
X000954Y008105D01*
X000660Y008264D02*
X003112Y008264D01*
X003112Y008422D02*
X000660Y008422D01*
X000660Y008581D02*
X003150Y008581D01*
X003150Y008739D02*
X000660Y008739D01*
X000660Y008898D02*
X003150Y008898D01*
X003150Y009056D02*
X000660Y009056D01*
X000660Y009215D02*
X003150Y009215D01*
X003150Y009373D02*
X000660Y009373D01*
X000660Y009532D02*
X003150Y009532D01*
X003180Y010324D02*
X001460Y010324D01*
X001460Y010483D02*
X003180Y010483D01*
X003205Y010641D02*
X001460Y010641D01*
X001460Y010800D02*
X003292Y010800D01*
X003527Y010958D02*
X001460Y010958D01*
X001460Y011117D02*
X004400Y011117D01*
X004400Y011275D02*
X002426Y011275D01*
X002180Y011680D02*
X004680Y011680D01*
X004680Y010180D01*
X004680Y009680D01*
X003930Y008930D01*
X003930Y007991D01*
X004430Y007991D02*
X004430Y008680D01*
X005680Y009930D01*
X005680Y010180D01*
X005292Y010800D02*
X005068Y010800D01*
X005155Y010641D02*
X005205Y010641D01*
X005180Y010579D02*
X005180Y009826D01*
X005180Y009826D01*
X005180Y010579D01*
X005180Y010483D02*
X005180Y010483D01*
X005180Y010324D02*
X005180Y010324D01*
X005180Y010166D02*
X005180Y010166D01*
X005180Y010007D02*
X005180Y010007D01*
X005180Y009849D02*
X005180Y009849D01*
X005519Y009373D02*
X007820Y009373D01*
X007820Y009215D02*
X005360Y009215D01*
X005202Y009056D02*
X007820Y009056D01*
X007820Y008898D02*
X005043Y008898D01*
X004885Y008739D02*
X007820Y008739D01*
X007820Y008581D02*
X007137Y008581D01*
X007228Y008422D02*
X007820Y008422D01*
X007820Y008264D02*
X007228Y008264D01*
X007228Y008105D02*
X007820Y008105D01*
X007820Y007947D02*
X007228Y007947D01*
X007228Y007788D02*
X007820Y007788D01*
X007820Y007630D02*
X007228Y007630D01*
X007206Y007471D02*
X007820Y007471D01*
X007820Y007313D02*
X002463Y007313D01*
X002460Y007154D02*
X007820Y007154D01*
X007820Y006996D02*
X002460Y006996D01*
X002460Y006837D02*
X007820Y006837D01*
X007820Y006679D02*
X002460Y006679D01*
X002460Y006520D02*
X007820Y006520D01*
X007820Y006362D02*
X003894Y006362D01*
X003917Y006339D02*
X003917Y006339D01*
X004053Y006203D02*
X007820Y006203D01*
X007820Y006045D02*
X004186Y006045D01*
X004210Y005886D02*
X007820Y005886D01*
X007820Y005728D02*
X004210Y005728D01*
X004210Y005569D02*
X007820Y005569D01*
X007820Y005411D02*
X004210Y005411D01*
X004210Y005252D02*
X007820Y005252D01*
X007820Y005094D02*
X004210Y005094D01*
X003650Y005728D02*
X001956Y005728D01*
X002114Y005886D02*
X003578Y005886D01*
X004930Y007471D02*
X004930Y007471D01*
X004930Y007630D02*
X004930Y007630D01*
X004930Y007788D02*
X004930Y007788D01*
X004930Y007947D02*
X004930Y007947D01*
X004930Y007991D02*
X004930Y008604D01*
X004930Y007991D01*
X004930Y007991D01*
X004930Y008105D02*
X004930Y008105D01*
X004930Y008264D02*
X004930Y008264D01*
X004930Y008422D02*
X004930Y008422D01*
X004930Y008581D02*
X004930Y008581D01*
X005137Y008581D02*
X005223Y008581D01*
X005430Y008581D02*
X005430Y008581D01*
X005430Y008604D02*
X005430Y007991D01*
X005430Y007991D01*
X005430Y008604D01*
X005430Y008422D02*
X005430Y008422D01*
X005430Y008264D02*
X005430Y008264D01*
X005430Y008105D02*
X005430Y008105D01*
X005430Y007947D02*
X005430Y007947D01*
X005430Y007788D02*
X005430Y007788D01*
X005430Y007630D02*
X005430Y007630D01*
X005430Y007471D02*
X005430Y007471D01*
X005930Y007471D02*
X005930Y007471D01*
X005930Y007630D02*
X005930Y007630D01*
X005930Y007788D02*
X005930Y007788D01*
X005930Y007947D02*
X005930Y007947D01*
X005930Y007991D02*
X005930Y008604D01*
X005930Y007991D01*
X005930Y007991D01*
X005930Y008105D02*
X005930Y008105D01*
X005930Y008264D02*
X005930Y008264D01*
X005930Y008422D02*
X005930Y008422D01*
X005930Y008581D02*
X005930Y008581D01*
X005723Y008581D02*
X005637Y008581D01*
X006137Y008581D02*
X006223Y008581D01*
X006430Y008581D02*
X006430Y008581D01*
X006430Y008604D02*
X006430Y007991D01*
X006430Y007991D01*
X006430Y008604D01*
X006430Y008422D02*
X006430Y008422D01*
X006430Y008264D02*
X006430Y008264D01*
X006430Y008105D02*
X006430Y008105D01*
X006430Y007947D02*
X006430Y007947D01*
X006430Y007788D02*
X006430Y007788D01*
X006430Y007630D02*
X006430Y007630D01*
X006430Y007471D02*
X006430Y007471D01*
X006930Y007471D02*
X006930Y007471D01*
X006930Y007630D02*
X006930Y007630D01*
X006930Y007788D02*
X006930Y007788D01*
X006930Y007947D02*
X006930Y007947D01*
X006930Y007991D02*
X006930Y008604D01*
X006930Y007991D01*
X006930Y007991D01*
X006930Y008105D02*
X006930Y008105D01*
X006930Y008264D02*
X006930Y008264D01*
X006930Y008422D02*
X006930Y008422D01*
X006930Y008581D02*
X006930Y008581D01*
X006723Y008581D02*
X006637Y008581D01*
X006642Y009400D02*
X006568Y009412D01*
X006496Y009435D01*
X006428Y009469D01*
X006367Y009514D01*
X006314Y009567D01*
X006269Y009628D01*
X006235Y009696D01*
X006212Y009768D01*
X006200Y009842D01*
X006200Y010160D01*
X006660Y010160D01*
X006700Y010160D01*
X006700Y010200D01*
X007160Y010200D01*
X007160Y010518D01*
X007148Y010592D01*
X007125Y010664D01*
X007091Y010732D01*
X007046Y010793D01*
X006993Y010846D01*
X006932Y010891D01*
X006864Y010925D01*
X006792Y010948D01*
X006718Y010960D01*
X006700Y010960D01*
X006700Y010200D01*
X006660Y010200D01*
X006660Y010960D01*
X006642Y010960D01*
X006568Y010948D01*
X006496Y010925D01*
X006428Y010891D01*
X006367Y010846D01*
X006314Y010793D01*
X006269Y010732D01*
X006235Y010664D01*
X006212Y010592D01*
X006200Y010518D01*
X006200Y010200D01*
X006660Y010200D01*
X006660Y010160D01*
X006660Y009400D01*
X006642Y009400D01*
X006700Y009400D02*
X006718Y009400D01*
X006792Y009412D01*
X006864Y009435D01*
X006932Y009469D01*
X006993Y009514D01*
X007046Y009567D01*
X007091Y009628D01*
X007125Y009696D01*
X007148Y009768D01*
X007160Y009842D01*
X007160Y010160D01*
X006700Y010160D01*
X006700Y009400D01*
X006700Y009532D02*
X006660Y009532D01*
X006660Y009690D02*
X006700Y009690D01*
X006700Y009849D02*
X006660Y009849D01*
X006660Y010007D02*
X006700Y010007D01*
X006700Y010166D02*
X007820Y010166D01*
X007820Y010324D02*
X007160Y010324D01*
X007160Y010483D02*
X007820Y010483D01*
X007820Y010641D02*
X007132Y010641D01*
X007039Y010800D02*
X007820Y010800D01*
X007820Y010958D02*
X006730Y010958D01*
X006700Y010958D02*
X006660Y010958D01*
X006630Y010958D02*
X005833Y010958D01*
X006068Y010800D02*
X006321Y010800D01*
X006228Y010641D02*
X006155Y010641D01*
X006180Y010483D02*
X006200Y010483D01*
X006200Y010324D02*
X006180Y010324D01*
X006180Y010166D02*
X006660Y010166D01*
X006660Y010324D02*
X006700Y010324D01*
X006700Y010483D02*
X006660Y010483D01*
X006660Y010641D02*
X006700Y010641D01*
X006700Y010800D02*
X006660Y010800D01*
X006200Y010007D02*
X006180Y010007D01*
X006180Y009849D02*
X006200Y009849D01*
X006238Y009690D02*
X006143Y009690D01*
X006039Y009532D02*
X006350Y009532D01*
X007010Y009532D02*
X007820Y009532D01*
X007820Y009690D02*
X007122Y009690D01*
X007160Y009849D02*
X007820Y009849D01*
X007820Y010007D02*
X007160Y010007D01*
X007820Y011117D02*
X004960Y011117D01*
X004960Y011275D02*
X007820Y011275D01*
X007820Y011434D02*
X004960Y011434D01*
X004960Y011592D02*
X007820Y011592D01*
X007820Y011751D02*
X004954Y011751D01*
X004847Y011909D02*
X007820Y011909D01*
X007820Y012068D02*
X002443Y012068D01*
X001934Y011275D02*
X001460Y011275D01*
X001584Y011434D02*
X001776Y011434D01*
X001720Y011592D02*
X001640Y011592D01*
X001640Y011751D02*
X001720Y011751D01*
X001758Y011909D02*
X001602Y011909D01*
X001443Y012068D02*
X001917Y012068D01*
X000917Y012068D02*
X000660Y012068D01*
X000660Y011909D02*
X000758Y011909D01*
X000720Y011751D02*
X000660Y011751D01*
X000660Y011592D02*
X000720Y011592D01*
X000776Y011434D02*
X000660Y011434D01*
X000660Y011275D02*
X000900Y011275D01*
X000900Y011117D02*
X000660Y011117D01*
X000660Y010958D02*
X000900Y010958D01*
X000900Y010800D02*
X000660Y010800D01*
X000660Y010641D02*
X000900Y010641D01*
X000900Y010483D02*
X000660Y010483D01*
X000660Y010324D02*
X000900Y010324D01*
X000900Y010166D02*
X000660Y010166D01*
X000660Y010007D02*
X000900Y010007D01*
X000911Y009849D02*
X000660Y009849D01*
X000660Y009690D02*
X001028Y009690D01*
X001406Y008105D02*
X001954Y008105D01*
X002180Y007680D02*
X001180Y007680D01*
X001463Y007313D02*
X001897Y007313D01*
X003710Y009106D02*
X003710Y009380D01*
X003779Y009380D01*
X003963Y009456D01*
X004104Y009597D01*
X004180Y009781D01*
X004180Y010579D01*
X004180Y009781D01*
X004240Y009636D01*
X003710Y009106D01*
X003710Y009215D02*
X003819Y009215D01*
X003710Y009373D02*
X003977Y009373D01*
X004039Y009532D02*
X004136Y009532D01*
X004143Y009690D02*
X004217Y009690D01*
X004180Y009849D02*
X004180Y009849D01*
X004180Y010007D02*
X004180Y010007D01*
X004180Y010166D02*
X004180Y010166D01*
X004180Y010324D02*
X004180Y010324D01*
X004180Y010483D02*
X004180Y010483D01*
X004155Y010641D02*
X004205Y010641D01*
X004292Y010800D02*
X004068Y010800D01*
X003833Y010958D02*
X004400Y010958D01*
X004960Y010958D02*
X005527Y010958D01*
X005430Y004982D02*
X005430Y004369D01*
X005430Y004369D01*
X005430Y004982D01*
X005430Y004935D02*
X005430Y004935D01*
X005430Y004777D02*
X005430Y004777D01*
X005430Y004618D02*
X005430Y004618D01*
X005430Y004460D02*
X005430Y004460D01*
X005430Y004369D02*
X005632Y004369D01*
X005930Y004369D01*
X005930Y004369D01*
X005930Y004982D01*
X005930Y004369D01*
X006430Y004369D01*
X006430Y004369D01*
X006430Y004982D01*
X006430Y004369D01*
X006930Y004369D01*
X006930Y004369D01*
X006930Y004982D01*
X006930Y004369D01*
X007228Y004369D01*
X006930Y004369D01*
X006930Y004369D01*
X006930Y004369D01*
X006632Y004369D01*
X006430Y004369D01*
X006430Y004369D01*
X006430Y004369D01*
X006228Y004369D01*
X005930Y004369D01*
X005930Y004369D01*
X005930Y004369D01*
X005430Y004369D01*
X005430Y004369D01*
X005430Y003756D01*
X005430Y004369D01*
X005430Y004369D01*
X005430Y004301D02*
X005430Y004301D01*
X005430Y004143D02*
X005430Y004143D01*
X005430Y003984D02*
X005430Y003984D01*
X005430Y003826D02*
X005430Y003826D01*
X005930Y003826D02*
X005930Y003826D01*
X005930Y003756D02*
X005930Y004369D01*
X005930Y004369D01*
X005930Y003756D01*
X005930Y003984D02*
X005930Y003984D01*
X005930Y004143D02*
X005930Y004143D01*
X005930Y004301D02*
X005930Y004301D01*
X005930Y004460D02*
X005930Y004460D01*
X005930Y004618D02*
X005930Y004618D01*
X005930Y004777D02*
X005930Y004777D01*
X005930Y004935D02*
X005930Y004935D01*
X006170Y004935D02*
X006190Y004935D01*
X006430Y004935D02*
X006430Y004935D01*
X006430Y004777D02*
X006430Y004777D01*
X006430Y004618D02*
X006430Y004618D01*
X006430Y004460D02*
X006430Y004460D01*
X006430Y004369D02*
X006430Y003756D01*
X006430Y004369D01*
X006430Y004369D01*
X006430Y004301D02*
X006430Y004301D01*
X006430Y004143D02*
X006430Y004143D01*
X006430Y003984D02*
X006430Y003984D01*
X006430Y003826D02*
X006430Y003826D01*
X006930Y003826D02*
X006930Y003826D01*
X006930Y003756D02*
X006930Y004369D01*
X006930Y004369D01*
X006930Y003756D01*
X006930Y003984D02*
X006930Y003984D01*
X006930Y004143D02*
X006930Y004143D01*
X006930Y004301D02*
X006930Y004301D01*
X006930Y004460D02*
X006930Y004460D01*
X006930Y004618D02*
X006930Y004618D01*
X006930Y004777D02*
X006930Y004777D01*
X006930Y004935D02*
X006930Y004935D01*
X007170Y004935D02*
X007820Y004935D01*
X007820Y004777D02*
X007228Y004777D01*
X007228Y004618D02*
X007820Y004618D01*
X007820Y004460D02*
X007228Y004460D01*
X007228Y004301D02*
X007820Y004301D01*
X007820Y004143D02*
X007228Y004143D01*
X007228Y003984D02*
X007820Y003984D01*
X007820Y003826D02*
X007192Y003826D01*
X006906Y003350D02*
X007820Y003350D01*
X007820Y003192D02*
X006960Y003192D01*
X006960Y003033D02*
X007820Y003033D01*
X007820Y002875D02*
X006960Y002875D01*
X006960Y002716D02*
X007820Y002716D01*
X007820Y002558D02*
X006960Y002558D01*
X006690Y004935D02*
X006670Y004935D01*
X005690Y004935D02*
X005670Y004935D01*
M02*
