%
M48
M72
T01C0.0315
T02C0.0320
T03C0.0360
T04C0.0362
T05C0.0394
T06C0.0400
T07C0.0591
T08C0.0709
T09C0.0906
T10C0.1181
%
T01
X18500Y19000
X16500Y21000
X16000Y22000
X15500Y23000
X15500Y24000
X15500Y25000
X11750Y27000
X10250Y27000
X16250Y31750
X16000Y33000
X16000Y33750
X16000Y34500
X7000Y38500
X3750Y27000
X2750Y27000
X2750Y21000
X3750Y21000
X35000Y31000
X36500Y31000
X36000Y28000
X36000Y27000
X36000Y26000
X45000Y28000
X51000Y27000
X51000Y26000
X47681Y15787
X47681Y14016
X47681Y12287
X47681Y10516
X47681Y8787
X47681Y7016
X47681Y5287
X47681Y3516
X45122Y3516
X45122Y5287
X45122Y7016
X45122Y8787
X45122Y10516
X45122Y12287
X45122Y14016
X45122Y15787
X35000Y35500
T02
X38000Y39500
X39000Y39500
X38500Y40250
X45000Y34000
X45000Y32500
X44000Y32500
X46000Y32500
X47000Y32500
X47000Y34000
X49500Y33500
X49500Y31500
X47000Y29500
X46000Y29500
X45000Y29500
X44000Y29500
X46500Y19500
X46500Y18500
X50000Y17000
X52000Y17000
X52000Y13000
X50000Y13000
X50000Y9000
X52000Y9000
X52000Y5000
X50000Y5000
X36500Y4500
X36500Y3500
X36500Y7000
X36500Y8000
X36500Y10500
X36500Y11500
X36500Y13500
X36500Y14500
X15250Y26500
X15250Y28500
X13000Y29500
X11000Y29500
X4500Y18500
X2500Y18500
X7500Y41000
X9500Y41000
T03
X17500Y39000
X17500Y38000
X17500Y37000
X18500Y37000
X18500Y38000
X18500Y39000
X18500Y36000
X18500Y35000
X18500Y34000
X18500Y33000
X18500Y32000
X17500Y32000
X17500Y33000
X17500Y34000
X17500Y35000
X17500Y36000
X17500Y31000
X17500Y30000
X17500Y29000
X17500Y28000
X17500Y27000
X18500Y27000
X18500Y28000
X18500Y29000
X18500Y30000
X18500Y31000
X18500Y26000
X18500Y25000
X18500Y24000
X18500Y23000
X17500Y23000
X17500Y24000
X17500Y25000
X17500Y26000
X17500Y22000
X17500Y21000
X17500Y20000
X18500Y20000
X18500Y21000
X18500Y22000
X12500Y18500
X7500Y18500
X31500Y15500
X32500Y20000
X33500Y20000
X33500Y21000
X32500Y21000
X32500Y22000
X33500Y22000
X33500Y23000
X32500Y23000
X32500Y24000
X33500Y24000
X33500Y25000
X32500Y25000
X32500Y26000
X33500Y26000
X33500Y27000
X32500Y27000
X32500Y28000
X33500Y28000
X33500Y29000
X32500Y29000
X32500Y30000
X33500Y30000
X33500Y31000
X32500Y31000
X32500Y32000
X33500Y32000
X33500Y33000
X32500Y33000
X32500Y34000
X33500Y34000
X33500Y35000
X32500Y35000
X32500Y36000
X33500Y36000
X33500Y37000
X32500Y37000
X32500Y38000
X33500Y38000
X33500Y39000
X32500Y39000
X38000Y37000
X43000Y37000
X45000Y36000
X47000Y36000
X47000Y41000
X45000Y41000
X49500Y30000
X53000Y27000
X53000Y26000
X53000Y25000
X53000Y24000
X49500Y25000
X47000Y24000
X46000Y24000
X45000Y24000
X48000Y19500
X53000Y19500
X54000Y15000
X54000Y11000
X54000Y7000
X54000Y3000
X49000Y3000
X49000Y7000
X49000Y11000
X49000Y15000
X43000Y14500
X43000Y11500
X43000Y8000
X43000Y4500
X38000Y4500
X38000Y8000
X38000Y11500
X38000Y14500
X31500Y10500
T04
X49291Y37154
X49291Y37154
X49291Y38138
X49291Y38138
X49291Y38925
X49295Y38925
X49291Y39909
X49291Y39909
T05
X30000Y39000
X30000Y38000
X30000Y37000
X30000Y36000
X30000Y35000
X30000Y34000
X30000Y33000
X30000Y32000
X30000Y31000
X30000Y30000
X30000Y29000
X30000Y28000
X30000Y27000
X30000Y26000
X30000Y25000
X30000Y24000
X30000Y23000
X30000Y22000
X30000Y21000
X30000Y20000
X21000Y20000
X21000Y21000
X21000Y22000
X21000Y23000
X21000Y24000
X21000Y25000
X21000Y26000
X21000Y27000
X21000Y28000
X21000Y29000
X21000Y30000
X21000Y31000
X21000Y32000
X21000Y33000
X21000Y34000
X21000Y35000
X21000Y36000
X21000Y37000
X21000Y38000
X21000Y39000
X20360Y15150
X19360Y15150
X18360Y15150
X17360Y15150
X16360Y15150
X15360Y15150
X14360Y15150
X13360Y15150
X12360Y15150
X11360Y15150
X10360Y15150
X9360Y15150
X8360Y15150
X7360Y15150
X6360Y15150
X5360Y15150
T06
X40500Y40500
X41500Y40500
X42500Y40500
T07
X15500Y36000
X7500Y36000
T08
X8165Y32000
X6000Y32000
T09
X50276Y35941
X50276Y41138
T10
X2000Y15000
X31000Y3500
X52500Y33000
M30
