G75*
G70*
%OFA0B0*%
%FSLAX24Y24*%
%IPPOS*%
%LPD*%
%AMOC8*
5,1,8,0,0,1.08239X$1,22.5*
%
%ADD10C,0.0010*%
D10*
X001222Y001732D02*
X001224Y001771D01*
X001230Y001809D01*
X001239Y001847D01*
X001253Y001883D01*
X001269Y001919D01*
X001290Y001952D01*
X001313Y001983D01*
X001340Y002011D01*
X001369Y002037D01*
X001400Y002060D01*
X001434Y002079D01*
X001470Y002095D01*
X001506Y002107D01*
X001544Y002116D01*
X001583Y002121D01*
X001622Y002122D01*
X001660Y002119D01*
X001699Y002112D01*
X001736Y002102D01*
X001772Y002087D01*
X001807Y002070D01*
X001840Y002049D01*
X001870Y002024D01*
X001898Y001997D01*
X001923Y001967D01*
X001945Y001935D01*
X001963Y001901D01*
X001978Y001865D01*
X001990Y001828D01*
X001998Y001790D01*
X002002Y001751D01*
X002002Y001713D01*
X001998Y001674D01*
X001990Y001636D01*
X001978Y001599D01*
X001963Y001563D01*
X001945Y001529D01*
X001923Y001497D01*
X001898Y001467D01*
X001870Y001440D01*
X001840Y001415D01*
X001807Y001394D01*
X001772Y001377D01*
X001736Y001362D01*
X001699Y001352D01*
X001660Y001345D01*
X001622Y001342D01*
X001583Y001343D01*
X001544Y001348D01*
X001506Y001357D01*
X001470Y001369D01*
X001434Y001385D01*
X001400Y001404D01*
X001369Y001427D01*
X001340Y001453D01*
X001313Y001481D01*
X001290Y001512D01*
X001269Y001545D01*
X001253Y001581D01*
X001239Y001617D01*
X001230Y001655D01*
X001224Y001693D01*
X001222Y001732D01*
X001212Y001332D02*
X002012Y002132D01*
X002023Y005616D02*
X002823Y006416D01*
X002823Y005616D02*
X002023Y006416D01*
X002423Y006416D02*
X002423Y005616D01*
X002023Y007584D02*
X002823Y008384D01*
X002823Y007584D02*
X002023Y008384D01*
X002423Y008384D02*
X002423Y007584D01*
X006123Y010587D02*
X006923Y010587D01*
X006523Y010987D01*
X006523Y010187D01*
X006123Y010587D01*
X006201Y015813D02*
X007001Y015813D01*
X006601Y016213D01*
X006601Y015413D01*
X006201Y015813D01*
X002866Y019216D02*
X002066Y018416D01*
X002866Y018416D02*
X002066Y019216D01*
X002466Y019216D02*
X002466Y018416D01*
X002066Y020384D02*
X002866Y021184D01*
X002866Y020384D02*
X002066Y021184D01*
X002466Y021184D02*
X002466Y020384D01*
X006201Y023687D02*
X007001Y023687D01*
X006601Y024087D01*
X006601Y023287D01*
X006201Y023687D01*
X008310Y026900D02*
X008312Y026939D01*
X008318Y026977D01*
X008327Y027015D01*
X008341Y027051D01*
X008357Y027087D01*
X008378Y027120D01*
X008401Y027151D01*
X008428Y027179D01*
X008457Y027205D01*
X008488Y027228D01*
X008522Y027247D01*
X008558Y027263D01*
X008594Y027275D01*
X008632Y027284D01*
X008671Y027289D01*
X008710Y027290D01*
X008748Y027287D01*
X008787Y027280D01*
X008824Y027270D01*
X008860Y027255D01*
X008895Y027238D01*
X008928Y027217D01*
X008958Y027192D01*
X008986Y027165D01*
X009011Y027135D01*
X009033Y027103D01*
X009051Y027069D01*
X009066Y027033D01*
X009078Y026996D01*
X009086Y026958D01*
X009090Y026919D01*
X009090Y026881D01*
X009086Y026842D01*
X009078Y026804D01*
X009066Y026767D01*
X009051Y026731D01*
X009033Y026697D01*
X009011Y026665D01*
X008986Y026635D01*
X008958Y026608D01*
X008928Y026583D01*
X008895Y026562D01*
X008860Y026545D01*
X008824Y026530D01*
X008787Y026520D01*
X008748Y026513D01*
X008710Y026510D01*
X008671Y026511D01*
X008632Y026516D01*
X008594Y026525D01*
X008558Y026537D01*
X008522Y026553D01*
X008488Y026572D01*
X008457Y026595D01*
X008428Y026621D01*
X008401Y026649D01*
X008378Y026680D01*
X008357Y026713D01*
X008341Y026749D01*
X008327Y026785D01*
X008318Y026823D01*
X008312Y026861D01*
X008310Y026900D01*
X008300Y026500D02*
X009100Y027300D01*
X009310Y026900D02*
X009312Y026939D01*
X009318Y026977D01*
X009327Y027015D01*
X009341Y027051D01*
X009357Y027087D01*
X009378Y027120D01*
X009401Y027151D01*
X009428Y027179D01*
X009457Y027205D01*
X009488Y027228D01*
X009522Y027247D01*
X009558Y027263D01*
X009594Y027275D01*
X009632Y027284D01*
X009671Y027289D01*
X009710Y027290D01*
X009748Y027287D01*
X009787Y027280D01*
X009824Y027270D01*
X009860Y027255D01*
X009895Y027238D01*
X009928Y027217D01*
X009958Y027192D01*
X009986Y027165D01*
X010011Y027135D01*
X010033Y027103D01*
X010051Y027069D01*
X010066Y027033D01*
X010078Y026996D01*
X010086Y026958D01*
X010090Y026919D01*
X010090Y026881D01*
X010086Y026842D01*
X010078Y026804D01*
X010066Y026767D01*
X010051Y026731D01*
X010033Y026697D01*
X010011Y026665D01*
X009986Y026635D01*
X009958Y026608D01*
X009928Y026583D01*
X009895Y026562D01*
X009860Y026545D01*
X009824Y026530D01*
X009787Y026520D01*
X009748Y026513D01*
X009710Y026510D01*
X009671Y026511D01*
X009632Y026516D01*
X009594Y026525D01*
X009558Y026537D01*
X009522Y026553D01*
X009488Y026572D01*
X009457Y026595D01*
X009428Y026621D01*
X009401Y026649D01*
X009378Y026680D01*
X009357Y026713D01*
X009341Y026749D01*
X009327Y026785D01*
X009318Y026823D01*
X009312Y026861D01*
X009310Y026900D01*
X009300Y026500D02*
X010100Y027300D01*
X011360Y028800D02*
X011362Y028839D01*
X011368Y028877D01*
X011377Y028915D01*
X011391Y028951D01*
X011407Y028987D01*
X011428Y029020D01*
X011451Y029051D01*
X011478Y029079D01*
X011507Y029105D01*
X011538Y029128D01*
X011572Y029147D01*
X011608Y029163D01*
X011644Y029175D01*
X011682Y029184D01*
X011721Y029189D01*
X011760Y029190D01*
X011798Y029187D01*
X011837Y029180D01*
X011874Y029170D01*
X011910Y029155D01*
X011945Y029138D01*
X011978Y029117D01*
X012008Y029092D01*
X012036Y029065D01*
X012061Y029035D01*
X012083Y029003D01*
X012101Y028969D01*
X012116Y028933D01*
X012128Y028896D01*
X012136Y028858D01*
X012140Y028819D01*
X012140Y028781D01*
X012136Y028742D01*
X012128Y028704D01*
X012116Y028667D01*
X012101Y028631D01*
X012083Y028597D01*
X012061Y028565D01*
X012036Y028535D01*
X012008Y028508D01*
X011978Y028483D01*
X011945Y028462D01*
X011910Y028445D01*
X011874Y028430D01*
X011837Y028420D01*
X011798Y028413D01*
X011760Y028410D01*
X011721Y028411D01*
X011682Y028416D01*
X011644Y028425D01*
X011608Y028437D01*
X011572Y028453D01*
X011538Y028472D01*
X011507Y028495D01*
X011478Y028521D01*
X011451Y028549D01*
X011428Y028580D01*
X011407Y028613D01*
X011391Y028649D01*
X011377Y028685D01*
X011368Y028723D01*
X011362Y028761D01*
X011360Y028800D01*
X011350Y028400D02*
X012150Y029200D01*
X012360Y028800D02*
X012362Y028839D01*
X012368Y028877D01*
X012377Y028915D01*
X012391Y028951D01*
X012407Y028987D01*
X012428Y029020D01*
X012451Y029051D01*
X012478Y029079D01*
X012507Y029105D01*
X012538Y029128D01*
X012572Y029147D01*
X012608Y029163D01*
X012644Y029175D01*
X012682Y029184D01*
X012721Y029189D01*
X012760Y029190D01*
X012798Y029187D01*
X012837Y029180D01*
X012874Y029170D01*
X012910Y029155D01*
X012945Y029138D01*
X012978Y029117D01*
X013008Y029092D01*
X013036Y029065D01*
X013061Y029035D01*
X013083Y029003D01*
X013101Y028969D01*
X013116Y028933D01*
X013128Y028896D01*
X013136Y028858D01*
X013140Y028819D01*
X013140Y028781D01*
X013136Y028742D01*
X013128Y028704D01*
X013116Y028667D01*
X013101Y028631D01*
X013083Y028597D01*
X013061Y028565D01*
X013036Y028535D01*
X013008Y028508D01*
X012978Y028483D01*
X012945Y028462D01*
X012910Y028445D01*
X012874Y028430D01*
X012837Y028420D01*
X012798Y028413D01*
X012760Y028410D01*
X012721Y028411D01*
X012682Y028416D01*
X012644Y028425D01*
X012608Y028437D01*
X012572Y028453D01*
X012538Y028472D01*
X012507Y028495D01*
X012478Y028521D01*
X012451Y028549D01*
X012428Y028580D01*
X012407Y028613D01*
X012391Y028649D01*
X012377Y028685D01*
X012368Y028723D01*
X012362Y028761D01*
X012360Y028800D01*
X012350Y028400D02*
X013150Y029200D01*
X013160Y031200D02*
X013162Y031239D01*
X013168Y031277D01*
X013177Y031315D01*
X013191Y031351D01*
X013207Y031387D01*
X013228Y031420D01*
X013251Y031451D01*
X013278Y031479D01*
X013307Y031505D01*
X013338Y031528D01*
X013372Y031547D01*
X013408Y031563D01*
X013444Y031575D01*
X013482Y031584D01*
X013521Y031589D01*
X013560Y031590D01*
X013598Y031587D01*
X013637Y031580D01*
X013674Y031570D01*
X013710Y031555D01*
X013745Y031538D01*
X013778Y031517D01*
X013808Y031492D01*
X013836Y031465D01*
X013861Y031435D01*
X013883Y031403D01*
X013901Y031369D01*
X013916Y031333D01*
X013928Y031296D01*
X013936Y031258D01*
X013940Y031219D01*
X013940Y031181D01*
X013936Y031142D01*
X013928Y031104D01*
X013916Y031067D01*
X013901Y031031D01*
X013883Y030997D01*
X013861Y030965D01*
X013836Y030935D01*
X013808Y030908D01*
X013778Y030883D01*
X013745Y030862D01*
X013710Y030845D01*
X013674Y030830D01*
X013637Y030820D01*
X013598Y030813D01*
X013560Y030810D01*
X013521Y030811D01*
X013482Y030816D01*
X013444Y030825D01*
X013408Y030837D01*
X013372Y030853D01*
X013338Y030872D01*
X013307Y030895D01*
X013278Y030921D01*
X013251Y030949D01*
X013228Y030980D01*
X013207Y031013D01*
X013191Y031049D01*
X013177Y031085D01*
X013168Y031123D01*
X013162Y031161D01*
X013160Y031200D01*
X013150Y030800D02*
X013950Y031600D01*
X014160Y031200D02*
X014162Y031239D01*
X014168Y031277D01*
X014177Y031315D01*
X014191Y031351D01*
X014207Y031387D01*
X014228Y031420D01*
X014251Y031451D01*
X014278Y031479D01*
X014307Y031505D01*
X014338Y031528D01*
X014372Y031547D01*
X014408Y031563D01*
X014444Y031575D01*
X014482Y031584D01*
X014521Y031589D01*
X014560Y031590D01*
X014598Y031587D01*
X014637Y031580D01*
X014674Y031570D01*
X014710Y031555D01*
X014745Y031538D01*
X014778Y031517D01*
X014808Y031492D01*
X014836Y031465D01*
X014861Y031435D01*
X014883Y031403D01*
X014901Y031369D01*
X014916Y031333D01*
X014928Y031296D01*
X014936Y031258D01*
X014940Y031219D01*
X014940Y031181D01*
X014936Y031142D01*
X014928Y031104D01*
X014916Y031067D01*
X014901Y031031D01*
X014883Y030997D01*
X014861Y030965D01*
X014836Y030935D01*
X014808Y030908D01*
X014778Y030883D01*
X014745Y030862D01*
X014710Y030845D01*
X014674Y030830D01*
X014637Y030820D01*
X014598Y030813D01*
X014560Y030810D01*
X014521Y030811D01*
X014482Y030816D01*
X014444Y030825D01*
X014408Y030837D01*
X014372Y030853D01*
X014338Y030872D01*
X014307Y030895D01*
X014278Y030921D01*
X014251Y030949D01*
X014228Y030980D01*
X014207Y031013D01*
X014191Y031049D01*
X014177Y031085D01*
X014168Y031123D01*
X014162Y031161D01*
X014160Y031200D01*
X014150Y030800D02*
X014950Y031600D01*
X014060Y033550D02*
X014062Y033589D01*
X014068Y033627D01*
X014077Y033665D01*
X014091Y033701D01*
X014107Y033737D01*
X014128Y033770D01*
X014151Y033801D01*
X014178Y033829D01*
X014207Y033855D01*
X014238Y033878D01*
X014272Y033897D01*
X014308Y033913D01*
X014344Y033925D01*
X014382Y033934D01*
X014421Y033939D01*
X014460Y033940D01*
X014498Y033937D01*
X014537Y033930D01*
X014574Y033920D01*
X014610Y033905D01*
X014645Y033888D01*
X014678Y033867D01*
X014708Y033842D01*
X014736Y033815D01*
X014761Y033785D01*
X014783Y033753D01*
X014801Y033719D01*
X014816Y033683D01*
X014828Y033646D01*
X014836Y033608D01*
X014840Y033569D01*
X014840Y033531D01*
X014836Y033492D01*
X014828Y033454D01*
X014816Y033417D01*
X014801Y033381D01*
X014783Y033347D01*
X014761Y033315D01*
X014736Y033285D01*
X014708Y033258D01*
X014678Y033233D01*
X014645Y033212D01*
X014610Y033195D01*
X014574Y033180D01*
X014537Y033170D01*
X014498Y033163D01*
X014460Y033160D01*
X014421Y033161D01*
X014382Y033166D01*
X014344Y033175D01*
X014308Y033187D01*
X014272Y033203D01*
X014238Y033222D01*
X014207Y033245D01*
X014178Y033271D01*
X014151Y033299D01*
X014128Y033330D01*
X014107Y033363D01*
X014091Y033399D01*
X014077Y033435D01*
X014068Y033473D01*
X014062Y033511D01*
X014060Y033550D01*
X014050Y033150D02*
X014850Y033950D01*
X013060Y033550D02*
X013062Y033589D01*
X013068Y033627D01*
X013077Y033665D01*
X013091Y033701D01*
X013107Y033737D01*
X013128Y033770D01*
X013151Y033801D01*
X013178Y033829D01*
X013207Y033855D01*
X013238Y033878D01*
X013272Y033897D01*
X013308Y033913D01*
X013344Y033925D01*
X013382Y033934D01*
X013421Y033939D01*
X013460Y033940D01*
X013498Y033937D01*
X013537Y033930D01*
X013574Y033920D01*
X013610Y033905D01*
X013645Y033888D01*
X013678Y033867D01*
X013708Y033842D01*
X013736Y033815D01*
X013761Y033785D01*
X013783Y033753D01*
X013801Y033719D01*
X013816Y033683D01*
X013828Y033646D01*
X013836Y033608D01*
X013840Y033569D01*
X013840Y033531D01*
X013836Y033492D01*
X013828Y033454D01*
X013816Y033417D01*
X013801Y033381D01*
X013783Y033347D01*
X013761Y033315D01*
X013736Y033285D01*
X013708Y033258D01*
X013678Y033233D01*
X013645Y033212D01*
X013610Y033195D01*
X013574Y033180D01*
X013537Y033170D01*
X013498Y033163D01*
X013460Y033160D01*
X013421Y033161D01*
X013382Y033166D01*
X013344Y033175D01*
X013308Y033187D01*
X013272Y033203D01*
X013238Y033222D01*
X013207Y033245D01*
X013178Y033271D01*
X013151Y033299D01*
X013128Y033330D01*
X013107Y033363D01*
X013091Y033399D01*
X013077Y033435D01*
X013068Y033473D01*
X013062Y033511D01*
X013060Y033550D01*
X013050Y033150D02*
X013850Y033950D01*
X007228Y033397D02*
X006428Y032597D01*
X007228Y032597D02*
X006428Y033397D01*
X006828Y033397D02*
X006828Y032597D01*
X007228Y031428D02*
X006428Y030628D01*
X007228Y030628D02*
X006428Y031428D01*
X006828Y031428D02*
X006828Y030628D01*
X003028Y028884D02*
X002228Y028084D01*
X003028Y028084D02*
X002228Y028884D01*
X002628Y028884D02*
X002628Y028084D01*
X003028Y026916D02*
X002228Y026116D01*
X003028Y026116D02*
X002228Y026916D01*
X002628Y026916D02*
X002628Y026116D01*
X001225Y032862D02*
X001227Y032901D01*
X001233Y032939D01*
X001242Y032977D01*
X001256Y033013D01*
X001272Y033049D01*
X001293Y033082D01*
X001316Y033113D01*
X001343Y033141D01*
X001372Y033167D01*
X001403Y033190D01*
X001437Y033209D01*
X001473Y033225D01*
X001509Y033237D01*
X001547Y033246D01*
X001586Y033251D01*
X001625Y033252D01*
X001663Y033249D01*
X001702Y033242D01*
X001739Y033232D01*
X001775Y033217D01*
X001810Y033200D01*
X001843Y033179D01*
X001873Y033154D01*
X001901Y033127D01*
X001926Y033097D01*
X001948Y033065D01*
X001966Y033031D01*
X001981Y032995D01*
X001993Y032958D01*
X002001Y032920D01*
X002005Y032881D01*
X002005Y032843D01*
X002001Y032804D01*
X001993Y032766D01*
X001981Y032729D01*
X001966Y032693D01*
X001948Y032659D01*
X001926Y032627D01*
X001901Y032597D01*
X001873Y032570D01*
X001843Y032545D01*
X001810Y032524D01*
X001775Y032507D01*
X001739Y032492D01*
X001702Y032482D01*
X001663Y032475D01*
X001625Y032472D01*
X001586Y032473D01*
X001547Y032478D01*
X001509Y032487D01*
X001473Y032499D01*
X001437Y032515D01*
X001403Y032534D01*
X001372Y032557D01*
X001343Y032583D01*
X001316Y032611D01*
X001293Y032642D01*
X001272Y032675D01*
X001256Y032711D01*
X001242Y032747D01*
X001233Y032785D01*
X001227Y032823D01*
X001225Y032862D01*
X001215Y032462D02*
X002015Y033262D01*
X014075Y021719D02*
X014875Y021719D01*
X014475Y022119D01*
X014475Y021319D01*
X014075Y021719D01*
X017900Y018500D02*
X017900Y018100D01*
X017900Y018500D02*
X018300Y018100D01*
X017900Y017700D01*
X017500Y018100D01*
X017900Y018500D01*
X017900Y019500D02*
X018700Y020300D01*
X018700Y019500D01*
X017900Y020300D01*
X017900Y019500D01*
X018900Y019500D02*
X019700Y020300D01*
X019700Y019500D01*
X018900Y020300D01*
X018900Y019500D01*
X019300Y018600D02*
X019300Y018200D01*
X019300Y018600D02*
X019700Y018200D01*
X019300Y017800D01*
X018900Y018200D01*
X019300Y018600D01*
X020400Y017100D02*
X020400Y016700D01*
X020400Y017100D02*
X020800Y016700D01*
X020400Y016300D01*
X020000Y016700D01*
X020400Y017100D01*
X020400Y015800D02*
X020400Y015400D01*
X020400Y015800D02*
X020800Y015400D01*
X020400Y015000D01*
X020000Y015400D01*
X020400Y015800D01*
X019300Y014600D02*
X019300Y014200D01*
X019300Y014600D02*
X019700Y014200D01*
X019300Y013800D01*
X018900Y014200D01*
X019300Y014600D01*
X017900Y014500D02*
X017900Y014100D01*
X017900Y014500D02*
X018300Y014100D01*
X017900Y013700D01*
X017500Y014100D01*
X017900Y014500D01*
X021100Y013500D02*
X021900Y014300D01*
X021900Y013500D01*
X021100Y014300D01*
X021100Y013500D01*
X023100Y013500D02*
X023900Y014300D01*
X023900Y013500D01*
X023100Y014300D01*
X023100Y013500D01*
X024400Y015400D02*
X024400Y015800D01*
X024800Y015400D01*
X024400Y015000D01*
X024000Y015400D01*
X024400Y015800D01*
X024400Y016700D02*
X024400Y017100D01*
X024800Y016700D01*
X024400Y016300D01*
X024000Y016700D01*
X024400Y017100D01*
X025710Y016900D02*
X025712Y016939D01*
X025718Y016977D01*
X025727Y017015D01*
X025741Y017051D01*
X025757Y017087D01*
X025778Y017120D01*
X025801Y017151D01*
X025828Y017179D01*
X025857Y017205D01*
X025888Y017228D01*
X025922Y017247D01*
X025958Y017263D01*
X025994Y017275D01*
X026032Y017284D01*
X026071Y017289D01*
X026110Y017290D01*
X026148Y017287D01*
X026187Y017280D01*
X026224Y017270D01*
X026260Y017255D01*
X026295Y017238D01*
X026328Y017217D01*
X026358Y017192D01*
X026386Y017165D01*
X026411Y017135D01*
X026433Y017103D01*
X026451Y017069D01*
X026466Y017033D01*
X026478Y016996D01*
X026486Y016958D01*
X026490Y016919D01*
X026490Y016881D01*
X026486Y016842D01*
X026478Y016804D01*
X026466Y016767D01*
X026451Y016731D01*
X026433Y016697D01*
X026411Y016665D01*
X026386Y016635D01*
X026358Y016608D01*
X026328Y016583D01*
X026295Y016562D01*
X026260Y016545D01*
X026224Y016530D01*
X026187Y016520D01*
X026148Y016513D01*
X026110Y016510D01*
X026071Y016511D01*
X026032Y016516D01*
X025994Y016525D01*
X025958Y016537D01*
X025922Y016553D01*
X025888Y016572D01*
X025857Y016595D01*
X025828Y016621D01*
X025801Y016649D01*
X025778Y016680D01*
X025757Y016713D01*
X025741Y016749D01*
X025727Y016785D01*
X025718Y016823D01*
X025712Y016861D01*
X025710Y016900D01*
X025700Y016500D02*
X026500Y017300D01*
X025610Y015700D02*
X025612Y015739D01*
X025618Y015777D01*
X025627Y015815D01*
X025641Y015851D01*
X025657Y015887D01*
X025678Y015920D01*
X025701Y015951D01*
X025728Y015979D01*
X025757Y016005D01*
X025788Y016028D01*
X025822Y016047D01*
X025858Y016063D01*
X025894Y016075D01*
X025932Y016084D01*
X025971Y016089D01*
X026010Y016090D01*
X026048Y016087D01*
X026087Y016080D01*
X026124Y016070D01*
X026160Y016055D01*
X026195Y016038D01*
X026228Y016017D01*
X026258Y015992D01*
X026286Y015965D01*
X026311Y015935D01*
X026333Y015903D01*
X026351Y015869D01*
X026366Y015833D01*
X026378Y015796D01*
X026386Y015758D01*
X026390Y015719D01*
X026390Y015681D01*
X026386Y015642D01*
X026378Y015604D01*
X026366Y015567D01*
X026351Y015531D01*
X026333Y015497D01*
X026311Y015465D01*
X026286Y015435D01*
X026258Y015408D01*
X026228Y015383D01*
X026195Y015362D01*
X026160Y015345D01*
X026124Y015330D01*
X026087Y015320D01*
X026048Y015313D01*
X026010Y015310D01*
X025971Y015311D01*
X025932Y015316D01*
X025894Y015325D01*
X025858Y015337D01*
X025822Y015353D01*
X025788Y015372D01*
X025757Y015395D01*
X025728Y015421D01*
X025701Y015449D01*
X025678Y015480D01*
X025657Y015513D01*
X025641Y015549D01*
X025627Y015585D01*
X025618Y015623D01*
X025612Y015661D01*
X025610Y015700D01*
X025600Y015300D02*
X026400Y016100D01*
X026200Y014400D02*
X026200Y014000D01*
X026200Y014400D02*
X026600Y014000D01*
X026200Y013600D01*
X025800Y014000D01*
X026200Y014400D01*
X026200Y013100D02*
X026200Y012700D01*
X026200Y013100D02*
X026600Y012700D01*
X026200Y012300D01*
X025800Y012700D01*
X026200Y013100D01*
X026110Y010400D02*
X026112Y010439D01*
X026118Y010477D01*
X026127Y010515D01*
X026141Y010551D01*
X026157Y010587D01*
X026178Y010620D01*
X026201Y010651D01*
X026228Y010679D01*
X026257Y010705D01*
X026288Y010728D01*
X026322Y010747D01*
X026358Y010763D01*
X026394Y010775D01*
X026432Y010784D01*
X026471Y010789D01*
X026510Y010790D01*
X026548Y010787D01*
X026587Y010780D01*
X026624Y010770D01*
X026660Y010755D01*
X026695Y010738D01*
X026728Y010717D01*
X026758Y010692D01*
X026786Y010665D01*
X026811Y010635D01*
X026833Y010603D01*
X026851Y010569D01*
X026866Y010533D01*
X026878Y010496D01*
X026886Y010458D01*
X026890Y010419D01*
X026890Y010381D01*
X026886Y010342D01*
X026878Y010304D01*
X026866Y010267D01*
X026851Y010231D01*
X026833Y010197D01*
X026811Y010165D01*
X026786Y010135D01*
X026758Y010108D01*
X026728Y010083D01*
X026695Y010062D01*
X026660Y010045D01*
X026624Y010030D01*
X026587Y010020D01*
X026548Y010013D01*
X026510Y010010D01*
X026471Y010011D01*
X026432Y010016D01*
X026394Y010025D01*
X026358Y010037D01*
X026322Y010053D01*
X026288Y010072D01*
X026257Y010095D01*
X026228Y010121D01*
X026201Y010149D01*
X026178Y010180D01*
X026157Y010213D01*
X026141Y010249D01*
X026127Y010285D01*
X026118Y010323D01*
X026112Y010361D01*
X026110Y010400D01*
X026100Y010000D02*
X026900Y010800D01*
X026210Y008700D02*
X026212Y008739D01*
X026218Y008777D01*
X026227Y008815D01*
X026241Y008851D01*
X026257Y008887D01*
X026278Y008920D01*
X026301Y008951D01*
X026328Y008979D01*
X026357Y009005D01*
X026388Y009028D01*
X026422Y009047D01*
X026458Y009063D01*
X026494Y009075D01*
X026532Y009084D01*
X026571Y009089D01*
X026610Y009090D01*
X026648Y009087D01*
X026687Y009080D01*
X026724Y009070D01*
X026760Y009055D01*
X026795Y009038D01*
X026828Y009017D01*
X026858Y008992D01*
X026886Y008965D01*
X026911Y008935D01*
X026933Y008903D01*
X026951Y008869D01*
X026966Y008833D01*
X026978Y008796D01*
X026986Y008758D01*
X026990Y008719D01*
X026990Y008681D01*
X026986Y008642D01*
X026978Y008604D01*
X026966Y008567D01*
X026951Y008531D01*
X026933Y008497D01*
X026911Y008465D01*
X026886Y008435D01*
X026858Y008408D01*
X026828Y008383D01*
X026795Y008362D01*
X026760Y008345D01*
X026724Y008330D01*
X026687Y008320D01*
X026648Y008313D01*
X026610Y008310D01*
X026571Y008311D01*
X026532Y008316D01*
X026494Y008325D01*
X026458Y008337D01*
X026422Y008353D01*
X026388Y008372D01*
X026357Y008395D01*
X026328Y008421D01*
X026301Y008449D01*
X026278Y008480D01*
X026257Y008513D01*
X026241Y008549D01*
X026227Y008585D01*
X026218Y008623D01*
X026212Y008661D01*
X026210Y008700D01*
X026200Y008300D02*
X027000Y009100D01*
X024600Y009200D02*
X024600Y008800D01*
X024600Y009200D02*
X025000Y008800D01*
X024600Y008400D01*
X024200Y008800D01*
X024600Y009200D01*
X024600Y010400D02*
X024600Y010800D01*
X025000Y010400D01*
X024600Y010000D01*
X024200Y010400D01*
X024600Y010800D01*
X020600Y010800D02*
X020600Y010400D01*
X020600Y010800D02*
X021000Y010400D01*
X020600Y010000D01*
X020200Y010400D01*
X020600Y010800D01*
X019000Y011400D02*
X018200Y010600D01*
X019000Y010600D02*
X019000Y011400D01*
X019000Y010600D02*
X018200Y011400D01*
X018200Y010600D01*
X018000Y011400D02*
X017200Y010600D01*
X018000Y010600D02*
X018000Y011400D01*
X018000Y010600D02*
X017200Y011400D01*
X017200Y010600D01*
X017600Y009200D02*
X017600Y008800D01*
X017600Y009200D02*
X018000Y008800D01*
X017600Y008400D01*
X017200Y008800D01*
X017600Y009200D01*
X019400Y009200D02*
X019400Y008800D01*
X019400Y009200D02*
X019800Y008800D01*
X019400Y008400D01*
X019000Y008800D01*
X019400Y009200D01*
X020600Y009200D02*
X020600Y008800D01*
X020600Y009200D02*
X021000Y008800D01*
X020600Y008400D01*
X020200Y008800D01*
X020600Y009200D01*
X021400Y007400D02*
X020600Y006600D01*
X021400Y006600D02*
X021400Y007400D01*
X021400Y006600D02*
X020600Y007400D01*
X020600Y006600D01*
X019400Y005200D02*
X019400Y004800D01*
X019400Y005200D02*
X019800Y004800D01*
X019400Y004400D01*
X019000Y004800D01*
X019400Y005200D01*
X017600Y005200D02*
X017600Y004800D01*
X017600Y005200D02*
X018000Y004800D01*
X017600Y004400D01*
X017200Y004800D01*
X017600Y005200D01*
X014797Y004681D02*
X013997Y004681D01*
X014397Y005081D02*
X014797Y004681D01*
X014397Y005081D02*
X014397Y004281D01*
X013997Y004681D01*
X013997Y008619D02*
X014797Y008619D01*
X014397Y009019D01*
X014397Y008219D01*
X013997Y008619D01*
X006923Y002713D02*
X006123Y002713D01*
X006523Y003113D02*
X006923Y002713D01*
X006523Y003113D02*
X006523Y002313D01*
X006123Y002713D01*
X014075Y017781D02*
X014875Y017781D01*
X014475Y018181D01*
X014475Y017381D01*
X014075Y017781D01*
X022310Y020600D02*
X022312Y020639D01*
X022318Y020677D01*
X022327Y020715D01*
X022341Y020751D01*
X022357Y020787D01*
X022378Y020820D01*
X022401Y020851D01*
X022428Y020879D01*
X022457Y020905D01*
X022488Y020928D01*
X022522Y020947D01*
X022558Y020963D01*
X022594Y020975D01*
X022632Y020984D01*
X022671Y020989D01*
X022710Y020990D01*
X022748Y020987D01*
X022787Y020980D01*
X022824Y020970D01*
X022860Y020955D01*
X022895Y020938D01*
X022928Y020917D01*
X022958Y020892D01*
X022986Y020865D01*
X023011Y020835D01*
X023033Y020803D01*
X023051Y020769D01*
X023066Y020733D01*
X023078Y020696D01*
X023086Y020658D01*
X023090Y020619D01*
X023090Y020581D01*
X023086Y020542D01*
X023078Y020504D01*
X023066Y020467D01*
X023051Y020431D01*
X023033Y020397D01*
X023011Y020365D01*
X022986Y020335D01*
X022958Y020308D01*
X022928Y020283D01*
X022895Y020262D01*
X022860Y020245D01*
X022824Y020230D01*
X022787Y020220D01*
X022748Y020213D01*
X022710Y020210D01*
X022671Y020211D01*
X022632Y020216D01*
X022594Y020225D01*
X022558Y020237D01*
X022522Y020253D01*
X022488Y020272D01*
X022457Y020295D01*
X022428Y020321D01*
X022401Y020349D01*
X022378Y020380D01*
X022357Y020413D01*
X022341Y020449D01*
X022327Y020485D01*
X022318Y020523D01*
X022312Y020561D01*
X022310Y020600D01*
X022300Y020200D02*
X023100Y021000D01*
X022310Y021600D02*
X022312Y021639D01*
X022318Y021677D01*
X022327Y021715D01*
X022341Y021751D01*
X022357Y021787D01*
X022378Y021820D01*
X022401Y021851D01*
X022428Y021879D01*
X022457Y021905D01*
X022488Y021928D01*
X022522Y021947D01*
X022558Y021963D01*
X022594Y021975D01*
X022632Y021984D01*
X022671Y021989D01*
X022710Y021990D01*
X022748Y021987D01*
X022787Y021980D01*
X022824Y021970D01*
X022860Y021955D01*
X022895Y021938D01*
X022928Y021917D01*
X022958Y021892D01*
X022986Y021865D01*
X023011Y021835D01*
X023033Y021803D01*
X023051Y021769D01*
X023066Y021733D01*
X023078Y021696D01*
X023086Y021658D01*
X023090Y021619D01*
X023090Y021581D01*
X023086Y021542D01*
X023078Y021504D01*
X023066Y021467D01*
X023051Y021431D01*
X023033Y021397D01*
X023011Y021365D01*
X022986Y021335D01*
X022958Y021308D01*
X022928Y021283D01*
X022895Y021262D01*
X022860Y021245D01*
X022824Y021230D01*
X022787Y021220D01*
X022748Y021213D01*
X022710Y021210D01*
X022671Y021211D01*
X022632Y021216D01*
X022594Y021225D01*
X022558Y021237D01*
X022522Y021253D01*
X022488Y021272D01*
X022457Y021295D01*
X022428Y021321D01*
X022401Y021349D01*
X022378Y021380D01*
X022357Y021413D01*
X022341Y021449D01*
X022327Y021485D01*
X022318Y021523D01*
X022312Y021561D01*
X022310Y021600D01*
X022300Y021200D02*
X023100Y022000D01*
X022310Y022600D02*
X022312Y022639D01*
X022318Y022677D01*
X022327Y022715D01*
X022341Y022751D01*
X022357Y022787D01*
X022378Y022820D01*
X022401Y022851D01*
X022428Y022879D01*
X022457Y022905D01*
X022488Y022928D01*
X022522Y022947D01*
X022558Y022963D01*
X022594Y022975D01*
X022632Y022984D01*
X022671Y022989D01*
X022710Y022990D01*
X022748Y022987D01*
X022787Y022980D01*
X022824Y022970D01*
X022860Y022955D01*
X022895Y022938D01*
X022928Y022917D01*
X022958Y022892D01*
X022986Y022865D01*
X023011Y022835D01*
X023033Y022803D01*
X023051Y022769D01*
X023066Y022733D01*
X023078Y022696D01*
X023086Y022658D01*
X023090Y022619D01*
X023090Y022581D01*
X023086Y022542D01*
X023078Y022504D01*
X023066Y022467D01*
X023051Y022431D01*
X023033Y022397D01*
X023011Y022365D01*
X022986Y022335D01*
X022958Y022308D01*
X022928Y022283D01*
X022895Y022262D01*
X022860Y022245D01*
X022824Y022230D01*
X022787Y022220D01*
X022748Y022213D01*
X022710Y022210D01*
X022671Y022211D01*
X022632Y022216D01*
X022594Y022225D01*
X022558Y022237D01*
X022522Y022253D01*
X022488Y022272D01*
X022457Y022295D01*
X022428Y022321D01*
X022401Y022349D01*
X022378Y022380D01*
X022357Y022413D01*
X022341Y022449D01*
X022327Y022485D01*
X022318Y022523D01*
X022312Y022561D01*
X022310Y022600D01*
X022300Y022200D02*
X023100Y023000D01*
X022310Y023600D02*
X022312Y023639D01*
X022318Y023677D01*
X022327Y023715D01*
X022341Y023751D01*
X022357Y023787D01*
X022378Y023820D01*
X022401Y023851D01*
X022428Y023879D01*
X022457Y023905D01*
X022488Y023928D01*
X022522Y023947D01*
X022558Y023963D01*
X022594Y023975D01*
X022632Y023984D01*
X022671Y023989D01*
X022710Y023990D01*
X022748Y023987D01*
X022787Y023980D01*
X022824Y023970D01*
X022860Y023955D01*
X022895Y023938D01*
X022928Y023917D01*
X022958Y023892D01*
X022986Y023865D01*
X023011Y023835D01*
X023033Y023803D01*
X023051Y023769D01*
X023066Y023733D01*
X023078Y023696D01*
X023086Y023658D01*
X023090Y023619D01*
X023090Y023581D01*
X023086Y023542D01*
X023078Y023504D01*
X023066Y023467D01*
X023051Y023431D01*
X023033Y023397D01*
X023011Y023365D01*
X022986Y023335D01*
X022958Y023308D01*
X022928Y023283D01*
X022895Y023262D01*
X022860Y023245D01*
X022824Y023230D01*
X022787Y023220D01*
X022748Y023213D01*
X022710Y023210D01*
X022671Y023211D01*
X022632Y023216D01*
X022594Y023225D01*
X022558Y023237D01*
X022522Y023253D01*
X022488Y023272D01*
X022457Y023295D01*
X022428Y023321D01*
X022401Y023349D01*
X022378Y023380D01*
X022357Y023413D01*
X022341Y023449D01*
X022327Y023485D01*
X022318Y023523D01*
X022312Y023561D01*
X022310Y023600D01*
X022300Y023200D02*
X023100Y024000D01*
X022310Y025800D02*
X022312Y025839D01*
X022318Y025877D01*
X022327Y025915D01*
X022341Y025951D01*
X022357Y025987D01*
X022378Y026020D01*
X022401Y026051D01*
X022428Y026079D01*
X022457Y026105D01*
X022488Y026128D01*
X022522Y026147D01*
X022558Y026163D01*
X022594Y026175D01*
X022632Y026184D01*
X022671Y026189D01*
X022710Y026190D01*
X022748Y026187D01*
X022787Y026180D01*
X022824Y026170D01*
X022860Y026155D01*
X022895Y026138D01*
X022928Y026117D01*
X022958Y026092D01*
X022986Y026065D01*
X023011Y026035D01*
X023033Y026003D01*
X023051Y025969D01*
X023066Y025933D01*
X023078Y025896D01*
X023086Y025858D01*
X023090Y025819D01*
X023090Y025781D01*
X023086Y025742D01*
X023078Y025704D01*
X023066Y025667D01*
X023051Y025631D01*
X023033Y025597D01*
X023011Y025565D01*
X022986Y025535D01*
X022958Y025508D01*
X022928Y025483D01*
X022895Y025462D01*
X022860Y025445D01*
X022824Y025430D01*
X022787Y025420D01*
X022748Y025413D01*
X022710Y025410D01*
X022671Y025411D01*
X022632Y025416D01*
X022594Y025425D01*
X022558Y025437D01*
X022522Y025453D01*
X022488Y025472D01*
X022457Y025495D01*
X022428Y025521D01*
X022401Y025549D01*
X022378Y025580D01*
X022357Y025613D01*
X022341Y025649D01*
X022327Y025685D01*
X022318Y025723D01*
X022312Y025761D01*
X022310Y025800D01*
X022300Y025400D02*
X023100Y026200D01*
X022310Y026800D02*
X022312Y026839D01*
X022318Y026877D01*
X022327Y026915D01*
X022341Y026951D01*
X022357Y026987D01*
X022378Y027020D01*
X022401Y027051D01*
X022428Y027079D01*
X022457Y027105D01*
X022488Y027128D01*
X022522Y027147D01*
X022558Y027163D01*
X022594Y027175D01*
X022632Y027184D01*
X022671Y027189D01*
X022710Y027190D01*
X022748Y027187D01*
X022787Y027180D01*
X022824Y027170D01*
X022860Y027155D01*
X022895Y027138D01*
X022928Y027117D01*
X022958Y027092D01*
X022986Y027065D01*
X023011Y027035D01*
X023033Y027003D01*
X023051Y026969D01*
X023066Y026933D01*
X023078Y026896D01*
X023086Y026858D01*
X023090Y026819D01*
X023090Y026781D01*
X023086Y026742D01*
X023078Y026704D01*
X023066Y026667D01*
X023051Y026631D01*
X023033Y026597D01*
X023011Y026565D01*
X022986Y026535D01*
X022958Y026508D01*
X022928Y026483D01*
X022895Y026462D01*
X022860Y026445D01*
X022824Y026430D01*
X022787Y026420D01*
X022748Y026413D01*
X022710Y026410D01*
X022671Y026411D01*
X022632Y026416D01*
X022594Y026425D01*
X022558Y026437D01*
X022522Y026453D01*
X022488Y026472D01*
X022457Y026495D01*
X022428Y026521D01*
X022401Y026549D01*
X022378Y026580D01*
X022357Y026613D01*
X022341Y026649D01*
X022327Y026685D01*
X022318Y026723D01*
X022312Y026761D01*
X022310Y026800D01*
X022300Y026400D02*
X023100Y027200D01*
X022310Y027800D02*
X022312Y027839D01*
X022318Y027877D01*
X022327Y027915D01*
X022341Y027951D01*
X022357Y027987D01*
X022378Y028020D01*
X022401Y028051D01*
X022428Y028079D01*
X022457Y028105D01*
X022488Y028128D01*
X022522Y028147D01*
X022558Y028163D01*
X022594Y028175D01*
X022632Y028184D01*
X022671Y028189D01*
X022710Y028190D01*
X022748Y028187D01*
X022787Y028180D01*
X022824Y028170D01*
X022860Y028155D01*
X022895Y028138D01*
X022928Y028117D01*
X022958Y028092D01*
X022986Y028065D01*
X023011Y028035D01*
X023033Y028003D01*
X023051Y027969D01*
X023066Y027933D01*
X023078Y027896D01*
X023086Y027858D01*
X023090Y027819D01*
X023090Y027781D01*
X023086Y027742D01*
X023078Y027704D01*
X023066Y027667D01*
X023051Y027631D01*
X023033Y027597D01*
X023011Y027565D01*
X022986Y027535D01*
X022958Y027508D01*
X022928Y027483D01*
X022895Y027462D01*
X022860Y027445D01*
X022824Y027430D01*
X022787Y027420D01*
X022748Y027413D01*
X022710Y027410D01*
X022671Y027411D01*
X022632Y027416D01*
X022594Y027425D01*
X022558Y027437D01*
X022522Y027453D01*
X022488Y027472D01*
X022457Y027495D01*
X022428Y027521D01*
X022401Y027549D01*
X022378Y027580D01*
X022357Y027613D01*
X022341Y027649D01*
X022327Y027685D01*
X022318Y027723D01*
X022312Y027761D01*
X022310Y027800D01*
X022300Y027400D02*
X023100Y028200D01*
X022310Y028800D02*
X022312Y028839D01*
X022318Y028877D01*
X022327Y028915D01*
X022341Y028951D01*
X022357Y028987D01*
X022378Y029020D01*
X022401Y029051D01*
X022428Y029079D01*
X022457Y029105D01*
X022488Y029128D01*
X022522Y029147D01*
X022558Y029163D01*
X022594Y029175D01*
X022632Y029184D01*
X022671Y029189D01*
X022710Y029190D01*
X022748Y029187D01*
X022787Y029180D01*
X022824Y029170D01*
X022860Y029155D01*
X022895Y029138D01*
X022928Y029117D01*
X022958Y029092D01*
X022986Y029065D01*
X023011Y029035D01*
X023033Y029003D01*
X023051Y028969D01*
X023066Y028933D01*
X023078Y028896D01*
X023086Y028858D01*
X023090Y028819D01*
X023090Y028781D01*
X023086Y028742D01*
X023078Y028704D01*
X023066Y028667D01*
X023051Y028631D01*
X023033Y028597D01*
X023011Y028565D01*
X022986Y028535D01*
X022958Y028508D01*
X022928Y028483D01*
X022895Y028462D01*
X022860Y028445D01*
X022824Y028430D01*
X022787Y028420D01*
X022748Y028413D01*
X022710Y028410D01*
X022671Y028411D01*
X022632Y028416D01*
X022594Y028425D01*
X022558Y028437D01*
X022522Y028453D01*
X022488Y028472D01*
X022457Y028495D01*
X022428Y028521D01*
X022401Y028549D01*
X022378Y028580D01*
X022357Y028613D01*
X022341Y028649D01*
X022327Y028685D01*
X022318Y028723D01*
X022312Y028761D01*
X022310Y028800D01*
X022300Y028400D02*
X023100Y029200D01*
X025310Y028800D02*
X025312Y028839D01*
X025318Y028877D01*
X025327Y028915D01*
X025341Y028951D01*
X025357Y028987D01*
X025378Y029020D01*
X025401Y029051D01*
X025428Y029079D01*
X025457Y029105D01*
X025488Y029128D01*
X025522Y029147D01*
X025558Y029163D01*
X025594Y029175D01*
X025632Y029184D01*
X025671Y029189D01*
X025710Y029190D01*
X025748Y029187D01*
X025787Y029180D01*
X025824Y029170D01*
X025860Y029155D01*
X025895Y029138D01*
X025928Y029117D01*
X025958Y029092D01*
X025986Y029065D01*
X026011Y029035D01*
X026033Y029003D01*
X026051Y028969D01*
X026066Y028933D01*
X026078Y028896D01*
X026086Y028858D01*
X026090Y028819D01*
X026090Y028781D01*
X026086Y028742D01*
X026078Y028704D01*
X026066Y028667D01*
X026051Y028631D01*
X026033Y028597D01*
X026011Y028565D01*
X025986Y028535D01*
X025958Y028508D01*
X025928Y028483D01*
X025895Y028462D01*
X025860Y028445D01*
X025824Y028430D01*
X025787Y028420D01*
X025748Y028413D01*
X025710Y028410D01*
X025671Y028411D01*
X025632Y028416D01*
X025594Y028425D01*
X025558Y028437D01*
X025522Y028453D01*
X025488Y028472D01*
X025457Y028495D01*
X025428Y028521D01*
X025401Y028549D01*
X025378Y028580D01*
X025357Y028613D01*
X025341Y028649D01*
X025327Y028685D01*
X025318Y028723D01*
X025312Y028761D01*
X025310Y028800D01*
X025300Y028400D02*
X026100Y029200D01*
X025310Y027800D02*
X025312Y027839D01*
X025318Y027877D01*
X025327Y027915D01*
X025341Y027951D01*
X025357Y027987D01*
X025378Y028020D01*
X025401Y028051D01*
X025428Y028079D01*
X025457Y028105D01*
X025488Y028128D01*
X025522Y028147D01*
X025558Y028163D01*
X025594Y028175D01*
X025632Y028184D01*
X025671Y028189D01*
X025710Y028190D01*
X025748Y028187D01*
X025787Y028180D01*
X025824Y028170D01*
X025860Y028155D01*
X025895Y028138D01*
X025928Y028117D01*
X025958Y028092D01*
X025986Y028065D01*
X026011Y028035D01*
X026033Y028003D01*
X026051Y027969D01*
X026066Y027933D01*
X026078Y027896D01*
X026086Y027858D01*
X026090Y027819D01*
X026090Y027781D01*
X026086Y027742D01*
X026078Y027704D01*
X026066Y027667D01*
X026051Y027631D01*
X026033Y027597D01*
X026011Y027565D01*
X025986Y027535D01*
X025958Y027508D01*
X025928Y027483D01*
X025895Y027462D01*
X025860Y027445D01*
X025824Y027430D01*
X025787Y027420D01*
X025748Y027413D01*
X025710Y027410D01*
X025671Y027411D01*
X025632Y027416D01*
X025594Y027425D01*
X025558Y027437D01*
X025522Y027453D01*
X025488Y027472D01*
X025457Y027495D01*
X025428Y027521D01*
X025401Y027549D01*
X025378Y027580D01*
X025357Y027613D01*
X025341Y027649D01*
X025327Y027685D01*
X025318Y027723D01*
X025312Y027761D01*
X025310Y027800D01*
X025300Y027400D02*
X026100Y028200D01*
X026810Y027600D02*
X026812Y027639D01*
X026818Y027677D01*
X026827Y027715D01*
X026841Y027751D01*
X026857Y027787D01*
X026878Y027820D01*
X026901Y027851D01*
X026928Y027879D01*
X026957Y027905D01*
X026988Y027928D01*
X027022Y027947D01*
X027058Y027963D01*
X027094Y027975D01*
X027132Y027984D01*
X027171Y027989D01*
X027210Y027990D01*
X027248Y027987D01*
X027287Y027980D01*
X027324Y027970D01*
X027360Y027955D01*
X027395Y027938D01*
X027428Y027917D01*
X027458Y027892D01*
X027486Y027865D01*
X027511Y027835D01*
X027533Y027803D01*
X027551Y027769D01*
X027566Y027733D01*
X027578Y027696D01*
X027586Y027658D01*
X027590Y027619D01*
X027590Y027581D01*
X027586Y027542D01*
X027578Y027504D01*
X027566Y027467D01*
X027551Y027431D01*
X027533Y027397D01*
X027511Y027365D01*
X027486Y027335D01*
X027458Y027308D01*
X027428Y027283D01*
X027395Y027262D01*
X027360Y027245D01*
X027324Y027230D01*
X027287Y027220D01*
X027248Y027213D01*
X027210Y027210D01*
X027171Y027211D01*
X027132Y027216D01*
X027094Y027225D01*
X027058Y027237D01*
X027022Y027253D01*
X026988Y027272D01*
X026957Y027295D01*
X026928Y027321D01*
X026901Y027349D01*
X026878Y027380D01*
X026857Y027413D01*
X026841Y027449D01*
X026827Y027485D01*
X026818Y027523D01*
X026812Y027561D01*
X026810Y027600D01*
X026800Y027200D02*
X027600Y028000D01*
X027810Y027600D02*
X027812Y027639D01*
X027818Y027677D01*
X027827Y027715D01*
X027841Y027751D01*
X027857Y027787D01*
X027878Y027820D01*
X027901Y027851D01*
X027928Y027879D01*
X027957Y027905D01*
X027988Y027928D01*
X028022Y027947D01*
X028058Y027963D01*
X028094Y027975D01*
X028132Y027984D01*
X028171Y027989D01*
X028210Y027990D01*
X028248Y027987D01*
X028287Y027980D01*
X028324Y027970D01*
X028360Y027955D01*
X028395Y027938D01*
X028428Y027917D01*
X028458Y027892D01*
X028486Y027865D01*
X028511Y027835D01*
X028533Y027803D01*
X028551Y027769D01*
X028566Y027733D01*
X028578Y027696D01*
X028586Y027658D01*
X028590Y027619D01*
X028590Y027581D01*
X028586Y027542D01*
X028578Y027504D01*
X028566Y027467D01*
X028551Y027431D01*
X028533Y027397D01*
X028511Y027365D01*
X028486Y027335D01*
X028458Y027308D01*
X028428Y027283D01*
X028395Y027262D01*
X028360Y027245D01*
X028324Y027230D01*
X028287Y027220D01*
X028248Y027213D01*
X028210Y027210D01*
X028171Y027211D01*
X028132Y027216D01*
X028094Y027225D01*
X028058Y027237D01*
X028022Y027253D01*
X027988Y027272D01*
X027957Y027295D01*
X027928Y027321D01*
X027901Y027349D01*
X027878Y027380D01*
X027857Y027413D01*
X027841Y027449D01*
X027827Y027485D01*
X027818Y027523D01*
X027812Y027561D01*
X027810Y027600D01*
X027800Y027200D02*
X028600Y028000D01*
X028910Y027600D02*
X028912Y027639D01*
X028918Y027677D01*
X028927Y027715D01*
X028941Y027751D01*
X028957Y027787D01*
X028978Y027820D01*
X029001Y027851D01*
X029028Y027879D01*
X029057Y027905D01*
X029088Y027928D01*
X029122Y027947D01*
X029158Y027963D01*
X029194Y027975D01*
X029232Y027984D01*
X029271Y027989D01*
X029310Y027990D01*
X029348Y027987D01*
X029387Y027980D01*
X029424Y027970D01*
X029460Y027955D01*
X029495Y027938D01*
X029528Y027917D01*
X029558Y027892D01*
X029586Y027865D01*
X029611Y027835D01*
X029633Y027803D01*
X029651Y027769D01*
X029666Y027733D01*
X029678Y027696D01*
X029686Y027658D01*
X029690Y027619D01*
X029690Y027581D01*
X029686Y027542D01*
X029678Y027504D01*
X029666Y027467D01*
X029651Y027431D01*
X029633Y027397D01*
X029611Y027365D01*
X029586Y027335D01*
X029558Y027308D01*
X029528Y027283D01*
X029495Y027262D01*
X029460Y027245D01*
X029424Y027230D01*
X029387Y027220D01*
X029348Y027213D01*
X029310Y027210D01*
X029271Y027211D01*
X029232Y027216D01*
X029194Y027225D01*
X029158Y027237D01*
X029122Y027253D01*
X029088Y027272D01*
X029057Y027295D01*
X029028Y027321D01*
X029001Y027349D01*
X028978Y027380D01*
X028957Y027413D01*
X028941Y027449D01*
X028927Y027485D01*
X028918Y027523D01*
X028912Y027561D01*
X028910Y027600D01*
X028900Y027200D02*
X029700Y028000D01*
X028910Y025900D02*
X028912Y025939D01*
X028918Y025977D01*
X028927Y026015D01*
X028941Y026051D01*
X028957Y026087D01*
X028978Y026120D01*
X029001Y026151D01*
X029028Y026179D01*
X029057Y026205D01*
X029088Y026228D01*
X029122Y026247D01*
X029158Y026263D01*
X029194Y026275D01*
X029232Y026284D01*
X029271Y026289D01*
X029310Y026290D01*
X029348Y026287D01*
X029387Y026280D01*
X029424Y026270D01*
X029460Y026255D01*
X029495Y026238D01*
X029528Y026217D01*
X029558Y026192D01*
X029586Y026165D01*
X029611Y026135D01*
X029633Y026103D01*
X029651Y026069D01*
X029666Y026033D01*
X029678Y025996D01*
X029686Y025958D01*
X029690Y025919D01*
X029690Y025881D01*
X029686Y025842D01*
X029678Y025804D01*
X029666Y025767D01*
X029651Y025731D01*
X029633Y025697D01*
X029611Y025665D01*
X029586Y025635D01*
X029558Y025608D01*
X029528Y025583D01*
X029495Y025562D01*
X029460Y025545D01*
X029424Y025530D01*
X029387Y025520D01*
X029348Y025513D01*
X029310Y025510D01*
X029271Y025511D01*
X029232Y025516D01*
X029194Y025525D01*
X029158Y025537D01*
X029122Y025553D01*
X029088Y025572D01*
X029057Y025595D01*
X029028Y025621D01*
X029001Y025649D01*
X028978Y025680D01*
X028957Y025713D01*
X028941Y025749D01*
X028927Y025785D01*
X028918Y025823D01*
X028912Y025861D01*
X028910Y025900D01*
X028900Y025500D02*
X029700Y026300D01*
X027710Y025800D02*
X027712Y025839D01*
X027718Y025877D01*
X027727Y025915D01*
X027741Y025951D01*
X027757Y025987D01*
X027778Y026020D01*
X027801Y026051D01*
X027828Y026079D01*
X027857Y026105D01*
X027888Y026128D01*
X027922Y026147D01*
X027958Y026163D01*
X027994Y026175D01*
X028032Y026184D01*
X028071Y026189D01*
X028110Y026190D01*
X028148Y026187D01*
X028187Y026180D01*
X028224Y026170D01*
X028260Y026155D01*
X028295Y026138D01*
X028328Y026117D01*
X028358Y026092D01*
X028386Y026065D01*
X028411Y026035D01*
X028433Y026003D01*
X028451Y025969D01*
X028466Y025933D01*
X028478Y025896D01*
X028486Y025858D01*
X028490Y025819D01*
X028490Y025781D01*
X028486Y025742D01*
X028478Y025704D01*
X028466Y025667D01*
X028451Y025631D01*
X028433Y025597D01*
X028411Y025565D01*
X028386Y025535D01*
X028358Y025508D01*
X028328Y025483D01*
X028295Y025462D01*
X028260Y025445D01*
X028224Y025430D01*
X028187Y025420D01*
X028148Y025413D01*
X028110Y025410D01*
X028071Y025411D01*
X028032Y025416D01*
X027994Y025425D01*
X027958Y025437D01*
X027922Y025453D01*
X027888Y025472D01*
X027857Y025495D01*
X027828Y025521D01*
X027801Y025549D01*
X027778Y025580D01*
X027757Y025613D01*
X027741Y025649D01*
X027727Y025685D01*
X027718Y025723D01*
X027712Y025761D01*
X027710Y025800D01*
X027700Y025400D02*
X028500Y026200D01*
X026910Y025800D02*
X026912Y025839D01*
X026918Y025877D01*
X026927Y025915D01*
X026941Y025951D01*
X026957Y025987D01*
X026978Y026020D01*
X027001Y026051D01*
X027028Y026079D01*
X027057Y026105D01*
X027088Y026128D01*
X027122Y026147D01*
X027158Y026163D01*
X027194Y026175D01*
X027232Y026184D01*
X027271Y026189D01*
X027310Y026190D01*
X027348Y026187D01*
X027387Y026180D01*
X027424Y026170D01*
X027460Y026155D01*
X027495Y026138D01*
X027528Y026117D01*
X027558Y026092D01*
X027586Y026065D01*
X027611Y026035D01*
X027633Y026003D01*
X027651Y025969D01*
X027666Y025933D01*
X027678Y025896D01*
X027686Y025858D01*
X027690Y025819D01*
X027690Y025781D01*
X027686Y025742D01*
X027678Y025704D01*
X027666Y025667D01*
X027651Y025631D01*
X027633Y025597D01*
X027611Y025565D01*
X027586Y025535D01*
X027558Y025508D01*
X027528Y025483D01*
X027495Y025462D01*
X027460Y025445D01*
X027424Y025430D01*
X027387Y025420D01*
X027348Y025413D01*
X027310Y025410D01*
X027271Y025411D01*
X027232Y025416D01*
X027194Y025425D01*
X027158Y025437D01*
X027122Y025453D01*
X027088Y025472D01*
X027057Y025495D01*
X027028Y025521D01*
X027001Y025549D01*
X026978Y025580D01*
X026957Y025613D01*
X026941Y025649D01*
X026927Y025685D01*
X026918Y025723D01*
X026912Y025761D01*
X026910Y025800D01*
X026900Y025400D02*
X027700Y026200D01*
X025310Y025800D02*
X025312Y025839D01*
X025318Y025877D01*
X025327Y025915D01*
X025341Y025951D01*
X025357Y025987D01*
X025378Y026020D01*
X025401Y026051D01*
X025428Y026079D01*
X025457Y026105D01*
X025488Y026128D01*
X025522Y026147D01*
X025558Y026163D01*
X025594Y026175D01*
X025632Y026184D01*
X025671Y026189D01*
X025710Y026190D01*
X025748Y026187D01*
X025787Y026180D01*
X025824Y026170D01*
X025860Y026155D01*
X025895Y026138D01*
X025928Y026117D01*
X025958Y026092D01*
X025986Y026065D01*
X026011Y026035D01*
X026033Y026003D01*
X026051Y025969D01*
X026066Y025933D01*
X026078Y025896D01*
X026086Y025858D01*
X026090Y025819D01*
X026090Y025781D01*
X026086Y025742D01*
X026078Y025704D01*
X026066Y025667D01*
X026051Y025631D01*
X026033Y025597D01*
X026011Y025565D01*
X025986Y025535D01*
X025958Y025508D01*
X025928Y025483D01*
X025895Y025462D01*
X025860Y025445D01*
X025824Y025430D01*
X025787Y025420D01*
X025748Y025413D01*
X025710Y025410D01*
X025671Y025411D01*
X025632Y025416D01*
X025594Y025425D01*
X025558Y025437D01*
X025522Y025453D01*
X025488Y025472D01*
X025457Y025495D01*
X025428Y025521D01*
X025401Y025549D01*
X025378Y025580D01*
X025357Y025613D01*
X025341Y025649D01*
X025327Y025685D01*
X025318Y025723D01*
X025312Y025761D01*
X025310Y025800D01*
X025300Y025400D02*
X026100Y026200D01*
X025310Y026800D02*
X025312Y026839D01*
X025318Y026877D01*
X025327Y026915D01*
X025341Y026951D01*
X025357Y026987D01*
X025378Y027020D01*
X025401Y027051D01*
X025428Y027079D01*
X025457Y027105D01*
X025488Y027128D01*
X025522Y027147D01*
X025558Y027163D01*
X025594Y027175D01*
X025632Y027184D01*
X025671Y027189D01*
X025710Y027190D01*
X025748Y027187D01*
X025787Y027180D01*
X025824Y027170D01*
X025860Y027155D01*
X025895Y027138D01*
X025928Y027117D01*
X025958Y027092D01*
X025986Y027065D01*
X026011Y027035D01*
X026033Y027003D01*
X026051Y026969D01*
X026066Y026933D01*
X026078Y026896D01*
X026086Y026858D01*
X026090Y026819D01*
X026090Y026781D01*
X026086Y026742D01*
X026078Y026704D01*
X026066Y026667D01*
X026051Y026631D01*
X026033Y026597D01*
X026011Y026565D01*
X025986Y026535D01*
X025958Y026508D01*
X025928Y026483D01*
X025895Y026462D01*
X025860Y026445D01*
X025824Y026430D01*
X025787Y026420D01*
X025748Y026413D01*
X025710Y026410D01*
X025671Y026411D01*
X025632Y026416D01*
X025594Y026425D01*
X025558Y026437D01*
X025522Y026453D01*
X025488Y026472D01*
X025457Y026495D01*
X025428Y026521D01*
X025401Y026549D01*
X025378Y026580D01*
X025357Y026613D01*
X025341Y026649D01*
X025327Y026685D01*
X025318Y026723D01*
X025312Y026761D01*
X025310Y026800D01*
X025300Y026400D02*
X026100Y027200D01*
X025310Y023600D02*
X025312Y023639D01*
X025318Y023677D01*
X025327Y023715D01*
X025341Y023751D01*
X025357Y023787D01*
X025378Y023820D01*
X025401Y023851D01*
X025428Y023879D01*
X025457Y023905D01*
X025488Y023928D01*
X025522Y023947D01*
X025558Y023963D01*
X025594Y023975D01*
X025632Y023984D01*
X025671Y023989D01*
X025710Y023990D01*
X025748Y023987D01*
X025787Y023980D01*
X025824Y023970D01*
X025860Y023955D01*
X025895Y023938D01*
X025928Y023917D01*
X025958Y023892D01*
X025986Y023865D01*
X026011Y023835D01*
X026033Y023803D01*
X026051Y023769D01*
X026066Y023733D01*
X026078Y023696D01*
X026086Y023658D01*
X026090Y023619D01*
X026090Y023581D01*
X026086Y023542D01*
X026078Y023504D01*
X026066Y023467D01*
X026051Y023431D01*
X026033Y023397D01*
X026011Y023365D01*
X025986Y023335D01*
X025958Y023308D01*
X025928Y023283D01*
X025895Y023262D01*
X025860Y023245D01*
X025824Y023230D01*
X025787Y023220D01*
X025748Y023213D01*
X025710Y023210D01*
X025671Y023211D01*
X025632Y023216D01*
X025594Y023225D01*
X025558Y023237D01*
X025522Y023253D01*
X025488Y023272D01*
X025457Y023295D01*
X025428Y023321D01*
X025401Y023349D01*
X025378Y023380D01*
X025357Y023413D01*
X025341Y023449D01*
X025327Y023485D01*
X025318Y023523D01*
X025312Y023561D01*
X025310Y023600D01*
X025300Y023200D02*
X026100Y024000D01*
X025310Y022600D02*
X025312Y022639D01*
X025318Y022677D01*
X025327Y022715D01*
X025341Y022751D01*
X025357Y022787D01*
X025378Y022820D01*
X025401Y022851D01*
X025428Y022879D01*
X025457Y022905D01*
X025488Y022928D01*
X025522Y022947D01*
X025558Y022963D01*
X025594Y022975D01*
X025632Y022984D01*
X025671Y022989D01*
X025710Y022990D01*
X025748Y022987D01*
X025787Y022980D01*
X025824Y022970D01*
X025860Y022955D01*
X025895Y022938D01*
X025928Y022917D01*
X025958Y022892D01*
X025986Y022865D01*
X026011Y022835D01*
X026033Y022803D01*
X026051Y022769D01*
X026066Y022733D01*
X026078Y022696D01*
X026086Y022658D01*
X026090Y022619D01*
X026090Y022581D01*
X026086Y022542D01*
X026078Y022504D01*
X026066Y022467D01*
X026051Y022431D01*
X026033Y022397D01*
X026011Y022365D01*
X025986Y022335D01*
X025958Y022308D01*
X025928Y022283D01*
X025895Y022262D01*
X025860Y022245D01*
X025824Y022230D01*
X025787Y022220D01*
X025748Y022213D01*
X025710Y022210D01*
X025671Y022211D01*
X025632Y022216D01*
X025594Y022225D01*
X025558Y022237D01*
X025522Y022253D01*
X025488Y022272D01*
X025457Y022295D01*
X025428Y022321D01*
X025401Y022349D01*
X025378Y022380D01*
X025357Y022413D01*
X025341Y022449D01*
X025327Y022485D01*
X025318Y022523D01*
X025312Y022561D01*
X025310Y022600D01*
X025300Y022200D02*
X026100Y023000D01*
X026610Y022500D02*
X026612Y022539D01*
X026618Y022577D01*
X026627Y022615D01*
X026641Y022651D01*
X026657Y022687D01*
X026678Y022720D01*
X026701Y022751D01*
X026728Y022779D01*
X026757Y022805D01*
X026788Y022828D01*
X026822Y022847D01*
X026858Y022863D01*
X026894Y022875D01*
X026932Y022884D01*
X026971Y022889D01*
X027010Y022890D01*
X027048Y022887D01*
X027087Y022880D01*
X027124Y022870D01*
X027160Y022855D01*
X027195Y022838D01*
X027228Y022817D01*
X027258Y022792D01*
X027286Y022765D01*
X027311Y022735D01*
X027333Y022703D01*
X027351Y022669D01*
X027366Y022633D01*
X027378Y022596D01*
X027386Y022558D01*
X027390Y022519D01*
X027390Y022481D01*
X027386Y022442D01*
X027378Y022404D01*
X027366Y022367D01*
X027351Y022331D01*
X027333Y022297D01*
X027311Y022265D01*
X027286Y022235D01*
X027258Y022208D01*
X027228Y022183D01*
X027195Y022162D01*
X027160Y022145D01*
X027124Y022130D01*
X027087Y022120D01*
X027048Y022113D01*
X027010Y022110D01*
X026971Y022111D01*
X026932Y022116D01*
X026894Y022125D01*
X026858Y022137D01*
X026822Y022153D01*
X026788Y022172D01*
X026757Y022195D01*
X026728Y022221D01*
X026701Y022249D01*
X026678Y022280D01*
X026657Y022313D01*
X026641Y022349D01*
X026627Y022385D01*
X026618Y022423D01*
X026612Y022461D01*
X026610Y022500D01*
X026600Y022100D02*
X027400Y022900D01*
X027610Y022500D02*
X027612Y022539D01*
X027618Y022577D01*
X027627Y022615D01*
X027641Y022651D01*
X027657Y022687D01*
X027678Y022720D01*
X027701Y022751D01*
X027728Y022779D01*
X027757Y022805D01*
X027788Y022828D01*
X027822Y022847D01*
X027858Y022863D01*
X027894Y022875D01*
X027932Y022884D01*
X027971Y022889D01*
X028010Y022890D01*
X028048Y022887D01*
X028087Y022880D01*
X028124Y022870D01*
X028160Y022855D01*
X028195Y022838D01*
X028228Y022817D01*
X028258Y022792D01*
X028286Y022765D01*
X028311Y022735D01*
X028333Y022703D01*
X028351Y022669D01*
X028366Y022633D01*
X028378Y022596D01*
X028386Y022558D01*
X028390Y022519D01*
X028390Y022481D01*
X028386Y022442D01*
X028378Y022404D01*
X028366Y022367D01*
X028351Y022331D01*
X028333Y022297D01*
X028311Y022265D01*
X028286Y022235D01*
X028258Y022208D01*
X028228Y022183D01*
X028195Y022162D01*
X028160Y022145D01*
X028124Y022130D01*
X028087Y022120D01*
X028048Y022113D01*
X028010Y022110D01*
X027971Y022111D01*
X027932Y022116D01*
X027894Y022125D01*
X027858Y022137D01*
X027822Y022153D01*
X027788Y022172D01*
X027757Y022195D01*
X027728Y022221D01*
X027701Y022249D01*
X027678Y022280D01*
X027657Y022313D01*
X027641Y022349D01*
X027627Y022385D01*
X027618Y022423D01*
X027612Y022461D01*
X027610Y022500D01*
X027600Y022100D02*
X028400Y022900D01*
X028910Y022400D02*
X028912Y022439D01*
X028918Y022477D01*
X028927Y022515D01*
X028941Y022551D01*
X028957Y022587D01*
X028978Y022620D01*
X029001Y022651D01*
X029028Y022679D01*
X029057Y022705D01*
X029088Y022728D01*
X029122Y022747D01*
X029158Y022763D01*
X029194Y022775D01*
X029232Y022784D01*
X029271Y022789D01*
X029310Y022790D01*
X029348Y022787D01*
X029387Y022780D01*
X029424Y022770D01*
X029460Y022755D01*
X029495Y022738D01*
X029528Y022717D01*
X029558Y022692D01*
X029586Y022665D01*
X029611Y022635D01*
X029633Y022603D01*
X029651Y022569D01*
X029666Y022533D01*
X029678Y022496D01*
X029686Y022458D01*
X029690Y022419D01*
X029690Y022381D01*
X029686Y022342D01*
X029678Y022304D01*
X029666Y022267D01*
X029651Y022231D01*
X029633Y022197D01*
X029611Y022165D01*
X029586Y022135D01*
X029558Y022108D01*
X029528Y022083D01*
X029495Y022062D01*
X029460Y022045D01*
X029424Y022030D01*
X029387Y022020D01*
X029348Y022013D01*
X029310Y022010D01*
X029271Y022011D01*
X029232Y022016D01*
X029194Y022025D01*
X029158Y022037D01*
X029122Y022053D01*
X029088Y022072D01*
X029057Y022095D01*
X029028Y022121D01*
X029001Y022149D01*
X028978Y022180D01*
X028957Y022213D01*
X028941Y022249D01*
X028927Y022285D01*
X028918Y022323D01*
X028912Y022361D01*
X028910Y022400D01*
X028900Y022000D02*
X029700Y022800D01*
X028910Y020700D02*
X028912Y020739D01*
X028918Y020777D01*
X028927Y020815D01*
X028941Y020851D01*
X028957Y020887D01*
X028978Y020920D01*
X029001Y020951D01*
X029028Y020979D01*
X029057Y021005D01*
X029088Y021028D01*
X029122Y021047D01*
X029158Y021063D01*
X029194Y021075D01*
X029232Y021084D01*
X029271Y021089D01*
X029310Y021090D01*
X029348Y021087D01*
X029387Y021080D01*
X029424Y021070D01*
X029460Y021055D01*
X029495Y021038D01*
X029528Y021017D01*
X029558Y020992D01*
X029586Y020965D01*
X029611Y020935D01*
X029633Y020903D01*
X029651Y020869D01*
X029666Y020833D01*
X029678Y020796D01*
X029686Y020758D01*
X029690Y020719D01*
X029690Y020681D01*
X029686Y020642D01*
X029678Y020604D01*
X029666Y020567D01*
X029651Y020531D01*
X029633Y020497D01*
X029611Y020465D01*
X029586Y020435D01*
X029558Y020408D01*
X029528Y020383D01*
X029495Y020362D01*
X029460Y020345D01*
X029424Y020330D01*
X029387Y020320D01*
X029348Y020313D01*
X029310Y020310D01*
X029271Y020311D01*
X029232Y020316D01*
X029194Y020325D01*
X029158Y020337D01*
X029122Y020353D01*
X029088Y020372D01*
X029057Y020395D01*
X029028Y020421D01*
X029001Y020449D01*
X028978Y020480D01*
X028957Y020513D01*
X028941Y020549D01*
X028927Y020585D01*
X028918Y020623D01*
X028912Y020661D01*
X028910Y020700D01*
X028900Y020300D02*
X029700Y021100D01*
X027510Y020700D02*
X027512Y020739D01*
X027518Y020777D01*
X027527Y020815D01*
X027541Y020851D01*
X027557Y020887D01*
X027578Y020920D01*
X027601Y020951D01*
X027628Y020979D01*
X027657Y021005D01*
X027688Y021028D01*
X027722Y021047D01*
X027758Y021063D01*
X027794Y021075D01*
X027832Y021084D01*
X027871Y021089D01*
X027910Y021090D01*
X027948Y021087D01*
X027987Y021080D01*
X028024Y021070D01*
X028060Y021055D01*
X028095Y021038D01*
X028128Y021017D01*
X028158Y020992D01*
X028186Y020965D01*
X028211Y020935D01*
X028233Y020903D01*
X028251Y020869D01*
X028266Y020833D01*
X028278Y020796D01*
X028286Y020758D01*
X028290Y020719D01*
X028290Y020681D01*
X028286Y020642D01*
X028278Y020604D01*
X028266Y020567D01*
X028251Y020531D01*
X028233Y020497D01*
X028211Y020465D01*
X028186Y020435D01*
X028158Y020408D01*
X028128Y020383D01*
X028095Y020362D01*
X028060Y020345D01*
X028024Y020330D01*
X027987Y020320D01*
X027948Y020313D01*
X027910Y020310D01*
X027871Y020311D01*
X027832Y020316D01*
X027794Y020325D01*
X027758Y020337D01*
X027722Y020353D01*
X027688Y020372D01*
X027657Y020395D01*
X027628Y020421D01*
X027601Y020449D01*
X027578Y020480D01*
X027557Y020513D01*
X027541Y020549D01*
X027527Y020585D01*
X027518Y020623D01*
X027512Y020661D01*
X027510Y020700D01*
X027500Y020300D02*
X028300Y021100D01*
X026710Y020700D02*
X026712Y020739D01*
X026718Y020777D01*
X026727Y020815D01*
X026741Y020851D01*
X026757Y020887D01*
X026778Y020920D01*
X026801Y020951D01*
X026828Y020979D01*
X026857Y021005D01*
X026888Y021028D01*
X026922Y021047D01*
X026958Y021063D01*
X026994Y021075D01*
X027032Y021084D01*
X027071Y021089D01*
X027110Y021090D01*
X027148Y021087D01*
X027187Y021080D01*
X027224Y021070D01*
X027260Y021055D01*
X027295Y021038D01*
X027328Y021017D01*
X027358Y020992D01*
X027386Y020965D01*
X027411Y020935D01*
X027433Y020903D01*
X027451Y020869D01*
X027466Y020833D01*
X027478Y020796D01*
X027486Y020758D01*
X027490Y020719D01*
X027490Y020681D01*
X027486Y020642D01*
X027478Y020604D01*
X027466Y020567D01*
X027451Y020531D01*
X027433Y020497D01*
X027411Y020465D01*
X027386Y020435D01*
X027358Y020408D01*
X027328Y020383D01*
X027295Y020362D01*
X027260Y020345D01*
X027224Y020330D01*
X027187Y020320D01*
X027148Y020313D01*
X027110Y020310D01*
X027071Y020311D01*
X027032Y020316D01*
X026994Y020325D01*
X026958Y020337D01*
X026922Y020353D01*
X026888Y020372D01*
X026857Y020395D01*
X026828Y020421D01*
X026801Y020449D01*
X026778Y020480D01*
X026757Y020513D01*
X026741Y020549D01*
X026727Y020585D01*
X026718Y020623D01*
X026712Y020661D01*
X026710Y020700D01*
X026700Y020300D02*
X027500Y021100D01*
X025310Y020600D02*
X025312Y020639D01*
X025318Y020677D01*
X025327Y020715D01*
X025341Y020751D01*
X025357Y020787D01*
X025378Y020820D01*
X025401Y020851D01*
X025428Y020879D01*
X025457Y020905D01*
X025488Y020928D01*
X025522Y020947D01*
X025558Y020963D01*
X025594Y020975D01*
X025632Y020984D01*
X025671Y020989D01*
X025710Y020990D01*
X025748Y020987D01*
X025787Y020980D01*
X025824Y020970D01*
X025860Y020955D01*
X025895Y020938D01*
X025928Y020917D01*
X025958Y020892D01*
X025986Y020865D01*
X026011Y020835D01*
X026033Y020803D01*
X026051Y020769D01*
X026066Y020733D01*
X026078Y020696D01*
X026086Y020658D01*
X026090Y020619D01*
X026090Y020581D01*
X026086Y020542D01*
X026078Y020504D01*
X026066Y020467D01*
X026051Y020431D01*
X026033Y020397D01*
X026011Y020365D01*
X025986Y020335D01*
X025958Y020308D01*
X025928Y020283D01*
X025895Y020262D01*
X025860Y020245D01*
X025824Y020230D01*
X025787Y020220D01*
X025748Y020213D01*
X025710Y020210D01*
X025671Y020211D01*
X025632Y020216D01*
X025594Y020225D01*
X025558Y020237D01*
X025522Y020253D01*
X025488Y020272D01*
X025457Y020295D01*
X025428Y020321D01*
X025401Y020349D01*
X025378Y020380D01*
X025357Y020413D01*
X025341Y020449D01*
X025327Y020485D01*
X025318Y020523D01*
X025312Y020561D01*
X025310Y020600D01*
X025300Y020200D02*
X026100Y021000D01*
X025310Y021600D02*
X025312Y021639D01*
X025318Y021677D01*
X025327Y021715D01*
X025341Y021751D01*
X025357Y021787D01*
X025378Y021820D01*
X025401Y021851D01*
X025428Y021879D01*
X025457Y021905D01*
X025488Y021928D01*
X025522Y021947D01*
X025558Y021963D01*
X025594Y021975D01*
X025632Y021984D01*
X025671Y021989D01*
X025710Y021990D01*
X025748Y021987D01*
X025787Y021980D01*
X025824Y021970D01*
X025860Y021955D01*
X025895Y021938D01*
X025928Y021917D01*
X025958Y021892D01*
X025986Y021865D01*
X026011Y021835D01*
X026033Y021803D01*
X026051Y021769D01*
X026066Y021733D01*
X026078Y021696D01*
X026086Y021658D01*
X026090Y021619D01*
X026090Y021581D01*
X026086Y021542D01*
X026078Y021504D01*
X026066Y021467D01*
X026051Y021431D01*
X026033Y021397D01*
X026011Y021365D01*
X025986Y021335D01*
X025958Y021308D01*
X025928Y021283D01*
X025895Y021262D01*
X025860Y021245D01*
X025824Y021230D01*
X025787Y021220D01*
X025748Y021213D01*
X025710Y021210D01*
X025671Y021211D01*
X025632Y021216D01*
X025594Y021225D01*
X025558Y021237D01*
X025522Y021253D01*
X025488Y021272D01*
X025457Y021295D01*
X025428Y021321D01*
X025401Y021349D01*
X025378Y021380D01*
X025357Y021413D01*
X025341Y021449D01*
X025327Y021485D01*
X025318Y021523D01*
X025312Y021561D01*
X025310Y021600D01*
X025300Y021200D02*
X026100Y022000D01*
X029710Y016900D02*
X029712Y016939D01*
X029718Y016977D01*
X029727Y017015D01*
X029741Y017051D01*
X029757Y017087D01*
X029778Y017120D01*
X029801Y017151D01*
X029828Y017179D01*
X029857Y017205D01*
X029888Y017228D01*
X029922Y017247D01*
X029958Y017263D01*
X029994Y017275D01*
X030032Y017284D01*
X030071Y017289D01*
X030110Y017290D01*
X030148Y017287D01*
X030187Y017280D01*
X030224Y017270D01*
X030260Y017255D01*
X030295Y017238D01*
X030328Y017217D01*
X030358Y017192D01*
X030386Y017165D01*
X030411Y017135D01*
X030433Y017103D01*
X030451Y017069D01*
X030466Y017033D01*
X030478Y016996D01*
X030486Y016958D01*
X030490Y016919D01*
X030490Y016881D01*
X030486Y016842D01*
X030478Y016804D01*
X030466Y016767D01*
X030451Y016731D01*
X030433Y016697D01*
X030411Y016665D01*
X030386Y016635D01*
X030358Y016608D01*
X030328Y016583D01*
X030295Y016562D01*
X030260Y016545D01*
X030224Y016530D01*
X030187Y016520D01*
X030148Y016513D01*
X030110Y016510D01*
X030071Y016511D01*
X030032Y016516D01*
X029994Y016525D01*
X029958Y016537D01*
X029922Y016553D01*
X029888Y016572D01*
X029857Y016595D01*
X029828Y016621D01*
X029801Y016649D01*
X029778Y016680D01*
X029757Y016713D01*
X029741Y016749D01*
X029727Y016785D01*
X029718Y016823D01*
X029712Y016861D01*
X029710Y016900D01*
X029700Y016500D02*
X030500Y017300D01*
X029610Y015700D02*
X029612Y015739D01*
X029618Y015777D01*
X029627Y015815D01*
X029641Y015851D01*
X029657Y015887D01*
X029678Y015920D01*
X029701Y015951D01*
X029728Y015979D01*
X029757Y016005D01*
X029788Y016028D01*
X029822Y016047D01*
X029858Y016063D01*
X029894Y016075D01*
X029932Y016084D01*
X029971Y016089D01*
X030010Y016090D01*
X030048Y016087D01*
X030087Y016080D01*
X030124Y016070D01*
X030160Y016055D01*
X030195Y016038D01*
X030228Y016017D01*
X030258Y015992D01*
X030286Y015965D01*
X030311Y015935D01*
X030333Y015903D01*
X030351Y015869D01*
X030366Y015833D01*
X030378Y015796D01*
X030386Y015758D01*
X030390Y015719D01*
X030390Y015681D01*
X030386Y015642D01*
X030378Y015604D01*
X030366Y015567D01*
X030351Y015531D01*
X030333Y015497D01*
X030311Y015465D01*
X030286Y015435D01*
X030258Y015408D01*
X030228Y015383D01*
X030195Y015362D01*
X030160Y015345D01*
X030124Y015330D01*
X030087Y015320D01*
X030048Y015313D01*
X030010Y015310D01*
X029971Y015311D01*
X029932Y015316D01*
X029894Y015325D01*
X029858Y015337D01*
X029822Y015353D01*
X029788Y015372D01*
X029757Y015395D01*
X029728Y015421D01*
X029701Y015449D01*
X029678Y015480D01*
X029657Y015513D01*
X029641Y015549D01*
X029627Y015585D01*
X029618Y015623D01*
X029612Y015661D01*
X029610Y015700D01*
X029600Y015300D02*
X030400Y016100D01*
X032010Y016100D02*
X032012Y016139D01*
X032018Y016177D01*
X032027Y016215D01*
X032041Y016251D01*
X032057Y016287D01*
X032078Y016320D01*
X032101Y016351D01*
X032128Y016379D01*
X032157Y016405D01*
X032188Y016428D01*
X032222Y016447D01*
X032258Y016463D01*
X032294Y016475D01*
X032332Y016484D01*
X032371Y016489D01*
X032410Y016490D01*
X032448Y016487D01*
X032487Y016480D01*
X032524Y016470D01*
X032560Y016455D01*
X032595Y016438D01*
X032628Y016417D01*
X032658Y016392D01*
X032686Y016365D01*
X032711Y016335D01*
X032733Y016303D01*
X032751Y016269D01*
X032766Y016233D01*
X032778Y016196D01*
X032786Y016158D01*
X032790Y016119D01*
X032790Y016081D01*
X032786Y016042D01*
X032778Y016004D01*
X032766Y015967D01*
X032751Y015931D01*
X032733Y015897D01*
X032711Y015865D01*
X032686Y015835D01*
X032658Y015808D01*
X032628Y015783D01*
X032595Y015762D01*
X032560Y015745D01*
X032524Y015730D01*
X032487Y015720D01*
X032448Y015713D01*
X032410Y015710D01*
X032371Y015711D01*
X032332Y015716D01*
X032294Y015725D01*
X032258Y015737D01*
X032222Y015753D01*
X032188Y015772D01*
X032157Y015795D01*
X032128Y015821D01*
X032101Y015849D01*
X032078Y015880D01*
X032057Y015913D01*
X032041Y015949D01*
X032027Y015985D01*
X032018Y016023D01*
X032012Y016061D01*
X032010Y016100D01*
X032000Y015700D02*
X032800Y016500D01*
X032010Y015100D02*
X032012Y015139D01*
X032018Y015177D01*
X032027Y015215D01*
X032041Y015251D01*
X032057Y015287D01*
X032078Y015320D01*
X032101Y015351D01*
X032128Y015379D01*
X032157Y015405D01*
X032188Y015428D01*
X032222Y015447D01*
X032258Y015463D01*
X032294Y015475D01*
X032332Y015484D01*
X032371Y015489D01*
X032410Y015490D01*
X032448Y015487D01*
X032487Y015480D01*
X032524Y015470D01*
X032560Y015455D01*
X032595Y015438D01*
X032628Y015417D01*
X032658Y015392D01*
X032686Y015365D01*
X032711Y015335D01*
X032733Y015303D01*
X032751Y015269D01*
X032766Y015233D01*
X032778Y015196D01*
X032786Y015158D01*
X032790Y015119D01*
X032790Y015081D01*
X032786Y015042D01*
X032778Y015004D01*
X032766Y014967D01*
X032751Y014931D01*
X032733Y014897D01*
X032711Y014865D01*
X032686Y014835D01*
X032658Y014808D01*
X032628Y014783D01*
X032595Y014762D01*
X032560Y014745D01*
X032524Y014730D01*
X032487Y014720D01*
X032448Y014713D01*
X032410Y014710D01*
X032371Y014711D01*
X032332Y014716D01*
X032294Y014725D01*
X032258Y014737D01*
X032222Y014753D01*
X032188Y014772D01*
X032157Y014795D01*
X032128Y014821D01*
X032101Y014849D01*
X032078Y014880D01*
X032057Y014913D01*
X032041Y014949D01*
X032027Y014985D01*
X032018Y015023D01*
X032012Y015061D01*
X032010Y015100D01*
X032000Y014700D02*
X032800Y015500D01*
X032010Y014100D02*
X032012Y014139D01*
X032018Y014177D01*
X032027Y014215D01*
X032041Y014251D01*
X032057Y014287D01*
X032078Y014320D01*
X032101Y014351D01*
X032128Y014379D01*
X032157Y014405D01*
X032188Y014428D01*
X032222Y014447D01*
X032258Y014463D01*
X032294Y014475D01*
X032332Y014484D01*
X032371Y014489D01*
X032410Y014490D01*
X032448Y014487D01*
X032487Y014480D01*
X032524Y014470D01*
X032560Y014455D01*
X032595Y014438D01*
X032628Y014417D01*
X032658Y014392D01*
X032686Y014365D01*
X032711Y014335D01*
X032733Y014303D01*
X032751Y014269D01*
X032766Y014233D01*
X032778Y014196D01*
X032786Y014158D01*
X032790Y014119D01*
X032790Y014081D01*
X032786Y014042D01*
X032778Y014004D01*
X032766Y013967D01*
X032751Y013931D01*
X032733Y013897D01*
X032711Y013865D01*
X032686Y013835D01*
X032658Y013808D01*
X032628Y013783D01*
X032595Y013762D01*
X032560Y013745D01*
X032524Y013730D01*
X032487Y013720D01*
X032448Y013713D01*
X032410Y013710D01*
X032371Y013711D01*
X032332Y013716D01*
X032294Y013725D01*
X032258Y013737D01*
X032222Y013753D01*
X032188Y013772D01*
X032157Y013795D01*
X032128Y013821D01*
X032101Y013849D01*
X032078Y013880D01*
X032057Y013913D01*
X032041Y013949D01*
X032027Y013985D01*
X032018Y014023D01*
X032012Y014061D01*
X032010Y014100D01*
X032000Y013700D02*
X032800Y014500D01*
X032010Y013100D02*
X032012Y013139D01*
X032018Y013177D01*
X032027Y013215D01*
X032041Y013251D01*
X032057Y013287D01*
X032078Y013320D01*
X032101Y013351D01*
X032128Y013379D01*
X032157Y013405D01*
X032188Y013428D01*
X032222Y013447D01*
X032258Y013463D01*
X032294Y013475D01*
X032332Y013484D01*
X032371Y013489D01*
X032410Y013490D01*
X032448Y013487D01*
X032487Y013480D01*
X032524Y013470D01*
X032560Y013455D01*
X032595Y013438D01*
X032628Y013417D01*
X032658Y013392D01*
X032686Y013365D01*
X032711Y013335D01*
X032733Y013303D01*
X032751Y013269D01*
X032766Y013233D01*
X032778Y013196D01*
X032786Y013158D01*
X032790Y013119D01*
X032790Y013081D01*
X032786Y013042D01*
X032778Y013004D01*
X032766Y012967D01*
X032751Y012931D01*
X032733Y012897D01*
X032711Y012865D01*
X032686Y012835D01*
X032658Y012808D01*
X032628Y012783D01*
X032595Y012762D01*
X032560Y012745D01*
X032524Y012730D01*
X032487Y012720D01*
X032448Y012713D01*
X032410Y012710D01*
X032371Y012711D01*
X032332Y012716D01*
X032294Y012725D01*
X032258Y012737D01*
X032222Y012753D01*
X032188Y012772D01*
X032157Y012795D01*
X032128Y012821D01*
X032101Y012849D01*
X032078Y012880D01*
X032057Y012913D01*
X032041Y012949D01*
X032027Y012985D01*
X032018Y013023D01*
X032012Y013061D01*
X032010Y013100D01*
X032000Y012700D02*
X032800Y013500D01*
X035010Y013100D02*
X035012Y013139D01*
X035018Y013177D01*
X035027Y013215D01*
X035041Y013251D01*
X035057Y013287D01*
X035078Y013320D01*
X035101Y013351D01*
X035128Y013379D01*
X035157Y013405D01*
X035188Y013428D01*
X035222Y013447D01*
X035258Y013463D01*
X035294Y013475D01*
X035332Y013484D01*
X035371Y013489D01*
X035410Y013490D01*
X035448Y013487D01*
X035487Y013480D01*
X035524Y013470D01*
X035560Y013455D01*
X035595Y013438D01*
X035628Y013417D01*
X035658Y013392D01*
X035686Y013365D01*
X035711Y013335D01*
X035733Y013303D01*
X035751Y013269D01*
X035766Y013233D01*
X035778Y013196D01*
X035786Y013158D01*
X035790Y013119D01*
X035790Y013081D01*
X035786Y013042D01*
X035778Y013004D01*
X035766Y012967D01*
X035751Y012931D01*
X035733Y012897D01*
X035711Y012865D01*
X035686Y012835D01*
X035658Y012808D01*
X035628Y012783D01*
X035595Y012762D01*
X035560Y012745D01*
X035524Y012730D01*
X035487Y012720D01*
X035448Y012713D01*
X035410Y012710D01*
X035371Y012711D01*
X035332Y012716D01*
X035294Y012725D01*
X035258Y012737D01*
X035222Y012753D01*
X035188Y012772D01*
X035157Y012795D01*
X035128Y012821D01*
X035101Y012849D01*
X035078Y012880D01*
X035057Y012913D01*
X035041Y012949D01*
X035027Y012985D01*
X035018Y013023D01*
X035012Y013061D01*
X035010Y013100D01*
X035000Y012700D02*
X035800Y013500D01*
X035010Y014100D02*
X035012Y014139D01*
X035018Y014177D01*
X035027Y014215D01*
X035041Y014251D01*
X035057Y014287D01*
X035078Y014320D01*
X035101Y014351D01*
X035128Y014379D01*
X035157Y014405D01*
X035188Y014428D01*
X035222Y014447D01*
X035258Y014463D01*
X035294Y014475D01*
X035332Y014484D01*
X035371Y014489D01*
X035410Y014490D01*
X035448Y014487D01*
X035487Y014480D01*
X035524Y014470D01*
X035560Y014455D01*
X035595Y014438D01*
X035628Y014417D01*
X035658Y014392D01*
X035686Y014365D01*
X035711Y014335D01*
X035733Y014303D01*
X035751Y014269D01*
X035766Y014233D01*
X035778Y014196D01*
X035786Y014158D01*
X035790Y014119D01*
X035790Y014081D01*
X035786Y014042D01*
X035778Y014004D01*
X035766Y013967D01*
X035751Y013931D01*
X035733Y013897D01*
X035711Y013865D01*
X035686Y013835D01*
X035658Y013808D01*
X035628Y013783D01*
X035595Y013762D01*
X035560Y013745D01*
X035524Y013730D01*
X035487Y013720D01*
X035448Y013713D01*
X035410Y013710D01*
X035371Y013711D01*
X035332Y013716D01*
X035294Y013725D01*
X035258Y013737D01*
X035222Y013753D01*
X035188Y013772D01*
X035157Y013795D01*
X035128Y013821D01*
X035101Y013849D01*
X035078Y013880D01*
X035057Y013913D01*
X035041Y013949D01*
X035027Y013985D01*
X035018Y014023D01*
X035012Y014061D01*
X035010Y014100D01*
X035000Y013700D02*
X035800Y014500D01*
X035010Y015100D02*
X035012Y015139D01*
X035018Y015177D01*
X035027Y015215D01*
X035041Y015251D01*
X035057Y015287D01*
X035078Y015320D01*
X035101Y015351D01*
X035128Y015379D01*
X035157Y015405D01*
X035188Y015428D01*
X035222Y015447D01*
X035258Y015463D01*
X035294Y015475D01*
X035332Y015484D01*
X035371Y015489D01*
X035410Y015490D01*
X035448Y015487D01*
X035487Y015480D01*
X035524Y015470D01*
X035560Y015455D01*
X035595Y015438D01*
X035628Y015417D01*
X035658Y015392D01*
X035686Y015365D01*
X035711Y015335D01*
X035733Y015303D01*
X035751Y015269D01*
X035766Y015233D01*
X035778Y015196D01*
X035786Y015158D01*
X035790Y015119D01*
X035790Y015081D01*
X035786Y015042D01*
X035778Y015004D01*
X035766Y014967D01*
X035751Y014931D01*
X035733Y014897D01*
X035711Y014865D01*
X035686Y014835D01*
X035658Y014808D01*
X035628Y014783D01*
X035595Y014762D01*
X035560Y014745D01*
X035524Y014730D01*
X035487Y014720D01*
X035448Y014713D01*
X035410Y014710D01*
X035371Y014711D01*
X035332Y014716D01*
X035294Y014725D01*
X035258Y014737D01*
X035222Y014753D01*
X035188Y014772D01*
X035157Y014795D01*
X035128Y014821D01*
X035101Y014849D01*
X035078Y014880D01*
X035057Y014913D01*
X035041Y014949D01*
X035027Y014985D01*
X035018Y015023D01*
X035012Y015061D01*
X035010Y015100D01*
X035000Y014700D02*
X035800Y015500D01*
X035010Y016100D02*
X035012Y016139D01*
X035018Y016177D01*
X035027Y016215D01*
X035041Y016251D01*
X035057Y016287D01*
X035078Y016320D01*
X035101Y016351D01*
X035128Y016379D01*
X035157Y016405D01*
X035188Y016428D01*
X035222Y016447D01*
X035258Y016463D01*
X035294Y016475D01*
X035332Y016484D01*
X035371Y016489D01*
X035410Y016490D01*
X035448Y016487D01*
X035487Y016480D01*
X035524Y016470D01*
X035560Y016455D01*
X035595Y016438D01*
X035628Y016417D01*
X035658Y016392D01*
X035686Y016365D01*
X035711Y016335D01*
X035733Y016303D01*
X035751Y016269D01*
X035766Y016233D01*
X035778Y016196D01*
X035786Y016158D01*
X035790Y016119D01*
X035790Y016081D01*
X035786Y016042D01*
X035778Y016004D01*
X035766Y015967D01*
X035751Y015931D01*
X035733Y015897D01*
X035711Y015865D01*
X035686Y015835D01*
X035658Y015808D01*
X035628Y015783D01*
X035595Y015762D01*
X035560Y015745D01*
X035524Y015730D01*
X035487Y015720D01*
X035448Y015713D01*
X035410Y015710D01*
X035371Y015711D01*
X035332Y015716D01*
X035294Y015725D01*
X035258Y015737D01*
X035222Y015753D01*
X035188Y015772D01*
X035157Y015795D01*
X035128Y015821D01*
X035101Y015849D01*
X035078Y015880D01*
X035057Y015913D01*
X035041Y015949D01*
X035027Y015985D01*
X035018Y016023D01*
X035012Y016061D01*
X035010Y016100D01*
X035000Y015700D02*
X035800Y016500D01*
X037300Y016500D02*
X037300Y016900D01*
X037700Y016500D01*
X037300Y016100D01*
X036900Y016500D01*
X037300Y016900D01*
X035900Y018000D02*
X036700Y018800D01*
X036700Y018000D01*
X035900Y018800D01*
X035900Y018000D01*
X035700Y018800D02*
X034900Y018000D01*
X035700Y018000D02*
X035700Y018800D01*
X035700Y018000D02*
X034900Y018800D01*
X034900Y018000D01*
X033500Y018800D02*
X032700Y018000D01*
X033500Y018000D02*
X033500Y018800D01*
X033500Y018000D02*
X032700Y018800D01*
X032700Y018000D01*
X032500Y018800D02*
X031700Y018000D01*
X032500Y018000D02*
X032500Y018800D01*
X032500Y018000D02*
X031700Y018800D01*
X031700Y018000D01*
X031910Y020700D02*
X031912Y020739D01*
X031918Y020777D01*
X031927Y020815D01*
X031941Y020851D01*
X031957Y020887D01*
X031978Y020920D01*
X032001Y020951D01*
X032028Y020979D01*
X032057Y021005D01*
X032088Y021028D01*
X032122Y021047D01*
X032158Y021063D01*
X032194Y021075D01*
X032232Y021084D01*
X032271Y021089D01*
X032310Y021090D01*
X032348Y021087D01*
X032387Y021080D01*
X032424Y021070D01*
X032460Y021055D01*
X032495Y021038D01*
X032528Y021017D01*
X032558Y020992D01*
X032586Y020965D01*
X032611Y020935D01*
X032633Y020903D01*
X032651Y020869D01*
X032666Y020833D01*
X032678Y020796D01*
X032686Y020758D01*
X032690Y020719D01*
X032690Y020681D01*
X032686Y020642D01*
X032678Y020604D01*
X032666Y020567D01*
X032651Y020531D01*
X032633Y020497D01*
X032611Y020465D01*
X032586Y020435D01*
X032558Y020408D01*
X032528Y020383D01*
X032495Y020362D01*
X032460Y020345D01*
X032424Y020330D01*
X032387Y020320D01*
X032348Y020313D01*
X032310Y020310D01*
X032271Y020311D01*
X032232Y020316D01*
X032194Y020325D01*
X032158Y020337D01*
X032122Y020353D01*
X032088Y020372D01*
X032057Y020395D01*
X032028Y020421D01*
X032001Y020449D01*
X031978Y020480D01*
X031957Y020513D01*
X031941Y020549D01*
X031927Y020585D01*
X031918Y020623D01*
X031912Y020661D01*
X031910Y020700D01*
X031900Y020300D02*
X032700Y021100D01*
X031910Y022400D02*
X031912Y022439D01*
X031918Y022477D01*
X031927Y022515D01*
X031941Y022551D01*
X031957Y022587D01*
X031978Y022620D01*
X032001Y022651D01*
X032028Y022679D01*
X032057Y022705D01*
X032088Y022728D01*
X032122Y022747D01*
X032158Y022763D01*
X032194Y022775D01*
X032232Y022784D01*
X032271Y022789D01*
X032310Y022790D01*
X032348Y022787D01*
X032387Y022780D01*
X032424Y022770D01*
X032460Y022755D01*
X032495Y022738D01*
X032528Y022717D01*
X032558Y022692D01*
X032586Y022665D01*
X032611Y022635D01*
X032633Y022603D01*
X032651Y022569D01*
X032666Y022533D01*
X032678Y022496D01*
X032686Y022458D01*
X032690Y022419D01*
X032690Y022381D01*
X032686Y022342D01*
X032678Y022304D01*
X032666Y022267D01*
X032651Y022231D01*
X032633Y022197D01*
X032611Y022165D01*
X032586Y022135D01*
X032558Y022108D01*
X032528Y022083D01*
X032495Y022062D01*
X032460Y022045D01*
X032424Y022030D01*
X032387Y022020D01*
X032348Y022013D01*
X032310Y022010D01*
X032271Y022011D01*
X032232Y022016D01*
X032194Y022025D01*
X032158Y022037D01*
X032122Y022053D01*
X032088Y022072D01*
X032057Y022095D01*
X032028Y022121D01*
X032001Y022149D01*
X031978Y022180D01*
X031957Y022213D01*
X031941Y022249D01*
X031927Y022285D01*
X031918Y022323D01*
X031912Y022361D01*
X031910Y022400D01*
X031900Y022000D02*
X032700Y022800D01*
X031910Y025900D02*
X031912Y025939D01*
X031918Y025977D01*
X031927Y026015D01*
X031941Y026051D01*
X031957Y026087D01*
X031978Y026120D01*
X032001Y026151D01*
X032028Y026179D01*
X032057Y026205D01*
X032088Y026228D01*
X032122Y026247D01*
X032158Y026263D01*
X032194Y026275D01*
X032232Y026284D01*
X032271Y026289D01*
X032310Y026290D01*
X032348Y026287D01*
X032387Y026280D01*
X032424Y026270D01*
X032460Y026255D01*
X032495Y026238D01*
X032528Y026217D01*
X032558Y026192D01*
X032586Y026165D01*
X032611Y026135D01*
X032633Y026103D01*
X032651Y026069D01*
X032666Y026033D01*
X032678Y025996D01*
X032686Y025958D01*
X032690Y025919D01*
X032690Y025881D01*
X032686Y025842D01*
X032678Y025804D01*
X032666Y025767D01*
X032651Y025731D01*
X032633Y025697D01*
X032611Y025665D01*
X032586Y025635D01*
X032558Y025608D01*
X032528Y025583D01*
X032495Y025562D01*
X032460Y025545D01*
X032424Y025530D01*
X032387Y025520D01*
X032348Y025513D01*
X032310Y025510D01*
X032271Y025511D01*
X032232Y025516D01*
X032194Y025525D01*
X032158Y025537D01*
X032122Y025553D01*
X032088Y025572D01*
X032057Y025595D01*
X032028Y025621D01*
X032001Y025649D01*
X031978Y025680D01*
X031957Y025713D01*
X031941Y025749D01*
X031927Y025785D01*
X031918Y025823D01*
X031912Y025861D01*
X031910Y025900D01*
X031900Y025500D02*
X032700Y026300D01*
X031910Y027600D02*
X031912Y027639D01*
X031918Y027677D01*
X031927Y027715D01*
X031941Y027751D01*
X031957Y027787D01*
X031978Y027820D01*
X032001Y027851D01*
X032028Y027879D01*
X032057Y027905D01*
X032088Y027928D01*
X032122Y027947D01*
X032158Y027963D01*
X032194Y027975D01*
X032232Y027984D01*
X032271Y027989D01*
X032310Y027990D01*
X032348Y027987D01*
X032387Y027980D01*
X032424Y027970D01*
X032460Y027955D01*
X032495Y027938D01*
X032528Y027917D01*
X032558Y027892D01*
X032586Y027865D01*
X032611Y027835D01*
X032633Y027803D01*
X032651Y027769D01*
X032666Y027733D01*
X032678Y027696D01*
X032686Y027658D01*
X032690Y027619D01*
X032690Y027581D01*
X032686Y027542D01*
X032678Y027504D01*
X032666Y027467D01*
X032651Y027431D01*
X032633Y027397D01*
X032611Y027365D01*
X032586Y027335D01*
X032558Y027308D01*
X032528Y027283D01*
X032495Y027262D01*
X032460Y027245D01*
X032424Y027230D01*
X032387Y027220D01*
X032348Y027213D01*
X032310Y027210D01*
X032271Y027211D01*
X032232Y027216D01*
X032194Y027225D01*
X032158Y027237D01*
X032122Y027253D01*
X032088Y027272D01*
X032057Y027295D01*
X032028Y027321D01*
X032001Y027349D01*
X031978Y027380D01*
X031957Y027413D01*
X031941Y027449D01*
X031927Y027485D01*
X031918Y027523D01*
X031912Y027561D01*
X031910Y027600D01*
X031900Y027200D02*
X032700Y028000D01*
X033710Y028150D02*
X033712Y028189D01*
X033718Y028227D01*
X033727Y028265D01*
X033741Y028301D01*
X033757Y028337D01*
X033778Y028370D01*
X033801Y028401D01*
X033828Y028429D01*
X033857Y028455D01*
X033888Y028478D01*
X033922Y028497D01*
X033958Y028513D01*
X033994Y028525D01*
X034032Y028534D01*
X034071Y028539D01*
X034110Y028540D01*
X034148Y028537D01*
X034187Y028530D01*
X034224Y028520D01*
X034260Y028505D01*
X034295Y028488D01*
X034328Y028467D01*
X034358Y028442D01*
X034386Y028415D01*
X034411Y028385D01*
X034433Y028353D01*
X034451Y028319D01*
X034466Y028283D01*
X034478Y028246D01*
X034486Y028208D01*
X034490Y028169D01*
X034490Y028131D01*
X034486Y028092D01*
X034478Y028054D01*
X034466Y028017D01*
X034451Y027981D01*
X034433Y027947D01*
X034411Y027915D01*
X034386Y027885D01*
X034358Y027858D01*
X034328Y027833D01*
X034295Y027812D01*
X034260Y027795D01*
X034224Y027780D01*
X034187Y027770D01*
X034148Y027763D01*
X034110Y027760D01*
X034071Y027761D01*
X034032Y027766D01*
X033994Y027775D01*
X033958Y027787D01*
X033922Y027803D01*
X033888Y027822D01*
X033857Y027845D01*
X033828Y027871D01*
X033801Y027899D01*
X033778Y027930D01*
X033757Y027963D01*
X033741Y027999D01*
X033727Y028035D01*
X033718Y028073D01*
X033712Y028111D01*
X033710Y028150D01*
X033700Y027750D02*
X034500Y028550D01*
X034210Y029900D02*
X034212Y029939D01*
X034218Y029977D01*
X034227Y030015D01*
X034241Y030051D01*
X034257Y030087D01*
X034278Y030120D01*
X034301Y030151D01*
X034328Y030179D01*
X034357Y030205D01*
X034388Y030228D01*
X034422Y030247D01*
X034458Y030263D01*
X034494Y030275D01*
X034532Y030284D01*
X034571Y030289D01*
X034610Y030290D01*
X034648Y030287D01*
X034687Y030280D01*
X034724Y030270D01*
X034760Y030255D01*
X034795Y030238D01*
X034828Y030217D01*
X034858Y030192D01*
X034886Y030165D01*
X034911Y030135D01*
X034933Y030103D01*
X034951Y030069D01*
X034966Y030033D01*
X034978Y029996D01*
X034986Y029958D01*
X034990Y029919D01*
X034990Y029881D01*
X034986Y029842D01*
X034978Y029804D01*
X034966Y029767D01*
X034951Y029731D01*
X034933Y029697D01*
X034911Y029665D01*
X034886Y029635D01*
X034858Y029608D01*
X034828Y029583D01*
X034795Y029562D01*
X034760Y029545D01*
X034724Y029530D01*
X034687Y029520D01*
X034648Y029513D01*
X034610Y029510D01*
X034571Y029511D01*
X034532Y029516D01*
X034494Y029525D01*
X034458Y029537D01*
X034422Y029553D01*
X034388Y029572D01*
X034357Y029595D01*
X034328Y029621D01*
X034301Y029649D01*
X034278Y029680D01*
X034257Y029713D01*
X034241Y029749D01*
X034227Y029785D01*
X034218Y029823D01*
X034212Y029861D01*
X034210Y029900D01*
X034200Y029500D02*
X035000Y030300D01*
X034210Y030900D02*
X034212Y030939D01*
X034218Y030977D01*
X034227Y031015D01*
X034241Y031051D01*
X034257Y031087D01*
X034278Y031120D01*
X034301Y031151D01*
X034328Y031179D01*
X034357Y031205D01*
X034388Y031228D01*
X034422Y031247D01*
X034458Y031263D01*
X034494Y031275D01*
X034532Y031284D01*
X034571Y031289D01*
X034610Y031290D01*
X034648Y031287D01*
X034687Y031280D01*
X034724Y031270D01*
X034760Y031255D01*
X034795Y031238D01*
X034828Y031217D01*
X034858Y031192D01*
X034886Y031165D01*
X034911Y031135D01*
X034933Y031103D01*
X034951Y031069D01*
X034966Y031033D01*
X034978Y030996D01*
X034986Y030958D01*
X034990Y030919D01*
X034990Y030881D01*
X034986Y030842D01*
X034978Y030804D01*
X034966Y030767D01*
X034951Y030731D01*
X034933Y030697D01*
X034911Y030665D01*
X034886Y030635D01*
X034858Y030608D01*
X034828Y030583D01*
X034795Y030562D01*
X034760Y030545D01*
X034724Y030530D01*
X034687Y030520D01*
X034648Y030513D01*
X034610Y030510D01*
X034571Y030511D01*
X034532Y030516D01*
X034494Y030525D01*
X034458Y030537D01*
X034422Y030553D01*
X034388Y030572D01*
X034357Y030595D01*
X034328Y030621D01*
X034301Y030649D01*
X034278Y030680D01*
X034257Y030713D01*
X034241Y030749D01*
X034227Y030785D01*
X034218Y030823D01*
X034212Y030861D01*
X034210Y030900D01*
X034200Y030500D02*
X035000Y031300D01*
X036310Y030800D02*
X036312Y030839D01*
X036318Y030877D01*
X036327Y030915D01*
X036341Y030951D01*
X036357Y030987D01*
X036378Y031020D01*
X036401Y031051D01*
X036428Y031079D01*
X036457Y031105D01*
X036488Y031128D01*
X036522Y031147D01*
X036558Y031163D01*
X036594Y031175D01*
X036632Y031184D01*
X036671Y031189D01*
X036710Y031190D01*
X036748Y031187D01*
X036787Y031180D01*
X036824Y031170D01*
X036860Y031155D01*
X036895Y031138D01*
X036928Y031117D01*
X036958Y031092D01*
X036986Y031065D01*
X037011Y031035D01*
X037033Y031003D01*
X037051Y030969D01*
X037066Y030933D01*
X037078Y030896D01*
X037086Y030858D01*
X037090Y030819D01*
X037090Y030781D01*
X037086Y030742D01*
X037078Y030704D01*
X037066Y030667D01*
X037051Y030631D01*
X037033Y030597D01*
X037011Y030565D01*
X036986Y030535D01*
X036958Y030508D01*
X036928Y030483D01*
X036895Y030462D01*
X036860Y030445D01*
X036824Y030430D01*
X036787Y030420D01*
X036748Y030413D01*
X036710Y030410D01*
X036671Y030411D01*
X036632Y030416D01*
X036594Y030425D01*
X036558Y030437D01*
X036522Y030453D01*
X036488Y030472D01*
X036457Y030495D01*
X036428Y030521D01*
X036401Y030549D01*
X036378Y030580D01*
X036357Y030613D01*
X036341Y030649D01*
X036327Y030685D01*
X036318Y030723D01*
X036312Y030761D01*
X036310Y030800D01*
X036300Y030400D02*
X037100Y031200D01*
X036310Y030000D02*
X036312Y030039D01*
X036318Y030077D01*
X036327Y030115D01*
X036341Y030151D01*
X036357Y030187D01*
X036378Y030220D01*
X036401Y030251D01*
X036428Y030279D01*
X036457Y030305D01*
X036488Y030328D01*
X036522Y030347D01*
X036558Y030363D01*
X036594Y030375D01*
X036632Y030384D01*
X036671Y030389D01*
X036710Y030390D01*
X036748Y030387D01*
X036787Y030380D01*
X036824Y030370D01*
X036860Y030355D01*
X036895Y030338D01*
X036928Y030317D01*
X036958Y030292D01*
X036986Y030265D01*
X037011Y030235D01*
X037033Y030203D01*
X037051Y030169D01*
X037066Y030133D01*
X037078Y030096D01*
X037086Y030058D01*
X037090Y030019D01*
X037090Y029981D01*
X037086Y029942D01*
X037078Y029904D01*
X037066Y029867D01*
X037051Y029831D01*
X037033Y029797D01*
X037011Y029765D01*
X036986Y029735D01*
X036958Y029708D01*
X036928Y029683D01*
X036895Y029662D01*
X036860Y029645D01*
X036824Y029630D01*
X036787Y029620D01*
X036748Y029613D01*
X036710Y029610D01*
X036671Y029611D01*
X036632Y029616D01*
X036594Y029625D01*
X036558Y029637D01*
X036522Y029653D01*
X036488Y029672D01*
X036457Y029695D01*
X036428Y029721D01*
X036401Y029749D01*
X036378Y029780D01*
X036357Y029813D01*
X036341Y029849D01*
X036327Y029885D01*
X036318Y029923D01*
X036312Y029961D01*
X036310Y030000D01*
X036300Y029600D02*
X037100Y030400D01*
X036710Y028150D02*
X036712Y028189D01*
X036718Y028227D01*
X036727Y028265D01*
X036741Y028301D01*
X036757Y028337D01*
X036778Y028370D01*
X036801Y028401D01*
X036828Y028429D01*
X036857Y028455D01*
X036888Y028478D01*
X036922Y028497D01*
X036958Y028513D01*
X036994Y028525D01*
X037032Y028534D01*
X037071Y028539D01*
X037110Y028540D01*
X037148Y028537D01*
X037187Y028530D01*
X037224Y028520D01*
X037260Y028505D01*
X037295Y028488D01*
X037328Y028467D01*
X037358Y028442D01*
X037386Y028415D01*
X037411Y028385D01*
X037433Y028353D01*
X037451Y028319D01*
X037466Y028283D01*
X037478Y028246D01*
X037486Y028208D01*
X037490Y028169D01*
X037490Y028131D01*
X037486Y028092D01*
X037478Y028054D01*
X037466Y028017D01*
X037451Y027981D01*
X037433Y027947D01*
X037411Y027915D01*
X037386Y027885D01*
X037358Y027858D01*
X037328Y027833D01*
X037295Y027812D01*
X037260Y027795D01*
X037224Y027780D01*
X037187Y027770D01*
X037148Y027763D01*
X037110Y027760D01*
X037071Y027761D01*
X037032Y027766D01*
X036994Y027775D01*
X036958Y027787D01*
X036922Y027803D01*
X036888Y027822D01*
X036857Y027845D01*
X036828Y027871D01*
X036801Y027899D01*
X036778Y027930D01*
X036757Y027963D01*
X036741Y027999D01*
X036727Y028035D01*
X036718Y028073D01*
X036712Y028111D01*
X036710Y028150D01*
X036700Y027750D02*
X037500Y028550D01*
X036760Y027100D02*
X036762Y027139D01*
X036768Y027177D01*
X036777Y027215D01*
X036791Y027251D01*
X036807Y027287D01*
X036828Y027320D01*
X036851Y027351D01*
X036878Y027379D01*
X036907Y027405D01*
X036938Y027428D01*
X036972Y027447D01*
X037008Y027463D01*
X037044Y027475D01*
X037082Y027484D01*
X037121Y027489D01*
X037160Y027490D01*
X037198Y027487D01*
X037237Y027480D01*
X037274Y027470D01*
X037310Y027455D01*
X037345Y027438D01*
X037378Y027417D01*
X037408Y027392D01*
X037436Y027365D01*
X037461Y027335D01*
X037483Y027303D01*
X037501Y027269D01*
X037516Y027233D01*
X037528Y027196D01*
X037536Y027158D01*
X037540Y027119D01*
X037540Y027081D01*
X037536Y027042D01*
X037528Y027004D01*
X037516Y026967D01*
X037501Y026931D01*
X037483Y026897D01*
X037461Y026865D01*
X037436Y026835D01*
X037408Y026808D01*
X037378Y026783D01*
X037345Y026762D01*
X037310Y026745D01*
X037274Y026730D01*
X037237Y026720D01*
X037198Y026713D01*
X037160Y026710D01*
X037121Y026711D01*
X037082Y026716D01*
X037044Y026725D01*
X037008Y026737D01*
X036972Y026753D01*
X036938Y026772D01*
X036907Y026795D01*
X036878Y026821D01*
X036851Y026849D01*
X036828Y026880D01*
X036807Y026913D01*
X036791Y026949D01*
X036777Y026985D01*
X036768Y027023D01*
X036762Y027061D01*
X036760Y027100D01*
X036750Y026700D02*
X037550Y027500D01*
X038010Y026900D02*
X038012Y026939D01*
X038018Y026977D01*
X038027Y027015D01*
X038041Y027051D01*
X038057Y027087D01*
X038078Y027120D01*
X038101Y027151D01*
X038128Y027179D01*
X038157Y027205D01*
X038188Y027228D01*
X038222Y027247D01*
X038258Y027263D01*
X038294Y027275D01*
X038332Y027284D01*
X038371Y027289D01*
X038410Y027290D01*
X038448Y027287D01*
X038487Y027280D01*
X038524Y027270D01*
X038560Y027255D01*
X038595Y027238D01*
X038628Y027217D01*
X038658Y027192D01*
X038686Y027165D01*
X038711Y027135D01*
X038733Y027103D01*
X038751Y027069D01*
X038766Y027033D01*
X038778Y026996D01*
X038786Y026958D01*
X038790Y026919D01*
X038790Y026881D01*
X038786Y026842D01*
X038778Y026804D01*
X038766Y026767D01*
X038751Y026731D01*
X038733Y026697D01*
X038711Y026665D01*
X038686Y026635D01*
X038658Y026608D01*
X038628Y026583D01*
X038595Y026562D01*
X038560Y026545D01*
X038524Y026530D01*
X038487Y026520D01*
X038448Y026513D01*
X038410Y026510D01*
X038371Y026511D01*
X038332Y026516D01*
X038294Y026525D01*
X038258Y026537D01*
X038222Y026553D01*
X038188Y026572D01*
X038157Y026595D01*
X038128Y026621D01*
X038101Y026649D01*
X038078Y026680D01*
X038057Y026713D01*
X038041Y026749D01*
X038027Y026785D01*
X038018Y026823D01*
X038012Y026861D01*
X038010Y026900D01*
X038000Y026500D02*
X038800Y027300D01*
X038010Y025900D02*
X038012Y025939D01*
X038018Y025977D01*
X038027Y026015D01*
X038041Y026051D01*
X038057Y026087D01*
X038078Y026120D01*
X038101Y026151D01*
X038128Y026179D01*
X038157Y026205D01*
X038188Y026228D01*
X038222Y026247D01*
X038258Y026263D01*
X038294Y026275D01*
X038332Y026284D01*
X038371Y026289D01*
X038410Y026290D01*
X038448Y026287D01*
X038487Y026280D01*
X038524Y026270D01*
X038560Y026255D01*
X038595Y026238D01*
X038628Y026217D01*
X038658Y026192D01*
X038686Y026165D01*
X038711Y026135D01*
X038733Y026103D01*
X038751Y026069D01*
X038766Y026033D01*
X038778Y025996D01*
X038786Y025958D01*
X038790Y025919D01*
X038790Y025881D01*
X038786Y025842D01*
X038778Y025804D01*
X038766Y025767D01*
X038751Y025731D01*
X038733Y025697D01*
X038711Y025665D01*
X038686Y025635D01*
X038658Y025608D01*
X038628Y025583D01*
X038595Y025562D01*
X038560Y025545D01*
X038524Y025530D01*
X038487Y025520D01*
X038448Y025513D01*
X038410Y025510D01*
X038371Y025511D01*
X038332Y025516D01*
X038294Y025525D01*
X038258Y025537D01*
X038222Y025553D01*
X038188Y025572D01*
X038157Y025595D01*
X038128Y025621D01*
X038101Y025649D01*
X038078Y025680D01*
X038057Y025713D01*
X038041Y025749D01*
X038027Y025785D01*
X038018Y025823D01*
X038012Y025861D01*
X038010Y025900D01*
X038000Y025500D02*
X038800Y026300D01*
X038010Y024900D02*
X038012Y024939D01*
X038018Y024977D01*
X038027Y025015D01*
X038041Y025051D01*
X038057Y025087D01*
X038078Y025120D01*
X038101Y025151D01*
X038128Y025179D01*
X038157Y025205D01*
X038188Y025228D01*
X038222Y025247D01*
X038258Y025263D01*
X038294Y025275D01*
X038332Y025284D01*
X038371Y025289D01*
X038410Y025290D01*
X038448Y025287D01*
X038487Y025280D01*
X038524Y025270D01*
X038560Y025255D01*
X038595Y025238D01*
X038628Y025217D01*
X038658Y025192D01*
X038686Y025165D01*
X038711Y025135D01*
X038733Y025103D01*
X038751Y025069D01*
X038766Y025033D01*
X038778Y024996D01*
X038786Y024958D01*
X038790Y024919D01*
X038790Y024881D01*
X038786Y024842D01*
X038778Y024804D01*
X038766Y024767D01*
X038751Y024731D01*
X038733Y024697D01*
X038711Y024665D01*
X038686Y024635D01*
X038658Y024608D01*
X038628Y024583D01*
X038595Y024562D01*
X038560Y024545D01*
X038524Y024530D01*
X038487Y024520D01*
X038448Y024513D01*
X038410Y024510D01*
X038371Y024511D01*
X038332Y024516D01*
X038294Y024525D01*
X038258Y024537D01*
X038222Y024553D01*
X038188Y024572D01*
X038157Y024595D01*
X038128Y024621D01*
X038101Y024649D01*
X038078Y024680D01*
X038057Y024713D01*
X038041Y024749D01*
X038027Y024785D01*
X038018Y024823D01*
X038012Y024861D01*
X038010Y024900D01*
X038000Y024500D02*
X038800Y025300D01*
X038010Y023900D02*
X038012Y023939D01*
X038018Y023977D01*
X038027Y024015D01*
X038041Y024051D01*
X038057Y024087D01*
X038078Y024120D01*
X038101Y024151D01*
X038128Y024179D01*
X038157Y024205D01*
X038188Y024228D01*
X038222Y024247D01*
X038258Y024263D01*
X038294Y024275D01*
X038332Y024284D01*
X038371Y024289D01*
X038410Y024290D01*
X038448Y024287D01*
X038487Y024280D01*
X038524Y024270D01*
X038560Y024255D01*
X038595Y024238D01*
X038628Y024217D01*
X038658Y024192D01*
X038686Y024165D01*
X038711Y024135D01*
X038733Y024103D01*
X038751Y024069D01*
X038766Y024033D01*
X038778Y023996D01*
X038786Y023958D01*
X038790Y023919D01*
X038790Y023881D01*
X038786Y023842D01*
X038778Y023804D01*
X038766Y023767D01*
X038751Y023731D01*
X038733Y023697D01*
X038711Y023665D01*
X038686Y023635D01*
X038658Y023608D01*
X038628Y023583D01*
X038595Y023562D01*
X038560Y023545D01*
X038524Y023530D01*
X038487Y023520D01*
X038448Y023513D01*
X038410Y023510D01*
X038371Y023511D01*
X038332Y023516D01*
X038294Y023525D01*
X038258Y023537D01*
X038222Y023553D01*
X038188Y023572D01*
X038157Y023595D01*
X038128Y023621D01*
X038101Y023649D01*
X038078Y023680D01*
X038057Y023713D01*
X038041Y023749D01*
X038027Y023785D01*
X038018Y023823D01*
X038012Y023861D01*
X038010Y023900D01*
X038000Y023500D02*
X038800Y024300D01*
X036500Y023750D02*
X036500Y023350D01*
X036500Y023750D02*
X036900Y023750D01*
X036900Y022950D01*
X036100Y022950D01*
X036100Y023750D01*
X036500Y023750D01*
X036500Y023350D01*
X036500Y023750D02*
X036900Y023750D01*
X036900Y022950D01*
X036100Y022950D01*
X036100Y023750D01*
X036500Y023750D01*
X033760Y027100D02*
X033762Y027139D01*
X033768Y027177D01*
X033777Y027215D01*
X033791Y027251D01*
X033807Y027287D01*
X033828Y027320D01*
X033851Y027351D01*
X033878Y027379D01*
X033907Y027405D01*
X033938Y027428D01*
X033972Y027447D01*
X034008Y027463D01*
X034044Y027475D01*
X034082Y027484D01*
X034121Y027489D01*
X034160Y027490D01*
X034198Y027487D01*
X034237Y027480D01*
X034274Y027470D01*
X034310Y027455D01*
X034345Y027438D01*
X034378Y027417D01*
X034408Y027392D01*
X034436Y027365D01*
X034461Y027335D01*
X034483Y027303D01*
X034501Y027269D01*
X034516Y027233D01*
X034528Y027196D01*
X034536Y027158D01*
X034540Y027119D01*
X034540Y027081D01*
X034536Y027042D01*
X034528Y027004D01*
X034516Y026967D01*
X034501Y026931D01*
X034483Y026897D01*
X034461Y026865D01*
X034436Y026835D01*
X034408Y026808D01*
X034378Y026783D01*
X034345Y026762D01*
X034310Y026745D01*
X034274Y026730D01*
X034237Y026720D01*
X034198Y026713D01*
X034160Y026710D01*
X034121Y026711D01*
X034082Y026716D01*
X034044Y026725D01*
X034008Y026737D01*
X033972Y026753D01*
X033938Y026772D01*
X033907Y026795D01*
X033878Y026821D01*
X033851Y026849D01*
X033828Y026880D01*
X033807Y026913D01*
X033791Y026949D01*
X033777Y026985D01*
X033768Y027023D01*
X033762Y027061D01*
X033760Y027100D01*
X033750Y026700D02*
X034550Y027500D01*
X032310Y029900D02*
X032312Y029939D01*
X032318Y029977D01*
X032327Y030015D01*
X032341Y030051D01*
X032357Y030087D01*
X032378Y030120D01*
X032401Y030151D01*
X032428Y030179D01*
X032457Y030205D01*
X032488Y030228D01*
X032522Y030247D01*
X032558Y030263D01*
X032594Y030275D01*
X032632Y030284D01*
X032671Y030289D01*
X032710Y030290D01*
X032748Y030287D01*
X032787Y030280D01*
X032824Y030270D01*
X032860Y030255D01*
X032895Y030238D01*
X032928Y030217D01*
X032958Y030192D01*
X032986Y030165D01*
X033011Y030135D01*
X033033Y030103D01*
X033051Y030069D01*
X033066Y030033D01*
X033078Y029996D01*
X033086Y029958D01*
X033090Y029919D01*
X033090Y029881D01*
X033086Y029842D01*
X033078Y029804D01*
X033066Y029767D01*
X033051Y029731D01*
X033033Y029697D01*
X033011Y029665D01*
X032986Y029635D01*
X032958Y029608D01*
X032928Y029583D01*
X032895Y029562D01*
X032860Y029545D01*
X032824Y029530D01*
X032787Y029520D01*
X032748Y029513D01*
X032710Y029510D01*
X032671Y029511D01*
X032632Y029516D01*
X032594Y029525D01*
X032558Y029537D01*
X032522Y029553D01*
X032488Y029572D01*
X032457Y029595D01*
X032428Y029621D01*
X032401Y029649D01*
X032378Y029680D01*
X032357Y029713D01*
X032341Y029749D01*
X032327Y029785D01*
X032318Y029823D01*
X032312Y029861D01*
X032310Y029900D01*
X032300Y029500D02*
X033100Y030300D01*
X032310Y030900D02*
X032312Y030939D01*
X032318Y030977D01*
X032327Y031015D01*
X032341Y031051D01*
X032357Y031087D01*
X032378Y031120D01*
X032401Y031151D01*
X032428Y031179D01*
X032457Y031205D01*
X032488Y031228D01*
X032522Y031247D01*
X032558Y031263D01*
X032594Y031275D01*
X032632Y031284D01*
X032671Y031289D01*
X032710Y031290D01*
X032748Y031287D01*
X032787Y031280D01*
X032824Y031270D01*
X032860Y031255D01*
X032895Y031238D01*
X032928Y031217D01*
X032958Y031192D01*
X032986Y031165D01*
X033011Y031135D01*
X033033Y031103D01*
X033051Y031069D01*
X033066Y031033D01*
X033078Y030996D01*
X033086Y030958D01*
X033090Y030919D01*
X033090Y030881D01*
X033086Y030842D01*
X033078Y030804D01*
X033066Y030767D01*
X033051Y030731D01*
X033033Y030697D01*
X033011Y030665D01*
X032986Y030635D01*
X032958Y030608D01*
X032928Y030583D01*
X032895Y030562D01*
X032860Y030545D01*
X032824Y030530D01*
X032787Y030520D01*
X032748Y030513D01*
X032710Y030510D01*
X032671Y030511D01*
X032632Y030516D01*
X032594Y030525D01*
X032558Y030537D01*
X032522Y030553D01*
X032488Y030572D01*
X032457Y030595D01*
X032428Y030621D01*
X032401Y030649D01*
X032378Y030680D01*
X032357Y030713D01*
X032341Y030749D01*
X032327Y030785D01*
X032318Y030823D01*
X032312Y030861D01*
X032310Y030900D01*
X032300Y030500D02*
X033100Y031300D01*
X038041Y032831D02*
X038043Y032870D01*
X038049Y032908D01*
X038058Y032946D01*
X038072Y032982D01*
X038088Y033018D01*
X038109Y033051D01*
X038132Y033082D01*
X038159Y033110D01*
X038188Y033136D01*
X038219Y033159D01*
X038253Y033178D01*
X038289Y033194D01*
X038325Y033206D01*
X038363Y033215D01*
X038402Y033220D01*
X038441Y033221D01*
X038479Y033218D01*
X038518Y033211D01*
X038555Y033201D01*
X038591Y033186D01*
X038626Y033169D01*
X038659Y033148D01*
X038689Y033123D01*
X038717Y033096D01*
X038742Y033066D01*
X038764Y033034D01*
X038782Y033000D01*
X038797Y032964D01*
X038809Y032927D01*
X038817Y032889D01*
X038821Y032850D01*
X038821Y032812D01*
X038817Y032773D01*
X038809Y032735D01*
X038797Y032698D01*
X038782Y032662D01*
X038764Y032628D01*
X038742Y032596D01*
X038717Y032566D01*
X038689Y032539D01*
X038659Y032514D01*
X038626Y032493D01*
X038591Y032476D01*
X038555Y032461D01*
X038518Y032451D01*
X038479Y032444D01*
X038441Y032441D01*
X038402Y032442D01*
X038363Y032447D01*
X038325Y032456D01*
X038289Y032468D01*
X038253Y032484D01*
X038219Y032503D01*
X038188Y032526D01*
X038159Y032552D01*
X038132Y032580D01*
X038109Y032611D01*
X038088Y032644D01*
X038072Y032680D01*
X038058Y032716D01*
X038049Y032754D01*
X038043Y032792D01*
X038041Y032831D01*
X038031Y032431D02*
X038831Y033231D01*
X030200Y014400D02*
X030200Y014000D01*
X030200Y014400D02*
X030600Y014000D01*
X030200Y013600D01*
X029800Y014000D01*
X030200Y014400D01*
X030200Y013100D02*
X030200Y012700D01*
X030200Y013100D02*
X030600Y012700D01*
X030200Y012300D01*
X029800Y012700D01*
X030200Y013100D01*
X030110Y010400D02*
X030112Y010439D01*
X030118Y010477D01*
X030127Y010515D01*
X030141Y010551D01*
X030157Y010587D01*
X030178Y010620D01*
X030201Y010651D01*
X030228Y010679D01*
X030257Y010705D01*
X030288Y010728D01*
X030322Y010747D01*
X030358Y010763D01*
X030394Y010775D01*
X030432Y010784D01*
X030471Y010789D01*
X030510Y010790D01*
X030548Y010787D01*
X030587Y010780D01*
X030624Y010770D01*
X030660Y010755D01*
X030695Y010738D01*
X030728Y010717D01*
X030758Y010692D01*
X030786Y010665D01*
X030811Y010635D01*
X030833Y010603D01*
X030851Y010569D01*
X030866Y010533D01*
X030878Y010496D01*
X030886Y010458D01*
X030890Y010419D01*
X030890Y010381D01*
X030886Y010342D01*
X030878Y010304D01*
X030866Y010267D01*
X030851Y010231D01*
X030833Y010197D01*
X030811Y010165D01*
X030786Y010135D01*
X030758Y010108D01*
X030728Y010083D01*
X030695Y010062D01*
X030660Y010045D01*
X030624Y010030D01*
X030587Y010020D01*
X030548Y010013D01*
X030510Y010010D01*
X030471Y010011D01*
X030432Y010016D01*
X030394Y010025D01*
X030358Y010037D01*
X030322Y010053D01*
X030288Y010072D01*
X030257Y010095D01*
X030228Y010121D01*
X030201Y010149D01*
X030178Y010180D01*
X030157Y010213D01*
X030141Y010249D01*
X030127Y010285D01*
X030118Y010323D01*
X030112Y010361D01*
X030110Y010400D01*
X030100Y010000D02*
X030900Y010800D01*
X032100Y010100D02*
X032900Y010900D01*
X032900Y010100D01*
X032100Y010900D01*
X032100Y010100D01*
X033100Y010100D02*
X033900Y010900D01*
X033900Y010100D01*
X033100Y010900D01*
X033100Y010100D01*
X032210Y008100D02*
X032212Y008139D01*
X032218Y008177D01*
X032227Y008215D01*
X032241Y008251D01*
X032257Y008287D01*
X032278Y008320D01*
X032301Y008351D01*
X032328Y008379D01*
X032357Y008405D01*
X032388Y008428D01*
X032422Y008447D01*
X032458Y008463D01*
X032494Y008475D01*
X032532Y008484D01*
X032571Y008489D01*
X032610Y008490D01*
X032648Y008487D01*
X032687Y008480D01*
X032724Y008470D01*
X032760Y008455D01*
X032795Y008438D01*
X032828Y008417D01*
X032858Y008392D01*
X032886Y008365D01*
X032911Y008335D01*
X032933Y008303D01*
X032951Y008269D01*
X032966Y008233D01*
X032978Y008196D01*
X032986Y008158D01*
X032990Y008119D01*
X032990Y008081D01*
X032986Y008042D01*
X032978Y008004D01*
X032966Y007967D01*
X032951Y007931D01*
X032933Y007897D01*
X032911Y007865D01*
X032886Y007835D01*
X032858Y007808D01*
X032828Y007783D01*
X032795Y007762D01*
X032760Y007745D01*
X032724Y007730D01*
X032687Y007720D01*
X032648Y007713D01*
X032610Y007710D01*
X032571Y007711D01*
X032532Y007716D01*
X032494Y007725D01*
X032458Y007737D01*
X032422Y007753D01*
X032388Y007772D01*
X032357Y007795D01*
X032328Y007821D01*
X032301Y007849D01*
X032278Y007880D01*
X032257Y007913D01*
X032241Y007949D01*
X032227Y007985D01*
X032218Y008023D01*
X032212Y008061D01*
X032210Y008100D01*
X032200Y007700D02*
X033000Y008500D01*
X032210Y007100D02*
X032212Y007139D01*
X032218Y007177D01*
X032227Y007215D01*
X032241Y007251D01*
X032257Y007287D01*
X032278Y007320D01*
X032301Y007351D01*
X032328Y007379D01*
X032357Y007405D01*
X032388Y007428D01*
X032422Y007447D01*
X032458Y007463D01*
X032494Y007475D01*
X032532Y007484D01*
X032571Y007489D01*
X032610Y007490D01*
X032648Y007487D01*
X032687Y007480D01*
X032724Y007470D01*
X032760Y007455D01*
X032795Y007438D01*
X032828Y007417D01*
X032858Y007392D01*
X032886Y007365D01*
X032911Y007335D01*
X032933Y007303D01*
X032951Y007269D01*
X032966Y007233D01*
X032978Y007196D01*
X032986Y007158D01*
X032990Y007119D01*
X032990Y007081D01*
X032986Y007042D01*
X032978Y007004D01*
X032966Y006967D01*
X032951Y006931D01*
X032933Y006897D01*
X032911Y006865D01*
X032886Y006835D01*
X032858Y006808D01*
X032828Y006783D01*
X032795Y006762D01*
X032760Y006745D01*
X032724Y006730D01*
X032687Y006720D01*
X032648Y006713D01*
X032610Y006710D01*
X032571Y006711D01*
X032532Y006716D01*
X032494Y006725D01*
X032458Y006737D01*
X032422Y006753D01*
X032388Y006772D01*
X032357Y006795D01*
X032328Y006821D01*
X032301Y006849D01*
X032278Y006880D01*
X032257Y006913D01*
X032241Y006949D01*
X032227Y006985D01*
X032218Y007023D01*
X032212Y007061D01*
X032210Y007100D01*
X032200Y006700D02*
X033000Y007500D01*
X032210Y006100D02*
X032212Y006139D01*
X032218Y006177D01*
X032227Y006215D01*
X032241Y006251D01*
X032257Y006287D01*
X032278Y006320D01*
X032301Y006351D01*
X032328Y006379D01*
X032357Y006405D01*
X032388Y006428D01*
X032422Y006447D01*
X032458Y006463D01*
X032494Y006475D01*
X032532Y006484D01*
X032571Y006489D01*
X032610Y006490D01*
X032648Y006487D01*
X032687Y006480D01*
X032724Y006470D01*
X032760Y006455D01*
X032795Y006438D01*
X032828Y006417D01*
X032858Y006392D01*
X032886Y006365D01*
X032911Y006335D01*
X032933Y006303D01*
X032951Y006269D01*
X032966Y006233D01*
X032978Y006196D01*
X032986Y006158D01*
X032990Y006119D01*
X032990Y006081D01*
X032986Y006042D01*
X032978Y006004D01*
X032966Y005967D01*
X032951Y005931D01*
X032933Y005897D01*
X032911Y005865D01*
X032886Y005835D01*
X032858Y005808D01*
X032828Y005783D01*
X032795Y005762D01*
X032760Y005745D01*
X032724Y005730D01*
X032687Y005720D01*
X032648Y005713D01*
X032610Y005710D01*
X032571Y005711D01*
X032532Y005716D01*
X032494Y005725D01*
X032458Y005737D01*
X032422Y005753D01*
X032388Y005772D01*
X032357Y005795D01*
X032328Y005821D01*
X032301Y005849D01*
X032278Y005880D01*
X032257Y005913D01*
X032241Y005949D01*
X032227Y005985D01*
X032218Y006023D01*
X032212Y006061D01*
X032210Y006100D01*
X032200Y005700D02*
X033000Y006500D01*
X032210Y005100D02*
X032212Y005139D01*
X032218Y005177D01*
X032227Y005215D01*
X032241Y005251D01*
X032257Y005287D01*
X032278Y005320D01*
X032301Y005351D01*
X032328Y005379D01*
X032357Y005405D01*
X032388Y005428D01*
X032422Y005447D01*
X032458Y005463D01*
X032494Y005475D01*
X032532Y005484D01*
X032571Y005489D01*
X032610Y005490D01*
X032648Y005487D01*
X032687Y005480D01*
X032724Y005470D01*
X032760Y005455D01*
X032795Y005438D01*
X032828Y005417D01*
X032858Y005392D01*
X032886Y005365D01*
X032911Y005335D01*
X032933Y005303D01*
X032951Y005269D01*
X032966Y005233D01*
X032978Y005196D01*
X032986Y005158D01*
X032990Y005119D01*
X032990Y005081D01*
X032986Y005042D01*
X032978Y005004D01*
X032966Y004967D01*
X032951Y004931D01*
X032933Y004897D01*
X032911Y004865D01*
X032886Y004835D01*
X032858Y004808D01*
X032828Y004783D01*
X032795Y004762D01*
X032760Y004745D01*
X032724Y004730D01*
X032687Y004720D01*
X032648Y004713D01*
X032610Y004710D01*
X032571Y004711D01*
X032532Y004716D01*
X032494Y004725D01*
X032458Y004737D01*
X032422Y004753D01*
X032388Y004772D01*
X032357Y004795D01*
X032328Y004821D01*
X032301Y004849D01*
X032278Y004880D01*
X032257Y004913D01*
X032241Y004949D01*
X032227Y004985D01*
X032218Y005023D01*
X032212Y005061D01*
X032210Y005100D01*
X032200Y004700D02*
X033000Y005500D01*
X035210Y005100D02*
X035212Y005139D01*
X035218Y005177D01*
X035227Y005215D01*
X035241Y005251D01*
X035257Y005287D01*
X035278Y005320D01*
X035301Y005351D01*
X035328Y005379D01*
X035357Y005405D01*
X035388Y005428D01*
X035422Y005447D01*
X035458Y005463D01*
X035494Y005475D01*
X035532Y005484D01*
X035571Y005489D01*
X035610Y005490D01*
X035648Y005487D01*
X035687Y005480D01*
X035724Y005470D01*
X035760Y005455D01*
X035795Y005438D01*
X035828Y005417D01*
X035858Y005392D01*
X035886Y005365D01*
X035911Y005335D01*
X035933Y005303D01*
X035951Y005269D01*
X035966Y005233D01*
X035978Y005196D01*
X035986Y005158D01*
X035990Y005119D01*
X035990Y005081D01*
X035986Y005042D01*
X035978Y005004D01*
X035966Y004967D01*
X035951Y004931D01*
X035933Y004897D01*
X035911Y004865D01*
X035886Y004835D01*
X035858Y004808D01*
X035828Y004783D01*
X035795Y004762D01*
X035760Y004745D01*
X035724Y004730D01*
X035687Y004720D01*
X035648Y004713D01*
X035610Y004710D01*
X035571Y004711D01*
X035532Y004716D01*
X035494Y004725D01*
X035458Y004737D01*
X035422Y004753D01*
X035388Y004772D01*
X035357Y004795D01*
X035328Y004821D01*
X035301Y004849D01*
X035278Y004880D01*
X035257Y004913D01*
X035241Y004949D01*
X035227Y004985D01*
X035218Y005023D01*
X035212Y005061D01*
X035210Y005100D01*
X035200Y004700D02*
X036000Y005500D01*
X035210Y006100D02*
X035212Y006139D01*
X035218Y006177D01*
X035227Y006215D01*
X035241Y006251D01*
X035257Y006287D01*
X035278Y006320D01*
X035301Y006351D01*
X035328Y006379D01*
X035357Y006405D01*
X035388Y006428D01*
X035422Y006447D01*
X035458Y006463D01*
X035494Y006475D01*
X035532Y006484D01*
X035571Y006489D01*
X035610Y006490D01*
X035648Y006487D01*
X035687Y006480D01*
X035724Y006470D01*
X035760Y006455D01*
X035795Y006438D01*
X035828Y006417D01*
X035858Y006392D01*
X035886Y006365D01*
X035911Y006335D01*
X035933Y006303D01*
X035951Y006269D01*
X035966Y006233D01*
X035978Y006196D01*
X035986Y006158D01*
X035990Y006119D01*
X035990Y006081D01*
X035986Y006042D01*
X035978Y006004D01*
X035966Y005967D01*
X035951Y005931D01*
X035933Y005897D01*
X035911Y005865D01*
X035886Y005835D01*
X035858Y005808D01*
X035828Y005783D01*
X035795Y005762D01*
X035760Y005745D01*
X035724Y005730D01*
X035687Y005720D01*
X035648Y005713D01*
X035610Y005710D01*
X035571Y005711D01*
X035532Y005716D01*
X035494Y005725D01*
X035458Y005737D01*
X035422Y005753D01*
X035388Y005772D01*
X035357Y005795D01*
X035328Y005821D01*
X035301Y005849D01*
X035278Y005880D01*
X035257Y005913D01*
X035241Y005949D01*
X035227Y005985D01*
X035218Y006023D01*
X035212Y006061D01*
X035210Y006100D01*
X035200Y005700D02*
X036000Y006500D01*
X035210Y007100D02*
X035212Y007139D01*
X035218Y007177D01*
X035227Y007215D01*
X035241Y007251D01*
X035257Y007287D01*
X035278Y007320D01*
X035301Y007351D01*
X035328Y007379D01*
X035357Y007405D01*
X035388Y007428D01*
X035422Y007447D01*
X035458Y007463D01*
X035494Y007475D01*
X035532Y007484D01*
X035571Y007489D01*
X035610Y007490D01*
X035648Y007487D01*
X035687Y007480D01*
X035724Y007470D01*
X035760Y007455D01*
X035795Y007438D01*
X035828Y007417D01*
X035858Y007392D01*
X035886Y007365D01*
X035911Y007335D01*
X035933Y007303D01*
X035951Y007269D01*
X035966Y007233D01*
X035978Y007196D01*
X035986Y007158D01*
X035990Y007119D01*
X035990Y007081D01*
X035986Y007042D01*
X035978Y007004D01*
X035966Y006967D01*
X035951Y006931D01*
X035933Y006897D01*
X035911Y006865D01*
X035886Y006835D01*
X035858Y006808D01*
X035828Y006783D01*
X035795Y006762D01*
X035760Y006745D01*
X035724Y006730D01*
X035687Y006720D01*
X035648Y006713D01*
X035610Y006710D01*
X035571Y006711D01*
X035532Y006716D01*
X035494Y006725D01*
X035458Y006737D01*
X035422Y006753D01*
X035388Y006772D01*
X035357Y006795D01*
X035328Y006821D01*
X035301Y006849D01*
X035278Y006880D01*
X035257Y006913D01*
X035241Y006949D01*
X035227Y006985D01*
X035218Y007023D01*
X035212Y007061D01*
X035210Y007100D01*
X035200Y006700D02*
X036000Y007500D01*
X035210Y008100D02*
X035212Y008139D01*
X035218Y008177D01*
X035227Y008215D01*
X035241Y008251D01*
X035257Y008287D01*
X035278Y008320D01*
X035301Y008351D01*
X035328Y008379D01*
X035357Y008405D01*
X035388Y008428D01*
X035422Y008447D01*
X035458Y008463D01*
X035494Y008475D01*
X035532Y008484D01*
X035571Y008489D01*
X035610Y008490D01*
X035648Y008487D01*
X035687Y008480D01*
X035724Y008470D01*
X035760Y008455D01*
X035795Y008438D01*
X035828Y008417D01*
X035858Y008392D01*
X035886Y008365D01*
X035911Y008335D01*
X035933Y008303D01*
X035951Y008269D01*
X035966Y008233D01*
X035978Y008196D01*
X035986Y008158D01*
X035990Y008119D01*
X035990Y008081D01*
X035986Y008042D01*
X035978Y008004D01*
X035966Y007967D01*
X035951Y007931D01*
X035933Y007897D01*
X035911Y007865D01*
X035886Y007835D01*
X035858Y007808D01*
X035828Y007783D01*
X035795Y007762D01*
X035760Y007745D01*
X035724Y007730D01*
X035687Y007720D01*
X035648Y007713D01*
X035610Y007710D01*
X035571Y007711D01*
X035532Y007716D01*
X035494Y007725D01*
X035458Y007737D01*
X035422Y007753D01*
X035388Y007772D01*
X035357Y007795D01*
X035328Y007821D01*
X035301Y007849D01*
X035278Y007880D01*
X035257Y007913D01*
X035241Y007949D01*
X035227Y007985D01*
X035218Y008023D01*
X035212Y008061D01*
X035210Y008100D01*
X035200Y007700D02*
X036000Y008500D01*
X037500Y008600D02*
X037500Y009000D01*
X037900Y008600D01*
X037500Y008200D01*
X037100Y008600D01*
X037500Y009000D01*
X036300Y010100D02*
X037100Y010900D01*
X037100Y010100D01*
X036300Y010900D01*
X036300Y010100D01*
X036100Y010900D02*
X035300Y010100D01*
X036100Y010100D02*
X036100Y010900D01*
X036100Y010100D02*
X035300Y010900D01*
X035300Y010100D01*
X037300Y012500D02*
X037300Y012900D01*
X037700Y012500D01*
X037300Y012100D01*
X036900Y012500D01*
X037300Y012900D01*
X030210Y008700D02*
X030212Y008739D01*
X030218Y008777D01*
X030227Y008815D01*
X030241Y008851D01*
X030257Y008887D01*
X030278Y008920D01*
X030301Y008951D01*
X030328Y008979D01*
X030357Y009005D01*
X030388Y009028D01*
X030422Y009047D01*
X030458Y009063D01*
X030494Y009075D01*
X030532Y009084D01*
X030571Y009089D01*
X030610Y009090D01*
X030648Y009087D01*
X030687Y009080D01*
X030724Y009070D01*
X030760Y009055D01*
X030795Y009038D01*
X030828Y009017D01*
X030858Y008992D01*
X030886Y008965D01*
X030911Y008935D01*
X030933Y008903D01*
X030951Y008869D01*
X030966Y008833D01*
X030978Y008796D01*
X030986Y008758D01*
X030990Y008719D01*
X030990Y008681D01*
X030986Y008642D01*
X030978Y008604D01*
X030966Y008567D01*
X030951Y008531D01*
X030933Y008497D01*
X030911Y008465D01*
X030886Y008435D01*
X030858Y008408D01*
X030828Y008383D01*
X030795Y008362D01*
X030760Y008345D01*
X030724Y008330D01*
X030687Y008320D01*
X030648Y008313D01*
X030610Y008310D01*
X030571Y008311D01*
X030532Y008316D01*
X030494Y008325D01*
X030458Y008337D01*
X030422Y008353D01*
X030388Y008372D01*
X030357Y008395D01*
X030328Y008421D01*
X030301Y008449D01*
X030278Y008480D01*
X030257Y008513D01*
X030241Y008549D01*
X030227Y008585D01*
X030218Y008623D01*
X030212Y008661D01*
X030210Y008700D01*
X030200Y008300D02*
X031000Y009100D01*
X030600Y007300D02*
X030600Y006900D01*
X030600Y007300D02*
X031000Y006900D01*
X030600Y006500D01*
X030200Y006900D01*
X030600Y007300D01*
X030600Y005600D02*
X030600Y005200D01*
X030600Y005600D02*
X031000Y005200D01*
X030600Y004800D01*
X030200Y005200D01*
X030600Y005600D01*
X026600Y005600D02*
X026600Y005200D01*
X026600Y005600D02*
X027000Y005200D01*
X026600Y004800D01*
X026200Y005200D01*
X026600Y005600D01*
X026600Y006900D02*
X026600Y007300D01*
X027000Y006900D01*
X026600Y006500D01*
X026200Y006900D01*
X026600Y007300D01*
X023400Y007400D02*
X022600Y006600D01*
X023400Y006600D02*
X023400Y007400D01*
X023400Y006600D02*
X022600Y007400D01*
X022600Y006600D01*
X037500Y005000D02*
X037500Y004600D01*
X037500Y005000D02*
X037900Y004600D01*
X037500Y004200D01*
X037100Y004600D01*
X037500Y005000D01*
X037961Y001712D02*
X037963Y001751D01*
X037969Y001789D01*
X037978Y001827D01*
X037992Y001863D01*
X038008Y001899D01*
X038029Y001932D01*
X038052Y001963D01*
X038079Y001991D01*
X038108Y002017D01*
X038139Y002040D01*
X038173Y002059D01*
X038209Y002075D01*
X038245Y002087D01*
X038283Y002096D01*
X038322Y002101D01*
X038361Y002102D01*
X038399Y002099D01*
X038438Y002092D01*
X038475Y002082D01*
X038511Y002067D01*
X038546Y002050D01*
X038579Y002029D01*
X038609Y002004D01*
X038637Y001977D01*
X038662Y001947D01*
X038684Y001915D01*
X038702Y001881D01*
X038717Y001845D01*
X038729Y001808D01*
X038737Y001770D01*
X038741Y001731D01*
X038741Y001693D01*
X038737Y001654D01*
X038729Y001616D01*
X038717Y001579D01*
X038702Y001543D01*
X038684Y001509D01*
X038662Y001477D01*
X038637Y001447D01*
X038609Y001420D01*
X038579Y001395D01*
X038546Y001374D01*
X038511Y001357D01*
X038475Y001342D01*
X038438Y001332D01*
X038399Y001325D01*
X038361Y001322D01*
X038322Y001323D01*
X038283Y001328D01*
X038245Y001337D01*
X038209Y001349D01*
X038173Y001365D01*
X038139Y001384D01*
X038108Y001407D01*
X038079Y001433D01*
X038052Y001461D01*
X038029Y001492D01*
X038008Y001525D01*
X037992Y001561D01*
X037978Y001597D01*
X037969Y001635D01*
X037963Y001673D01*
X037961Y001712D01*
X037951Y001312D02*
X038751Y002112D01*
M02*
