%
M48
M72
T01C0.0236
T02C0.0276
T03C0.0360
T04C0.0362
T05C0.0906
%
T01
X1717Y24626
X11417Y30126
T02
X11917Y13126
X10917Y11626
X12917Y9126
X12917Y9126
X12917Y7126
T03
X14417Y7126
X14417Y8126
X14417Y9126
X14417Y10126
X14417Y11126
X14417Y12126
X14417Y13126
X14417Y14126
X14417Y17126
X14417Y18126
X14417Y19126
X14417Y20126
X14417Y21126
X14417Y22126
X14417Y23126
X14417Y24126
X14417Y25126
X14417Y26126
X14417Y27126
X14417Y28126
X14417Y29126
X14417Y30126
X1417Y19626
X1417Y18626
X14417Y6126
X14417Y5126
X14417Y4126
X14417Y3126
X14417Y2126
X14417Y1126
T04
X6125Y2216
X6125Y2216
X6125Y3200
X6121Y3200
X6125Y3988
X6125Y3988
X6125Y4972
X6125Y4972
T05
X5141Y988
X5141Y6185
M30
