%
M48
M72
T01C0.0315
T02C0.0320
T03C0.0360
T04C0.0512
T05C0.0591
T06C0.1181
%
T01
X15220Y4185
X16220Y4185
X17220Y4185
X20260Y4224
X21260Y4224
X22260Y4224
T02
X14098Y8701
X11098Y8701
X10437Y8701
X7437Y8701
T03
X9903Y7053
X10903Y7053
X11903Y7053
X12903Y7053
X12925Y4582
X11925Y4582
X10925Y4582
X9925Y4582
X9925Y2061
X10925Y2061
X11925Y2061
X12925Y2061
X17043Y1644
X18043Y1644
X19043Y1644
X20043Y1644
T04
X20133Y8878
X22102Y8878
X17540Y8900
X15572Y8900
T05
X4724Y9118
X4724Y1118
T06
X1024Y945
X1102Y9606
X22756Y1102
M30
