G75*
G70*
%OFA0B0*%
%FSLAX24Y24*%
%IPPOS*%
%LPD*%
%AMOC8*
5,1,8,0,0,1.08239X$1,22.5*
%
%ADD10C,0.0000*%
%ADD11C,0.0051*%
%ADD12C,0.0110*%
D10*
X000000Y000080D02*
X000000Y034470D01*
X039992Y034470D01*
X039992Y000080D01*
X000000Y000080D01*
X001021Y001732D02*
X001023Y001780D01*
X001029Y001828D01*
X001039Y001875D01*
X001052Y001921D01*
X001070Y001966D01*
X001090Y002010D01*
X001115Y002052D01*
X001143Y002091D01*
X001173Y002128D01*
X001207Y002162D01*
X001244Y002194D01*
X001282Y002223D01*
X001323Y002248D01*
X001366Y002270D01*
X001411Y002288D01*
X001457Y002302D01*
X001504Y002313D01*
X001552Y002320D01*
X001600Y002323D01*
X001648Y002322D01*
X001696Y002317D01*
X001744Y002308D01*
X001790Y002296D01*
X001835Y002279D01*
X001879Y002259D01*
X001921Y002236D01*
X001961Y002209D01*
X001999Y002179D01*
X002034Y002146D01*
X002066Y002110D01*
X002096Y002072D01*
X002122Y002031D01*
X002144Y001988D01*
X002164Y001944D01*
X002179Y001899D01*
X002191Y001852D01*
X002199Y001804D01*
X002203Y001756D01*
X002203Y001708D01*
X002199Y001660D01*
X002191Y001612D01*
X002179Y001565D01*
X002164Y001520D01*
X002144Y001476D01*
X002122Y001433D01*
X002096Y001392D01*
X002066Y001354D01*
X002034Y001318D01*
X001999Y001285D01*
X001961Y001255D01*
X001921Y001228D01*
X001879Y001205D01*
X001835Y001185D01*
X001790Y001168D01*
X001744Y001156D01*
X001696Y001147D01*
X001648Y001142D01*
X001600Y001141D01*
X001552Y001144D01*
X001504Y001151D01*
X001457Y001162D01*
X001411Y001176D01*
X001366Y001194D01*
X001323Y001216D01*
X001282Y001241D01*
X001244Y001270D01*
X001207Y001302D01*
X001173Y001336D01*
X001143Y001373D01*
X001115Y001412D01*
X001090Y001454D01*
X001070Y001498D01*
X001052Y001543D01*
X001039Y001589D01*
X001029Y001636D01*
X001023Y001684D01*
X001021Y001732D01*
X001024Y032862D02*
X001026Y032910D01*
X001032Y032958D01*
X001042Y033005D01*
X001055Y033051D01*
X001073Y033096D01*
X001093Y033140D01*
X001118Y033182D01*
X001146Y033221D01*
X001176Y033258D01*
X001210Y033292D01*
X001247Y033324D01*
X001285Y033353D01*
X001326Y033378D01*
X001369Y033400D01*
X001414Y033418D01*
X001460Y033432D01*
X001507Y033443D01*
X001555Y033450D01*
X001603Y033453D01*
X001651Y033452D01*
X001699Y033447D01*
X001747Y033438D01*
X001793Y033426D01*
X001838Y033409D01*
X001882Y033389D01*
X001924Y033366D01*
X001964Y033339D01*
X002002Y033309D01*
X002037Y033276D01*
X002069Y033240D01*
X002099Y033202D01*
X002125Y033161D01*
X002147Y033118D01*
X002167Y033074D01*
X002182Y033029D01*
X002194Y032982D01*
X002202Y032934D01*
X002206Y032886D01*
X002206Y032838D01*
X002202Y032790D01*
X002194Y032742D01*
X002182Y032695D01*
X002167Y032650D01*
X002147Y032606D01*
X002125Y032563D01*
X002099Y032522D01*
X002069Y032484D01*
X002037Y032448D01*
X002002Y032415D01*
X001964Y032385D01*
X001924Y032358D01*
X001882Y032335D01*
X001838Y032315D01*
X001793Y032298D01*
X001747Y032286D01*
X001699Y032277D01*
X001651Y032272D01*
X001603Y032271D01*
X001555Y032274D01*
X001507Y032281D01*
X001460Y032292D01*
X001414Y032306D01*
X001369Y032324D01*
X001326Y032346D01*
X001285Y032371D01*
X001247Y032400D01*
X001210Y032432D01*
X001176Y032466D01*
X001146Y032503D01*
X001118Y032542D01*
X001093Y032584D01*
X001073Y032628D01*
X001055Y032673D01*
X001042Y032719D01*
X001032Y032766D01*
X001026Y032814D01*
X001024Y032862D01*
X037840Y032831D02*
X037842Y032879D01*
X037848Y032927D01*
X037858Y032974D01*
X037871Y033020D01*
X037889Y033065D01*
X037909Y033109D01*
X037934Y033151D01*
X037962Y033190D01*
X037992Y033227D01*
X038026Y033261D01*
X038063Y033293D01*
X038101Y033322D01*
X038142Y033347D01*
X038185Y033369D01*
X038230Y033387D01*
X038276Y033401D01*
X038323Y033412D01*
X038371Y033419D01*
X038419Y033422D01*
X038467Y033421D01*
X038515Y033416D01*
X038563Y033407D01*
X038609Y033395D01*
X038654Y033378D01*
X038698Y033358D01*
X038740Y033335D01*
X038780Y033308D01*
X038818Y033278D01*
X038853Y033245D01*
X038885Y033209D01*
X038915Y033171D01*
X038941Y033130D01*
X038963Y033087D01*
X038983Y033043D01*
X038998Y032998D01*
X039010Y032951D01*
X039018Y032903D01*
X039022Y032855D01*
X039022Y032807D01*
X039018Y032759D01*
X039010Y032711D01*
X038998Y032664D01*
X038983Y032619D01*
X038963Y032575D01*
X038941Y032532D01*
X038915Y032491D01*
X038885Y032453D01*
X038853Y032417D01*
X038818Y032384D01*
X038780Y032354D01*
X038740Y032327D01*
X038698Y032304D01*
X038654Y032284D01*
X038609Y032267D01*
X038563Y032255D01*
X038515Y032246D01*
X038467Y032241D01*
X038419Y032240D01*
X038371Y032243D01*
X038323Y032250D01*
X038276Y032261D01*
X038230Y032275D01*
X038185Y032293D01*
X038142Y032315D01*
X038101Y032340D01*
X038063Y032369D01*
X038026Y032401D01*
X037992Y032435D01*
X037962Y032472D01*
X037934Y032511D01*
X037909Y032553D01*
X037889Y032597D01*
X037871Y032642D01*
X037858Y032688D01*
X037848Y032735D01*
X037842Y032783D01*
X037840Y032831D01*
X037760Y001712D02*
X037762Y001760D01*
X037768Y001808D01*
X037778Y001855D01*
X037791Y001901D01*
X037809Y001946D01*
X037829Y001990D01*
X037854Y002032D01*
X037882Y002071D01*
X037912Y002108D01*
X037946Y002142D01*
X037983Y002174D01*
X038021Y002203D01*
X038062Y002228D01*
X038105Y002250D01*
X038150Y002268D01*
X038196Y002282D01*
X038243Y002293D01*
X038291Y002300D01*
X038339Y002303D01*
X038387Y002302D01*
X038435Y002297D01*
X038483Y002288D01*
X038529Y002276D01*
X038574Y002259D01*
X038618Y002239D01*
X038660Y002216D01*
X038700Y002189D01*
X038738Y002159D01*
X038773Y002126D01*
X038805Y002090D01*
X038835Y002052D01*
X038861Y002011D01*
X038883Y001968D01*
X038903Y001924D01*
X038918Y001879D01*
X038930Y001832D01*
X038938Y001784D01*
X038942Y001736D01*
X038942Y001688D01*
X038938Y001640D01*
X038930Y001592D01*
X038918Y001545D01*
X038903Y001500D01*
X038883Y001456D01*
X038861Y001413D01*
X038835Y001372D01*
X038805Y001334D01*
X038773Y001298D01*
X038738Y001265D01*
X038700Y001235D01*
X038660Y001208D01*
X038618Y001185D01*
X038574Y001165D01*
X038529Y001148D01*
X038483Y001136D01*
X038435Y001127D01*
X038387Y001122D01*
X038339Y001121D01*
X038291Y001124D01*
X038243Y001131D01*
X038196Y001142D01*
X038150Y001156D01*
X038105Y001174D01*
X038062Y001196D01*
X038021Y001221D01*
X037983Y001250D01*
X037946Y001282D01*
X037912Y001316D01*
X037882Y001353D01*
X037854Y001392D01*
X037829Y001434D01*
X037809Y001478D01*
X037791Y001523D01*
X037778Y001569D01*
X037768Y001616D01*
X037762Y001664D01*
X037760Y001712D01*
D11*
X000000Y000080D02*
X-003787Y000080D01*
X-003000Y000080D02*
X-003102Y001104D01*
X-003126Y001104D02*
X-002874Y001104D01*
X-003000Y000080D01*
X-002898Y001104D01*
X-002949Y001104D02*
X-003000Y000080D01*
X-003051Y001104D01*
X-003126Y001104D02*
X-003000Y000080D01*
X-003000Y034470D01*
X-002898Y033446D01*
X-002874Y033446D02*
X-003000Y034470D01*
X-003102Y033446D01*
X-003126Y033446D02*
X-002874Y033446D01*
X-002949Y033446D02*
X-003000Y034470D01*
X-003051Y033446D01*
X-003126Y033446D02*
X-003000Y034470D01*
X-003787Y034470D02*
X000000Y034470D01*
X000000Y039587D01*
X000000Y038800D02*
X001024Y038698D01*
X001024Y038674D02*
X000000Y038800D01*
X001024Y038902D01*
X001024Y038926D02*
X001024Y038674D01*
X001024Y038749D02*
X000000Y038800D01*
X001024Y038851D01*
X001024Y038926D02*
X000000Y038800D01*
X039992Y038800D01*
X038969Y038698D01*
X038969Y038674D02*
X039992Y038800D01*
X038969Y038902D01*
X038969Y038926D02*
X038969Y038674D01*
X038969Y038749D02*
X039992Y038800D01*
X038969Y038851D01*
X038969Y038926D02*
X039992Y038800D01*
X039992Y039587D02*
X039992Y034470D01*
D12*
X023592Y039460D02*
X023380Y039249D01*
X022957Y039249D01*
X022746Y039460D01*
X022746Y039672D01*
X022957Y039883D01*
X023380Y039883D01*
X023592Y039672D01*
X023592Y039460D01*
X023380Y039883D02*
X023592Y040095D01*
X023592Y040306D01*
X023380Y040518D01*
X022957Y040518D01*
X022746Y040306D01*
X022746Y040095D01*
X022957Y039883D01*
X022323Y039883D02*
X022323Y039460D01*
X022111Y039249D01*
X021688Y039249D01*
X021477Y039460D01*
X021054Y039460D02*
X021054Y039249D01*
X020842Y039249D01*
X020842Y039460D01*
X021054Y039460D01*
X021477Y039883D02*
X021900Y040095D01*
X022111Y040095D01*
X022323Y039883D01*
X022323Y040518D02*
X021477Y040518D01*
X021477Y039883D01*
X020420Y039249D02*
X019574Y039249D01*
X019997Y039249D02*
X019997Y040518D01*
X019574Y040095D01*
X019151Y040306D02*
X018939Y040518D01*
X018516Y040518D01*
X018305Y040306D01*
X018305Y039460D01*
X019151Y040306D01*
X019151Y039460D01*
X018939Y039249D01*
X018516Y039249D01*
X018305Y039460D01*
X017882Y039249D02*
X017036Y039249D01*
X017459Y039249D02*
X017459Y040518D01*
X017036Y040095D01*
X-003449Y019938D02*
X-003660Y020150D01*
X-004083Y020150D01*
X-004295Y019938D01*
X-004295Y019727D01*
X-004083Y019304D01*
X-004718Y019304D01*
X-004718Y020150D01*
X-003660Y019304D02*
X-003449Y019515D01*
X-003449Y019938D01*
X-003660Y018881D02*
X-003449Y018670D01*
X-003449Y018247D01*
X-003660Y018035D01*
X-003660Y017612D02*
X-003449Y017612D01*
X-003449Y017401D01*
X-003660Y017401D01*
X-003660Y017612D01*
X-004083Y018458D02*
X-004083Y018670D01*
X-003872Y018881D01*
X-003660Y018881D01*
X-004083Y018670D02*
X-004295Y018881D01*
X-004506Y018881D01*
X-004718Y018670D01*
X-004718Y018247D01*
X-004506Y018035D01*
X-004506Y016978D02*
X-003660Y016132D01*
X-003449Y016132D01*
X-003660Y015709D02*
X-003449Y015498D01*
X-003449Y015075D01*
X-003660Y014863D01*
X-003872Y014863D01*
X-004083Y015075D01*
X-004083Y015498D01*
X-003872Y015709D01*
X-003660Y015709D01*
X-004083Y015498D02*
X-004295Y015709D01*
X-004506Y015709D01*
X-004718Y015498D01*
X-004718Y015075D01*
X-004506Y014863D01*
X-004295Y014863D01*
X-004083Y015075D01*
X-004718Y016132D02*
X-004718Y016978D01*
X-004506Y016978D01*
M02*
