%
M48
M72
T01C0.0276
T02C0.0315
T03C0.0320
T04C0.0350
T05C0.0360
T06C0.0394
T07C0.0433
T08C0.0512
T09C0.1181
%
T01
X36500Y23350
X36500Y23350
T02
X37300Y16500
X37300Y12500
X37500Y8600
X37500Y4600
X30600Y5200
X30600Y6900
X26600Y6900
X26600Y5200
X24600Y8800
X24600Y10400
X26200Y12700
X26200Y14000
X24400Y15400
X24400Y16700
X20400Y16700
X20400Y15400
X19300Y14200
X17900Y14100
X20600Y10400
X20600Y8800
X19400Y8800
X17600Y8800
X17600Y4800
X19400Y4800
X30200Y12700
X30200Y14000
X19300Y18200
X17900Y18100
T03
X26100Y16900
X26000Y15700
X30000Y15700
X30100Y16900
X29300Y20700
X27900Y20700
X27100Y20700
X27000Y22500
X28000Y22500
X29300Y22400
X32300Y22400
X32300Y20700
X28100Y25800
X27300Y25800
X29300Y25900
X29300Y27600
X28200Y27600
X27200Y27600
X32300Y27600
X32300Y25900
X34150Y27100
X34100Y28150
X34600Y29900
X34600Y30900
X32700Y30900
X32700Y29900
X36700Y30000
X36700Y30800
X37100Y28150
X37150Y27100
X30500Y10400
X30600Y8700
X26600Y8700
X26500Y10400
X9700Y26900
X8700Y26900
X11750Y28800
X12750Y28800
X13550Y31200
X14550Y31200
X14450Y33550
X13450Y33550
T04
X22700Y28800
X22700Y27800
X22700Y26800
X22700Y25800
X22700Y23600
X22700Y22600
X22700Y21600
X22700Y20600
X25700Y20600
X25700Y21600
X25700Y22600
X25700Y23600
X25700Y25800
X25700Y26800
X25700Y27800
X25700Y28800
X32400Y16100
X32400Y15100
X32400Y14100
X32400Y13100
X35400Y13100
X35400Y14100
X35400Y15100
X35400Y16100
X35600Y8100
X35600Y7100
X35600Y6100
X35600Y5100
X32600Y5100
X32600Y6100
X32600Y7100
X32600Y8100
T05
X38400Y23900
X38400Y24900
X38400Y25900
X38400Y26900
T06
X36300Y18400
X35300Y18400
X33100Y18400
X32100Y18400
X32500Y10500
X33500Y10500
X35700Y10500
X36700Y10500
X23500Y13900
X21500Y13900
X18600Y11000
X17600Y11000
X21000Y7000
X23000Y7000
X19300Y19900
X18300Y19900
T07
X14475Y21719
X14475Y17781
X6601Y15813
X6523Y10587
X14397Y8619
X14397Y4681
X6523Y2713
X6601Y23687
T08
X2628Y26516
X2628Y28484
X6828Y31028
X6828Y32997
X2466Y20784
X2466Y18816
X2423Y7984
X2423Y6016
T09
X1612Y1732
X1615Y32862
X38431Y32831
X38351Y1712
M30
