%
M48
M72
T01C0.0315
T02C0.0320
T03C0.0350
T04C0.0394
T05C0.0433
T06C0.0512
%
T01
X18180Y5680
X19680Y5680
X21680Y5680
X23680Y5680
X27680Y5680
X33180Y7180
X33180Y3180
X24180Y9680
X21680Y9680
X19680Y9680
X18180Y9680
X24180Y13680
X26180Y16180
X30180Y16180
T02
X32880Y14380
X34980Y14480
X34980Y10480
X32880Y10380
T03
X30180Y10680
X30180Y11680
X30180Y12680
X30180Y13680
X27180Y13680
X27180Y12680
X27180Y11680
X27180Y10680
T04
X19680Y12180
X19680Y13180
X22180Y15680
X24180Y15680
X30180Y19680
X31180Y19680
X20680Y3180
X19680Y3180
T05
X6243Y3743
X14117Y5711
X14117Y9649
X6243Y11617
T06
X2483Y16696
X2483Y18664
X36483Y19164
X36483Y17196
X36483Y6164
X36483Y4196
M30
